<svg xmlns="http://www.w3.org/2000/svg" width="90.699" height="95.5" viewBox="0 0 90.699 95.5">
  <g id="Grupo_177237" data-name="Grupo 177237" transform="translate(-70.753 -34.589)">
    <path id="Trazado_187684" data-name="Trazado 187684" d="M124.676,45.779l33.239,33.239a12.16,12.16,0,0,1,0,17.147L124.676,129.4a12.161,12.161,0,0,1-17.147,0l-33.24-33.24a12.161,12.161,0,0,1,0-17.147l33.24-33.239A12.16,12.16,0,0,1,124.676,45.779Z" transform="translate(0 -3.973)" fill="#4e7c4c" fill-rule="evenodd"/>
    <g id="Grupo_177236" data-name="Grupo 177236" transform="translate(80.792 34.589)">
      <path id="Trazado_187685" data-name="Trazado 187685" d="M120.143,110.413c-.083-.913-3.817-1.991-5.061,1s1,7.218,5.227,7.55,2.987-.415,2.987-.415Z" transform="translate(-103.624 -73.446)" fill="#e4ae7c" fill-rule="evenodd"/>
      <path id="Trazado_187686" data-name="Trazado 187686" d="M200.723,110.413c.083-.913,3.816-1.991,5.061,1s-1,7.218-5.227,7.55-2.987-.415-2.987-.415Z" transform="translate(-146.53 -73.446)" fill="#e4ae7c" fill-rule="evenodd"/>
      <path id="Trazado_187687" data-name="Trazado 187687" d="M128.194,186.486H94.056c-.4-17.457,13.036-27.591,24.569-31.372a59.338,59.338,0,0,0,.7-11.188h17.746a59.382,59.382,0,0,0,.7,11.188c11.533,3.781,24.964,13.915,24.569,31.372Z" transform="translate(-92.883 -91.343)" fill="#e4ae7c" fill-rule="evenodd"/>
      <path id="Trazado_187688" data-name="Trazado 187688" d="M164.345,143.926s-.047,1.253-.018,3.071c-3.37,8.468-13.834,9.42-17.717.352.042-2.007-.011-3.423-.011-3.423Z" transform="translate(-120.161 -91.343)" fill="#d67f54" fill-rule="evenodd"/>
      <path id="Trazado_187689" data-name="Trazado 187689" d="M162.24,198.685c.4-17.24-13.137-27.336-24.96-31.227-4.983,11.057-15.774,10.786-20.59-.031-11.846,3.868-25.459,13.972-25.054,31.258Z" transform="translate(-91.627 -103.541)" fill="#81261c" fill-rule="evenodd"/>
      <path id="Trazado_187690" data-name="Trazado 187690" d="M163.189,181.2q-.462-.366-.935-.716H145.361a10.751,10.751,0,0,1-1.091.716Zm-27.836,0a10.906,10.906,0,0,1-1.094-.716h-17.01q-.473.35-.936.716Z" transform="translate(-104.441 -110.317)" fill="#6c1a0d" fill-rule="evenodd"/>
      <path id="Trazado_187691" data-name="Trazado 187691" d="M162.673,195.231c-.174-.242-.352-.48-.532-.716H103.293q-.27.354-.531.716Z" transform="translate(-97.407 -117.602)" fill="#6c1a0d" fill-rule="evenodd"/>
      <path id="Trazado_187692" data-name="Trazado 187692" d="M162.387,209.264q-.133-.361-.276-.716H95.545q-.142.355-.276.716Z" transform="translate(-93.517 -124.886)" fill="#6c1a0d" fill-rule="evenodd"/>
      <path id="Trazado_187693" data-name="Trazado 187693" d="M162.261,223.3q-.038-.361-.085-.716h-70.1q-.048.355-.086.716Z" transform="translate(-91.814 -132.17)" fill="#6c1a0d" fill-rule="evenodd"/>
      <path id="Trazado_187694" data-name="Trazado 187694" d="M101.7,196.415q-.369.522-.716,1.061v16.255h.716Z" transform="translate(-96.483 -118.588)" fill="#6c1a0d" fill-rule="evenodd"/>
      <path id="Trazado_187695" data-name="Trazado 187695" d="M115.732,181.82q-.361.283-.716.576v23.76h.716Z" transform="translate(-103.767 -111.012)" fill="#6c1a0d" fill-rule="evenodd"/>
      <path id="Trazado_187696" data-name="Trazado 187696" d="M129.766,172.909q-.359.183-.717.373v28.248h.717Z" transform="translate(-111.052 -106.387)" fill="#6c1a0d" fill-rule="evenodd"/>
      <path id="Trazado_187697" data-name="Trazado 187697" d="M143.8,168.269c-.137-.274-.27-.553-.4-.842l-.316.105v31.153h.716Z" transform="translate(-118.336 -103.541)" fill="#6c1a0d" fill-rule="evenodd"/>
      <path id="Trazado_187698" data-name="Trazado 187698" d="M228.341,197.476q-.347-.54-.716-1.061v17.317h.716Z" transform="translate(-162.219 -118.588)" fill="#6c1a0d" fill-rule="evenodd"/>
      <path id="Trazado_187699" data-name="Trazado 187699" d="M214.308,182.4c-.237-.195-.476-.385-.716-.574v24.335h.716Z" transform="translate(-154.935 -111.013)" fill="#6c1a0d" fill-rule="evenodd"/>
      <path id="Trazado_187700" data-name="Trazado 187700" d="M200.275,173.282c-.239-.127-.477-.252-.716-.373v28.622h.716Z" transform="translate(-147.651 -106.387)" fill="#6c1a0d" fill-rule="evenodd"/>
      <path id="Trazado_187701" data-name="Trazado 187701" d="M186.241,167.567l-.222-.075q-.239.529-.494,1.022v30.2h.716Z" transform="translate(-140.367 -103.575)" fill="#6c1a0d" fill-rule="evenodd"/>
      <path id="Trazado_187702" data-name="Trazado 187702" d="M162.609,174.268c-4.751,6.619-12.2,6.486-16.866-.032l-1.72.671,4.541,8.783v18.529H159.7V183.69l4.542-8.783Z" transform="translate(-118.824 -107.076)" fill="#261d1b" fill-rule="evenodd"/>
      <path id="Trazado_187703" data-name="Trazado 187703" d="M142.508,96.733c-22.014.529-33.128-53.757,0-52.366C175.637,42.976,164.521,97.262,142.508,96.733Z" transform="translate(-107.197 -39.651)" fill="#e4ae7c" fill-rule="evenodd"/>
      <path id="Trazado_187704" data-name="Trazado 187704" d="M146.29,98.4a1.972,1.972,0,1,1-2.757.442A1.968,1.968,0,0,1,146.29,98.4Z" transform="translate(-118.375 -67.516)" fill="#20201e" fill-rule="evenodd"/>
      <path id="Trazado_187705" data-name="Trazado 187705" d="M179.8,98.4a1.972,1.972,0,1,0,2.757.442A1.967,1.967,0,0,0,179.8,98.4Z" transform="translate(-136.97 -67.516)" fill="#20201e" fill-rule="evenodd"/>
      <path id="Trazado_187706" data-name="Trazado 187706" d="M139.513,112.876c1.123.863,1.173,2.126.11,2.822a3.68,3.68,0,0,1-3.959-.3c-1.124-.863-1.173-2.125-.11-2.822A3.681,3.681,0,0,1,139.513,112.876Z" transform="translate(-114.03 -74.838)" fill="#da9077" fill-rule="evenodd"/>
      <path id="Trazado_187707" data-name="Trazado 187707" d="M184.793,112.876c-1.124.863-1.173,2.126-.11,2.822a3.68,3.68,0,0,0,3.96-.3c1.123-.863,1.173-2.125.11-2.822A3.681,3.681,0,0,0,184.793,112.876Z" transform="translate(-139.532 -74.838)" fill="#da9077" fill-rule="evenodd"/>
      <path id="Trazado_187708" data-name="Trazado 187708" d="M144.431,87.194c-.073-.032-.147-.062-.222-.09a5.692,5.692,0,0,0-2.519-.328,5.586,5.586,0,0,0-2.352.738c-.356.229-1.746,1.354-1.352,1.769a20.711,20.711,0,0,0,1.952-.795,5.532,5.532,0,0,1,1.816-.244,4.876,4.876,0,0,1,1.664.339c.016,0,.118.049.14.059,1.161.565,1.056.927,1.848.384C146.626,88.376,145.371,87.682,144.431,87.194Z" transform="translate(-115.654 -61.667)" fill="#3f2716" fill-rule="evenodd"/>
      <path id="Trazado_187709" data-name="Trazado 187709" d="M177.037,87.194c.073-.032.147-.062.222-.09a5.691,5.691,0,0,1,2.519-.328,5.586,5.586,0,0,1,2.352.738c.356.229,1.746,1.354,1.352,1.769a20.713,20.713,0,0,1-1.952-.795,5.532,5.532,0,0,0-1.816-.244,4.878,4.878,0,0,0-1.664.339c-.016,0-.118.049-.14.059-1.161.565-1.056.927-1.848.384C174.842,88.376,176.1,87.682,177.037,87.194Z" transform="translate(-135.192 -61.667)" fill="#3f2716" fill-rule="evenodd"/>
      <path id="Trazado_187710" data-name="Trazado 187710" d="M153.175,123.219q3.044-.038,6.071-.038t6.071.038c0,3.183-3.139,4.32-6.06,4.32h-.022C156.315,127.539,153.175,126.4,153.175,123.219Z" transform="translate(-123.575 -80.575)" fill="#fff" fill-rule="evenodd"/>
      <path id="Trazado_187711" data-name="Trazado 187711" d="M162.77,135.708a.238.238,0,0,1,.24-.411,2.342,2.342,0,0,0,1.165.289,2.235,2.235,0,0,0,1.143-.287.238.238,0,0,1,.246.407,2.718,2.718,0,0,1-1.389.357A2.823,2.823,0,0,1,162.77,135.708Z" transform="translate(-128.494 -86.847)" fill="#d67f54" fill-rule="evenodd"/>
      <path id="Trazado_187712" data-name="Trazado 187712" d="M164.417,107.481a.239.239,0,0,1,0-.478,11.644,11.644,0,0,0,1.786-.095c.434-.074.754-.191.754-.39,0-.687-.7-4.955-.7-4.967a.238.238,0,0,1,.47-.075c0,.012.7,4.325.7,5.042,0,.5-.489.747-1.153.859A11.93,11.93,0,0,1,164.417,107.481Z" transform="translate(-129.286 -69.205)" fill="#d67f54" fill-rule="evenodd"/>
      <path id="Trazado_187713" data-name="Trazado 187713" d="M207.173,116.131a.239.239,0,1,1-.478,0,2.315,2.315,0,0,0-.327-1.428.568.568,0,0,0-.444-.222,1.307,1.307,0,0,0-.65.2,4.292,4.292,0,0,0-1.633,1.927,8.865,8.865,0,0,0-.407,1.107,1.692,1.692,0,0,1,1.112-.322,1.056,1.056,0,0,1,.514.186.844.844,0,0,1,.32.45,1.563,1.563,0,0,1-.329,1.292.238.238,0,0,1-.4-.265,1.131,1.131,0,0,0,.268-.891.378.378,0,0,0-.142-.2.591.591,0,0,0-.283-.1,1.309,1.309,0,0,0-1.018.428.516.516,0,0,1-.242.152.261.261,0,0,1-.345-.231l0-.013a.839.839,0,0,1,.007-.278,7.436,7.436,0,0,1,.506-1.507,4.8,4.8,0,0,1,1.834-2.151,1.773,1.773,0,0,1,.894-.262,1.028,1.028,0,0,1,.8.4A2.734,2.734,0,0,1,207.173,116.131Z" transform="translate(-149.273 -75.812)" fill="#d67f54" fill-rule="evenodd"/>
      <path id="Trazado_187714" data-name="Trazado 187714" d="M118.556,116.131a.239.239,0,1,1-.477,0,2.734,2.734,0,0,1,.435-1.728,1.028,1.028,0,0,1,.8-.4,1.772,1.772,0,0,1,.895.262,4.807,4.807,0,0,1,1.834,2.151,7.46,7.46,0,0,1,.505,1.507.839.839,0,0,1,.007.278l0,.013a.261.261,0,0,1-.344.231.515.515,0,0,1-.243-.152,1.309,1.309,0,0,0-1.018-.428.589.589,0,0,0-.283.1.376.376,0,0,0-.142.2,1.133,1.133,0,0,0,.268.891.238.238,0,0,1-.4.265,1.565,1.565,0,0,1-.329-1.292.845.845,0,0,1,.321-.45,1.056,1.056,0,0,1,.515-.186,1.691,1.691,0,0,1,1.111.322,8.946,8.946,0,0,0-.407-1.107,4.289,4.289,0,0,0-1.633-1.927,1.305,1.305,0,0,0-.65-.2.568.568,0,0,0-.444.222A2.317,2.317,0,0,0,118.556,116.131Z" transform="translate(-105.357 -75.812)" fill="#d67f54" fill-rule="evenodd"/>
      <path id="Trazado_187715" data-name="Trazado 187715" d="M137.935,48.377c0,10.6,7.615,8.565,12.2,11.053,3.436,1.866,2.938,2.082,3.885,5.894.87,3.5,1.184,8.988,1.642,10.865,6.91-17.111,9.788-25.111.423-32.634-5.6-4.5-9.589-13.423-18.171-6.305-11.455-5.855-12.5,1.84-18.121,6.305-7.71,6.126-8.394,12.239-6.213,18.661.941,2.77,6.5,13.522,7.018,15.082.708-7.149.253-13.386,2.5-15.833,2.066-2.249,6.47-2.559,8.834-4.04C136.107,54.806,137.935,51.476,137.935,48.377Z" transform="translate(-102.46 -34.589)" fill="#4e2c0b" fill-rule="evenodd"/>
      <path id="Trazado_187716" data-name="Trazado 187716" d="M155.409,82.743l0,.023v0l.015.107,0,.026v0l0,.024.012.078,0,.025v.01l0,.016,0,.025.008.05,0,.025,0,.015v.014l.017.112v0l.018.116h0v.009l.018.106Zm0,0c-.348-2.468-.688-6.608-1.392-9.442-.947-3.811-.449-4.028-3.885-5.894-4.581-2.487-12.2-.456-12.2-11.053,0,3.1-1.828,6.429-6.006,9.048-2.364,1.481-6.769,1.791-8.834,4.04-2.247,2.446-1.792,8.684-2.5,15.833-.523-1.56-6.077-12.312-7.018-15.082a17.161,17.161,0,0,1-1.008-7.295c1.048.793,3.552,1.266,4.669,1.493a13.34,13.34,0,0,0,7.516-1.173c5.557-2.273,9.851-3.41,11.619-8.209s1.768-5.052,1.768-5.052a13.1,13.1,0,0,0,10.23,11.619c4.039,1.036,7.336,1.816,9.767,1.829a23.807,23.807,0,0,0,3.893-.915c1.485,7.7-2.489,12.054-6.331,21.572a.722.722,0,0,0-.042.1c-.013-.055-.027-.114-.04-.176l0-.01,0-.009-.018-.088v-.008l-.02-.1h0l-.02-.1v-.006h0Z" transform="translate(-102.461 -42.567)" fill="#452813" fill-rule="evenodd"/>
      <path id="Trazado_187717" data-name="Trazado 187717" d="M138.682,157.369l3.464,17.566c-.75-1.112-2.783-3.746-4.7-3.746-1.22,0-5.826,2.495-5.793,2.217C132.84,163.661,135.321,159.646,138.682,157.369Z" transform="translate(-112.405 -98.321)" fill="#632421" fill-rule="evenodd"/>
      <path id="Trazado_187718" data-name="Trazado 187718" d="M179.908,157.369l-3.464,17.566c.75-1.112,2.783-3.746,4.7-3.746,1.22,0,5.826,2.495,5.792,2.217C185.749,163.661,183.269,159.646,179.908,157.369Z" transform="translate(-135.653 -98.321)" fill="#632421" fill-rule="evenodd"/>
      <path id="Trazado_187719" data-name="Trazado 187719" d="M113.19,211.495a.357.357,0,0,1,.714.005l-.088,9.878a.357.357,0,0,1-.713-.006Z" transform="translate(-102.774 -126.232)" fill="#581200" fill-rule="evenodd"/>
      <path id="Trazado_187720" data-name="Trazado 187720" d="M215.416,211.495a.356.356,0,1,1,.713.005l-.088,9.878a.357.357,0,0,1-.713-.006Z" transform="translate(-155.836 -126.232)" fill="#581200" fill-rule="evenodd"/>
      <path id="Trazado_187721" data-name="Trazado 187721" d="M139.551,51.684a.238.238,0,1,1,.468.089,14.191,14.191,0,0,1-2.443,5.923,12.9,12.9,0,0,1-6.685,4.488c-6.375,2.04-8.7,1.523-8.708,1.522a.238.238,0,1,1,.095-.466c.007,0,2.214.492,8.468-1.509a12.433,12.433,0,0,0,6.449-4.321A13.727,13.727,0,0,0,139.551,51.684Z" transform="translate(-107.388 -43.362)" fill="#5e422e" fill-rule="evenodd"/>
      <path id="Trazado_187722" data-name="Trazado 187722" d="M120.867,56.652a.238.238,0,1,1-.425-.213,10.079,10.079,0,0,1,3.174-3.535,23.9,23.9,0,0,1,4.713-2.577c1.838-.782,2.7-2.578,3.474-4.2.635-1.328,1.219-2.55,2.252-3.111,2.337-1.268,5.98,1.139,5.99,1.146a.238.238,0,1,1-.261.4c-.01-.006-3.419-2.258-5.5-1.127a6.189,6.189,0,0,0-2.051,2.9c-.815,1.7-1.715,3.584-3.716,4.437a23.445,23.445,0,0,0-4.617,2.522A9.621,9.621,0,0,0,120.867,56.652Z" transform="translate(-106.571 -38.77)" fill="#5e422e" fill-rule="evenodd"/>
      <path id="Trazado_187723" data-name="Trazado 187723" d="M171.1,51.774a.238.238,0,1,1,.468-.089,13.726,13.726,0,0,0,2.357,5.727,12.435,12.435,0,0,0,6.449,4.321c6.255,2,8.461,1.511,8.468,1.509a.238.238,0,1,1,.095.466c-.006,0-2.333.518-8.708-1.522a12.905,12.905,0,0,1-6.686-4.488A14.2,14.2,0,0,1,171.1,51.774Z" transform="translate(-132.878 -43.362)" fill="#5e422e" fill-rule="evenodd"/>
      <path id="Trazado_187724" data-name="Trazado 187724" d="M188.839,56.439a.237.237,0,1,1-.425.213,9.62,9.62,0,0,0-3.03-3.364,23.45,23.45,0,0,0-4.618-2.522c-2-.853-2.9-2.734-3.716-4.437A6.192,6.192,0,0,0,175,43.43c-2.083-1.131-5.492,1.121-5.5,1.127a.238.238,0,0,1-.261-.4c.011-.007,3.654-2.414,5.991-1.146,1.033.561,1.616,1.782,2.252,3.111.777,1.626,1.636,3.422,3.473,4.2a23.887,23.887,0,0,1,4.713,2.577A10.083,10.083,0,0,1,188.839,56.439Z" transform="translate(-131.856 -38.77)" fill="#5e422e" fill-rule="evenodd"/>
    </g>
  </g>
</svg>
