<svg xmlns="http://www.w3.org/2000/svg" width="90.449" height="93.438" viewBox="0 0 90.449 93.438">
  <g id="Grupo_177239" data-name="Grupo 177239" transform="translate(-490.657 -274.776)">
    <path id="Trazado_187725" data-name="Trazado 187725" d="M544.431,283.793l33.148,33.149a12.126,12.126,0,0,1,0,17.1l-33.148,33.148a12.126,12.126,0,0,1-17.1,0L494.184,334.04a12.126,12.126,0,0,1,0-17.1l33.148-33.149A12.127,12.127,0,0,1,544.431,283.793Z" transform="translate(0 -2.857)" fill="#7ea2d5" fill-rule="evenodd"/>
    <path id="Trazado_187726" data-name="Trazado 187726" d="M595.458,359.313s.4,5.139,2.72,7.053,7.759,4.534,8.464,13.2-4.937,15.416-4.937,15.416a12.96,12.96,0,0,0-1.915-8.061c-3.425-5.541-19.1-2.443-23.98-16.424C570.225,354.5,587.044,335.068,595.458,359.313Z" transform="translate(-43.734 -38.043)" fill="#543117" fill-rule="evenodd"/>
    <path id="Trazado_187727" data-name="Trazado 187727" d="M540.031,346.846c-.083-.91-3.806-1.986-5.047.993s.994,7.2,5.213,7.529,2.978-.414,2.978-.414Z" transform="translate(-22.89 -37.005)" fill="#e4ae7c" fill-rule="evenodd"/>
    <path id="Trazado_187728" data-name="Trazado 187728" d="M620.618,346.846c.083-.91,3.805-1.986,5.046.993s-.992,7.2-5.211,7.529-2.979-.414-2.979-.414Z" transform="translate(-65.906 -37.005)" fill="#e4ae7c" fill-rule="evenodd"/>
    <path id="Trazado_187729" data-name="Trazado 187729" d="M548,422.8H513.959c-.394-17.408,13-27.514,24.5-31.286a59.162,59.162,0,0,0,.695-11.157h17.7a59.145,59.145,0,0,0,.695,11.157c11.5,3.771,24.9,13.877,24.5,31.286Z" transform="translate(-12.122 -54.947)" fill="#e4ae7c" fill-rule="evenodd"/>
    <path id="Trazado_187730" data-name="Trazado 187730" d="M584.2,380.362s-.047,1.249-.018,3.063c-3.361,8.444-13.8,9.394-17.669.351.043-2-.011-3.414-.011-3.414Z" transform="translate(-39.469 -54.947)" fill="#d67f54" fill-rule="evenodd"/>
    <path id="Trazado_187731" data-name="Trazado 187731" d="M581.948,435.034c.4-17.191-13.1-27.26-24.891-31.14l-9.778,15.091-10.755-15.122c-11.813,3.857-25.389,13.933-24.986,31.171Z" transform="translate(-10.862 -67.176)" fill="#e9ded5" fill-rule="evenodd"/>
    <path id="Trazado_187732" data-name="Trazado 187732" d="M562.354,333.025c-21.953.527-33.037-53.609,0-52.222C595.391,279.416,584.307,333.552,562.354,333.025Z" transform="translate(-26.473 -3.123)" fill="#e4ae7c" fill-rule="evenodd"/>
    <path id="Trazado_187733" data-name="Trazado 187733" d="M566.185,334.833a1.966,1.966,0,1,1-2.75.441A1.962,1.962,0,0,1,566.185,334.833Z" transform="translate(-37.679 -31.059)" fill="#20201e" fill-rule="evenodd"/>
    <path id="Trazado_187734" data-name="Trazado 187734" d="M599.7,334.833a1.966,1.966,0,1,0,2.75.441A1.962,1.962,0,0,0,599.7,334.833Z" transform="translate(-56.321 -31.059)" fill="#20201e" fill-rule="evenodd"/>
    <path id="Trazado_187735" data-name="Trazado 187735" d="M559.4,349.311c1.12.86,1.169,2.12.109,2.813a3.668,3.668,0,0,1-3.948-.3c-1.121-.859-1.169-2.119-.109-2.814A3.671,3.671,0,0,1,559.4,349.311Z" transform="translate(-33.323 -38.4)" fill="#da9077" fill-rule="evenodd"/>
    <path id="Trazado_187736" data-name="Trazado 187736" d="M604.694,349.311c-1.12.86-1.169,2.12-.109,2.813a3.668,3.668,0,0,0,3.948-.3c1.12-.859,1.17-2.119.109-2.814A3.67,3.67,0,0,0,604.694,349.311Z" transform="translate(-58.89 -38.4)" fill="#da9077" fill-rule="evenodd"/>
    <path id="Trazado_187737" data-name="Trazado 187737" d="M564.317,323.629c-.073-.032-.147-.061-.221-.09a5.675,5.675,0,0,0-2.512-.327,5.566,5.566,0,0,0-2.346.736c-.355.229-1.741,1.351-1.348,1.764a20.438,20.438,0,0,0,1.946-.792,5.507,5.507,0,0,1,1.811-.244,4.864,4.864,0,0,1,1.66.338c.015,0,.118.049.14.059,1.158.563,1.053.925,1.843.383C566.506,324.808,565.254,324.116,564.317,323.629Z" transform="translate(-34.951 -25.195)" fill="#3f2716" fill-rule="evenodd"/>
    <path id="Trazado_187738" data-name="Trazado 187738" d="M596.937,323.629c.073-.032.147-.061.221-.09a5.677,5.677,0,0,1,2.513-.327,5.567,5.567,0,0,1,2.346.736c.355.229,1.741,1.351,1.348,1.764a20.536,20.536,0,0,1-1.946-.792,5.507,5.507,0,0,0-1.812-.244,4.867,4.867,0,0,0-1.66.338c-.015,0-.118.049-.14.059-1.158.563-1.053.925-1.842.383C594.748,324.808,596,324.116,596.937,323.629Z" transform="translate(-54.54 -25.195)" fill="#3f2716" fill-rule="evenodd"/>
    <path id="Trazado_187739" data-name="Trazado 187739" d="M573.449,359.655q2.946-.037,5.877-.038t5.877.038c0,3.174-3.039,4.308-5.867,4.308h-.021C576.488,363.963,573.449,362.829,573.449,359.655Z" transform="translate(-43.085 -44.151)" fill="#fff" fill-rule="evenodd"/>
    <path id="Trazado_187740" data-name="Trazado 187740" d="M585.224,362.672c-.779,2.082-3.272,2.863-5.619,2.863h-.021c-2.348,0-4.841-.781-5.62-2.863q2.821-.035,5.63-.035T585.224,362.672Z" transform="translate(-43.353 -45.723)" fill="#88342a" fill-rule="evenodd"/>
    <path id="Trazado_187741" data-name="Trazado 187741" d="M582.673,372.143a.237.237,0,1,1,.24-.409,2.338,2.338,0,0,0,1.162.288,2.23,2.23,0,0,0,1.14-.286.237.237,0,0,1,.245.406,2.708,2.708,0,0,1-1.385.356A2.815,2.815,0,0,1,582.673,372.143Z" transform="translate(-47.824 -50.44)" fill="#d67f54" fill-rule="evenodd"/>
    <path id="Trazado_187742" data-name="Trazado 187742" d="M584.32,343.9a.238.238,0,0,1,0-.476,11.615,11.615,0,0,0,1.781-.094c.433-.073.752-.191.752-.388,0-.685-.694-4.941-.7-4.953a.237.237,0,0,1,.469-.075c0,.012.7,4.314.7,5.028,0,.5-.487.745-1.15.857A11.836,11.836,0,0,1,584.32,343.9Z" transform="translate(-48.618 -32.753)" fill="#d67f54" fill-rule="evenodd"/>
    <path id="Trazado_187743" data-name="Trazado 187743" d="M627.064,352.562a.238.238,0,1,1-.475,0,2.307,2.307,0,0,0-.327-1.424.569.569,0,0,0-.443-.221,1.305,1.305,0,0,0-.648.2,4.281,4.281,0,0,0-1.629,1.921,9.08,9.08,0,0,0-.406,1.1,1.693,1.693,0,0,1,1.109-.322,1.056,1.056,0,0,1,.513.186.834.834,0,0,1,.319.448,1.56,1.56,0,0,1-.328,1.288.238.238,0,0,1-.395-.264,1.128,1.128,0,0,0,.267-.888.366.366,0,0,0-.141-.2.584.584,0,0,0-.282-.1,1.31,1.31,0,0,0-1.015.426.51.51,0,0,1-.242.152.26.26,0,0,1-.343-.23l0-.012a.821.821,0,0,1,.007-.278,7.423,7.423,0,0,1,.5-1.5,4.788,4.788,0,0,1,1.829-2.145,1.766,1.766,0,0,1,.892-.26,1.026,1.026,0,0,1,.8.4A2.727,2.727,0,0,1,627.064,352.562Z" transform="translate(-68.656 -39.377)" fill="#d67f54" fill-rule="evenodd"/>
    <path id="Trazado_187744" data-name="Trazado 187744" d="M538.459,352.562a.238.238,0,0,1-.476,0,2.724,2.724,0,0,1,.434-1.724,1.025,1.025,0,0,1,.8-.4,1.77,1.77,0,0,1,.892.26,4.79,4.79,0,0,1,1.829,2.145,7.426,7.426,0,0,1,.5,1.5.819.819,0,0,1,.007.278l0,.012a.26.26,0,0,1-.343.23.514.514,0,0,1-.242-.152,1.309,1.309,0,0,0-1.014-.426.582.582,0,0,0-.282.1.367.367,0,0,0-.141.2,1.128,1.128,0,0,0,.267.888.237.237,0,1,1-.394.264,1.559,1.559,0,0,1-.329-1.288.84.84,0,0,1,.32-.448,1.054,1.054,0,0,1,.513-.186,1.694,1.694,0,0,1,1.109.322,8.989,8.989,0,0,0-.406-1.1,4.283,4.283,0,0,0-1.628-1.921,1.308,1.308,0,0,0-.648-.2.569.569,0,0,0-.443.221A2.308,2.308,0,0,0,538.459,352.562Z" transform="translate(-24.628 -39.377)" fill="#d67f54" fill-rule="evenodd"/>
    <path id="Trazado_187745" data-name="Trazado 187745" d="M541.343,309.425c-14.83-45.5,53.375-46.809,39.431-.252-1.3,3.819-3.991-13.558-3.994-13.673-.028-1.13-2.25-6.772-5.031-7.356-4.038-.846-12.236-5.5-17.436-4.079-5.988,1.631-8.74,9.541-8.787,11.435,0,.126-1.2,6.242-2.416,10.392C542.271,308.766,541.8,311.077,541.343,309.425Z" transform="translate(-25.272)" fill="#4e2c0b" fill-rule="evenodd"/>
    <path id="Trazado_187746" data-name="Trazado 187746" d="M621.274,334.073a3.181,3.181,0,0,1,.19,2.3c-.326,1.3-1.572,3.365-2.19,5.766-.922,3.579-1.818,7-1.83,7.036-1.187-3.141.706-11.781,1.063-15.316.127-1.933-.257-4.921.662-4.852C620.433,328.493,621.326,333.137,621.274,334.073Z" transform="translate(-65.778 -28.201)" fill="#4e2c0b" fill-rule="evenodd"/>
    <path id="Trazado_187747" data-name="Trazado 187747" d="M541.82,340.859c.082,1.594.927,1.61,1.877,4.063,1.546,3.991,3.445,9.742,3.462,9.782,1.04-2.668-1.255-10-1.778-13.006-.216-1.641.028-4.178-.888-4.12C543.2,337.142,541.725,340.065,541.82,340.859Z" transform="translate(-26.623 -32.659)" fill="#4e2c0b" fill-rule="evenodd"/>
    <path id="Trazado_187748" data-name="Trazado 187748" d="M533.094,447.93a.356.356,0,1,1,.712.005l-.088,9.85a.355.355,0,1,1-.711,0Z" transform="translate(-22.039 -89.925)" fill="#cbb9a8" fill-rule="evenodd"/>
    <path id="Trazado_187749" data-name="Trazado 187749" d="M635.32,447.93a.356.356,0,1,1,.711.005l-.087,9.85a.356.356,0,1,1-.712,0Z" transform="translate(-75.236 -89.925)" fill="#cbb9a8" fill-rule="evenodd"/>
    <path id="Trazado_187750" data-name="Trazado 187750" d="M582.082,291.832c4.641-.775,13.6.433,14.648,6.656s-.25,8.663,3.823,11.337,1.534,7.128,1.161,8c2.935-1.737,9.139-9.866,4.447-14.918s.485-7.71-2.968-15.351S581.605,280.926,582.082,291.832Z" transform="translate(-47.572 -4.071)" fill="#784928" fill-rule="evenodd"/>
    <path id="Trazado_187751" data-name="Trazado 187751" d="M563.316,288.212s-15.655-.938-17.714,6.032-.921,9.94-5.95,12.431-2.746,7.936-2.441,8.987c-3.114-2.395-9.076-12.553-3.008-17.676s.518-8.882,5.529-17.138S565.379,275.811,563.316,288.212Z" transform="translate(-21.299 -0.783)" fill="#784928" fill-rule="evenodd"/>
    <path id="Trazado_187752" data-name="Trazado 187752" d="M537.67,319.178a.238.238,0,0,1-.475-.019,6.3,6.3,0,0,1,1.358-3.69,7.848,7.848,0,0,1,3.457-2.443,4.5,4.5,0,0,0,2.424-2.51,16.154,16.154,0,0,0,1.2-5.408,18.445,18.445,0,0,1,.763-4.076,11.293,11.293,0,0,1,3.727-5.694,9.142,9.142,0,0,1,6.467-1.791,14.228,14.228,0,0,1,3.147.631.238.238,0,0,1-.141.454,13.725,13.725,0,0,0-3.041-.611,8.681,8.681,0,0,0-6.141,1.693,10.822,10.822,0,0,0-3.565,5.46,17.984,17.984,0,0,0-.742,3.97,16.605,16.605,0,0,1-1.242,5.571,4.953,4.953,0,0,1-2.692,2.758,7.37,7.37,0,0,0-3.247,2.29A5.823,5.823,0,0,0,537.67,319.178Z" transform="translate(-24.218 -9.75)" fill="#a87e58" fill-rule="evenodd"/>
    <path id="Trazado_187753" data-name="Trazado 187753" d="M559.152,285.888a.237.237,0,1,1-.228.416,11.4,11.4,0,0,0-1.205-.575,13.524,13.524,0,0,0-7.41-.764,7.641,7.641,0,0,0-5.491,3.5,5.851,5.851,0,0,0-.291.606h0A23.978,23.978,0,0,0,543.219,297c-.151,3.016-.284,5.681-1.831,7.23a12.607,12.607,0,0,1-2.857,2.142,3.553,3.553,0,0,0-2.179,2.75.237.237,0,1,1-.465-.1,3.933,3.933,0,0,1,2.4-3.063,12.274,12.274,0,0,0,2.761-2.066c1.418-1.42,1.547-4,1.692-6.918a24.392,24.392,0,0,1,1.341-8.082h0a6.175,6.175,0,0,1,.314-.658,8.105,8.105,0,0,1,5.82-3.742,14.021,14.021,0,0,1,7.677.79A11.868,11.868,0,0,1,559.152,285.888Z" transform="translate(-23.535 -4.945)" fill="#a87e58" fill-rule="evenodd"/>
    <path id="Trazado_187754" data-name="Trazado 187754" d="M611.2,319.2a.238.238,0,1,1-.472-.058,5.1,5.1,0,0,0-.686-3.4,5.8,5.8,0,0,0-2.846-2.27,3.978,3.978,0,0,1-2.264-2.787,15.525,15.525,0,0,1-.322-5.578,15.281,15.281,0,0,0-.446-5.624,7.922,7.922,0,0,0-2.3-3.8,7.019,7.019,0,0,0-4.113-1.663,13.089,13.089,0,0,0-4.818.6.237.237,0,1,1-.134-.455,13.543,13.543,0,0,1,4.994-.616,7.487,7.487,0,0,1,4.385,1.78,8.39,8.39,0,0,1,2.447,4.019,15.737,15.737,0,0,1,.465,5.8,15.1,15.1,0,0,0,.3,5.4,3.532,3.532,0,0,0,1.982,2.481,6.271,6.271,0,0,1,3.077,2.462A5.564,5.564,0,0,1,611.2,319.2Z" transform="translate(-53.064 -9.75)" fill="#a87e58" fill-rule="evenodd"/>
    <path id="Trazado_187755" data-name="Trazado 187755" d="M592.835,287.316a.238.238,0,1,1-.223-.42,11.006,11.006,0,0,1,2.571-.973,11.732,11.732,0,0,1,6.49.274,8.016,8.016,0,0,1,4.589,3.655,6.262,6.262,0,0,1,.556,1.462,25.01,25.01,0,0,1,.442,7.024c-.1,2.589-.177,4.787,1.047,6.258a11.287,11.287,0,0,0,2.1,1.942c1.127.845,1.817,1.362,1.91,3.715a.238.238,0,0,1-.475.018c-.083-2.127-.7-2.592-1.719-3.354a11.692,11.692,0,0,1-2.183-2.017c-1.341-1.611-1.256-3.892-1.157-6.578a24.66,24.66,0,0,0-.428-6.9,5.785,5.785,0,0,0-.516-1.351,7.543,7.543,0,0,0-4.324-3.428,11.241,11.241,0,0,0-6.224-.263A10.549,10.549,0,0,0,592.835,287.316Z" transform="translate(-52.991 -5.629)" fill="#a87e58" fill-rule="evenodd"/>
    <path id="Trazado_187756" data-name="Trazado 187756" d="M549.052,409.719a.237.237,0,0,1,.376-.29l13.922,18.043a.237.237,0,1,1-.375.29Z" transform="translate(-30.363 -70.025)" fill="#cbb9a8" fill-rule="evenodd"/>
    <path id="Trazado_187757" data-name="Trazado 187757" d="M599.58,409.4a.237.237,0,1,1,.4.262l-18.7,28.329a.238.238,0,1,1-.4-.263Z" transform="translate(-46.93 -70.004)" fill="#cbb9a8" fill-rule="evenodd"/>
    <path id="Trazado_187758" data-name="Trazado 187758" d="M584.127,404.189a.237.237,0,1,1,.4.257l-19.857,30.83a.237.237,0,1,1-.4-.257Z" transform="translate(-38.288 -67.289)" fill="#cbb9a8" fill-rule="evenodd"/>
    <path id="Trazado_187759" data-name="Trazado 187759" d="M562.867,403.851a.238.238,0,1,1,.389-.274l10.756,15.249a.238.238,0,1,1-.388.273Z" transform="translate(-37.555 -66.975)" fill="#cbb9a8" fill-rule="evenodd"/>
    <path id="Trazado_187760" data-name="Trazado 187760" d="M545.19,364.454a.357.357,0,0,1,.664-.26,7.762,7.762,0,0,1,.415,1.552,10.835,10.835,0,0,1,.143,1.777,9.158,9.158,0,0,1-.611,3.456c-.416.984-1.026,1.593-1.73,1.593s-1.314-.609-1.73-1.593a9.158,9.158,0,0,1-.611-3.456,9.722,9.722,0,0,1,.45-3.032,3.217,3.217,0,0,1,1.277-1.854.356.356,0,1,1,.338.627,2.568,2.568,0,0,0-.939,1.453,9.006,9.006,0,0,0-.411,2.806A8.43,8.43,0,0,0,543,370.7c.3.714.684,1.155,1.075,1.155s.773-.442,1.074-1.155a8.429,8.429,0,0,0,.552-3.179,10.134,10.134,0,0,0-.132-1.66A7.012,7.012,0,0,0,545.19,364.454Z" transform="translate(-26.579 -45.701)" fill="#dc9118" fill-rule="evenodd"/>
    <path id="Trazado_187761" data-name="Trazado 187761" d="M618.97,364.194a.357.357,0,0,1,.664.26,7.012,7.012,0,0,0-.376,1.41,10.134,10.134,0,0,0-.132,1.66,8.43,8.43,0,0,0,.552,3.179c.3.714.683,1.155,1.074,1.155s.773-.442,1.075-1.155a8.432,8.432,0,0,0,.552-3.179,8.992,8.992,0,0,0-.411-2.806,2.569,2.569,0,0,0-.94-1.453.356.356,0,1,1,.338-.627,3.215,3.215,0,0,1,1.277,1.854,9.722,9.722,0,0,1,.45,3.032,9.158,9.158,0,0,1-.611,3.456c-.416.984-1.025,1.593-1.73,1.593s-1.314-.609-1.73-1.593a9.148,9.148,0,0,1-.611-3.456,10.891,10.891,0,0,1,.143-1.777A7.766,7.766,0,0,1,618.97,364.194Z" transform="translate(-66.483 -45.701)" fill="#dc9118" fill-rule="evenodd"/>
  </g>
</svg>
