<svg xmlns="http://www.w3.org/2000/svg" width="891" height="119" viewBox="0 0 891 119">
  <g id="Grupo_177629" data-name="Grupo 177629" transform="translate(-2147 5856)">
    <path id="Trazado_188507" data-name="Trazado 188507" d="M5,0H77a5,5,0,0,1,5,5V114a5,5,0,0,1-5,5H5a5,5,0,0,1-5-5V5A5,5,0,0,1,5,0Z" transform="translate(2147 -5856)" fill="#777"/>
    <path id="Trazado_188499" data-name="Trazado 188499" d="M5,0H189a5,5,0,0,1,5,5V114a5,5,0,0,1-5,5H5a5,5,0,0,1-5-5V5A5,5,0,0,1,5,0Z" transform="translate(2844 -5856)" fill="#fed947"/>
    <path id="Trazado_188501" data-name="Trazado 188501" d="M5,0H188a5,5,0,0,1,5,5V114a5,5,0,0,1-5,5H5a5,5,0,0,1-5-5V5A5,5,0,0,1,5,0Z" transform="translate(2643 -5856)" fill="#fc5f65"/>
    <path id="Trazado_188509" data-name="Trazado 188509" d="M5,0H164a5,5,0,0,1,5,5V57a5,5,0,0,1-5,5H5a5,5,0,0,1-5-5V5A5,5,0,0,1,5,0Z" transform="translate(2655 -5840)" fill="#fff"/>
    <path id="Trazado_188510" data-name="Trazado 188510" d="M5,0H164a5,5,0,0,1,5,5V57a5,5,0,0,1-5,5H5a5,5,0,0,1-5-5V5A5,5,0,0,1,5,0Z" transform="translate(2857 -5840)" fill="#fff"/>
    <path id="Trazado_188514" data-name="Trazado 188514" d="M-65.29-3.2l4.307-9.6h2.953L-64.349,0h-2.689l-2.3-12.8h2.769ZM-54.567.176a4.137,4.137,0,0,1-2.21-.611,3.7,3.7,0,0,1-1.437-1.652A4.605,4.605,0,0,1-58.583-4.4l.026-.352A6.148,6.148,0,0,1-57.749-7.3a4.884,4.884,0,0,1,1.74-1.789,4.306,4.306,0,0,1,2.355-.593,3.29,3.29,0,0,1,2.782,1.351A4.631,4.631,0,0,1-50.155-5L-50.3-3.92h-5.827a2.041,2.041,0,0,0,.448,1.477,1.711,1.711,0,0,0,1.318.571,3.041,3.041,0,0,0,2.373-1.055l1.134,1.406A3.527,3.527,0,0,1-52.4-.259,5.059,5.059,0,0,1-54.567.176Zm.791-7.813a1.761,1.761,0,0,0-1.217.431,3.784,3.784,0,0,0-.954,1.556h3.41l.053-.229a2.33,2.33,0,0,0,.009-.668,1.276,1.276,0,0,0-.431-.8A1.35,1.35,0,0,0-53.776-7.638Zm10.731.51a5.117,5.117,0,0,0-.835-.088,2.4,2.4,0,0,0-2.1.993L-47.079,0h-2.479L-47.9-9.51l2.329-.009-.229,1.16A2.615,2.615,0,0,1-43.589-9.7a3.615,3.615,0,0,1,.861.123Zm9.088,2.4a6.819,6.819,0,0,1-1.371,3.6A3.412,3.412,0,0,1-38.193.185a2.652,2.652,0,0,1-2.285-1.213L-40.838,0H-43.1l2.338-13.5h2.487l-.958,4.86a2.963,2.963,0,0,1,2.32-1.046,2.683,2.683,0,0,1,2.167.989A4.376,4.376,0,0,1-33.9-6.012,10.274,10.274,0,0,1-33.957-4.729Zm-2.461-.185a7.373,7.373,0,0,0,.053-1.164q-.1-1.534-1.266-1.56a2.062,2.062,0,0,0-1.819,1l-.686,3.791a1.415,1.415,0,0,0,1.424.987q1.828.053,2.241-2.662ZM-26.125,0h-2.5l1.652-9.51h2.5Zm-.554-11.927a1.238,1.238,0,0,1,.387-.976,1.36,1.36,0,0,1,.976-.387,1.367,1.367,0,0,1,.976.343,1.233,1.233,0,0,1,.431.932,1.273,1.273,0,0,1-.365.949,1.367,1.367,0,0,1-1,.422,1.39,1.39,0,0,1-.971-.334A1.227,1.227,0,0,1-26.679-11.927ZM-20.1-9.519l-.211,1.125a3.422,3.422,0,0,1,2.769-1.292,2.281,2.281,0,0,1,1.986.984A3.966,3.966,0,0,1-15.1-6.047L-16.1,0h-2.479l1.02-6.073a2.844,2.844,0,0,0,.018-.624,1.007,1.007,0,0,0-1.125-.923,2.133,2.133,0,0,0-1.749.905L-21.6,0h-2.479l1.652-9.51ZM-.576-4.729a6.819,6.819,0,0,1-1.371,3.6A3.412,3.412,0,0,1-4.812.185,2.652,2.652,0,0,1-7.1-1.028L-7.458,0H-9.716l2.338-13.5h2.487l-.958,4.86a2.963,2.963,0,0,1,2.32-1.046A2.683,2.683,0,0,1-1.362-8.7,4.376,4.376,0,0,1-.523-6.012,10.274,10.274,0,0,1-.576-4.729Zm-2.461-.185a7.373,7.373,0,0,0,.053-1.164q-.1-1.534-1.266-1.56a2.062,2.062,0,0,0-1.819,1l-.686,3.791a1.415,1.415,0,0,0,1.424.987q1.828.053,2.241-2.662ZM5.7,0a2.566,2.566,0,0,1-.1-.861A3.221,3.221,0,0,1,3.177.176a2.919,2.919,0,0,1-2.07-.813A2.46,2.46,0,0,1,.338-2.6,2.843,2.843,0,0,1,1.644-4.988a5.924,5.924,0,0,1,3.335-.831l1.16.018.123-.571a1.984,1.984,0,0,0,.026-.554.952.952,0,0,0-.312-.646,1.075,1.075,0,0,0-.708-.242,1.514,1.514,0,0,0-.984.286,1.384,1.384,0,0,0-.519.875l-2.487.009a2.764,2.764,0,0,1,1.252-2.21,4.851,4.851,0,0,1,2.94-.831A3.507,3.507,0,0,1,8-8.723a2.816,2.816,0,0,1,.765,2.386L8.038-1.784l-.044.563A2.714,2.714,0,0,0,8.143-.167L8.134,0ZM3.792-1.749a2.27,2.27,0,0,0,1.872-.932l.308-1.644-.861-.009A2.406,2.406,0,0,0,3.133-3.5a1.454,1.454,0,0,0-.272.712.844.844,0,0,0,.2.751A1,1,0,0,0,3.792-1.749Zm11.364-.932q.141-.7-.976-1.02l-.8-.2q-2.839-.782-2.76-2.76a2.731,2.731,0,0,1,1.191-2.193,4.434,4.434,0,0,1,2.764-.831,3.978,3.978,0,0,1,2.6.853,2.809,2.809,0,0,1,1.011,2.224l-2.461-.009a1.084,1.084,0,0,0-1.213-1.239,1.745,1.745,0,0,0-1.006.29,1.194,1.194,0,0,0-.523.782q-.132.7,1.063.993l.352.079a7.071,7.071,0,0,1,1.854.664,2.8,2.8,0,0,1,.989.927,2.3,2.3,0,0,1,.321,1.327,2.533,2.533,0,0,1-.584,1.582A3.577,3.577,0,0,1,15.451-.167a5.328,5.328,0,0,1-2.043.343,4.015,4.015,0,0,1-2.637-.91A2.933,2.933,0,0,1,9.7-3.041l2.338.018A1.285,1.285,0,0,0,13.5-1.644a2.076,2.076,0,0,0,1.129-.281A1.111,1.111,0,0,0,15.157-2.681ZM23.225.176a4.137,4.137,0,0,1-2.21-.611,3.7,3.7,0,0,1-1.437-1.652A4.605,4.605,0,0,1,19.208-4.4l.026-.352A6.148,6.148,0,0,1,20.043-7.3a4.884,4.884,0,0,1,1.74-1.789,4.306,4.306,0,0,1,2.355-.593,3.29,3.29,0,0,1,2.782,1.351A4.631,4.631,0,0,1,27.637-5L27.5-3.92H21.669a2.041,2.041,0,0,0,.448,1.477,1.711,1.711,0,0,0,1.318.571,3.041,3.041,0,0,0,2.373-1.055l1.134,1.406A3.527,3.527,0,0,1,25.4-.259,5.059,5.059,0,0,1,23.225.176Zm.791-7.813a1.761,1.761,0,0,0-1.217.431,3.784,3.784,0,0,0-.954,1.556h3.41l.053-.229a2.33,2.33,0,0,0,.009-.668,1.276,1.276,0,0,0-.431-.8A1.35,1.35,0,0,0,24.016-7.638ZM33.341,0l1.327-7.655H33.3l.325-1.854,1.371-.009.123-.949a3.748,3.748,0,0,1,1.239-2.386,3.751,3.751,0,0,1,2.575-.848,8.246,8.246,0,0,1,1.345.184l-.22,1.97a3.073,3.073,0,0,0-.729-.105,1.817,1.817,0,0,0-1.129.335,1.525,1.525,0,0,0-.584,1.033l-.132.777h1.837l-.325,1.854H37.165L35.837,0ZM44.459-9.686a3.814,3.814,0,0,1,2.167.646,3.638,3.638,0,0,1,1.336,1.731,5.357,5.357,0,0,1,.3,2.448,5.786,5.786,0,0,1-1.578,3.669,4.455,4.455,0,0,1-3.4,1.367,3.8,3.8,0,0,1-2.145-.637A3.624,3.624,0,0,1,39.81-2.18,5.239,5.239,0,0,1,39.5-4.605,5.957,5.957,0,0,1,41.1-8.35,4.363,4.363,0,0,1,44.459-9.686Zm-2.5,5.979a2.194,2.194,0,0,0,.4,1.33,1.314,1.314,0,0,0,1.063.5,1.926,1.926,0,0,0,1.793-1.049,5.227,5.227,0,0,0,.606-2.848A2.387,2.387,0,0,0,45.4-7.116a1.293,1.293,0,0,0-1.068-.522A1.929,1.929,0,0,0,42.565-6.6,5.173,5.173,0,0,0,41.955-3.706ZM55.49-7.128a5.117,5.117,0,0,0-.835-.088,2.4,2.4,0,0,0-2.1.993L51.456,0H48.977l1.652-9.51,2.329-.009-.229,1.16A2.615,2.615,0,0,1,54.945-9.7a3.615,3.615,0,0,1,.861.123Zm3.9-2.391-.2,1.081a3.5,3.5,0,0,1,2.786-1.248,2.676,2.676,0,0,1,1.459.4,1.889,1.889,0,0,1,.782,1.046,3.662,3.662,0,0,1,2.953-1.45,2.391,2.391,0,0,1,1.973.9A3.68,3.68,0,0,1,69.7-6.275l-.018.22L68.673,0H66.186L67.2-6.08a4.4,4.4,0,0,0,.026-.607.942.942,0,0,0-1.055-.95,2.093,2.093,0,0,0-1.749,1.091l-.026.2L63.286,0H60.807l1.011-6.056a4.386,4.386,0,0,0,.026-.606A.94.94,0,0,0,60.8-7.62a2.1,2.1,0,0,0-1.7.888L57.916,0H55.437l1.644-9.51Z" transform="translate(2740 -5805)" fill="#12263f"/>
    <path id="Trazado_188515" data-name="Trazado 188515" d="M-40.1-4.271A4.786,4.786,0,0,1-41-1.92,4.921,4.921,0,0,1-42.97-.347a6,6,0,0,1-2.619.523,4.428,4.428,0,0,1-2.206-.584,3.874,3.874,0,0,1-1.481-1.617,5.976,5.976,0,0,1-.611-2.439,11.963,11.963,0,0,1,.224-2.689,8.526,8.526,0,0,1,1.02-2.856A6.374,6.374,0,0,1-46.9-11.988a5.264,5.264,0,0,1,3.252-.984A4.318,4.318,0,0,1-40.5-11.747a4.932,4.932,0,0,1,1.279,3.309l-2.566-.009a2.69,2.69,0,0,0-.483-1.775,1.972,1.972,0,0,0-1.5-.6,2.608,2.608,0,0,0-2.167.94A5.656,5.656,0,0,0-47.074-7a15.925,15.925,0,0,0-.246,2.751A2.738,2.738,0,0,0-46.8-2.544a1.736,1.736,0,0,0,1.327.576,2.65,2.65,0,0,0,1.885-.558,2.953,2.953,0,0,0,.936-1.727Zm6.363-5.414a3.814,3.814,0,0,1,2.167.646A3.638,3.638,0,0,1-30.23-7.308a5.357,5.357,0,0,1,.3,2.448A5.786,5.786,0,0,1-31.5-1.191,4.455,4.455,0,0,1-34.9.176a3.8,3.8,0,0,1-2.145-.637A3.624,3.624,0,0,1-38.382-2.18a5.239,5.239,0,0,1-.308-2.426,5.957,5.957,0,0,1,1.6-3.744A4.363,4.363,0,0,1-33.732-9.686Zm-2.5,5.979a2.194,2.194,0,0,0,.4,1.33,1.314,1.314,0,0,0,1.063.5,1.926,1.926,0,0,0,1.793-1.049,5.227,5.227,0,0,0,.606-2.848,2.387,2.387,0,0,0-.409-1.347,1.293,1.293,0,0,0-1.068-.522A1.929,1.929,0,0,0-35.626-6.6,5.173,5.173,0,0,0-36.237-3.706ZM-25.26-9.519l-.2,1.081a3.5,3.5,0,0,1,2.786-1.248,2.676,2.676,0,0,1,1.459.4,1.889,1.889,0,0,1,.782,1.046,3.662,3.662,0,0,1,2.953-1.45,2.391,2.391,0,0,1,1.973.9,3.68,3.68,0,0,1,.558,2.514l-.018.22L-15.979,0h-2.487l1.011-6.08a4.4,4.4,0,0,0,.026-.607.942.942,0,0,0-1.055-.95,2.093,2.093,0,0,0-1.749,1.091l-.026.2L-21.366,0h-2.479l1.011-6.056a4.386,4.386,0,0,0,.026-.606.94.94,0,0,0-1.046-.958,2.1,2.1,0,0,0-1.7.888L-26.736,0h-2.479l1.644-9.51Zm20.382,4.79A7.854,7.854,0,0,1-5.66-2.074,4.3,4.3,0,0,1-7.146-.352,3.44,3.44,0,0,1-9.114.185a2.745,2.745,0,0,1-2.18-1.028l-.87,4.5h-2.479L-12.366-9.51l2.285-.009-.167.958A3.036,3.036,0,0,1-7.822-9.686,2.7,2.7,0,0,1-5.651-8.67a4.412,4.412,0,0,1,.826,2.659A10.274,10.274,0,0,1-4.878-4.729Zm-2.461-.18.053-.845A2.351,2.351,0,0,0-7.6-7.11a1.12,1.12,0,0,0-.962-.519,2.046,2.046,0,0,0-1.784.915l-.712,3.926a1.387,1.387,0,0,0,1.4.924,1.789,1.789,0,0,0,1.494-.7A4.763,4.763,0,0,0-7.339-4.909ZM-1.477,0h-2.5l2.347-13.5H.861ZM5.142.176a4.137,4.137,0,0,1-2.21-.611A3.7,3.7,0,0,1,1.494-2.087,4.605,4.605,0,0,1,1.125-4.4l.026-.352A6.148,6.148,0,0,1,1.96-7.3,4.884,4.884,0,0,1,3.7-9.092a4.306,4.306,0,0,1,2.355-.593A3.29,3.29,0,0,1,8.837-8.334,4.631,4.631,0,0,1,9.554-5L9.413-3.92H3.586a2.041,2.041,0,0,0,.448,1.477,1.711,1.711,0,0,0,1.318.571A3.041,3.041,0,0,0,7.726-2.927L8.859-1.521A3.527,3.527,0,0,1,7.313-.259,5.059,5.059,0,0,1,5.142.176Zm.791-7.813a1.761,1.761,0,0,0-1.217.431,3.784,3.784,0,0,0-.954,1.556h3.41l.053-.229a2.33,2.33,0,0,0,.009-.668,1.276,1.276,0,0,0-.431-.8A1.35,1.35,0,0,0,5.933-7.638Zm8.174-1.881-.2,1.081A3.5,3.5,0,0,1,16.69-9.686a2.676,2.676,0,0,1,1.459.4,1.889,1.889,0,0,1,.782,1.046,3.662,3.662,0,0,1,2.953-1.45,2.391,2.391,0,0,1,1.973.9,3.68,3.68,0,0,1,.558,2.514l-.018.22L23.388,0H20.9l1.011-6.08a4.4,4.4,0,0,0,.026-.607.942.942,0,0,0-1.055-.95,2.093,2.093,0,0,0-1.749,1.091l-.026.2L18,0H15.521l1.011-6.056a4.386,4.386,0,0,0,.026-.606.94.94,0,0,0-1.046-.958,2.1,2.1,0,0,0-1.7.888L12.63,0H10.151l1.644-9.51ZM29.874.176a4.137,4.137,0,0,1-2.21-.611,3.7,3.7,0,0,1-1.437-1.652A4.605,4.605,0,0,1,25.857-4.4l.026-.352A6.148,6.148,0,0,1,26.692-7.3a4.884,4.884,0,0,1,1.74-1.789,4.306,4.306,0,0,1,2.355-.593A3.29,3.29,0,0,1,33.57-8.334,4.631,4.631,0,0,1,34.286-5L34.146-3.92H28.318a2.041,2.041,0,0,0,.448,1.477,1.711,1.711,0,0,0,1.318.571,3.041,3.041,0,0,0,2.373-1.055l1.134,1.406A3.527,3.527,0,0,1,32.045-.259,5.059,5.059,0,0,1,29.874.176Zm.791-7.813a1.761,1.761,0,0,0-1.217.431,3.784,3.784,0,0,0-.954,1.556H31.9l.053-.229a2.33,2.33,0,0,0,.009-.668,1.276,1.276,0,0,0-.431-.8A1.35,1.35,0,0,0,30.665-7.638ZM38.8-9.519l-.211,1.125a3.422,3.422,0,0,1,2.769-1.292,2.281,2.281,0,0,1,1.986.984,3.966,3.966,0,0,1,.466,2.654L42.812,0H40.333l1.02-6.073A2.844,2.844,0,0,0,41.37-6.7a1.007,1.007,0,0,0-1.125-.923,2.133,2.133,0,0,0-1.749.905L37.31,0H34.831l1.652-9.51Zm10.978-2.329L49.368-9.51H50.95l-.325,1.863H49.043l-.809,4.764a1.211,1.211,0,0,0,.07.686q.123.237.6.255.141.009.756-.044L49.482-.044a4.169,4.169,0,0,1-1.424.2,2.234,2.234,0,0,1-1.819-.765,2.763,2.763,0,0,1-.492-2.021l.817-5.019H45.22l.325-1.863H46.89l.4-2.338Z" transform="translate(2941 -5805)" fill="#12263f"/>
    <path id="Trazado_188503" data-name="Trazado 188503" d="M5,0H189a5,5,0,0,1,5,5V114a5,5,0,0,1-5,5H5a5,5,0,0,1-5-5V5A5,5,0,0,1,5,0Z" transform="translate(2440 -5856)" fill="#3c3fa7"/>
    <path id="Trazado_188511" data-name="Trazado 188511" d="M5,0H164a5,5,0,0,1,5,5V57a5,5,0,0,1-5,5H5a5,5,0,0,1-5-5V5A5,5,0,0,1,5,0Z" transform="translate(2453 -5840)" fill="#fff"/>
    <path id="Trazado_188516" data-name="Trazado 188516" d="M-22.737-3.419q.185-1.046-1.028-1.6l-1.7-.677q-2.953-1.318-2.8-3.63a3.334,3.334,0,0,1,.7-1.9,4.227,4.227,0,0,1,1.8-1.3,6.379,6.379,0,0,1,2.5-.453,4.34,4.34,0,0,1,3,1.1,3.676,3.676,0,0,1,1.125,2.861H-21.7a1.831,1.831,0,0,0-.382-1.354,1.722,1.722,0,0,0-1.323-.5,2.667,2.667,0,0,0-1.529.4,1.641,1.641,0,0,0-.773,1.147q-.167.958,1.283,1.521l1.16.439.668.308q2.593,1.283,2.426,3.6A3.477,3.477,0,0,1-20.9-1.49,4.088,4.088,0,0,1-22.654-.229,6.261,6.261,0,0,1-25.1.185a5.483,5.483,0,0,1-2.426-.571,3.767,3.767,0,0,1-1.617-1.538,3.983,3.983,0,0,1-.483-2.109l2.575.009Q-27.176-1.942-25-1.907a2.69,2.69,0,0,0,1.547-.413A1.608,1.608,0,0,0-22.737-3.419Zm9.51,2.435A3.283,3.283,0,0,1-15.847.176a2.443,2.443,0,0,1-2.074-.984,3.6,3.6,0,0,1-.545-2.549l1.028-6.152h2.479L-16-3.324a2.446,2.446,0,0,0-.009.545.9.9,0,0,0,.976.906,2.265,2.265,0,0,0,1.907-.889l1.187-6.749h2.5L-11.1,0h-2.312ZM-.114-4.729a6.819,6.819,0,0,1-1.371,3.6A3.412,3.412,0,0,1-4.351.185,2.652,2.652,0,0,1-6.636-1.028L-7,0H-9.255l2.338-13.5H-4.43l-.958,4.86a2.963,2.963,0,0,1,2.32-1.046A2.683,2.683,0,0,1-.9-8.7,4.376,4.376,0,0,1-.062-6.012,10.274,10.274,0,0,1-.114-4.729Zm-2.461-.185a7.373,7.373,0,0,0,.053-1.164q-.1-1.534-1.266-1.56a2.062,2.062,0,0,0-1.819,1l-.686,3.791a1.415,1.415,0,0,0,1.424.987q1.828.053,2.241-2.662Zm7.515-4.6L3.234.519A3.956,3.956,0,0,1,2.087,3a3.357,3.357,0,0,1-2.439.87A7.65,7.65,0,0,1-1.67,3.7l.2-2.021A4.848,4.848,0,0,0-.7,1.793,1.344,1.344,0,0,0,.721.527L2.443-9.51ZM2.681-11.927a1.241,1.241,0,0,1,.369-.962,1.415,1.415,0,0,1,.993-.4,1.415,1.415,0,0,1,1,.36,1.246,1.246,0,0,1,.409.914,1.252,1.252,0,0,1-.369.971,1.415,1.415,0,0,1-.993.4,1.39,1.39,0,0,1-.971-.334A1.227,1.227,0,0,1,2.681-11.927ZM9.8.176a4.137,4.137,0,0,1-2.21-.611A3.7,3.7,0,0,1,6.152-2.087,4.605,4.605,0,0,1,5.783-4.4l.026-.352A6.148,6.148,0,0,1,6.618-7.3a4.884,4.884,0,0,1,1.74-1.789,4.306,4.306,0,0,1,2.355-.593A3.29,3.29,0,0,1,13.5-8.334,4.631,4.631,0,0,1,14.212-5L14.071-3.92H8.244a2.041,2.041,0,0,0,.448,1.477,1.711,1.711,0,0,0,1.318.571,3.041,3.041,0,0,0,2.373-1.055l1.134,1.406A3.527,3.527,0,0,1,11.971-.259,5.059,5.059,0,0,1,9.8.176Zm.791-7.813a1.761,1.761,0,0,0-1.217.431A3.784,3.784,0,0,0,8.42-5.651h3.41l.053-.229a2.33,2.33,0,0,0,.009-.668,1.276,1.276,0,0,0-.431-.8A1.35,1.35,0,0,0,10.591-7.638Zm8.385,5.774a1.628,1.628,0,0,0,1.143-.374,1.836,1.836,0,0,0,.6-1.042l2.329-.009a3.416,3.416,0,0,1-.628,1.8A3.818,3.818,0,0,1,20.9-.237a4.327,4.327,0,0,1-1.991.422,3.514,3.514,0,0,1-2.742-1.2A4.461,4.461,0,0,1,15.2-4.122l.026-.483.009-.1A5.945,5.945,0,0,1,16.8-8.38a4.231,4.231,0,0,1,3.278-1.305,3.428,3.428,0,0,1,2.553,1.05,3.71,3.71,0,0,1,.927,2.676H21.243a1.947,1.947,0,0,0-.334-1.2,1.269,1.269,0,0,0-1-.475q-1.775-.053-2.153,2.593a8.755,8.755,0,0,0-.1,1.617Q17.745-1.89,18.976-1.863ZM29.03-11.848,28.617-9.51H30.2l-.325,1.863H28.292l-.809,4.764a1.211,1.211,0,0,0,.07.686q.123.237.6.255.141.009.756-.044L28.731-.044a4.169,4.169,0,0,1-1.424.2,2.234,2.234,0,0,1-1.819-.765A2.763,2.763,0,0,1,25-2.628l.817-5.019H24.469l.325-1.863h1.345l.4-2.338Z" transform="translate(2537 -5805)" fill="#12263f"/>
    <path id="Trazado_188504" data-name="Trazado 188504" d="M-17.254,0l1.977-11.375,3.266.008a4.473,4.473,0,0,1,2.066.52A3.905,3.905,0,0,1-8.457-9.422,4.883,4.883,0,0,1-7.77-7.328a6.911,6.911,0,0,1-.016,1.391l-.055.414A6.5,6.5,0,0,1-9.8-1.512,5.558,5.558,0,0,1-13.738,0Zm3.938-9.477-1.32,7.594.953.008a3.127,3.127,0,0,0,2.535-1.156,5.976,5.976,0,0,0,1.1-3.492l.016-.25a3.151,3.151,0,0,0-.492-1.977,1.879,1.879,0,0,0-1.539-.719ZM-2.34,0a2.281,2.281,0,0,1-.086-.766A2.863,2.863,0,0,1-4.582.156a2.594,2.594,0,0,1-1.84-.723,2.186,2.186,0,0,1-.684-1.746,2.527,2.527,0,0,1,1.16-2.121A5.266,5.266,0,0,1-2.98-5.172l1.031.016.109-.508a1.764,1.764,0,0,0,.023-.492.846.846,0,0,0-.277-.574.955.955,0,0,0-.629-.215,1.345,1.345,0,0,0-.875.254,1.231,1.231,0,0,0-.461.777l-2.211.008A2.457,2.457,0,0,1-5.156-7.871a4.312,4.312,0,0,1,2.613-.738,3.117,3.117,0,0,1,2.25.855,2.5,2.5,0,0,1,.68,2.121L-.262-1.586l-.039.5a2.412,2.412,0,0,0,.133.938L-.176,0Zm-1.7-1.555a2.017,2.017,0,0,0,1.664-.828L-2.1-3.844l-.766-.008a2.139,2.139,0,0,0-1.758.742,1.292,1.292,0,0,0-.242.633.75.75,0,0,0,.176.668A.891.891,0,0,0-4.035-1.555ZM4.605-2.789,7.012-8.453H9.387L5.3,0H3.191L1.746-8.453H3.98ZM12.988.156a3.677,3.677,0,0,1-1.965-.543A3.292,3.292,0,0,1,9.746-1.855a4.093,4.093,0,0,1-.328-2.059l.023-.312a5.465,5.465,0,0,1,.719-2.266,4.341,4.341,0,0,1,1.547-1.59A3.827,3.827,0,0,1,13.8-8.609a2.924,2.924,0,0,1,2.473,1.2,4.117,4.117,0,0,1,.637,2.962l-.125.962h-5.18A1.814,1.814,0,0,0,12-2.172a1.521,1.521,0,0,0,1.172.508A2.7,2.7,0,0,0,15.285-2.6l1.008,1.25A3.135,3.135,0,0,1,14.918-.23,4.5,4.5,0,0,1,12.988.156Zm.7-6.945a1.565,1.565,0,0,0-1.082.383,3.363,3.363,0,0,0-.848,1.383h3.031l.047-.2a2.071,2.071,0,0,0,.008-.594,1.134,1.134,0,0,0-.383-.707A1.2,1.2,0,0,0,13.691-6.789Z" transform="translate(2537 -5755)" fill="#fff"/>
    <path id="Trazado_188502" data-name="Trazado 188502" d="M-8.449-4.234A5.849,5.849,0,0,1-7.172-7.418a3.242,3.242,0,0,1,2.629-1.2,2.37,2.37,0,0,1,2.016.977l.289-.82,2.023.008L-1.6-.289A3.983,3.983,0,0,1-3.035,2.383a4.471,4.471,0,0,1-3,.953,4.168,4.168,0,0,1-1.672-.379,3.575,3.575,0,0,1-1.312-1L-7.926.617a2.349,2.349,0,0,0,1.844.961,2.166,2.166,0,0,0,1.469-.449A2.4,2.4,0,0,0-3.785-.227l.125-.508A2.749,2.749,0,0,1-5.73.156,2.428,2.428,0,0,1-7.691-.762a3.947,3.947,0,0,1-.8-2.348A7.89,7.89,0,0,1-8.449-4.234Zm2.164.927A2.02,2.02,0,0,0-5.977-2.13a1.08,1.08,0,0,0,.895.466,1.972,1.972,0,0,0,1.594-.767l.656-3.583a1.3,1.3,0,0,0-1.242-.767A1.728,1.728,0,0,0-5.5-6.1a3.561,3.561,0,0,0-.734,1.87A8.214,8.214,0,0,0-6.285-3.307ZM4.9-8.609a3.39,3.39,0,0,1,1.926.574A3.234,3.234,0,0,1,8.016-6.5a4.762,4.762,0,0,1,.27,2.176,5.143,5.143,0,0,1-1.4,3.262A3.96,3.96,0,0,1,3.863.156,3.38,3.38,0,0,1,1.957-.41,3.222,3.222,0,0,1,.77-1.937,4.657,4.657,0,0,1,.5-4.094,5.3,5.3,0,0,1,1.918-7.422,3.878,3.878,0,0,1,4.9-8.609ZM2.676-3.294a1.95,1.95,0,0,0,.352,1.182,1.168,1.168,0,0,0,.945.449A1.712,1.712,0,0,0,5.566-2.6a4.647,4.647,0,0,0,.539-2.531,2.122,2.122,0,0,0-.363-1.2,1.149,1.149,0,0,0-.949-.464,1.715,1.715,0,0,0-1.574.924A4.6,4.6,0,0,0,2.676-3.294Z" transform="translate(2740 -5755)" fill="#fff"/>
    <path id="Trazado_188500" data-name="Trazado 188500" d="M-20.527-7.516a2.946,2.946,0,0,1,2.289-1.094,2.143,2.143,0,0,1,1.848.9,3.548,3.548,0,0,1,.441,2.379L-16.84,0h-2.2l.9-5.358a2.6,2.6,0,0,0,.016-.563.885.885,0,0,0-.984-.868,1.9,1.9,0,0,0-1.562.766L-21.738,0h-2.2l2.078-12h2.211ZM-12.793,0h-2.219l1.469-8.453h2.219Zm-.492-10.6a1.1,1.1,0,0,1,.344-.867,1.209,1.209,0,0,1,.867-.344,1.215,1.215,0,0,1,.867.3,1.1,1.1,0,0,1,.383.828,1.132,1.132,0,0,1-.324.844,1.215,1.215,0,0,1-.887.375,1.235,1.235,0,0,1-.863-.3A1.091,1.091,0,0,1-13.285-10.6ZM-7.27-3.367l-1.023.891L-8.723,0h-2.2l2.078-12h2.211L-7.777-5.484l.43-.461L-4.84-8.453h2.828l-3.7,3.633L-3.355,0H-5.77ZM-.23,0H-2.449L-.98-8.453H1.238ZM-.723-10.6a1.1,1.1,0,0,1,.344-.867,1.209,1.209,0,0,1,.867-.344,1.215,1.215,0,0,1,.867.3,1.1,1.1,0,0,1,.383.828,1.132,1.132,0,0,1-.324.844,1.215,1.215,0,0,1-.887.375,1.235,1.235,0,0,1-.863-.3A1.091,1.091,0,0,1-.723-10.6ZM5.121-8.461l-.187,1A3.042,3.042,0,0,1,7.395-8.609a2.028,2.028,0,0,1,1.766.875,3.526,3.526,0,0,1,.414,2.359L8.684,0H6.48l.906-5.4A2.528,2.528,0,0,0,7.4-5.953a.9.9,0,0,0-1-.82,1.9,1.9,0,0,0-1.555.8L3.793,0H1.59L3.059-8.453Zm5.711,4.227a5.849,5.849,0,0,1,1.277-3.184,3.242,3.242,0,0,1,2.629-1.2,2.37,2.37,0,0,1,2.016.977l.289-.82,2.023.008L17.684-.289a3.983,3.983,0,0,1-1.437,2.672,4.471,4.471,0,0,1-3,.953,4.168,4.168,0,0,1-1.672-.379,3.575,3.575,0,0,1-1.312-1L11.355.617a2.349,2.349,0,0,0,1.844.961,2.166,2.166,0,0,0,1.469-.449A2.4,2.4,0,0,0,15.5-.227l.125-.508a2.749,2.749,0,0,1-2.07.891A2.428,2.428,0,0,1,11.59-.762a3.947,3.947,0,0,1-.8-2.348A7.89,7.89,0,0,1,10.832-4.234ZM13-3.307A2.02,2.02,0,0,0,13.3-2.13a1.08,1.08,0,0,0,.895.466,1.972,1.972,0,0,0,1.594-.767l.656-3.583a1.3,1.3,0,0,0-1.242-.767,1.728,1.728,0,0,0-1.43.681,3.561,3.561,0,0,0-.734,1.87A8.214,8.214,0,0,0,13-3.307Zm7.891.979A1.22,1.22,0,0,1,21.781-2a1.111,1.111,0,0,1,.371.855,1.151,1.151,0,0,1-.344.879,1.194,1.194,0,0,1-.883.363,1.2,1.2,0,0,1-.883-.312,1.149,1.149,0,0,1-.375-.852A1.161,1.161,0,0,1,20-1.953,1.238,1.238,0,0,1,20.887-2.328Z" transform="translate(2941 -5755)" fill="#fff"/>
    <path id="Trazado_188505" data-name="Trazado 188505" d="M5,0H189a5,5,0,0,1,5,5V114a5,5,0,0,1-5,5H5a5,5,0,0,1-5-5V5A5,5,0,0,1,5,0Z" transform="translate(2238 -5856)" fill="#38cc51"/>
    <path id="Trazado_188512" data-name="Trazado 188512" d="M5,0H164a5,5,0,0,1,5,5V57a5,5,0,0,1-5,5H5a5,5,0,0,1-5-5V5A5,5,0,0,1,5,0Z" transform="translate(2251 -5840)" fill="#fff"/>
    <path id="Trazado_188513" data-name="Trazado 188513" d="M16.334,16.363H11.87L10.551,19H7.712L14.55,6.2h2.382L19.367,19H16.739Zm-3.41-2.136h3.085l-.721-4.764Zm13.359,3.788a3.283,3.283,0,0,1-2.619,1.16,2.443,2.443,0,0,1-2.074-.984,3.6,3.6,0,0,1-.545-2.549L22.074,9.49h2.479l-1.046,6.186a2.446,2.446,0,0,0-.009.545.9.9,0,0,0,.976.906,2.265,2.265,0,0,0,1.907-.889L27.567,9.49h2.5L28.411,19H26.1Zm8.552-5.7,2-2.821h2.786l-3.445,4.781L38.1,19H35.583l-1.169-2.971L32.313,19h-2.8L33.1,14.025,31.258,9.49h2.514ZM41.849,19h-2.5l1.652-9.51h2.5ZM41.3,7.073a1.238,1.238,0,0,1,.387-.976,1.488,1.488,0,0,1,1.951-.044,1.233,1.233,0,0,1,.431.932,1.273,1.273,0,0,1-.365.949,1.367,1.367,0,0,1-1,.422,1.39,1.39,0,0,1-.971-.334A1.227,1.227,0,0,1,41.3,7.073ZM46.569,19h-2.5L46.419,5.5h2.487Zm4.72,0h-2.5l1.652-9.51h2.5ZM50.735,7.073a1.238,1.238,0,0,1,.387-.976,1.488,1.488,0,0,1,1.951-.044,1.233,1.233,0,0,1,.431.932,1.273,1.273,0,0,1-.365.949,1.367,1.367,0,0,1-1,.422,1.39,1.39,0,0,1-.971-.334A1.227,1.227,0,0,1,50.735,7.073ZM58.891,19a2.566,2.566,0,0,1-.1-.861,3.221,3.221,0,0,1-2.426,1.037,2.919,2.919,0,0,1-2.07-.813A2.46,2.46,0,0,1,53.53,16.4a2.843,2.843,0,0,1,1.305-2.386,5.924,5.924,0,0,1,3.335-.831l1.16.018.123-.571a1.984,1.984,0,0,0,.026-.554.952.952,0,0,0-.312-.646,1.075,1.075,0,0,0-.708-.242,1.514,1.514,0,0,0-.984.286,1.384,1.384,0,0,0-.519.875l-2.487.009a2.764,2.764,0,0,1,1.252-2.21,4.851,4.851,0,0,1,2.94-.831,3.507,3.507,0,0,1,2.531.962,2.816,2.816,0,0,1,.765,2.386l-.729,4.553-.044.563a2.714,2.714,0,0,0,.149,1.055L61.326,19Zm-1.907-1.749a2.27,2.27,0,0,0,1.872-.932l.308-1.644-.861-.009a2.406,2.406,0,0,0-1.978.835,1.454,1.454,0,0,0-.272.712.844.844,0,0,0,.2.751A1,1,0,0,0,56.984,17.251ZM69.35,11.872a5.117,5.117,0,0,0-.835-.088,2.4,2.4,0,0,0-2.1.993L65.316,19H62.837L64.49,9.49l2.329-.009-.229,1.16A2.615,2.615,0,0,1,68.805,9.3a3.615,3.615,0,0,1,.861.123Zm3.981,3.507L76.047,9.49h2.76L73.244,20.433a4.76,4.76,0,0,1-1.4,1.846,3.063,3.063,0,0,1-1.859.589,5.665,5.665,0,0,1-1.2-.185l.185-1.934.343.018a1.858,1.858,0,0,0,1.775-.888l.545-1.011L70.08,9.49h2.566Zm13.254.483L89.292,9.49h2.672L87.368,19H84.995L83.369,9.49h2.514Zm9.431,3.313a4.137,4.137,0,0,1-2.21-.611,3.7,3.7,0,0,1-1.437-1.652A4.605,4.605,0,0,1,92,14.6l.026-.352a6.148,6.148,0,0,1,.809-2.549,4.884,4.884,0,0,1,1.74-1.789,4.306,4.306,0,0,1,2.355-.593,3.29,3.29,0,0,1,2.782,1.351A4.631,4.631,0,0,1,100.428,14l-.141,1.083H94.46a2.041,2.041,0,0,0,.448,1.477,1.711,1.711,0,0,0,1.318.571A3.041,3.041,0,0,0,98.6,16.073l1.134,1.406a3.527,3.527,0,0,1-1.547,1.261A5.059,5.059,0,0,1,96.016,19.176Zm.791-7.813a1.761,1.761,0,0,0-1.217.431,3.784,3.784,0,0,0-.954,1.556h3.41l.053-.229a2.33,2.33,0,0,0,.009-.668,1.276,1.276,0,0,0-.431-.8A1.35,1.35,0,0,0,96.807,11.362Zm10.731.51a5.117,5.117,0,0,0-.835-.088,2.4,2.4,0,0,0-2.1.993L103.5,19h-2.479l1.652-9.51,2.329-.009-.229,1.16A2.615,2.615,0,0,1,106.994,9.3a3.615,3.615,0,0,1,.861.123Zm9.088,2.4a6.819,6.819,0,0,1-1.371,3.6,3.412,3.412,0,0,1-2.865,1.31,2.652,2.652,0,0,1-2.285-1.213L109.745,19h-2.259l2.338-13.5h2.487l-.958,4.86a2.963,2.963,0,0,1,2.32-1.046,2.683,2.683,0,0,1,2.167.989,4.376,4.376,0,0,1,.839,2.685A10.274,10.274,0,0,1,116.626,14.271Zm-2.461-.185a7.373,7.373,0,0,0,.053-1.164q-.1-1.534-1.266-1.56a2.062,2.062,0,0,0-1.819,1l-.686,3.791a1.415,1.415,0,0,0,1.424.987q1.828.053,2.241-2.662ZM35.895,30.2l1.178.721a12.046,12.046,0,0,0-.721,1.208,4.931,4.931,0,0,0-.457,1.332l-.229,1.327H33.7l.176-1.16A5.376,5.376,0,0,1,35.895,30.2Zm2.918,0,1.178.721a12.046,12.046,0,0,0-.721,1.208,4.931,4.931,0,0,0-.457,1.332l-.229,1.327H36.615l.176-1.16A5.376,5.376,0,0,1,38.813,30.2Zm9.132,10.336L50.2,34.49h2.47l-4,9.51H46.6l-.7-5.95L43.119,44H41.045l-.7-9.51h2.32l.149,5.985,2.716-5.985H47.32Zm9.773-6.223a3.814,3.814,0,0,1,2.167.646,3.638,3.638,0,0,1,1.336,1.731,5.357,5.357,0,0,1,.3,2.448,5.786,5.786,0,0,1-1.578,3.669,4.455,4.455,0,0,1-3.4,1.367,3.8,3.8,0,0,1-2.145-.637,3.624,3.624,0,0,1-1.336-1.718,5.239,5.239,0,0,1-.308-2.426,5.957,5.957,0,0,1,1.6-3.744A4.363,4.363,0,0,1,57.718,34.314Zm-2.5,5.979a2.194,2.194,0,0,0,.4,1.33,1.314,1.314,0,0,0,1.063.5,1.926,1.926,0,0,0,1.793-1.049,5.227,5.227,0,0,0,.606-2.848,2.387,2.387,0,0,0-.409-1.347,1.293,1.293,0,0,0-1.068-.522,1.929,1.929,0,0,0-1.771,1.04A5.173,5.173,0,0,0,55.213,40.294Zm12.911,2.722a3.283,3.283,0,0,1-2.619,1.16,2.443,2.443,0,0,1-2.074-.984,3.6,3.6,0,0,1-.545-2.549l1.028-6.152h2.479l-1.046,6.186a2.446,2.446,0,0,0-.009.545.9.9,0,0,0,.976.906,2.265,2.265,0,0,0,1.907-.889l1.187-6.749h2.5L70.251,44H67.939ZM74.716,44h-2.5l2.347-13.5h2.487Zm6.82-9.694a2.706,2.706,0,0,1,2.145,1.063l.932-4.869H87.1L84.762,44H82.547l.141-1.02a3.078,3.078,0,0,1-2.479,1.2,2.738,2.738,0,0,1-1.556-.466A2.933,2.933,0,0,1,77.621,42.4a5.292,5.292,0,0,1-.4-1.912,7.2,7.2,0,0,1,.026-1.072l.053-.4a7.613,7.613,0,0,1,.813-2.566,4.237,4.237,0,0,1,1.477-1.644A3.481,3.481,0,0,1,81.536,34.306Zm-1.8,5.115a7.118,7.118,0,0,0-.044,1.125q.088,1.547,1.248,1.573a2.121,2.121,0,0,0,1.819-.984l.677-3.779a1.4,1.4,0,0,0-1.371-.984,1.806,1.806,0,0,0-1.507.7A4.7,4.7,0,0,0,79.734,39.421Zm9.606-4.271-1.257-.738a6.956,6.956,0,0,0,1.134-2.285l.29-1.626h1.978l-.2,1.3A5.407,5.407,0,0,1,89.341,35.149Zm2.953,0-1.257-.738a6.956,6.956,0,0,0,1.134-2.285l.29-1.626h1.978l-.2,1.3A5.407,5.407,0,0,1,92.294,35.149Z" transform="translate(2272 -5832)" fill="#12263f"/>
    <path id="Trazado_188506" data-name="Trazado 188506" d="M-12.684-3.3l2.742-8.07h2.336L-11.832,0h-2.3l-.6-7.578L-17.715,0h-2.3l-.672-11.375h2.234l.227,8.031,3.063-8.031h1.945Zm8.93-5.3a3.39,3.39,0,0,1,1.926.574A3.234,3.234,0,0,1-.641-6.5,4.762,4.762,0,0,1-.371-4.32a5.143,5.143,0,0,1-1.4,3.262A3.96,3.96,0,0,1-4.793.156,3.38,3.38,0,0,1-6.7-.41,3.222,3.222,0,0,1-7.887-1.937,4.657,4.657,0,0,1-8.16-4.094,5.3,5.3,0,0,1-6.738-7.422,3.878,3.878,0,0,1-3.754-8.609ZM-5.98-3.294a1.95,1.95,0,0,0,.352,1.182,1.168,1.168,0,0,0,.945.449A1.712,1.712,0,0,0-3.09-2.6a4.647,4.647,0,0,0,.539-2.531,2.122,2.122,0,0,0-.363-1.2,1.149,1.149,0,0,0-.949-.464,1.715,1.715,0,0,0-1.574.924A4.6,4.6,0,0,0-5.98-3.294ZM5.5-.875A2.919,2.919,0,0,1,3.168.156,2.172,2.172,0,0,1,1.324-.719,3.2,3.2,0,0,1,.84-2.984l.914-5.469h2.2l-.93,5.5a2.175,2.175,0,0,0-.008.485.8.8,0,0,0,.867.806,2.014,2.014,0,0,0,1.7-.79l1.055-6H8.855L7.387,0H5.332ZM11.355,0H9.137l2.086-12h2.211Zm6.063-8.617a2.4,2.4,0,0,1,1.906.945L20.152-12h2.211L20.285,0H18.316l.125-.906a2.736,2.736,0,0,1-2.2,1.07A2.433,2.433,0,0,1,14.855-.25a2.607,2.607,0,0,1-.918-1.168,4.7,4.7,0,0,1-.355-1.7,6.4,6.4,0,0,1,.023-.953l.047-.352A6.767,6.767,0,0,1,14.375-6.7a3.766,3.766,0,0,1,1.313-1.461A3.094,3.094,0,0,1,17.418-8.617Zm-1.6,4.547a6.327,6.327,0,0,0-.039,1q.078,1.375,1.109,1.4A1.885,1.885,0,0,0,18.5-2.547l.6-3.359a1.248,1.248,0,0,0-1.219-.875,1.606,1.606,0,0,0-1.34.621A4.176,4.176,0,0,0,15.816-4.07Z" transform="translate(2335 -5755)" fill="#fff"/>
    <path id="Trazado_188508" data-name="Trazado 188508" d="M-4.333-11.255a15.891,15.891,0,0,1,.806-5.627A8.8,8.8,0,0,1-.916-20.459,17.368,17.368,0,0,0,1.831-23.23,4.523,4.523,0,0,0,2.771-26q0-3.687-3.174-3.687a2.945,2.945,0,0,0-2.368,1.074,4.569,4.569,0,0,0-.952,2.905h-8.252a9.843,9.843,0,0,1,3.076-7.6q3.027-2.722,8.5-2.722,5.444,0,8.435,2.515a8.826,8.826,0,0,1,2.991,7.153,8.332,8.332,0,0,1-.806,3.687,12.459,12.459,0,0,1-2.588,3.394L4.822-16.675a6.6,6.6,0,0,0-1.66,2.356,9.336,9.336,0,0,0-.513,3.064Zm-1,7.422A3.789,3.789,0,0,1-4.028-6.8,4.729,4.729,0,0,1-.769-7.959,4.729,4.729,0,0,1,2.49-6.8,3.789,3.789,0,0,1,3.8-3.833,3.789,3.789,0,0,1,2.49-.867,4.729,4.729,0,0,1-.769.293,4.729,4.729,0,0,1-4.028-.867,3.789,3.789,0,0,1-5.334-3.833Z" transform="translate(2188 -5779)" fill="#fff"/>
    <path id="Trazado_188517" data-name="Trazado 188517" d="M.923-5.571H3.391v1.784H.923V-1H-.957V-3.787H-3.432V-5.571H-.957V-8.244H.923Z" transform="translate(2436 -5806)" fill="#12263f"/>
    <path id="Trazado_188518" data-name="Trazado 188518" d="M.923-5.571H3.391v1.784H.923V-1H-.957V-3.787H-3.432V-5.571H-.957V-8.244H.923Z" transform="translate(2639 -5806)" fill="#12263f"/>
    <path id="Trazado_188519" data-name="Trazado 188519" d="M.923-5.571H3.391v1.784H.923V-1H-.957V-3.787H-3.432V-5.571H-.957V-8.244H.923Z" transform="translate(2840 -5806)" fill="#12263f"/>
  </g>
</svg>
