<svg xmlns="http://www.w3.org/2000/svg" width="91.333" height="92.462" viewBox="0 0 91.333 92.462">
  <g id="Grupo_177242" data-name="Grupo 177242" transform="translate(-280.705 -42.242)">
    <path id="Trazado_187762" data-name="Trazado 187762" d="M335,45.8l33.472,33.472a12.245,12.245,0,0,1,0,17.267L335,130.015a12.245,12.245,0,0,1-17.266,0L284.266,96.542a12.246,12.246,0,0,1,0-17.267L317.739,45.8A12.244,12.244,0,0,1,335,45.8Z" transform="translate(0 0)" fill="#e3afb2" fill-rule="evenodd"/>
    <g id="Grupo_177241" data-name="Grupo 177241" transform="translate(287.958 42.242)">
      <path id="Trazado_187763" data-name="Trazado 187763" d="M340,55.7v36.47C329.08,111.085,299.428,98.809,309,76.411c5.588-13.069,9.841-39.576,30.993-33.026Z" transform="translate(-301.585 -42.303)" fill="#210000" fill-rule="evenodd"/>
      <path id="Trazado_187764" data-name="Trazado 187764" d="M375,55.7v36.47c10.919,18.911,40.57,6.635,30.994-15.763C400.406,63.341,396.152,36.835,375,43.385Z" transform="translate(-336.587 -42.303)" fill="#210000" fill-rule="evenodd"/>
      <path id="Trazado_187765" data-name="Trazado 187765" d="M330.132,113.781c-.084-.919-3.843-2-5.1,1s1,7.269,5.263,7.6,3.008-.417,3.008-.417Z" transform="translate(-310.642 -78.634)" fill="#e4ae7c" fill-rule="evenodd"/>
      <path id="Trazado_187766" data-name="Trazado 187766" d="M410.7,113.781c.084-.919,3.842-2,5.1,1s-1,7.269-5.263,7.6-3.007-.417-3.007-.417Z" transform="translate(-353.271 -78.634)" fill="#e4ae7c" fill-rule="evenodd"/>
      <path id="Trazado_187767" data-name="Trazado 187767" d="M338.384,186.784H304.008c-.4-17.579,13.127-27.784,24.74-31.591a59.726,59.726,0,0,0,.7-11.267h17.87a59.751,59.751,0,0,0,.7,11.267C359.635,159,373.16,169.2,372.762,186.784Z" transform="translate(-299.971 -94.681)" fill="#e4ae7c" fill-rule="evenodd"/>
      <path id="Trazado_187768" data-name="Trazado 187768" d="M374.4,151.553c-3.642,7.968-13.917,8.829-18.016.308.083-1.474.107-2.83.108-3.864h17.815C374.308,148.958,374.328,150.2,374.4,151.553Z" transform="translate(-326.986 -96.781)" fill="#d67f54" fill-rule="evenodd"/>
      <path id="Trazado_187769" data-name="Trazado 187769" d="M352.606,100.462c-22.168.532-33.36-54.133,0-52.733C385.966,46.328,374.774,100.994,352.606,100.462Z" transform="translate(-314.192 -45.058)" fill="#e4ae7c" fill-rule="evenodd"/>
      <path id="Trazado_187770" data-name="Trazado 187770" d="M356.264,103.849a1.986,1.986,0,1,1-2.777.446A1.982,1.982,0,0,1,356.264,103.849Z" transform="translate(-325.298 -73.819)" fill="#20201e" fill-rule="evenodd"/>
      <path id="Trazado_187771" data-name="Trazado 187771" d="M389.757,103.849a1.986,1.986,0,1,0,2.776.446A1.983,1.983,0,0,0,389.757,103.849Z" transform="translate(-343.772 -73.819)" fill="#20201e" fill-rule="evenodd"/>
      <path id="Trazado_187772" data-name="Trazado 187772" d="M349.5,118.331c1.131.869,1.181,2.141.111,2.841a3.7,3.7,0,0,1-3.987-.3c-1.131-.868-1.181-2.141-.11-2.841A3.705,3.705,0,0,1,349.5,118.331Z" transform="translate(-320.981 -81.094)" fill="#da9077" fill-rule="evenodd"/>
      <path id="Trazado_187773" data-name="Trazado 187773" d="M394.751,118.331c-1.131.869-1.181,2.141-.11,2.841a3.7,3.7,0,0,0,3.987-.3c1.132-.868,1.181-2.141.111-2.841A3.706,3.706,0,0,0,394.751,118.331Z" transform="translate(-346.317 -81.094)" fill="#da9077" fill-rule="evenodd"/>
      <path id="Trazado_187774" data-name="Trazado 187774" d="M354.428,92.647c-.074-.032-.148-.062-.224-.091a5.712,5.712,0,0,0-2.536-.33,5.614,5.614,0,0,0-2.369.742c-.359.231-1.758,1.364-1.361,1.782a20.78,20.78,0,0,0,1.965-.8,5.574,5.574,0,0,1,1.829-.246,4.945,4.945,0,0,1,1.676.341c.016,0,.119.05.141.06,1.169.568,1.064.934,1.86.386C356.638,93.838,355.375,93.138,354.428,92.647Z" transform="translate(-322.594 -68.008)" fill="#3f2716" fill-rule="evenodd"/>
      <path id="Trazado_187775" data-name="Trazado 187775" d="M387,92.647c.074-.032.148-.062.224-.091a5.714,5.714,0,0,1,2.536-.33,5.616,5.616,0,0,1,2.369.742c.359.231,1.758,1.364,1.361,1.782a20.833,20.833,0,0,1-1.965-.8A5.569,5.569,0,0,0,389.7,93.7a4.94,4.94,0,0,0-1.676.341c-.016,0-.119.05-.141.06-1.17.568-1.064.934-1.86.386C384.79,93.838,386.054,93.138,387,92.647Z" transform="translate(-342.006 -68.008)" fill="#3f2716" fill-rule="evenodd"/>
      <path id="Trazado_187776" data-name="Trazado 187776" d="M374.926,129.917a.24.24,0,0,1,.415.24,4.563,4.563,0,0,1-2.231,1.852,9.307,9.307,0,0,1-3.581.657h-.021a9.125,9.125,0,0,1-3.564-.648,4.6,4.6,0,0,1-2.247-1.859.24.24,0,0,1,.415-.242,4.135,4.135,0,0,0,2.02,1.66,8.652,8.652,0,0,0,3.376.61h.021a8.83,8.83,0,0,0,3.393-.617A4.1,4.1,0,0,0,374.926,129.917Z" transform="translate(-330.741 -87.395)" fill="#4e2c0b" fill-rule="evenodd"/>
      <path id="Trazado_187777" data-name="Trazado 187777" d="M372.723,141.161a.239.239,0,1,1,.243-.413,2.356,2.356,0,0,0,1.172.29,2.248,2.248,0,0,0,1.151-.289.239.239,0,1,1,.248.409,2.73,2.73,0,0,1-1.4.36A2.838,2.838,0,0,1,372.723,141.161Z" transform="translate(-335.351 -93.025)" fill="#d67f54" fill-rule="evenodd"/>
      <path id="Trazado_187778" data-name="Trazado 187778" d="M374.371,117.025a.24.24,0,0,1,0-.481,11.732,11.732,0,0,0,1.8-.1c.437-.075.759-.193.759-.392,0-.692-.7-4.99-.7-5a.24.24,0,0,1,.474-.075c0,.012.709,4.356.709,5.077,0,.507-.492.752-1.161.865A12.015,12.015,0,0,1,374.371,117.025Z" transform="translate(-336.138 -77.586)" fill="#d67f54" fill-rule="evenodd"/>
      <path id="Trazado_187779" data-name="Trazado 187779" d="M417.156,119.508a.24.24,0,0,1-.481,0,2.335,2.335,0,0,0-.329-1.439.573.573,0,0,0-.447-.222,1.32,1.32,0,0,0-.655.2,4.328,4.328,0,0,0-1.644,1.941,9,9,0,0,0-.41,1.115,1.7,1.7,0,0,1,1.12-.324,1.061,1.061,0,0,1,.517.186.846.846,0,0,1,.323.453,1.573,1.573,0,0,1-.332,1.3.24.24,0,1,1-.4-.266,1.141,1.141,0,0,0,.27-.9.376.376,0,0,0-.142-.2.587.587,0,0,0-.285-.1,1.32,1.32,0,0,0-1.025.431.515.515,0,0,1-.245.154.263.263,0,0,1-.347-.232l0-.013a.855.855,0,0,1,.007-.28,7.469,7.469,0,0,1,.51-1.518,4.834,4.834,0,0,1,1.847-2.166,1.788,1.788,0,0,1,.9-.263,1.036,1.036,0,0,1,.81.4A2.755,2.755,0,0,1,417.156,119.508Z" transform="translate(-355.996 -80.985)" fill="#d67f54" fill-rule="evenodd"/>
      <path id="Trazado_187780" data-name="Trazado 187780" d="M328.512,119.508a.24.24,0,0,1-.481,0,2.756,2.756,0,0,1,.438-1.741,1.038,1.038,0,0,1,.81-.4,1.789,1.789,0,0,1,.9.263,4.837,4.837,0,0,1,1.847,2.166,7.491,7.491,0,0,1,.509,1.518.857.857,0,0,1,.007.28l0,.013a.263.263,0,0,1-.347.232.516.516,0,0,1-.244-.154,1.32,1.32,0,0,0-1.025-.431.584.584,0,0,0-.285.1.377.377,0,0,0-.143.2,1.141,1.141,0,0,0,.27.9.24.24,0,1,1-.4.266,1.577,1.577,0,0,1-.332-1.3.846.846,0,0,1,.323-.453,1.065,1.065,0,0,1,.518-.186,1.7,1.7,0,0,1,1.12.324,9.065,9.065,0,0,0-.41-1.115,4.326,4.326,0,0,0-1.644-1.941,1.318,1.318,0,0,0-.654-.2.574.574,0,0,0-.447.222A2.335,2.335,0,0,0,328.512,119.508Z" transform="translate(-312.364 -80.985)" fill="#d67f54" fill-rule="evenodd"/>
      <path id="Trazado_187781" data-name="Trazado 187781" d="M373.749,55.643c8.747,0,17.362,2.183,17.1,6.585-.7,14.029,4.387,19.4-6.283,38.113,2.26-.42,5.752-.941,7.775-2.527,7.37-5.779,12.083-11.78,9.356-24.437-3.013-13.987-7-36.309-27.458-30.054-.046-.015-.089-.025-.134-.039l-.494,12.358Z" transform="translate(-335.871 -42.242)" fill="#311600" fill-rule="evenodd"/>
      <path id="Trazado_187782" data-name="Trazado 187782" d="M345.486,55.643c-8.747,0-17.34,2.183-17.036,6.585.846,14.029-4.192,19.4,6.666,38.113-2.265-.42-5.762-.941-7.8-2.527-7.427-5.779-12.2-11.78-9.6-24.437,2.873-13.987,6.64-36.309,27.157-30.054.045-.015.088-.025.134-.039l.617,12.358Z" transform="translate(-306.674 -42.242)" fill="#311600" fill-rule="evenodd"/>
      <path id="Trazado_187783" data-name="Trazado 187783" d="M373.642,75.147c-.29-5.783-2.332-24.3-20.937-24.3-20.9,0-22.34,21.552-20.218,24.3,1.35.632,5.563-4,20.582-4C368.373,71.145,373.666,75.614,373.642,75.147Z" transform="translate(-314.292 -46.682)" fill="#452807" fill-rule="evenodd"/>
      <path id="Trazado_187784" data-name="Trazado 187784" d="M313.321,191c-.877-2.891-1.007-7.794-.987-10.961-11.471-.255-19.562,16.142-15.66,25.367h74.841c3.9-9.225-4.189-25.623-15.66-25.367.021,3.167-.11,8.07-.987,10.961C352.837,197.7,315.353,197.7,313.321,191Z" transform="translate(-295.682 -113.303)" fill="#7e9493" fill-rule="evenodd"/>
      <path id="Trazado_187785" data-name="Trazado 187785" d="M314.615,187.936a.24.24,0,1,1-.371-.3,8.345,8.345,0,0,1,3.574-2.485,6.056,6.056,0,0,1,4.1-.309.24.24,0,1,1-.223.424,5.611,5.611,0,0,0-3.711.336A7.868,7.868,0,0,0,314.615,187.936Z" transform="translate(-305.226 -115.66)" fill="#5d706e" fill-rule="evenodd"/>
      <path id="Trazado_187786" data-name="Trazado 187786" d="M317.241,193.6a.24.24,0,1,1-.371-.3,7.527,7.527,0,0,1,2.951-2.191,6.774,6.774,0,0,1,3.572-.508.24.24,0,1,1-.082.473,6.281,6.281,0,0,0-3.305.478A7.046,7.046,0,0,0,317.241,193.6Z" transform="translate(-306.58 -118.715)" fill="#5d706e" fill-rule="evenodd"/>
      <path id="Trazado_187787" data-name="Trazado 187787" d="M427.391,187.632a.24.24,0,1,1-.371.3,7.87,7.87,0,0,0-3.368-2.338,5.613,5.613,0,0,0-3.712-.336.24.24,0,1,1-.223-.424,6.057,6.057,0,0,1,4.1.309A8.347,8.347,0,0,1,427.391,187.632Z" transform="translate(-359.581 -115.66)" fill="#5d706e" fill-rule="evenodd"/>
      <path id="Trazado_187788" data-name="Trazado 187788" d="M425.914,193.293a.24.24,0,0,1-.371.3,7.047,7.047,0,0,0-2.764-2.052,6.281,6.281,0,0,0-3.305-.478.24.24,0,0,1-.083-.473,6.775,6.775,0,0,1,3.572.508A7.524,7.524,0,0,1,425.914,193.293Z" transform="translate(-359.377 -118.715)" fill="#5d706e" fill-rule="evenodd"/>
      <path id="Trazado_187789" data-name="Trazado 187789" d="M323.143,211.5a.359.359,0,1,1,.718.005l-.088,9.947a.359.359,0,0,1-.718-.006Z" transform="translate(-309.798 -129.344)" fill="#5d706e" fill-rule="evenodd"/>
      <path id="Trazado_187790" data-name="Trazado 187790" d="M425.369,211.5a.359.359,0,1,1,.718.005L426,221.45a.359.359,0,0,1-.718-.006Z" transform="translate(-362.517 -129.344)" fill="#5d706e" fill-rule="evenodd"/>
      <path id="Trazado_187791" data-name="Trazado 187791" d="M345.563,73.727a.24.24,0,0,1-.479.005c-.055-4.325.085-7.833,1.02-10.787a13.526,13.526,0,0,1,5.828-7.475.24.24,0,1,1,.264.4,13.072,13.072,0,0,0-5.634,7.22C345.646,65.986,345.509,69.449,345.563,73.727Z" transform="translate(-321.154 -49.043)" fill="#5e422e" fill-rule="evenodd"/>
      <path id="Trazado_187792" data-name="Trazado 187792" d="M361.074,71.626a.239.239,0,0,1-.479,0,51.081,51.081,0,0,1,.69-10.764,14.058,14.058,0,0,1,3.954-7.468.24.24,0,1,1,.336.342,13.6,13.6,0,0,0-3.82,7.226A50.671,50.671,0,0,0,361.074,71.626Z" transform="translate(-329.154 -47.96)" fill="#5e422e" fill-rule="evenodd"/>
      <path id="Trazado_187793" data-name="Trazado 187793" d="M397.219,73.732a.239.239,0,0,1-.479-.005c.054-4.277-.083-7.74-1-10.637a13.069,13.069,0,0,0-5.634-7.22.24.24,0,0,1,.264-.4,13.524,13.524,0,0,1,5.828,7.475C397.133,65.9,397.274,69.407,397.219,73.732Z" transform="translate(-344.322 -49.043)" fill="#5e422e" fill-rule="evenodd"/>
      <path id="Trazado_187794" data-name="Trazado 187794" d="M384.021,71.631a.239.239,0,0,1-.478,0,50.673,50.673,0,0,0-.68-10.66,13.6,13.6,0,0,0-3.821-7.226.24.24,0,1,1,.336-.342,14.056,14.056,0,0,1,3.954,7.468A51.052,51.052,0,0,1,384.021,71.631Z" transform="translate(-338.634 -47.96)" fill="#5e422e" fill-rule="evenodd"/>
    </g>
  </g>
</svg>
