<svg xmlns="http://www.w3.org/2000/svg" width="94.334" height="100.095" viewBox="0 0 94.334 100.095">
  <g id="Grupo_177245" data-name="Grupo 177245" transform="translate(-70.753 -269.492)">
    <path id="Trazado_187795" data-name="Trazado 187795" d="M126.837,284.686l34.572,34.573a12.646,12.646,0,0,1,0,17.833l-34.572,34.572a12.648,12.648,0,0,1-17.834,0L74.431,337.092a12.647,12.647,0,0,1,0-17.833L109,284.686A12.648,12.648,0,0,1,126.837,284.686Z" transform="translate(0 -5.755)" fill="#e1a21f" fill-rule="evenodd"/>
    <g id="Grupo_177244" data-name="Grupo 177244" transform="translate(81.754 269.492)">
      <path id="Trazado_187796" data-name="Trazado 187796" d="M125.994,338.615c18.6.628,23.635-10.488,23.349-9.032a11.144,11.144,0,0,1-2.058,4.236c-.051.075-.415.31.262.077,11.645-4.023,11.99-13.542,12.011-13.478.53,1.545-.957,5.9-.364,5.858,10.422-13.823-21.794-77.152-37.186-48.07-8.012.8-11.076,1.6-14.6,9.454-6.7,14.915.527,21.03-14.662,35.172.5.825,2.646,2.165,4.75,2.817a37.639,37.639,0,0,0,4.564.834c.061.47-3.038,1.571-4.589,1.749,6.708,5.9,16.322,5.746,19,5.93.5.035-4.868,1.3-5.609,1.771C113.89,338.527,121.2,338.73,125.994,338.615Z" transform="translate(-92.745 -270.073)" fill="#472c53" fill-rule="evenodd"/>
      <path id="Trazado_187797" data-name="Trazado 187797" d="M130.865,424.628H95.358c-.411-18.156,13.558-28.7,25.553-32.629a61.663,61.663,0,0,0,.724-11.636h18.458A61.709,61.709,0,0,0,140.817,392c12,3.933,25.965,14.473,25.554,32.629Z" transform="translate(-94.047 -324.904)" fill="#e4ae7c" fill-rule="evenodd"/>
      <path id="Trazado_187798" data-name="Trazado 187798" d="M121.661,350.249c-.086-.95-3.969-2.071-5.264,1.035s1.036,7.507,5.436,7.853,3.106-.432,3.106-.432Z" transform="translate(-104.388 -309.352)" fill="#e4ae7c" fill-rule="evenodd"/>
      <path id="Trazado_187799" data-name="Trazado 187799" d="M202.158,350.249c.086-.95,3.969-2.071,5.263,1.035s-1.035,7.507-5.436,7.853-3.106-.432-3.106-.432Z" transform="translate(-145.702 -309.352)" fill="#e4ae7c" fill-rule="evenodd"/>
      <path id="Trazado_187800" data-name="Trazado 187800" d="M166.339,389.241c-4,7.643-14.286,8.44-18.7.294.116-1.666.154-3.234.161-4.445h18.4C166.2,386.229,166.238,387.684,166.339,389.241Z" transform="translate(-120.178 -327.267)" fill="#d67f54" fill-rule="evenodd"/>
      <path id="Trazado_187801" data-name="Trazado 187801" d="M144.647,338.631c-22.9.55-34.456-55.911,0-54.465C179.1,282.72,167.543,339.181,144.647,338.631Z" transform="translate(-107.829 -276.812)" fill="#e4ae7c" fill-rule="evenodd"/>
      <path id="Trazado_187802" data-name="Trazado 187802" d="M147.717,340.3a2.051,2.051,0,1,1-2.868.46A2.047,2.047,0,0,1,147.717,340.3Z" transform="translate(-118.592 -304.686)" fill="#20201e" fill-rule="evenodd"/>
      <path id="Trazado_187803" data-name="Trazado 187803" d="M181.134,340.3a2.051,2.051,0,1,0,2.868.46A2.046,2.046,0,0,0,181.134,340.3Z" transform="translate(-136.496 -304.686)" fill="#20201e" fill-rule="evenodd"/>
      <path id="Trazado_187804" data-name="Trazado 187804" d="M141,354.792c1.169.9,1.22,2.211.114,2.935a3.826,3.826,0,0,1-4.118-.314c-1.169-.9-1.219-2.211-.114-2.935A3.828,3.828,0,0,1,141,354.792Z" transform="translate(-114.409 -311.736)" fill="#da9077" fill-rule="evenodd"/>
      <path id="Trazado_187805" data-name="Trazado 187805" d="M186.13,354.792c-1.168.9-1.22,2.211-.114,2.935a3.826,3.826,0,0,0,4.118-.314c1.168-.9,1.22-2.211.114-2.935A3.829,3.829,0,0,0,186.13,354.792Z" transform="translate(-138.963 -311.736)" fill="#da9077" fill-rule="evenodd"/>
      <path id="Trazado_187806" data-name="Trazado 187806" d="M145.994,329.1c-.076-.034-.153-.065-.231-.1a5.924,5.924,0,0,0-2.62-.34,5.808,5.808,0,0,0-2.446.767c-.37.238-1.816,1.409-1.406,1.84a21.588,21.588,0,0,0,2.03-.827,5.747,5.747,0,0,1,1.889-.254,5.073,5.073,0,0,1,1.731.352c.016,0,.123.052.146.062,1.208.587,1.1.964,1.922.4C148.277,330.328,146.972,329.6,145.994,329.1Z" transform="translate(-115.972 -299.054)" fill="#3f2716" fill-rule="evenodd"/>
      <path id="Trazado_187807" data-name="Trazado 187807" d="M178.4,329.1c.076-.034.153-.065.231-.1a5.925,5.925,0,0,1,2.62-.34,5.809,5.809,0,0,1,2.447.767c.37.238,1.816,1.409,1.406,1.84a21.578,21.578,0,0,1-2.03-.827,5.745,5.745,0,0,0-1.889-.254,5.079,5.079,0,0,0-1.731.352c-.016,0-.123.052-.145.062-1.209.587-1.1.964-1.922.4C176.116,330.328,177.421,329.6,178.4,329.1Z" transform="translate(-134.785 -299.054)" fill="#3f2716" fill-rule="evenodd"/>
      <path id="Trazado_187808" data-name="Trazado 187808" d="M164.077,377.612a.247.247,0,0,1,.25-.426,2.438,2.438,0,0,0,1.211.3,2.336,2.336,0,0,0,1.189-.3.247.247,0,1,1,.256.423,2.82,2.82,0,0,1-1.445.371A2.931,2.931,0,0,1,164.077,377.612Z" transform="translate(-128.335 -323.3)" fill="#d67f54" fill-rule="evenodd"/>
      <path id="Trazado_187809" data-name="Trazado 187809" d="M165.729,353.666a.248.248,0,1,1,0-.5,12.111,12.111,0,0,0,1.857-.1c.452-.077.784-.2.784-.405,0-.714-.724-5.154-.725-5.166a.247.247,0,1,1,.489-.078c0,.013.733,4.5.733,5.244,0,.523-.509.776-1.2.893A12.334,12.334,0,0,1,165.729,353.666Z" transform="translate(-129.097 -308.337)" fill="#d67f54" fill-rule="evenodd"/>
      <path id="Trazado_187810" data-name="Trazado 187810" d="M208.654,356.015a.248.248,0,1,1-.5,0,2.415,2.415,0,0,0-.34-1.486.593.593,0,0,0-.462-.23,1.353,1.353,0,0,0-.676.208,4.466,4.466,0,0,0-1.7,2,9.4,9.4,0,0,0-.423,1.152,1.756,1.756,0,0,1,1.156-.335,1.106,1.106,0,0,1,.535.193.876.876,0,0,1,.333.468,1.626,1.626,0,0,1-.342,1.343.247.247,0,0,1-.411-.275,1.177,1.177,0,0,0,.279-.926.388.388,0,0,0-.148-.208.608.608,0,0,0-.294-.1,1.366,1.366,0,0,0-1.059.446.531.531,0,0,1-.252.158.271.271,0,0,1-.358-.24l0-.014a.857.857,0,0,1,.008-.29,7.764,7.764,0,0,1,.526-1.568,4.994,4.994,0,0,1,1.908-2.236,1.836,1.836,0,0,1,.93-.272,1.067,1.067,0,0,1,.836.413A2.842,2.842,0,0,1,208.654,356.015Z" transform="translate(-148.342 -311.63)" fill="#d67f54" fill-rule="evenodd"/>
      <path id="Trazado_187811" data-name="Trazado 187811" d="M119.878,356.015a.248.248,0,0,1-.5,0,2.845,2.845,0,0,1,.453-1.8,1.068,1.068,0,0,1,.836-.413,1.84,1.84,0,0,1,.93.272,5,5,0,0,1,1.908,2.236,7.8,7.8,0,0,1,.526,1.568.869.869,0,0,1,.007.29l0,.014a.271.271,0,0,1-.358.24.532.532,0,0,1-.253-.158,1.365,1.365,0,0,0-1.058-.446.608.608,0,0,0-.294.1.388.388,0,0,0-.148.208,1.179,1.179,0,0,0,.279.926.247.247,0,1,1-.411.275,1.626,1.626,0,0,1-.343-1.343.881.881,0,0,1,.334-.468,1.1,1.1,0,0,1,.535-.193,1.756,1.756,0,0,1,1.156.335,9.236,9.236,0,0,0-.423-1.152,4.458,4.458,0,0,0-1.7-2,1.353,1.353,0,0,0-.676-.208.592.592,0,0,0-.462.23A2.414,2.414,0,0,0,119.878,356.015Z" transform="translate(-106.057 -311.63)" fill="#d67f54" fill-rule="evenodd"/>
      <path id="Trazado_187812" data-name="Trazado 187812" d="M140.206,331.2a7.339,7.339,0,1,1-5.188,2.15,7.314,7.314,0,0,1,5.188-2.15Zm4.311,3.027a6.1,6.1,0,1,0,1.786,4.311A6.075,6.075,0,0,0,144.516,334.225Z" transform="translate(-112.798 -300.332)" fill="#2e1e11" fill-rule="evenodd"/>
      <path id="Trazado_187813" data-name="Trazado 187813" d="M177.833,331.2a7.339,7.339,0,1,1-5.189,2.15,7.315,7.315,0,0,1,5.189-2.15Zm4.311,3.027a6.1,6.1,0,1,0,1.785,4.311A6.078,6.078,0,0,0,182.144,334.225Z" transform="translate(-131.604 -300.332)" fill="#2e1e11" fill-rule="evenodd"/>
      <path id="Trazado_187814" data-name="Trazado 187814" d="M128.976,344.639a.494.494,0,0,1,.334.931l-4.37,1.575a.495.495,0,0,1-.334-.932Z" transform="translate(-108.505 -307.035)" fill="#2e1e11" fill-rule="evenodd"/>
      <path id="Trazado_187815" data-name="Trazado 187815" d="M198.075,345.57a.494.494,0,0,1,.333-.931l4.371,1.574a.495.495,0,0,1-.334.932Z" transform="translate(-145.224 -307.035)" fill="#2e1e11" fill-rule="evenodd"/>
      <path id="Trazado_187816" data-name="Trazado 187816" d="M160.264,342.784a.5.5,0,1,1-.845-.516s.841-1.428,3.431-1.428,3.429,1.425,3.431,1.428a.5.5,0,1,1-.845.516s-.558-.951-2.586-.951S160.265,342.781,160.264,342.784Z" transform="translate(-126.032 -305.151)" fill="#2e1e11" fill-rule="evenodd"/>
      <path id="Trazado_187817" data-name="Trazado 187817" d="M166.357,364.813c-3.118,1.157-12.591,1.134-15.532.14C152.45,370.874,164.776,370.78,166.357,364.813Z" transform="translate(-121.773 -317.133)" fill="#fff" fill-rule="evenodd"/>
      <path id="Trazado_187818" data-name="Trazado 187818" d="M135.08,284.139c-15.228,0-16.419,10.2-18.3,23.712.37.971,7.136,18.834,7.219,15.595.131-5.082.369-14.362.906-16,.265-.807.627-.644,1.475-.97C133.795,303.623,140.193,297.9,135.08,284.139Z" transform="translate(-104.756 -276.813)" fill="#472c53" fill-rule="evenodd"/>
      <path id="Trazado_187819" data-name="Trazado 187819" d="M182.932,291.6c-5.06-11.387-13.271-20.747-21-21.988-5.017-.806-11.727,2.422-10.76,8.678.592,3.831,4,10.051,4.756,11.208,4.43,6.753,11.411,5.685,18.175,10.663,2.488,1.83,2.4,12.683,1.714,15.855-.268,1.236,2.707-4.509,4.961-9.937C183.063,300.59,184.613,295.384,182.932,291.6Z" transform="translate(-121.902 -269.492)" fill="#472c53" fill-rule="evenodd"/>
      <path id="Trazado_187820" data-name="Trazado 187820" d="M155.01,407.777c-3.66.113-7.295-1.617-9.956-5.471-4.593,6.646,3.487,21.088,9.176,7.829.911-2.123.671-2.062,1.575.035,5.689,13.2,13.749-1.224,9.16-7.864C162.3,406.16,158.67,407.89,155.01,407.777Z" transform="translate(-118.211 -335.872)" fill="#d17278" fill-rule="evenodd"/>
      <path id="Trazado_187821" data-name="Trazado 187821" d="M130.066,410.95c-5.195,12.106-12.382,1.118-10.1-5.943a7.573,7.573,0,0,1,.43-1.055q-1.1.376-2.213.825c-11.285,4.56-23.209,14.838-22.829,31.633h71.013c.405-17.921-13.2-28.422-25.087-32.473,3.476,6.914-4.178,19.727-9.643,7.048C130.737,408.888,130.977,408.827,130.066,410.95Z" transform="translate(-94.047 -336.687)" fill="#7ea2d5" fill-rule="evenodd"/>
      <path id="Trazado_187822" data-name="Trazado 187822" d="M114.5,447.945a.371.371,0,1,1,.742.005l-.092,10.273a.371.371,0,1,1-.741-.005Z" transform="translate(-103.57 -358.498)" fill="#6685aa" fill-rule="evenodd"/>
      <path id="Trazado_187823" data-name="Trazado 187823" d="M216.722,447.945a.371.371,0,1,1,.742.005l-.092,10.273a.371.371,0,1,1-.742-.005Z" transform="translate(-154.662 -358.498)" fill="#6685aa" fill-rule="evenodd"/>
      <path id="Trazado_187824" data-name="Trazado 187824" d="M164.555,288.966a.247.247,0,1,1,.493-.046,19.583,19.583,0,0,0,1.867,7.673c1.263,2.345,3.466,4.544,7.491,6.752.867.476,1.683.917,2.462,1.34,6.7,3.628,10.744,5.82,13.011,10.594a39.1,39.1,0,0,1,3.04,7.937.248.248,0,0,1-.485.1,38.626,38.626,0,0,0-3-7.824c-2.2-4.627-6.19-6.79-12.8-10.369-.789-.428-1.615-.875-2.466-1.342-4.119-2.259-6.382-4.526-7.688-6.952A19.992,19.992,0,0,1,164.555,288.966Z" transform="translate(-128.635 -279.09)" fill="#593b73" fill-rule="evenodd"/>
      <path id="Trazado_187825" data-name="Trazado 187825" d="M168.372,282.645a.247.247,0,1,1,.318-.378c1.2,1.006,2.635,2.12,4.2,3.328,5.925,4.589,13.616,10.546,17.278,17.766,4.61,9.09,5.926,14.353,5.93,14.369a.248.248,0,0,1-.481.122c0-.016-1.307-5.23-5.891-14.268-3.612-7.12-11.253-13.038-17.139-17.6C171.026,284.781,169.591,283.67,168.372,282.645Z" transform="translate(-130.499 -275.848)" fill="#593b73" fill-rule="evenodd"/>
      <path id="Trazado_187826" data-name="Trazado 187826" d="M136.777,298.744a.248.248,0,0,1,.5-.013,9.994,9.994,0,0,1-2.263,6.1,26.675,26.675,0,0,1-6.649,6.07c-4.861,3.235-6.857,9.441-6.863,9.459a.248.248,0,0,1-.471-.153c.007-.019,2.055-6.387,7.061-9.719a26.154,26.154,0,0,0,6.523-5.95A9.521,9.521,0,0,0,136.777,298.744Z" transform="translate(-106.874 -283.985)" fill="#593b73" fill-rule="evenodd"/>
      <path id="Trazado_187827" data-name="Trazado 187827" d="M121.507,312.614a.248.248,0,0,1-.489-.084,48.286,48.286,0,0,1,2.229-8.585,23.875,23.875,0,0,1,5.329-8.758,24.354,24.354,0,0,1,2.256-1.983,9.675,9.675,0,0,1,1.907-1.178.248.248,0,1,1,.2.454,9.2,9.2,0,0,0-1.808,1.118,23.664,23.664,0,0,0-2.208,1.943,23.386,23.386,0,0,0-5.213,8.577A47.7,47.7,0,0,0,121.507,312.614Z" transform="translate(-106.874 -280.744)" fill="#593b73" fill-rule="evenodd"/>
    </g>
  </g>
</svg>
