<svg xmlns="http://www.w3.org/2000/svg" width="1094" height="119" viewBox="0 0 1094 119">
  <g id="Grupo_177629" data-name="Grupo 177629" transform="translate(-2149 8740)">
    <path id="Trazado_186900" data-name="Trazado 186900" d="M5,0H77a5,5,0,0,1,5,5V114a5,5,0,0,1-5,5H5a5,5,0,0,1-5-5V5A5,5,0,0,1,5,0Z" transform="translate(2149 -8740)" fill="#777"/>
    <path id="Trazado_188507" data-name="Trazado 188507" d="M5,0H189a5,5,0,0,1,5,5V114a5,5,0,0,1-5,5H5a5,5,0,0,1-5-5V5A5,5,0,0,1,5,0Z" transform="translate(2846 -8740)" fill="#fc5f65"/>
    <path id="Trazado_188510" data-name="Trazado 188510" d="M5,0H188a5,5,0,0,1,5,5V114a5,5,0,0,1-5,5H5a5,5,0,0,1-5-5V5A5,5,0,0,1,5,0Z" transform="translate(2645 -8740)" fill="#38cc51"/>
    <path id="Trazado_188504" data-name="Trazado 188504" d="M5,0H189a5,5,0,0,1,5,5V114a5,5,0,0,1-5,5H5a5,5,0,0,1-5-5V5A5,5,0,0,1,5,0Z" transform="translate(3049 -8740)" fill="#fed947"/>
    <path id="Trazado_188511" data-name="Trazado 188511" d="M5,0H164a5,5,0,0,1,5,5V57a5,5,0,0,1-5,5H5a5,5,0,0,1-5-5V5A5,5,0,0,1,5,0Z" transform="translate(2657 -8724)" fill="#fff"/>
    <path id="Trazado_188508" data-name="Trazado 188508" d="M5,0H164a5,5,0,0,1,5,5V57a5,5,0,0,1-5,5H5a5,5,0,0,1-5-5V5A5,5,0,0,1,5,0Z" transform="translate(2859 -8724)" fill="#fff"/>
    <path id="Trazado_188506" data-name="Trazado 188506" d="M5,0H164a5,5,0,0,1,5,5V57a5,5,0,0,1-5,5H5a5,5,0,0,1-5-5V5A5,5,0,0,1,5,0Z" transform="translate(3062 -8724)" fill="#fff"/>
    <path id="Trazado_188512" data-name="Trazado 188512" d="M15.914,13.454h-4.9l-.6,3.428h5.766L15.808,19H7.467L9.691,6.2h8.323l-.378,2.136H11.9l-.536,3.05h4.922Zm5.88-1.143,2-2.821h2.786l-3.445,4.781L25.054,19H22.541l-1.169-2.971L19.271,19h-2.8l3.586-4.975L18.216,9.49H20.73Zm13.526,1.96a7.854,7.854,0,0,1-.782,2.654,4.3,4.3,0,0,1-1.485,1.723,3.44,3.44,0,0,1-1.969.536,2.745,2.745,0,0,1-2.18-1.028l-.87,4.5H25.555L27.832,9.49l2.285-.009-.167.958a3.036,3.036,0,0,1,2.426-1.125,2.7,2.7,0,0,1,2.171,1.015,4.412,4.412,0,0,1,.826,2.659A10.274,10.274,0,0,1,35.32,14.271Zm-2.461-.18.053-.845A2.351,2.351,0,0,0,32.6,11.89a1.12,1.12,0,0,0-.962-.519,2.046,2.046,0,0,0-1.784.915l-.712,3.926a1.387,1.387,0,0,0,1.4.924,1.789,1.789,0,0,0,1.494-.7A4.763,4.763,0,0,0,32.859,14.091Zm9.756-2.219a5.117,5.117,0,0,0-.835-.088,2.4,2.4,0,0,0-2.1.993L38.581,19H36.1l1.652-9.51,2.329-.009-.229,1.16A2.615,2.615,0,0,1,42.07,9.3a3.615,3.615,0,0,1,.861.123Zm4.465,7.3a4.137,4.137,0,0,1-2.21-.611,3.7,3.7,0,0,1-1.437-1.652,4.605,4.605,0,0,1-.369-2.316l.026-.352A6.148,6.148,0,0,1,43.9,11.7a4.884,4.884,0,0,1,1.74-1.789,4.306,4.306,0,0,1,2.355-.593,3.29,3.29,0,0,1,2.782,1.351A4.631,4.631,0,0,1,51.492,14l-.141,1.083H45.524a2.041,2.041,0,0,0,.448,1.477,1.711,1.711,0,0,0,1.318.571,3.041,3.041,0,0,0,2.373-1.055L50.8,17.479a3.527,3.527,0,0,1-1.547,1.261A5.059,5.059,0,0,1,47.08,19.176Zm.791-7.813a1.761,1.761,0,0,0-1.217.431,3.784,3.784,0,0,0-.954,1.556h3.41l.053-.229a2.33,2.33,0,0,0,.009-.668,1.276,1.276,0,0,0-.431-.8A1.35,1.35,0,0,0,47.871,11.362ZM57.6,16.319q.141-.7-.976-1.02l-.8-.2q-2.839-.782-2.76-2.76a2.731,2.731,0,0,1,1.191-2.193,4.434,4.434,0,0,1,2.764-.831,3.978,3.978,0,0,1,2.6.853,2.809,2.809,0,0,1,1.011,2.224l-2.461-.009a1.084,1.084,0,0,0-1.213-1.239,1.745,1.745,0,0,0-1.006.29,1.194,1.194,0,0,0-.523.782q-.132.7,1.063.993l.352.079a7.071,7.071,0,0,1,1.854.664,2.8,2.8,0,0,1,.989.927,2.3,2.3,0,0,1,.321,1.327,2.533,2.533,0,0,1-.584,1.582,3.577,3.577,0,0,1-1.529,1.046,5.328,5.328,0,0,1-2.043.343,4.015,4.015,0,0,1-2.637-.91,2.933,2.933,0,0,1-1.072-2.307l2.338.018a1.285,1.285,0,0,0,1.459,1.38,2.076,2.076,0,0,0,1.129-.281A1.111,1.111,0,0,0,57.6,16.319Zm9.062,0q.141-.7-.976-1.02l-.8-.2q-2.839-.782-2.76-2.76a2.731,2.731,0,0,1,1.191-2.193,4.434,4.434,0,0,1,2.764-.831,3.978,3.978,0,0,1,2.6.853,2.809,2.809,0,0,1,1.011,2.224l-2.461-.009a1.084,1.084,0,0,0-1.213-1.239,1.745,1.745,0,0,0-1.006.29,1.194,1.194,0,0,0-.523.782q-.132.7,1.063.993l.352.079a7.071,7.071,0,0,1,1.854.664,2.8,2.8,0,0,1,.989.927,2.3,2.3,0,0,1,.321,1.327,2.533,2.533,0,0,1-.584,1.582,3.577,3.577,0,0,1-1.529,1.046,5.328,5.328,0,0,1-2.043.343,4.015,4.015,0,0,1-2.637-.91A2.933,2.933,0,0,1,61.2,15.959l2.338.018A1.285,1.285,0,0,0,65,17.356a2.076,2.076,0,0,0,1.129-.281A1.111,1.111,0,0,0,66.662,16.319ZM72.832,19h-2.5l1.652-9.51h2.5ZM72.278,7.073a1.238,1.238,0,0,1,.387-.976,1.488,1.488,0,0,1,1.951-.044,1.233,1.233,0,0,1,.431.932,1.273,1.273,0,0,1-.365.949,1.367,1.367,0,0,1-1,.422,1.39,1.39,0,0,1-.971-.334A1.227,1.227,0,0,1,72.278,7.073Zm8.095,2.241a3.814,3.814,0,0,1,2.167.646,3.638,3.638,0,0,1,1.336,1.731,5.357,5.357,0,0,1,.3,2.448A5.786,5.786,0,0,1,82.6,17.809a4.455,4.455,0,0,1-3.4,1.367,3.8,3.8,0,0,1-2.145-.637,3.624,3.624,0,0,1-1.336-1.718,5.239,5.239,0,0,1-.308-2.426,5.957,5.957,0,0,1,1.6-3.744A4.363,4.363,0,0,1,80.373,9.314Zm-2.5,5.979a2.194,2.194,0,0,0,.4,1.33,1.314,1.314,0,0,0,1.063.5,1.926,1.926,0,0,0,1.793-1.049,5.227,5.227,0,0,0,.606-2.848,2.387,2.387,0,0,0-.409-1.347,1.293,1.293,0,0,0-1.068-.522,1.929,1.929,0,0,0-1.771,1.04A5.173,5.173,0,0,0,77.868,15.294ZM88.81,9.481,88.6,10.606a3.422,3.422,0,0,1,2.769-1.292,2.281,2.281,0,0,1,1.986.984,3.966,3.966,0,0,1,.466,2.654l-1,6.047H90.339l1.02-6.073a2.844,2.844,0,0,0,.018-.624,1.007,1.007,0,0,0-1.125-.923,2.133,2.133,0,0,0-1.749.905L87.316,19H84.837L86.49,9.49ZM103,5.2l1.178.721a12.046,12.046,0,0,0-.721,1.208A4.931,4.931,0,0,0,103,8.462l-.229,1.327h-1.969l.176-1.16A5.376,5.376,0,0,1,103,5.2Zm2.918,0,1.178.721a12.046,12.046,0,0,0-.721,1.208,4.931,4.931,0,0,0-.457,1.332l-.229,1.327h-1.969l.176-1.16A5.376,5.376,0,0,1,105.922,5.2Zm6.337,12.814a3.283,3.283,0,0,1-2.619,1.16,2.443,2.443,0,0,1-2.074-.984,3.6,3.6,0,0,1-.545-2.549l1.028-6.152h2.479l-1.046,6.186a2.446,2.446,0,0,0-.009.545.9.9,0,0,0,.976.906,2.265,2.265,0,0,0,1.907-.889l1.187-6.749h2.5L114.386,19h-2.312Zm9.483-1.7q.141-.7-.976-1.02l-.8-.2q-2.839-.782-2.76-2.76a2.731,2.731,0,0,1,1.191-2.193,4.434,4.434,0,0,1,2.764-.831,3.978,3.978,0,0,1,2.6.853,2.809,2.809,0,0,1,1.011,2.224l-2.461-.009a1.084,1.084,0,0,0-1.213-1.239,1.745,1.745,0,0,0-1.006.29,1.194,1.194,0,0,0-.523.782q-.132.7,1.063.993l.352.079a7.071,7.071,0,0,1,1.854.664,2.8,2.8,0,0,1,.989.927,2.3,2.3,0,0,1,.321,1.327,2.533,2.533,0,0,1-.584,1.582,3.577,3.577,0,0,1-1.529,1.046,5.328,5.328,0,0,1-2.043.343,4.015,4.015,0,0,1-2.637-.91,2.933,2.933,0,0,1-1.072-2.307l2.338.018a1.285,1.285,0,0,0,1.459,1.38,2.076,2.076,0,0,0,1.129-.281A1.111,1.111,0,0,0,121.743,16.319Zm8.068,2.856a4.137,4.137,0,0,1-2.21-.611,3.7,3.7,0,0,1-1.437-1.652,4.605,4.605,0,0,1-.369-2.316l.026-.352a6.148,6.148,0,0,1,.809-2.549,4.884,4.884,0,0,1,1.74-1.789,4.306,4.306,0,0,1,2.355-.593,3.29,3.29,0,0,1,2.782,1.351A4.631,4.631,0,0,1,134.223,14l-.141,1.083h-5.827a2.041,2.041,0,0,0,.448,1.477,1.711,1.711,0,0,0,1.318.571,3.041,3.041,0,0,0,2.373-1.055l1.134,1.406a3.527,3.527,0,0,1-1.547,1.261A5.059,5.059,0,0,1,129.811,19.176Zm.791-7.813a1.761,1.761,0,0,0-1.217.431,3.784,3.784,0,0,0-.954,1.556h3.41l.053-.229a2.33,2.33,0,0,0,.009-.668,1.276,1.276,0,0,0-.431-.8A1.35,1.35,0,0,0,130.6,11.362Zm8.938-2.057a2.706,2.706,0,0,1,2.145,1.063l.932-4.869H145.1L142.766,19h-2.215l.141-1.02a3.078,3.078,0,0,1-2.479,1.2,2.738,2.738,0,0,1-1.556-.466,2.933,2.933,0,0,1-1.033-1.314,5.292,5.292,0,0,1-.4-1.912,7.2,7.2,0,0,1,.026-1.072l.053-.4a7.613,7.613,0,0,1,.813-2.566,4.237,4.237,0,0,1,1.477-1.644A3.481,3.481,0,0,1,139.541,9.306Zm-1.8,5.115a7.118,7.118,0,0,0-.044,1.125q.088,1.547,1.248,1.573a2.121,2.121,0,0,0,1.819-.984l.677-3.779a1.4,1.4,0,0,0-1.371-.984,1.806,1.806,0,0,0-1.507.7A4.7,4.7,0,0,0,137.739,14.421ZM15.5,32.152l-.413,2.338h1.582l-.325,1.863H14.758l-.809,4.764a1.211,1.211,0,0,0,.07.686q.123.237.6.255.141.009.756-.044L15.2,43.956a4.169,4.169,0,0,1-1.424.2,2.234,2.234,0,0,1-1.819-.765,2.763,2.763,0,0,1-.492-2.021l.817-5.019H10.935l.325-1.863H12.6l.4-2.338Zm6.135,2.162a3.814,3.814,0,0,1,2.167.646,3.638,3.638,0,0,1,1.336,1.731,5.357,5.357,0,0,1,.3,2.448,5.786,5.786,0,0,1-1.578,3.669,4.455,4.455,0,0,1-3.4,1.367,3.8,3.8,0,0,1-2.145-.637,3.624,3.624,0,0,1-1.336-1.718,5.239,5.239,0,0,1-.308-2.426,5.957,5.957,0,0,1,1.6-3.744A4.363,4.363,0,0,1,21.631,34.314Zm-2.5,5.979a2.194,2.194,0,0,0,.4,1.33,1.314,1.314,0,0,0,1.063.5,1.926,1.926,0,0,0,1.793-1.049,5.227,5.227,0,0,0,.606-2.848,2.387,2.387,0,0,0-.409-1.347,1.293,1.293,0,0,0-1.068-.522,1.929,1.929,0,0,0-1.771,1.04A5.173,5.173,0,0,0,19.126,40.294Zm8.851-5.144-1.257-.738a6.956,6.956,0,0,0,1.134-2.285l.29-1.626h1.978l-.2,1.3A5.407,5.407,0,0,1,27.977,35.149Zm2.953,0-1.257-.738a6.956,6.956,0,0,0,1.134-2.285L31.1,30.5h1.978l-.2,1.3A5.407,5.407,0,0,1,30.93,35.149ZM39.657,44h-2.5l1.652-9.51h2.5ZM39.1,32.073a1.238,1.238,0,0,1,.387-.976,1.488,1.488,0,0,1,1.951-.044,1.233,1.233,0,0,1,.431.932,1.273,1.273,0,0,1-.365.949,1.367,1.367,0,0,1-1,.422,1.39,1.39,0,0,1-.971-.334A1.227,1.227,0,0,1,39.1,32.073Zm6.574,2.408-.211,1.125a3.422,3.422,0,0,1,2.769-1.292,2.281,2.281,0,0,1,1.986.984,3.966,3.966,0,0,1,.466,2.654l-1,6.047H47.207l1.02-6.073a2.844,2.844,0,0,0,.018-.624,1.007,1.007,0,0,0-1.125-.923,2.133,2.133,0,0,0-1.749.905L44.184,44H41.705l1.652-9.51Zm19.529,4.79a6.819,6.819,0,0,1-1.371,3.6,3.412,3.412,0,0,1-2.865,1.31,2.652,2.652,0,0,1-2.285-1.213L58.325,44H56.066L58.4,30.5h2.487l-.958,4.86a2.963,2.963,0,0,1,2.32-1.046,2.683,2.683,0,0,1,2.167.989,4.376,4.376,0,0,1,.839,2.685A10.274,10.274,0,0,1,65.207,39.271Zm-2.461-.185a7.373,7.373,0,0,0,.053-1.164q-.1-1.534-1.266-1.56a2.062,2.062,0,0,0-1.819,1l-.686,3.791a1.415,1.415,0,0,0,1.424.987q1.828.053,2.241-2.662ZM71.482,44a2.566,2.566,0,0,1-.1-.861,3.221,3.221,0,0,1-2.426,1.037,2.919,2.919,0,0,1-2.07-.813,2.46,2.46,0,0,1-.769-1.964,2.843,2.843,0,0,1,1.305-2.386,5.924,5.924,0,0,1,3.335-.831l1.16.018.123-.571a1.984,1.984,0,0,0,.026-.554.952.952,0,0,0-.312-.646,1.075,1.075,0,0,0-.708-.242,1.514,1.514,0,0,0-.984.286,1.384,1.384,0,0,0-.519.875l-2.487.009a2.764,2.764,0,0,1,1.252-2.21,4.85,4.85,0,0,1,2.94-.831,3.507,3.507,0,0,1,2.531.962,2.816,2.816,0,0,1,.765,2.386l-.729,4.553-.044.563a2.714,2.714,0,0,0,.149,1.055L73.917,44Zm-1.907-1.749a2.27,2.27,0,0,0,1.872-.932l.308-1.644-.861-.009a2.406,2.406,0,0,0-1.978.835,1.454,1.454,0,0,0-.272.712.844.844,0,0,0,.2.751A1,1,0,0,0,69.575,42.251Zm11.364-.932q.141-.7-.976-1.02l-.8-.2q-2.839-.782-2.76-2.76A2.731,2.731,0,0,1,77.6,35.145a4.434,4.434,0,0,1,2.764-.831,3.978,3.978,0,0,1,2.6.853,2.809,2.809,0,0,1,1.011,2.224l-2.461-.009A1.084,1.084,0,0,0,80.3,36.143a1.745,1.745,0,0,0-1.006.29,1.194,1.194,0,0,0-.523.782q-.132.7,1.063.993l.352.079a7.071,7.071,0,0,1,1.854.664,2.8,2.8,0,0,1,.989.927,2.3,2.3,0,0,1,.321,1.327,2.533,2.533,0,0,1-.584,1.582,3.577,3.577,0,0,1-1.529,1.046,5.328,5.328,0,0,1-2.043.343,4.015,4.015,0,0,1-2.637-.91,2.933,2.933,0,0,1-1.072-2.307l2.338.018a1.285,1.285,0,0,0,1.459,1.38,2.076,2.076,0,0,0,1.129-.281A1.111,1.111,0,0,0,80.939,41.319Zm8.068,2.856a4.137,4.137,0,0,1-2.21-.611,3.7,3.7,0,0,1-1.437-1.652,4.605,4.605,0,0,1-.369-2.316l.026-.352a6.148,6.148,0,0,1,.809-2.549,4.884,4.884,0,0,1,1.74-1.789,4.306,4.306,0,0,1,2.355-.593A3.29,3.29,0,0,1,92.7,35.666,4.631,4.631,0,0,1,93.42,39l-.141,1.083H87.452a2.041,2.041,0,0,0,.448,1.477,1.711,1.711,0,0,0,1.318.571,3.041,3.041,0,0,0,2.373-1.055l1.134,1.406a3.527,3.527,0,0,1-1.547,1.261A5.059,5.059,0,0,1,89.008,44.176Zm.791-7.813a1.761,1.761,0,0,0-1.217.431,3.784,3.784,0,0,0-.954,1.556h3.41l.053-.229a2.33,2.33,0,0,0,.009-.668,1.276,1.276,0,0,0-.431-.8A1.35,1.35,0,0,0,89.8,36.362ZM99.124,44l1.327-7.655H99.08l.325-1.854,1.371-.009.123-.949a3.579,3.579,0,0,1,3.814-3.234,8.246,8.246,0,0,1,1.345.184l-.22,1.97a3.073,3.073,0,0,0-.729-.105,1.817,1.817,0,0,0-1.129.335,1.525,1.525,0,0,0-.584,1.033l-.132.777H105.1l-.325,1.854h-1.828L101.62,44Zm11.118-9.686a3.814,3.814,0,0,1,2.167.646,3.638,3.638,0,0,1,1.336,1.731,5.357,5.357,0,0,1,.3,2.448,5.786,5.786,0,0,1-1.578,3.669,4.455,4.455,0,0,1-3.4,1.367,3.8,3.8,0,0,1-2.145-.637,3.624,3.624,0,0,1-1.336-1.718,5.239,5.239,0,0,1-.308-2.426,5.957,5.957,0,0,1,1.6-3.744A4.363,4.363,0,0,1,110.242,34.314Zm-2.5,5.979a2.194,2.194,0,0,0,.4,1.33,1.314,1.314,0,0,0,1.063.5,1.926,1.926,0,0,0,1.793-1.049,5.227,5.227,0,0,0,.606-2.848,2.387,2.387,0,0,0-.409-1.347,1.293,1.293,0,0,0-1.068-.522,1.929,1.929,0,0,0-1.771,1.04A5.173,5.173,0,0,0,107.737,40.294Zm13.535-3.422a5.117,5.117,0,0,0-.835-.088,2.4,2.4,0,0,0-2.1.993L117.238,44H114.76l1.652-9.51,2.329-.009-.229,1.16a2.615,2.615,0,0,1,2.215-1.345,3.615,3.615,0,0,1,.861.123Zm3.9-2.391-.2,1.081a3.5,3.5,0,0,1,2.786-1.248,2.676,2.676,0,0,1,1.459.4A1.889,1.889,0,0,1,130,35.765a3.662,3.662,0,0,1,2.953-1.45,2.391,2.391,0,0,1,1.973.9,3.68,3.68,0,0,1,.558,2.514l-.018.22L134.456,44h-2.487l1.011-6.08a4.4,4.4,0,0,0,.026-.607.942.942,0,0,0-1.055-.95,2.093,2.093,0,0,0-1.749,1.091l-.026.2L129.068,44H126.59l1.011-6.056a4.386,4.386,0,0,0,.026-.606.94.94,0,0,0-1.046-.958,2.1,2.1,0,0,0-1.7.888L123.7,44H121.22l1.644-9.51Zm12.981,6.9a1.373,1.373,0,0,1,1.006.365,1.249,1.249,0,0,1,.417.962,1.3,1.3,0,0,1-.387.989,1.489,1.489,0,0,1-1.986.057,1.293,1.293,0,0,1-.422-.958,1.306,1.306,0,0,1,.378-.993A1.392,1.392,0,0,1,138.156,41.381Z" transform="translate(2666 -8716)" fill="#12263f"/>
    <path id="Trazado_188514" data-name="Trazado 188514" d="M-65.29-3.2l4.307-9.6h2.953L-64.349,0h-2.689l-2.3-12.8h2.769ZM-54.567.176a4.137,4.137,0,0,1-2.21-.611,3.7,3.7,0,0,1-1.437-1.652A4.605,4.605,0,0,1-58.583-4.4l.026-.352A6.148,6.148,0,0,1-57.749-7.3a4.884,4.884,0,0,1,1.74-1.789,4.306,4.306,0,0,1,2.355-.593,3.29,3.29,0,0,1,2.782,1.351A4.631,4.631,0,0,1-50.155-5L-50.3-3.92h-5.827a2.041,2.041,0,0,0,.448,1.477,1.711,1.711,0,0,0,1.318.571,3.041,3.041,0,0,0,2.373-1.055l1.134,1.406A3.527,3.527,0,0,1-52.4-.259,5.059,5.059,0,0,1-54.567.176Zm.791-7.813a1.761,1.761,0,0,0-1.217.431,3.784,3.784,0,0,0-.954,1.556h3.41l.053-.229a2.33,2.33,0,0,0,.009-.668,1.276,1.276,0,0,0-.431-.8A1.35,1.35,0,0,0-53.776-7.638Zm10.731.51a5.117,5.117,0,0,0-.835-.088,2.4,2.4,0,0,0-2.1.993L-47.079,0h-2.479L-47.9-9.51l2.329-.009-.229,1.16A2.615,2.615,0,0,1-43.589-9.7a3.615,3.615,0,0,1,.861.123Zm9.088,2.4a6.819,6.819,0,0,1-1.371,3.6A3.412,3.412,0,0,1-38.193.185a2.652,2.652,0,0,1-2.285-1.213L-40.838,0H-43.1l2.338-13.5h2.487l-.958,4.86a2.963,2.963,0,0,1,2.32-1.046,2.683,2.683,0,0,1,2.167.989A4.376,4.376,0,0,1-33.9-6.012,10.274,10.274,0,0,1-33.957-4.729Zm-2.461-.185a7.373,7.373,0,0,0,.053-1.164q-.1-1.534-1.266-1.56a2.062,2.062,0,0,0-1.819,1l-.686,3.791a1.415,1.415,0,0,0,1.424.987q1.828.053,2.241-2.662ZM-26.125,0h-2.5l1.652-9.51h2.5Zm-.554-11.927a1.238,1.238,0,0,1,.387-.976,1.36,1.36,0,0,1,.976-.387,1.367,1.367,0,0,1,.976.343,1.233,1.233,0,0,1,.431.932,1.273,1.273,0,0,1-.365.949,1.367,1.367,0,0,1-1,.422,1.39,1.39,0,0,1-.971-.334A1.227,1.227,0,0,1-26.679-11.927ZM-20.1-9.519l-.211,1.125a3.422,3.422,0,0,1,2.769-1.292,2.281,2.281,0,0,1,1.986.984A3.966,3.966,0,0,1-15.1-6.047L-16.1,0h-2.479l1.02-6.073a2.844,2.844,0,0,0,.018-.624,1.007,1.007,0,0,0-1.125-.923,2.133,2.133,0,0,0-1.749.905L-21.6,0h-2.479l1.652-9.51ZM-.576-4.729a6.819,6.819,0,0,1-1.371,3.6A3.412,3.412,0,0,1-4.812.185,2.652,2.652,0,0,1-7.1-1.028L-7.458,0H-9.716l2.338-13.5h2.487l-.958,4.86a2.963,2.963,0,0,1,2.32-1.046A2.683,2.683,0,0,1-1.362-8.7,4.376,4.376,0,0,1-.523-6.012,10.274,10.274,0,0,1-.576-4.729Zm-2.461-.185a7.373,7.373,0,0,0,.053-1.164q-.1-1.534-1.266-1.56a2.062,2.062,0,0,0-1.819,1l-.686,3.791a1.415,1.415,0,0,0,1.424.987q1.828.053,2.241-2.662ZM5.7,0a2.566,2.566,0,0,1-.1-.861A3.221,3.221,0,0,1,3.177.176a2.919,2.919,0,0,1-2.07-.813A2.46,2.46,0,0,1,.338-2.6,2.843,2.843,0,0,1,1.644-4.988a5.924,5.924,0,0,1,3.335-.831l1.16.018.123-.571a1.984,1.984,0,0,0,.026-.554.952.952,0,0,0-.312-.646,1.075,1.075,0,0,0-.708-.242,1.514,1.514,0,0,0-.984.286,1.384,1.384,0,0,0-.519.875l-2.487.009a2.764,2.764,0,0,1,1.252-2.21,4.851,4.851,0,0,1,2.94-.831A3.507,3.507,0,0,1,8-8.723a2.816,2.816,0,0,1,.765,2.386L8.038-1.784l-.044.563A2.714,2.714,0,0,0,8.143-.167L8.134,0ZM3.792-1.749a2.27,2.27,0,0,0,1.872-.932l.308-1.644-.861-.009A2.406,2.406,0,0,0,3.133-3.5a1.454,1.454,0,0,0-.272.712.844.844,0,0,0,.2.751A1,1,0,0,0,3.792-1.749Zm11.364-.932q.141-.7-.976-1.02l-.8-.2q-2.839-.782-2.76-2.76a2.731,2.731,0,0,1,1.191-2.193,4.434,4.434,0,0,1,2.764-.831,3.978,3.978,0,0,1,2.6.853,2.809,2.809,0,0,1,1.011,2.224l-2.461-.009a1.084,1.084,0,0,0-1.213-1.239,1.745,1.745,0,0,0-1.006.29,1.194,1.194,0,0,0-.523.782q-.132.7,1.063.993l.352.079a7.071,7.071,0,0,1,1.854.664,2.8,2.8,0,0,1,.989.927,2.3,2.3,0,0,1,.321,1.327,2.533,2.533,0,0,1-.584,1.582A3.577,3.577,0,0,1,15.451-.167a5.328,5.328,0,0,1-2.043.343,4.015,4.015,0,0,1-2.637-.91A2.933,2.933,0,0,1,9.7-3.041l2.338.018A1.285,1.285,0,0,0,13.5-1.644a2.076,2.076,0,0,0,1.129-.281A1.111,1.111,0,0,0,15.157-2.681ZM23.225.176a4.137,4.137,0,0,1-2.21-.611,3.7,3.7,0,0,1-1.437-1.652A4.605,4.605,0,0,1,19.208-4.4l.026-.352A6.148,6.148,0,0,1,20.043-7.3a4.884,4.884,0,0,1,1.74-1.789,4.306,4.306,0,0,1,2.355-.593,3.29,3.29,0,0,1,2.782,1.351A4.631,4.631,0,0,1,27.637-5L27.5-3.92H21.669a2.041,2.041,0,0,0,.448,1.477,1.711,1.711,0,0,0,1.318.571,3.041,3.041,0,0,0,2.373-1.055l1.134,1.406A3.527,3.527,0,0,1,25.4-.259,5.059,5.059,0,0,1,23.225.176Zm.791-7.813a1.761,1.761,0,0,0-1.217.431,3.784,3.784,0,0,0-.954,1.556h3.41l.053-.229a2.33,2.33,0,0,0,.009-.668,1.276,1.276,0,0,0-.431-.8A1.35,1.35,0,0,0,24.016-7.638ZM33.341,0l1.327-7.655H33.3l.325-1.854,1.371-.009.123-.949a3.748,3.748,0,0,1,1.239-2.386,3.751,3.751,0,0,1,2.575-.848,8.246,8.246,0,0,1,1.345.184l-.22,1.97a3.073,3.073,0,0,0-.729-.105,1.817,1.817,0,0,0-1.129.335,1.525,1.525,0,0,0-.584,1.033l-.132.777h1.837l-.325,1.854H37.165L35.837,0ZM44.459-9.686a3.814,3.814,0,0,1,2.167.646,3.638,3.638,0,0,1,1.336,1.731,5.357,5.357,0,0,1,.3,2.448,5.786,5.786,0,0,1-1.578,3.669,4.455,4.455,0,0,1-3.4,1.367,3.8,3.8,0,0,1-2.145-.637A3.624,3.624,0,0,1,39.81-2.18,5.239,5.239,0,0,1,39.5-4.605,5.957,5.957,0,0,1,41.1-8.35,4.363,4.363,0,0,1,44.459-9.686Zm-2.5,5.979a2.194,2.194,0,0,0,.4,1.33,1.314,1.314,0,0,0,1.063.5,1.926,1.926,0,0,0,1.793-1.049,5.227,5.227,0,0,0,.606-2.848A2.387,2.387,0,0,0,45.4-7.116a1.293,1.293,0,0,0-1.068-.522A1.929,1.929,0,0,0,42.565-6.6,5.173,5.173,0,0,0,41.955-3.706ZM55.49-7.128a5.117,5.117,0,0,0-.835-.088,2.4,2.4,0,0,0-2.1.993L51.456,0H48.977l1.652-9.51,2.329-.009-.229,1.16A2.615,2.615,0,0,1,54.945-9.7a3.615,3.615,0,0,1,.861.123Zm3.9-2.391-.2,1.081a3.5,3.5,0,0,1,2.786-1.248,2.676,2.676,0,0,1,1.459.4,1.889,1.889,0,0,1,.782,1.046,3.662,3.662,0,0,1,2.953-1.45,2.391,2.391,0,0,1,1.973.9A3.68,3.68,0,0,1,69.7-6.275l-.018.22L68.673,0H66.186L67.2-6.08a4.4,4.4,0,0,0,.026-.607.942.942,0,0,0-1.055-.95,2.093,2.093,0,0,0-1.749,1.091l-.026.2L63.286,0H60.807l1.011-6.056a4.386,4.386,0,0,0,.026-.606A.94.94,0,0,0,60.8-7.62a2.1,2.1,0,0,0-1.7.888L57.916,0H55.437l1.644-9.51Z" transform="translate(2943 -8689)" fill="#12263f"/>
    <path id="Trazado_188515" data-name="Trazado 188515" d="M-40.1-4.271A4.786,4.786,0,0,1-41-1.92,4.921,4.921,0,0,1-42.97-.347a6,6,0,0,1-2.619.523,4.428,4.428,0,0,1-2.206-.584,3.874,3.874,0,0,1-1.481-1.617,5.976,5.976,0,0,1-.611-2.439,11.963,11.963,0,0,1,.224-2.689,8.526,8.526,0,0,1,1.02-2.856A6.374,6.374,0,0,1-46.9-11.988a5.264,5.264,0,0,1,3.252-.984A4.318,4.318,0,0,1-40.5-11.747a4.932,4.932,0,0,1,1.279,3.309l-2.566-.009a2.69,2.69,0,0,0-.483-1.775,1.972,1.972,0,0,0-1.5-.6,2.608,2.608,0,0,0-2.167.94A5.656,5.656,0,0,0-47.074-7a15.925,15.925,0,0,0-.246,2.751A2.738,2.738,0,0,0-46.8-2.544a1.736,1.736,0,0,0,1.327.576,2.65,2.65,0,0,0,1.885-.558,2.953,2.953,0,0,0,.936-1.727Zm6.363-5.414a3.814,3.814,0,0,1,2.167.646A3.638,3.638,0,0,1-30.23-7.308a5.357,5.357,0,0,1,.3,2.448A5.786,5.786,0,0,1-31.5-1.191,4.455,4.455,0,0,1-34.9.176a3.8,3.8,0,0,1-2.145-.637A3.624,3.624,0,0,1-38.382-2.18a5.239,5.239,0,0,1-.308-2.426,5.957,5.957,0,0,1,1.6-3.744A4.363,4.363,0,0,1-33.732-9.686Zm-2.5,5.979a2.194,2.194,0,0,0,.4,1.33,1.314,1.314,0,0,0,1.063.5,1.926,1.926,0,0,0,1.793-1.049,5.227,5.227,0,0,0,.606-2.848,2.387,2.387,0,0,0-.409-1.347,1.293,1.293,0,0,0-1.068-.522A1.929,1.929,0,0,0-35.626-6.6,5.173,5.173,0,0,0-36.237-3.706ZM-25.26-9.519l-.2,1.081a3.5,3.5,0,0,1,2.786-1.248,2.676,2.676,0,0,1,1.459.4,1.889,1.889,0,0,1,.782,1.046,3.662,3.662,0,0,1,2.953-1.45,2.391,2.391,0,0,1,1.973.9,3.68,3.68,0,0,1,.558,2.514l-.018.22L-15.979,0h-2.487l1.011-6.08a4.4,4.4,0,0,0,.026-.607.942.942,0,0,0-1.055-.95,2.093,2.093,0,0,0-1.749,1.091l-.026.2L-21.366,0h-2.479l1.011-6.056a4.386,4.386,0,0,0,.026-.606.94.94,0,0,0-1.046-.958,2.1,2.1,0,0,0-1.7.888L-26.736,0h-2.479l1.644-9.51Zm20.382,4.79A7.854,7.854,0,0,1-5.66-2.074,4.3,4.3,0,0,1-7.146-.352,3.44,3.44,0,0,1-9.114.185a2.745,2.745,0,0,1-2.18-1.028l-.87,4.5h-2.479L-12.366-9.51l2.285-.009-.167.958A3.036,3.036,0,0,1-7.822-9.686,2.7,2.7,0,0,1-5.651-8.67a4.412,4.412,0,0,1,.826,2.659A10.274,10.274,0,0,1-4.878-4.729Zm-2.461-.18.053-.845A2.351,2.351,0,0,0-7.6-7.11a1.12,1.12,0,0,0-.962-.519,2.046,2.046,0,0,0-1.784.915l-.712,3.926a1.387,1.387,0,0,0,1.4.924,1.789,1.789,0,0,0,1.494-.7A4.763,4.763,0,0,0-7.339-4.909ZM-1.477,0h-2.5l2.347-13.5H.861ZM5.142.176a4.137,4.137,0,0,1-2.21-.611A3.7,3.7,0,0,1,1.494-2.087,4.605,4.605,0,0,1,1.125-4.4l.026-.352A6.148,6.148,0,0,1,1.96-7.3,4.884,4.884,0,0,1,3.7-9.092a4.306,4.306,0,0,1,2.355-.593A3.29,3.29,0,0,1,8.837-8.334,4.631,4.631,0,0,1,9.554-5L9.413-3.92H3.586a2.041,2.041,0,0,0,.448,1.477,1.711,1.711,0,0,0,1.318.571A3.041,3.041,0,0,0,7.726-2.927L8.859-1.521A3.527,3.527,0,0,1,7.313-.259,5.059,5.059,0,0,1,5.142.176Zm.791-7.813a1.761,1.761,0,0,0-1.217.431,3.784,3.784,0,0,0-.954,1.556h3.41l.053-.229a2.33,2.33,0,0,0,.009-.668,1.276,1.276,0,0,0-.431-.8A1.35,1.35,0,0,0,5.933-7.638Zm8.174-1.881-.2,1.081A3.5,3.5,0,0,1,16.69-9.686a2.676,2.676,0,0,1,1.459.4,1.889,1.889,0,0,1,.782,1.046,3.662,3.662,0,0,1,2.953-1.45,2.391,2.391,0,0,1,1.973.9,3.68,3.68,0,0,1,.558,2.514l-.018.22L23.388,0H20.9l1.011-6.08a4.4,4.4,0,0,0,.026-.607.942.942,0,0,0-1.055-.95,2.093,2.093,0,0,0-1.749,1.091l-.026.2L18,0H15.521l1.011-6.056a4.386,4.386,0,0,0,.026-.606.94.94,0,0,0-1.046-.958,2.1,2.1,0,0,0-1.7.888L12.63,0H10.151l1.644-9.51ZM29.874.176a4.137,4.137,0,0,1-2.21-.611,3.7,3.7,0,0,1-1.437-1.652A4.605,4.605,0,0,1,25.857-4.4l.026-.352A6.148,6.148,0,0,1,26.692-7.3a4.884,4.884,0,0,1,1.74-1.789,4.306,4.306,0,0,1,2.355-.593A3.29,3.29,0,0,1,33.57-8.334,4.631,4.631,0,0,1,34.286-5L34.146-3.92H28.318a2.041,2.041,0,0,0,.448,1.477,1.711,1.711,0,0,0,1.318.571,3.041,3.041,0,0,0,2.373-1.055l1.134,1.406A3.527,3.527,0,0,1,32.045-.259,5.059,5.059,0,0,1,29.874.176Zm.791-7.813a1.761,1.761,0,0,0-1.217.431,3.784,3.784,0,0,0-.954,1.556H31.9l.053-.229a2.33,2.33,0,0,0,.009-.668,1.276,1.276,0,0,0-.431-.8A1.35,1.35,0,0,0,30.665-7.638ZM38.8-9.519l-.211,1.125a3.422,3.422,0,0,1,2.769-1.292,2.281,2.281,0,0,1,1.986.984,3.966,3.966,0,0,1,.466,2.654L42.812,0H40.333l1.02-6.073A2.844,2.844,0,0,0,41.37-6.7a1.007,1.007,0,0,0-1.125-.923,2.133,2.133,0,0,0-1.749.905L37.31,0H34.831l1.652-9.51Zm10.978-2.329L49.368-9.51H50.95l-.325,1.863H49.043l-.809,4.764a1.211,1.211,0,0,0,.07.686q.123.237.6.255.141.009.756-.044L49.482-.044a4.169,4.169,0,0,1-1.424.2,2.234,2.234,0,0,1-1.819-.765,2.763,2.763,0,0,1-.492-2.021l.817-5.019H45.22l.325-1.863H46.89l.4-2.338Z" transform="translate(3146 -8689)" fill="#12263f"/>
    <path id="Trazado_188519" data-name="Trazado 188519" d="M5,0H189a5,5,0,0,1,5,5V114a5,5,0,0,1-5,5H5a5,5,0,0,1-5-5V5A5,5,0,0,1,5,0Z" transform="translate(2442 -8740)" fill="#3c3fa7"/>
    <path id="Trazado_188520" data-name="Trazado 188520" d="M5,0H164a5,5,0,0,1,5,5V57a5,5,0,0,1-5,5H5a5,5,0,0,1-5-5V5A5,5,0,0,1,5,0Z" transform="translate(2455 -8724)" fill="#fff"/>
    <path id="Trazado_188521" data-name="Trazado 188521" d="M-22.737-3.419q.185-1.046-1.028-1.6l-1.7-.677q-2.953-1.318-2.8-3.63a3.334,3.334,0,0,1,.7-1.9,4.227,4.227,0,0,1,1.8-1.3,6.379,6.379,0,0,1,2.5-.453,4.34,4.34,0,0,1,3,1.1,3.676,3.676,0,0,1,1.125,2.861H-21.7a1.831,1.831,0,0,0-.382-1.354,1.722,1.722,0,0,0-1.323-.5,2.667,2.667,0,0,0-1.529.4,1.641,1.641,0,0,0-.773,1.147q-.167.958,1.283,1.521l1.16.439.668.308q2.593,1.283,2.426,3.6A3.477,3.477,0,0,1-20.9-1.49,4.088,4.088,0,0,1-22.654-.229,6.261,6.261,0,0,1-25.1.185a5.483,5.483,0,0,1-2.426-.571,3.767,3.767,0,0,1-1.617-1.538,3.983,3.983,0,0,1-.483-2.109l2.575.009Q-27.176-1.942-25-1.907a2.69,2.69,0,0,0,1.547-.413A1.608,1.608,0,0,0-22.737-3.419Zm9.51,2.435A3.283,3.283,0,0,1-15.847.176a2.443,2.443,0,0,1-2.074-.984,3.6,3.6,0,0,1-.545-2.549l1.028-6.152h2.479L-16-3.324a2.446,2.446,0,0,0-.009.545.9.9,0,0,0,.976.906,2.265,2.265,0,0,0,1.907-.889l1.187-6.749h2.5L-11.1,0h-2.312ZM-.114-4.729a6.819,6.819,0,0,1-1.371,3.6A3.412,3.412,0,0,1-4.351.185,2.652,2.652,0,0,1-6.636-1.028L-7,0H-9.255l2.338-13.5H-4.43l-.958,4.86a2.963,2.963,0,0,1,2.32-1.046A2.683,2.683,0,0,1-.9-8.7,4.376,4.376,0,0,1-.062-6.012,10.274,10.274,0,0,1-.114-4.729Zm-2.461-.185a7.373,7.373,0,0,0,.053-1.164q-.1-1.534-1.266-1.56a2.062,2.062,0,0,0-1.819,1l-.686,3.791a1.415,1.415,0,0,0,1.424.987q1.828.053,2.241-2.662Zm7.515-4.6L3.234.519A3.956,3.956,0,0,1,2.087,3a3.357,3.357,0,0,1-2.439.87A7.65,7.65,0,0,1-1.67,3.7l.2-2.021A4.848,4.848,0,0,0-.7,1.793,1.344,1.344,0,0,0,.721.527L2.443-9.51ZM2.681-11.927a1.241,1.241,0,0,1,.369-.962,1.415,1.415,0,0,1,.993-.4,1.415,1.415,0,0,1,1,.36,1.246,1.246,0,0,1,.409.914,1.252,1.252,0,0,1-.369.971,1.415,1.415,0,0,1-.993.4,1.39,1.39,0,0,1-.971-.334A1.227,1.227,0,0,1,2.681-11.927ZM9.8.176a4.137,4.137,0,0,1-2.21-.611A3.7,3.7,0,0,1,6.152-2.087,4.605,4.605,0,0,1,5.783-4.4l.026-.352A6.148,6.148,0,0,1,6.618-7.3a4.884,4.884,0,0,1,1.74-1.789,4.306,4.306,0,0,1,2.355-.593A3.29,3.29,0,0,1,13.5-8.334,4.631,4.631,0,0,1,14.212-5L14.071-3.92H8.244a2.041,2.041,0,0,0,.448,1.477,1.711,1.711,0,0,0,1.318.571,3.041,3.041,0,0,0,2.373-1.055l1.134,1.406A3.527,3.527,0,0,1,11.971-.259,5.059,5.059,0,0,1,9.8.176Zm.791-7.813a1.761,1.761,0,0,0-1.217.431A3.784,3.784,0,0,0,8.42-5.651h3.41l.053-.229a2.33,2.33,0,0,0,.009-.668,1.276,1.276,0,0,0-.431-.8A1.35,1.35,0,0,0,10.591-7.638Zm8.385,5.774a1.628,1.628,0,0,0,1.143-.374,1.836,1.836,0,0,0,.6-1.042l2.329-.009a3.416,3.416,0,0,1-.628,1.8A3.818,3.818,0,0,1,20.9-.237a4.327,4.327,0,0,1-1.991.422,3.514,3.514,0,0,1-2.742-1.2A4.461,4.461,0,0,1,15.2-4.122l.026-.483.009-.1A5.945,5.945,0,0,1,16.8-8.38a4.231,4.231,0,0,1,3.278-1.305,3.428,3.428,0,0,1,2.553,1.05,3.71,3.71,0,0,1,.927,2.676H21.243a1.947,1.947,0,0,0-.334-1.2,1.269,1.269,0,0,0-1-.475q-1.775-.053-2.153,2.593a8.755,8.755,0,0,0-.1,1.617Q17.745-1.89,18.976-1.863ZM29.03-11.848,28.617-9.51H30.2l-.325,1.863H28.292l-.809,4.764a1.211,1.211,0,0,0,.07.686q.123.237.6.255.141.009.756-.044L28.731-.044a4.169,4.169,0,0,1-1.424.2,2.234,2.234,0,0,1-1.819-.765A2.763,2.763,0,0,1,25-2.628l.817-5.019H24.469l.325-1.863h1.345l.4-2.338Z" transform="translate(2539 -8689)" fill="#12263f"/>
    <path id="Trazado_188522" data-name="Trazado 188522" d="M-8.582-1.437A3.837,3.837,0,0,1-10.367-.246,7.523,7.523,0,0,1-13.02.148a4.114,4.114,0,0,1-2.047-.512,3.572,3.572,0,0,1-1.391-1.449,5.128,5.128,0,0,1-.578-2.156A9.841,9.841,0,0,1-16.8-6.613a7.438,7.438,0,0,1,1.086-2.664,5.076,5.076,0,0,1,1.848-1.711,4.868,4.868,0,0,1,2.391-.543,3.954,3.954,0,0,1,2.789,1A4.165,4.165,0,0,1-7.535-7.742l-2.2-.008a2.331,2.331,0,0,0-.508-1.406A1.731,1.731,0,0,0-11.5-9.641a2.467,2.467,0,0,0-2.277,1.27,7.9,7.9,0,0,0-.949,3.816,3.355,3.355,0,0,0,.41,2.07,1.7,1.7,0,0,0,1.488.75,3.171,3.171,0,0,0,1.984-.555l.383-1.961h-2.078l.3-1.727h4.344ZM-2.3,0a2.281,2.281,0,0,1-.086-.766A2.863,2.863,0,0,1-4.543.156a2.594,2.594,0,0,1-1.84-.723,2.186,2.186,0,0,1-.684-1.746,2.527,2.527,0,0,1,1.16-2.121,5.266,5.266,0,0,1,2.965-.738l1.031.016.109-.508a1.764,1.764,0,0,0,.023-.492.846.846,0,0,0-.277-.574.955.955,0,0,0-.629-.215,1.345,1.345,0,0,0-.875.254,1.231,1.231,0,0,0-.461.777l-2.211.008A2.457,2.457,0,0,1-5.117-7.871,4.312,4.312,0,0,1-2.5-8.609a3.117,3.117,0,0,1,2.25.855,2.5,2.5,0,0,1,.68,2.121L-.223-1.586l-.039.5a2.412,2.412,0,0,0,.133.938L-.137,0ZM-4-1.555a2.017,2.017,0,0,0,1.664-.828l.273-1.461-.766-.008a2.139,2.139,0,0,0-1.758.742,1.292,1.292,0,0,0-.242.633.75.75,0,0,0,.176.668A.891.891,0,0,0-4-1.555ZM9.332-4.2A6.061,6.061,0,0,1,8.113-1,3.033,3.033,0,0,1,5.566.164,2.357,2.357,0,0,1,3.535-.914L3.215,0H1.207L3.285-12H5.5L4.645-7.68a2.634,2.634,0,0,1,2.063-.93,2.385,2.385,0,0,1,1.926.879,3.89,3.89,0,0,1,.746,2.387A9.133,9.133,0,0,1,9.332-4.2ZM7.145-4.368A6.554,6.554,0,0,0,7.191-5.4Q7.105-6.766,6.066-6.789A1.833,1.833,0,0,0,4.449-5.9L3.84-2.534a1.258,1.258,0,0,0,1.266.878Q6.73-1.609,7.1-4.023Zm6.461,1.149L16.02-8.453h2.453L13.527,1.273a4.231,4.231,0,0,1-1.246,1.641,2.723,2.723,0,0,1-1.652.523,5.035,5.035,0,0,1-1.062-.164L9.73,1.555l.3.016A1.651,1.651,0,0,0,11.613.781l.484-.9L10.715-8.453H13Z" transform="translate(2539 -8639)" fill="#fff"/>
    <path id="Trazado_188513" data-name="Trazado 188513" d="M-20.738-.875A2.919,2.919,0,0,1-23.066.156,2.172,2.172,0,0,1-24.91-.719a3.2,3.2,0,0,1-.484-2.266l.914-5.469h2.2l-.93,5.5a2.175,2.175,0,0,0-.008.485.8.8,0,0,0,.867.806,2.014,2.014,0,0,0,1.7-.79l1.055-6h2.219L-18.848,0H-20.9Zm8.43-1.508q.125-.625-.867-.906l-.711-.18q-2.523-.7-2.453-2.453a2.428,2.428,0,0,1,1.059-1.949,3.942,3.942,0,0,1,2.457-.738,3.536,3.536,0,0,1,2.313.758,2.5,2.5,0,0,1,.9,1.977L-11.8-5.883a.963.963,0,0,0-1.078-1.1,1.552,1.552,0,0,0-.895.258,1.061,1.061,0,0,0-.465.7q-.117.625.945.883l.313.07a6.285,6.285,0,0,1,1.648.59,2.488,2.488,0,0,1,.879.824,2.04,2.04,0,0,1,.285,1.18,2.251,2.251,0,0,1-.52,1.406,3.18,3.18,0,0,1-1.359.93,4.736,4.736,0,0,1-1.816.3,3.568,3.568,0,0,1-2.344-.809A2.607,2.607,0,0,1-17.16-2.7l2.078.016a1.142,1.142,0,0,0,1.3,1.227,1.845,1.845,0,0,0,1-.25A.987.987,0,0,0-12.309-2.383ZM-5.137.156A3.677,3.677,0,0,1-7.1-.387,3.292,3.292,0,0,1-8.379-1.855a4.093,4.093,0,0,1-.328-2.059l.023-.312a5.465,5.465,0,0,1,.719-2.266,4.341,4.341,0,0,1,1.547-1.59,3.827,3.827,0,0,1,2.094-.527,2.924,2.924,0,0,1,2.473,1.2,4.117,4.117,0,0,1,.637,2.962l-.125.962H-6.52a1.814,1.814,0,0,0,.4,1.313,1.521,1.521,0,0,0,1.172.508A2.7,2.7,0,0,0-2.84-2.6l1.008,1.25A3.135,3.135,0,0,1-3.207-.23,4.5,4.5,0,0,1-5.137.156Zm.7-6.945a1.565,1.565,0,0,0-1.082.383,3.363,3.363,0,0,0-.848,1.383h3.031l.047-.2a2.071,2.071,0,0,0,.008-.594,1.134,1.134,0,0,0-.383-.707A1.2,1.2,0,0,0-4.434-6.789ZM3.512-8.617a2.4,2.4,0,0,1,1.906.945L6.246-12H8.457L6.379,0H4.41l.125-.906a2.736,2.736,0,0,1-2.2,1.07A2.433,2.433,0,0,1,.949-.25,2.607,2.607,0,0,1,.031-1.418a4.7,4.7,0,0,1-.355-1.7A6.4,6.4,0,0,1-.3-4.07l.047-.352A6.767,6.767,0,0,1,.469-6.7,3.766,3.766,0,0,1,1.781-8.164,3.094,3.094,0,0,1,3.512-8.617ZM1.91-4.07a6.327,6.327,0,0,0-.039,1Q1.949-1.7,2.98-1.672A1.885,1.885,0,0,0,4.6-2.547l.6-3.359A1.248,1.248,0,0,0,3.98-6.781a1.606,1.606,0,0,0-1.34.621A4.176,4.176,0,0,0,1.91-4.07Zm14.641-6.461-.367,2.078H17.59L17.3-6.8H15.895l-.719,4.234a1.077,1.077,0,0,0,.063.609q.109.211.531.227.125.008.672-.039L16.285-.039a3.706,3.706,0,0,1-1.266.18A1.985,1.985,0,0,1,13.4-.539a2.456,2.456,0,0,1-.437-1.8L13.691-6.8H12.5l.289-1.656h1.2l.359-2.078ZM22-8.609a3.39,3.39,0,0,1,1.926.574A3.234,3.234,0,0,1,25.117-6.5a4.762,4.762,0,0,1,.27,2.176,5.143,5.143,0,0,1-1.4,3.262A3.96,3.96,0,0,1,20.965.156,3.38,3.38,0,0,1,19.059-.41a3.222,3.222,0,0,1-1.187-1.527A4.657,4.657,0,0,1,17.6-4.094,5.3,5.3,0,0,1,19.02-7.422,3.878,3.878,0,0,1,22-8.609ZM19.777-3.294a1.95,1.95,0,0,0,.352,1.182,1.168,1.168,0,0,0,.945.449A1.712,1.712,0,0,0,22.668-2.6a4.647,4.647,0,0,0,.539-2.531,2.122,2.122,0,0,0-.363-1.2,1.149,1.149,0,0,0-.949-.464,1.715,1.715,0,0,0-1.574.924A4.6,4.6,0,0,0,19.777-3.294Z" transform="translate(2742 -8639)" fill="#fff"/>
    <path id="Trazado_188509" data-name="Trazado 188509" d="M-7.8-6.336a4.548,4.548,0,0,0-.742-.078,2.136,2.136,0,0,0-1.867.883L-11.387,0h-2.2l1.469-8.453,2.07-.008-.2,1.031a2.325,2.325,0,0,1,1.969-1.2,3.214,3.214,0,0,1,.766.109ZM-5.52,0H-7.738L-6.27-8.453h2.219Zm-.492-10.6a1.1,1.1,0,0,1,.344-.867,1.209,1.209,0,0,1,.867-.344,1.215,1.215,0,0,1,.867.3,1.1,1.1,0,0,1,.383.828,1.132,1.132,0,0,1-.324.844,1.215,1.215,0,0,1-.887.375,1.235,1.235,0,0,1-.863-.3A1.091,1.091,0,0,1-6.012-10.6ZM.543-8.617a2.4,2.4,0,0,1,1.906.945L3.277-12H5.488L3.41,0H1.441l.125-.906A2.736,2.736,0,0,1-.637.164,2.433,2.433,0,0,1-2.02-.25a2.607,2.607,0,0,1-.918-1.168,4.7,4.7,0,0,1-.355-1.7A6.4,6.4,0,0,1-3.27-4.07l.047-.352A6.767,6.767,0,0,1-2.5-6.7,3.766,3.766,0,0,1-1.187-8.164,3.094,3.094,0,0,1,.543-8.617Zm-1.6,4.547a6.327,6.327,0,0,0-.039,1Q-1.02-1.7.012-1.672a1.885,1.885,0,0,0,1.617-.875l.6-3.359a1.248,1.248,0,0,0-1.219-.875,1.606,1.606,0,0,0-1.34.621A4.176,4.176,0,0,0-1.059-4.07ZM9.184.156A3.677,3.677,0,0,1,7.219-.387,3.292,3.292,0,0,1,5.941-1.855a4.093,4.093,0,0,1-.328-2.059l.023-.312a5.465,5.465,0,0,1,.719-2.266A4.341,4.341,0,0,1,7.9-8.082,3.827,3.827,0,0,1,10-8.609a2.924,2.924,0,0,1,2.473,1.2,4.117,4.117,0,0,1,.637,2.962l-.125.962H7.8a1.814,1.814,0,0,0,.4,1.313,1.521,1.521,0,0,0,1.172.508A2.7,2.7,0,0,0,11.48-2.6l1.008,1.25A3.135,3.135,0,0,1,11.113-.23,4.5,4.5,0,0,1,9.184.156Zm.7-6.945A1.565,1.565,0,0,0,8.8-6.406a3.363,3.363,0,0,0-.848,1.383h3.031l.047-.2a2.071,2.071,0,0,0,.008-.594,1.134,1.134,0,0,0-.383-.707A1.2,1.2,0,0,0,9.887-6.789Z" transform="translate(2943 -8639)" fill="#fff"/>
    <path id="Trazado_188505" data-name="Trazado 188505" d="M-10.8-4.2A6.061,6.061,0,0,1-12.02-1,3.033,3.033,0,0,1-14.566.164,2.357,2.357,0,0,1-16.6-.914l-.32.914h-2.008l2.078-12h2.211l-.852,4.32a2.634,2.634,0,0,1,2.063-.93A2.385,2.385,0,0,1-11.5-7.73a3.89,3.89,0,0,1,.746,2.387A9.133,9.133,0,0,1-10.8-4.2Zm-2.187-.165A6.554,6.554,0,0,0-12.941-5.4q-.086-1.364-1.125-1.387a1.833,1.833,0,0,0-1.617.885l-.609,3.37a1.258,1.258,0,0,0,1.266.878q1.625.047,1.992-2.367ZM-7.785,0H-10l1.469-8.453h2.219Zm-.492-10.6a1.1,1.1,0,0,1,.344-.867,1.209,1.209,0,0,1,.867-.344,1.215,1.215,0,0,1,.867.3,1.1,1.1,0,0,1,.383.828,1.132,1.132,0,0,1-.324.844,1.215,1.215,0,0,1-.887.375,1.235,1.235,0,0,1-.863-.3A1.091,1.091,0,0,1-8.277-10.6Zm6.016,7.234-1.023.891L-3.715,0h-2.2L-3.84-12h2.211L-2.77-5.484l.43-.461L.168-8.453H3L-.7-4.82,1.652,0H-.762ZM6.465.156A3.677,3.677,0,0,1,4.5-.387,3.292,3.292,0,0,1,3.223-1.855a4.093,4.093,0,0,1-.328-2.059l.023-.312a5.465,5.465,0,0,1,.719-2.266,4.341,4.341,0,0,1,1.547-1.59,3.827,3.827,0,0,1,2.094-.527,2.924,2.924,0,0,1,2.473,1.2,4.117,4.117,0,0,1,.637,2.962l-.125.962H5.082a1.814,1.814,0,0,0,.4,1.313,1.521,1.521,0,0,0,1.172.508A2.7,2.7,0,0,0,8.762-2.6L9.77-1.352A3.135,3.135,0,0,1,8.395-.23,4.5,4.5,0,0,1,6.465.156Zm.7-6.945a1.565,1.565,0,0,0-1.082.383,3.363,3.363,0,0,0-.848,1.383H8.27l.047-.2a2.071,2.071,0,0,0,.008-.594,1.134,1.134,0,0,0-.383-.707A1.2,1.2,0,0,0,7.168-6.789Zm8.648,4.406q.125-.625-.867-.906l-.711-.18q-2.523-.7-2.453-2.453a2.428,2.428,0,0,1,1.059-1.949A3.942,3.942,0,0,1,15.3-8.609a3.536,3.536,0,0,1,2.313.758,2.5,2.5,0,0,1,.9,1.977l-2.187-.008a.963.963,0,0,0-1.078-1.1,1.552,1.552,0,0,0-.895.258,1.061,1.061,0,0,0-.465.7q-.117.625.945.883l.313.07a6.285,6.285,0,0,1,1.648.59,2.488,2.488,0,0,1,.879.824,2.04,2.04,0,0,1,.285,1.18,2.251,2.251,0,0,1-.52,1.406,3.18,3.18,0,0,1-1.359.93,4.736,4.736,0,0,1-1.816.3,3.568,3.568,0,0,1-2.344-.809A2.607,2.607,0,0,1,10.965-2.7l2.078.016a1.142,1.142,0,0,0,1.3,1.227,1.845,1.845,0,0,0,1-.25A.987.987,0,0,0,15.816-2.383Z" transform="translate(3146 -8639)" fill="#fff"/>
    <path id="Trazado_188524" data-name="Trazado 188524" d="M5,0H189a5,5,0,0,1,5,5V114a5,5,0,0,1-5,5H5a5,5,0,0,1-5-5V5A5,5,0,0,1,5,0Z" transform="translate(2238 -8740)" fill="#6b8dfc"/>
    <path id="Trazado_188525" data-name="Trazado 188525" d="M5,0H164a5,5,0,0,1,5,5V57a5,5,0,0,1-5,5H5a5,5,0,0,1-5-5V5A5,5,0,0,1,5,0Z" transform="translate(2251 -8724)" fill="#fff"/>
    <path id="Trazado_188526" data-name="Trazado 188526" d="M20.334,16.363H15.87L14.551,19H11.712L18.55,6.2h2.382L23.367,19H20.739Zm-3.41-2.136h3.085l-.721-4.764Zm13.359,3.788a3.283,3.283,0,0,1-2.619,1.16,2.443,2.443,0,0,1-2.074-.984,3.6,3.6,0,0,1-.545-2.549L26.074,9.49h2.479l-1.046,6.186a2.446,2.446,0,0,0-.009.545.9.9,0,0,0,.976.906,2.265,2.265,0,0,0,1.907-.889L31.567,9.49h2.5L32.411,19H30.1Zm8.552-5.7,2-2.821h2.786l-3.445,4.781L42.1,19H39.583l-1.169-2.971L36.313,19h-2.8L37.1,14.025,35.258,9.49h2.514ZM45.849,19h-2.5l1.652-9.51h2.5ZM45.3,7.073a1.238,1.238,0,0,1,.387-.976,1.488,1.488,0,0,1,1.951-.044,1.233,1.233,0,0,1,.431.932,1.273,1.273,0,0,1-.365.949,1.367,1.367,0,0,1-1,.422,1.39,1.39,0,0,1-.971-.334A1.227,1.227,0,0,1,45.3,7.073ZM50.569,19h-2.5L50.419,5.5h2.487Zm4.72,0h-2.5l1.652-9.51h2.5ZM54.735,7.073a1.238,1.238,0,0,1,.387-.976,1.488,1.488,0,0,1,1.951-.044,1.233,1.233,0,0,1,.431.932,1.273,1.273,0,0,1-.365.949,1.367,1.367,0,0,1-1,.422,1.39,1.39,0,0,1-.971-.334A1.227,1.227,0,0,1,54.735,7.073ZM62.891,19a2.566,2.566,0,0,1-.1-.861,3.221,3.221,0,0,1-2.426,1.037,2.919,2.919,0,0,1-2.07-.813A2.46,2.46,0,0,1,57.53,16.4a2.843,2.843,0,0,1,1.305-2.386,5.924,5.924,0,0,1,3.335-.831l1.16.018.123-.571a1.984,1.984,0,0,0,.026-.554.952.952,0,0,0-.312-.646,1.075,1.075,0,0,0-.708-.242,1.514,1.514,0,0,0-.984.286,1.384,1.384,0,0,0-.519.875l-2.487.009a2.764,2.764,0,0,1,1.252-2.21,4.851,4.851,0,0,1,2.94-.831,3.507,3.507,0,0,1,2.531.962,2.816,2.816,0,0,1,.765,2.386l-.729,4.553-.044.563a2.714,2.714,0,0,0,.149,1.055L65.326,19Zm-1.907-1.749a2.27,2.27,0,0,0,1.872-.932l.308-1.644-.861-.009a2.406,2.406,0,0,0-1.978.835,1.454,1.454,0,0,0-.272.712.844.844,0,0,0,.2.751A1,1,0,0,0,60.984,17.251ZM73.35,11.872a5.117,5.117,0,0,0-.835-.088,2.4,2.4,0,0,0-2.1.993L69.316,19H66.837L68.49,9.49l2.329-.009-.229,1.16A2.615,2.615,0,0,1,72.805,9.3a3.615,3.615,0,0,1,.861.123Zm3.981,3.507L80.047,9.49h2.76L77.244,20.433a4.76,4.76,0,0,1-1.4,1.846,3.063,3.063,0,0,1-1.859.589,5.665,5.665,0,0,1-1.2-.185l.185-1.934.343.018a1.858,1.858,0,0,0,1.775-.888l.545-1.011L74.08,9.49h2.566Zm13.254.483L93.292,9.49h2.672L91.368,19H88.995L87.369,9.49h2.514Zm9.431,3.313a4.137,4.137,0,0,1-2.21-.611,3.7,3.7,0,0,1-1.437-1.652A4.605,4.605,0,0,1,96,14.6l.026-.352a6.148,6.148,0,0,1,.809-2.549,4.884,4.884,0,0,1,1.74-1.789,4.306,4.306,0,0,1,2.355-.593,3.29,3.29,0,0,1,2.782,1.351A4.631,4.631,0,0,1,104.428,14l-.141,1.083H98.46a2.041,2.041,0,0,0,.448,1.477,1.711,1.711,0,0,0,1.318.571,3.041,3.041,0,0,0,2.373-1.055l1.134,1.406a3.527,3.527,0,0,1-1.547,1.261A5.059,5.059,0,0,1,100.016,19.176Zm.791-7.813a1.761,1.761,0,0,0-1.217.431,3.784,3.784,0,0,0-.954,1.556h3.41l.053-.229a2.33,2.33,0,0,0,.009-.668,1.276,1.276,0,0,0-.431-.8A1.35,1.35,0,0,0,100.807,11.362Zm10.731.51a5.117,5.117,0,0,0-.835-.088,2.4,2.4,0,0,0-2.1.993L107.5,19h-2.479l1.652-9.51,2.329-.009-.229,1.16A2.615,2.615,0,0,1,110.994,9.3a3.615,3.615,0,0,1,.861.123Zm9.088,2.4a6.819,6.819,0,0,1-1.371,3.6,3.412,3.412,0,0,1-2.865,1.31,2.652,2.652,0,0,1-2.285-1.213L113.745,19h-2.259l2.338-13.5h2.487l-.958,4.86a2.963,2.963,0,0,1,2.32-1.046,2.683,2.683,0,0,1,2.167.989,4.376,4.376,0,0,1,.839,2.685A10.274,10.274,0,0,1,120.626,14.271Zm-2.461-.185a7.373,7.373,0,0,0,.053-1.164q-.1-1.534-1.266-1.56a2.062,2.062,0,0,0-1.819,1l-.686,3.791a1.415,1.415,0,0,0,1.424.987q1.828.053,2.241-2.662Z" transform="translate(2268 -8703)" fill="#12263f"/>
    <path id="Trazado_188527" data-name="Trazado 188527" d="M-15.1-8.617a2.4,2.4,0,0,1,1.906.945L-12.363-12h2.211L-12.23,0H-14.2l.125-.906a2.736,2.736,0,0,1-2.2,1.07A2.433,2.433,0,0,1-17.66-.25a2.607,2.607,0,0,1-.918-1.168,4.7,4.7,0,0,1-.355-1.7,6.4,6.4,0,0,1,.023-.953l.047-.352A6.767,6.767,0,0,1-18.141-6.7a3.766,3.766,0,0,1,1.313-1.461A3.094,3.094,0,0,1-15.1-8.617ZM-16.7-4.07a6.327,6.327,0,0,0-.039,1q.078,1.375,1.109,1.4a1.885,1.885,0,0,0,1.617-.875l.6-3.359a1.248,1.248,0,0,0-1.219-.875,1.606,1.606,0,0,0-1.34.621A4.176,4.176,0,0,0-16.7-4.07ZM-8.145,0h-2.219l1.469-8.453h2.219Zm-.492-10.6a1.1,1.1,0,0,1,.344-.867,1.209,1.209,0,0,1,.867-.344,1.215,1.215,0,0,1,.867.3,1.1,1.1,0,0,1,.383.828,1.132,1.132,0,0,1-.324.844,1.215,1.215,0,0,1-.887.375,1.235,1.235,0,0,1-.863-.3A1.091,1.091,0,0,1-8.637-10.6Zm6.555,1.984a2.4,2.4,0,0,1,1.906.945L.652-12H2.863L.785,0H-1.184l.125-.906a2.736,2.736,0,0,1-2.2,1.07A2.433,2.433,0,0,1-4.645-.25a2.607,2.607,0,0,1-.918-1.168,4.7,4.7,0,0,1-.355-1.7,6.4,6.4,0,0,1,.023-.953l.047-.352A6.767,6.767,0,0,1-5.125-6.7,3.766,3.766,0,0,1-3.812-8.164,3.094,3.094,0,0,1-2.082-8.617Zm-1.6,4.547a6.327,6.327,0,0,0-.039,1q.078,1.375,1.109,1.4A1.885,1.885,0,0,0-1-2.547l.6-3.359a1.248,1.248,0,0,0-1.219-.875,1.606,1.606,0,0,0-1.34.621A4.176,4.176,0,0,0-3.684-4.07ZM6.027-8.461l-.187,1A3.042,3.042,0,0,1,8.3-8.609a2.028,2.028,0,0,1,1.766.875,3.526,3.526,0,0,1,.414,2.359L9.59,0h-2.2l.906-5.4a2.528,2.528,0,0,0,.016-.555.9.9,0,0,0-1-.82,1.9,1.9,0,0,0-1.555.8L4.7,0H2.5L3.965-8.453Zm6.555.594-1.117-.656a6.183,6.183,0,0,0,1.008-2.031L12.73-12h1.758l-.18,1.156A4.806,4.806,0,0,1,12.582-7.867Zm5.906-2.664-.367,2.078h1.406L19.238-6.8H17.832l-.719,4.234a1.077,1.077,0,0,0,.063.609q.109.211.531.227.125.008.672-.039L18.223-.039a3.706,3.706,0,0,1-1.266.18,1.985,1.985,0,0,1-1.617-.68,2.456,2.456,0,0,1-.437-1.8L15.629-6.8h-1.2l.289-1.656h1.2l.359-2.078Z" transform="translate(2335 -8639)" fill="#fff"/>
    <path id="Trazado_188528" data-name="Trazado 188528" d="M-4.333-11.255a15.891,15.891,0,0,1,.806-5.627A8.8,8.8,0,0,1-.916-20.459,17.368,17.368,0,0,0,1.831-23.23,4.523,4.523,0,0,0,2.771-26q0-3.687-3.174-3.687a2.945,2.945,0,0,0-2.368,1.074,4.569,4.569,0,0,0-.952,2.905h-8.252a9.843,9.843,0,0,1,3.076-7.6q3.027-2.722,8.5-2.722,5.444,0,8.435,2.515a8.826,8.826,0,0,1,2.991,7.153,8.332,8.332,0,0,1-.806,3.687,12.459,12.459,0,0,1-2.588,3.394L4.822-16.675a6.6,6.6,0,0,0-1.66,2.356,9.336,9.336,0,0,0-.513,3.064Zm-1,7.422A3.789,3.789,0,0,1-4.028-6.8,4.729,4.729,0,0,1-.769-7.959,4.729,4.729,0,0,1,2.49-6.8,3.789,3.789,0,0,1,3.8-3.833,3.789,3.789,0,0,1,2.49-.867,4.729,4.729,0,0,1-.769.293,4.729,4.729,0,0,1-4.028-.867,3.789,3.789,0,0,1-5.334-3.833Z" transform="translate(2190 -8663)" fill="#fff"/>
    <path id="Trazado_188523" data-name="Trazado 188523" d="M.923-5.571H3.391v1.784H.923V-1H-.957V-3.787H-3.432V-5.571H-.957V-8.244H.923Z" transform="translate(2438 -8690)" fill="#12263f"/>
    <path id="Trazado_188518" data-name="Trazado 188518" d="M.923-5.571H3.391v1.784H.923V-1H-.957V-3.787H-3.432V-5.571H-.957V-8.244H.923Z" transform="translate(2641 -8690)" fill="#12263f"/>
    <path id="Trazado_188516" data-name="Trazado 188516" d="M.923-5.571H3.391v1.784H.923V-1H-.957V-3.787H-3.432V-5.571H-.957V-8.244H.923Z" transform="translate(2842 -8690)" fill="#12263f"/>
    <path id="Trazado_188517" data-name="Trazado 188517" d="M.923-5.571H3.391v1.784H.923V-1H-.957V-3.787H-3.432V-5.571H-.957V-8.244H.923Z" transform="translate(3045 -8690)" fill="#12263f"/>
  </g>
</svg>
