<svg xmlns="http://www.w3.org/2000/svg" xmlns:xlink="http://www.w3.org/1999/xlink" width="1030" height="349" viewBox="0 0 1030 349">
  <defs>
    <clipPath id="clip-path">
      <path id="Rectángulo_45636" data-name="Rectángulo 45636" d="M17,0h996a17,17,0,0,1,17,17V300a0,0,0,0,1,0,0H0a0,0,0,0,1,0,0V17A17,17,0,0,1,17,0Z" transform="translate(285 2147.719)" fill="#3c3fa7"/>
    </clipPath>
    <clipPath id="clip-path-2">
      <rect id="Rectángulo_45697" data-name="Rectángulo 45697" width="1030" height="349" transform="translate(285 2005)" fill="#fff" stroke="#707070" stroke-width="1"/>
    </clipPath>
  </defs>
  <g id="Grupo_177624" data-name="Grupo 177624" transform="translate(-285 -2138)">
    <path id="Rectángulo_45312" data-name="Rectángulo 45312" d="M17,0h996a17,17,0,0,1,17,17V300a0,0,0,0,1,0,0H0a0,0,0,0,1,0,0V17A17,17,0,0,1,17,0Z" transform="translate(285 2186.719)" fill="#3c3fa7"/>
    <g id="Enmascarar_grupo_307" data-name="Enmascarar grupo 307" transform="translate(0 39)" clip-path="url(#clip-path)">
      <g id="Grupo_175487" data-name="Grupo 175487" transform="translate(44.874 2102.86) rotate(-45)">
        <g id="Grupo_162315" data-name="Grupo 162315" transform="translate(12.928 12.719)" style="mix-blend-mode: overlay;isolation: isolate">
          <path id="Trazado_143614" data-name="Trazado 143614" d="M381.065,193.9c-28.706,28.879-58.284,56.782-88.382,84.238,13.755-28.387,28.464-56.374,41.6-85.025,14.888-32.481,32.484-76.637,17.012-109.336-35.257-74.533-136.371,4.587-174.067,44.549-4.014,4.26-7.865,8.692-11.76,13.076,14.244-31.557,27.243-63.91,25.687-97.256-2.139-45.85-44.513-55-82.378-31.983C68.116,36.875,34.5,78.018,6.309,115.281c-23.948,31.649,26.4,58.553,50.15,27.35A456.4,456.4,0,0,1,98.777,94.517q-3.466,5.925-7,11.83C76.2,132.378,60.795,158.5,47.831,185.752c-24.822,52.17-61.317,124.491-35.386,177.071,13.07,26.5,46.444,27.776,72.159,15.625,34.567-16.334,59.516-50.127,83.4-78.849,24.926-29.989,47.117-61.644,70.344-92.813,9.7-13.024,19.41-26.228,30.4-38.3.252-.28.514-.538.765-.812l-.3.825c-6.606,18.035-14.838,35.425-23.169,52.864-15.5,32.446-35.147,66.745-41.852,101.6-5.927,30.82,5.128,64.582,42.636,60.71,35.261-3.639,64.939-38.229,89.447-61.534,29.678-28.227,58.872-56.965,88.071-85.675C454.828,206.49,411.218,163.573,381.065,193.9Z" transform="translate(5.763 5.624)" fill="#3c384f"/>
          <path id="Trazado_143615" data-name="Trazado 143615" d="M248.989,395.17c-13.8.609-25.3-3.645-33.416-12.405-11.277-12.178-15.469-32.638-11.219-54.73,5.541-28.8,19.447-56.772,32.891-83.812,3.22-6.477,6.409-12.89,9.436-19.23,2.87-6.013,5.889-12.33,8.9-18.859q-2.65,3.536-5.248,7.031l-1.719,2.311q-9.053,12.144-17.954,24.349c-16.73,22.806-34.03,46.393-52.6,68.73-2.712,3.262-5.439,6.591-8.2,9.956-21.312,26.021-45.465,55.511-77.4,70.6-28.469,13.438-64.886,11.633-79.416-17.842-26.115-52.947,7.829-124.059,32.617-175.98l2.813-5.9c7.293-15.338,15.373-30.352,23.9-45.318q-2.894,3.631-5.687,7.308C52,170.658,27.766,171.447,12.807,161.062c-12.371-8.589-18.78-25.289-5.2-43.24,30.1-39.778,63.563-80,104.264-104.738C134.461-.642,158.651-3.776,176.6,4.7c15.8,7.464,25.046,23.2,26.029,44.326,1.154,24.772-5.368,48.819-14.292,71.88,30.535-29.447,86.463-71.764,129.626-67.63,19.827,1.909,34.737,13.148,44.315,33.4,15.758,33.3.222,76.314-17.055,113.992-8.223,17.939-17.185,35.865-25.853,53.207l-3.068,6.134c24.5-22.756,46.453-43.916,66.639-64.219v.006c9.98-10.046,22.269-14.117,34.571-11.483a36.9,36.9,0,0,1,27.79,27.121c2.855,12.224-1.17,24.466-11.342,34.464l-3.321,3.261c-27.646,27.185-56.231,55.3-84.827,82.485-3.524,3.354-7.149,6.936-10.888,10.629-22.239,21.957-49.914,49.289-82.237,52.624C251.436,395.028,250.2,395.116,248.989,395.17Zm26.5-227.228a5.127,5.127,0,0,1,2.727.6,5.016,5.016,0,0,1,2.405,6.251l-.3.831c-6.924,18.912-15.67,37.226-23.386,53.384-3.058,6.4-6.278,12.873-9.523,19.4-13.082,26.319-26.613,53.531-31.849,80.753-3.553,18.483-.2,35.972,8.748,45.637,6.637,7.168,16.108,10.127,28.184,8.922,27.985-2.892,52.808-27.4,74.709-49.027,3.8-3.747,7.483-7.387,11.06-10.794,28.519-27.117,57.069-55.188,84.678-82.338l3.315-3.26c9-8.843,9.262-17.631,7.906-23.447a26.945,26.945,0,0,0-20.01-19.555c-5.832-1.255-14.617-.879-23.411,7.972v.006c-26.078,26.226-55.063,53.851-88.619,84.45a5.86,5.86,0,0,1-7.2.743,5.256,5.256,0,0,1-1.587-6.746c5.2-10.731,10.534-21.4,15.871-32.071,8.619-17.25,17.536-35.085,25.671-52.835,16.186-35.294,30.855-75.332,16.968-104.679-8.071-17.074-19.846-26.127-36-27.677-40.239-3.86-99.108,41.6-128.836,73.118-3.171,3.355-6.234,6.828-9.3,10.3l-2.32,2.628a5.967,5.967,0,0,1-7.347,1.439,5.216,5.216,0,0,1-1.988-6.8c13.562-30.059,26.679-62.126,25.166-94.623-.813-17.411-7.828-29.726-20.286-35.612-14.531-6.864-34.611-4.024-53.718,7.584C78.374,46.118,45.875,85.24,16.544,124c-9.265,12.249-4.335,22.337,3.374,27.688,10.44,7.241,27.25,7.407,37.854-6.531a465.334,465.334,0,0,1,42.911-48.795,5.877,5.877,0,0,1,7.475-.867,5.323,5.323,0,0,1,1.274,7.119q-3.484,5.951-7.035,11.882c-15.769,26.359-30.981,52.229-43.662,78.883l-2.82,5.916C32.132,249.113-.431,317.341,23.394,365.651c11.573,23.467,41.408,24.492,64.9,13.4,29.312-13.845,51.491-40.923,72.936-67.113,2.774-3.382,5.525-6.741,8.261-10.026,18.318-22.041,35.5-45.466,52.118-68.121q8.962-12.224,18.009-24.425l1.719-2.305c9.111-12.237,18.53-24.885,29.08-36.479l.532-.567A6.878,6.878,0,0,1,275.493,167.941Zm111.349,31.59.051,0Z" transform="translate(-0.008 -0.009)" fill="#3c384f"/>
          <path id="Trazado_143616" data-name="Trazado 143616" d="M27.611,3.054C4.748,45.532-9.286,94.767,7.166,138.613c2.429,6.485,13.589,3.108,11.125-3.471C2.851,93.974,15.7,48.236,37.2,8.282,40.752,1.7,31.174-3.567,27.611,3.054Z" transform="translate(24.531 216.659)" fill="#3c384f"/>
          <path id="Trazado_143617" data-name="Trazado 143617" d="M16.413,29.871c-.1-.007-.186-.031-.277-.044-.146-.3-.274-.621-.321-.708l-.027-.032c-.009-.044.006-.011-.008-.078-.623-2.476-1.034-4.99-1.478-7.518q-1.535-8.8-3.075-17.591C10.73,1.053,7.242-.731,4.392.291A6.305,6.305,0,0,0,.1,7.37q1.739,9.946,3.484,19.9c.965,5.519,2.581,12.746,9.315,13.563,2.909.353,6.316-1.035,7.188-4.232C20.832,33.86,19.537,30.249,16.413,29.871Z" transform="translate(47.734 307.531)" fill="#3c384f"/>
          <path id="Trazado_143618" data-name="Trazado 143618" d="M22.5.6C16.177-2.517,9.98,7.423,16.309,10.544,25.049,14.852,27.35,24.306,27.282,33.7c-.068,10.662-1.78,21.692-4.013,32.287A229.062,229.062,0,0,1,.781,127.14c-3.544,6.592,6.029,11.849,9.591,5.228A240.07,240.07,0,0,0,35.684,60.394C39.275,40.05,43.782,11.091,22.5.6Z" transform="translate(303.364 86.336)" fill="#3c384f"/>
        </g>
        <g id="Grupo_162318" data-name="Grupo 162318" transform="translate(0.008 0.009)">
          <g id="Grupo_162317" data-name="Grupo 162317" transform="translate(0)">
            <g id="Grupo_162316" data-name="Grupo 162316">
              <path id="Trazado_143619" data-name="Trazado 143619" d="M381.07,193.9c-28.706,28.879-58.284,56.782-88.387,84.233,13.754-28.382,28.47-56.374,41.6-85.02,14.888-32.481,32.479-76.636,17.012-109.335-35.257-74.533-136.37,4.581-174.067,44.549-4.02,4.255-7.865,8.687-11.76,13.076,14.238-31.556,27.237-63.909,25.687-97.256-2.139-45.85-44.513-55-82.378-31.988C68.116,36.877,34.508,78.019,6.309,115.282c-23.948,31.649,26.4,58.553,50.156,27.349A456.985,456.985,0,0,1,98.777,94.513q-3.466,5.925-6.994,11.835C76.205,132.379,60.8,158.5,47.836,185.748,23.008,237.923-13.481,310.239,12.45,362.825c13.07,26.5,46.439,27.777,72.159,15.625,34.567-16.334,59.516-50.127,83.4-78.848,24.926-29.989,47.111-61.644,70.338-92.813,9.71-13.025,19.416-26.229,30.4-38.3.251-.274.519-.532.77-.812l-.3.831c-6.606,18.035-14.844,35.425-23.169,52.864-15.5,32.441-35.147,66.74-41.852,101.6-5.933,30.82,5.128,64.582,42.636,60.71,35.255-3.639,64.934-38.228,89.441-61.534,29.684-28.227,58.878-56.971,88.077-85.681C454.827,206.492,411.218,163.575,381.07,193.9Z" transform="translate(5.758 5.623)" fill="#6b8dfc"/>
              <path id="Trazado_143620" data-name="Trazado 143620" d="M248.983,395.164c-13.8.609-25.3-3.639-33.41-12.4-11.277-12.178-15.469-32.637-11.219-54.736,5.535-28.8,19.441-56.766,32.891-83.812,3.214-6.476,6.4-12.884,9.435-19.224,2.869-6.013,5.889-12.33,8.9-18.859-1.767,2.352-3.516,4.7-5.248,7.031l-1.719,2.3c-6.035,8.1-12,16.229-17.96,24.35-16.725,22.811-34.025,46.4-52.595,68.73q-4.069,4.9-8.2,9.962c-21.312,26.015-45.465,55.505-77.4,70.6-28.475,13.438-64.886,11.628-79.416-17.848-26.115-52.942,7.829-124.053,32.611-175.98l2.819-5.9c7.293-15.338,15.373-30.352,23.9-45.318q-2.885,3.63-5.687,7.3c-14.678,19.293-38.917,20.082-53.875,9.7-12.371-8.589-18.78-25.289-5.2-43.24,30.1-39.778,63.563-80,104.258-104.743C134.461-.642,158.645-3.776,176.6,4.7c15.8,7.464,25.041,23.2,26.029,44.32,1.154,24.772-5.368,48.825-14.3,71.88,30.54-29.441,86.463-71.759,129.625-67.625,19.827,1.909,34.742,13.147,44.321,33.4,15.752,33.3.216,76.309-17.055,113.992-8.223,17.933-17.185,35.864-25.853,53.2L316.3,260c24.5-22.751,46.453-43.91,66.639-64.214h0c9.98-10.046,22.269-14.111,34.571-11.478a36.88,36.88,0,0,1,27.784,27.121c2.86,12.224-1.164,24.46-11.336,34.458l-3.321,3.266c-27.646,27.185-56.231,55.291-84.827,82.485-3.524,3.354-7.149,6.936-10.894,10.629-22.234,21.956-49.909,49.289-82.232,52.624C251.43,395.023,250.2,395.111,248.983,395.164Zm26.5-227.228a5.118,5.118,0,0,1,2.726.608,5.01,5.01,0,0,1,2.411,6.251l-.3.831c-6.923,18.906-15.67,37.226-23.386,53.383-3.057,6.4-6.277,12.868-9.523,19.4-13.087,26.319-26.618,53.532-31.855,80.748-3.553,18.483-.2,35.972,8.753,45.642,6.632,7.162,16.108,10.127,28.184,8.922,27.985-2.892,52.808-27.4,74.7-49.027,3.8-3.752,7.488-7.393,11.066-10.794,28.519-27.117,57.068-55.188,84.678-82.338l3.315-3.266c8.993-8.837,9.261-17.626,7.9-23.447a26.929,26.929,0,0,0-20.01-19.55c-5.827-1.255-14.611-.879-23.405,7.972h0c-26.078,26.226-55.063,53.851-88.619,84.456a5.861,5.861,0,0,1-7.2.743,5.25,5.25,0,0,1-1.587-6.746c5.2-10.731,10.534-21.4,15.866-32.076,8.624-17.245,17.536-35.079,25.677-52.829,16.181-35.294,30.855-75.332,16.968-104.685-8.076-17.068-19.852-26.121-36-27.677-40.239-3.854-99.113,41.6-128.842,73.118-3.166,3.36-6.229,6.833-9.3,10.3l-2.326,2.634a5.958,5.958,0,0,1-7.341,1.438,5.222,5.222,0,0,1-1.993-6.807c13.568-30.054,26.685-62.126,25.171-94.618C190.412,33.111,183.4,20.8,170.939,14.91c-14.536-6.858-34.611-4.018-53.718,7.59C78.368,46.113,45.875,85.24,16.544,124c-9.271,12.249-4.335,22.332,3.374,27.682,10.44,7.247,27.25,7.412,37.854-6.526a464.179,464.179,0,0,1,42.911-48.795,5.87,5.87,0,0,1,7.469-.867,5.312,5.312,0,0,1,1.274,7.113q-3.484,5.959-7.03,11.887c-15.774,26.359-30.981,52.228-43.668,78.883L55.91,199.3C32.132,249.113-.431,317.341,23.394,365.645c11.573,23.473,41.408,24.5,64.9,13.408,29.312-13.845,51.491-40.929,72.936-67.113q4.162-5.082,8.255-10.031c18.323-22.036,35.5-45.46,52.123-68.116q8.963-12.225,18.009-24.43l1.719-2.3c9.111-12.237,18.531-24.89,29.075-36.479l.537-.567A6.872,6.872,0,0,1,275.488,167.936Zm111.349,31.6.057,0Z" transform="translate(-0.008 -0.009)"/>
            </g>
            <path id="Trazado_143621" data-name="Trazado 143621" d="M27.614,3.055C4.746,45.533-9.283,94.762,7.163,138.615c2.435,6.479,13.595,3.108,11.13-3.471C2.848,93.97,15.7,48.237,37.206,8.283,40.75,1.692,31.177-3.566,27.614,3.055Z" transform="translate(24.528 216.658)"/>
            <path id="Trazado_143622" data-name="Trazado 143622" d="M16.413,29.871c-.1-.007-.186-.031-.277-.044-.146-.3-.279-.621-.327-.708l-.021-.033c-.009-.044.006-.017-.008-.084-.623-2.471-1.039-4.989-1.478-7.513Q12.76,12.695,11.228,3.9C10.73,1.053,7.242-.731,4.386.291A6.3,6.3,0,0,0,.1,7.369L3.576,27.262c.97,5.524,2.586,12.751,9.32,13.569,2.909.348,6.316-1.035,7.188-4.232C20.832,33.86,19.532,30.249,16.413,29.871Z" transform="translate(47.734 307.531)"/>
            <path id="Trazado_143623" data-name="Trazado 143623" d="M22.5.6c-6.318-3.115-12.521,6.825-6.186,9.946C25.05,14.852,27.346,24.306,27.284,33.69c-.068,10.662-1.78,21.7-4.013,32.293A229.064,229.064,0,0,1,.783,127.14c-3.55,6.592,6.029,11.849,9.591,5.228A240.32,240.32,0,0,0,35.686,60.394C39.277,40.044,43.784,11.085,22.5.6Z" transform="translate(303.362 86.336)"/>
          </g>
        </g>
      </g>
      <g id="Grupo_175488" data-name="Grupo 175488" transform="translate(1571.336 2492.029) rotate(135)">
        <g id="Grupo_162315-2" data-name="Grupo 162315" transform="translate(12.928 12.719)" style="mix-blend-mode: overlay;isolation: isolate">
          <path id="Trazado_143614-2" data-name="Trazado 143614" d="M381.065,193.9c-28.706,28.879-58.284,56.782-88.382,84.238,13.755-28.387,28.464-56.374,41.6-85.025,14.888-32.481,32.484-76.637,17.012-109.336-35.257-74.533-136.371,4.587-174.067,44.549-4.014,4.26-7.865,8.692-11.76,13.076,14.244-31.557,27.243-63.91,25.687-97.256-2.139-45.85-44.513-55-82.378-31.983C68.116,36.875,34.5,78.018,6.309,115.281c-23.948,31.649,26.4,58.553,50.15,27.35A456.4,456.4,0,0,1,98.777,94.517q-3.466,5.925-7,11.83C76.2,132.378,60.795,158.5,47.831,185.752c-24.822,52.17-61.317,124.491-35.386,177.071,13.07,26.5,46.444,27.776,72.159,15.625,34.567-16.334,59.516-50.127,83.4-78.849,24.926-29.989,47.117-61.644,70.344-92.813,9.7-13.024,19.41-26.228,30.4-38.3.252-.28.514-.538.765-.812l-.3.825c-6.606,18.035-14.838,35.425-23.169,52.864-15.5,32.446-35.147,66.745-41.852,101.6-5.927,30.82,5.128,64.582,42.636,60.71,35.261-3.639,64.939-38.229,89.447-61.534,29.678-28.227,58.872-56.965,88.071-85.675C454.828,206.49,411.218,163.573,381.065,193.9Z" transform="translate(5.763 5.624)" fill="#3c384f"/>
          <path id="Trazado_143615-2" data-name="Trazado 143615" d="M248.989,395.17c-13.8.609-25.3-3.645-33.416-12.405-11.277-12.178-15.469-32.638-11.219-54.73,5.541-28.8,19.447-56.772,32.891-83.812,3.22-6.477,6.409-12.89,9.436-19.23,2.87-6.013,5.889-12.33,8.9-18.859q-2.65,3.536-5.248,7.031l-1.719,2.311q-9.053,12.144-17.954,24.349c-16.73,22.806-34.03,46.393-52.6,68.73-2.712,3.262-5.439,6.591-8.2,9.956-21.312,26.021-45.465,55.511-77.4,70.6-28.469,13.438-64.886,11.633-79.416-17.842-26.115-52.947,7.829-124.059,32.617-175.98l2.813-5.9c7.293-15.338,15.373-30.352,23.9-45.318q-2.894,3.631-5.687,7.308C52,170.658,27.766,171.447,12.807,161.062c-12.371-8.589-18.78-25.289-5.2-43.24,30.1-39.778,63.563-80,104.264-104.738C134.461-.642,158.651-3.776,176.6,4.7c15.8,7.464,25.046,23.2,26.029,44.326,1.154,24.772-5.368,48.819-14.292,71.88,30.535-29.447,86.463-71.764,129.626-67.63,19.827,1.909,34.737,13.148,44.315,33.4,15.758,33.3.222,76.314-17.055,113.992-8.223,17.939-17.185,35.865-25.853,53.207l-3.068,6.134c24.5-22.756,46.453-43.916,66.639-64.219v.006c9.98-10.046,22.269-14.117,34.571-11.483a36.9,36.9,0,0,1,27.79,27.121c2.855,12.224-1.17,24.466-11.342,34.464l-3.321,3.261c-27.646,27.185-56.231,55.3-84.827,82.485-3.524,3.354-7.149,6.936-10.888,10.629-22.239,21.957-49.914,49.289-82.237,52.624C251.436,395.028,250.2,395.116,248.989,395.17Zm26.5-227.228a5.127,5.127,0,0,1,2.727.6,5.016,5.016,0,0,1,2.405,6.251l-.3.831c-6.924,18.912-15.67,37.226-23.386,53.384-3.058,6.4-6.278,12.873-9.523,19.4-13.082,26.319-26.613,53.531-31.849,80.753-3.553,18.483-.2,35.972,8.748,45.637,6.637,7.168,16.108,10.127,28.184,8.922,27.985-2.892,52.808-27.4,74.709-49.027,3.8-3.747,7.483-7.387,11.06-10.794,28.519-27.117,57.069-55.188,84.678-82.338l3.315-3.26c9-8.843,9.262-17.631,7.906-23.447a26.945,26.945,0,0,0-20.01-19.555c-5.832-1.255-14.617-.879-23.411,7.972v.006c-26.078,26.226-55.063,53.851-88.619,84.45a5.86,5.86,0,0,1-7.2.743,5.256,5.256,0,0,1-1.587-6.746c5.2-10.731,10.534-21.4,15.871-32.071,8.619-17.25,17.536-35.085,25.671-52.835,16.186-35.294,30.855-75.332,16.968-104.679-8.071-17.074-19.846-26.127-36-27.677-40.239-3.86-99.108,41.6-128.836,73.118-3.171,3.355-6.234,6.828-9.3,10.3l-2.32,2.628a5.967,5.967,0,0,1-7.347,1.439,5.216,5.216,0,0,1-1.988-6.8c13.562-30.059,26.679-62.126,25.166-94.623-.813-17.411-7.828-29.726-20.286-35.612-14.531-6.864-34.611-4.024-53.718,7.584C78.374,46.118,45.875,85.24,16.544,124c-9.265,12.249-4.335,22.337,3.374,27.688,10.44,7.241,27.25,7.407,37.854-6.531a465.334,465.334,0,0,1,42.911-48.795,5.877,5.877,0,0,1,7.475-.867,5.323,5.323,0,0,1,1.274,7.119q-3.484,5.951-7.035,11.882c-15.769,26.359-30.981,52.229-43.662,78.883l-2.82,5.916C32.132,249.113-.431,317.341,23.394,365.651c11.573,23.467,41.408,24.492,64.9,13.4,29.312-13.845,51.491-40.923,72.936-67.113,2.774-3.382,5.525-6.741,8.261-10.026,18.318-22.041,35.5-45.466,52.118-68.121q8.962-12.224,18.009-24.425l1.719-2.305c9.111-12.237,18.53-24.885,29.08-36.479l.532-.567A6.878,6.878,0,0,1,275.493,167.941Zm111.349,31.59.051,0Z" transform="translate(-0.008 -0.009)" fill="#3c384f"/>
          <path id="Trazado_143616-2" data-name="Trazado 143616" d="M27.611,3.054C4.748,45.532-9.286,94.767,7.166,138.613c2.429,6.485,13.589,3.108,11.125-3.471C2.851,93.974,15.7,48.236,37.2,8.282,40.752,1.7,31.174-3.567,27.611,3.054Z" transform="translate(24.531 216.659)" fill="#3c384f"/>
          <path id="Trazado_143617-2" data-name="Trazado 143617" d="M16.413,29.871c-.1-.007-.186-.031-.277-.044-.146-.3-.274-.621-.321-.708l-.027-.032c-.009-.044.006-.011-.008-.078-.623-2.476-1.034-4.99-1.478-7.518q-1.535-8.8-3.075-17.591C10.73,1.053,7.242-.731,4.392.291A6.305,6.305,0,0,0,.1,7.37q1.739,9.946,3.484,19.9c.965,5.519,2.581,12.746,9.315,13.563,2.909.353,6.316-1.035,7.188-4.232C20.832,33.86,19.537,30.249,16.413,29.871Z" transform="translate(47.734 307.531)" fill="#3c384f"/>
          <path id="Trazado_143618-2" data-name="Trazado 143618" d="M22.5.6C16.177-2.517,9.98,7.423,16.309,10.544,25.049,14.852,27.35,24.306,27.282,33.7c-.068,10.662-1.78,21.692-4.013,32.287A229.062,229.062,0,0,1,.781,127.14c-3.544,6.592,6.029,11.849,9.591,5.228A240.07,240.07,0,0,0,35.684,60.394C39.275,40.05,43.782,11.091,22.5.6Z" transform="translate(303.364 86.336)" fill="#3c384f"/>
        </g>
        <g id="Grupo_162318-2" data-name="Grupo 162318" transform="translate(0.008 0.009)">
          <g id="Grupo_162317-2" data-name="Grupo 162317" transform="translate(0)">
            <g id="Grupo_162316-2" data-name="Grupo 162316">
              <path id="Trazado_143619-2" data-name="Trazado 143619" d="M381.07,193.9c-28.706,28.879-58.284,56.782-88.387,84.233,13.754-28.382,28.47-56.374,41.6-85.02,14.888-32.481,32.479-76.636,17.012-109.335-35.257-74.533-136.37,4.581-174.067,44.549-4.02,4.255-7.865,8.687-11.76,13.076,14.238-31.556,27.237-63.909,25.687-97.256-2.139-45.85-44.513-55-82.378-31.988C68.116,36.877,34.508,78.019,6.309,115.282c-23.948,31.649,26.4,58.553,50.156,27.349A456.985,456.985,0,0,1,98.777,94.513q-3.466,5.925-6.994,11.835C76.205,132.379,60.8,158.5,47.836,185.748,23.008,237.923-13.481,310.239,12.45,362.825c13.07,26.5,46.439,27.777,72.159,15.625,34.567-16.334,59.516-50.127,83.4-78.848,24.926-29.989,47.111-61.644,70.338-92.813,9.71-13.025,19.416-26.229,30.4-38.3.251-.274.519-.532.77-.812l-.3.831c-6.606,18.035-14.844,35.425-23.169,52.864-15.5,32.441-35.147,66.74-41.852,101.6-5.933,30.82,5.128,64.582,42.636,60.71,35.255-3.639,64.934-38.228,89.441-61.534,29.684-28.227,58.878-56.971,88.077-85.681C454.827,206.492,411.218,163.575,381.07,193.9Z" transform="translate(5.758 5.623)" fill="#6b8dfc"/>
              <path id="Trazado_143620-2" data-name="Trazado 143620" d="M248.983,395.164c-13.8.609-25.3-3.639-33.41-12.4-11.277-12.178-15.469-32.637-11.219-54.736,5.535-28.8,19.441-56.766,32.891-83.812,3.214-6.476,6.4-12.884,9.435-19.224,2.869-6.013,5.889-12.33,8.9-18.859-1.767,2.352-3.516,4.7-5.248,7.031l-1.719,2.3c-6.035,8.1-12,16.229-17.96,24.35-16.725,22.811-34.025,46.4-52.595,68.73q-4.069,4.9-8.2,9.962c-21.312,26.015-45.465,55.505-77.4,70.6-28.475,13.438-64.886,11.628-79.416-17.848-26.115-52.942,7.829-124.053,32.611-175.98l2.819-5.9c7.293-15.338,15.373-30.352,23.9-45.318q-2.885,3.63-5.687,7.3c-14.678,19.293-38.917,20.082-53.875,9.7-12.371-8.589-18.78-25.289-5.2-43.24,30.1-39.778,63.563-80,104.258-104.743C134.461-.642,158.645-3.776,176.6,4.7c15.8,7.464,25.041,23.2,26.029,44.32,1.154,24.772-5.368,48.825-14.3,71.88,30.54-29.441,86.463-71.759,129.625-67.625,19.827,1.909,34.742,13.147,44.321,33.4,15.752,33.3.216,76.309-17.055,113.992-8.223,17.933-17.185,35.864-25.853,53.2L316.3,260c24.5-22.751,46.453-43.91,66.639-64.214h0c9.98-10.046,22.269-14.111,34.571-11.478a36.88,36.88,0,0,1,27.784,27.121c2.86,12.224-1.164,24.46-11.336,34.458l-3.321,3.266c-27.646,27.185-56.231,55.291-84.827,82.485-3.524,3.354-7.149,6.936-10.894,10.629-22.234,21.956-49.909,49.289-82.232,52.624C251.43,395.023,250.2,395.111,248.983,395.164Zm26.5-227.228a5.118,5.118,0,0,1,2.726.608,5.01,5.01,0,0,1,2.411,6.251l-.3.831c-6.923,18.906-15.67,37.226-23.386,53.383-3.057,6.4-6.277,12.868-9.523,19.4-13.087,26.319-26.618,53.532-31.855,80.748-3.553,18.483-.2,35.972,8.753,45.642,6.632,7.162,16.108,10.127,28.184,8.922,27.985-2.892,52.808-27.4,74.7-49.027,3.8-3.752,7.488-7.393,11.066-10.794,28.519-27.117,57.068-55.188,84.678-82.338l3.315-3.266c8.993-8.837,9.261-17.626,7.9-23.447a26.929,26.929,0,0,0-20.01-19.55c-5.827-1.255-14.611-.879-23.405,7.972h0c-26.078,26.226-55.063,53.851-88.619,84.456a5.861,5.861,0,0,1-7.2.743,5.25,5.25,0,0,1-1.587-6.746c5.2-10.731,10.534-21.4,15.866-32.076,8.624-17.245,17.536-35.079,25.677-52.829,16.181-35.294,30.855-75.332,16.968-104.685-8.076-17.068-19.852-26.121-36-27.677-40.239-3.854-99.113,41.6-128.842,73.118-3.166,3.36-6.229,6.833-9.3,10.3l-2.326,2.634a5.958,5.958,0,0,1-7.341,1.438,5.222,5.222,0,0,1-1.993-6.807c13.568-30.054,26.685-62.126,25.171-94.618C190.412,33.111,183.4,20.8,170.939,14.91c-14.536-6.858-34.611-4.018-53.718,7.59C78.368,46.113,45.875,85.24,16.544,124c-9.271,12.249-4.335,22.332,3.374,27.682,10.44,7.247,27.25,7.412,37.854-6.526a464.179,464.179,0,0,1,42.911-48.795,5.87,5.87,0,0,1,7.469-.867,5.312,5.312,0,0,1,1.274,7.113q-3.484,5.959-7.03,11.887c-15.774,26.359-30.981,52.228-43.668,78.883L55.91,199.3C32.132,249.113-.431,317.341,23.394,365.645c11.573,23.473,41.408,24.5,64.9,13.408,29.312-13.845,51.491-40.929,72.936-67.113q4.162-5.082,8.255-10.031c18.323-22.036,35.5-45.46,52.123-68.116q8.963-12.225,18.009-24.43l1.719-2.3c9.111-12.237,18.531-24.89,29.075-36.479l.537-.567A6.872,6.872,0,0,1,275.488,167.936Zm111.349,31.6.057,0Z" transform="translate(-0.008 -0.009)"/>
            </g>
            <path id="Trazado_143621-2" data-name="Trazado 143621" d="M27.614,3.055C4.746,45.533-9.283,94.762,7.163,138.615c2.435,6.479,13.595,3.108,11.13-3.471C2.848,93.97,15.7,48.237,37.206,8.283,40.75,1.692,31.177-3.566,27.614,3.055Z" transform="translate(24.528 216.658)"/>
            <path id="Trazado_143622-2" data-name="Trazado 143622" d="M16.413,29.871c-.1-.007-.186-.031-.277-.044-.146-.3-.279-.621-.327-.708l-.021-.033c-.009-.044.006-.017-.008-.084-.623-2.471-1.039-4.989-1.478-7.513Q12.76,12.695,11.228,3.9C10.73,1.053,7.242-.731,4.386.291A6.3,6.3,0,0,0,.1,7.369L3.576,27.262c.97,5.524,2.586,12.751,9.32,13.569,2.909.348,6.316-1.035,7.188-4.232C20.832,33.86,19.532,30.249,16.413,29.871Z" transform="translate(47.734 307.531)"/>
            <path id="Trazado_143623-2" data-name="Trazado 143623" d="M22.5.6c-6.318-3.115-12.521,6.825-6.186,9.946C25.05,14.852,27.346,24.306,27.284,33.69c-.068,10.662-1.78,21.7-4.013,32.293A229.064,229.064,0,0,1,.783,127.14c-3.55,6.592,6.029,11.849,9.591,5.228A240.32,240.32,0,0,0,35.686,60.394C39.277,40.044,43.784,11.085,22.5.6Z" transform="translate(303.362 86.336)"/>
          </g>
        </g>
      </g>
      <g id="Grupo_175486" data-name="Grupo 175486" transform="translate(212.667 13.258)">
        <path id="Trazado_185125" data-name="Trazado 185125" d="M611.508,159.8C606.855,80.8,551.624,5.37,476.823.692,390.908-6.529,312.048,45.164,226.468,45.711c-43.639,4.1-84.565-14.228-127.092-20.148C3.324,21.695-11.311,145.539,6.6,225.365,82.15,601.7,616.739,550.495,611.508,159.8Z" transform="matrix(0.799, 0.602, -0.602, 0.799, 535.028, 2110.019)" fill="#6b8dfc"/>
        <path id="Trazado_185126" data-name="Trazado 185126" d="M.035,154.006C4.373,77.87,55.859,5.175,125.587.667c80.088-6.959,153.6,42.859,233.376,43.386,40.68,3.956,78.83-13.712,118.473-19.417,89.538-3.728,103.18,115.624,86.481,192.555C493.494,579.873-4.841,530.528.035,154.006Z" transform="translate(1243.283 2373.271) rotate(-171)" fill="#3c3fa7" opacity="0.388" style="mix-blend-mode: multiply;isolation: isolate"/>
        <path id="Trazado_185127" data-name="Trazado 185127" d="M.035,154.006C4.373,77.87,55.859,5.175,125.587.667c80.088-6.959,153.6,42.859,233.376,43.386,40.68,3.956,78.83-13.712,118.473-19.417,89.538-3.728,103.18,115.624,86.481,192.555C493.494,579.873-4.841,530.528.035,154.006Z" transform="matrix(0.995, 0.105, -0.105, 0.995, -14.178, 2176.616)" fill="#3c3fa7" opacity="0.388" style="mix-blend-mode: multiply;isolation: isolate"/>
      </g>
    </g>
    <rect id="Rectángulo_45314" data-name="Rectángulo 45314" width="1030" height="37" transform="translate(285 2449.719)" fill="#6b8dfc" opacity="0.563"/>
    <g id="Enmascarar_grupo_317" data-name="Enmascarar grupo 317" transform="translate(0 133)" clip-path="url(#clip-path-2)">
      <g id="Grupo_175774" data-name="Grupo 175774" transform="translate(306.409 1963.333)">
        <g id="Grupo_175737" data-name="Grupo 175737" transform="translate(189.691 138.397)">
          <g id="Grupo_175731" data-name="Grupo 175731" transform="translate(106.031)">
            <g id="Grupo_175706" data-name="Grupo 175706" transform="translate(50.864)">
              <path id="Trazado_185930" data-name="Trazado 185930" d="M372,159.833v30.488a16.747,16.747,0,0,1-16.747,16.747h-2.824l-2.576,4.08H317l11.165-17.391Z" transform="translate(-309.893 -127.822)" fill="#f2c9ad"/>
              <path id="Trazado_185931" data-name="Trazado 185931" d="M373.662,172.846l-7.568,10.467v11.272A11.593,11.593,0,0,1,354.5,206.179H334.314a11.617,11.617,0,0,1-9.828-5.431c-20.824-33.106-15.439-58.154,7.63-54.793C351.923,117.291,402.486,151.429,373.662,172.846Z" transform="translate(-311.483 -134.984)" fill="#6a3649"/>
              <path id="Trazado_185932" data-name="Trazado 185932" d="M358.385,167.658l-4.51,6.238v10.95a3.128,3.128,0,0,0,3.615,2.253c1.3-.381,2.4-1.691,3.282-3.175a17.308,17.308,0,0,0,2.316-6.609,13.3,13.3,0,0,0-.947-7.222C361.156,168.059,360.049,167.658,358.385,167.658Z" transform="translate(-299.265 -125.567)" fill="#f2c9ad"/>
              <g id="Grupo_175705" data-name="Grupo 175705" transform="translate(56.27 42.025)">
                <path id="Trazado_185933" data-name="Trazado 185933" d="M356.478,187.524a3.077,3.077,0,0,1-1.109-.214.322.322,0,0,1,.233-.6,2.249,2.249,0,0,0,1.426.094c1.036-.3,2.077-1.324,3.1-3.032a17,17,0,0,0,2.272-6.484,13.018,13.018,0,0,0-.917-7.04,3.615,3.615,0,0,0-1.867-2.02.322.322,0,1,1,.231-.6,4.2,4.2,0,0,1,2.217,2.341,13.514,13.514,0,0,1,.975,7.4,17.659,17.659,0,0,1-2.359,6.732c-1.121,1.877-2.256,2.963-3.468,3.318A2.556,2.556,0,0,1,356.478,187.524Z" transform="translate(-355.163 -167.607)" fill="#422c4f"/>
              </g>
            </g>
            <g id="Grupo_175719" data-name="Grupo 175719" transform="translate(3.724 207.853)">
              <g id="Grupo_175711" data-name="Grupo 175711" transform="translate(23.803 30.488)">
                <g id="Grupo_175708" data-name="Grupo 175708" transform="translate(5.331 129.681)">
                  <g id="Grupo_175707" data-name="Grupo 175707" transform="translate(0 0.001)">
                    <path id="Trazado_185934" data-name="Trazado 185934" d="M332.564,431.628a29.162,29.162,0,0,1-4.921-8.6l-.858-2.359H300.026l-2.08,21.256h40.087A29.125,29.125,0,0,0,332.564,431.628Z" transform="translate(-297.379 -420.667)" fill="#454f6b"/>
                    <path id="Trazado_185935" data-name="Trazado 185935" d="M338.16,437.167H298.073l-.567,5.8h41.859l-.412-2.419A28.843,28.843,0,0,0,338.16,437.167Z" transform="translate(-297.506 -415.911)" fill="#fff"/>
                  </g>
                  <path id="Trazado_185936" data-name="Trazado 185936" d="M326.5,420.667H299.74l-.8,8.2Z" transform="translate(-297.093 -420.667)" fill="#422c4f"/>
                </g>
                <g id="Grupo_175710" data-name="Grupo 175710">
                  <g id="Grupo_175709" data-name="Grupo 175709">
                    <path id="Trazado_185937" data-name="Trazado 185937" d="M350.9,320,340.6,449.681H293.367l10.1-104.346Z" transform="translate(-293.367 -320)" fill="#984058"/>
                  </g>
                  <path id="Trazado_185938" data-name="Trazado 185938" d="M344.063,384.841l-44.846-13,2.566-26.5L349.216,320Z" transform="translate(-291.681 -320)" fill="#472948"/>
                </g>
              </g>
              <g id="Grupo_175715" data-name="Grupo 175715">
                <g id="Grupo_175713" data-name="Grupo 175713" transform="translate(106.42 160.169)">
                  <g id="Grupo_175712" data-name="Grupo 175712" transform="translate(0 0)">
                    <path id="Trazado_185939" data-name="Trazado 185939" d="M399.162,433.064h0a25.017,25.017,0,0,1-10.773-10.084l-1.322-2.312H363.019l-4.555,21.256H409.15A24.994,24.994,0,0,0,399.162,433.064Z" transform="translate(-357.222 -420.667)" fill="#454f6b"/>
                    <path id="Trazado_185940" data-name="Trazado 185940" d="M409.428,437.167H358.742l-1.242,5.8H412.25l-.075-.22A24.919,24.919,0,0,0,409.428,437.167Z" transform="translate(-357.5 -415.911)" fill="#fff"/>
                  </g>
                  <path id="Trazado_185941" data-name="Trazado 185941" d="M386.44,420.667H362.393l-1.756,8.2Z" transform="translate(-356.596 -420.667)" fill="#422c4f"/>
                </g>
                <g id="Grupo_175714" data-name="Grupo 175714">
                  <path id="Trazado_185942" data-name="Trazado 185942" d="M358.994,296.333,410.36,319.06a27.052,27.052,0,0,1,16.022,26.883L417.6,456.5h-47.23l10.1-104.346-30.3-3.388H274.89V296.333Z" transform="translate(-274.89 -296.333)" fill="#984058"/>
                  <path id="Trazado_185943" data-name="Trazado 185943" d="M357,339.667h33.048l-2.06,1.525a35.53,35.53,0,0,1-31.658,5.386h0Z" transform="translate(-251.418 -283.843)" fill="#472948"/>
                </g>
              </g>
              <g id="Grupo_175716" data-name="Grupo 175716" transform="translate(100.73 146.966)">
                <path id="Trazado_185944" data-name="Trazado 185944" d="M390.979,411.061H353.405a.322.322,0,1,1,0-.644h37.574a.322.322,0,1,1,0,.644Z" transform="translate(-353.083 -410.417)" fill="#422c4f"/>
              </g>
              <g id="Grupo_175717" data-name="Grupo 175717" transform="translate(29.379 146.966)">
                <path id="Trazado_185945" data-name="Trazado 185945" d="M335.592,411.061H298.018a.322.322,0,1,1,0-.644h37.574a.322.322,0,1,1,0,.644Z" transform="translate(-297.696 -410.417)" fill="#422c4f"/>
              </g>
              <g id="Grupo_175718" data-name="Grupo 175718" transform="translate(135.942 64.004)">
                <path id="Trazado_185946" data-name="Trazado 185946" d="M380.739,437.137h-.028a.323.323,0,0,1-.292-.349l7.943-90.474a.314.314,0,0,1,.348-.292.321.321,0,0,1,.294.348l-7.943,90.476A.322.322,0,0,1,380.739,437.137Z" transform="translate(-380.417 -346.017)" fill="#422c4f"/>
              </g>
            </g>
            <g id="Grupo_175730" data-name="Grupo 175730" transform="translate(0 79.246)">
              <g id="Grupo_175720" data-name="Grupo 175720" transform="translate(164.465 0.573)">
                <path id="Trazado_185947" data-name="Trazado 185947" d="M411.207,229.964l-11.54-20.5h0A6.152,6.152,0,0,1,406.882,211l3.519,4.039Z" transform="translate(-399.667 -193.501)" fill="#eba58e"/>
                <path id="Trazado_185948" data-name="Trazado 185948" d="M404.625,240.333l5.153-6.924L407.2,218.272c-.24-11.988,4.965-18.264,7.64-20.689a2.412,2.412,0,0,1,2.986-.223l.03.019a2.424,2.424,0,0,1,.612,3.366,27.191,27.191,0,0,0-4.344,12.051,29.51,29.51,0,0,1,9.964-11.349,2.388,2.388,0,0,1,2.768.1l7.165,5.429a2.389,2.389,0,0,1,.388,3.449,35.055,35.055,0,0,0-5.632,10.428c2.576,10.145-2.254,16.908-4.348,18.035l-8.373,13.365Z" transform="translate(-398.238 -196.944)" fill="#f2c9ad"/>
              </g>
              <g id="Grupo_175721" data-name="Grupo 175721">
                <path id="Trazado_185949" data-name="Trazado 185949" d="M272,231.282h0A44.585,44.585,0,0,1,315.493,196.5h43.489a43.8,43.8,0,0,1,40.641,27.467l16.658,41.452,24.047-27.912c17.176.859,20.181,18.465,20.181,18.465l-33.026,42.2a20.612,20.612,0,0,1-35.046-4.286l-14.8-33.084L364.108,330.69c-20.4,12.023-80.088,9.018-92.109,2.576Z" transform="translate(-271.999 -196.5)" fill="#7ce3f3"/>
                <path id="Trazado_185950" data-name="Trazado 185950" d="M354,253.429l6.066-31.34,1.266,47.728Z" transform="translate(-248.364 -189.125)" fill="#468097"/>
                <path id="Trazado_185951" data-name="Trazado 185951" d="M384,250.866l7.449,18.535.711-9.827a15.88,15.88,0,0,0-4.823-12.581h0Z" transform="translate(-239.718 -181.946)" fill="#468097"/>
              </g>
              <g id="Grupo_175722" data-name="Grupo 175722" transform="translate(185.723 7.956)">
                <path id="Trazado_185952" data-name="Trazado 185952" d="M416.491,213.306a.316.316,0,0,1-.151-.039.322.322,0,0,1-.134-.435,32.208,32.208,0,0,1,8.389-10.087.322.322,0,1,1,.4.5,31.551,31.551,0,0,0-8.219,9.885A.323.323,0,0,1,416.491,213.306Z" transform="translate(-416.169 -202.676)" fill="#422c4f"/>
              </g>
              <g id="Grupo_175723" data-name="Grupo 175723" transform="translate(191.111 11.684)">
                <path id="Trazado_185953" data-name="Trazado 185953" d="M420.674,213.915a.321.321,0,0,1-.276-.488,35.238,35.238,0,0,1,6.377-7.773.322.322,0,0,1,.435.475,34.6,34.6,0,0,0-6.262,7.631A.322.322,0,0,1,420.674,213.915Z" transform="translate(-420.352 -205.57)" fill="#422c4f"/>
              </g>
              <g id="Grupo_175724" data-name="Grupo 175724" transform="translate(173.698 25.048)">
                <path id="Trazado_185954" data-name="Trazado 185954" d="M407.156,230.922a.321.321,0,0,1-.258-.514l1.9-2.558-1.961-11.53a.32.32,0,0,1,.263-.371.313.313,0,0,1,.371.263l1.985,11.666a.318.318,0,0,1-.059.246l-1.985,2.669A.319.319,0,0,1,407.156,230.922Z" transform="translate(-406.834 -215.944)" fill="#422c4f"/>
              </g>
              <g id="Grupo_175725" data-name="Grupo 175725" transform="translate(94.836 32.642)">
                <path id="Trazado_185955" data-name="Trazado 185955" d="M345.939,307.959a.254.254,0,0,1-.062-.006.321.321,0,0,1-.255-.376L362.166,222.1a.322.322,0,1,1,.633.121L346.255,307.7A.323.323,0,0,1,345.939,307.959Z" transform="translate(-345.616 -221.839)" fill="#422c4f"/>
              </g>
              <g id="Grupo_175726" data-name="Grupo 175726" transform="translate(131.147 36.714)">
                <path id="Trazado_185956" data-name="Trazado 185956" d="M394.387,276.063a.325.325,0,0,1-.3-.2l-20.261-50.417a.322.322,0,1,1,.6-.24l20.262,50.418a.323.323,0,0,1-.3.442Z" transform="translate(-373.804 -225)" fill="#422c4f"/>
              </g>
              <g id="Grupo_175727" data-name="Grupo 175727" transform="translate(143.96 52.218)">
                <path id="Trazado_185957" data-name="Trazado 185957" d="M384.072,254.059a.322.322,0,0,1-.245-.532l14.114-16.381a.322.322,0,0,1,.487.42l-14.113,16.381A.317.317,0,0,1,384.072,254.059Z" transform="translate(-383.75 -237.035)" fill="#422c4f"/>
              </g>
              <g id="Grupo_175728" data-name="Grupo 175728" transform="translate(44.137 112.385)">
                <path id="Trazado_185958" data-name="Trazado 185958" d="M331.644,299.036a.277.277,0,0,1-.091-.014,62.355,62.355,0,0,1-25.194-14.73.322.322,0,1,1,.447-.462,61.723,61.723,0,0,0,24.931,14.576.322.322,0,0,1-.093.63Z" transform="translate(-306.261 -283.74)" fill="#422c4f"/>
              </g>
              <g id="Grupo_175729" data-name="Grupo 175729" transform="translate(61.381 30.788)">
                <path id="Trazado_185959" data-name="Trazado 185959" d="M319.969,225.38a.322.322,0,0,1-.106-.626l12.438-4.335a.321.321,0,0,1,.213.607l-12.439,4.336A.3.3,0,0,1,319.969,225.38Z" transform="translate(-319.647 -220.4)" fill="#422c4f"/>
              </g>
            </g>
          </g>
          <g id="Grupo_175736" data-name="Grupo 175736" transform="translate(0 86.975)">
            <path id="Trazado_185960" data-name="Trazado 185960" d="M382.224,393.135a23.189,23.189,0,0,0-22.9-19.929l-6.567-.018a10.3,10.3,0,0,1-10.084-8.317L321.443,256.94a67.464,67.464,0,0,0-66.194-54.44h-21.37l3.4,3.406a48.973,48.973,0,0,0-30.066,55l22.454,114.143a29.63,29.63,0,0,0,29.073,23.909H383.05Z" transform="translate(-184.909 -202.5)" fill="#495375"/>
            <path id="Trazado_185961" data-name="Trazado 185961" d="M213.083,375.045,190.628,260.9a48.953,48.953,0,0,1,48.033-58.4h0a67.462,67.462,0,0,1,66.193,54.44l23.234,118.1a29.628,29.628,0,0,0,29.071,23.909h-115A29.628,29.628,0,0,1,213.083,375.045Z" transform="translate(-189.691 -202.5)" fill="#797c99"/>
            <g id="Grupo_175732" data-name="Grupo 175732" transform="translate(40.011 196.454)">
              <path id="Trazado_185962" data-name="Trazado 185962" d="M237.129,355H230.8L229.1,370.186l6.74-3.641Z" transform="translate(-218.342 -355)" fill="#422c4f"/>
              <path id="Trazado_185963" data-name="Trazado 185963" d="M231.509,367.6l-10.759,96.46h6.334l11.165-100.1Z" transform="translate(-220.75 -352.417)" fill="#99a3b0"/>
            </g>
            <g id="Grupo_175733" data-name="Grupo 175733" transform="translate(95.084 196.454)">
              <path id="Trazado_185964" data-name="Trazado 185964" d="M274.448,366.293,263.5,464.44h6.334l11.353-101.788Z" transform="translate(-263.501 -352.795)" fill="#99a3b0"/>
              <path id="Trazado_185965" data-name="Trazado 185965" d="M279.839,355H273.5L272,368.5l6.74-3.641Z" transform="translate(-261.052 -355)" fill="#422c4f"/>
            </g>
            <g id="Grupo_175734" data-name="Grupo 175734" transform="translate(131.371 196.454)">
              <path id="Trazado_185966" data-name="Trazado 185966" d="M298,355h-6.334l1.545,13.854,5.974-3.228Z" transform="translate(-291.669 -355)" fill="#422c4f"/>
              <path id="Trazado_185967" data-name="Trazado 185967" d="M310.11,464.268l-11.268-101.02-5.974,3.227,10.908,97.792Z" transform="translate(-291.323 -352.623)" fill="#99a3b0"/>
            </g>
            <g id="Grupo_175735" data-name="Grupo 175735" transform="translate(186.444 196.454)">
              <path id="Trazado_185968" data-name="Trazado 185968" d="M340.755,355h-6.334l1.441,12.923,5.974-3.228Z" transform="translate(-334.421 -355)" fill="#422c4f"/>
              <path id="Trazado_185969" data-name="Trazado 185969" d="M352.885,464.477,341.514,362.526l-5.974,3.228,11.011,98.723Z" transform="translate(-334.098 -352.831)" fill="#99a3b0"/>
            </g>
          </g>
        </g>
        <g id="Grupo_175773" data-name="Grupo 175773" transform="translate(499.509 53.145)">
          <g id="Grupo_175766" data-name="Grupo 175766">
            <g id="Grupo_175739" data-name="Grupo 175739" transform="translate(173.924 68.331)">
              <path id="Trazado_185970" data-name="Trazado 185970" d="M600.534,219.293l11.432-14.643a15.184,15.184,0,0,1,11.966-5.838l-2.5-.442A5.151,5.151,0,0,1,617.461,195l-6.573-18.808-19.377,10.279,2.837,14.938a5.153,5.153,0,0,1-.73,3.753l-11.841,18.371.223.108A15.181,15.181,0,0,0,600.534,219.293Z" transform="translate(-560.425 -176.188)" fill="#f2c9ad"/>
              <path id="Trazado_185971" data-name="Trazado 185971" d="M643.094,336.118,628.709,193.75a15.184,15.184,0,0,0-11.966,5.838L605.31,214.233a15.181,15.181,0,0,1-18.534,4.343l-.223-.108L567.3,248.344a12.654,12.654,0,0,0-.575,12.972,23.385,23.385,0,0,0,3.871,5.1,22.731,22.731,0,0,1,5.979,20.306l-5.4,28.44Z" transform="translate(-565.202 -171.126)" fill="#fc5f65"/>
              <path id="Trazado_185972" data-name="Trazado 185972" d="M591.155,196.06c15.633-4.945,18.083-14.741,17.556-19.872l-19.377,10.279Z" transform="translate(-558.247 -176.188)" fill="#422c4f"/>
              <path id="Trazado_185973" data-name="Trazado 185973" d="M619.144,216.1l-2.257,64.253a14.169,14.169,0,0,1-13.64,13.664l-30.835,1.135-2.579,13.57,71.927,20.953L630.283,216.1Z" transform="translate(-563.867 -164.684)" fill="#f14b52"/>
              <g id="Grupo_175738" data-name="Grupo 175738" transform="translate(18.639 88.281)">
                <path id="Trazado_185974" data-name="Trazado 185974" d="M596.02,256.258a.327.327,0,0,1-.079-.01,29.188,29.188,0,0,1-16.21-11.019.322.322,0,0,1,.523-.377A28.532,28.532,0,0,0,596.1,255.624a.322.322,0,0,1-.08.634Z" transform="translate(-579.671 -244.717)" fill="#422c4f"/>
              </g>
            </g>
            <g id="Grupo_175744" data-name="Grupo 175744" transform="translate(179.676)">
              <path id="Trazado_185975" data-name="Trazado 185975" d="M619.416,145.992a31.315,31.315,0,0,1,28.014-22.816c4.769-.232,9.894.837,13.225,4.258,2.819,2.892,3.955,7.043,4.313,11.065.633,7.129-.844,14.263-2.461,21.235s-3.389,14-3.362,21.153,2.077,14.606,7.127,19.676c-13.153,2.193-26.977-4.35-34.837-15.121S616.086,158.9,619.416,145.992Z" transform="translate(-555.562 -123.145)" fill="#eba25d"/>
              <path id="Trazado_185976" data-name="Trazado 185976" d="M580.155,172.707A32.068,32.068,0,0,1,572,154.65a24.828,24.828,0,0,1,1.865-13.037,17.263,17.263,0,0,1,9.346-9.028,13.287,13.287,0,0,1,12.643,1.706,29.714,29.714,0,0,1,39.885,9.471c5.068,7.88,6.069,18.018,3.575,27.049-2.387,8.638-8.337,16.728-16.832,19.584-7.307,2.455-15.5.75-22.3-2.87S585.359,178.393,580.155,172.707Z" transform="translate(-569.044 -121.099)" fill="#eba25d"/>
              <g id="Grupo_175740" data-name="Grupo 175740" transform="translate(48.282 9.616)">
                <path id="Trazado_185977" data-name="Trazado 185977" d="M612.3,190.61a.321.321,0,0,1-.1-.626c7.667-2.578,14.038-10,16.626-19.363,2.576-9.327,1.255-19.341-3.535-26.79A29.27,29.27,0,0,0,607.4,131.246a.323.323,0,0,1,.146-.629,29.922,29.922,0,0,1,18.288,12.865c4.888,7.6,6.239,17.808,3.615,27.309-2.645,9.569-9.173,17.158-17.041,19.8A.314.314,0,0,1,612.3,190.61Z" transform="translate(-607.147 -130.61)" fill="#422c4f"/>
              </g>
              <g id="Grupo_175742" data-name="Grupo 175742" transform="translate(0 27.938)">
                <path id="Trazado_185978" data-name="Trazado 185978" d="M589.848,144.833h0a34.913,34.913,0,0,0-12.458,20.831l-.638,3.432-7.085,11.379h7.514l1.06,11.139a10.946,10.946,0,0,0,7.172,9.253h0a10.952,10.952,0,0,0,8.21-.309l14.522-6.527a9.018,9.018,0,0,0,5.322-8.225v-6.834c-2.53-1.092-5.91-2.95-7.049-5.458a11.342,11.342,0,0,1-.468-8.068C598.892,161.027,592.7,152.655,589.848,144.833Z" transform="translate(-569.667 -144.833)" fill="#f2c9ad"/>
                <g id="Grupo_175741" data-name="Grupo 175741" transform="translate(41.378 25.173)">
                  <path id="Trazado_185979" data-name="Trazado 185979" d="M607.665,165.344a7.364,7.364,0,0,1,4.308-.925,4.667,4.667,0,0,1,3.59,2.366,6.381,6.381,0,0,1,.224,4.25,17.374,17.374,0,0,1-3.07,6.668,9.913,9.913,0,0,1-4.09,3.392,5.4,5.4,0,0,1-5.132-.453c-2.457-1.816-1.7-5.483-1.163-8.019A10.724,10.724,0,0,1,607.665,165.344Z" transform="translate(-601.787 -164.374)" fill="#f2c9ad"/>
                  <path id="Trazado_185980" data-name="Trazado 185980" d="M605.8,178.379a2.3,2.3,0,0,1-1.351-.386c-1.136-.84-.557-3.594-.174-5.416a8.165,8.165,0,0,1,4.018-5.533,5.2,5.2,0,0,1,2.378-.67,2.959,2.959,0,0,1,.4.026,2.121,2.121,0,0,1,1.618.975,4.06,4.06,0,0,1,.005,2.526,14.824,14.824,0,0,1-2.613,5.677,7.373,7.373,0,0,1-2.989,2.548A3.521,3.521,0,0,1,605.8,178.379Z" transform="translate(-601.211 -163.798)" fill="#eba58e"/>
                </g>
              </g>
              <g id="Grupo_175743" data-name="Grupo 175743" transform="translate(10.893 44.381)">
                <path id="Trazado_185981" data-name="Trazado 185981" d="M585.989,157.758A9.178,9.178,0,0,1,592.5,162.7l-14.378-2.726A9.182,9.182,0,0,1,585.989,157.758Z" transform="translate(-578.123 -157.597)" fill="#422c4f"/>
              </g>
              <circle id="Elipse_4883" data-name="Elipse 4883" cx="2.198" cy="2.198" r="2.198" transform="translate(15.18 51.144)" fill="#422c4f"/>
              <path id="Trazado_185982" data-name="Trazado 185982" d="M590.549,177.508a29.617,29.617,0,0,0-12.9,0,6.8,6.8,0,0,0,2.868,3.659,5.763,5.763,0,0,0,4.18.872C586.9,181.641,588.981,179.1,590.549,177.508Z" transform="translate(-567.366 -107.682)" fill="#fff"/>
            </g>
            <g id="Grupo_175751" data-name="Grupo 175751" transform="translate(155.17 90.954)">
              <g id="Grupo_175745" data-name="Grupo 175745" transform="translate(0 72.749)">
                <path id="Trazado_185983" data-name="Trazado 185983" d="M550.644,291.687l84.433,24.6a21.9,21.9,0,0,0,27.989-22.294l-2.539-43.769-29.554,4.223,2.254,37.842-62.135-7.832a21.9,21.9,0,0,0-14.932,3.536l-5.516,3.7" transform="translate(-550.644 -250.222)" fill="#f2c9ad"/>
                <path id="Trazado_185984" data-name="Trazado 185984" d="M613,254.445l29.554-4.223.663,11.425c-12.72,3.1-29.84-.872-29.84-.872Z" transform="translate(-532.672 -250.222)" fill="#422c4f"/>
              </g>
              <path id="Trazado_185985" data-name="Trazado 185985" d="M616.364,193.75h0a25.852,25.852,0,0,1,25.611,22.334l7.239,52.705c-14.815,6.763-37.55,6.441-37.55,6.441l-3.53-52.687a44.185,44.185,0,0,1,7.617-27.9Z" transform="translate(-534.103 -193.75)" fill="#fc5f65"/>
              <g id="Grupo_175746" data-name="Grupo 175746" transform="translate(82.261)">
                <path id="Trazado_185986" data-name="Trazado 185986" d="M614.5,193.75" transform="translate(-614.5 -193.75)" fill="none" stroke="#422c4f" stroke-linecap="round" stroke-linejoin="round" stroke-width="0.5"/>
              </g>
              <g id="Grupo_175747" data-name="Grupo 175747" transform="translate(73.609 12.665)">
                <path id="Trazado_185987" data-name="Trazado 185987" d="M611.2,264.674a.321.321,0,0,1-.321-.3l-2.991-44.641a44.353,44.353,0,0,1,1.825-15.921.327.327,0,0,1,.4-.215.322.322,0,0,1,.215.4,43.75,43.75,0,0,0-1.8,15.691l2.991,44.642a.322.322,0,0,1-.3.343Z" transform="translate(-607.784 -203.582)" fill="#422c4f"/>
              </g>
              <g id="Grupo_175748" data-name="Grupo 175748" transform="translate(107.549 22.013)">
                <path id="Trazado_185988" data-name="Trazado 185988" d="M640.252,253.7a.323.323,0,0,1-.32-.278l-5.8-42.214a.322.322,0,0,1,.276-.363.316.316,0,0,1,.363.274l5.8,42.215a.324.324,0,0,1-.276.363Z" transform="translate(-634.131 -210.838)" fill="#422c4f"/>
              </g>
              <g id="Grupo_175749" data-name="Grupo 175749" transform="translate(32.225 108.184)">
                <path id="Trazado_185989" data-name="Trazado 185989" d="M637.441,286.12l-.04,0-61.46-7.746a.324.324,0,0,1-.279-.361.315.315,0,0,1,.359-.28l61.46,7.747a.322.322,0,0,1-.04.642Z" transform="translate(-575.659 -277.729)" fill="#422c4f"/>
              </g>
              <g id="Grupo_175750" data-name="Grupo 175750" transform="translate(90.154 68.265)">
                <path id="Trazado_185990" data-name="Trazado 185990" d="M620.949,252.4a.322.322,0,0,1-.055-.639,24.9,24.9,0,0,0,11.117-4.953.322.322,0,0,1,.4.506A25.543,25.543,0,0,1,621,252.4.278.278,0,0,1,620.949,252.4Z" transform="translate(-620.627 -246.742)" fill="#422c4f"/>
              </g>
            </g>
            <g id="Grupo_175756" data-name="Grupo 175756" transform="translate(0 195.257)">
              <g id="Grupo_175753" data-name="Grupo 175753" transform="translate(0 115.583)">
                <g id="Grupo_175752" data-name="Grupo 175752" transform="translate(0 0)">
                  <path id="Trazado_185991" data-name="Trazado 185991" d="M481.932,404.4l2.777-11.718,7.928-19.511-21.482-8.728-4.317,10.624a18.264,18.264,0,0,1-10.521,10.217,23.957,23.957,0,0,1,1.122,9.166Z" transform="translate(-422.661 -364.439)" fill="#f2c9ad"/>
                  <path id="Trazado_185992" data-name="Trazado 185992" d="M464.969,389.783a23.957,23.957,0,0,0-1.122-9.166,18.381,18.381,0,0,1-2.454.747l-2.017.446a18.269,18.269,0,0,1-7.805.025l-3.257-.7a18.279,18.279,0,0,0-18.123,6.45l56.691,23.032,2.58-10.882Z" transform="translate(-430.191 -359.776)" fill="#e68799"/>
                </g>
                <path id="Trazado_185993" data-name="Trazado 185993" d="M468.052,364.439l21.483,8.728-3.031,7.459-19.422-13.8Z" transform="translate(-419.558 -364.439)" fill="#422c4f"/>
              </g>
              <path id="Trazado_185994" data-name="Trazado 185994" d="M462.205,381.6,504.13,297.25l33.268,17.1-26.29,88.86Z" transform="translate(-420.964 -268.221)" fill="#4893d8"/>
              <path id="Trazado_185995" data-name="Trazado 185995" d="M663.4,312.782,536.982,275.954a30.918,30.918,0,0,0-36.333,15.922l-5.9,11.868L587.5,351.409h40.852a34.782,34.782,0,0,0,34.729-32.872Z" transform="translate(-411.584 -274.716)" fill="#4893d8"/>
              <g id="Grupo_175754" data-name="Grupo 175754" transform="translate(130.416 2.472)">
                <path id="Trazado_185996" data-name="Trazado 185996" d="M613.883,301.205a.32.32,0,0,1-.091-.013L531.66,277.266a.322.322,0,1,1,.182-.618l82.132,23.926a.322.322,0,0,1-.09.631Z" transform="translate(-531.428 -276.635)" fill="#422c4f"/>
              </g>
              <g id="Grupo_175755" data-name="Grupo 175755" transform="translate(225.849 30.272)">
                <path id="Trazado_185997" data-name="Trazado 185997" d="M631.477,306.332a.313.313,0,0,1-.09-.013l-25.646-7.472a.322.322,0,1,1,.182-.618l25.645,7.47a.323.323,0,0,1-.09.633Z" transform="translate(-605.509 -298.216)" fill="#422c4f"/>
              </g>
            </g>
            <g id="Grupo_175765" data-name="Grupo 175765" transform="translate(47.096 238.119)">
              <g id="Grupo_175757" data-name="Grupo 175757" transform="translate(21.578 0.323)">
                <path id="Trazado_185998" data-name="Trazado 185998" d="M525.54,308.239,511,310.876a27.054,27.054,0,0,0-22.188,25.186L483.5,436.109h57.648l-8.373-90.176,57.97-4.187Z" transform="translate(-483.5 -308.239)" fill="#4893d8"/>
                <path id="Trazado_185999" data-name="Trazado 185999" d="M512.834,309.009s41.727,34.741,41.681,34.743l27.775-2.006-65.2-33.508Z" transform="translate(-475.045 -308.239)" fill="#377fb5"/>
              </g>
              <g id="Grupo_175762" data-name="Grupo 175762" transform="translate(23.092)">
                <g id="Grupo_175758" data-name="Grupo 175758" transform="translate(5.176)">
                  <path id="Trazado_186000" data-name="Trazado 186000" d="M489.015,328.326a.3.3,0,0,1-.115-.021.322.322,0,0,1-.186-.415,27.519,27.519,0,0,1,20.726-17.26l14.544-2.637a.319.319,0,0,1,.375.259.323.323,0,0,1-.259.375l-14.544,2.637a26.875,26.875,0,0,0-20.241,16.854A.321.321,0,0,1,489.015,328.326Z" transform="translate(-488.694 -307.988)" fill="#422c4f"/>
                </g>
                <g id="Grupo_175759" data-name="Grupo 175759" transform="translate(47.438 34.273)">
                  <path id="Trazado_186001" data-name="Trazado 186001" d="M521.822,338.66a.322.322,0,0,1-.023-.643l47.329-3.418a.308.308,0,0,1,.343.3.321.321,0,0,1-.3.344l-47.328,3.418Z" transform="translate(-521.5 -334.593)" fill="#422c4f"/>
                </g>
                <g id="Grupo_175760" data-name="Grupo 175760" transform="translate(0 33.509)">
                  <path id="Trazado_186002" data-name="Trazado 186002" d="M485,394.375h-.018a.323.323,0,0,1-.3-.34l3.169-59.731a.323.323,0,0,1,.322-.3h.017a.324.324,0,0,1,.305.34l-3.169,59.731A.323.323,0,0,1,485,394.375Z" transform="translate(-484.676 -334)" fill="#422c4f"/>
                </g>
                <g id="Grupo_175761" data-name="Grupo 175761" transform="translate(46.21 24.468)">
                  <path id="Trazado_186003" data-name="Trazado 186003" d="M526.071,383.651a.323.323,0,0,1-.321-.292l-5.2-56.021a.323.323,0,0,1,.29-.352.315.315,0,0,1,.352.291l5.2,56.021a.323.323,0,0,1-.291.352Z" transform="translate(-520.547 -326.982)" fill="#422c4f"/>
                </g>
              </g>
              <g id="Grupo_175764" data-name="Grupo 175764" transform="translate(0 128.193)">
                <g id="Grupo_175763" data-name="Grupo 175763">
                  <path id="Trazado_186004" data-name="Trazado 186004" d="M519.845,440.462l-1.837-11.9V407.5H494.82v11.468a18.261,18.261,0,0,1-5.9,13.426,23.941,23.941,0,0,1,4.489,8.068Z" transform="translate(-460.36 -407.5)" fill="#f2c9ad"/>
                  <path id="Trazado_186005" data-name="Trazado 186005" d="M499.8,434.892a23.941,23.941,0,0,0-4.489-8.068,18.228,18.228,0,0,1-1.993,1.615l-1.7,1.172a18.261,18.261,0,0,1-7.223,2.96l-3.281.576a18.273,18.273,0,0,0-14.361,12.8h61.191l-1.706-11.053Z" transform="translate(-466.75 -401.93)" fill="#e68799"/>
                </g>
                <path id="Trazado_186006" data-name="Trazado 186006" d="M493.5,407.5h23.188v8.051L493.5,410.076Z" transform="translate(-459.04 -407.5)" fill="#422c4f"/>
              </g>
            </g>
          </g>
          <g id="Grupo_175772" data-name="Grupo 175772" transform="translate(166.351 98.952)">
            <g id="Grupo_175767" data-name="Grupo 175767" transform="translate(127.713 196.455)">
              <path id="Trazado_186007" data-name="Trazado 186007" d="M658.462,352.458H664.8l1.694,15.186L659.749,364Z" transform="translate(-658.462 -352.458)" fill="#422c4f"/>
              <path id="Trazado_186008" data-name="Trazado 186008" d="M666.2,365.061l10.759,96.46h-6.334l-11.165-100.1Z" transform="translate(-658.174 -349.876)" fill="#99a3b0"/>
            </g>
            <g id="Grupo_175768" data-name="Grupo 175768" transform="translate(79.151 196.455)">
              <path id="Trazado_186009" data-name="Trazado 186009" d="M628.359,363.752,639.306,461.9h-6.334L621.619,360.111Z" transform="translate(-620.519 -350.253)" fill="#99a3b0"/>
              <path id="Trazado_186010" data-name="Trazado 186010" d="M620.765,352.458H627.1l1.506,13.5-6.74-3.641Z" transform="translate(-620.765 -352.458)" fill="#422c4f"/>
            </g>
            <g id="Grupo_175769" data-name="Grupo 175769" transform="translate(53.901 196.455)">
              <path id="Trazado_186011" data-name="Trazado 186011" d="M611.1,352.458h6.334l-1.545,13.854-5.974-3.227Z" transform="translate(-598.643 -352.458)" fill="#422c4f"/>
              <path id="Trazado_186012" data-name="Trazado 186012" d="M601.164,461.727l11.268-101.02,5.974,3.227L607.5,461.727Z" transform="translate(-601.164 -350.081)" fill="#99a3b0"/>
            </g>
            <g id="Grupo_175770" data-name="Grupo 175770" transform="translate(1.646 196.455)">
              <path id="Trazado_186013" data-name="Trazado 186013" d="M570.51,352.458h6.334L575.4,365.381l-5.974-3.228Z" transform="translate(-558.057 -352.458)" fill="#422c4f"/>
              <path id="Trazado_186014" data-name="Trazado 186014" d="M560.6,461.935l11.372-101.951,5.974,3.228-11.011,98.723Z" transform="translate(-560.601 -350.289)" fill="#99a3b0"/>
            </g>
            <g id="Grupo_175771" data-name="Grupo 175771">
              <path id="Trazado_186015" data-name="Trazado 186015" d="M729.7,210.01V199.958H708.063a53.489,53.489,0,0,0-52.482,43.163L633.956,353.049a20.613,20.613,0,0,1-20.224,16.634H586.054a26.73,26.73,0,0,0-26.731,26.731H679.508A29.629,29.629,0,0,0,708.579,372.5L735.871,233.77A28.2,28.2,0,0,0,729.7,210.01Z" transform="translate(-559.323 -199.958)" fill="#797c99"/>
              <path id="Trazado_186016" data-name="Trazado 186016" d="M716.274,372.5,743.566,233.77a28.342,28.342,0,0,0-27.808-33.812h0a53.489,53.489,0,0,0-52.482,43.163L637.824,372.5a29.631,29.631,0,0,1-29.073,23.911H687.2A29.629,29.629,0,0,0,716.274,372.5Z" transform="translate(-545.377 -199.958)" fill="#495375"/>
            </g>
          </g>
        </g>
      </g>
    </g>
    <path id="Trazado_185128" data-name="Trazado 185128" d="M246.99,57.991H395.337l7.722,8.351.222-8.351h5.407a7.4,7.4,0,0,0,7.4-7.4V14.29a7.4,7.4,0,0,0-7.4-7.4H246.99a7.4,7.4,0,0,0-7.4,7.4v36.3a7.4,7.4,0,0,0,7.4,7.4" transform="translate(259.13 2167.202)" fill="#fff"/>
    <g id="Grupo_175490" data-name="Grupo 175490" transform="translate(587.813 2142.719)">
      <path id="Trazado_184979" data-name="Trazado 184979" d="M689.806,139.524H541.459l-7.722,8.351-.222-8.351h-5.407a7.4,7.4,0,0,1-7.4-7.4v-36.3a7.4,7.4,0,0,1,7.4-7.4h161.7a7.4,7.4,0,0,1,7.4,7.4v36.3a7.4,7.4,0,0,1-7.4,7.4" transform="translate(-3.519 -74.64)" fill="#fff"/>
    </g>
  </g>
</svg>
