<svg xmlns="http://www.w3.org/2000/svg" width="91.285" height="98.173" viewBox="0 0 91.285 98.173">
  <g id="Grupo_176443" data-name="Grupo 176443" transform="translate(-501.14 -284.138)">
    <path id="Rectángulo_45885" data-name="Rectángulo 45885" d="M29.342,0h32.6A29.343,29.343,0,0,1,91.285,29.343v32.6A29.341,29.341,0,0,1,61.944,91.284h-32.6A29.341,29.341,0,0,1,0,61.943v-32.6A29.342,29.342,0,0,1,29.342,0Z" transform="translate(501.14 286.813)" fill="#d68119"/>
    <g id="Grupo_176442" data-name="Grupo 176442" transform="translate(509.198 284.138)">
      <path id="Trazado_186928" data-name="Trazado 186928" d="M553.946,427.207H516.372c-.435-19.214,14.348-30.368,27.042-34.53a65.3,65.3,0,0,0,.766-12.314h19.532a65.291,65.291,0,0,0,.768,12.314c12.694,4.162,27.477,15.317,27.042,34.53Z" transform="translate(-516.362 -329.427)" fill="#e4ae7c" fill-rule="evenodd"/>
      <path id="Trazado_186929" data-name="Trazado 186929" d="M588.461,389.482c-1.222,2.337-5.485,4.568-9.9,4.6-4.263.035-8.677-2.044-9.9-4.292.123-1.763.163-3.423.17-4.7h19.475C588.318,386.3,588.354,387.836,588.461,389.482Z" transform="translate(-540.98 -331.652)" fill="#d67f54" fill-rule="evenodd"/>
      <path id="Trazado_186930" data-name="Trazado 186930" d="M543,350.308c-.092-1.005-4.2-2.192-5.57,1.1s1.1,7.944,5.752,8.31,3.288-.457,3.288-.457Z" transform="translate(-526.101 -314.781)" fill="#e4ae7c" fill-rule="evenodd"/>
      <path id="Trazado_186931" data-name="Trazado 186931" d="M553.946,437.43H516.372c-.353-15.572,9.292-25.85,19.717-31.4q.74-.376,1.4-.714a46.371,46.371,0,0,1,5.927-2.414c.051-.268.1-.54.145-.815a26.179,26.179,0,0,0,20.818.249c.033.19.067.38.1.566a46.308,46.308,0,0,1,5.853,2.378c.477.248.991.509,1.536.784,10.4,5.56,20,15.827,19.653,31.367H553.946Z" transform="translate(-516.362 -339.651)" fill="#575756" fill-rule="evenodd"/>
      <path id="Trazado_186932" data-name="Trazado 186932" d="M623.372,350.308c.091-1.005,4.2-2.192,5.57,1.1s-1.1,7.944-5.753,8.31-3.287-.457-3.287-.457Z" transform="translate(-565.005 -314.781)" fill="#e4ae7c" fill-rule="evenodd"/>
      <path id="Trazado_186933" data-name="Trazado 186933" d="M566.925,341.805c-24.23.583-36.463-59.168,0-57.638C603.388,282.637,591.156,342.388,566.925,341.805Z" transform="translate(-529.341 -284.138)" fill="#e4ae7c" fill-rule="evenodd"/>
      <path id="Trazado_186934" data-name="Trazado 186934" d="M629.94,356.143a.263.263,0,0,1-.526,0,2.555,2.555,0,0,0-.359-1.573.627.627,0,0,0-.489-.243,1.429,1.429,0,0,0-.715.22,4.718,4.718,0,0,0-1.8,2.121,9.89,9.89,0,0,0-.448,1.219,1.86,1.86,0,0,1,1.224-.355,1.169,1.169,0,0,1,.566.2.925.925,0,0,1,.353.5,1.72,1.72,0,0,1-.362,1.421.262.262,0,0,1-.436-.291,1.248,1.248,0,0,0,.3-.98.414.414,0,0,0-.156-.22.642.642,0,0,0-.311-.108,1.446,1.446,0,0,0-1.12.472.565.565,0,0,1-.267.167.287.287,0,0,1-.379-.254l0-.014a.9.9,0,0,1,.007-.306,8.222,8.222,0,0,1,.557-1.659,5.283,5.283,0,0,1,2.019-2.367,1.945,1.945,0,0,1,.985-.288,1.131,1.131,0,0,1,.885.437A3.01,3.01,0,0,1,629.94,356.143Z" transform="translate(-567.493 -316.926)" fill="#d67f54" fill-rule="evenodd"/>
      <path id="Trazado_186935" data-name="Trazado 186935" d="M540.92,356.143a.263.263,0,0,1-.526,0,3.01,3.01,0,0,1,.479-1.9,1.131,1.131,0,0,1,.885-.437,1.946,1.946,0,0,1,.984.288,5.279,5.279,0,0,1,2.018,2.367,8.191,8.191,0,0,1,.557,1.659.922.922,0,0,1,.008.306l0,.014a.287.287,0,0,1-.38.254.564.564,0,0,1-.267-.167,1.445,1.445,0,0,0-1.12-.472.645.645,0,0,0-.311.108.412.412,0,0,0-.156.22,1.246,1.246,0,0,0,.295.98.262.262,0,1,1-.435.291,1.72,1.72,0,0,1-.363-1.421.932.932,0,0,1,.353-.5,1.169,1.169,0,0,1,.565-.2,1.862,1.862,0,0,1,1.225.355,9.88,9.88,0,0,0-.448-1.219,4.724,4.724,0,0,0-1.8-2.121,1.436,1.436,0,0,0-.716-.22.627.627,0,0,0-.489.243A2.551,2.551,0,0,0,540.92,356.143Z" transform="translate(-527.673 -316.926)" fill="#d67f54" fill-rule="evenodd"/>
      <path id="Trazado_186936" data-name="Trazado 186936" d="M535.515,447.967a.392.392,0,1,1,.785.006l-.1,10.872a.392.392,0,1,1-.785-.005Z" transform="translate(-525.331 -361.062)" fill="#383546" fill-rule="evenodd"/>
      <path id="Trazado_186937" data-name="Trazado 186937" d="M637.74,447.967a.393.393,0,1,1,.786.006l-.1,10.872a.393.393,0,1,1-.785-.005Z" transform="translate(-573.444 -361.062)" fill="#383546" fill-rule="evenodd"/>
      <path id="Trazado_186938" data-name="Trazado 186938" d="M545.042,339.051c.319-1.256.852-4.887.882-4.321.571,11.042,4.9,18.286,8.881,21.459,3.937,3.133-2.189-7.765,12.242-7.618.135,0,.266,0,.4,0s.262,0,.4,0c14.432-.147,8.306,10.751,12.242,7.618,3.985-3.173,8.31-10.417,8.881-21.459.03-.566.563,3.065.882,4.321-2.277,13.757-11.014,26.812-22.4,26.538C556.056,365.862,547.319,352.807,545.042,339.051Z" transform="translate(-529.861 -307.922)" fill="#784928" fill-rule="evenodd"/>
      <path id="Trazado_186939" data-name="Trazado 186939" d="M545.378,319.282a17.409,17.409,0,0,0,.447-4.976c-.044-3.223,4.421-4.81,3.888-9.428-1.565-13.552,8.936-8.96,17.214-8.958V284.167h0C545.922,283.285,541.078,302.74,545.378,319.282Z" transform="translate(-529.343 -284.138)" fill="#784928" fill-rule="evenodd"/>
      <path id="Trazado_186940" data-name="Trazado 186940" d="M608.985,318.99a23.223,23.223,0,0,1-.52-4.684c-.123-3.221-4.42-4.81-3.887-9.428,1.564-13.552-8.936-8.96-17.215-8.958V284.167C608.246,283.291,613.152,302.512,608.985,318.99Z" transform="translate(-549.779 -284.138)" fill="#784928" fill-rule="evenodd"/>
      <path id="Trazado_186941" data-name="Trazado 186941" d="M568.92,340.32a2.171,2.171,0,1,1-3.034.487A2.165,2.165,0,0,1,568.92,340.32Z" transform="translate(-539.476 -310.387)" fill="#20201e" fill-rule="evenodd"/>
      <path id="Trazado_186942" data-name="Trazado 186942" d="M602.2,340.32a2.171,2.171,0,1,0,3.035.487A2.166,2.166,0,0,0,602.2,340.32Z" transform="translate(-556.337 -310.387)" fill="#20201e" fill-rule="evenodd"/>
      <path id="Trazado_186943" data-name="Trazado 186943" d="M562.3,354.837c1.237.95,1.291,2.34.12,3.106a4.049,4.049,0,0,1-4.358-.332c-1.237-.949-1.291-2.34-.121-3.106A4.052,4.052,0,0,1,562.3,354.837Z" transform="translate(-535.537 -317.026)" fill="#da9077" fill-rule="evenodd"/>
      <path id="Trazado_186944" data-name="Trazado 186944" d="M607.2,354.837c-1.237.95-1.292,2.34-.121,3.106a4.05,4.05,0,0,0,4.358-.332c1.237-.949,1.291-2.34.12-3.106A4.05,4.05,0,0,0,607.2,354.837Z" transform="translate(-558.66 -317.026)" fill="#da9077" fill-rule="evenodd"/>
      <path id="Trazado_186945" data-name="Trazado 186945" d="M567.4,329.125c-.081-.036-.161-.068-.244-.1a6.271,6.271,0,0,0-2.773-.36,6.154,6.154,0,0,0-2.59.812c-.391.252-1.921,1.491-1.487,1.947a22.786,22.786,0,0,0,2.149-.875,6.067,6.067,0,0,1,2-.269,5.377,5.377,0,0,1,1.833.373c.017,0,.13.055.154.065,1.278.621,1.162,1.021,2.034.422C569.818,330.426,568.436,329.661,567.4,329.125Z" transform="translate(-537.009 -305.084)" fill="#3f2716" fill-rule="evenodd"/>
      <path id="Trazado_186946" data-name="Trazado 186946" d="M599.5,329.125c.081-.036.161-.068.244-.1a6.27,6.27,0,0,1,2.772-.36,6.148,6.148,0,0,1,2.59.812c.392.252,1.922,1.491,1.488,1.947a22.791,22.791,0,0,1-2.148-.875,6.075,6.075,0,0,0-2-.269,5.371,5.371,0,0,0-1.832.373c-.018,0-.13.055-.154.065-1.278.621-1.163,1.021-2.034.422C597.086,330.426,598.467,329.661,599.5,329.125Z" transform="translate(-554.726 -305.084)" fill="#3f2716" fill-rule="evenodd"/>
      <path id="Trazado_186947" data-name="Trazado 186947" d="M585.1,377.639a.261.261,0,0,1,.265-.451,2.581,2.581,0,0,0,1.282.317,2.471,2.471,0,0,0,1.258-.315.261.261,0,1,1,.271.447,2.983,2.983,0,0,1-1.529.393A3.1,3.1,0,0,1,585.1,377.639Z" transform="translate(-548.652 -327.916)" fill="#d67f54" fill-rule="evenodd"/>
      <path id="Trazado_186948" data-name="Trazado 186948" d="M586.756,354.042a.263.263,0,1,1,0-.525,12.822,12.822,0,0,0,1.966-.1c.478-.081.829-.211.829-.429,0-.756-.766-5.454-.768-5.467a.262.262,0,0,1,.518-.082c0,.014.776,4.761.776,5.549,0,.553-.538.822-1.27.945A13.06,13.06,0,0,1,586.756,354.042Z" transform="translate(-549.37 -313.825)" fill="#d67f54" fill-rule="evenodd"/>
      <path id="Trazado_186949" data-name="Trazado 186949" d="M561.646,331.2a7.767,7.767,0,1,1-5.491,2.275,7.74,7.74,0,0,1,5.491-2.275Zm4.562,3.2a6.452,6.452,0,1,0,1.889,4.562A6.431,6.431,0,0,0,566.208,334.4Z" transform="translate(-534.021 -306.287)" fill="#2e1e11" fill-rule="evenodd"/>
      <path id="Trazado_186950" data-name="Trazado 186950" d="M599.273,331.2a7.767,7.767,0,1,1-5.49,2.275,7.743,7.743,0,0,1,5.49-2.275Zm4.562,3.2a6.452,6.452,0,1,0,1.889,4.562A6.429,6.429,0,0,0,603.835,334.4Z" transform="translate(-551.73 -306.287)" fill="#2e1e11" fill-rule="evenodd"/>
      <path id="Trazado_186951" data-name="Trazado 186951" d="M550.263,344.64a.523.523,0,0,1,.353.985l-4.625,1.666a.523.523,0,0,1-.353-.986Z" transform="translate(-529.978 -312.599)" fill="#2e1e11" fill-rule="evenodd"/>
      <path id="Trazado_186952" data-name="Trazado 186952" d="M619.107,345.626a.523.523,0,0,1,.353-.985l4.625,1.666a.523.523,0,0,1-.353.986Z" transform="translate(-564.556 -312.599)" fill="#2e1e11" fill-rule="evenodd"/>
      <path id="Trazado_186953" data-name="Trazado 186953" d="M581.33,342.9a.524.524,0,1,1-.895-.546s.89-1.511,3.631-1.511,3.629,1.508,3.632,1.511a.524.524,0,0,1-.9.546s-.59-1.007-2.737-1.007S581.332,342.894,581.33,342.9Z" transform="translate(-546.483 -310.825)" fill="#2e1e11" fill-rule="evenodd"/>
      <path id="Trazado_186954" data-name="Trazado 186954" d="M588.275,364.813c-3.3,1.224-13.325,1.2-16.437.148C573.558,371.227,586.6,371.128,588.275,364.813Z" transform="translate(-542.472 -322.108)" fill="#fff" fill-rule="evenodd"/>
      <path id="Trazado_186955" data-name="Trazado 186955" d="M548.175,296.269A15.56,15.56,0,0,0,554.44,296c3.447-1.823,7.238.518,14.479.458,3.312,0,12.111-.722,15.158-4.3,1.514-1.779.718,1.311-2.226,3.317,1.746.649,5.706,1.381,7.848.879-3.115-7.447-9.692-12.652-20.78-12.187h0C557.874,283.7,551.3,288.867,548.175,296.269Z" transform="translate(-531.335 -284.138)" fill="#231a11" fill-rule="evenodd"/>
      <path id="Trazado_186956" data-name="Trazado 186956" d="M561.638,404.7a.788.788,0,0,1,1.576,0,28.415,28.415,0,0,0,4.016,14.13c2.184,3.568,5.039,6.047,8.025,6.047,3.046,0,5.947-2.419,8.141-6a28.115,28.115,0,0,0,3.9-14.173.788.788,0,0,1,1.576,0,29.746,29.746,0,0,1-4.134,14.992c-2.472,4.038-5.839,6.761-9.484,6.761-3.594,0-6.91-2.789-9.368-6.8A30.057,30.057,0,0,1,561.638,404.7Z" transform="translate(-537.672 -340.51)" fill="#d57b19" fill-rule="evenodd"/>
    </g>
  </g>
</svg>
