<svg xmlns="http://www.w3.org/2000/svg" xmlns:xlink="http://www.w3.org/1999/xlink" width="400" height="568.554" viewBox="0 0 400 568.554">
  <defs>
    <clipPath id="clip-path">
      <rect id="Rectángulo_42953" data-name="Rectángulo 42953" width="400" height="568.155" rx="11" transform="translate(0 111)" fill="#a6bbff"/>
    </clipPath>
  </defs>
  <g id="Grupo_177622" data-name="Grupo 177622" transform="translate(-1020 -4008.898)">
    <g id="Grupo_175852" data-name="Grupo 175852" transform="translate(855.477 2560.952)">
      <g id="Enmascarar_grupo_243" data-name="Enmascarar grupo 243" transform="translate(164.523 1336.946)" clip-path="url(#clip-path)">
        <g id="Grupo_170223" data-name="Grupo 170223" transform="translate(-375.4 -238.754)">
          <rect id="Rectángulo_42952" data-name="Rectángulo 42952" width="433.336" height="860.926" rx="11" transform="translate(359.525 227.643)" fill="#f0f4ff"/>
          <g id="Grupo_170222" data-name="Grupo 170222" transform="translate(178.256 211.327)">
            <path id="Trazado_165129" data-name="Trazado 165129" d="M560.1,146.368C555.84,74.008,505.252,4.919,436.739.633,358.046-5.981,285.816,41.367,207.43,41.868c-39.971,3.76-77.456-13.032-116.408-18.454C3.044,19.871-10.36,133.3,6.048,206.42,75.244,551.116,564.893,504.217,560.1,146.368Z" transform="matrix(-0.602, 0.799, -0.799, -0.602, 689.593, 265.623)" fill="#e1e8ff"/>
            <path id="Trazado_165130" data-name="Trazado 165130" d="M.026,111.544C3.167,56.4,40.457,3.749,90.961.483c58.006-5.04,111.249,31.042,169.03,31.424,29.464,2.865,57.1-9.932,85.808-14.064,64.851-2.7,74.731,83.745,62.637,139.464C357.429,419.992-3.506,384.252.026,111.544Z" transform="translate(292.786 764.911) rotate(-81)" fill="#a6bbff" opacity="0.388" style="mix-blend-mode: multiply;isolation: isolate"/>
          </g>
        </g>
      </g>
    </g>
    <g id="Grupo_89883" data-name="Grupo 89883" transform="translate(992.652 3646.979)">
      <g id="Speech_Bubble" data-name="Speech Bubble" transform="translate(145.572 654.016)">
        <g id="Grupo_89613" data-name="Grupo 89613">
          <g id="Grupo_89605" data-name="Grupo 89605">
            <g id="Grupo_89604" data-name="Grupo 89604">
              <g id="Grupo_89603" data-name="Grupo 89603">
                <g id="Grupo_89602" data-name="Grupo 89602">
                  <g id="Grupo_89601" data-name="Grupo 89601">
                    <g id="Grupo_89600" data-name="Grupo 89600">
                      <g id="Grupo_89594" data-name="Grupo 89594" transform="translate(0.17 0.179)">
                        <g id="Grupo_89593" data-name="Grupo 89593">
                          <g id="Grupo_89592" data-name="Grupo 89592">
                            <g id="Grupo_89591" data-name="Grupo 89591">
                              <path id="Trazado_122663" data-name="Trazado 122663" d="M212.179,717.294l-9.294-1.084a29.886,29.886,0,1,1,6.023-8.851l.011-.013Z" transform="translate(-151.809 -665.42)" fill="#fff"/>
                            </g>
                          </g>
                        </g>
                      </g>
                      <g id="Grupo_89599" data-name="Grupo 89599">
                        <g id="Grupo_89598" data-name="Grupo 89598">
                          <g id="Grupo_89597" data-name="Grupo 89597">
                            <g id="Grupo_89596" data-name="Grupo 89596">
                              <g id="Grupo_89595" data-name="Grupo 89595">
                                <path id="Trazado_122664" data-name="Trazado 122664" d="M212.1,717.206s-.083-.227-.23-.657-.365-1.076-.646-1.907c-.565-1.679-1.394-4.146-2.472-7.355l.161.03-.011.013a.093.093,0,0,1-.157-.1,29.826,29.826,0,0,0,2.414-14.5,29.28,29.28,0,0,0-.742-4.54,33.512,33.512,0,0,0-1.586-4.656,29.628,29.628,0,0,0-56.614,7.783,30.178,30.178,0,0,0,1.371,13.566,29.193,29.193,0,0,0,6.748,10.926,29.744,29.744,0,0,0,20.391,8.992l1.273.016a8.087,8.087,0,0,0,1.251-.04l2.434-.215a41.149,41.149,0,0,0,4.522-.992,29.738,29.738,0,0,0,12.537-7.516.088.088,0,0,1,.074-.026l6.877.858,1.788.228c.4.052.619.086.619.086s-.191-.013-.584-.054l-1.767-.186-6.953-.756.073-.026a29.712,29.712,0,0,1-12.584,7.657,41.106,41.106,0,0,1-4.56,1.022l-2.458.228a8.141,8.141,0,0,1-1.263.045l-1.286-.011a30.023,30.023,0,0,1-20.655-9.043,29.535,29.535,0,0,1-6.855-11.06,30.554,30.554,0,0,1-1.4-13.753,29.845,29.845,0,0,1,5.286-13.473,13.244,13.244,0,0,1,1.1-1.445l1.153-1.4,1.273-1.277a12.306,12.306,0,0,1,1.315-1.216l1.378-1.137c.448-.391.971-.678,1.452-1.02.495-.322.967-.677,1.478-.967l1.549-.831a29.586,29.586,0,0,1,13.128-3.348,30.118,30.118,0,0,1,22.277,9.24,29.828,29.828,0,0,1,5.931,9.016,33.7,33.7,0,0,1,1.584,4.711,29.357,29.357,0,0,1,.728,4.588,29.83,29.83,0,0,1-2.524,14.6l-.158-.1.011-.013a.092.092,0,0,1,.13-.015.1.1,0,0,1,.031.044l2.382,7.455c.261.825.461,1.455.6,1.894C212.038,717,212.1,717.206,212.1,717.206Z" transform="translate(-151.556 -665.153)" fill="#263238"/>
                              </g>
                            </g>
                          </g>
                        </g>
                      </g>
                    </g>
                  </g>
                </g>
              </g>
            </g>
          </g>
          <g id="Grupo_89612" data-name="Grupo 89612" transform="translate(15.857 19.142)">
            <g id="Grupo_89611" data-name="Grupo 89611">
              <g id="Grupo_89610" data-name="Grupo 89610">
                <g id="Grupo_89609" data-name="Grupo 89609">
                  <g id="Grupo_89608" data-name="Grupo 89608">
                    <g id="Grupo_89607" data-name="Grupo 89607">
                      <g id="Grupo_89606" data-name="Grupo 89606">
                        <path id="Trazado_122665" data-name="Trazado 122665" d="M175.175,705.676l3.675-3.934,7.559,6.272,13.931-14.349L204,697.349l-17.887,18.02Z" transform="translate(-175.175 -693.665)" fill="#fc5f65"/>
                      </g>
                    </g>
                  </g>
                </g>
              </g>
            </g>
          </g>
        </g>
      </g>
      <g id="Character" transform="translate(133.348 631.266)">
        <g id="Grupo_89882" data-name="Grupo 89882">
          <g id="Grupo_89615" data-name="Grupo 89615" transform="translate(129.588 153.46)">
            <g id="Grupo_89614" data-name="Grupo 89614">
              <path id="Trazado_122666" data-name="Trazado 122666" d="M334.2,860.115a43.975,43.975,0,0,1-7.828-.15,43.99,43.99,0,0,1,7.828.15Z" transform="translate(-326.374 -859.85)" fill="#263238"/>
            </g>
          </g>
          <g id="Grupo_89664" data-name="Grupo 89664">
            <g id="Grupo_89617" data-name="Grupo 89617" transform="translate(13.191 136.983)">
              <g id="Grupo_89616" data-name="Grupo 89616">
                <path id="Trazado_122667" data-name="Trazado 122667" d="M153.025,849.024s2.6,14.754,5.064,17.888,4.061,12.9,4.061,12.9l20.159-7.258-1.352-7.406,1.226-18.682s-6.9-11.513-6.631-11.12S153.025,849.024,153.025,849.024Z" transform="translate(-153.006 -835.315)" fill="#ffbf9d"/>
                <path id="Trazado_122668" data-name="Trazado 122668" d="M162.127,879.823l0-.02c-.016-.1-1.623-9.793-4.057-12.888-1.276-1.621-2.585-6.4-3.46-10.126-.947-4.033-1.6-7.732-1.608-7.769l0-.011.01-.005c.056-.033,5.708-3.329,11.282-6.646,9.74-5.8,11.23-6.885,11.238-7.012l0-.005,0,0h0c-.007-.019,0-.021,0-.026s.024,0,.03.015a.028.028,0,0,1,.005.016c.3.54,6.562,11,6.626,11.105l0,0v.005l-1.226,18.682,1.355,7.416-.013,0Zm-9.093-30.8c.086.485,2.654,14.811,5.059,17.869,1.275,1.621,2.312,5.044,2.957,7.63.666,2.667,1.063,5.014,1.1,5.254l20.127-7.247-1.35-7.392,1.225-18.681c-.077-.128-1.713-2.859-3.325-5.555-.965-1.615-1.733-2.9-2.283-3.825-.327-.548-.579-.974-.75-1.263-.147-.25-.22-.373-.254-.436C174.9,836.268,154.072,848.42,153.035,849.024Z" transform="translate(-152.997 -835.306)" fill="#ff9a6c"/>
              </g>
            </g>
            <g id="Grupo_89618" data-name="Grupo 89618" transform="translate(16.544 144.463)">
              <path id="Trazado_122669" data-name="Trazado 122669" d="M221.053,846.449s-10.413,3.193-12.021,14.155c-.744,5.071-8.345,51.825-8.345,51.825L188.911,879l-30.92,11.467s11.259,34.644,11.955,36.676c5.786,16.89,10.6,40.69,36.9,38.035,27.366-2.762,22.224-55.925,22.224-55.925Z" transform="translate(-157.991 -846.449)" fill="#455a64"/>
            </g>
            <g id="Grupo_89623" data-name="Grupo 89623" transform="translate(0 9.459)">
              <g id="Grupo_89622" data-name="Grupo 89622">
                <g id="Grupo_89619" data-name="Grupo 89619" transform="translate(0.098 1.012)">
                  <rect id="Rectángulo_35279" data-name="Rectángulo 35279" width="245.504" height="2.435" transform="translate(0 159.987) rotate(-40.667)" fill="#e0e0e0"/>
                </g>
                <g id="Grupo_89621" data-name="Grupo 89621">
                  <g id="Grupo_89620" data-name="Grupo 89620">
                    <path id="Trazado_122670" data-name="Trazado 122670" d="M135.035,808.2a2,2,0,0,1,.244-.244l.72-.653,2.82-2.491,10.828-9.44L189.432,760.9c33.588-29.056,79.944-69.072,131.348-113.235l-.077,1.01-1.58-1.838-.007-.009,1.01.076c-97.6,83.856-177.995,152.557-186.633,159.5l.007-.1,1.243,1.513a3.033,3.033,0,0,1,.29.381c0,.012-.067-.053-.305-.312l-1.335-1.49-.046-.051.054-.049c8.166-7.494,88.192-76.625,185.792-160.481l.543-.467.467.544.008.009,1.579,1.838.467.543-.544.467C270.092,693.112,223.342,733.091,189.58,761.9L149.638,795.93,138.8,805.1l-2.813,2.349A10.172,10.172,0,0,1,135.035,808.2Z" transform="translate(-133.348 -645.355)" fill="#263238"/>
                  </g>
                </g>
              </g>
            </g>
            <g id="Grupo_89644" data-name="Grupo 89644" transform="translate(12.75 125.834)">
              <g id="Grupo_89624" data-name="Grupo 89624" transform="translate(17.679)">
                <path id="Trazado_122671" data-name="Trazado 122671" d="M183.424,818.874c.194.119,2.912,2.816,5.53,4.893s3.432,2.234,4.156,5.394,1.914,13.356,1.611,15.636-8.094,17.078-8.094,17.078-7.424,2.714-7.933-7.146,8.027-16.087,8.027-16.087l-1.142-7.586s-4.138-3.951-4.6-7.116S181.938,817.962,183.424,818.874Z" transform="translate(-178.672 -818.7)" fill="#ffbf9d"/>
              </g>
              <g id="Grupo_89641" data-name="Grupo 89641" transform="translate(0 5.612)">
                <g id="Grupo_89628" data-name="Grupo 89628" transform="translate(0 13.176)">
                  <g id="Grupo_89625" data-name="Grupo 89625" transform="translate(0.168 0.104)">
                    <path id="Trazado_122672" data-name="Trazado 122672" d="M158.356,847.5c-3.246-1.636-4.7.157-5.268,1.2a4.9,4.9,0,0,0-.317,3.5,7.935,7.935,0,0,0,1.592,2.932,5.343,5.343,0,0,0,3.516,2.293c1.394.1,3.088-1.649,3.265-3.314" transform="translate(-152.59 -846.841)" fill="#ffbf9d"/>
                  </g>
                  <g id="Grupo_89627" data-name="Grupo 89627">
                    <g id="Grupo_89626" data-name="Grupo 89626">
                      <path id="Trazado_122673" data-name="Trazado 122673" d="M161.061,854.059c.012,0,.011.08,0,.232a2.811,2.811,0,0,1-.152.645,4.407,4.407,0,0,1-1.427,1.961,2.694,2.694,0,0,1-1.6.622,3.7,3.7,0,0,1-1.868-.6,7.354,7.354,0,0,1-1.606-1.421,10.3,10.3,0,0,1-1.32-1.875,5.63,5.63,0,0,1-.518-4.347,3.657,3.657,0,0,1,2.512-2.508,4.038,4.038,0,0,1,2.407.273,4.279,4.279,0,0,1,.594.284c.132.073.2.115.192.126a7.29,7.29,0,0,1-.832-.282,4.113,4.113,0,0,0-2.3-.16,3.426,3.426,0,0,0-2.264,2.365,5.381,5.381,0,0,0,.52,4.086,10.33,10.33,0,0,0,1.27,1.815,7.216,7.216,0,0,0,1.519,1.373,3.449,3.449,0,0,0,1.7.582,2.475,2.475,0,0,0,1.447-.529,4.535,4.535,0,0,0,1.448-1.813C161,854.372,161.028,854.054,161.061,854.059Z" transform="translate(-152.339 -846.685)" fill="#ff9a6c"/>
                    </g>
                  </g>
                </g>
                <g id="Grupo_89632" data-name="Grupo 89632" transform="translate(4.495 6.977)">
                  <g id="Grupo_89629" data-name="Grupo 89629" transform="translate(0.157 0.095)">
                    <path id="Trazado_122674" data-name="Trazado 122674" d="M164.791,838.041a6.014,6.014,0,0,0-2.759-.409,3.149,3.149,0,0,0-2.385,1.713,5.466,5.466,0,0,0-.343,2.787,15.37,15.37,0,0,0,5.3,10.7,2.343,2.343,0,0,0,2.91.066c.593-.434,1.165-1.057,1.622-3.656" transform="translate(-159.269 -837.593)" fill="#ffbf9d"/>
                  </g>
                  <g id="Grupo_89631" data-name="Grupo 89631">
                    <g id="Grupo_89630" data-name="Grupo 89630">
                      <path id="Trazado_122675" data-name="Trazado 122675" d="M169.058,849.2a.92.92,0,0,1-.018.288c-.023.187-.066.462-.141.813a7.735,7.735,0,0,1-.367,1.261,2.972,2.972,0,0,1-1.049,1.41,2.471,2.471,0,0,1-2.093.418,2.628,2.628,0,0,1-1.071-.575c-.315-.254-.622-.536-.928-.835a14.663,14.663,0,0,1-3.051-4.6A16.817,16.817,0,0,1,159.06,842a5.987,5.987,0,0,1,.24-2.43,3.164,3.164,0,0,1,1.361-1.646,3.367,3.367,0,0,1,1.694-.474,4.952,4.952,0,0,1,1.308.169,7.15,7.15,0,0,1,.787.252.85.85,0,0,1,.262.122c-.009.029-.386-.1-1.08-.241a3.815,3.815,0,0,0-2.843.383,2.922,2.922,0,0,0-1.218,1.533,5.768,5.768,0,0,0-.192,2.31,17.023,17.023,0,0,0,1.282,5.259,14.721,14.721,0,0,0,2.958,4.511c.295.3.591.573.895.825a2.346,2.346,0,0,0,.95.532,2.225,2.225,0,0,0,1.874-.338,2.805,2.805,0,0,0,1.012-1.286,8.7,8.7,0,0,0,.414-1.218A9.98,9.98,0,0,1,169.058,849.2Z" transform="translate(-159.035 -837.451)" fill="#ff9a6c"/>
                    </g>
                  </g>
                </g>
                <g id="Grupo_89636" data-name="Grupo 89636" transform="translate(9.658 2.873)">
                  <g id="Grupo_89633" data-name="Grupo 89633" transform="translate(0.16 0.106)">
                    <path id="Trazado_122676" data-name="Trazado 122676" d="M173.208,832.743a4.049,4.049,0,0,0-3.508-1.182,3.626,3.626,0,0,0-2.694,2.959,6.489,6.489,0,0,0,.294,2.612,51.306,51.306,0,0,0,3.228,8.846,4.717,4.717,0,0,0,1.247,1.809,2.568,2.568,0,0,0,3.115-.287c.938-.747,1.58-1.825,1.965-4.021" transform="translate(-166.964 -831.496)" fill="#ffbf9d"/>
                  </g>
                  <g id="Grupo_89635" data-name="Grupo 89635">
                    <g id="Grupo_89634" data-name="Grupo 89634">
                      <path id="Trazado_122677" data-name="Trazado 122677" d="M176.777,843.428a1.024,1.024,0,0,1-.023.31c-.027.2-.079.5-.167.871a7.071,7.071,0,0,1-.459,1.336A4.42,4.42,0,0,1,175,847.453a3.176,3.176,0,0,1-2.135.832,2.226,2.226,0,0,1-1.251-.42,3.429,3.429,0,0,1-.89-1.053,42.363,42.363,0,0,1-2.352-5.442c-.355-.988-.667-1.966-.944-2.917a19.672,19.672,0,0,1-.666-2.793,3.929,3.929,0,0,1,.518-2.574,3.8,3.8,0,0,1,1.727-1.506,3.231,3.231,0,0,1,1.88-.176,4.079,4.079,0,0,1,1.32.523,4.512,4.512,0,0,1,.713.536c.149.139.218.221.21.229-.022.028-.326-.28-.991-.646a4.12,4.12,0,0,0-1.287-.448,3.064,3.064,0,0,0-1.748.21,3.574,3.574,0,0,0-1.576,1.429,3.645,3.645,0,0,0-.446,2.387,20.175,20.175,0,0,0,.674,2.734c.28.944.592,1.914.945,2.9a45.28,45.28,0,0,0,2.3,5.4,3.153,3.153,0,0,0,.795.969,1.939,1.939,0,0,0,1.079.377,2.94,2.94,0,0,0,1.964-.731,5.333,5.333,0,0,0,1.615-2.691C176.67,843.841,176.749,843.422,176.777,843.428Z" transform="translate(-166.726 -831.339)" fill="#ff9a6c"/>
                    </g>
                  </g>
                </g>
                <g id="Grupo_89640" data-name="Grupo 89640" transform="translate(15.58)">
                  <g id="Grupo_89637" data-name="Grupo 89637" transform="translate(0.165 0.13)">
                    <path id="Trazado_122678" data-name="Trazado 122678" d="M183.335,832.216a19.661,19.661,0,0,1,1.22,4.859,6.944,6.944,0,0,1-1.024,4.695,2.773,2.773,0,0,1-3.8.857,5.578,5.578,0,0,1-1.649-2.443,41.133,41.133,0,0,1-1.768-5.551,13.165,13.165,0,0,1-.522-2.935,6.87,6.87,0,0,1,.421-2.809c.363-.894,2.265-2.416,4.017-1.157A9.593,9.593,0,0,1,183.335,832.216Z" transform="translate(-175.792 -827.253)" fill="#ffbf9d"/>
                  </g>
                  <g id="Grupo_89639" data-name="Grupo 89639">
                    <g id="Grupo_89638" data-name="Grupo 89638">
                      <path id="Trazado_122679" data-name="Trazado 122679" d="M183.254,832.153c-.032.012-.215-.508-.682-1.376a10.929,10.929,0,0,0-.979-1.5,7.039,7.039,0,0,0-1.684-1.619,2.391,2.391,0,0,0-2.6.115,2.735,2.735,0,0,0-1.027,1.1,5.654,5.654,0,0,0-.374,1.616,9.965,9.965,0,0,0,.375,3.58c.318,1.231.657,2.505,1.072,3.785a17.779,17.779,0,0,0,1.508,3.591,3.053,3.053,0,0,0,1.276,1.2,2.3,2.3,0,0,0,1.641.075,3.5,3.5,0,0,0,2.146-2.206,7.518,7.518,0,0,0,.461-2.791,16.094,16.094,0,0,0-.7-4.1l-.33-1.091a1.78,1.78,0,0,1-.1-.386,1.675,1.675,0,0,1,.168.362c.1.242.234.6.393,1.074a14.935,14.935,0,0,1,.822,4.131,7.645,7.645,0,0,1-.438,2.9,4.652,4.652,0,0,1-.837,1.434,3.375,3.375,0,0,1-1.483.976,2.625,2.625,0,0,1-1.873-.077,3.37,3.37,0,0,1-1.428-1.323,17.747,17.747,0,0,1-1.553-3.668c-.419-1.293-.756-2.572-1.071-3.81a13.881,13.881,0,0,1-.358-1.864,9.115,9.115,0,0,1-.006-1.83,5.938,5.938,0,0,1,.411-1.7,2.991,2.991,0,0,1,1.156-1.224,2.932,2.932,0,0,1,1.49-.469,2.5,2.5,0,0,1,1.389.388,7.041,7.041,0,0,1,1.713,1.713,10.193,10.193,0,0,1,.945,1.553,8.748,8.748,0,0,1,.448,1.055A1.694,1.694,0,0,1,183.254,832.153Z" transform="translate(-175.547 -827.06)" fill="#ff9a6c"/>
                    </g>
                  </g>
                </g>
              </g>
              <g id="Grupo_89643" data-name="Grupo 89643" transform="translate(17.582 12.356)">
                <g id="Grupo_89642" data-name="Grupo 89642">
                  <path id="Trazado_122680" data-name="Trazado 122680" d="M185.531,837.1a2.4,2.4,0,0,1,.131.542c.073.408.165.92.276,1.541l.888,5.478.02.124-.121.046a9.376,9.376,0,0,0-2.6,1.488,12.452,12.452,0,0,0-2.26,2.446,16.259,16.259,0,0,0-3.079,9.24,18.447,18.447,0,0,0,.064,3c.077.707.185,1.088.15,1.1a.92.92,0,0,1-.1-.271,6.286,6.286,0,0,1-.185-.807,15.58,15.58,0,0,1-.177-3.035,21.606,21.606,0,0,1,.619-4.469,12,12,0,0,1,.918-2.523,21.822,21.822,0,0,1,1.506-2.441,12.5,12.5,0,0,1,2.332-2.506,9.493,9.493,0,0,1,2.71-1.516l-.1.169c-.308-2.219-.569-4.1-.763-5.5l-.19-1.555A2.4,2.4,0,0,1,185.531,837.1Z" transform="translate(-178.528 -837.105)" fill="#ff9a6c"/>
                </g>
              </g>
            </g>
            <g id="Grupo_89646" data-name="Grupo 89646" transform="translate(59.233 210.443)">
              <g id="Grupo_89645" data-name="Grupo 89645">
                <path id="Trazado_122681" data-name="Trazado 122681" d="M225.87,969.751a5.427,5.427,0,0,1-.227-.973l-.5-2.675c-.418-2.323-.974-5.414-1.589-8.832-.614-3.451-1.141-6.582-1.489-8.854-.175-1.135-.308-2.056-.389-2.693a5.553,5.553,0,0,1-.093-.995,5.431,5.431,0,0,1,.227.973l.5,2.674c.418,2.324.974,5.415,1.589,8.834.614,3.451,1.141,6.581,1.489,8.852.175,1.136.307,2.056.389,2.693A5.561,5.561,0,0,1,225.87,969.751Z" transform="translate(-221.577 -944.729)" fill="#263238"/>
              </g>
            </g>
            <g id="Grupo_89650" data-name="Grupo 89650" transform="translate(14.98 168.509)">
              <g id="Grupo_89647" data-name="Grupo 89647" transform="translate(0.148 0.221)">
                <path id="Trazado_122682" data-name="Trazado 122682" d="M158.9,901.75l-3.016-10.264,28.009-8.891,2.559,8.833Z" transform="translate(-155.882 -882.595)" fill="#e0e0e0"/>
              </g>
              <g id="Grupo_89649" data-name="Grupo 89649">
                <g id="Grupo_89648" data-name="Grupo 89648">
                  <path id="Trazado_122683" data-name="Trazado 122683" d="M158.825,901.642a.915.915,0,0,1,.142-.064l.4-.162,1.549-.6,5.753-2.205,19.645-7.445-.1.2-2.564-8.831.221.117-.7.221-27.329,8.616.079-.147c.9,3.172,1.629,5.726,2.138,7.512l.572,2.052.146.54a1.42,1.42,0,0,1,.045.194.874.874,0,0,1-.06-.163l-.163-.512c-.149-.481-.356-1.151-.62-2.007l-2.287-7.548-.034-.111.112-.036,27.3-8.722.7-.221.171-.054.05.173c.885,3.063,1.744,6.036,2.553,8.834l.044.151-.147.054-19.814,7.338-5.747,2.1-1.53.551-.391.136A.581.581,0,0,1,158.825,901.642Z" transform="translate(-155.661 -882.266)" fill="#263238"/>
                </g>
              </g>
            </g>
            <g id="Grupo_89652" data-name="Grupo 89652" transform="translate(59.24 210.443)" opacity="0.3">
              <g id="Grupo_89651" data-name="Grupo 89651">
                <path id="Trazado_122684" data-name="Trazado 122684" d="M221.588,944.729c5.178,9.457,7.519,20.8,7.641,31.584.011.94-.306,2.2-1.246,2.181-.848-.02-1.184-1.092-1.283-1.934-1.207-10.178-3.9-21.654-5.112-31.831" transform="translate(-221.588 -944.729)"/>
              </g>
            </g>
            <g id="Grupo_89663" data-name="Grupo 89663" transform="translate(137.259)">
              <g id="Grupo_89656" data-name="Grupo 89656">
                <g id="Grupo_89653" data-name="Grupo 89653">
                  <path id="Trazado_122685" data-name="Trazado 122685" d="M460.11,688.17c-10.625-10.486-10.377-29.194-18.512-41.711-9.663-14.868-27.721-17.186-45.13-13.871a2.719,2.719,0,0,0-1.276.623l-56.444,49.11a2.716,2.716,0,0,0,2.385,4.7c12.147-2.692,27.456-2.142,35.6,6.436,8.28,8.726,14.727,32.977,21.435,43.066,10.643,16.006,22.747,27.108,44.207,28.767a2.7,2.7,0,0,0,2.121-.8l2.461-2.492c.052-.052.1-.108.15-.164,16.385-19.508,30.67-37.8,46.806-57.16a2.715,2.715,0,0,0-1.706-4.427C480.409,698.581,468.52,696.469,460.11,688.17Z" transform="translate(-337.801 -631.265)" fill="#fc5f65"/>
                </g>
                <g id="Grupo_89655" data-name="Grupo 89655" transform="translate(73.914 37.114)">
                  <g id="Grupo_89654" data-name="Grupo 89654">
                    <path id="Trazado_122686" data-name="Trazado 122686" d="M449.587,753.666a.692.692,0,0,1-.049-.177c-.028-.139-.064-.312-.108-.528-.092-.492-.22-1.174-.383-2.038q-.121-.669-.268-1.474c-.085-.541-.144-1.134-.226-1.768-.143-1.271-.37-2.713-.436-4.323q-.077-1.207-.16-2.523c-.05-.878-.027-1.794-.044-2.74-.06-1.9.07-3.917.167-6.045a83.22,83.22,0,0,1,6.366-26.859c.869-1.945,1.66-3.811,2.565-5.478.44-.839.83-1.667,1.27-2.429l1.275-2.183c.782-1.409,1.632-2.6,2.33-3.668.357-.53.677-1.033.995-1.479l.9-1.2,1.256-1.649.334-.423a.693.693,0,0,1,.123-.136.764.764,0,0,1-.095.158l-.306.444-1.2,1.686-.875,1.212c-.31.45-.62.957-.969,1.492-.681,1.08-1.514,2.272-2.279,3.685l-1.252,2.188c-.431.763-.814,1.592-1.247,2.43-.891,1.667-1.668,3.53-2.526,5.471a84.9,84.9,0,0,0-6.342,26.757c-.1,2.119-.246,4.133-.2,6.022.011.943-.019,1.856.023,2.731l.137,2.517c.05,1.607.26,3.046.383,4.316.072.634.122,1.227.2,1.768s.166,1.031.237,1.476c.135.868.241,1.552.318,2.046.03.218.055.394.074.534A.789.789,0,0,1,449.587,753.666Z" transform="translate(-447.899 -686.549)" fill="#263238"/>
                  </g>
                </g>
              </g>
              <g id="Grupo_89658" data-name="Grupo 89658" transform="translate(94.624 79.16)" opacity="0.3">
                <g id="Grupo_89657" data-name="Grupo 89657">
                  <path id="Trazado_122687" data-name="Trazado 122687" d="M521.058,761.463l-14.582-7.977c-3.783-2.07-7.752-4.192-12.063-4.3a15.473,15.473,0,0,0-13.515,8.158,19.7,19.7,0,0,0-.832,16.083,27.294,27.294,0,0,0,10.308,12.688,27.93,27.93,0,0,1,4.428,3.3,6.1,6.1,0,0,1,1.93,4.979l1.357.6,24.9-30.534Z" transform="translate(-478.747 -749.177)"/>
                </g>
              </g>
              <g id="Grupo_89660" data-name="Grupo 89660" transform="translate(19.391 4.031)">
                <g id="Grupo_89659" data-name="Grupo 89659">
                  <path id="Trazado_122688" data-name="Trazado 122688" d="M409.61,637.27a3.508,3.508,0,0,1-.4.419l-1.19,1.151c-1.038,1-2.554,2.422-4.441,4.168-3.773,3.5-9.044,8.261-14.972,13.4s-11.4,9.686-15.39,12.926c-2,1.621-3.622,2.92-4.754,3.806l-1.308,1.015a3.605,3.605,0,0,1-.471.335,3.641,3.641,0,0,1,.427-.39l1.267-1.066,4.683-3.89c3.953-3.288,9.389-7.86,15.318-13s11.22-9.874,15.034-13.321l4.516-4.086,1.235-1.1A3.572,3.572,0,0,1,409.61,637.27Z" transform="translate(-366.684 -637.269)" fill="#263238"/>
                </g>
              </g>
              <g id="Grupo_89662" data-name="Grupo 89662" transform="translate(17.232 6.494)" opacity="0.3">
                <g id="Grupo_89661" data-name="Grupo 89661">
                  <path id="Trazado_122689" data-name="Trazado 122689" d="M403.414,643.206l-39.945,34.311c13.326-7.627,29.378-18.289,42.436-36.578C405.7,641.161,403.616,642.985,403.414,643.206Z" transform="translate(-363.469 -640.939)"/>
                </g>
              </g>
            </g>
          </g>
          <g id="Grupo_89689" data-name="Grupo 89689" transform="translate(78.494 109.518)">
            <g id="Grupo_89665" data-name="Grupo 89665" transform="translate(18.95)">
              <path id="Trazado_122690" data-name="Trazado 122690" d="M357.3,876.406l-15.24-72.556-5.956-9.453L296.55,807.175s-2.861,5.838-2.854,6.54l-15.2,10.39,6.234,79.99-5.379,24.656,2.087,55.161h85.173Z" transform="translate(-278.495 -794.397)" fill="#e0e0e0"/>
            </g>
            <g id="Grupo_89666" data-name="Grupo 89666" transform="translate(0.535 21.547)">
              <path id="Trazado_122691" data-name="Trazado 122691" d="M280.553,826.492c-1,.666-29.487,13.661-29.487,13.661l7.365,116.906L253,994.635l23.862-.175s3.567-17.74,4.566-47.73S280.553,826.492,280.553,826.492Z" transform="translate(-251.066 -826.492)" fill="#455a64"/>
            </g>
            <g id="Grupo_89667" data-name="Grupo 89667" transform="translate(78.917 6.818)">
              <path id="Trazado_122692" data-name="Trazado 122692" d="M369.913,804.553s-3.474,125.16-1.474,133.824,11.3,48.872,11.3,48.872h51.658l-21.961-59.58,4.06-59.947-4.06-57.5-25.325-.666Z" transform="translate(-367.819 -804.553)" fill="#455a64"/>
            </g>
            <g id="Grupo_89669" data-name="Grupo 89669" transform="translate(0 51.978)">
              <g id="Grupo_89668" data-name="Grupo 89668">
                <path id="Trazado_122693" data-name="Trazado 122693" d="M250.272,871.82a1.458,1.458,0,0,1,.039.257c.019.188.046.438.079.757.062.687.151,1.665.265,2.916.22,2.533.521,6.2.863,10.733s.727,9.933,1.085,15.934c.177,3,.351,6.151.478,9.42s.164,6.656.371,10.115c.373,6.924.952,13.508,1.51,19.491s1.13,11.366,1.616,15.885c.5,4.5.9,8.154,1.18,10.7.138,1.248.245,2.225.321,2.91.032.319.057.57.076.757a1.449,1.449,0,0,1,.015.26,1.451,1.451,0,0,1-.05-.255c-.027-.187-.064-.436-.11-.753-.091-.683-.22-1.657-.386-2.9-.324-2.522-.772-6.173-1.291-10.689s-1.108-9.9-1.691-15.883-1.165-12.57-1.538-19.5c-.207-3.466-.228-6.857-.364-10.119s-.29-6.415-.458-9.415c-.34-6-.7-11.4-1.01-15.935-.317-4.52-.573-8.184-.753-10.74-.085-1.253-.152-2.234-.2-2.921-.019-.32-.034-.572-.044-.761A1.434,1.434,0,0,1,250.272,871.82Z" transform="translate(-250.268 -871.82)" fill="#263238"/>
              </g>
            </g>
            <g id="Grupo_89671" data-name="Grupo 89671" transform="translate(79.538 9.453)">
              <g id="Grupo_89670" data-name="Grupo 89670">
                <path id="Trazado_122694" data-name="Trazado 122694" d="M377.292,808.478a.848.848,0,0,1,.077.149l.2.45c.18.413.436,1,.769,1.764.659,1.551,1.6,3.834,2.713,6.768a199.249,199.249,0,0,1,7.56,24.783l.033.14-.138.042-4.579,1.408-.011-.308a5.521,5.521,0,0,1,2.8,1.705,7.774,7.774,0,0,1,1.627,2.946,14.027,14.027,0,0,1-.136,6.887c-1.084,4.559-2.209,9.3-3.365,14.162L373.53,916.519,370.061,930.8l-.96,3.878-.259,1.006c-.06.226-.1.34-.1.34s.016-.119.064-.348l.225-1.014c.208-.905.51-2.214.9-3.893l3.361-14.3c2.873-12.082,6.838-28.753,11.218-47.17,1.157-4.859,2.285-9.6,3.37-14.152a13.728,13.728,0,0,0,.152-6.72,7.466,7.466,0,0,0-1.551-2.822,5.2,5.2,0,0,0-2.63-1.613l-.573-.137.563-.171,4.583-1.4-.1.181a207.289,207.289,0,0,0-7.431-24.79c-1.086-2.941-2-5.233-2.632-6.795l-.726-1.782-.181-.459A.921.921,0,0,1,377.292,808.478Z" transform="translate(-368.743 -808.478)" fill="#263238"/>
              </g>
            </g>
            <g id="Grupo_89673" data-name="Grupo 89673" transform="translate(19.365 22.148)">
              <g id="Grupo_89672" data-name="Grupo 89672">
                <path id="Trazado_122695" data-name="Trazado 122695" d="M288.672,945.881s-.021-.111-.045-.328-.056-.554-.1-.967c-.08-.866-.2-2.117-.343-3.719-.3-3.229-.749-7.9-1.343-13.669-1.178-11.538-3-27.457-4.9-45.053-.5-4.7-.977-9.28-1.4-13.682a19.314,19.314,0,0,1,.05-6.509,7.046,7.046,0,0,1,1.423-2.834,4.92,4.92,0,0,1,2.6-1.67l.058.312-5.321.724-.234.032.068-.226c2.824-9.26,5.179-16.987,6.834-22.415l1.94-6.278.522-1.651.14-.422a.075.075,0,1,1,.023.008c-.03.109-.069.249-.117.428q-.168.587-.479,1.664c-.434,1.47-1.061,3.6-1.859,6.3-1.626,5.436-3.94,13.176-6.714,22.451l-.166-.194,5.318-.739.059.313a4.6,4.6,0,0,0-2.421,1.57,6.706,6.706,0,0,0-1.35,2.7,19.051,19.051,0,0,0-.032,6.4c.452,4.4.924,8.979,1.408,13.678,1.9,17.593,3.685,33.518,4.8,45.065.563,5.773.971,10.449,1.233,13.683.12,1.605.213,2.857.277,3.725.027.415.048.737.062.97C288.675,945.768,288.672,945.881,288.672,945.881Z" transform="translate(-279.113 -827.387)" fill="#263238"/>
              </g>
            </g>
            <g id="Grupo_89674" data-name="Grupo 89674" transform="translate(47.893 27.111)">
              <path id="Trazado_122696" data-name="Trazado 122696" d="M321.607,844l3.134,7.628h8.19l3.006-8.83L329.2,834.78l-2.2.3Z" transform="translate(-321.607 -834.78)" fill="#fc5f65"/>
            </g>
            <g id="Grupo_89676" data-name="Grupo 89676" transform="translate(34.15 19.317)">
              <g id="Grupo_89675" data-name="Grupo 89675">
                <path id="Trazado_122697" data-name="Trazado 122697" d="M321.421,829.48a1.18,1.18,0,0,1-.141.276l-.457.763-1.721,2.822c-1.46,2.4-3.47,5.782-5.644,9.7l-.13.233-.158-.214c-.722-.977-1.47-1.994-2.211-3.051a114.715,114.715,0,0,1-7.291-11.715c-.841-1.553-1.472-2.836-1.905-3.723l-.479-1.031a1.729,1.729,0,0,1-.146-.37,1.7,1.7,0,0,1,.209.338l.537,1c.47.867,1.134,2.13,2,3.665a133.143,133.143,0,0,0,7.361,11.633c.739,1.054,1.482,2.07,2.2,3.048l-.288.019c2.191-3.917,4.242-7.279,5.755-9.651.756-1.187,1.375-2.128,1.809-2.77l.506-.731A1.154,1.154,0,0,1,321.421,829.48Z" transform="translate(-301.136 -823.171)" fill="#263238"/>
              </g>
            </g>
            <g id="Grupo_89678" data-name="Grupo 89678" transform="translate(54.434 9.453)">
              <g id="Grupo_89677" data-name="Grupo 89677">
                <path id="Trazado_122698" data-name="Trazado 122698" d="M356.454,808.478a2.606,2.606,0,0,1-.189.458l-.6,1.284L353.4,814.91l-7.6,15.418-3.441,6.909-.1.207-.163-.164a107.868,107.868,0,0,1-8.025-8.824c-.914-1.154-1.6-2.1-2.054-2.763-.229-.328-.393-.59-.506-.765a1.321,1.321,0,0,1-.158-.276,1.365,1.365,0,0,1,.2.244l.549.734c.479.64,1.19,1.565,2.125,2.7,1.858,2.272,4.673,5.316,8.1,8.72l-.266.043,3.424-6.917,7.689-15.372c.986-1.933,1.791-3.51,2.366-4.641l.659-1.254A2.557,2.557,0,0,1,356.454,808.478Z" transform="translate(-331.35 -808.478)" fill="#263238"/>
              </g>
            </g>
            <g id="Grupo_89679" data-name="Grupo 89679" transform="translate(54.389 45.796)" opacity="0.3">
              <path id="Trazado_122699" data-name="Trazado 122699" d="M331.283,996.168c.5-.944,15.28-20.618,15.28-20.618L335.908,862.612Z" transform="translate(-331.283 -862.612)"/>
            </g>
            <g id="Grupo_89680" data-name="Grupo 89680" transform="translate(42.892 43.957)">
              <path id="Trazado_122700" data-name="Trazado 122700" d="M322.446,859.872s-9.79,113.558-8.09,120.355l11.3,15.04,11.714-22.3c.258-1.067-7.212-113.1-7.212-113.1Z" transform="translate(-314.158 -859.872)" fill="#fc5f65"/>
            </g>
            <g id="Grupo_89684" data-name="Grupo 89684" transform="translate(95.42 151.773)">
              <g id="Grupo_89681" data-name="Grupo 89681" transform="translate(0 0.167)">
                <path id="Trazado_122701" data-name="Trazado 122701" d="M392.4,1020.8c0,.354,6.347,11.562,6.347,11.562l33.813-.18-7.5-11.468Z" transform="translate(-392.4 -1020.717)" fill="#455a64"/>
              </g>
              <g id="Grupo_89683" data-name="Grupo 89683" transform="translate(0)">
                <g id="Grupo_89682" data-name="Grupo 89682">
                  <path id="Trazado_122702" data-name="Trazado 122702" d="M392.4,1020.721a.759.759,0,0,1,.148-.011l.457-.011,1.792-.026,6.76-.064,23.5-.141h.091l.05.077,7.5,11.463.176.269h-.322l-.319,0-33.494.125h-.072l-.035-.062c-2-3.571-3.592-6.46-4.669-8.465-.538-1-.949-1.783-1.213-2.32-.136-.266-.226-.476-.29-.615a1.347,1.347,0,0,1-.068-.222l.1.207.32.6,1.268,2.287,4.763,8.409-.106-.062,33.494-.232.319,0-.145.271-7.49-11.472.14.076-23.392-.018-6.8-.028-1.827-.016-.477-.009A1.167,1.167,0,0,1,392.4,1020.721Z" transform="translate(-392.401 -1020.468)" fill="#263238"/>
                </g>
              </g>
            </g>
            <g id="Grupo_89686" data-name="Grupo 89686" transform="translate(51.091 32.385)">
              <g id="Grupo_89685" data-name="Grupo 89685">
                <path id="Trazado_122703" data-name="Trazado 122703" d="M335.159,842.636a13.965,13.965,0,0,1-1.275,1.7c-.814,1.026-1.936,2.444-3.148,4.031s-2.285,3.043-3.061,4.1a14.094,14.094,0,0,1-1.3,1.677,11.648,11.648,0,0,1,1.1-1.819c.726-1.094,1.77-2.577,2.985-4.169s2.372-2.989,3.236-3.976A11.77,11.77,0,0,1,335.159,842.636Z" transform="translate(-326.37 -842.635)" fill="#263238"/>
              </g>
            </g>
            <g id="Grupo_89687" data-name="Grupo 89687" transform="translate(55.291 20.977)" opacity="0.3">
              <path id="Trazado_122704" data-name="Trazado 122704" d="M332.626,831.509s7.091,12.784,10.137,13.779,8.388-19.644,8.388-19.644l-8.513,16.723Z" transform="translate(-332.626 -825.643)"/>
            </g>
            <g id="Grupo_89688" data-name="Grupo 89688" transform="translate(81.011 22.148)" opacity="0.3">
              <path id="Trazado_122705" data-name="Trazado 122705" d="M370.938,936.628s15.955-52.121,19.359-66.8-1.018-18.793-1.018-18.793l3.146-1.905-9.449-21.743,6.211,21.254-4.581,1.4s3.6.267,4.54,5.559S370.938,936.628,370.938,936.628Z" transform="translate(-370.938 -827.387)"/>
            </g>
          </g>
          <g id="Grupo_89720" data-name="Grupo 89720" transform="translate(199.022 79.123)">
            <g id="Grupo_89717" data-name="Grupo 89717">
              <g id="Grupo_89711" data-name="Grupo 89711" transform="translate(37.915)">
                <g id="Grupo_89690" data-name="Grupo 89690">
                  <path id="Trazado_122706" data-name="Trazado 122706" d="M495.057,756.615s-1.77-1.7-4.9-.063c0,0-3.272,1.725-3.734,3.165s.264,3.4.871,4.858,4.215,6.845,4.215,6.845a19.056,19.056,0,0,0,3.032,9.307c3.037,4.777,8.131,4.916,9.1,8.366s1.317,4.487.753,6.857-1.53,6.433-1.53,6.433l19.867,10.149s1.272-14.3.894-22.739-.39-16.906.142-19.642-.181-6.757-1.034-7.18c0,0,2.321-5.749-.51-7.377s-20.96-7.132-22.921-6.407-2.689,1.719-3.2,3.863A32.741,32.741,0,0,1,495.057,756.615Z" transform="translate(-486.274 -749.122)" fill="#ffbf9d"/>
                </g>
                <g id="Grupo_89692" data-name="Grupo 89692" transform="translate(8.33 7.581)">
                  <g id="Grupo_89691" data-name="Grupo 89691">
                    <path id="Trazado_122707" data-name="Trazado 122707" d="M516.077,774.747a2.418,2.418,0,0,1-.476-.693,2.389,2.389,0,0,1,.092-2.334l.042.144-2.6-.971.163-.157c.232.653.487,1.37.756,2.13l-.032-.052a5.483,5.483,0,0,1,.793,1.01,2.72,2.72,0,0,1,.384,1.332,2.692,2.692,0,0,1-1.557,2.393,2.586,2.586,0,0,1-1.56.212,4.223,4.223,0,0,1-.761-.237c-.245-.089-.486-.193-.726-.3a12.8,12.8,0,0,1-2.753-1.707,10.574,10.574,0,0,1-1.589-1.564l.116.067a5.966,5.966,0,0,1-3.335-1.438,4.324,4.324,0,0,1-1.36-3.047l.114.154a6.562,6.562,0,0,1-2.108-1.059,3.212,3.212,0,0,1-.756-.824,2.534,2.534,0,0,1-.237-1.045,17.357,17.357,0,0,1,.3-3.419c.158-.937.315-1.669.431-2.166a4.276,4.276,0,0,1,.209-.757,5.317,5.317,0,0,1-.113.776c-.085.5-.213,1.238-.344,2.175a18.3,18.3,0,0,0-.227,3.373,2.342,2.342,0,0,0,.212.92,2.952,2.952,0,0,0,.7.743,6.341,6.341,0,0,0,2.013.984l.11.034,0,.121a4.035,4.035,0,0,0,1.28,2.8,5.661,5.661,0,0,0,3.151,1.337l.069.009.047.058a10.379,10.379,0,0,0,1.532,1.5,12.612,12.612,0,0,0,2.677,1.665c.234.109.467.211.706.3a4.023,4.023,0,0,0,.7.222,2.256,2.256,0,0,0,1.36-.179,2.378,2.378,0,0,0,1.388-2.093,3.234,3.234,0,0,0-1.069-2.144l-.023-.023-.009-.028c-.258-.764-.5-1.485-.724-2.142l-.087-.256.249.1,2.576,1.027.11.044-.068.1a2.22,2.22,0,0,0-.356,1.231,2.46,2.46,0,0,0,.2.95C515.905,774.506,516.1,774.731,516.077,774.747Z" transform="translate(-498.683 -760.415)" fill="#ff9a6c"/>
                  </g>
                </g>
                <g id="Grupo_89694" data-name="Grupo 89694" transform="translate(16.103 9.315)">
                  <g id="Grupo_89693" data-name="Grupo 89693">
                    <path id="Trazado_122708" data-name="Trazado 122708" d="M526.192,765.59a5.237,5.237,0,0,1-.965-.142l-2.6-.513-3.854-.8-2.272-.487a7.182,7.182,0,0,0-2.4-.267,2.426,2.426,0,0,0-1.812,1.331,9.636,9.636,0,0,0-.8,2.132,29,29,0,0,0-.751,3.839c-.148,1.108-.239,2.009-.311,2.632a5.3,5.3,0,0,1-.144.965,5.045,5.045,0,0,1,.008-.975c.03-.626.083-1.533.2-2.651a26.292,26.292,0,0,1,.685-3.894,9.721,9.721,0,0,1,.812-2.218,3.314,3.314,0,0,1,.822-.992,2.519,2.519,0,0,1,1.238-.516,7.33,7.33,0,0,1,2.527.279l2.268.507,3.837.877,2.581.622A5.181,5.181,0,0,1,526.192,765.59Z" transform="translate(-510.26 -762.998)" fill="#ff9a6c"/>
                  </g>
                </g>
                <g id="Grupo_89696" data-name="Grupo 89696" transform="translate(11.549 5.264)">
                  <g id="Grupo_89695" data-name="Grupo 89695">
                    <path id="Trazado_122709" data-name="Trazado 122709" d="M520.79,759.47a5.653,5.653,0,0,1-.99-.2l-2.668-.645c-1.127-.269-2.47-.58-3.971-.865-.75-.14-1.544-.281-2.362-.384a5.632,5.632,0,0,0-2.478.148,3.956,3.956,0,0,0-1.9,1.517,9.193,9.193,0,0,0-1.061,2.1,33.708,33.708,0,0,0-1.155,3.882c-.263,1.125-.423,2.048-.53,2.686a6.428,6.428,0,0,1-.185.991,4.881,4.881,0,0,1,.05-1.009c.066-.647.189-1.58.423-2.721a30.2,30.2,0,0,1,1.094-3.941,9.351,9.351,0,0,1,1.084-2.189,4.272,4.272,0,0,1,2.068-1.65,5.883,5.883,0,0,1,2.632-.158c.837.111,1.627.259,2.382.408,1.508.3,2.849.641,3.97.941s2.022.565,2.643.754A5.527,5.527,0,0,1,520.79,759.47Z" transform="translate(-503.477 -756.963)" fill="#ff9a6c"/>
                  </g>
                </g>
                <g id="Grupo_89698" data-name="Grupo 89698" transform="translate(31.414 8.084)">
                  <g id="Grupo_89697" data-name="Grupo 89697">
                    <path id="Trazado_122710" data-name="Trazado 122710" d="M538.093,763.035c-.064.084-1.033-.657-2.424-1.145-1.387-.5-2.605-.544-2.6-.651a6.117,6.117,0,0,1,5.026,1.8Z" transform="translate(-533.067 -761.163)" fill="#ff9a6c"/>
                  </g>
                </g>
                <g id="Grupo_89700" data-name="Grupo 89700" transform="translate(9.666 2.45)">
                  <g id="Grupo_89699" data-name="Grupo 89699">
                    <path id="Trazado_122711" data-name="Trazado 122711" d="M509.9,753.007a3.285,3.285,0,0,1-.755.006,17.945,17.945,0,0,0-2.038.015,6.13,6.13,0,0,0-2.814.859,3.745,3.745,0,0,0-1.205,1.21,6.34,6.34,0,0,0-.693,1.737c-.616,2.557-1.01,4.923-1.272,6.631q-.174,1.2-.295,2.03a3.224,3.224,0,0,1-.141.742,3.094,3.094,0,0,1,.006-.757c.028-.485.086-1.185.185-2.048a56.9,56.9,0,0,1,1.178-6.687,6.507,6.507,0,0,1,.741-1.831,4.018,4.018,0,0,1,1.324-1.3,6.163,6.163,0,0,1,2.969-.833,13.072,13.072,0,0,1,2.064.1A3.011,3.011,0,0,1,509.9,753.007Z" transform="translate(-500.672 -752.772)" fill="#ff9a6c"/>
                  </g>
                </g>
                <g id="Grupo_89702" data-name="Grupo 89702" transform="translate(23.76 3.901)">
                  <g id="Grupo_89701" data-name="Grupo 89701">
                    <path id="Trazado_122712" data-name="Trazado 122712" d="M526.326,756.144a16.62,16.62,0,0,1-4.661-1.188,16.6,16.6,0,0,1,4.661,1.188Z" transform="translate(-521.665 -754.933)" fill="#ff9a6c"/>
                  </g>
                </g>
                <g id="Grupo_89704" data-name="Grupo 89704" transform="translate(6.485 17.775)">
                  <g id="Grupo_89703" data-name="Grupo 89703">
                    <path id="Trazado_122713" data-name="Trazado 122713" d="M501.029,775.614a11.69,11.69,0,0,0-5.089,3.853,6.808,6.808,0,0,1,5.089-3.853Z" transform="translate(-495.934 -775.599)" fill="#ff9a6c"/>
                  </g>
                </g>
                <g id="Grupo_89706" data-name="Grupo 89706" transform="translate(3.064 14.88)">
                  <g id="Grupo_89705" data-name="Grupo 89705">
                    <path id="Trazado_122714" data-name="Trazado 122714" d="M496.459,771.3c.023.034-.223.268-.706.53a4.292,4.292,0,0,1-2.081.5,5.662,5.662,0,0,1-2.076-.479c-.5-.219-.777-.4-.758-.445a19.749,19.749,0,0,0,2.841.574A8.124,8.124,0,0,0,496.459,771.3Z" transform="translate(-490.838 -771.287)" fill="#ff9a6c"/>
                  </g>
                </g>
                <g id="Grupo_89708" data-name="Grupo 89708" transform="translate(16.103 23.515)">
                  <g id="Grupo_89707" data-name="Grupo 89707">
                    <path id="Trazado_122715" data-name="Trazado 122715" d="M523.075,784.192a25.661,25.661,0,0,0-2.921.466,12.78,12.78,0,0,0-9.43,9.635,25.609,25.609,0,0,0-.4,2.93,3.025,3.025,0,0,1-.059-.8,11.151,11.151,0,0,1,.221-2.181,12.481,12.481,0,0,1,9.615-9.823,11.128,11.128,0,0,1,2.176-.268A3.024,3.024,0,0,1,523.075,784.192Z" transform="translate(-510.26 -784.148)" fill="#ff9a6c"/>
                  </g>
                </g>
                <g id="Grupo_89710" data-name="Grupo 89710" transform="translate(20.23 41.111)">
                  <g id="Grupo_89709" data-name="Grupo 89709">
                    <path id="Trazado_122716" data-name="Trazado 122716" d="M528.288,812.511a6.282,6.282,0,0,1-1.782.348,15.968,15.968,0,0,1-8.551-1.545,6.308,6.308,0,0,1-1.547-.95,17.845,17.845,0,0,1,1.651.725,18.868,18.868,0,0,0,8.429,1.524C527.6,812.56,528.278,812.455,528.288,812.511Z" transform="translate(-516.407 -810.359)" fill="#ff9a6c"/>
                  </g>
                </g>
              </g>
              <g id="Grupo_89712" data-name="Grupo 89712" transform="translate(0.005 42.85)">
                <path id="Trazado_122717" data-name="Trazado 122717" d="M475.4,852.588l-32.613-25.133s-6.161-14.579-12.981-14.47V872.3l29.962,17.9c2.538,1.776,14.254,8.91,25.235,10.945,5.97,1.106,14.557-1.275,17.7-6.468.906-1.494,3.516-7.99,3.753-9.89.949-7.6,2.81-65.571,2.81-65.571l-32.628-6.275Z" transform="translate(-429.805 -812.949)" fill="#455a64"/>
              </g>
              <g id="Grupo_89714" data-name="Grupo 89714" transform="translate(42.274 81.257)">
                <g id="Grupo_89713" data-name="Grupo 89713">
                  <path id="Trazado_122718" data-name="Trazado 122718" d="M499.977,907.966a1.813,1.813,0,0,1-.254-.314l-.677-.943-.483-.687c-.168-.256-.332-.547-.517-.854-.359-.62-.808-1.305-1.188-2.124l-.633-1.268c-.216-.443-.393-.925-.6-1.413-.437-.97-.776-2.054-1.159-3.185a38.067,38.067,0,0,1-1.49-15.371c.159-1.184.283-2.313.526-3.349.112-.519.193-1.026.321-1.5s.256-.93.377-1.366c.216-.877.525-1.636.758-2.313.124-.336.228-.653.343-.937l.342-.767.483-1.055a1.749,1.749,0,0,1,.19-.358,1.814,1.814,0,0,1-.125.387l-.422,1.078q-.143.355-.311.775c-.106.287-.2.6-.314.943-.215.68-.506,1.439-.7,2.315l-.352,1.362c-.12.475-.194.979-.3,1.5-.228,1.031-.341,2.152-.49,3.327a39.078,39.078,0,0,0,1.478,15.243c.372,1.124.7,2.2,1.12,3.17.2.486.372.967.58,1.41s.414.864.608,1.269c.364.821.795,1.51,1.136,2.136.177.31.331.6.489.865l.455.7.62.977A1.742,1.742,0,0,1,499.977,907.966Z" transform="translate(-492.767 -870.158)" fill="#263238"/>
                </g>
              </g>
              <g id="Grupo_89716" data-name="Grupo 89716" transform="translate(0 60.103)">
                <g id="Grupo_89715" data-name="Grupo 89715">
                  <path id="Trazado_122719" data-name="Trazado 122719" d="M436.481,838.648a1.441,1.441,0,0,1,0,.26c-.009.189-.019.44-.034.761-.038.688-.093,1.669-.162,2.922-.157,2.557-.383,6.223-.66,10.744-.593,9.085-1.409,21.606-2.31,35.435-.941,13.831-1.794,26.351-2.412,35.434-.324,4.518-.587,8.181-.771,10.736-.1,1.251-.173,2.231-.227,2.918-.029.319-.051.57-.068.758a1.432,1.432,0,0,1-.036.258,1.407,1.407,0,0,1,0-.26l.033-.761c.038-.688.093-1.668.162-2.922.157-2.557.383-6.222.66-10.743.593-9.087,1.408-21.609,2.311-35.443.941-13.827,1.793-26.345,2.411-35.43.325-4.518.588-8.181.771-10.736.1-1.251.174-2.231.227-2.918.029-.32.051-.57.068-.758A1.432,1.432,0,0,1,436.481,838.648Z" transform="translate(-429.798 -838.648)" fill="#263238"/>
                </g>
              </g>
            </g>
            <g id="Grupo_89719" data-name="Grupo 89719" transform="translate(38.657 84.221)" opacity="0.3">
              <g id="Grupo_89718" data-name="Grupo 89718">
                <path id="Trazado_122720" data-name="Trazado 122720" d="M494.412,901.968a36.5,36.5,0,0,1-3.122-11.455,36.1,36.1,0,0,1,2.031-15.941c-5.949,8.513-7.822,20.636-3.817,30.219.51,1.221,1.333,2.577,2.654,2.664a2.6,2.6,0,0,0,2.445-2.061A5.432,5.432,0,0,0,494.412,901.968Z" transform="translate(-487.38 -874.572)"/>
              </g>
            </g>
          </g>
          <g id="Grupo_89881" data-name="Grupo 89881" transform="translate(97.444 22.244)">
            <g id="Grupo_89728" data-name="Grupo 89728" transform="translate(54.814 13.317)">
              <g id="Grupo_89727" data-name="Grupo 89727">
                <g id="Grupo_89726" data-name="Grupo 89726">
                  <g id="Grupo_89725" data-name="Grupo 89725">
                    <g id="Grupo_89724" data-name="Grupo 89724">
                      <g id="Grupo_89723" data-name="Grupo 89723">
                        <g id="Grupo_89722" data-name="Grupo 89722">
                          <g id="Grupo_89721" data-name="Grupo 89721">
                            <path id="Trazado_122721" data-name="Trazado 122721" d="M364.282,733.794c2.29-6.764,4.554-13.579,5.647-20.635s.968-14.428-1.437-21.151c-.365-1.019-3.5-7.866-4.575-7.772-.771.066,1.132,6.441.734,7.1-3.794,6.335-4.9,14-4.395,21.362a96.673,96.673,0,0,0,4.025,21.092" transform="translate(-360.143 -684.235)" fill="#263238"/>
                          </g>
                        </g>
                      </g>
                    </g>
                  </g>
                </g>
              </g>
            </g>
            <g id="Grupo_89729" data-name="Grupo 89729" transform="translate(0 2.069)">
              <path id="Trazado_122722" data-name="Trazado 122722" d="M311.637,667.48l-1.656.068a32.015,32.015,0,0,0-30.675,30.728c-.608,15.511-1.081,32.656-.636,40.946.922,17.16,18.2,19.121,18.2,19.121.038,0,.075,7.234.075,7.234l17.1,11.379,22.46-24.157,1.98-51.746C339.288,683.164,329.544,667.785,311.637,667.48Z" transform="translate(-278.495 -667.48)" fill="#ffbf9d"/>
            </g>
            <g id="Grupo_89739" data-name="Grupo 89739" transform="translate(18.38 85.4)">
              <g id="Grupo_89738" data-name="Grupo 89738">
                <g id="Grupo_89737" data-name="Grupo 89737">
                  <g id="Grupo_89736" data-name="Grupo 89736">
                    <g id="Grupo_89735" data-name="Grupo 89735">
                      <g id="Grupo_89734" data-name="Grupo 89734">
                        <g id="Grupo_89733" data-name="Grupo 89733">
                          <g id="Grupo_89732" data-name="Grupo 89732">
                            <g id="Grupo_89731" data-name="Grupo 89731">
                              <g id="Grupo_89730" data-name="Grupo 89730">
                                <path id="Trazado_122723" data-name="Trazado 122723" d="M305.872,799.137a41.51,41.51,0,0,0,22.082-7.533s-4.845,13.13-22.041,12.292Z" transform="translate(-305.872 -791.605)" fill="#ff9a6c"/>
                              </g>
                            </g>
                          </g>
                        </g>
                      </g>
                    </g>
                  </g>
                </g>
              </g>
            </g>
            <g id="Grupo_89755" data-name="Grupo 89755" transform="translate(8.73 44.886)">
              <g id="Grupo_89754" data-name="Grupo 89754">
                <g id="Grupo_89753" data-name="Grupo 89753">
                  <g id="Grupo_89752" data-name="Grupo 89752">
                    <g id="Grupo_89751" data-name="Grupo 89751">
                      <g id="Grupo_89750" data-name="Grupo 89750">
                        <g id="Grupo_89749" data-name="Grupo 89749">
                          <g id="Grupo_89748" data-name="Grupo 89748">
                            <g id="Grupo_89747" data-name="Grupo 89747">
                              <g id="Grupo_89746" data-name="Grupo 89746">
                                <g id="Grupo_89745" data-name="Grupo 89745">
                                  <g id="Grupo_89744" data-name="Grupo 89744">
                                    <g id="Grupo_89743" data-name="Grupo 89743">
                                      <g id="Grupo_89742" data-name="Grupo 89742">
                                        <g id="Grupo_89741" data-name="Grupo 89741">
                                          <g id="Grupo_89740" data-name="Grupo 89740">
                                            <path id="Trazado_122724" data-name="Trazado 122724" d="M291.5,733.575a2.454,2.454,0,0,0,2.467,2.377,2.347,2.347,0,0,0,2.436-2.316,2.454,2.454,0,0,0-2.464-2.378A2.349,2.349,0,0,0,291.5,733.575Z" transform="translate(-291.499 -731.258)" fill="#263238"/>
                                          </g>
                                        </g>
                                      </g>
                                    </g>
                                  </g>
                                </g>
                              </g>
                            </g>
                          </g>
                        </g>
                      </g>
                    </g>
                  </g>
                </g>
              </g>
            </g>
            <g id="Grupo_89772" data-name="Grupo 89772" transform="translate(4.731 37.515)">
              <g id="Grupo_89771" data-name="Grupo 89771">
                <g id="Grupo_89770" data-name="Grupo 89770">
                  <g id="Grupo_89769" data-name="Grupo 89769">
                    <g id="Grupo_89768" data-name="Grupo 89768">
                      <g id="Grupo_89767" data-name="Grupo 89767">
                        <g id="Grupo_89766" data-name="Grupo 89766">
                          <g id="Grupo_89765" data-name="Grupo 89765">
                            <g id="Grupo_89764" data-name="Grupo 89764">
                              <g id="Grupo_89763" data-name="Grupo 89763">
                                <g id="Grupo_89762" data-name="Grupo 89762">
                                  <g id="Grupo_89761" data-name="Grupo 89761">
                                    <g id="Grupo_89760" data-name="Grupo 89760">
                                      <g id="Grupo_89759" data-name="Grupo 89759">
                                        <g id="Grupo_89758" data-name="Grupo 89758">
                                          <g id="Grupo_89757" data-name="Grupo 89757">
                                            <g id="Grupo_89756" data-name="Grupo 89756">
                                              <path id="Trazado_122725" data-name="Trazado 122725" d="M285.587,723.06c.317.308,2.117-1.144,4.756-1.246,2.634-.14,4.627,1.137,4.9.8.134-.148-.2-.713-1.067-1.292a6.731,6.731,0,0,0-3.939-1.038,6.467,6.467,0,0,0-3.77,1.392C285.681,722.334,285.431,722.923,285.587,723.06Z" transform="translate(-285.543 -720.279)" fill="#263238"/>
                                            </g>
                                          </g>
                                        </g>
                                      </g>
                                    </g>
                                  </g>
                                </g>
                              </g>
                            </g>
                          </g>
                        </g>
                      </g>
                    </g>
                  </g>
                </g>
              </g>
            </g>
            <g id="Grupo_89788" data-name="Grupo 89788" transform="translate(32.414 44.886)">
              <g id="Grupo_89787" data-name="Grupo 89787">
                <g id="Grupo_89786" data-name="Grupo 89786">
                  <g id="Grupo_89785" data-name="Grupo 89785">
                    <g id="Grupo_89784" data-name="Grupo 89784">
                      <g id="Grupo_89783" data-name="Grupo 89783">
                        <g id="Grupo_89782" data-name="Grupo 89782">
                          <g id="Grupo_89781" data-name="Grupo 89781">
                            <g id="Grupo_89780" data-name="Grupo 89780">
                              <g id="Grupo_89779" data-name="Grupo 89779">
                                <g id="Grupo_89778" data-name="Grupo 89778">
                                  <g id="Grupo_89777" data-name="Grupo 89777">
                                    <g id="Grupo_89776" data-name="Grupo 89776">
                                      <g id="Grupo_89775" data-name="Grupo 89775">
                                        <g id="Grupo_89774" data-name="Grupo 89774">
                                          <g id="Grupo_89773" data-name="Grupo 89773">
                                            <path id="Trazado_122726" data-name="Trazado 122726" d="M326.777,733.575a2.454,2.454,0,0,0,2.467,2.376,2.347,2.347,0,0,0,2.436-2.315,2.456,2.456,0,0,0-2.465-2.378A2.349,2.349,0,0,0,326.777,733.575Z" transform="translate(-326.777 -731.258)" fill="#263238"/>
                                          </g>
                                        </g>
                                      </g>
                                    </g>
                                  </g>
                                </g>
                              </g>
                            </g>
                          </g>
                        </g>
                      </g>
                    </g>
                  </g>
                </g>
              </g>
            </g>
            <g id="Grupo_89805" data-name="Grupo 89805" transform="translate(30.62 37.059)">
              <g id="Grupo_89804" data-name="Grupo 89804">
                <g id="Grupo_89803" data-name="Grupo 89803">
                  <g id="Grupo_89802" data-name="Grupo 89802">
                    <g id="Grupo_89801" data-name="Grupo 89801">
                      <g id="Grupo_89800" data-name="Grupo 89800">
                        <g id="Grupo_89799" data-name="Grupo 89799">
                          <g id="Grupo_89798" data-name="Grupo 89798">
                            <g id="Grupo_89797" data-name="Grupo 89797">
                              <g id="Grupo_89796" data-name="Grupo 89796">
                                <g id="Grupo_89795" data-name="Grupo 89795">
                                  <g id="Grupo_89794" data-name="Grupo 89794">
                                    <g id="Grupo_89793" data-name="Grupo 89793">
                                      <g id="Grupo_89792" data-name="Grupo 89792">
                                        <g id="Grupo_89791" data-name="Grupo 89791">
                                          <g id="Grupo_89790" data-name="Grupo 89790">
                                            <g id="Grupo_89789" data-name="Grupo 89789">
                                              <path id="Trazado_122727" data-name="Trazado 122727" d="M324.148,722.381c.318.307,2.121-1.144,4.759-1.246,2.633-.14,4.626,1.137,4.9.8.134-.148-.2-.712-1.068-1.292a6.73,6.73,0,0,0-3.938-1.039,6.476,6.476,0,0,0-3.77,1.391C324.246,721.654,323.993,722.244,324.148,722.381Z" transform="translate(-324.105 -719.6)" fill="#263238"/>
                                            </g>
                                          </g>
                                        </g>
                                      </g>
                                    </g>
                                  </g>
                                </g>
                              </g>
                            </g>
                          </g>
                        </g>
                      </g>
                    </g>
                  </g>
                </g>
              </g>
            </g>
            <g id="Grupo_89821" data-name="Grupo 89821" transform="translate(15.233 38.471)">
              <g id="Grupo_89820" data-name="Grupo 89820">
                <g id="Grupo_89819" data-name="Grupo 89819">
                  <g id="Grupo_89818" data-name="Grupo 89818">
                    <g id="Grupo_89817" data-name="Grupo 89817">
                      <g id="Grupo_89816" data-name="Grupo 89816">
                        <g id="Grupo_89815" data-name="Grupo 89815">
                          <g id="Grupo_89814" data-name="Grupo 89814">
                            <g id="Grupo_89813" data-name="Grupo 89813">
                              <g id="Grupo_89812" data-name="Grupo 89812">
                                <g id="Grupo_89811" data-name="Grupo 89811">
                                  <g id="Grupo_89810" data-name="Grupo 89810">
                                    <g id="Grupo_89809" data-name="Grupo 89809">
                                      <g id="Grupo_89808" data-name="Grupo 89808">
                                        <g id="Grupo_89807" data-name="Grupo 89807">
                                          <g id="Grupo_89806" data-name="Grupo 89806">
                                            <path id="Trazado_122728" data-name="Trazado 122728" d="M307.989,743.736c.006-.15-1.645-.366-4.317-.6-.677-.042-1.321-.149-1.453-.6a3.438,3.438,0,0,1,.367-2.016l1.78-5.212c2.465-7.419,4.22-13.507,3.921-13.6s-2.541,5.838-5.006,13.257c-.591,1.829-1.157,3.572-1.7,5.24a3.907,3.907,0,0,0-.24,2.659,1.69,1.69,0,0,0,1.148.939,4.6,4.6,0,0,0,1.151.112C306.325,743.943,307.985,743.887,307.989,743.736Z" transform="translate(-301.185 -721.702)" fill="#263238"/>
                                          </g>
                                        </g>
                                      </g>
                                    </g>
                                  </g>
                                </g>
                              </g>
                            </g>
                          </g>
                        </g>
                      </g>
                    </g>
                  </g>
                </g>
              </g>
            </g>
            <g id="Grupo_89833" data-name="Grupo 89833" transform="translate(29.433 28.569)">
              <g id="Grupo_89832" data-name="Grupo 89832">
                <g id="Grupo_89831" data-name="Grupo 89831">
                  <g id="Grupo_89830" data-name="Grupo 89830">
                    <g id="Grupo_89829" data-name="Grupo 89829">
                      <g id="Grupo_89828" data-name="Grupo 89828">
                        <g id="Grupo_89827" data-name="Grupo 89827">
                          <g id="Grupo_89826" data-name="Grupo 89826">
                            <g id="Grupo_89825" data-name="Grupo 89825">
                              <g id="Grupo_89824" data-name="Grupo 89824">
                                <g id="Grupo_89823" data-name="Grupo 89823">
                                  <g id="Grupo_89822" data-name="Grupo 89822">
                                    <path id="Trazado_122729" data-name="Trazado 122729" d="M322.373,710.006c.386.659,2.917-.155,6.031-.35,3.11-.259,5.733.179,6.019-.528.124-.337-.427-.922-1.547-1.421a10.5,10.5,0,0,0-9.181.669C322.661,709.033,322.2,709.691,322.373,710.006Z" transform="translate(-322.337 -706.953)" fill="#263238"/>
                                  </g>
                                </g>
                              </g>
                            </g>
                          </g>
                        </g>
                      </g>
                    </g>
                  </g>
                </g>
              </g>
            </g>
            <g id="Grupo_89845" data-name="Grupo 89845" transform="translate(4.247 29.664)">
              <g id="Grupo_89844" data-name="Grupo 89844">
                <g id="Grupo_89843" data-name="Grupo 89843">
                  <g id="Grupo_89842" data-name="Grupo 89842">
                    <g id="Grupo_89841" data-name="Grupo 89841">
                      <g id="Grupo_89840" data-name="Grupo 89840">
                        <g id="Grupo_89839" data-name="Grupo 89839">
                          <g id="Grupo_89838" data-name="Grupo 89838">
                            <g id="Grupo_89837" data-name="Grupo 89837">
                              <g id="Grupo_89836" data-name="Grupo 89836">
                                <g id="Grupo_89835" data-name="Grupo 89835">
                                  <g id="Grupo_89834" data-name="Grupo 89834">
                                    <path id="Trazado_122730" data-name="Trazado 122730" d="M284.908,711.465c.565.585,2.7-.095,5.281-.192,2.58-.174,4.783.277,5.271-.363.212-.31-.148-.9-1.118-1.444a8.316,8.316,0,0,0-4.321-.869,8.189,8.189,0,0,0-4.183,1.316C284.942,710.553,284.658,711.178,284.908,711.465Z" transform="translate(-284.821 -708.584)" fill="#263238"/>
                                  </g>
                                </g>
                              </g>
                            </g>
                          </g>
                        </g>
                      </g>
                    </g>
                  </g>
                </g>
              </g>
            </g>
            <g id="Grupo_89853" data-name="Grupo 89853" transform="translate(59.114 47.707)">
              <g id="Grupo_89852" data-name="Grupo 89852">
                <g id="Grupo_89851" data-name="Grupo 89851">
                  <g id="Grupo_89850" data-name="Grupo 89850">
                    <g id="Grupo_89849" data-name="Grupo 89849">
                      <g id="Grupo_89848" data-name="Grupo 89848">
                        <g id="Grupo_89847" data-name="Grupo 89847">
                          <g id="Grupo_89846" data-name="Grupo 89846">
                            <path id="Trazado_122731" data-name="Trazado 122731" d="M366.548,736.168c.288-.139,11.653-3.976,11.763,7.777s-11.713,9.439-11.737,9.1S366.548,736.168,366.548,736.168Z" transform="translate(-366.548 -735.46)" fill="#ffbf9d"/>
                          </g>
                        </g>
                      </g>
                    </g>
                  </g>
                </g>
              </g>
            </g>
            <g id="Grupo_89862" data-name="Grupo 89862" transform="translate(62.679 51.488)">
              <g id="Grupo_89861" data-name="Grupo 89861">
                <g id="Grupo_89860" data-name="Grupo 89860">
                  <g id="Grupo_89859" data-name="Grupo 89859">
                    <g id="Grupo_89858" data-name="Grupo 89858">
                      <g id="Grupo_89857" data-name="Grupo 89857">
                        <g id="Grupo_89856" data-name="Grupo 89856">
                          <g id="Grupo_89855" data-name="Grupo 89855">
                            <g id="Grupo_89854" data-name="Grupo 89854">
                              <path id="Trazado_122732" data-name="Trazado 122732" d="M371.869,750.412c.051-.038.206.141.554.3a2.045,2.045,0,0,0,1.531.017c1.237-.467,2.264-2.448,2.3-4.567a6.765,6.765,0,0,0-.6-2.926,2.368,2.368,0,0,0-1.555-1.557,1.041,1.041,0,0,0-1.2.573c-.154.33-.078.564-.14.585-.032.03-.254-.195-.164-.681a1.306,1.306,0,0,1,.456-.741,1.544,1.544,0,0,1,1.129-.31,2.877,2.877,0,0,1,2.156,1.8,6.961,6.961,0,0,1,.74,3.269c-.054,2.369-1.245,4.6-2.94,5.1a2.192,2.192,0,0,1-1.875-.293C371.892,750.695,371.828,750.433,371.869,750.412Z" transform="translate(-371.858 -741.092)" fill="#ff9a6c"/>
                            </g>
                          </g>
                        </g>
                      </g>
                    </g>
                  </g>
                </g>
              </g>
            </g>
            <g id="Grupo_89870" data-name="Grupo 89870" transform="translate(8.029)">
              <g id="Grupo_89869" data-name="Grupo 89869">
                <g id="Grupo_89868" data-name="Grupo 89868">
                  <g id="Grupo_89867" data-name="Grupo 89867">
                    <g id="Grupo_89866" data-name="Grupo 89866">
                      <g id="Grupo_89865" data-name="Grupo 89865">
                        <g id="Grupo_89864" data-name="Grupo 89864">
                          <g id="Grupo_89863" data-name="Grupo 89863">
                            <path id="Trazado_122733" data-name="Trazado 122733" d="M290.831,677.788c-1.9-1.049,3.8-7.212,8.476-9.336,7.064-3.209,17.852-5.189,24.367-3.345,7.845,2.22,14.363,6.119,18.3,13.256s5.426,15.452,5.2,23.6c-.068,2.487-.325,5.079-1.652,7.181-1.64,2.6-4.789,4.238-4.65,7.823a4.919,4.919,0,0,1-1.219,3.588c-2.15,2.289-4.781.142-5.992-2.013-2.586-4.6-2.877-10.1-3.107-15.373-.163-3.749-.318-7.578.738-11.179.573-1.959,1.5-3.811,1.961-5.8a7.06,7.06,0,0,0-.836-5.868,7.344,7.344,0,0,0-.955-.965,12.258,12.258,0,0,0-12.162-2.309c-6.618,2.346-17.92,5.849-20.873,3.6-4.249-3.229-5.266-5.336-5.266-5.336Z" transform="translate(-290.455 -664.399)" fill="#263238"/>
                          </g>
                        </g>
                      </g>
                    </g>
                  </g>
                </g>
              </g>
            </g>
            <g id="Grupo_89880" data-name="Grupo 89880" transform="translate(22.369 62.139)">
              <g id="Grupo_89879" data-name="Grupo 89879">
                <g id="Grupo_89878" data-name="Grupo 89878">
                  <g id="Grupo_89877" data-name="Grupo 89877">
                    <g id="Grupo_89876" data-name="Grupo 89876">
                      <g id="Grupo_89875" data-name="Grupo 89875">
                        <g id="Grupo_89874" data-name="Grupo 89874">
                          <g id="Grupo_89873" data-name="Grupo 89873">
                            <g id="Grupo_89872" data-name="Grupo 89872">
                              <g id="Grupo_89871" data-name="Grupo 89871">
                                <path id="Trazado_122734" data-name="Trazado 122734" d="M319.769,756.957c-.4-.025-.422,2.673-2.74,4.579s-5.191,1.6-5.214,1.973c-.038.169.638.527,1.853.566a6.724,6.724,0,0,0,4.351-1.494,5.858,5.858,0,0,0,2.125-3.841C320.252,757.612,319.954,756.942,319.769,756.957Z" transform="translate(-311.814 -756.957)" fill="#263238"/>
                              </g>
                            </g>
                          </g>
                        </g>
                      </g>
                    </g>
                  </g>
                </g>
              </g>
            </g>
          </g>
        </g>
      </g>
    </g>
  </g>
</svg>
