<svg xmlns="http://www.w3.org/2000/svg" width="667" height="76" viewBox="0 0 667 76">
  <g id="Grupo_177624" data-name="Grupo 177624" transform="translate(1726 7341)">
    <g id="Trazado_153919" data-name="Trazado 153919" transform="translate(-1726 -7341)" fill="#3c3fa7">
      <path d="M 92 75.5 L 13 75.5 C 9.661120414733887 75.5 6.522106647491455 74.19977569580078 4.161159992218018 71.83883666992188 C 1.80022668838501 69.47789001464844 0.5 66.33888244628906 0.5 63 L 0.5 13 C 0.5 9.661120414733887 1.80022668838501 6.522106647491455 4.161159992218018 4.161159992218018 C 6.522106647491455 1.80022668838501 9.661120414733887 0.5 13 0.5 L 92 0.5 C 95.33888244628906 0.5 98.47789001464844 1.80022668838501 100.8388366699219 4.161159992218018 C 103.1997756958008 6.522106647491455 104.5 9.661120414733887 104.5 13 L 104.5 63 C 104.5 66.33888244628906 103.1997756958008 69.47789001464844 100.8388366699219 71.83883666992188 C 98.47789001464844 74.19977569580078 95.33888244628906 75.5 92 75.5 Z" stroke="none"/>
      <path d="M 13 1 C 9.794685363769531 1 6.781211853027344 2.248214721679688 4.514717102050781 4.514717102050781 C 2.248214721679688 6.781211853027344 1 9.794685363769531 1 13 L 1 63 C 1 66.20531463623047 2.248214721679688 69.21878814697266 4.514717102050781 71.48528289794922 C 6.781211853027344 73.75178527832031 9.794685363769531 75 13 75 L 92 75 C 95.20531463623047 75 98.21878814697266 73.75178527832031 100.4852828979492 71.48528289794922 C 102.7517852783203 69.21878814697266 104 66.20531463623047 104 63 L 104 13 C 104 9.794685363769531 102.7517852783203 6.781211853027344 100.4852828979492 4.514717102050781 C 98.21878814697266 2.248214721679688 95.20531463623047 1 92 1 L 13 1 M 13 0 L 92 0 C 99.17970275878906 0 105 5.820297241210938 105 13 L 105 63 C 105 70.17970275878906 99.17970275878906 76 92 76 L 13 76 C 5.820297241210938 76 0 70.17970275878906 0 63 L 0 13 C 0 5.820297241210938 5.820297241210938 0 13 0 Z" stroke="none" fill="#6b8dff"/>
    </g>
    <g id="Trazado_186242" data-name="Trazado 186242" transform="translate(-1591 -7341)" fill="#38cc51">
      <path d="M 92 75.5 L 13 75.5 C 9.661120414733887 75.5 6.522106647491455 74.19977569580078 4.161159992218018 71.83883666992188 C 1.80022668838501 69.47789001464844 0.5 66.33888244628906 0.5 63 L 0.5 13 C 0.5 9.661120414733887 1.80022668838501 6.522106647491455 4.161159992218018 4.161159992218018 C 6.522106647491455 1.80022668838501 9.661120414733887 0.5 13 0.5 L 92 0.5 C 95.33888244628906 0.5 98.47789001464844 1.80022668838501 100.8388366699219 4.161159992218018 C 103.1997756958008 6.522106647491455 104.5 9.661120414733887 104.5 13 L 104.5 63 C 104.5 66.33888244628906 103.1997756958008 69.47789001464844 100.8388366699219 71.83883666992188 C 98.47789001464844 74.19977569580078 95.33888244628906 75.5 92 75.5 Z" stroke="none"/>
      <path d="M 13 1 C 9.794685363769531 1 6.781211853027344 2.248214721679688 4.514717102050781 4.514717102050781 C 2.248214721679688 6.781211853027344 1 9.794685363769531 1 13 L 1 63 C 1 66.20531463623047 2.248214721679688 69.21878814697266 4.514717102050781 71.48528289794922 C 6.781211853027344 73.75178527832031 9.794685363769531 75 13 75 L 92 75 C 95.20531463623047 75 98.21878814697266 73.75178527832031 100.4852828979492 71.48528289794922 C 102.7517852783203 69.21878814697266 104 66.20531463623047 104 63 L 104 13 C 104 9.794685363769531 102.7517852783203 6.781211853027344 100.4852828979492 4.514717102050781 C 98.21878814697266 2.248214721679688 95.20531463623047 1 92 1 L 13 1 M 13 0 L 92 0 C 99.17970275878906 0 105 5.820297241210938 105 13 L 105 63 C 105 70.17970275878906 99.17970275878906 76 92 76 L 13 76 C 5.820297241210938 76 0 70.17970275878906 0 63 L 0 13 C 0 5.820297241210938 5.820297241210938 0 13 0 Z" stroke="none" fill="#38cc51"/>
    </g>
    <g id="Trazado_186243" data-name="Trazado 186243" transform="translate(-1456 -7341)" fill="#6b8dfc">
      <path d="M 92 75.5 L 13 75.5 C 9.661120414733887 75.5 6.522106647491455 74.19977569580078 4.161159992218018 71.83883666992188 C 1.80022668838501 69.47789001464844 0.5 66.33888244628906 0.5 63 L 0.5 13 C 0.5 9.661120414733887 1.80022668838501 6.522106647491455 4.161159992218018 4.161159992218018 C 6.522106647491455 1.80022668838501 9.661120414733887 0.5 13 0.5 L 92 0.5 C 95.33888244628906 0.5 98.47789001464844 1.80022668838501 100.8388366699219 4.161159992218018 C 103.1997756958008 6.522106647491455 104.5 9.661120414733887 104.5 13 L 104.5 63 C 104.5 66.33888244628906 103.1997756958008 69.47789001464844 100.8388366699219 71.83883666992188 C 98.47789001464844 74.19977569580078 95.33888244628906 75.5 92 75.5 Z" stroke="none"/>
      <path d="M 13 1 C 9.794685363769531 1 6.781211853027344 2.248214721679688 4.514717102050781 4.514717102050781 C 2.248214721679688 6.781211853027344 1 9.794685363769531 1 13 L 1 63 C 1 66.20531463623047 2.248214721679688 69.21878814697266 4.514717102050781 71.48528289794922 C 6.781211853027344 73.75178527832031 9.794685363769531 75 13 75 L 92 75 C 95.20531463623047 75 98.21878814697266 73.75178527832031 100.4852828979492 71.48528289794922 C 102.7517852783203 69.21878814697266 104 66.20531463623047 104 63 L 104 13 C 104 9.794685363769531 102.7517852783203 6.781211853027344 100.4852828979492 4.514717102050781 C 98.21878814697266 2.248214721679688 95.20531463623047 1 92 1 L 13 1 M 13 0 L 92 0 C 99.17970275878906 0 105 5.820297241210938 105 13 L 105 63 C 105 70.17970275878906 99.17970275878906 76 92 76 L 13 76 C 5.820297241210938 76 0 70.17970275878906 0 63 L 0 13 C 0 5.820297241210938 5.820297241210938 0 13 0 Z" stroke="none" fill="#6b8dfc"/>
    </g>
    <g id="Trazado_188440" data-name="Trazado 188440" transform="translate(-1321 -7341)" fill="#fc5f65">
      <path d="M 76 75.5 L 13 75.5 C 9.661128997802734 75.5 6.522105693817139 74.19977569580078 4.1611647605896 71.83883666992188 C 1.800223588943481 69.47789764404297 0.5 66.3388671875 0.5 63 L 0.5 13 C 0.5 9.661128997802734 1.800223588943481 6.522105693817139 4.1611647605896 4.1611647605896 C 6.522105693817139 1.800223588943481 9.661128997802734 0.5 13 0.5 L 76 0.5 C 79.3388671875 0.5 82.47789764404297 1.800223588943481 84.83883666992188 4.1611647605896 C 87.19977569580078 6.522105693817139 88.5 9.661128997802734 88.5 13 L 88.5 63 C 88.5 66.3388671875 87.19977569580078 69.47789764404297 84.83883666992188 71.83883666992188 C 82.47789764404297 74.19977569580078 79.3388671875 75.5 76 75.5 Z" stroke="none"/>
      <path d="M 13 1 C 9.794685363769531 1 6.781211853027344 2.248214721679688 4.514717102050781 4.514717102050781 C 2.248214721679688 6.781211853027344 1 9.794685363769531 1 13 L 1 63 C 1 66.20531463623047 2.248214721679688 69.21878814697266 4.514717102050781 71.48528289794922 C 6.781211853027344 73.75178527832031 9.794685363769531 75 13 75 L 76 75 C 79.20531463623047 75 82.21878814697266 73.75178527832031 84.48528289794922 71.48528289794922 C 86.75178527832031 69.21878814697266 88 66.20531463623047 88 63 L 88 13 C 88 9.794685363769531 86.75178527832031 6.781211853027344 84.48528289794922 4.514717102050781 C 82.21878814697266 2.248214721679688 79.20531463623047 1 76 1 L 13 1 M 13 0 L 76 0 C 83.17970275878906 0 89 5.820297241210938 89 13 L 89 63 C 89 70.17970275878906 83.17970275878906 76 76 76 L 13 76 C 5.820297241210938 76 0 70.17970275878906 0 63 L 0 13 C 0 5.820297241210938 5.820297241210938 0 13 0 Z" stroke="none" fill="#ff5f65"/>
    </g>
    <g id="Trazado_188441" data-name="Trazado 188441" transform="translate(-1199 -7341)" fill="#fed947">
      <path d="M 127 75.5 L 13 75.5 C 9.661127090454102 75.5 6.522090911865234 74.19978332519531 4.161163806915283 71.83883666992188 C 1.800218224525452 69.47791290283203 0.5 66.33887481689453 0.5 63 L 0.5 13 C 0.5 9.661127090454102 1.800218224525452 6.522090911865234 4.161163806915283 4.161163806915283 C 6.522090911865234 1.800218224525452 9.661127090454102 0.5 13 0.5 L 127 0.5 C 130.3388671875 0.5 133.4779052734375 1.800218224525452 135.8388366699219 4.161163806915283 C 138.1997833251953 6.522090911865234 139.5 9.661127090454102 139.5 13 L 139.5 63 C 139.5 66.33887481689453 138.1997833251953 69.47791290283203 135.8388366699219 71.83883666992188 C 133.4779052734375 74.19978332519531 130.3388671875 75.5 127 75.5 Z" stroke="none"/>
      <path d="M 13 1 C 9.794677734375 1 6.781219482421875 2.248214721679688 4.51470947265625 4.51470947265625 C 2.248214721679688 6.781219482421875 1 9.794670104980469 1 13 L 1 63 C 1 66.20532989501953 2.248214721679688 69.21878051757812 4.51470947265625 71.48529052734375 C 6.781219482421875 73.75178527832031 9.794677734375 75 13 75 L 127 75 C 130.205322265625 75 133.2187805175781 73.75178527832031 135.4852905273438 71.48529052734375 C 137.7517852783203 69.21878051757812 139 66.20532989501953 139 63 L 139 13 C 139 9.794670104980469 137.7517852783203 6.781219482421875 135.4852905273438 4.51470947265625 C 133.2187805175781 2.248214721679688 130.205322265625 1 127 1 L 13 1 M 13 0 L 127 0 C 134.1797027587891 0 140 5.820289611816406 140 13 L 140 63 C 140 70.17971038818359 134.1797027587891 76 127 76 L 13 76 C 5.820297241210938 76 0 70.17971038818359 0 63 L 0 13 C 0 5.820289611816406 5.820297241210938 0 13 0 Z" stroke="none" fill="#ffd947"/>
    </g>
    <path id="Trazado_188442" data-name="Trazado 188442" d="M8.289,13.961q.164-.93-.914-1.422l-1.508-.6Q3.242,10.766,3.375,8.711A2.964,2.964,0,0,1,4,7.023,3.758,3.758,0,0,1,5.6,5.871a5.67,5.67,0,0,1,2.227-.4,3.857,3.857,0,0,1,2.664.98,3.267,3.267,0,0,1,1,2.543H9.211a1.628,1.628,0,0,0-.34-1.2A1.531,1.531,0,0,0,7.7,7.344,2.37,2.37,0,0,0,6.336,7.7a1.458,1.458,0,0,0-.687,1.02Q5.5,9.57,6.789,10.07l1.031.391.594.273q2.3,1.141,2.156,3.2a3.09,3.09,0,0,1-.645,1.738A3.633,3.633,0,0,1,8.363,16.8a5.565,5.565,0,0,1-2.176.367,4.873,4.873,0,0,1-2.156-.508,3.349,3.349,0,0,1-1.437-1.367,3.54,3.54,0,0,1-.43-1.875l2.289.008q-.109,1.852,1.82,1.883a2.392,2.392,0,0,0,1.375-.367A1.43,1.43,0,0,0,8.289,13.961Zm8.453,2.164a2.919,2.919,0,0,1-2.328,1.031,2.172,2.172,0,0,1-1.844-.875,3.2,3.2,0,0,1-.484-2.266L13,8.547h2.2l-.93,5.5a2.175,2.175,0,0,0-.008.485.8.8,0,0,0,.867.806,2.014,2.014,0,0,0,1.7-.79l1.055-6H20.1L18.633,17H16.578ZM28.4,12.8A6.061,6.061,0,0,1,27.18,16a3.033,3.033,0,0,1-2.547,1.164A2.357,2.357,0,0,1,22.6,16.086l-.32.914H20.273L22.352,5h2.211l-.852,4.32a2.634,2.634,0,0,1,2.063-.93A2.385,2.385,0,0,1,27.7,9.27a3.89,3.89,0,0,1,.746,2.387A9.133,9.133,0,0,1,28.4,12.8Zm-2.187-.165a6.554,6.554,0,0,0,.047-1.034q-.086-1.364-1.125-1.387a1.833,1.833,0,0,0-1.617.885l-.609,3.37a1.258,1.258,0,0,0,1.266.878q1.625.047,1.992-2.367Zm6.68-4.085-1.516,8.914a3.516,3.516,0,0,1-1.02,2.2,2.984,2.984,0,0,1-2.168.773,6.8,6.8,0,0,1-1.172-.148l.18-1.8a4.309,4.309,0,0,0,.68.1,1.2,1.2,0,0,0,1.266-1.125l1.531-8.922ZM30.883,6.4a1.1,1.1,0,0,1,.328-.855,1.328,1.328,0,0,1,1.77-.035,1.108,1.108,0,0,1,.363.813,1.113,1.113,0,0,1-.328.863,1.257,1.257,0,0,1-.883.355,1.235,1.235,0,0,1-.863-.3A1.091,1.091,0,0,1,30.883,6.4Zm6.328,10.758a3.677,3.677,0,0,1-1.965-.543,3.292,3.292,0,0,1-1.277-1.469,4.093,4.093,0,0,1-.328-2.059l.023-.312a5.465,5.465,0,0,1,.719-2.266,4.341,4.341,0,0,1,1.547-1.59,3.827,3.827,0,0,1,2.094-.527,2.924,2.924,0,0,1,2.473,1.2,4.117,4.117,0,0,1,.637,2.962l-.125.962h-5.18a1.814,1.814,0,0,0,.4,1.313,1.521,1.521,0,0,0,1.172.508,2.7,2.7,0,0,0,2.109-.937l1.008,1.25a3.135,3.135,0,0,1-1.375,1.121A4.5,4.5,0,0,1,37.211,17.156Zm.7-6.945a1.565,1.565,0,0,0-1.082.383,3.363,3.363,0,0,0-.848,1.383h3.031l.047-.2a2.071,2.071,0,0,0,.008-.594,1.134,1.134,0,0,0-.383-.707A1.2,1.2,0,0,0,37.914,10.211Zm7.453,5.133a1.447,1.447,0,0,0,1.016-.332,1.632,1.632,0,0,0,.531-.926l2.07-.008a3.037,3.037,0,0,1-.559,1.6,3.394,3.394,0,0,1-1.344,1.109,3.847,3.847,0,0,1-1.77.375A3.123,3.123,0,0,1,42.875,16.1a3.965,3.965,0,0,1-.867-2.766l.023-.43.008-.086a5.284,5.284,0,0,1,1.391-3.27,3.761,3.761,0,0,1,2.914-1.16,3.047,3.047,0,0,1,2.27.934,3.3,3.3,0,0,1,.824,2.379H47.383a1.73,1.73,0,0,0-.3-1.07,1.128,1.128,0,0,0-.891-.422q-1.578-.047-1.914,2.3a7.782,7.782,0,0,0-.086,1.438Q44.273,15.32,45.367,15.344ZM54.3,6.469l-.367,2.078h1.406L55.055,10.2H53.648l-.719,4.234a1.077,1.077,0,0,0,.063.609q.109.211.531.227.125.008.672-.039l-.156,1.727a3.706,3.706,0,0,1-1.266.18,1.985,1.985,0,0,1-1.617-.68,2.456,2.456,0,0,1-.437-1.8l.727-4.461h-1.2l.289-1.656h1.2l.359-2.078ZM10.77,31.93a7.053,7.053,0,0,1-2.809-1.363,2.6,2.6,0,0,1-.879-2,2.751,2.751,0,0,1,1.074-2.223,4.269,4.269,0,0,1,2.793-.879,4.66,4.66,0,0,1,2.09.453,3.436,3.436,0,0,1,1.422,1.25,3.2,3.2,0,0,1,.5,1.742H13.457a2.08,2.08,0,0,0-.656-1.627,2.669,2.669,0,0,0-1.852-.592,2.732,2.732,0,0,0-1.73.489A1.632,1.632,0,0,0,8.6,28.542a1.468,1.468,0,0,0,.59,1.178,5.785,5.785,0,0,0,2.008.88,9.316,9.316,0,0,1,2.219.88A3.367,3.367,0,0,1,14.6,32.6a2.861,2.861,0,0,1,.387,1.508,2.658,2.658,0,0,1-1.078,2.215,4.6,4.6,0,0,1-2.883.832,5.347,5.347,0,0,1-2.187-.449,3.681,3.681,0,0,1-1.566-1.23A3,3,0,0,1,6.723,33.7H8.23a1.959,1.959,0,0,0,.762,1.629,3.207,3.207,0,0,0,2.035.6,2.948,2.948,0,0,0,1.82-.484,1.573,1.573,0,0,0,.633-1.32,1.545,1.545,0,0,0-.586-1.293A6.755,6.755,0,0,0,10.77,31.93ZM21.9,36.164a3.07,3.07,0,0,1-2.477.992,2.628,2.628,0,0,1-2.059-.785,3.4,3.4,0,0,1-.715-2.324v-5.5H18.1v5.461q0,1.922,1.563,1.922a2.163,2.163,0,0,0,2.2-1.234V28.547h1.445V37H21.934ZM27,28.547v9.43q0,2.438-2.211,2.438a2.7,2.7,0,0,1-.883-.14V39.125a2.794,2.794,0,0,0,.656.063.982.982,0,0,0,.738-.262,1.3,1.3,0,0,0,.254-.911V28.547ZM25.4,26.3a.867.867,0,0,1,.215-.59.79.79,0,0,1,.629-.246.819.819,0,0,1,.641.242.854.854,0,0,1,.219.594.826.826,0,0,1-.219.586.834.834,0,0,1-.641.234.808.808,0,0,1-.633-.234A.843.843,0,0,1,25.4,26.3Zm7.43,10.852a3.693,3.693,0,0,1-2.8-1.129,4.19,4.19,0,0,1-1.078-3.02v-.266a5.073,5.073,0,0,1,.48-2.246,3.748,3.748,0,0,1,1.344-1.547,3.378,3.378,0,0,1,1.871-.559,3.166,3.166,0,0,1,2.563,1.086,4.7,4.7,0,0,1,.914,3.109v.6H30.4a3,3,0,0,0,.73,2.02,2.3,2.3,0,0,0,1.777.77,2.517,2.517,0,0,0,1.3-.312,3.258,3.258,0,0,0,.93-.828l.883.688A3.55,3.55,0,0,1,32.832,37.156Zm-.18-7.578a1.928,1.928,0,0,0-1.469.637A3.1,3.1,0,0,0,30.449,32h4.234v-.109a2.753,2.753,0,0,0-.594-1.707A1.815,1.815,0,0,0,32.652,29.578ZM39.762,26.5v2.047H41.34v1.117H39.762v5.249a1.173,1.173,0,0,0,.211.763.888.888,0,0,0,.719.254,3.5,3.5,0,0,0,.688-.094V37a4.215,4.215,0,0,1-1.109.155,1.8,1.8,0,0,1-1.461-.586,2.517,2.517,0,0,1-.492-1.664V29.664H36.777V28.547h1.539V26.5Zm2.727,6.2a4.993,4.993,0,0,1,.488-2.234,3.643,3.643,0,0,1,1.359-1.531,3.7,3.7,0,0,1,1.988-.539,3.565,3.565,0,0,1,2.793,1.2,4.6,4.6,0,0,1,1.066,3.18v.1a5.036,5.036,0,0,1-.473,2.215,3.589,3.589,0,0,1-1.352,1.527,3.743,3.743,0,0,1-2.02.547,3.556,3.556,0,0,1-2.785-1.2A4.575,4.575,0,0,1,42.488,32.8Zm1.453.172a3.616,3.616,0,0,0,.652,2.258,2.211,2.211,0,0,0,3.5-.012,3.955,3.955,0,0,0,.648-2.418,3.61,3.61,0,0,0-.66-2.254,2.1,2.1,0,0,0-1.754-.863,2.075,2.075,0,0,0-1.727.852A3.925,3.925,0,0,0,43.941,32.867Z" transform="translate(-1702 -7322)" fill="#fff"/>
    <path id="Trazado_188443" data-name="Trazado 188443" d="M8.4,14.656H4.43L3.258,17H.734L6.813,5.625H8.93L11.094,17H8.758Zm-3.031-1.9H8.109L7.469,8.523Zm11.875,3.367a2.919,2.919,0,0,1-2.328,1.031,2.172,2.172,0,0,1-1.844-.875,3.2,3.2,0,0,1-.484-2.266L13.5,8.547h2.2l-.93,5.5a2.175,2.175,0,0,0-.008.485.8.8,0,0,0,.867.806,2.014,2.014,0,0,0,1.7-.79l1.055-6H20.6L19.133,17H17.078Zm7.6-5.07,1.773-2.508h2.477L26.031,12.8,27.742,17H25.508l-1.039-2.641L22.6,17H20.109L23.3,12.578,21.664,8.547H23.9ZM31.078,17H28.859l1.469-8.453h2.219ZM30.586,6.4a1.1,1.1,0,0,1,.344-.867,1.323,1.323,0,0,1,1.734-.039,1.1,1.1,0,0,1,.383.828,1.132,1.132,0,0,1-.324.844,1.215,1.215,0,0,1-.887.375,1.235,1.235,0,0,1-.863-.3A1.091,1.091,0,0,1,30.586,6.4ZM35.273,17H33.055L35.141,5h2.211Zm4.2,0H37.25l1.469-8.453h2.219ZM38.977,6.4a1.1,1.1,0,0,1,.344-.867,1.323,1.323,0,0,1,1.734-.039,1.1,1.1,0,0,1,.383.828,1.132,1.132,0,0,1-.324.844,1.215,1.215,0,0,1-.887.375,1.235,1.235,0,0,1-.863-.3A1.091,1.091,0,0,1,38.977,6.4ZM46.227,17a2.281,2.281,0,0,1-.086-.766,2.863,2.863,0,0,1-2.156.922,2.594,2.594,0,0,1-1.84-.723,2.186,2.186,0,0,1-.684-1.746,2.527,2.527,0,0,1,1.16-2.121,5.266,5.266,0,0,1,2.965-.738l1.031.016.109-.508a1.764,1.764,0,0,0,.023-.492.846.846,0,0,0-.277-.574.955.955,0,0,0-.629-.215,1.345,1.345,0,0,0-.875.254,1.231,1.231,0,0,0-.461.777l-2.211.008A2.457,2.457,0,0,1,43.41,9.129a4.312,4.312,0,0,1,2.613-.738,3.117,3.117,0,0,1,2.25.855,2.5,2.5,0,0,1,.68,2.121L48.3,15.414l-.039.5a2.412,2.412,0,0,0,.133.938L48.391,17Zm-1.7-1.555a2.017,2.017,0,0,0,1.664-.828l.273-1.461-.766-.008a2.139,2.139,0,0,0-1.758.742,1.292,1.292,0,0,0-.242.633.75.75,0,0,0,.176.668A.891.891,0,0,0,44.531,15.445Zm10.992-4.781a4.548,4.548,0,0,0-.742-.078,2.136,2.136,0,0,0-1.867.883L51.938,17h-2.2L51.2,8.547l2.07-.008-.2,1.031a2.325,2.325,0,0,1,1.969-1.2,3.214,3.214,0,0,1,.766.109ZM6.141,32.406a13.2,13.2,0,0,1,1.668-4.988,7.175,7.175,0,0,1,3.246-3.066l.375,1.258q-2.672,2.039-3.383,6.555a19.376,19.376,0,0,0-.258,2.75q-.039,3.211,1.469,4.461l-.492,1.18a5.13,5.13,0,0,1-2.359-3.242A10.87,10.87,0,0,1,6.008,34a13.121,13.121,0,0,1,.1-1.406ZM15.2,26.469l-.367,2.078h1.406L15.953,30.2H14.547l-.719,4.234a1.077,1.077,0,0,0,.063.609q.109.211.531.227.125.008.672-.039l-.156,1.727a3.706,3.706,0,0,1-1.266.18,1.985,1.985,0,0,1-1.617-.68,2.456,2.456,0,0,1-.437-1.8l.727-4.461h-1.2l.289-1.656h1.2l.359-2.078Zm5.453,1.922a3.39,3.39,0,0,1,1.926.574A3.234,3.234,0,0,1,23.77,30.5a4.762,4.762,0,0,1,.27,2.176,5.143,5.143,0,0,1-1.4,3.262,3.96,3.96,0,0,1-3.02,1.215,3.38,3.38,0,0,1-1.906-.566,3.222,3.222,0,0,1-1.187-1.527,4.657,4.657,0,0,1-.273-2.156,5.3,5.3,0,0,1,1.422-3.328A3.878,3.878,0,0,1,20.656,28.391ZM18.43,33.706a1.95,1.95,0,0,0,.352,1.182,1.168,1.168,0,0,0,.945.449A1.712,1.712,0,0,0,21.32,34.4a4.647,4.647,0,0,0,.539-2.531,2.122,2.122,0,0,0-.363-1.2,1.149,1.149,0,0,0-.949-.464,1.715,1.715,0,0,0-1.574.924A4.6,4.6,0,0,0,18.43,33.706Zm14.383-5.323a2.4,2.4,0,0,1,1.906.945L35.547,25h2.211L35.68,37H33.711l.125-.906a2.736,2.736,0,0,1-2.2,1.07,2.433,2.433,0,0,1-1.383-.414,2.607,2.607,0,0,1-.918-1.168,4.7,4.7,0,0,1-.355-1.7A6.4,6.4,0,0,1,29,32.93l.047-.352A6.767,6.767,0,0,1,29.77,30.3a3.766,3.766,0,0,1,1.313-1.461A3.094,3.094,0,0,1,32.813,28.383Zm-1.6,4.547a6.327,6.327,0,0,0-.039,1q.078,1.375,1.109,1.4a1.885,1.885,0,0,0,1.617-.875l.6-3.359a1.248,1.248,0,0,0-1.219-.875,1.606,1.606,0,0,0-1.34.621A4.176,4.176,0,0,0,31.211,32.93Zm11.063-4.539a3.39,3.39,0,0,1,1.926.574A3.234,3.234,0,0,1,45.387,30.5a4.762,4.762,0,0,1,.27,2.176,5.143,5.143,0,0,1-1.4,3.262,3.96,3.96,0,0,1-3.02,1.215,3.38,3.38,0,0,1-1.906-.566,3.222,3.222,0,0,1-1.187-1.527,4.657,4.657,0,0,1-.273-2.156,5.3,5.3,0,0,1,1.422-3.328A3.878,3.878,0,0,1,42.273,28.391Zm-2.227,5.315a1.95,1.95,0,0,0,.352,1.182,1.168,1.168,0,0,0,.945.449,1.712,1.712,0,0,0,1.594-.932,4.647,4.647,0,0,0,.539-2.531,2.122,2.122,0,0,0-.363-1.2,1.149,1.149,0,0,0-.949-.464,1.715,1.715,0,0,0-1.574.924A4.6,4.6,0,0,0,40.047,33.706Zm5.781,6.873-.375-1.234q2.68-2.07,3.383-6.625a19.275,19.275,0,0,0,.242-2.7q.039-3.211-1.453-4.469l.492-1.18A4.565,4.565,0,0,1,49.7,25.832a6.725,6.725,0,0,1,.977,2.309,11.6,11.6,0,0,1,.3,2.781,13.865,13.865,0,0,1-.75,4.223,11.039,11.039,0,0,1-1.84,3.441A6.68,6.68,0,0,1,45.828,40.578Z" transform="translate(-1567 -7322)" fill="#12263f"/>
    <path id="Trazado_188444" data-name="Trazado 188444" d="M14.238,17H12.02L8.855,9.414,7.535,17H5.246L7.223,5.625H9.434l3.172,7.6,1.32-7.6h2.281Zm5.922.156a3.677,3.677,0,0,1-1.965-.543,3.292,3.292,0,0,1-1.277-1.469,4.093,4.093,0,0,1-.328-2.059l.023-.312a5.465,5.465,0,0,1,.719-2.266,4.341,4.341,0,0,1,1.547-1.59,3.827,3.827,0,0,1,2.094-.527,2.924,2.924,0,0,1,2.473,1.2,4.117,4.117,0,0,1,.637,2.962l-.125.962h-5.18a1.814,1.814,0,0,0,.4,1.313,1.521,1.521,0,0,0,1.172.508,2.7,2.7,0,0,0,2.109-.937l1.008,1.25A3.135,3.135,0,0,1,22.09,16.77,4.5,4.5,0,0,1,20.16,17.156Zm.7-6.945a1.565,1.565,0,0,0-1.082.383,3.363,3.363,0,0,0-.848,1.383h3.031l.047-.2a2.071,2.071,0,0,0,.008-.594,1.134,1.134,0,0,0-.383-.707A1.2,1.2,0,0,0,20.863,10.211Zm4.172,2.555a5.849,5.849,0,0,1,1.277-3.184,3.242,3.242,0,0,1,2.629-1.2,2.37,2.37,0,0,1,2.016.977l.289-.82,2.023.008-1.383,8.164a3.983,3.983,0,0,1-1.437,2.672,4.471,4.471,0,0,1-3,.953,4.168,4.168,0,0,1-1.672-.379,3.575,3.575,0,0,1-1.312-1l1.094-1.344a2.349,2.349,0,0,0,1.844.961,2.166,2.166,0,0,0,1.469-.449,2.4,2.4,0,0,0,.828-1.355l.125-.508a2.749,2.749,0,0,1-2.07.891,2.428,2.428,0,0,1-1.961-.918,3.947,3.947,0,0,1-.8-2.348A7.89,7.89,0,0,1,25.035,12.766Zm2.164.927a2.02,2.02,0,0,0,.309,1.178,1.08,1.08,0,0,0,.895.466A1.972,1.972,0,0,0,30,14.569l.656-3.583a1.3,1.3,0,0,0-1.242-.767,1.728,1.728,0,0,0-1.43.681,3.561,3.561,0,0,0-.734,1.87A8.214,8.214,0,0,0,27.2,13.693ZM38.441,17a2.281,2.281,0,0,1-.086-.766,2.863,2.863,0,0,1-2.156.922,2.594,2.594,0,0,1-1.84-.723,2.186,2.186,0,0,1-.684-1.746,2.527,2.527,0,0,1,1.16-2.121,5.266,5.266,0,0,1,2.965-.738l1.031.016.109-.508a1.764,1.764,0,0,0,.023-.492.846.846,0,0,0-.277-.574.955.955,0,0,0-.629-.215,1.345,1.345,0,0,0-.875.254,1.231,1.231,0,0,0-.461.777l-2.211.008a2.457,2.457,0,0,1,1.113-1.965,4.312,4.312,0,0,1,2.613-.738,3.117,3.117,0,0,1,2.25.855,2.5,2.5,0,0,1,.68,2.121l-.648,4.047-.039.5a2.412,2.412,0,0,0,.133.938L40.605,17Zm-1.7-1.555a2.017,2.017,0,0,0,1.664-.828l.273-1.461-.766-.008a2.139,2.139,0,0,0-1.758.742,1.292,1.292,0,0,0-.242.633.75.75,0,0,0,.176.668A.891.891,0,0,0,36.746,15.445Zm8.906-.1a1.447,1.447,0,0,0,1.016-.332,1.632,1.632,0,0,0,.531-.926l2.07-.008a3.037,3.037,0,0,1-.559,1.6,3.394,3.394,0,0,1-1.344,1.109,3.847,3.847,0,0,1-1.77.375A3.123,3.123,0,0,1,43.16,16.1a3.965,3.965,0,0,1-.867-2.766l.023-.43.008-.086a5.284,5.284,0,0,1,1.391-3.27,3.761,3.761,0,0,1,2.914-1.16,3.047,3.047,0,0,1,2.27.934,3.3,3.3,0,0,1,.824,2.379H47.668a1.73,1.73,0,0,0-.3-1.07,1.128,1.128,0,0,0-.891-.422q-1.578-.047-1.914,2.3a7.782,7.782,0,0,0-.086,1.438Q44.559,15.32,45.652,15.344ZM52.449,17H50.23L51.7,8.547h2.219ZM51.957,6.4a1.1,1.1,0,0,1,.344-.867,1.323,1.323,0,0,1,1.734-.039,1.1,1.1,0,0,1,.383.828,1.132,1.132,0,0,1-.324.844,1.215,1.215,0,0,1-.887.375,1.235,1.235,0,0,1-.863-.3A1.091,1.091,0,0,1,51.957,6.4Zm7.2,1.992a3.39,3.39,0,0,1,1.926.574A3.234,3.234,0,0,1,62.266,10.5a4.762,4.762,0,0,1,.27,2.176,5.143,5.143,0,0,1-1.4,3.262,3.96,3.96,0,0,1-3.02,1.215,3.38,3.38,0,0,1-1.906-.566,3.222,3.222,0,0,1-1.187-1.527,4.657,4.657,0,0,1-.273-2.156,5.3,5.3,0,0,1,1.422-3.328A3.878,3.878,0,0,1,59.152,8.391Zm-2.227,5.315a1.95,1.95,0,0,0,.352,1.182,1.168,1.168,0,0,0,.945.449,1.712,1.712,0,0,0,1.594-.932,4.647,4.647,0,0,0,.539-2.531,2.122,2.122,0,0,0-.363-1.2,1.149,1.149,0,0,0-.949-.464,1.715,1.715,0,0,0-1.574.924A4.6,4.6,0,0,0,56.926,13.706ZM60.168,5h2.555L60.238,7.422H58.293Zm6.484,3.539-.187,1a3.042,3.042,0,0,1,2.461-1.148,2.028,2.028,0,0,1,1.766.875,3.526,3.526,0,0,1,.414,2.359L70.215,17h-2.2l.906-5.4a2.528,2.528,0,0,0,.016-.555.9.9,0,0,0-1-.82,1.9,1.9,0,0,0-1.555.8L65.324,17h-2.2L64.59,8.547Z" transform="translate(-1442 -7313)" fill="#12263f"/>
    <path id="Trazado_188445" data-name="Trazado 188445" d="M17.609,14.156l3.828-8.531h2.625L18.445,17H16.055L14.008,5.625h2.461Zm9.531,3a3.677,3.677,0,0,1-1.965-.543A3.292,3.292,0,0,1,23.9,15.145a4.093,4.093,0,0,1-.328-2.059l.023-.312a5.465,5.465,0,0,1,.719-2.266,4.341,4.341,0,0,1,1.547-1.59,3.827,3.827,0,0,1,2.094-.527,2.924,2.924,0,0,1,2.473,1.2,4.117,4.117,0,0,1,.637,2.962l-.125.962h-5.18a1.814,1.814,0,0,0,.4,1.313,1.521,1.521,0,0,0,1.172.508,2.7,2.7,0,0,0,2.109-.937l1.008,1.25A3.135,3.135,0,0,1,29.07,16.77,4.5,4.5,0,0,1,27.141,17.156Zm.7-6.945a1.565,1.565,0,0,0-1.082.383,3.363,3.363,0,0,0-.848,1.383h3.031l.047-.2A2.071,2.071,0,0,0,29,11.18a1.134,1.134,0,0,0-.383-.707A1.2,1.2,0,0,0,27.844,10.211Zm9.539.453a4.548,4.548,0,0,0-.742-.078,2.136,2.136,0,0,0-1.867.883L33.8,17h-2.2l1.469-8.453,2.07-.008-.2,1.031a2.325,2.325,0,0,1,1.969-1.2,3.214,3.214,0,0,1,.766.109ZM45.461,12.8A6.061,6.061,0,0,1,44.242,16,3.033,3.033,0,0,1,41.7,17.164a2.357,2.357,0,0,1-2.031-1.078l-.32.914H37.336L39.414,5h2.211l-.852,4.32a2.634,2.634,0,0,1,2.063-.93,2.385,2.385,0,0,1,1.926.879,3.89,3.89,0,0,1,.746,2.387A9.132,9.132,0,0,1,45.461,12.8Zm-2.187-.165A6.554,6.554,0,0,0,43.32,11.6q-.086-1.364-1.125-1.387a1.833,1.833,0,0,0-1.617.885l-.609,3.37a1.258,1.258,0,0,0,1.266.878q1.625.047,1.992-2.367ZM13.5,39.008l3.25-9.383h1.641L14.172,41H12.844L8.633,29.625h1.633Zm9.7,2.148a3.693,3.693,0,0,1-2.8-1.129,4.19,4.19,0,0,1-1.078-3.02v-.266A5.073,5.073,0,0,1,19.8,34.5a3.748,3.748,0,0,1,1.344-1.547,3.378,3.378,0,0,1,1.871-.559,3.166,3.166,0,0,1,2.563,1.086,4.7,4.7,0,0,1,.914,3.109v.6H20.766a3,3,0,0,0,.73,2.02,2.3,2.3,0,0,0,1.777.77,2.517,2.517,0,0,0,1.3-.312,3.259,3.259,0,0,0,.93-.828l.883.688A3.55,3.55,0,0,1,23.2,41.156Zm-.18-7.578a1.928,1.928,0,0,0-1.469.637A3.1,3.1,0,0,0,20.813,36h4.234v-.109a2.753,2.753,0,0,0-.594-1.707A1.815,1.815,0,0,0,23.016,33.578Zm9.234.266a4.331,4.331,0,0,0-.711-.055A1.9,1.9,0,0,0,29.609,35v6H28.164V32.547H29.57l.023.977a2.251,2.251,0,0,1,2.016-1.133,1.477,1.477,0,0,1,.641.109Zm8.484,3.023a5.026,5.026,0,0,1-.891,3.113,2.846,2.846,0,0,1-2.391,1.176,2.947,2.947,0,0,1-2.477-1.133l-.07.977H33.578V29h1.445v4.477a2.93,2.93,0,0,1,2.414-1.086,2.863,2.863,0,0,1,2.418,1.164,5.177,5.177,0,0,1,.879,3.188ZM39.289,36.7a3.906,3.906,0,0,0-.57-2.281,1.888,1.888,0,0,0-1.641-.8,2.122,2.122,0,0,0-2.055,1.328V38.6a2.181,2.181,0,0,0,2.07,1.328,1.878,1.878,0,0,0,1.617-.8A4.153,4.153,0,0,0,39.289,36.7Zm2.883-.008a4.993,4.993,0,0,1,.488-2.234A3.643,3.643,0,0,1,44.02,32.93a3.7,3.7,0,0,1,1.988-.539,3.565,3.565,0,0,1,2.793,1.2,4.6,4.6,0,0,1,1.066,3.18v.1a5.036,5.036,0,0,1-.473,2.215,3.589,3.589,0,0,1-1.352,1.527,3.743,3.743,0,0,1-2.02.547,3.556,3.556,0,0,1-2.785-1.2A4.575,4.575,0,0,1,42.172,36.8Zm1.453.172a3.616,3.616,0,0,0,.652,2.258,2.211,2.211,0,0,0,3.5-.012,3.955,3.955,0,0,0,.648-2.418,3.61,3.61,0,0,0-.66-2.254,2.1,2.1,0,0,0-1.754-.863,2.075,2.075,0,0,0-1.727.852A3.925,3.925,0,0,0,43.625,36.867Z" transform="translate(-1306 -7323)" fill="#12263f"/>
    <path id="Trazado_188446" data-name="Trazado 188446" d="M9.271,18.9h5v4.233h-5v5.728H4.656V23.134H-.354V18.9h5.01V13.334H9.271Z" transform="translate(-1612 -7322)" fill="#3c3fa7"/>
    <path id="Trazado_188447" data-name="Trazado 188447" d="M9.271,18.9h5v4.233h-5v5.728H4.656V23.134H-.354V18.9h5.01V13.334H9.271Z" transform="translate(-1477 -7322)" fill="#3c3fa7"/>
    <path id="Trazado_188448" data-name="Trazado 188448" d="M9.271,18.9h5v4.233h-5v5.728H4.656V23.134H-.354V18.9h5.01V13.334H9.271Z" transform="translate(-1342 -7322)" fill="#3c3fa7"/>
    <path id="Trazado_188449" data-name="Trazado 188449" d="M9.271,18.9h5v4.233h-5v5.728H4.656V23.134H-.354V18.9h5.01V13.334H9.271Z" transform="translate(-1221 -7322)" fill="#3c3fa7"/>
    <path id="Trazado_188450" data-name="Trazado 188450" d="M15.859,13.2a4.254,4.254,0,0,1-.8,2.09,4.375,4.375,0,0,1-1.75,1.4,5.329,5.329,0,0,1-2.328.465,3.936,3.936,0,0,1-1.961-.52A3.443,3.443,0,0,1,7.7,15.2a5.312,5.312,0,0,1-.543-2.168,10.634,10.634,0,0,1,.2-2.391A7.578,7.578,0,0,1,8.262,8.1,5.666,5.666,0,0,1,9.813,6.344,4.679,4.679,0,0,1,12.7,5.469a3.839,3.839,0,0,1,2.8,1.09A4.384,4.384,0,0,1,16.641,9.5l-2.281-.008a2.391,2.391,0,0,0-.43-1.578,1.752,1.752,0,0,0-1.336-.531,2.319,2.319,0,0,0-1.926.836,5.027,5.027,0,0,0-1.012,2.555,14.155,14.155,0,0,0-.219,2.445,2.434,2.434,0,0,0,.461,1.52,1.543,1.543,0,0,0,1.18.512,2.356,2.356,0,0,0,1.676-.5,2.625,2.625,0,0,0,.832-1.535Zm5.656-4.812a3.39,3.39,0,0,1,1.926.574A3.234,3.234,0,0,1,24.629,10.5a4.762,4.762,0,0,1,.27,2.176,5.143,5.143,0,0,1-1.4,3.262,3.96,3.96,0,0,1-3.02,1.215,3.38,3.38,0,0,1-1.906-.566,3.222,3.222,0,0,1-1.187-1.527,4.657,4.657,0,0,1-.273-2.156,5.3,5.3,0,0,1,1.422-3.328A3.878,3.878,0,0,1,21.516,8.391Zm-2.227,5.315a1.95,1.95,0,0,0,.352,1.182,1.168,1.168,0,0,0,.945.449A1.712,1.712,0,0,0,22.18,14.4a4.647,4.647,0,0,0,.539-2.531,2.122,2.122,0,0,0-.363-1.2,1.149,1.149,0,0,0-.949-.464,1.715,1.715,0,0,0-1.574.924A4.6,4.6,0,0,0,19.289,13.706Zm9.758-5.167-.18.961a3.112,3.112,0,0,1,2.477-1.109,2.379,2.379,0,0,1,1.3.359,1.679,1.679,0,0,1,.7.93,3.255,3.255,0,0,1,2.625-1.289,2.126,2.126,0,0,1,1.754.8,3.271,3.271,0,0,1,.5,2.234l-.016.2L37.3,17H35.086l.9-5.4a3.908,3.908,0,0,0,.023-.54.837.837,0,0,0-.937-.845,1.86,1.86,0,0,0-1.555.97l-.023.18L32.508,17H30.3l.9-5.383a3.9,3.9,0,0,0,.023-.539.836.836,0,0,0-.93-.852,1.867,1.867,0,0,0-1.508.789L27.734,17h-2.2l1.461-8.453ZM47.164,12.8a6.981,6.981,0,0,1-.7,2.359,3.826,3.826,0,0,1-1.32,1.531,3.058,3.058,0,0,1-1.75.477,2.44,2.44,0,0,1-1.937-.914l-.773,4h-2.2l2.023-11.7,2.031-.008-.148.852a2.7,2.7,0,0,1,2.156-1,2.4,2.4,0,0,1,1.93.9,3.922,3.922,0,0,1,.734,2.363A9.132,9.132,0,0,1,47.164,12.8Zm-2.187-.16.047-.751a2.089,2.089,0,0,0-.277-1.205,1,1,0,0,0-.855-.462,1.818,1.818,0,0,0-1.586.814l-.633,3.49a1.233,1.233,0,0,0,1.242.822,1.59,1.59,0,0,0,1.328-.618A4.234,4.234,0,0,0,44.977,12.636ZM50.188,17H47.969L50.055,5h2.211Zm5.883.156a3.677,3.677,0,0,1-1.965-.543,3.292,3.292,0,0,1-1.277-1.469,4.093,4.093,0,0,1-.328-2.059l.023-.312a5.465,5.465,0,0,1,.719-2.266,4.341,4.341,0,0,1,1.547-1.59,3.827,3.827,0,0,1,2.094-.527,2.924,2.924,0,0,1,2.473,1.2,4.117,4.117,0,0,1,.637,2.962l-.125.962h-5.18a1.814,1.814,0,0,0,.4,1.313,1.521,1.521,0,0,0,1.172.508,2.7,2.7,0,0,0,2.109-.937l1.008,1.25A3.135,3.135,0,0,1,58,16.77,4.5,4.5,0,0,1,56.07,17.156Zm.7-6.945a1.565,1.565,0,0,0-1.082.383,3.363,3.363,0,0,0-.848,1.383h3.031l.047-.2a2.071,2.071,0,0,0,.008-.594,1.134,1.134,0,0,0-.383-.707A1.2,1.2,0,0,0,56.773,10.211Zm7.266-1.672-.18.961a3.112,3.112,0,0,1,2.477-1.109,2.379,2.379,0,0,1,1.3.359,1.679,1.679,0,0,1,.7.93,3.255,3.255,0,0,1,2.625-1.289,2.126,2.126,0,0,1,1.754.8,3.271,3.271,0,0,1,.5,2.234l-.016.2L72.289,17H70.078l.9-5.4a3.907,3.907,0,0,0,.023-.54.837.837,0,0,0-.937-.845,1.86,1.86,0,0,0-1.555.97l-.023.18L67.5,17H65.3l.9-5.383a3.9,3.9,0,0,0,.023-.539.836.836,0,0,0-.93-.852,1.867,1.867,0,0,0-1.508.789L62.727,17h-2.2l1.461-8.453Zm14.016,8.617a3.677,3.677,0,0,1-1.965-.543,3.292,3.292,0,0,1-1.277-1.469,4.093,4.093,0,0,1-.328-2.059l.023-.312a5.465,5.465,0,0,1,.719-2.266,4.341,4.341,0,0,1,1.547-1.59,3.827,3.827,0,0,1,2.094-.527,2.924,2.924,0,0,1,2.473,1.2,4.117,4.117,0,0,1,.637,2.962l-.125.962h-5.18a1.814,1.814,0,0,0,.4,1.313,1.521,1.521,0,0,0,1.172.508,2.7,2.7,0,0,0,2.109-.937l1.008,1.25a3.135,3.135,0,0,1-1.375,1.121A4.5,4.5,0,0,1,78.055,17.156Zm.7-6.945a1.565,1.565,0,0,0-1.082.383,3.363,3.363,0,0,0-.848,1.383h3.031l.047-.2a2.071,2.071,0,0,0,.008-.594,1.134,1.134,0,0,0-.383-.707A1.2,1.2,0,0,0,78.758,10.211Zm7.234-1.672-.187,1a3.042,3.042,0,0,1,2.461-1.148,2.028,2.028,0,0,1,1.766.875,3.526,3.526,0,0,1,.414,2.359L89.555,17h-2.2l.906-5.4a2.528,2.528,0,0,0,.016-.555.9.9,0,0,0-1-.82,1.9,1.9,0,0,0-1.555.8L84.664,17h-2.2L83.93,8.547Zm9.758-2.07-.367,2.078h1.406L96.5,10.2H95.094l-.719,4.234a1.077,1.077,0,0,0,.063.609q.109.211.531.227.125.008.672-.039l-.156,1.727a3.706,3.706,0,0,1-1.266.18,1.985,1.985,0,0,1-1.617-.68,2.456,2.456,0,0,1-.437-1.8l.727-4.461H91.7l.289-1.656h1.2l.359-2.078ZM10.977,33.391a4.185,4.185,0,0,1-1.332,2.785,4.365,4.365,0,0,1-2.98.98,4.008,4.008,0,0,1-3.23-1.445,5.815,5.815,0,0,1-1.215-3.867V30.75a6.481,6.481,0,0,1,.566-2.789,4.231,4.231,0,0,1,1.605-1.848A4.47,4.47,0,0,1,6.8,25.469,4.11,4.11,0,0,1,9.7,26.48a4.235,4.235,0,0,1,1.273,2.8H9.469a3.268,3.268,0,0,0-.848-1.975A2.565,2.565,0,0,0,6.8,26.7a2.684,2.684,0,0,0-2.254,1.063,4.882,4.882,0,0,0-.816,3.026v1.1A5.018,5.018,0,0,0,4.5,34.835,2.5,2.5,0,0,0,6.664,35.93a2.886,2.886,0,0,0,1.918-.566,3.143,3.143,0,0,0,.887-1.973Zm1.438-.7a4.993,4.993,0,0,1,.488-2.234,3.643,3.643,0,0,1,1.359-1.531,3.7,3.7,0,0,1,1.988-.539,3.565,3.565,0,0,1,2.793,1.2,4.6,4.6,0,0,1,1.066,3.18v.1a5.036,5.036,0,0,1-.473,2.215,3.589,3.589,0,0,1-1.352,1.527,3.743,3.743,0,0,1-2.02.547,3.556,3.556,0,0,1-2.785-1.2A4.575,4.575,0,0,1,12.414,32.8Zm1.453.172a3.616,3.616,0,0,0,.652,2.258,2.211,2.211,0,0,0,3.5-.012,3.955,3.955,0,0,0,.648-2.418A3.61,3.61,0,0,0,18,30.441a2.1,2.1,0,0,0-1.754-.863,2.075,2.075,0,0,0-1.727.852A3.925,3.925,0,0,0,13.867,32.867Zm9.414-4.32.039.938a3.122,3.122,0,0,1,2.508-1.094,2.417,2.417,0,0,1,2.414,1.359,3.2,3.2,0,0,1,1.1-.984,3.242,3.242,0,0,1,1.6-.375q2.781,0,2.828,2.945V37H32.32V31.422a1.941,1.941,0,0,0-.414-1.355,1.823,1.823,0,0,0-1.391-.449,1.916,1.916,0,0,0-1.336.48,1.949,1.949,0,0,0-.617,1.293V37H27.109V31.461a1.613,1.613,0,0,0-1.8-1.844,1.934,1.934,0,0,0-1.945,1.211V37H21.914V28.547Zm19.8,4.32a5.062,5.062,0,0,1-.883,3.109,2.829,2.829,0,0,1-2.391,1.18,3.1,3.1,0,0,1-2.422-.977v4.07H35.945v-11.7h1.32l.07.938a2.977,2.977,0,0,1,2.453-1.094,2.882,2.882,0,0,1,2.41,1.148,5.117,5.117,0,0,1,.887,3.2ZM41.641,32.7a3.735,3.735,0,0,0-.609-2.258,1.963,1.963,0,0,0-1.672-.828,2.125,2.125,0,0,0-1.969,1.164V34.82a2.129,2.129,0,0,0,1.984,1.156,1.954,1.954,0,0,0,1.652-.824A4.077,4.077,0,0,0,41.641,32.7ZM46.492,37H45.047V25h1.445Zm5.82.156a3.693,3.693,0,0,1-2.8-1.129,4.19,4.19,0,0,1-1.078-3.02v-.266a5.073,5.073,0,0,1,.48-2.246,3.748,3.748,0,0,1,1.344-1.547,3.378,3.378,0,0,1,1.871-.559A3.166,3.166,0,0,1,54.7,29.477a4.7,4.7,0,0,1,.914,3.109v.6H49.883a3,3,0,0,0,.73,2.02,2.3,2.3,0,0,0,1.777.77,2.517,2.517,0,0,0,1.3-.312,3.258,3.258,0,0,0,.93-.828l.883.688A3.55,3.55,0,0,1,52.313,37.156Zm-.18-7.578a1.928,1.928,0,0,0-1.469.637A3.1,3.1,0,0,0,49.93,32h4.234v-.109a2.753,2.753,0,0,0-.594-1.707A1.815,1.815,0,0,0,52.133,29.578Zm6.508-1.031.039.938a3.122,3.122,0,0,1,2.508-1.094A2.417,2.417,0,0,1,63.6,29.75a3.2,3.2,0,0,1,1.1-.984,3.242,3.242,0,0,1,1.6-.375q2.781,0,2.828,2.945V37H67.68V31.422a1.941,1.941,0,0,0-.414-1.355,1.823,1.823,0,0,0-1.391-.449,1.916,1.916,0,0,0-1.336.48,1.949,1.949,0,0,0-.617,1.293V37H62.469V31.461a1.613,1.613,0,0,0-1.8-1.844,1.934,1.934,0,0,0-1.945,1.211V37H57.273V28.547Zm16.172,8.609a3.693,3.693,0,0,1-2.8-1.129,4.19,4.19,0,0,1-1.078-3.02v-.266a5.073,5.073,0,0,1,.48-2.246,3.748,3.748,0,0,1,1.344-1.547,3.378,3.378,0,0,1,1.871-.559A3.166,3.166,0,0,1,77.2,29.477a4.7,4.7,0,0,1,.914,3.109v.6H72.383a3,3,0,0,0,.73,2.02,2.3,2.3,0,0,0,1.777.77,2.517,2.517,0,0,0,1.3-.312,3.259,3.259,0,0,0,.93-.828l.883.688A3.55,3.55,0,0,1,74.813,37.156Zm-.18-7.578a1.928,1.928,0,0,0-1.469.637A3.1,3.1,0,0,0,72.43,32h4.234v-.109a2.753,2.753,0,0,0-.594-1.707A1.815,1.815,0,0,0,74.633,29.578Zm6.516-1.031.047,1.063a3.08,3.08,0,0,1,2.531-1.219q2.68,0,2.7,3.023V37H84.984V31.406a1.946,1.946,0,0,0-.418-1.352,1.675,1.675,0,0,0-1.277-.437,2.086,2.086,0,0,0-1.234.375,2.546,2.546,0,0,0-.828.984V37H79.781V28.547ZM90.57,26.5v2.047h1.578v1.117H90.57v5.249a1.173,1.173,0,0,0,.211.763.888.888,0,0,0,.719.254,3.5,3.5,0,0,0,.688-.094V37a4.215,4.215,0,0,1-1.109.155,1.8,1.8,0,0,1-1.461-.586,2.517,2.517,0,0,1-.492-1.664V29.664H87.586V28.547h1.539V26.5ZM93.3,32.7a4.993,4.993,0,0,1,.488-2.234,3.643,3.643,0,0,1,1.359-1.531,3.7,3.7,0,0,1,1.988-.539,3.565,3.565,0,0,1,2.793,1.2,4.6,4.6,0,0,1,1.066,3.18v.1a5.036,5.036,0,0,1-.473,2.215,3.589,3.589,0,0,1-1.352,1.527,3.743,3.743,0,0,1-2.02.547,3.556,3.556,0,0,1-2.785-1.2A4.575,4.575,0,0,1,93.3,32.8Zm1.453.172a3.616,3.616,0,0,0,.652,2.258,2.211,2.211,0,0,0,3.5-.012,3.955,3.955,0,0,0,.648-2.418,3.61,3.61,0,0,0-.66-2.254,2.1,2.1,0,0,0-1.754-.863,2.075,2.075,0,0,0-1.727.852A3.925,3.925,0,0,0,94.75,32.867Z" transform="translate(-1180 -7323)" fill="#12263f"/>
  </g>
</svg>
