<svg xmlns="http://www.w3.org/2000/svg" width="83.209" height="97.237" viewBox="0 0 83.209 97.237">
  <g id="Grupo_177194" data-name="Grupo 177194" transform="translate(-76.413 -268.078)">
    <path id="Rectángulo_45892" data-name="Rectángulo 45892" d="M29.342,0H53.867A29.342,29.342,0,0,1,83.209,29.342V53.868A29.341,29.341,0,0,1,53.868,83.208H29.342A29.342,29.342,0,0,1,0,53.867V29.342A29.342,29.342,0,0,1,29.342,0Z" transform="translate(76.413 278.265)" fill="#d68119"/>
    <g id="Grupo_177193" data-name="Grupo 177193" transform="translate(83.757 268.078)">
      <path id="Trazado_187399" data-name="Trazado 187399" d="M125.894,423.063H91.643c-.4-17.514,13.08-27.681,24.65-31.475a59.522,59.522,0,0,0,.7-11.224h17.8a59.5,59.5,0,0,0,.7,11.224c11.571,3.794,25.046,13.962,24.65,31.475Z" transform="translate(-91.634 -326.184)" fill="#58556c" fill-rule="evenodd"/>
      <path id="Trazado_187400" data-name="Trazado 187400" d="M117.749,350.214c-.083-.916-3.829-2-5.078,1s1,7.242,5.244,7.575,3-.416,3-.416Z" transform="translate(-102.343 -310.081)" fill="#e4ae7c" fill-rule="evenodd"/>
      <path id="Trazado_187401" data-name="Trazado 187401" d="M198.322,350.214c.083-.916,3.829-2,5.077,1s-1,7.242-5.243,7.575-3-.416-3-.416Z" transform="translate(-145.118 -310.081)" fill="#e4ae7c" fill-rule="evenodd"/>
      <path id="Trazado_187402" data-name="Trazado 187402" d="M161.963,389.094c-3.854,7.372-13.781,8.142-18.043.284.112-1.607.148-3.12.155-4.288h17.752C161.833,386.189,161.866,387.593,161.963,389.094Z" transform="translate(-118.691 -328.63)" fill="#d67f54" fill-rule="evenodd"/>
      <path id="Trazado_187403" data-name="Trazado 187403" d="M140.165,336.7c-22.087.531-33.238-53.934,0-52.539C173.4,282.77,162.251,337.235,140.165,336.7Z" transform="translate(-105.905 -276.389)" fill="#e4ae7c" fill-rule="evenodd"/>
      <path id="Trazado_187404" data-name="Trazado 187404" d="M143.888,340.284a1.979,1.979,0,1,1-2.766.444A1.975,1.975,0,0,1,143.888,340.284Z" transform="translate(-117.049 -305.249)" fill="#20201e" fill-rule="evenodd"/>
      <path id="Trazado_187405" data-name="Trazado 187405" d="M177.39,340.284a1.979,1.979,0,1,0,2.767.444A1.974,1.974,0,0,0,177.39,340.284Z" transform="translate(-135.587 -305.249)" fill="#20201e" fill-rule="evenodd"/>
      <path id="Trazado_187406" data-name="Trazado 187406" d="M137.117,354.765c1.127.866,1.177,2.133.11,2.831a3.692,3.692,0,0,1-3.973-.3c-1.127-.865-1.176-2.133-.11-2.831A3.693,3.693,0,0,1,137.117,354.765Z" transform="translate(-112.718 -312.549)" fill="#da9077" fill-rule="evenodd"/>
      <path id="Trazado_187407" data-name="Trazado 187407" d="M182.384,354.765c-1.127.866-1.176,2.133-.11,2.831a3.691,3.691,0,0,0,3.972-.3c1.127-.865,1.177-2.133.11-2.831A3.694,3.694,0,0,0,182.384,354.765Z" transform="translate(-138.141 -312.549)" fill="#da9077" fill-rule="evenodd"/>
      <path id="Trazado_187408" data-name="Trazado 187408" d="M142.04,329.082c-.073-.033-.147-.062-.222-.092a5.715,5.715,0,0,0-2.527-.328,5.6,5.6,0,0,0-2.36.74c-.357.23-1.752,1.359-1.356,1.775a20.837,20.837,0,0,0,1.959-.8,5.531,5.531,0,0,1,1.821-.245,4.891,4.891,0,0,1,1.67.34c.016,0,.119.05.141.059,1.165.566,1.06.93,1.854.385C144.242,330.268,142.983,329.571,142.04,329.082Z" transform="translate(-114.336 -299.418)" fill="#3f2716" fill-rule="evenodd"/>
      <path id="Trazado_187409" data-name="Trazado 187409" d="M174.63,329.082c.074-.033.147-.062.222-.092a5.716,5.716,0,0,1,2.527-.328,5.609,5.609,0,0,1,2.36.74c.357.23,1.751,1.359,1.356,1.775a20.783,20.783,0,0,1-1.958-.8,5.535,5.535,0,0,0-1.822-.245,4.9,4.9,0,0,0-1.67.34c-.016,0-.119.05-.141.059-1.165.566-1.06.93-1.854.385C172.428,330.268,173.687,329.571,174.63,329.082Z" transform="translate(-133.815 -299.418)" fill="#3f2716" fill-rule="evenodd"/>
      <path id="Trazado_187410" data-name="Trazado 187410" d="M160.359,377.6a.238.238,0,0,1,.241-.411,2.353,2.353,0,0,0,1.169.289,2.251,2.251,0,0,0,1.147-.287.238.238,0,1,1,.247.408,2.722,2.722,0,0,1-1.394.358A2.828,2.828,0,0,1,160.359,377.6Z" transform="translate(-127.137 -324.522)" fill="#d67f54" fill-rule="evenodd"/>
      <path id="Trazado_187411" data-name="Trazado 187411" d="M162.006,353.438a.239.239,0,0,1,0-.479,11.682,11.682,0,0,0,1.792-.1c.436-.074.757-.193.757-.391,0-.689-.7-4.971-.7-4.983a.239.239,0,0,1,.472-.075c0,.013.707,4.34.707,5.058,0,.5-.49.749-1.157.862A11.907,11.907,0,0,1,162.006,353.438Z" transform="translate(-127.927 -309.03)" fill="#d67f54" fill-rule="evenodd"/>
      <path id="Trazado_187412" data-name="Trazado 187412" d="M204.776,355.936a.24.24,0,0,1-.479,0,2.329,2.329,0,0,0-.328-1.434.571.571,0,0,0-.445-.222,1.306,1.306,0,0,0-.652.2,4.3,4.3,0,0,0-1.638,1.933,8.993,8.993,0,0,0-.408,1.111,1.7,1.7,0,0,1,1.116-.323,1.065,1.065,0,0,1,.516.186.85.85,0,0,1,.322.452,1.569,1.569,0,0,1-.331,1.3.239.239,0,1,1-.4-.265,1.137,1.137,0,0,0,.269-.894.375.375,0,0,0-.142-.2.586.586,0,0,0-.284-.1,1.318,1.318,0,0,0-1.021.43.515.515,0,0,1-.244.152.261.261,0,0,1-.345-.231l0-.013a.827.827,0,0,1,.007-.279,7.485,7.485,0,0,1,.507-1.512,4.819,4.819,0,0,1,1.841-2.157,1.773,1.773,0,0,1,.9-.263,1.029,1.029,0,0,1,.806.4A2.744,2.744,0,0,1,204.776,355.936Z" transform="translate(-147.853 -312.439)" fill="#d67f54" fill-rule="evenodd"/>
      <path id="Trazado_187413" data-name="Trazado 187413" d="M116.147,355.936a.239.239,0,0,1-.479,0,2.744,2.744,0,0,1,.436-1.735,1.031,1.031,0,0,1,.806-.4,1.773,1.773,0,0,1,.9.263,4.819,4.819,0,0,1,1.84,2.157,7.485,7.485,0,0,1,.507,1.512.841.841,0,0,1,.007.279l0,.013a.261.261,0,0,1-.345.231.512.512,0,0,1-.243-.152,1.319,1.319,0,0,0-1.021-.43.587.587,0,0,0-.284.1.375.375,0,0,0-.142.2,1.137,1.137,0,0,0,.269.894.239.239,0,1,1-.4.265,1.566,1.566,0,0,1-.33-1.3.849.849,0,0,1,.321-.452,1.066,1.066,0,0,1,.516-.186,1.694,1.694,0,0,1,1.116.323,8.919,8.919,0,0,0-.408-1.111,4.3,4.3,0,0,0-1.638-1.933,1.306,1.306,0,0,0-.652-.2.572.572,0,0,0-.445.222A2.329,2.329,0,0,0,116.147,355.936Z" transform="translate(-104.071 -312.439)" fill="#d67f54" fill-rule="evenodd"/>
      <path id="Trazado_187414" data-name="Trazado 187414" d="M160.288,280.386c.92.176.8.932-1.885,2.827,2.481,3.127,2.863,8.094,2.015,12.753a78.16,78.16,0,0,1-5.619,12.666c-.245.429-.081-9.16-2.851-12.99-1.406-1.943-2.564-4.247-5.426-6.166-.029.545,1.671,2.033,1.037,2.332-2.428,1.144-9.263-.038-12.421-.839.909.936,1.836,1.614,1.488,1.956-1.087,1.067-7.96-.6-12.2-3.448-1.029,3.395-2.481,7-4.113,7.959-4.368,2.57-2.464,13.423-3.61,11.828-5.258-7.314-3.933-16.785-3.933-16.785a24.477,24.477,0,0,0-1.491,2.339c-.725,1.509-1.221-12.373,5.377-14.173a8.291,8.291,0,0,0-3.718.142c-.982.185,1.932-2.524,5.074-2.876.09-1.367.7-6.854,4.713-8.624,1.861-.821,4.911-1.38,4.524-1.145a5.821,5.821,0,0,0-2.462,2.77c14.681-6.926,21.36.437,27.114,5.052C153.635,277.362,157.318,280.153,160.288,280.386Z" transform="translate(-101.588 -268.078)" fill="#35253d" fill-rule="evenodd"/>
      <path id="Trazado_187415" data-name="Trazado 187415" d="M136.232,331.2a7.079,7.079,0,1,1-5.005,2.074,7.054,7.054,0,0,1,5.005-2.074Zm4.158,2.92a5.88,5.88,0,1,0,1.723,4.158A5.861,5.861,0,0,0,140.39,334.118Z" transform="translate(-111.05 -300.742)" fill="#2e1e11" fill-rule="evenodd"/>
      <path id="Trazado_187416" data-name="Trazado 187416" d="M173.859,331.2a7.08,7.08,0,1,1-5,2.074,7.057,7.057,0,0,1,5-2.074Zm4.158,2.92a5.88,5.88,0,1,0,1.723,4.158A5.862,5.862,0,0,0,178.017,334.118Z" transform="translate(-130.522 -300.742)" fill="#2e1e11" fill-rule="evenodd"/>
      <path id="Trazado_187417" data-name="Trazado 187417" d="M125.1,344.638a.477.477,0,0,1,.322.9l-4.216,1.519a.477.477,0,0,1-.322-.9Z" transform="translate(-106.605 -307.682)" fill="#2e1e11" fill-rule="evenodd"/>
      <path id="Trazado_187418" data-name="Trazado 187418" d="M194.349,345.536a.477.477,0,0,1,.322-.9l4.216,1.518a.477.477,0,0,1-.322.9Z" transform="translate(-144.624 -307.682)" fill="#2e1e11" fill-rule="evenodd"/>
      <path id="Trazado_187419" data-name="Trazado 187419" d="M156.517,342.716a.478.478,0,1,1-.815-.5s.812-1.378,3.31-1.378,3.308,1.374,3.31,1.378a.478.478,0,0,1-.816.5s-.538-.918-2.494-.918S156.519,342.713,156.517,342.716Z" transform="translate(-124.752 -305.731)" fill="#2e1e11" fill-rule="evenodd"/>
      <path id="Trazado_187420" data-name="Trazado 187420" d="M162.094,364.813c-3.007,1.116-12.145,1.093-14.983.135C148.679,370.66,160.569,370.569,162.094,364.813Z" transform="translate(-120.343 -318.137)" fill="#fff" fill-rule="evenodd"/>
      <path id="Trazado_187421" data-name="Trazado 187421" d="M142.134,391.249c-.245-.105-.873-.1-.872.346a10.453,10.453,0,0,1,.128,3.343c-.339,1.285-.908,2.341-.252,2.6a28.872,28.872,0,0,0,20.417,0c.656-.255.086-1.311-.252-2.6a10.439,10.439,0,0,1,.128-3.343c0-.442-.628-.451-.872-.346A23.372,23.372,0,0,1,142.134,391.249Z" transform="translate(-117.095 -331.789)" fill="#67627e" fill-rule="evenodd"/>
      <path id="Trazado_187422" data-name="Trazado 187422" d="M110.778,447.933a.358.358,0,1,1,.716.005l-.088,9.91a.358.358,0,1,1-.716,0Z" transform="translate(-101.495 -360.966)" fill="#383546" fill-rule="evenodd"/>
      <path id="Trazado_187423" data-name="Trazado 187423" d="M213.005,447.933a.358.358,0,1,1,.716.005l-.088,9.91a.358.358,0,1,1-.716,0Z" transform="translate(-154.396 -360.966)" fill="#383546" fill-rule="evenodd"/>
      <path id="Trazado_187424" data-name="Trazado 187424" d="M144.229,393.381a.238.238,0,1,1,.477.015c-.011.326-.014.633-.017.941-.007.633-.014,1.276-.078,2.032a5.375,5.375,0,0,1-.745,2.2.238.238,0,1,1-.4-.256,4.847,4.847,0,0,0,.67-1.982c.063-.762.07-1.384.078-2C144.215,394.016,144.219,393.7,144.229,393.381Z" transform="translate(-118.436 -332.801)" fill="#58556c" fill-rule="evenodd"/>
      <path id="Trazado_187425" data-name="Trazado 187425" d="M148.3,394.826a.238.238,0,0,1,.477.015c-.01.326-.014.633-.017.942-.007.633-.014,1.276-.077,2.032a5.375,5.375,0,0,1-.745,2.2.238.238,0,1,1-.4-.256,4.848,4.848,0,0,0,.67-1.982c.064-.762.07-1.384.078-2C148.285,395.461,148.289,395.145,148.3,394.826Z" transform="translate(-120.542 -333.548)" fill="#58556c" fill-rule="evenodd"/>
      <path id="Trazado_187426" data-name="Trazado 187426" d="M152.567,395.613a.238.238,0,0,1,.477.015c-.011.326-.014.633-.018.941-.007.633-.014,1.276-.077,2.032a5.379,5.379,0,0,1-.745,2.2.238.238,0,1,1-.4-.256,4.859,4.859,0,0,0,.67-1.983c.064-.761.071-1.384.078-2C152.552,396.249,152.556,395.933,152.567,395.613Z" transform="translate(-122.751 -333.956)" fill="#58556c" fill-rule="evenodd"/>
      <path id="Trazado_187427" data-name="Trazado 187427" d="M156.965,396.4a.239.239,0,0,1,.477.015c-.011.326-.014.633-.018.941-.007.633-.014,1.276-.078,2.032a5.37,5.37,0,0,1-.745,2.2.238.238,0,1,1-.4-.256,4.848,4.848,0,0,0,.67-1.982c.064-.761.07-1.384.078-2C156.951,397.036,156.955,396.721,156.965,396.4Z" transform="translate(-125.027 -334.363)" fill="#58556c" fill-rule="evenodd"/>
      <path id="Trazado_187428" data-name="Trazado 187428" d="M178.681,393.4a.238.238,0,1,1,.477-.015c.011.32.014.635.018.952.007.613.014,1.235.078,2a4.843,4.843,0,0,0,.67,1.982.238.238,0,1,1-.4.256,5.372,5.372,0,0,1-.745-2.2c-.062-.756-.07-1.4-.077-2.032C178.695,394.029,178.691,393.722,178.681,393.4Z" transform="translate(-136.68 -332.801)" fill="#58556c" fill-rule="evenodd"/>
      <path id="Trazado_187429" data-name="Trazado 187429" d="M174.61,394.84a.239.239,0,0,1,.477-.015c.011.32.014.635.017.953.007.612.014,1.234.078,2a4.847,4.847,0,0,0,.67,1.982.238.238,0,1,1-.4.256,5.375,5.375,0,0,1-.745-2.2c-.063-.756-.07-1.4-.077-2.032C174.624,395.473,174.62,395.167,174.61,394.84Z" transform="translate(-134.573 -333.548)" fill="#58556c" fill-rule="evenodd"/>
      <path id="Trazado_187430" data-name="Trazado 187430" d="M170.343,395.628a.239.239,0,0,1,.477-.015c.011.32.014.635.017.953.007.612.014,1.235.078,2a4.847,4.847,0,0,0,.67,1.983.238.238,0,1,1-.4.256,5.387,5.387,0,0,1-.745-2.2c-.063-.757-.07-1.4-.077-2.032C170.357,396.261,170.354,395.954,170.343,395.628Z" transform="translate(-132.365 -333.956)" fill="#58556c" fill-rule="evenodd"/>
      <path id="Trazado_187431" data-name="Trazado 187431" d="M165.944,396.416a.239.239,0,0,1,.477-.015c.011.32.014.635.018.953.007.613.014,1.235.077,2a4.848,4.848,0,0,0,.67,1.982.239.239,0,0,1-.4.256,5.387,5.387,0,0,1-.745-2.2c-.063-.756-.07-1.4-.077-2.032C165.958,397.049,165.955,396.742,165.944,396.416Z" transform="translate(-130.088 -334.363)" fill="#58556c" fill-rule="evenodd"/>
      <path id="Trazado_187432" data-name="Trazado 187432" d="M161.94,396.409a.239.239,0,1,1,.477,0l.01,5.052a.238.238,0,0,1-.477,0Z" transform="translate(-128.016 -334.364)" fill="#58556c" fill-rule="evenodd"/>
      <path id="Trazado_187433" data-name="Trazado 187433" d="M135.5,289.377a.239.239,0,0,1,.421-.227c1.315,2.44,4.048,4.585,7.2,6.295a38.4,38.4,0,0,0,12.01,4.1.239.239,0,0,1-.065.473,38.906,38.906,0,0,1-12.173-4.152C139.667,294.118,136.864,291.908,135.5,289.377Z" transform="translate(-114.319 -278.917)" fill="#432d4c" fill-rule="evenodd"/>
      <path id="Trazado_187434" data-name="Trazado 187434" d="M140.83,284.907a.239.239,0,0,1,0-.478,33.821,33.821,0,0,1,10.7,1.753,38.86,38.86,0,0,1,10.121,5.164,24.927,24.927,0,0,1,7.224,7.477,23.01,23.01,0,0,1,3.11,10.538.239.239,0,0,1-.477.032,22.54,22.54,0,0,0-3.042-10.325,24.464,24.464,0,0,0-7.09-7.331,38.4,38.4,0,0,0-10-5.1A33.348,33.348,0,0,0,140.83,284.907Z" transform="translate(-116.969 -276.539)" fill="#432d4c" fill-rule="evenodd"/>
      <path id="Trazado_187435" data-name="Trazado 187435" d="M144.344,278.412a.239.239,0,1,1-.2-.433c9.822-4.524,16.216-.022,21.731,3.862,1.363.959,2.671,1.88,3.956,2.61a.239.239,0,0,1-.235.415c-1.309-.743-2.625-1.669-4-2.635C160.189,278.422,153.915,274,144.344,278.412Z" transform="translate(-118.735 -272.221)" fill="#432d4c" fill-rule="evenodd"/>
      <path id="Trazado_187436" data-name="Trazado 187436" d="M125.852,297.811a.239.239,0,0,1,.477-.025,14.117,14.117,0,0,1-.925,4.915,16.881,16.881,0,0,1-2.417,4.685,9.518,9.518,0,0,0-1.876,5.241.239.239,0,0,1-.477-.007,10.045,10.045,0,0,1,1.977-5.529,16.413,16.413,0,0,0,2.342-4.547A13.652,13.652,0,0,0,125.852,297.811Z" transform="translate(-106.641 -283.334)" fill="#432d4c" fill-rule="evenodd"/>
    </g>
  </g>
</svg>
