<svg xmlns="http://www.w3.org/2000/svg" width="90.732" height="112.142" viewBox="0 0 90.732 112.142">
  <g id="Grupo_177197" data-name="Grupo 177197" transform="translate(-288.776 -256.458)">
    <path id="Rectángulo_45893" data-name="Rectángulo 45893" d="M29.342,0H61.389A29.343,29.343,0,0,1,90.732,29.343V61.39A29.341,29.341,0,0,1,61.391,90.731H29.341A29.341,29.341,0,0,1,0,61.39V29.342A29.342,29.342,0,0,1,29.342,0Z" transform="translate(288.776 273.681)" fill="#9976ae"/>
    <g id="Grupo_177196" data-name="Grupo 177196" transform="translate(295.512 256.459)">
      <path id="Trazado_187437" data-name="Trazado 187437" d="M345.056,270.672s9.169-.054,6.77-8.014c-3.04-10.086-21.692-7.6-22.245,5.527s-3.177,18.791-6.355,23.074S312.863,304.246,318.942,320s-2.763,18.238-2.763,18.238c1.443-.131,5.254,1.21,7.627.731,6.47-1.305,16.8-5.891,16.69-9.16C340.031,315.721,352.378,307.977,345.056,270.672Z" transform="translate(-308.497 -256.459)" fill="#3a2100" fill-rule="evenodd"/>
      <path id="Trazado_187438" data-name="Trazado 187438" d="M367.569,278.634c4.278,0,7.766-3.055,7.766-6.8s-3.489-6.8-7.766-6.8-7.766,3.055-7.766,6.8S363.292,278.634,367.569,278.634Z" transform="translate(-329.168 -260.522)" fill="#bb495c" fill-rule="evenodd"/>
      <path id="Trazado_187439" data-name="Trazado 187439" d="M330.6,346.94c-.091-1-4.175-2.178-5.537,1.089s1.089,7.9,5.718,8.259,3.267-.454,3.267-.454Z" transform="translate(-312.53 -298.834)" fill="#e4ae7c" fill-rule="evenodd"/>
      <path id="Trazado_187440" data-name="Trazado 187440" d="M410.987,346.94c.091-1,4.174-2.178,5.536,1.089s-1.089,7.9-5.718,8.259-3.267-.454-3.267-.454Z" transform="translate(-351.699 -298.834)" fill="#e4ae7c" fill-rule="evenodd"/>
      <path id="Trazado_187441" data-name="Trazado 187441" d="M341.354,426.923H304.008c-.432-19.1,14.262-30.184,26.878-34.321a64.906,64.906,0,0,0,.762-12.239h19.414a64.906,64.906,0,0,0,.762,12.239c12.617,4.137,27.311,15.224,26.878,34.321Z" transform="translate(-302.725 -315.172)" fill="#e4ae7c" fill-rule="evenodd"/>
      <path id="Trazado_187442" data-name="Trazado 187442" d="M375.965,380.363s-.052,1.37-.019,3.36c-3.687,9.263-15.135,10.306-19.383.385.047-2.2-.012-3.745-.012-3.745Z" transform="translate(-327.627 -315.172)" fill="#d67f54" fill-rule="evenodd"/>
      <path id="Trazado_187443" data-name="Trazado 187443" d="M378.829,438.059c.441-18.859-14.371-29.9-27.306-34.162-5.452,12.1-17.257,11.8-22.525-.034-12.96,4.231-27.853,15.285-27.41,34.2Z" transform="translate(-301.578 -326.308)" fill="#bb495c" fill-rule="evenodd"/>
      <path id="Trazado_187444" data-name="Trazado 187444" d="M354.422,338.094c-24.082.578-36.242-58.81,0-57.289C390.665,279.284,378.506,338.672,354.422,338.094Z" transform="translate(-315.792 -267.982)" fill="#e4ae7c" fill-rule="evenodd"/>
      <path id="Trazado_187445" data-name="Trazado 187445" d="M356.536,334.869a2.157,2.157,0,1,1-3.016.484A2.153,2.153,0,0,1,356.536,334.869Z" transform="translate(-325.996 -293.42)" fill="#20201e" fill-rule="evenodd"/>
      <path id="Trazado_187446" data-name="Trazado 187446" d="M389.828,334.869a2.157,2.157,0,1,0,3.016.484A2.153,2.153,0,0,0,389.828,334.869Z" transform="translate(-342.972 -293.42)" fill="#20201e" fill-rule="evenodd"/>
      <path id="Trazado_187447" data-name="Trazado 187447" d="M349.91,349.383c1.229.943,1.283,2.326.119,3.086a4.025,4.025,0,0,1-4.332-.33c-1.229-.943-1.282-2.325-.12-3.087A4.028,4.028,0,0,1,349.91,349.383Z" transform="translate(-322.03 -300.105)" fill="#da9077" fill-rule="evenodd"/>
      <path id="Trazado_187448" data-name="Trazado 187448" d="M394.826,349.383c-1.229.943-1.283,2.326-.119,3.086a4.024,4.024,0,0,0,4.331-.33c1.23-.943,1.283-2.325.12-3.087A4.028,4.028,0,0,0,394.826,349.383Z" transform="translate(-345.311 -300.105)" fill="#da9077" fill-rule="evenodd"/>
      <path id="Trazado_187449" data-name="Trazado 187449" d="M355,323.671c-.08-.035-.16-.067-.243-.1a6.223,6.223,0,0,0-2.755-.358,6.1,6.1,0,0,0-2.573.807c-.39.251-1.91,1.482-1.479,1.935a22.462,22.462,0,0,0,2.135-.869,6.039,6.039,0,0,1,1.987-.268,5.34,5.34,0,0,1,1.821.371c.017,0,.129.054.153.064,1.271.618,1.155,1.014,2.021.42C357.4,324.965,356.023,324.206,355,323.671Z" transform="translate(-323.513 -288.08)" fill="#3f2716" fill-rule="evenodd"/>
      <path id="Trazado_187450" data-name="Trazado 187450" d="M387.128,323.671c.079-.035.16-.067.243-.1a6.223,6.223,0,0,1,2.755-.358,6.1,6.1,0,0,1,2.574.807c.389.251,1.91,1.482,1.478,1.935a22.521,22.521,0,0,1-2.135-.869,6.037,6.037,0,0,0-1.987-.268,5.345,5.345,0,0,0-1.822.371c-.016,0-.129.054-.153.064-1.27.618-1.155,1.014-2.021.42C384.726,324.965,386.1,324.206,387.128,323.671Z" transform="translate(-341.349 -288.08)" fill="#3f2716" fill-rule="evenodd"/>
      <path id="Trazado_187451" data-name="Trazado 187451" d="M366.676,359.659q2.393-.041,4.774-.042t4.775.042c0,3.482-2.469,4.726-4.766,4.726h-.017C369.145,364.385,366.676,363.141,366.676,359.659Z" transform="translate(-332.425 -305.341)" fill="#fff" fill-rule="evenodd"/>
      <path id="Trazado_187452" data-name="Trazado 187452" d="M376.194,363.4a4.466,4.466,0,0,1-4.444,2.763h-.017a4.464,4.464,0,0,1-4.443-2.763q2.229-.036,4.451-.036T376.194,363.4Z" transform="translate(-332.716 -307.115)" fill="#88342a" fill-rule="evenodd"/>
      <path id="Trazado_187453" data-name="Trazado 187453" d="M372.732,372.186a.26.26,0,1,1,.264-.449,2.564,2.564,0,0,0,1.274.316,2.443,2.443,0,0,0,1.25-.314.26.26,0,0,1,.269.445,2.971,2.971,0,0,1-1.52.391A3.091,3.091,0,0,1,372.732,372.186Z" transform="translate(-335.234 -311.068)" fill="#d67f54" fill-rule="evenodd"/>
      <path id="Trazado_187454" data-name="Trazado 187454" d="M374.391,344.5a.261.261,0,0,1,0-.522,12.749,12.749,0,0,0,1.954-.1c.475-.08.824-.209.824-.426,0-.751-.761-5.421-.763-5.433a.26.26,0,0,1,.514-.082c0,.014.771,4.732.771,5.516,0,.55-.535.817-1.261.94A12.993,12.993,0,0,1,374.391,344.5Z" transform="translate(-335.957 -294.962)" fill="#d67f54" fill-rule="evenodd"/>
      <path id="Trazado_187455" data-name="Trazado 187455" d="M417.546,352.767a.261.261,0,1,1-.522,0,2.532,2.532,0,0,0-.358-1.562.624.624,0,0,0-.486-.243,1.435,1.435,0,0,0-.711.219,4.7,4.7,0,0,0-1.786,2.108,9.867,9.867,0,0,0-.445,1.211,1.858,1.858,0,0,1,1.216-.353,1.155,1.155,0,0,1,.562.2.921.921,0,0,1,.351.491,1.712,1.712,0,0,1-.36,1.413.26.26,0,1,1-.432-.29,1.24,1.24,0,0,0,.294-.974.409.409,0,0,0-.156-.218.636.636,0,0,0-.309-.107,1.437,1.437,0,0,0-1.113.468.56.56,0,0,1-.265.167.285.285,0,0,1-.377-.253l0-.014a.948.948,0,0,1,.008-.3,8.15,8.15,0,0,1,.554-1.649,5.255,5.255,0,0,1,2.006-2.353,1.939,1.939,0,0,1,.979-.286,1.126,1.126,0,0,1,.879.434A3,3,0,0,1,417.546,352.767Z" transform="translate(-354.204 -300.994)" fill="#d67f54" fill-rule="evenodd"/>
      <path id="Trazado_187456" data-name="Trazado 187456" d="M328.552,352.767a.261.261,0,0,1-.522,0,3,3,0,0,1,.476-1.891,1.125,1.125,0,0,1,.88-.434,1.937,1.937,0,0,1,.978.286,5.253,5.253,0,0,1,2.007,2.353,8.106,8.106,0,0,1,.553,1.649.89.89,0,0,1,.008.3l0,.014a.286.286,0,0,1-.377.253.563.563,0,0,1-.266-.167,1.436,1.436,0,0,0-1.113-.468.639.639,0,0,0-.309.107.4.4,0,0,0-.155.218,1.239,1.239,0,0,0,.293.974.261.261,0,0,1-.433.29,1.712,1.712,0,0,1-.36-1.413.915.915,0,0,1,.351-.491,1.156,1.156,0,0,1,.562-.2,1.858,1.858,0,0,1,1.216.353,9.793,9.793,0,0,0-.446-1.211,4.7,4.7,0,0,0-1.786-2.108,1.43,1.43,0,0,0-.711-.219.624.624,0,0,0-.486.243A2.532,2.532,0,0,0,328.552,352.767Z" transform="translate(-314.112 -300.994)" fill="#d67f54" fill-rule="evenodd"/>
      <path id="Trazado_187457" data-name="Trazado 187457" d="M331.6,312.787c-16.27-49.913,58.553-51.352,43.257-.277-1.423,4.19-4.378-14.873-4.381-15-.031-1.24-2.469-7.43-5.519-8.069-9.531-2-28.671,4.188-28.768,8.069,0,.138-1.32,6.847-2.65,11.4C332.614,312.064,332.1,314.6,331.6,312.787Z" transform="translate(-314.699 -265.138)" fill="#4e2c0b" fill-rule="evenodd"/>
      <path id="Trazado_187458" data-name="Trazado 187458" d="M412.931,340.924c-.094.92-2.921,16.485-2.946,16.568-1.333-3.446.657-12.924,1.014-16.8.119-2.12-.331-5.4.677-5.323C413.059,334.8,412.979,339.9,412.931,340.924Z" transform="translate(-352.732 -293.83)" fill="#4e2c0b" fill-rule="evenodd"/>
      <path id="Trazado_187459" data-name="Trazado 187459" d="M333.606,340.785c.094.92,3.128,16.623,3.153,16.706,1.334-3.446-.656-12.924-1.014-16.8-.119-2.12.331-5.4-.677-5.323C333.685,334.8,333.558,339.759,333.606,340.785Z" transform="translate(-316.751 -293.829)" fill="#4e2c0b" fill-rule="evenodd"/>
      <path id="Trazado_187460" data-name="Trazado 187460" d="M356.827,296.009c.426,1.676-3.929,6.219-2.967,6.745,1.63.892,8.328-.588,13.009-5.879.589-.667.678,1.737,2.354,3.731,1.893,2.25,5.41,4.207,6.484,4.91,1.024.671,1.039.351,1.3-1.031,1.076-5.634-2.275-22.573-21.854-22.573-21.988,0-23.509,21.368-21.276,24.088,5.66-1.057,15.124-10.266,14.1-8.753-1.081,1.6-6.138,5.766-4.813,5.772C350.641,303.056,356.795,295.882,356.827,296.009Z" transform="translate(-316.526 -268.52)" fill="#623a1c" fill-rule="evenodd"/>
      <path id="Trazado_187461" data-name="Trazado 187461" d="M373.817,435.959c.723,0,1.313-2.762,1.313-6.148s-.589-6.149-1.313-6.149-1.312,2.762-1.312,6.149S373.095,435.959,373.817,435.959Z" transform="translate(-335.187 -335.69)" fill="#e4ae7c" fill-rule="evenodd"/>
      <path id="Trazado_187462" data-name="Trazado 187462" d="M323.15,447.965a.39.39,0,1,1,.781.006l-.1,10.806a.39.39,0,1,1-.78-.005Z" transform="translate(-311.755 -347.022)" fill="#b4283f" fill-rule="evenodd"/>
      <path id="Trazado_187463" data-name="Trazado 187463" d="M425.376,447.965a.39.39,0,1,1,.78.006l-.1,10.806a.39.39,0,1,1-.78-.005Z" transform="translate(-360.195 -347.022)" fill="#b4283f" fill-rule="evenodd"/>
      <path id="Trazado_187464" data-name="Trazado 187464" d="M341.686,303.506a.26.26,0,0,1-.326-.406c.457-.368,1.2-.964,2-1.6,5.249-4.2,13.13-10.5,14.868-13.256a.261.261,0,1,1,.441.277c-1.784,2.83-9.708,9.165-14.986,13.385C343.033,302.425,342.431,302.906,341.686,303.506Z" transform="translate(-320.383 -271.462)" fill="#7c5032" fill-rule="evenodd"/>
      <path id="Trazado_187465" data-name="Trazado 187465" d="M357.574,304.832a.26.26,0,1,1-.326-.406,90.853,90.853,0,0,0,9.969-9.809c2.129-2.506,3.782-4.927,3.96-6.527a.26.26,0,1,1,.518.057c-.19,1.719-1.892,4.232-4.079,6.807A91.456,91.456,0,0,1,357.574,304.832Z" transform="translate(-327.911 -271.337)" fill="#7c5032" fill-rule="evenodd"/>
      <path id="Trazado_187466" data-name="Trazado 187466" d="M380.7,304.587a.26.26,0,1,1-.353-.383,25.536,25.536,0,0,0,4.474-5.3,12.187,12.187,0,0,0,1.868-5.031,29.138,29.138,0,0,0,.277-3.878.26.26,0,0,1,.516-.069,28.294,28.294,0,0,1-.275,4,12.706,12.706,0,0,1-1.941,5.251A26.015,26.015,0,0,1,380.7,304.587Z" transform="translate(-338.862 -272.209)" fill="#7c5032" fill-rule="evenodd"/>
      <path id="Trazado_187467" data-name="Trazado 187467" d="M404.847,302.955a.261.261,0,1,1-.518.063,17.091,17.091,0,0,0-2.032-5.87c-1.556-2.865-3.435-4.947-3.877-5.108a.26.26,0,1,1,.178-.489c.5.182,2.541,2.377,4.156,5.348A17.609,17.609,0,0,1,404.847,302.955Z" transform="translate(-347.386 -273.08)" fill="#7c5032" fill-rule="evenodd"/>
      <path id="Trazado_187468" data-name="Trazado 187468" d="M381.982,270.973a.26.26,0,1,1-.494.163,23.445,23.445,0,0,0-1.109-2.769,3.132,3.132,0,0,0-.749-1.149.26.26,0,1,1,.2-.479,3.194,3.194,0,0,1,1.013,1.4A24.116,24.116,0,0,1,381.982,270.973Z" transform="translate(-338.488 -261.32)" fill="#b4283f" fill-rule="evenodd"/>
      <path id="Trazado_187469" data-name="Trazado 187469" d="M365.933,271.06a.261.261,0,0,1-.5-.149,8.643,8.643,0,0,1,1.11-2.336,6.768,6.768,0,0,1,1.708-1.825.26.26,0,0,1,.253.456,6.211,6.211,0,0,0-1.528,1.659A8.11,8.11,0,0,0,365.933,271.06Z" transform="translate(-331.831 -261.32)" fill="#b4283f" fill-rule="evenodd"/>
      <path id="Trazado_187470" data-name="Trazado 187470" d="M375,270.578a.261.261,0,0,1-.522,0c0-.867.278-3.746.279-3.755a.26.26,0,0,1,.518.049C375.276,266.881,375,269.717,375,270.578Z" transform="translate(-336.123 -261.258)" fill="#b4283f" fill-rule="evenodd"/>
      <path id="Trazado_187471" data-name="Trazado 187471" d="M348.113,405.427a.261.261,0,0,1,.518-.063,11.29,11.29,0,0,0,4.181,7.054,11.54,11.54,0,0,0,7.779,2.528.261.261,0,1,1,.018.521,12.053,12.053,0,0,1-8.124-2.643A11.828,11.828,0,0,1,348.113,405.427Z" transform="translate(-323.628 -326.91)" fill="#b4283f" fill-rule="evenodd"/>
      <path id="Trazado_187472" data-name="Trazado 187472" d="M389.885,405.364a.261.261,0,0,1,.518.063,11.827,11.827,0,0,1-4.372,7.4,12.055,12.055,0,0,1-8.124,2.643.261.261,0,0,1,.018-.521,11.541,11.541,0,0,0,7.779-2.528A11.289,11.289,0,0,0,389.885,405.364Z" transform="translate(-337.629 -326.91)" fill="#b4283f" fill-rule="evenodd"/>
    </g>
  </g>
</svg>
