<svg xmlns="http://www.w3.org/2000/svg" xmlns:xlink="http://www.w3.org/1999/xlink" width="116" height="116" viewBox="0 0 116 116">
  <defs>
    <clipPath id="clip-path">
      <rect id="Rectángulo_45751" data-name="Rectángulo 45751" width="116" height="116" transform="translate(1162 7447)" fill="#fff" stroke="#707070" stroke-width="1"/>
    </clipPath>
  </defs>
  <g id="Enmascarar_grupo_332" data-name="Enmascarar grupo 332" transform="translate(-1162 -7447)" clip-path="url(#clip-path)">
    <g id="idea" transform="translate(1162 7447)">
      <path id="Trazado_186431" data-name="Trazado 186431" d="M94.481,20.119A22.949,22.949,0,0,0,57.9,6.557,22.93,22.93,0,0,0,21.365,20.3,22.729,22.729,0,0,0,8.338,26.855C-4.9,40.212,2.767,63.239,21.526,65.489l-.007.109A22.942,22.942,0,0,0,58.1,79.16,22.922,22.922,0,0,0,94.634,65.414v-.021A22.533,22.533,0,0,0,114.3,42.932v-.307a22.939,22.939,0,0,0-19.82-22.506Z" fill="#ebf3ff"/>
      <g id="Grupo_176007" data-name="Grupo 176007">
        <circle id="Elipse_4886" data-name="Elipse 4886" cx="10.365" cy="10.365" r="10.365" transform="translate(3.965 74.997)" fill="#c1d3f7"/>
        <circle id="Elipse_4887" data-name="Elipse 4887" cx="6.797" cy="6.797" r="6.797" transform="translate(1.699 100.707)" fill="#c1d3f7"/>
        <path id="Trazado_186432" data-name="Trazado 186432" d="M52.031,3.231A22.976,22.976,0,0,0,21.365,20.3,22.729,22.729,0,0,0,8.338,26.855C-4.9,40.212,2.767,63.239,21.526,65.489l-.007.109A22.948,22.948,0,0,0,52.031,82.561a56.294,56.294,0,0,1,0-79.33Z" fill="#c1d3f7"/>
      </g>
      <path id="Trazado_186433" data-name="Trazado 186433" d="M52.9,62.512v6.8a3.4,3.4,0,0,0,3.4,3.4h3.4a3.4,3.4,0,0,0,3.4-3.4v-6.8Z" fill="#00388b"/>
      <path id="Trazado_186434" data-name="Trazado 186434" d="M58,13.009A19.655,19.655,0,0,0,45.78,48.058a5.3,5.3,0,0,1,2.024,4.26l10.2,6.8,10.2-6.8a5.287,5.287,0,0,1,2.016-4.253A19.655,19.655,0,0,0,58,13.009Z" fill="#ffce71"/>
      <path id="Trazado_186435" data-name="Trazado 186435" d="M55.817,47.724A21.192,21.192,0,0,1,58,13.008,19.655,19.655,0,0,0,45.78,48.058a5.3,5.3,0,0,1,2.024,4.26H58A5.714,5.714,0,0,0,55.817,47.724Z" fill="#ffb357"/>
      <path id="Trazado_186436" data-name="Trazado 186436" d="M55.518,47.48l-1.653-3.25-2.577-1.457,1.916,11.5,3.352-.558Z" fill="#ffce71"/>
      <path id="Trazado_186437" data-name="Trazado 186437" d="M64.478,37.231a1.7,1.7,0,0,0-1.956.234c-2.585,2.348-6.086,2.318-9.136-.078A1.7,1.7,0,0,0,50.66,39l.628,3.771a21.3,21.3,0,0,0,4.23,4.707l-.926-5.556a9.994,9.994,0,0,0,6.8.11L59.443,53.714l3.352.559L65.34,39a1.7,1.7,0,0,0-.863-1.771Z" fill="#fce3a0"/>
      <path id="Trazado_186438" data-name="Trazado 186438" d="M71.594,55.715a3.4,3.4,0,0,0-3.4-3.4H47.8a3.4,3.4,0,0,0,0,6.8H50.07a3.4,3.4,0,0,0,0,6.8H65.93a3.4,3.4,0,0,0,0-6.8H68.2a3.4,3.4,0,0,0,3.4-3.4Z" fill="#c1d3f7"/>
      <path id="Trazado_186439" data-name="Trazado 186439" d="M60.266,59.114a3.63,3.63,0,0,1-3.617-4.134A4.785,4.785,0,0,1,58,52.317H47.8a3.4,3.4,0,1,0,0,6.8H50.07a3.4,3.4,0,0,0,0,6.8h10.2A4.806,4.806,0,0,1,60.266,59.114Z" fill="#a6bfe2"/>
      <path id="Trazado_186440" data-name="Trazado 186440" d="M51.331,33.188c-.007,2.239-2.292,4.048-5.1,4.039s-5.086-1.831-5.079-4.071,2.292-4.048,5.1-4.039S51.338,30.949,51.331,33.188Z" fill="#ff8e9e"/>
      <path id="Trazado_186441" data-name="Trazado 186441" d="M64.669,33.243c-.007,2.239,2.267,4.062,5.079,4.071s5.1-1.8,5.1-4.039-2.267-4.062-5.079-4.071S64.676,31,64.669,33.243Z" fill="#ff8e9e"/>
      <path id="Trazado_186442" data-name="Trazado 186442" d="M95.9,18.625A24.654,24.654,0,0,0,57.905,4.45,24.64,24.64,0,0,0,19.956,18.816,24.425,24.425,0,0,0,7.136,25.66C-6.8,39.706.827,63.744,20.1,67a24.776,24.776,0,0,0,1.96,5.292,1.7,1.7,0,0,0,3.029-1.538A21.587,21.587,0,0,1,23.23,65.46a1.705,1.705,0,0,0-1.5-1.656C4.418,61.708-2.74,40.472,9.549,28.053a21,21,0,0,1,12.059-6.067,1.7,1.7,0,0,0,1.43-1.357A21.231,21.231,0,0,1,56.869,7.9a1.7,1.7,0,0,0,2.082,0A21.249,21.249,0,0,1,92.829,20.456,1.7,1.7,0,0,0,94.267,21.8a21.294,21.294,0,0,1,18.349,21.129A20.776,20.776,0,0,1,94.424,63.71a1.694,1.694,0,0,0-1.468,1.5,21.223,21.223,0,0,1-33.809,12.61,1.694,1.694,0,0,0-2.08,0,21.253,21.253,0,0,1-28.339-1.971,1.7,1.7,0,0,0-2.916,1.16,1.681,1.681,0,0,0,.48,1.208,24.667,24.667,0,0,0,31.822,3.054A24.632,24.632,0,0,0,96.064,66.891a24.239,24.239,0,0,0,8.116-3.02C123.505,52.38,118,22.711,95.9,18.625Z"/>
      <path id="Trazado_186443" data-name="Trazado 186443" d="M19.032,74.248a12.067,12.067,0,1,0,0,22.23A12.081,12.081,0,0,0,19.032,74.248Zm-4.7,19.781a8.665,8.665,0,1,1,6.127-14.792,8.663,8.663,0,0,1-6.127,14.792Z"/>
      <path id="Trazado_186444" data-name="Trazado 186444" d="M0,107.5A8.5,8.5,0,1,0,14.509,101.5,8.492,8.492,0,0,0,0,107.5Zm8.5,5.1a5.1,5.1,0,1,1,5.1-5.1,5.117,5.117,0,0,1-5.1,5.1Z"/>
      <path id="Trazado_186445" data-name="Trazado 186445" d="M74.62,46.087C88.786,28.56,69.713,4.5,49.714,13.009a21.387,21.387,0,0,0-12.616,24,1.7,1.7,0,1,0,3.326-.689,17.96,17.96,0,1,1,28.74,10.413A6.93,6.93,0,0,0,66.7,50.61c-.059,0-12.51.009-17.379.01-.943-4-3.557-3.589-6.618-8.559a1.7,1.7,0,1,0-2.894,1.781c3.061,4.971,5.364,5.107,6.084,7.152a5.1,5.1,0,0,0-.389,9.268,5.1,5.1,0,0,0,4.575,7.347h1.133v1.7a5.094,5.094,0,0,0,5.1,5.1h3.4a5.094,5.094,0,0,0,5.1-5.1v-1.7h1.133a5.1,5.1,0,0,0,4.584-7.329,5.121,5.121,0,0,0-.4-9.288C70.726,49.27,71.946,49.385,74.62,46.087ZM61.408,69.311a1.707,1.707,0,0,1-1.7,1.7h-3.4a1.707,1.707,0,0,1-1.7-1.7v-1.7h6.8v1.7Zm6.8-11.894c-2.239,0-2.826-.144-3.467.5a1.7,1.7,0,0,0,1.2,2.9,1.7,1.7,0,1,1,0,3.4H50.079a1.7,1.7,0,1,1,0-3.4,1.7,1.7,0,0,0,1.2-2.9c-.636-.636-1.209-.5-3.467-.5a1.7,1.7,0,1,1,.044-3.4c19.084,0,20.256-.037,20.821.054,0,0,0,0,.009,0a1.707,1.707,0,0,1-.48,3.342Z"/>
      <path id="Trazado_186446" data-name="Trazado 186446" d="M49.739,29.168V26.9a1.7,1.7,0,0,0-3.4,0v2.266a1.7,1.7,0,0,0,3.4,0Z"/>
      <path id="Trazado_186447" data-name="Trazado 186447" d="M67.979,30.867a1.7,1.7,0,0,0,1.7-1.7V26.9a1.7,1.7,0,0,0-3.4,0v2.266A1.7,1.7,0,0,0,67.979,30.867Z"/>
      <path id="Trazado_186448" data-name="Trazado 186448" d="M62.481,27.182a1.7,1.7,0,0,0-2.266.8,2.337,2.337,0,0,1-4.185,0,1.7,1.7,0,0,0-2.266-.8c-2.512,1.2.374,5.5,4.358,5.5C62.089,32.679,65.01,28.391,62.481,27.182Z"/>
    </g>
  </g>
</svg>
