<svg xmlns="http://www.w3.org/2000/svg" width="1030" height="119" viewBox="0 0 1030 119">
  <g id="Grupo_177627" data-name="Grupo 177627" transform="translate(1781 2447)">
    <g id="Grupo_176022" data-name="Grupo 176022" transform="translate(-1 560)">
      <rect id="Rectángulo_45761" data-name="Rectángulo 45761" width="270" height="119" rx="5" transform="translate(-1780 -3007)" fill="#38cc51"/>
      <rect id="Rectángulo_45763" data-name="Rectángulo 45763" width="233" height="62" rx="5" transform="translate(-1761 -2991)" fill="#fff"/>
      <text id="Auxiliary_in_the_past" data-name="Auxiliary in the past" transform="translate(-1644 -2954)" fill="#12263f" font-size="18" font-family="Roboto-BoldItalic, Roboto" font-weight="700" font-style="italic"><tspan x="-78.592" y="0">Auxiliary in the past</tspan></text>
      <text id="Did" transform="translate(-1644 -2902)" fill="#12263f" font-size="16" font-family="Roboto-BoldItalic, Roboto" font-weight="700" font-style="italic"><tspan x="-11.59" y="0">Did</tspan></text>
    </g>
    <path id="Trazado_188492" data-name="Trazado 188492" d="M5,0H240a5,5,0,0,1,5,5V114a5,5,0,0,1-5,5H5a5,5,0,0,1-5-5V5A5,5,0,0,1,5,0Z" transform="translate(-1258 -2447)" fill="#fc5f65"/>
    <path id="Trazado_188497" data-name="Trazado 188497" d="M5,0H240a5,5,0,0,1,5,5V114a5,5,0,0,1-5,5H5a5,5,0,0,1-5-5V5A5,5,0,0,1,5,0Z" transform="translate(-996 -2447)" fill="#fed947"/>
    <path id="Trazado_188493" data-name="Trazado 188493" d="M5,0H203a5,5,0,0,1,5,5V57a5,5,0,0,1-5,5H5a5,5,0,0,1-5-5V5A5,5,0,0,1,5,0Z" transform="translate(-1239 -2431)" fill="#fff"/>
    <path id="Trazado_188498" data-name="Trazado 188498" d="M5,0H203a5,5,0,0,1,5,5V57a5,5,0,0,1-5,5H5a5,5,0,0,1-5-5V5A5,5,0,0,1,5,0Z" transform="translate(-977 -2431)" fill="#fff"/>
    <path id="Trazado_188490" data-name="Trazado 188490" d="M1.362-7.26h3v2.54h-3v3.437H-1.406V-4.72H-4.412V-7.26h3.006V-10.6H1.362Z" transform="translate(-1502 -2394)" fill="#12263f"/>
    <path id="Trazado_188491" data-name="Trazado 188491" d="M1.362-7.26h3v2.54h-3v3.437H-1.406V-4.72H-4.412V-7.26h3.006V-10.6H1.362Z" transform="translate(-1266 -2394)" fill="#12263f"/>
    <path id="Trazado_188496" data-name="Trazado 188496" d="M1.362-7.26h3v2.54h-3v3.437H-1.406V-4.72H-4.412V-7.26h3.006V-10.6H1.362Z" transform="translate(-1004 -2394)" fill="#12263f"/>
    <path id="Trazado_188494" data-name="Trazado 188494" d="M-65.29-3.2l4.307-9.6h2.953L-64.349,0h-2.689l-2.3-12.8h2.769ZM-54.567.176a4.137,4.137,0,0,1-2.21-.611,3.7,3.7,0,0,1-1.437-1.652A4.605,4.605,0,0,1-58.583-4.4l.026-.352A6.148,6.148,0,0,1-57.749-7.3a4.884,4.884,0,0,1,1.74-1.789,4.306,4.306,0,0,1,2.355-.593,3.29,3.29,0,0,1,2.782,1.351A4.631,4.631,0,0,1-50.155-5L-50.3-3.92h-5.827a2.041,2.041,0,0,0,.448,1.477,1.711,1.711,0,0,0,1.318.571,3.041,3.041,0,0,0,2.373-1.055l1.134,1.406A3.527,3.527,0,0,1-52.4-.259,5.059,5.059,0,0,1-54.567.176Zm.791-7.813a1.761,1.761,0,0,0-1.217.431,3.784,3.784,0,0,0-.954,1.556h3.41l.053-.229a2.33,2.33,0,0,0,.009-.668,1.276,1.276,0,0,0-.431-.8A1.35,1.35,0,0,0-53.776-7.638Zm10.731.51a5.117,5.117,0,0,0-.835-.088,2.4,2.4,0,0,0-2.1.993L-47.079,0h-2.479L-47.9-9.51l2.329-.009-.229,1.16A2.615,2.615,0,0,1-43.589-9.7a3.615,3.615,0,0,1,.861.123Zm9.088,2.4a6.819,6.819,0,0,1-1.371,3.6A3.412,3.412,0,0,1-38.193.185a2.652,2.652,0,0,1-2.285-1.213L-40.838,0H-43.1l2.338-13.5h2.487l-.958,4.86a2.963,2.963,0,0,1,2.32-1.046,2.683,2.683,0,0,1,2.167.989A4.376,4.376,0,0,1-33.9-6.012,10.274,10.274,0,0,1-33.957-4.729Zm-2.461-.185a7.373,7.373,0,0,0,.053-1.164q-.1-1.534-1.266-1.56a2.062,2.062,0,0,0-1.819,1l-.686,3.791a1.415,1.415,0,0,0,1.424.987q1.828.053,2.241-2.662ZM-26.125,0h-2.5l1.652-9.51h2.5Zm-.554-11.927a1.238,1.238,0,0,1,.387-.976,1.36,1.36,0,0,1,.976-.387,1.367,1.367,0,0,1,.976.343,1.233,1.233,0,0,1,.431.932,1.273,1.273,0,0,1-.365.949,1.367,1.367,0,0,1-1,.422,1.39,1.39,0,0,1-.971-.334A1.227,1.227,0,0,1-26.679-11.927ZM-20.1-9.519l-.211,1.125a3.422,3.422,0,0,1,2.769-1.292,2.281,2.281,0,0,1,1.986.984A3.966,3.966,0,0,1-15.1-6.047L-16.1,0h-2.479l1.02-6.073a2.844,2.844,0,0,0,.018-.624,1.007,1.007,0,0,0-1.125-.923,2.133,2.133,0,0,0-1.749.905L-21.6,0h-2.479l1.652-9.51ZM-.576-4.729a6.819,6.819,0,0,1-1.371,3.6A3.412,3.412,0,0,1-4.812.185,2.652,2.652,0,0,1-7.1-1.028L-7.458,0H-9.716l2.338-13.5h2.487l-.958,4.86a2.963,2.963,0,0,1,2.32-1.046A2.683,2.683,0,0,1-1.362-8.7,4.376,4.376,0,0,1-.523-6.012,10.274,10.274,0,0,1-.576-4.729Zm-2.461-.185a7.373,7.373,0,0,0,.053-1.164q-.1-1.534-1.266-1.56a2.062,2.062,0,0,0-1.819,1l-.686,3.791a1.415,1.415,0,0,0,1.424.987q1.828.053,2.241-2.662ZM5.7,0a2.566,2.566,0,0,1-.1-.861A3.221,3.221,0,0,1,3.177.176a2.919,2.919,0,0,1-2.07-.813A2.46,2.46,0,0,1,.338-2.6,2.843,2.843,0,0,1,1.644-4.988a5.924,5.924,0,0,1,3.335-.831l1.16.018.123-.571a1.984,1.984,0,0,0,.026-.554.952.952,0,0,0-.312-.646,1.075,1.075,0,0,0-.708-.242,1.514,1.514,0,0,0-.984.286,1.384,1.384,0,0,0-.519.875l-2.487.009a2.764,2.764,0,0,1,1.252-2.21,4.851,4.851,0,0,1,2.94-.831A3.507,3.507,0,0,1,8-8.723a2.816,2.816,0,0,1,.765,2.386L8.038-1.784l-.044.563A2.714,2.714,0,0,0,8.143-.167L8.134,0ZM3.792-1.749a2.27,2.27,0,0,0,1.872-.932l.308-1.644-.861-.009A2.406,2.406,0,0,0,3.133-3.5a1.454,1.454,0,0,0-.272.712.844.844,0,0,0,.2.751A1,1,0,0,0,3.792-1.749Zm11.364-.932q.141-.7-.976-1.02l-.8-.2q-2.839-.782-2.76-2.76a2.731,2.731,0,0,1,1.191-2.193,4.434,4.434,0,0,1,2.764-.831,3.978,3.978,0,0,1,2.6.853,2.809,2.809,0,0,1,1.011,2.224l-2.461-.009a1.084,1.084,0,0,0-1.213-1.239,1.745,1.745,0,0,0-1.006.29,1.194,1.194,0,0,0-.523.782q-.132.7,1.063.993l.352.079a7.071,7.071,0,0,1,1.854.664,2.8,2.8,0,0,1,.989.927,2.3,2.3,0,0,1,.321,1.327,2.533,2.533,0,0,1-.584,1.582A3.577,3.577,0,0,1,15.451-.167a5.328,5.328,0,0,1-2.043.343,4.015,4.015,0,0,1-2.637-.91A2.933,2.933,0,0,1,9.7-3.041l2.338.018A1.285,1.285,0,0,0,13.5-1.644a2.076,2.076,0,0,0,1.129-.281A1.111,1.111,0,0,0,15.157-2.681ZM23.225.176a4.137,4.137,0,0,1-2.21-.611,3.7,3.7,0,0,1-1.437-1.652A4.605,4.605,0,0,1,19.208-4.4l.026-.352A6.148,6.148,0,0,1,20.043-7.3a4.884,4.884,0,0,1,1.74-1.789,4.306,4.306,0,0,1,2.355-.593,3.29,3.29,0,0,1,2.782,1.351A4.631,4.631,0,0,1,27.637-5L27.5-3.92H21.669a2.041,2.041,0,0,0,.448,1.477,1.711,1.711,0,0,0,1.318.571,3.041,3.041,0,0,0,2.373-1.055l1.134,1.406A3.527,3.527,0,0,1,25.4-.259,5.059,5.059,0,0,1,23.225.176Zm.791-7.813a1.761,1.761,0,0,0-1.217.431,3.784,3.784,0,0,0-.954,1.556h3.41l.053-.229a2.33,2.33,0,0,0,.009-.668,1.276,1.276,0,0,0-.431-.8A1.35,1.35,0,0,0,24.016-7.638ZM33.341,0l1.327-7.655H33.3l.325-1.854,1.371-.009.123-.949a3.748,3.748,0,0,1,1.239-2.386,3.751,3.751,0,0,1,2.575-.848,8.246,8.246,0,0,1,1.345.184l-.22,1.97a3.073,3.073,0,0,0-.729-.105,1.817,1.817,0,0,0-1.129.335,1.525,1.525,0,0,0-.584,1.033l-.132.777h1.837l-.325,1.854H37.165L35.837,0ZM44.459-9.686a3.814,3.814,0,0,1,2.167.646,3.638,3.638,0,0,1,1.336,1.731,5.357,5.357,0,0,1,.3,2.448,5.786,5.786,0,0,1-1.578,3.669,4.455,4.455,0,0,1-3.4,1.367,3.8,3.8,0,0,1-2.145-.637A3.624,3.624,0,0,1,39.81-2.18,5.239,5.239,0,0,1,39.5-4.605,5.957,5.957,0,0,1,41.1-8.35,4.363,4.363,0,0,1,44.459-9.686Zm-2.5,5.979a2.194,2.194,0,0,0,.4,1.33,1.314,1.314,0,0,0,1.063.5,1.926,1.926,0,0,0,1.793-1.049,5.227,5.227,0,0,0,.606-2.848A2.387,2.387,0,0,0,45.4-7.116a1.293,1.293,0,0,0-1.068-.522A1.929,1.929,0,0,0,42.565-6.6,5.173,5.173,0,0,0,41.955-3.706ZM55.49-7.128a5.117,5.117,0,0,0-.835-.088,2.4,2.4,0,0,0-2.1.993L51.456,0H48.977l1.652-9.51,2.329-.009-.229,1.16A2.615,2.615,0,0,1,54.945-9.7a3.615,3.615,0,0,1,.861.123Zm3.9-2.391-.2,1.081a3.5,3.5,0,0,1,2.786-1.248,2.676,2.676,0,0,1,1.459.4,1.889,1.889,0,0,1,.782,1.046,3.662,3.662,0,0,1,2.953-1.45,2.391,2.391,0,0,1,1.973.9A3.68,3.68,0,0,1,69.7-6.275l-.018.22L68.673,0H66.186L67.2-6.08a4.4,4.4,0,0,0,.026-.607.942.942,0,0,0-1.055-.95,2.093,2.093,0,0,0-1.749,1.091l-.026.2L63.286,0H60.807l1.011-6.056a4.386,4.386,0,0,0,.026-.606A.94.94,0,0,0,60.8-7.62a2.1,2.1,0,0,0-1.7.888L57.916,0H55.437l1.644-9.51Z" transform="translate(-1135 -2394)" fill="#12263f"/>
    <path id="Trazado_188499" data-name="Trazado 188499" d="M-44.481-4.271a4.786,4.786,0,0,1-.905,2.351A4.921,4.921,0,0,1-47.355-.347a6,6,0,0,1-2.619.523,4.428,4.428,0,0,1-2.206-.584,3.874,3.874,0,0,1-1.481-1.617,5.976,5.976,0,0,1-.611-2.439,11.963,11.963,0,0,1,.224-2.689,8.526,8.526,0,0,1,1.02-2.856,6.374,6.374,0,0,1,1.745-1.978,5.264,5.264,0,0,1,3.252-.984,4.318,4.318,0,0,1,3.151,1.226A4.932,4.932,0,0,1-43.6-8.437l-2.566-.009a2.69,2.69,0,0,0-.483-1.775,1.972,1.972,0,0,0-1.5-.6,2.608,2.608,0,0,0-2.167.94A5.656,5.656,0,0,0-51.46-7a15.925,15.925,0,0,0-.246,2.751,2.738,2.738,0,0,0,.519,1.709,1.736,1.736,0,0,0,1.327.576,2.65,2.65,0,0,0,1.885-.558,2.953,2.953,0,0,0,.936-1.727Zm6.363-5.414a3.814,3.814,0,0,1,2.167.646,3.638,3.638,0,0,1,1.336,1.731,5.357,5.357,0,0,1,.3,2.448A5.786,5.786,0,0,1-35.89-1.191a4.455,4.455,0,0,1-3.4,1.367,3.8,3.8,0,0,1-2.145-.637A3.624,3.624,0,0,1-42.768-2.18a5.239,5.239,0,0,1-.308-2.426,5.957,5.957,0,0,1,1.6-3.744A4.363,4.363,0,0,1-38.118-9.686Zm-2.5,5.979a2.194,2.194,0,0,0,.4,1.33,1.314,1.314,0,0,0,1.063.5,1.926,1.926,0,0,0,1.793-1.049,5.227,5.227,0,0,0,.606-2.848,2.387,2.387,0,0,0-.409-1.347,1.293,1.293,0,0,0-1.068-.522A1.929,1.929,0,0,0-40.012-6.6,5.173,5.173,0,0,0-40.623-3.706Zm10.978-5.812-.2,1.081a3.5,3.5,0,0,1,2.786-1.248,2.676,2.676,0,0,1,1.459.4,1.889,1.889,0,0,1,.782,1.046,3.662,3.662,0,0,1,2.953-1.45,2.391,2.391,0,0,1,1.973.9,3.68,3.68,0,0,1,.558,2.514l-.018.22L-20.364,0h-2.487l1.011-6.08a4.4,4.4,0,0,0,.026-.607.942.942,0,0,0-1.055-.95,2.093,2.093,0,0,0-1.749,1.091l-.026.2L-25.752,0H-28.23l1.011-6.056a4.386,4.386,0,0,0,.026-.606.94.94,0,0,0-1.046-.958,2.1,2.1,0,0,0-1.7.888L-31.122,0H-33.6l1.644-9.51Zm20.382,4.79a7.854,7.854,0,0,1-.782,2.654A4.3,4.3,0,0,1-11.531-.352,3.44,3.44,0,0,1-13.5.185,2.745,2.745,0,0,1-15.68-.844l-.87,4.5h-2.479L-16.752-9.51l2.285-.009-.167.958a3.036,3.036,0,0,1,2.426-1.125A2.7,2.7,0,0,1-10.037-8.67a4.412,4.412,0,0,1,.826,2.659A10.274,10.274,0,0,1-9.264-4.729Zm-2.461-.18.053-.845a2.351,2.351,0,0,0-.312-1.356,1.12,1.12,0,0,0-.962-.519,2.046,2.046,0,0,0-1.784.915l-.712,3.926a1.387,1.387,0,0,0,1.4.924,1.789,1.789,0,0,0,1.494-.7A4.763,4.763,0,0,0-11.725-4.909ZM-5.862,0h-2.5l2.347-13.5h2.487ZM.756.176a4.137,4.137,0,0,1-2.21-.611A3.7,3.7,0,0,1-2.892-2.087,4.605,4.605,0,0,1-3.261-4.4l.026-.352A6.148,6.148,0,0,1-2.426-7.3,4.884,4.884,0,0,1-.686-9.092,4.306,4.306,0,0,1,1.67-9.686,3.29,3.29,0,0,1,4.452-8.334,4.631,4.631,0,0,1,5.168-5L5.027-3.92H-.8A2.041,2.041,0,0,0-.352-2.443a1.711,1.711,0,0,0,1.318.571A3.041,3.041,0,0,0,3.34-2.927L4.474-1.521A3.527,3.527,0,0,1,2.927-.259,5.059,5.059,0,0,1,.756.176Zm.791-7.813A1.761,1.761,0,0,0,.33-7.207,3.784,3.784,0,0,0-.624-5.651h3.41l.053-.229a2.33,2.33,0,0,0,.009-.668,1.276,1.276,0,0,0-.431-.8A1.35,1.35,0,0,0,1.547-7.638ZM9.721-9.519l-.2,1.081A3.5,3.5,0,0,1,12.3-9.686a2.676,2.676,0,0,1,1.459.4,1.889,1.889,0,0,1,.782,1.046A3.662,3.662,0,0,1,17.5-9.686a2.391,2.391,0,0,1,1.973.9,3.68,3.68,0,0,1,.558,2.514l-.018.22L19,0H16.515l1.011-6.08a4.4,4.4,0,0,0,.026-.607.942.942,0,0,0-1.055-.95,2.093,2.093,0,0,0-1.749,1.091l-.026.2L13.614,0H11.136l1.011-6.056a4.386,4.386,0,0,0,.026-.606.94.94,0,0,0-1.046-.958,2.1,2.1,0,0,0-1.7.888L8.244,0H5.766L7.409-9.51ZM25.488.176a4.137,4.137,0,0,1-2.21-.611,3.7,3.7,0,0,1-1.437-1.652A4.605,4.605,0,0,1,21.472-4.4l.026-.352A6.148,6.148,0,0,1,22.307-7.3a4.884,4.884,0,0,1,1.74-1.789A4.306,4.306,0,0,1,26.4-9.686a3.29,3.29,0,0,1,2.782,1.351A4.631,4.631,0,0,1,29.9-5L29.76-3.92H23.933a2.041,2.041,0,0,0,.448,1.477,1.711,1.711,0,0,0,1.318.571,3.041,3.041,0,0,0,2.373-1.055l1.134,1.406A3.527,3.527,0,0,1,27.659-.259,5.059,5.059,0,0,1,25.488.176Zm.791-7.813a1.761,1.761,0,0,0-1.217.431,3.784,3.784,0,0,0-.954,1.556h3.41l.053-.229a2.33,2.33,0,0,0,.009-.668,1.276,1.276,0,0,0-.431-.8A1.35,1.35,0,0,0,26.279-7.638Zm8.139-1.881-.211,1.125a3.422,3.422,0,0,1,2.769-1.292,2.281,2.281,0,0,1,1.986.984,3.966,3.966,0,0,1,.466,2.654L38.426,0H35.947l1.02-6.073a2.844,2.844,0,0,0,.018-.624,1.007,1.007,0,0,0-1.125-.923,2.133,2.133,0,0,0-1.749.905L32.924,0H30.445L32.1-9.51ZM45.4-11.848,44.982-9.51h1.582l-.325,1.863H44.657l-.809,4.764a1.211,1.211,0,0,0,.07.686q.123.237.6.255.141.009.756-.044L45.1-.044a4.169,4.169,0,0,1-1.424.2,2.234,2.234,0,0,1-1.819-.765,2.763,2.763,0,0,1-.492-2.021l.817-5.019H40.834l.325-1.863H42.5l.4-2.338ZM49.148-3.92a5.114,5.114,0,0,1,.47-1.929A4.408,4.408,0,0,1,50.832-7.3a11.318,11.318,0,0,0,1.1-.972,2.255,2.255,0,0,0,.659-1.781.9.9,0,0,0-.993-.882,1.406,1.406,0,0,0-1.055.4,2.064,2.064,0,0,0-.571,1.125L47.487-9.4a3.6,3.6,0,0,1,1.288-2.645,4.315,4.315,0,0,1,2.949-.941,3.661,3.661,0,0,1,2.593.949A2.926,2.926,0,0,1,55.134-9.6a4.173,4.173,0,0,1-1.705,2.839L52.3-5.827a3.15,3.15,0,0,0-.984,1.9Zm-.817,2.742a1.306,1.306,0,0,1,.378-.993,1.392,1.392,0,0,1,.993-.422,1.34,1.34,0,0,1,.976.356,1.294,1.294,0,0,1,.431.962,1.3,1.3,0,0,1-.369.967,1.367,1.367,0,0,1-1,.431,1.423,1.423,0,0,1-.989-.36A1.261,1.261,0,0,1,48.331-1.178Z" transform="translate(-873 -2394)" fill="#12263f"/>
    <g id="Grupo_176023" data-name="Grupo 176023" transform="translate(288 560)">
      <rect id="Rectángulo_45765" data-name="Rectángulo 45765" width="219" height="119" rx="5" transform="translate(-1781 -3007)" fill="#3c3fa7"/>
      <rect id="Rectángulo_45766" data-name="Rectángulo 45766" width="182" height="62" rx="5" transform="translate(-1762 -2991)" fill="#fff"/>
      <text id="Subject" transform="translate(-1671 -2954)" fill="#12263f" font-size="18" font-family="Roboto-BoldItalic, Roboto" font-weight="700" font-style="italic"><tspan x="-29.962" y="0">Subject</tspan></text>
      <text id="Bruno" transform="translate(-1671 -2902)" fill="#fff" font-size="16" font-family="Roboto-BoldItalic, Roboto" font-weight="700" font-style="italic"><tspan x="-21.059" y="0">Bruno</tspan></text>
    </g>
    <path id="Trazado_188495" data-name="Trazado 188495" d="M-8.449-4.234A5.849,5.849,0,0,1-7.172-7.418a3.242,3.242,0,0,1,2.629-1.2,2.37,2.37,0,0,1,2.016.977l.289-.82,2.023.008L-1.6-.289A3.983,3.983,0,0,1-3.035,2.383a4.471,4.471,0,0,1-3,.953,4.168,4.168,0,0,1-1.672-.379,3.575,3.575,0,0,1-1.312-1L-7.926.617a2.349,2.349,0,0,0,1.844.961,2.166,2.166,0,0,0,1.469-.449A2.4,2.4,0,0,0-3.785-.227l.125-.508A2.749,2.749,0,0,1-5.73.156,2.428,2.428,0,0,1-7.691-.762a3.947,3.947,0,0,1-.8-2.348A7.89,7.89,0,0,1-8.449-4.234Zm2.164.927A2.02,2.02,0,0,0-5.977-2.13a1.08,1.08,0,0,0,.895.466,1.972,1.972,0,0,0,1.594-.767l.656-3.583a1.3,1.3,0,0,0-1.242-.767A1.728,1.728,0,0,0-5.5-6.1a3.561,3.561,0,0,0-.734,1.87A8.214,8.214,0,0,0-6.285-3.307ZM4.9-8.609a3.39,3.39,0,0,1,1.926.574A3.234,3.234,0,0,1,8.016-6.5a4.762,4.762,0,0,1,.27,2.176,5.143,5.143,0,0,1-1.4,3.262A3.96,3.96,0,0,1,3.863.156,3.38,3.38,0,0,1,1.957-.41,3.222,3.222,0,0,1,.77-1.937,4.657,4.657,0,0,1,.5-4.094,5.3,5.3,0,0,1,1.918-7.422,3.878,3.878,0,0,1,4.9-8.609ZM2.676-3.294a1.95,1.95,0,0,0,.352,1.182,1.168,1.168,0,0,0,.945.449A1.712,1.712,0,0,0,5.566-2.6a4.647,4.647,0,0,0,.539-2.531,2.122,2.122,0,0,0-.363-1.2,1.149,1.149,0,0,0-.949-.464,1.715,1.715,0,0,0-1.574.924A4.6,4.6,0,0,0,2.676-3.294Z" transform="translate(-1135 -2342)" fill="#12263f"/>
    <path id="Trazado_188500" data-name="Trazado 188500" d="M-30.574-1.656a1.447,1.447,0,0,0,1.016-.332,1.632,1.632,0,0,0,.531-.926l2.07-.008a3.037,3.037,0,0,1-.559,1.6A3.394,3.394,0,0,1-28.859-.211a3.847,3.847,0,0,1-1.77.375A3.123,3.123,0,0,1-33.066-.9a3.965,3.965,0,0,1-.867-2.766l.023-.43.008-.086a5.284,5.284,0,0,1,1.391-3.27A3.761,3.761,0,0,1-29.6-8.609a3.047,3.047,0,0,1,2.27.934A3.3,3.3,0,0,1-26.5-5.3h-2.055a1.73,1.73,0,0,0-.3-1.07,1.128,1.128,0,0,0-.891-.422q-1.578-.047-1.914,2.3a7.782,7.782,0,0,0-.086,1.438Q-31.668-1.68-30.574-1.656ZM-21.215,0A2.281,2.281,0,0,1-21.3-.766a2.863,2.863,0,0,1-2.156.922A2.594,2.594,0,0,1-25.3-.566a2.186,2.186,0,0,1-.684-1.746,2.527,2.527,0,0,1,1.16-2.121,5.266,5.266,0,0,1,2.965-.738l1.031.016.109-.508a1.764,1.764,0,0,0,.023-.492.846.846,0,0,0-.277-.574.955.955,0,0,0-.629-.215,1.345,1.345,0,0,0-.875.254,1.231,1.231,0,0,0-.461.777l-2.211.008a2.457,2.457,0,0,1,1.113-1.965,4.312,4.312,0,0,1,2.613-.738,3.117,3.117,0,0,1,2.25.855,2.5,2.5,0,0,1,.68,2.121l-.648,4.047-.039.5a2.412,2.412,0,0,0,.133.938L-19.051,0Zm-1.7-1.555a2.017,2.017,0,0,0,1.664-.828l.273-1.461-.766-.008a2.139,2.139,0,0,0-1.758.742,1.292,1.292,0,0,0-.242.633.75.75,0,0,0,.176.668A.891.891,0,0,0-22.91-1.555Zm8.719-6.906-.18.961a3.112,3.112,0,0,1,2.477-1.109,2.379,2.379,0,0,1,1.3.359,1.679,1.679,0,0,1,.7.93A3.255,3.255,0,0,1-7.277-8.609a2.126,2.126,0,0,1,1.754.8,3.271,3.271,0,0,1,.5,2.234l-.016.2L-5.941,0H-8.152l.9-5.4a3.908,3.908,0,0,0,.023-.54.837.837,0,0,0-.937-.845,1.86,1.86,0,0,0-1.555.97l-.023.18L-10.73,0h-2.2l.9-5.383a3.9,3.9,0,0,0,.023-.539.836.836,0,0,0-.93-.852,1.867,1.867,0,0,0-1.508.789L-15.5,0h-2.2l1.461-8.453ZM3.926-4.2a6.981,6.981,0,0,1-.7,2.359A3.826,3.826,0,0,1,1.91-.312,3.058,3.058,0,0,1,.16.164,2.44,2.44,0,0,1-1.777-.75l-.773,4h-2.2l2.023-11.7L-.7-8.461l-.148.852a2.7,2.7,0,0,1,2.156-1,2.4,2.4,0,0,1,1.93.9,3.922,3.922,0,0,1,.734,2.363A9.133,9.133,0,0,1,3.926-4.2Zm-2.187-.16.047-.751A2.089,2.089,0,0,0,1.508-6.32a1,1,0,0,0-.855-.462,1.818,1.818,0,0,0-1.586.814l-.633,3.49a1.233,1.233,0,0,0,1.242.822A1.59,1.59,0,0,0,1-2.274,4.234,4.234,0,0,0,1.738-4.364ZM6.949,0H4.73L6.2-8.453H8.418ZM6.457-10.6a1.1,1.1,0,0,1,.344-.867,1.209,1.209,0,0,1,.867-.344,1.215,1.215,0,0,1,.867.3,1.1,1.1,0,0,1,.383.828,1.132,1.132,0,0,1-.324.844,1.215,1.215,0,0,1-.887.375,1.235,1.235,0,0,1-.863-.3A1.091,1.091,0,0,1,6.457-10.6ZM12.3-8.461l-.187,1a3.042,3.042,0,0,1,2.461-1.148,2.028,2.028,0,0,1,1.766.875,3.526,3.526,0,0,1,.414,2.359L15.863,0h-2.2l.906-5.4a2.528,2.528,0,0,0,.016-.555.9.9,0,0,0-1-.82,1.9,1.9,0,0,0-1.555.8L10.973,0H8.77l1.469-8.453Zm5.711,4.227a5.849,5.849,0,0,1,1.277-3.184,3.242,3.242,0,0,1,2.629-1.2,2.37,2.37,0,0,1,2.016.977l.289-.82,2.023.008L24.863-.289a3.983,3.983,0,0,1-1.437,2.672,4.471,4.471,0,0,1-3,.953,4.168,4.168,0,0,1-1.672-.379,3.575,3.575,0,0,1-1.312-1L18.535.617a2.349,2.349,0,0,0,1.844.961,2.166,2.166,0,0,0,1.469-.449,2.4,2.4,0,0,0,.828-1.355L22.8-.734a2.749,2.749,0,0,1-2.07.891A2.428,2.428,0,0,1,18.77-.762a3.947,3.947,0,0,1-.8-2.348A7.89,7.89,0,0,1,18.012-4.234Zm2.164.927a2.02,2.02,0,0,0,.309,1.178,1.08,1.08,0,0,0,.895.466,1.972,1.972,0,0,0,1.594-.767l.656-3.583a1.3,1.3,0,0,0-1.242-.767,1.728,1.728,0,0,0-1.43.681,3.561,3.561,0,0,0-.734,1.87A8.214,8.214,0,0,0,20.176-3.307Zm8.836-.177A4.545,4.545,0,0,1,29.43-5.2a3.918,3.918,0,0,1,1.078-1.289,10.06,10.06,0,0,0,.98-.864,2,2,0,0,0,.586-1.583.8.8,0,0,0-.883-.784,1.25,1.25,0,0,0-.937.352,1.835,1.835,0,0,0-.508,1l-2.211.016A3.2,3.2,0,0,1,28.68-10.7a3.836,3.836,0,0,1,2.621-.836,3.254,3.254,0,0,1,2.3.844,2.6,2.6,0,0,1,.727,2.164,3.71,3.71,0,0,1-1.516,2.523l-1,.828a2.8,2.8,0,0,0-.875,1.688Zm-.727,2.438a1.161,1.161,0,0,1,.336-.883A1.238,1.238,0,0,1,29.5-2.3a1.191,1.191,0,0,1,.867.316,1.15,1.15,0,0,1,.383.855,1.16,1.16,0,0,1-.328.859,1.215,1.215,0,0,1-.891.383,1.265,1.265,0,0,1-.879-.32A1.121,1.121,0,0,1,28.285-1.047Z" transform="translate(-873 -2342)" fill="#12263f"/>
  </g>
</svg>
