<svg xmlns="http://www.w3.org/2000/svg" xmlns:xlink="http://www.w3.org/1999/xlink" width="1030" height="349" viewBox="0 0 1030 349">
  <defs>
    <clipPath id="clip-path">
      <path id="Rectángulo_45782" data-name="Rectángulo 45782" d="M17,0h996a17,17,0,0,1,17,17V300a0,0,0,0,1,0,0H0a0,0,0,0,1,0,0V17A17,17,0,0,1,17,0Z" transform="translate(285 2147.719)" fill="#3c3fa7"/>
    </clipPath>
    <clipPath id="clip-path-2">
      <rect id="Rectángulo_45784" data-name="Rectángulo 45784" width="1030" height="349" transform="translate(285 2005)" fill="#fff" stroke="#707070" stroke-width="1"/>
    </clipPath>
  </defs>
  <g id="Grupo_177626" data-name="Grupo 177626" transform="translate(-285 -10866)">
    <path id="Rectángulo_45781" data-name="Rectángulo 45781" d="M17,0h996a17,17,0,0,1,17,17V300a0,0,0,0,1,0,0H0a0,0,0,0,1,0,0V17A17,17,0,0,1,17,0Z" transform="translate(285 10914.719)" fill="#3c3fa7"/>
    <g id="Enmascarar_grupo_335" data-name="Enmascarar grupo 335" transform="translate(0 8767)" clip-path="url(#clip-path)">
      <g id="Grupo_176033" data-name="Grupo 176033" transform="translate(44.874 2102.86) rotate(-45)">
        <g id="Grupo_176029" data-name="Grupo 176029" transform="translate(12.928 12.719)" style="mix-blend-mode: overlay;isolation: isolate">
          <path id="Trazado_186455" data-name="Trazado 186455" d="M381.065,193.9c-28.706,28.879-58.284,56.782-88.382,84.238,13.755-28.387,28.464-56.374,41.6-85.025,14.888-32.481,32.484-76.637,17.012-109.336-35.257-74.533-136.371,4.587-174.067,44.549-4.014,4.26-7.865,8.692-11.76,13.076,14.244-31.557,27.243-63.91,25.687-97.256-2.139-45.85-44.513-55-82.378-31.983C68.116,36.875,34.5,78.018,6.309,115.281c-23.948,31.649,26.4,58.553,50.15,27.35A456.4,456.4,0,0,1,98.777,94.517q-3.466,5.925-7,11.83C76.2,132.378,60.795,158.5,47.831,185.752c-24.822,52.17-61.317,124.491-35.386,177.071,13.07,26.5,46.444,27.776,72.159,15.625,34.567-16.334,59.516-50.127,83.4-78.849,24.926-29.989,47.117-61.644,70.344-92.813,9.7-13.024,19.41-26.228,30.4-38.3.252-.28.514-.538.765-.812l-.3.825c-6.606,18.035-14.838,35.425-23.169,52.864-15.5,32.446-35.147,66.745-41.852,101.6-5.927,30.82,5.128,64.582,42.636,60.71,35.261-3.639,64.939-38.229,89.447-61.534,29.678-28.227,58.872-56.965,88.071-85.675C454.828,206.49,411.218,163.573,381.065,193.9Z" transform="translate(5.763 5.624)" fill="#3c384f"/>
          <path id="Trazado_186456" data-name="Trazado 186456" d="M248.989,395.17c-13.8.609-25.3-3.645-33.416-12.405-11.277-12.178-15.469-32.638-11.219-54.73,5.541-28.8,19.447-56.772,32.891-83.812,3.22-6.477,6.409-12.89,9.436-19.23,2.87-6.013,5.889-12.33,8.9-18.859q-2.65,3.536-5.248,7.031l-1.719,2.311q-9.053,12.144-17.954,24.349c-16.73,22.806-34.03,46.393-52.6,68.73-2.712,3.262-5.439,6.591-8.2,9.956-21.312,26.021-45.465,55.511-77.4,70.6-28.469,13.438-64.886,11.633-79.416-17.842-26.115-52.947,7.829-124.059,32.617-175.98l2.813-5.9c7.293-15.338,15.373-30.352,23.9-45.318q-2.894,3.631-5.687,7.308C52,170.658,27.766,171.447,12.807,161.062c-12.371-8.589-18.78-25.289-5.2-43.24,30.1-39.778,63.563-80,104.264-104.738C134.461-.642,158.651-3.776,176.6,4.7c15.8,7.464,25.046,23.2,26.029,44.326,1.154,24.772-5.368,48.819-14.292,71.88,30.535-29.447,86.463-71.764,129.626-67.63,19.827,1.909,34.737,13.148,44.315,33.4,15.758,33.3.222,76.314-17.055,113.992-8.223,17.939-17.185,35.865-25.853,53.207l-3.068,6.134c24.5-22.756,46.453-43.916,66.639-64.219v.006c9.98-10.046,22.269-14.117,34.571-11.483a36.9,36.9,0,0,1,27.79,27.121c2.855,12.224-1.17,24.466-11.342,34.464l-3.321,3.261c-27.646,27.185-56.231,55.3-84.827,82.485-3.524,3.354-7.149,6.936-10.888,10.629-22.239,21.957-49.914,49.289-82.237,52.624C251.436,395.028,250.2,395.116,248.989,395.17Zm26.5-227.228a5.127,5.127,0,0,1,2.727.6,5.016,5.016,0,0,1,2.405,6.251l-.3.831c-6.924,18.912-15.67,37.226-23.386,53.384-3.058,6.4-6.278,12.873-9.523,19.4-13.082,26.319-26.613,53.531-31.849,80.753-3.553,18.483-.2,35.972,8.748,45.637,6.637,7.168,16.108,10.127,28.184,8.922,27.985-2.892,52.808-27.4,74.709-49.027,3.8-3.747,7.483-7.387,11.06-10.794,28.519-27.117,57.069-55.188,84.678-82.338l3.315-3.26c9-8.843,9.262-17.631,7.906-23.447a26.945,26.945,0,0,0-20.01-19.555c-5.832-1.255-14.617-.879-23.411,7.972v.006c-26.078,26.226-55.063,53.851-88.619,84.45a5.86,5.86,0,0,1-7.2.743,5.256,5.256,0,0,1-1.587-6.746c5.2-10.731,10.534-21.4,15.871-32.071,8.619-17.25,17.536-35.085,25.671-52.835,16.186-35.294,30.855-75.332,16.968-104.679-8.071-17.074-19.846-26.127-36-27.677-40.239-3.86-99.108,41.6-128.836,73.118-3.171,3.355-6.234,6.828-9.3,10.3l-2.32,2.628a5.967,5.967,0,0,1-7.347,1.439,5.216,5.216,0,0,1-1.988-6.8c13.562-30.059,26.679-62.126,25.166-94.623-.813-17.411-7.828-29.726-20.286-35.612-14.531-6.864-34.611-4.024-53.718,7.584C78.374,46.118,45.875,85.24,16.544,124c-9.265,12.249-4.335,22.337,3.374,27.688,10.44,7.241,27.25,7.407,37.854-6.531a465.334,465.334,0,0,1,42.911-48.795,5.877,5.877,0,0,1,7.475-.867,5.323,5.323,0,0,1,1.274,7.119q-3.484,5.951-7.035,11.882c-15.769,26.359-30.981,52.229-43.662,78.883l-2.82,5.916C32.132,249.113-.431,317.341,23.394,365.651c11.573,23.467,41.408,24.492,64.9,13.4,29.312-13.845,51.491-40.923,72.936-67.113,2.774-3.382,5.525-6.741,8.261-10.026,18.318-22.041,35.5-45.466,52.118-68.121q8.962-12.224,18.009-24.425l1.719-2.305c9.111-12.237,18.53-24.885,29.08-36.479l.532-.567A6.878,6.878,0,0,1,275.493,167.941Zm111.349,31.59.051,0Z" transform="translate(-0.008 -0.009)" fill="#3c384f"/>
          <path id="Trazado_186457" data-name="Trazado 186457" d="M27.611,3.054C4.748,45.532-9.286,94.767,7.166,138.613c2.429,6.485,13.589,3.108,11.125-3.471C2.851,93.974,15.7,48.236,37.2,8.282,40.752,1.7,31.174-3.567,27.611,3.054Z" transform="translate(24.531 216.659)" fill="#3c384f"/>
          <path id="Trazado_186458" data-name="Trazado 186458" d="M16.413,29.871c-.1-.007-.186-.031-.277-.044-.146-.3-.274-.621-.321-.708l-.027-.032c-.009-.044.006-.011-.008-.078-.623-2.476-1.034-4.99-1.478-7.518q-1.535-8.8-3.075-17.591C10.73,1.053,7.242-.731,4.392.291A6.305,6.305,0,0,0,.1,7.37q1.739,9.946,3.484,19.9c.965,5.519,2.581,12.746,9.315,13.563,2.909.353,6.316-1.035,7.188-4.232C20.832,33.86,19.537,30.249,16.413,29.871Z" transform="translate(47.734 307.531)" fill="#3c384f"/>
          <path id="Trazado_186459" data-name="Trazado 186459" d="M22.5.6C16.177-2.517,9.98,7.423,16.309,10.544,25.049,14.852,27.35,24.306,27.282,33.7c-.068,10.662-1.78,21.692-4.013,32.287A229.062,229.062,0,0,1,.781,127.14c-3.544,6.592,6.029,11.849,9.591,5.228A240.07,240.07,0,0,0,35.684,60.394C39.275,40.05,43.782,11.091,22.5.6Z" transform="translate(303.364 86.336)" fill="#3c384f"/>
        </g>
        <g id="Grupo_176032" data-name="Grupo 176032" transform="translate(0.008 0.009)">
          <g id="Grupo_176031" data-name="Grupo 176031" transform="translate(0)">
            <g id="Grupo_176030" data-name="Grupo 176030">
              <path id="Trazado_186460" data-name="Trazado 186460" d="M381.07,193.9c-28.706,28.879-58.284,56.782-88.387,84.233,13.754-28.382,28.47-56.374,41.6-85.02,14.888-32.481,32.479-76.636,17.012-109.335-35.257-74.533-136.37,4.581-174.067,44.549-4.02,4.255-7.865,8.687-11.76,13.076,14.238-31.556,27.237-63.909,25.687-97.256-2.139-45.85-44.513-55-82.378-31.988C68.116,36.877,34.508,78.019,6.309,115.282c-23.948,31.649,26.4,58.553,50.156,27.349A456.985,456.985,0,0,1,98.777,94.513q-3.466,5.925-6.994,11.835C76.205,132.379,60.8,158.5,47.836,185.748,23.008,237.923-13.481,310.239,12.45,362.825c13.07,26.5,46.439,27.777,72.159,15.625,34.567-16.334,59.516-50.127,83.4-78.848,24.926-29.989,47.111-61.644,70.338-92.813,9.71-13.025,19.416-26.229,30.4-38.3.251-.274.519-.532.77-.812l-.3.831c-6.606,18.035-14.844,35.425-23.169,52.864-15.5,32.441-35.147,66.74-41.852,101.6-5.933,30.82,5.128,64.582,42.636,60.71,35.255-3.639,64.934-38.228,89.441-61.534,29.684-28.227,58.878-56.971,88.077-85.681C454.827,206.492,411.218,163.575,381.07,193.9Z" transform="translate(5.758 5.623)" fill="#6b8dfc"/>
              <path id="Trazado_186461" data-name="Trazado 186461" d="M248.983,395.164c-13.8.609-25.3-3.639-33.41-12.4-11.277-12.178-15.469-32.637-11.219-54.736,5.535-28.8,19.441-56.766,32.891-83.812,3.214-6.476,6.4-12.884,9.435-19.224,2.869-6.013,5.889-12.33,8.9-18.859-1.767,2.352-3.516,4.7-5.248,7.031l-1.719,2.3c-6.035,8.1-12,16.229-17.96,24.35-16.725,22.811-34.025,46.4-52.595,68.73q-4.069,4.9-8.2,9.962c-21.312,26.015-45.465,55.505-77.4,70.6-28.475,13.438-64.886,11.628-79.416-17.848-26.115-52.942,7.829-124.053,32.611-175.98l2.819-5.9c7.293-15.338,15.373-30.352,23.9-45.318q-2.885,3.63-5.687,7.3c-14.678,19.293-38.917,20.082-53.875,9.7-12.371-8.589-18.78-25.289-5.2-43.24,30.1-39.778,63.563-80,104.258-104.743C134.461-.642,158.645-3.776,176.6,4.7c15.8,7.464,25.041,23.2,26.029,44.32,1.154,24.772-5.368,48.825-14.3,71.88,30.54-29.441,86.463-71.759,129.625-67.625,19.827,1.909,34.742,13.147,44.321,33.4,15.752,33.3.216,76.309-17.055,113.992-8.223,17.933-17.185,35.864-25.853,53.2L316.3,260c24.5-22.751,46.453-43.91,66.639-64.214h0c9.98-10.046,22.269-14.111,34.571-11.478a36.88,36.88,0,0,1,27.784,27.121c2.86,12.224-1.164,24.46-11.336,34.458l-3.321,3.266c-27.646,27.185-56.231,55.291-84.827,82.485-3.524,3.354-7.149,6.936-10.894,10.629-22.234,21.956-49.909,49.289-82.232,52.624C251.43,395.023,250.2,395.111,248.983,395.164Zm26.5-227.228a5.118,5.118,0,0,1,2.726.608,5.01,5.01,0,0,1,2.411,6.251l-.3.831c-6.923,18.906-15.67,37.226-23.386,53.383-3.057,6.4-6.277,12.868-9.523,19.4-13.087,26.319-26.618,53.532-31.855,80.748-3.553,18.483-.2,35.972,8.753,45.642,6.632,7.162,16.108,10.127,28.184,8.922,27.985-2.892,52.808-27.4,74.7-49.027,3.8-3.752,7.488-7.393,11.066-10.794,28.519-27.117,57.068-55.188,84.678-82.338l3.315-3.266c8.993-8.837,9.261-17.626,7.9-23.447a26.929,26.929,0,0,0-20.01-19.55c-5.827-1.255-14.611-.879-23.405,7.972h0c-26.078,26.226-55.063,53.851-88.619,84.456a5.861,5.861,0,0,1-7.2.743,5.25,5.25,0,0,1-1.587-6.746c5.2-10.731,10.534-21.4,15.866-32.076,8.624-17.245,17.536-35.079,25.677-52.829,16.181-35.294,30.855-75.332,16.968-104.685-8.076-17.068-19.852-26.121-36-27.677-40.239-3.854-99.113,41.6-128.842,73.118-3.166,3.36-6.229,6.833-9.3,10.3l-2.326,2.634a5.958,5.958,0,0,1-7.341,1.438,5.222,5.222,0,0,1-1.993-6.807c13.568-30.054,26.685-62.126,25.171-94.618C190.412,33.111,183.4,20.8,170.939,14.91c-14.536-6.858-34.611-4.018-53.718,7.59C78.368,46.113,45.875,85.24,16.544,124c-9.271,12.249-4.335,22.332,3.374,27.682,10.44,7.247,27.25,7.412,37.854-6.526a464.179,464.179,0,0,1,42.911-48.795,5.87,5.87,0,0,1,7.469-.867,5.312,5.312,0,0,1,1.274,7.113q-3.484,5.959-7.03,11.887c-15.774,26.359-30.981,52.228-43.668,78.883L55.91,199.3C32.132,249.113-.431,317.341,23.394,365.645c11.573,23.473,41.408,24.5,64.9,13.408,29.312-13.845,51.491-40.929,72.936-67.113q4.162-5.082,8.255-10.031c18.323-22.036,35.5-45.46,52.123-68.116q8.963-12.225,18.009-24.43l1.719-2.3c9.111-12.237,18.531-24.89,29.075-36.479l.537-.567A6.872,6.872,0,0,1,275.488,167.936Zm111.349,31.6.057,0Z" transform="translate(-0.008 -0.009)"/>
            </g>
            <path id="Trazado_186462" data-name="Trazado 186462" d="M27.614,3.055C4.746,45.533-9.283,94.762,7.163,138.615c2.435,6.479,13.595,3.108,11.13-3.471C2.848,93.97,15.7,48.237,37.206,8.283,40.75,1.692,31.177-3.566,27.614,3.055Z" transform="translate(24.528 216.658)"/>
            <path id="Trazado_186463" data-name="Trazado 186463" d="M16.413,29.871c-.1-.007-.186-.031-.277-.044-.146-.3-.279-.621-.327-.708l-.021-.033c-.009-.044.006-.017-.008-.084-.623-2.471-1.039-4.989-1.478-7.513Q12.76,12.695,11.228,3.9C10.73,1.053,7.242-.731,4.386.291A6.3,6.3,0,0,0,.1,7.369L3.576,27.262c.97,5.524,2.586,12.751,9.32,13.569,2.909.348,6.316-1.035,7.188-4.232C20.832,33.86,19.532,30.249,16.413,29.871Z" transform="translate(47.734 307.531)"/>
            <path id="Trazado_186464" data-name="Trazado 186464" d="M22.5.6c-6.318-3.115-12.521,6.825-6.186,9.946C25.05,14.852,27.346,24.306,27.284,33.69c-.068,10.662-1.78,21.7-4.013,32.293A229.064,229.064,0,0,1,.783,127.14c-3.55,6.592,6.029,11.849,9.591,5.228A240.32,240.32,0,0,0,35.686,60.394C39.277,40.044,43.784,11.085,22.5.6Z" transform="translate(303.362 86.336)"/>
          </g>
        </g>
      </g>
      <g id="Grupo_176038" data-name="Grupo 176038" transform="translate(1571.336 2492.029) rotate(135)">
        <g id="Grupo_176034" data-name="Grupo 176034" transform="translate(12.928 12.719)" style="mix-blend-mode: overlay;isolation: isolate">
          <path id="Trazado_186465" data-name="Trazado 186465" d="M381.065,193.9c-28.706,28.879-58.284,56.782-88.382,84.238,13.755-28.387,28.464-56.374,41.6-85.025,14.888-32.481,32.484-76.637,17.012-109.336-35.257-74.533-136.371,4.587-174.067,44.549-4.014,4.26-7.865,8.692-11.76,13.076,14.244-31.557,27.243-63.91,25.687-97.256-2.139-45.85-44.513-55-82.378-31.983C68.116,36.875,34.5,78.018,6.309,115.281c-23.948,31.649,26.4,58.553,50.15,27.35A456.4,456.4,0,0,1,98.777,94.517q-3.466,5.925-7,11.83C76.2,132.378,60.795,158.5,47.831,185.752c-24.822,52.17-61.317,124.491-35.386,177.071,13.07,26.5,46.444,27.776,72.159,15.625,34.567-16.334,59.516-50.127,83.4-78.849,24.926-29.989,47.117-61.644,70.344-92.813,9.7-13.024,19.41-26.228,30.4-38.3.252-.28.514-.538.765-.812l-.3.825c-6.606,18.035-14.838,35.425-23.169,52.864-15.5,32.446-35.147,66.745-41.852,101.6-5.927,30.82,5.128,64.582,42.636,60.71,35.261-3.639,64.939-38.229,89.447-61.534,29.678-28.227,58.872-56.965,88.071-85.675C454.828,206.49,411.218,163.573,381.065,193.9Z" transform="translate(5.763 5.624)" fill="#3c384f"/>
          <path id="Trazado_186466" data-name="Trazado 186466" d="M248.989,395.17c-13.8.609-25.3-3.645-33.416-12.405-11.277-12.178-15.469-32.638-11.219-54.73,5.541-28.8,19.447-56.772,32.891-83.812,3.22-6.477,6.409-12.89,9.436-19.23,2.87-6.013,5.889-12.33,8.9-18.859q-2.65,3.536-5.248,7.031l-1.719,2.311q-9.053,12.144-17.954,24.349c-16.73,22.806-34.03,46.393-52.6,68.73-2.712,3.262-5.439,6.591-8.2,9.956-21.312,26.021-45.465,55.511-77.4,70.6-28.469,13.438-64.886,11.633-79.416-17.842-26.115-52.947,7.829-124.059,32.617-175.98l2.813-5.9c7.293-15.338,15.373-30.352,23.9-45.318q-2.894,3.631-5.687,7.308C52,170.658,27.766,171.447,12.807,161.062c-12.371-8.589-18.78-25.289-5.2-43.24,30.1-39.778,63.563-80,104.264-104.738C134.461-.642,158.651-3.776,176.6,4.7c15.8,7.464,25.046,23.2,26.029,44.326,1.154,24.772-5.368,48.819-14.292,71.88,30.535-29.447,86.463-71.764,129.626-67.63,19.827,1.909,34.737,13.148,44.315,33.4,15.758,33.3.222,76.314-17.055,113.992-8.223,17.939-17.185,35.865-25.853,53.207l-3.068,6.134c24.5-22.756,46.453-43.916,66.639-64.219v.006c9.98-10.046,22.269-14.117,34.571-11.483a36.9,36.9,0,0,1,27.79,27.121c2.855,12.224-1.17,24.466-11.342,34.464l-3.321,3.261c-27.646,27.185-56.231,55.3-84.827,82.485-3.524,3.354-7.149,6.936-10.888,10.629-22.239,21.957-49.914,49.289-82.237,52.624C251.436,395.028,250.2,395.116,248.989,395.17Zm26.5-227.228a5.127,5.127,0,0,1,2.727.6,5.016,5.016,0,0,1,2.405,6.251l-.3.831c-6.924,18.912-15.67,37.226-23.386,53.384-3.058,6.4-6.278,12.873-9.523,19.4-13.082,26.319-26.613,53.531-31.849,80.753-3.553,18.483-.2,35.972,8.748,45.637,6.637,7.168,16.108,10.127,28.184,8.922,27.985-2.892,52.808-27.4,74.709-49.027,3.8-3.747,7.483-7.387,11.06-10.794,28.519-27.117,57.069-55.188,84.678-82.338l3.315-3.26c9-8.843,9.262-17.631,7.906-23.447a26.945,26.945,0,0,0-20.01-19.555c-5.832-1.255-14.617-.879-23.411,7.972v.006c-26.078,26.226-55.063,53.851-88.619,84.45a5.86,5.86,0,0,1-7.2.743,5.256,5.256,0,0,1-1.587-6.746c5.2-10.731,10.534-21.4,15.871-32.071,8.619-17.25,17.536-35.085,25.671-52.835,16.186-35.294,30.855-75.332,16.968-104.679-8.071-17.074-19.846-26.127-36-27.677-40.239-3.86-99.108,41.6-128.836,73.118-3.171,3.355-6.234,6.828-9.3,10.3l-2.32,2.628a5.967,5.967,0,0,1-7.347,1.439,5.216,5.216,0,0,1-1.988-6.8c13.562-30.059,26.679-62.126,25.166-94.623-.813-17.411-7.828-29.726-20.286-35.612-14.531-6.864-34.611-4.024-53.718,7.584C78.374,46.118,45.875,85.24,16.544,124c-9.265,12.249-4.335,22.337,3.374,27.688,10.44,7.241,27.25,7.407,37.854-6.531a465.334,465.334,0,0,1,42.911-48.795,5.877,5.877,0,0,1,7.475-.867,5.323,5.323,0,0,1,1.274,7.119q-3.484,5.951-7.035,11.882c-15.769,26.359-30.981,52.229-43.662,78.883l-2.82,5.916C32.132,249.113-.431,317.341,23.394,365.651c11.573,23.467,41.408,24.492,64.9,13.4,29.312-13.845,51.491-40.923,72.936-67.113,2.774-3.382,5.525-6.741,8.261-10.026,18.318-22.041,35.5-45.466,52.118-68.121q8.962-12.224,18.009-24.425l1.719-2.305c9.111-12.237,18.53-24.885,29.08-36.479l.532-.567A6.878,6.878,0,0,1,275.493,167.941Zm111.349,31.59.051,0Z" transform="translate(-0.008 -0.009)" fill="#3c384f"/>
          <path id="Trazado_186467" data-name="Trazado 186467" d="M27.611,3.054C4.748,45.532-9.286,94.767,7.166,138.613c2.429,6.485,13.589,3.108,11.125-3.471C2.851,93.974,15.7,48.236,37.2,8.282,40.752,1.7,31.174-3.567,27.611,3.054Z" transform="translate(24.531 216.659)" fill="#3c384f"/>
          <path id="Trazado_186468" data-name="Trazado 186468" d="M16.413,29.871c-.1-.007-.186-.031-.277-.044-.146-.3-.274-.621-.321-.708l-.027-.032c-.009-.044.006-.011-.008-.078-.623-2.476-1.034-4.99-1.478-7.518q-1.535-8.8-3.075-17.591C10.73,1.053,7.242-.731,4.392.291A6.305,6.305,0,0,0,.1,7.37q1.739,9.946,3.484,19.9c.965,5.519,2.581,12.746,9.315,13.563,2.909.353,6.316-1.035,7.188-4.232C20.832,33.86,19.537,30.249,16.413,29.871Z" transform="translate(47.734 307.531)" fill="#3c384f"/>
          <path id="Trazado_186469" data-name="Trazado 186469" d="M22.5.6C16.177-2.517,9.98,7.423,16.309,10.544,25.049,14.852,27.35,24.306,27.282,33.7c-.068,10.662-1.78,21.692-4.013,32.287A229.062,229.062,0,0,1,.781,127.14c-3.544,6.592,6.029,11.849,9.591,5.228A240.07,240.07,0,0,0,35.684,60.394C39.275,40.05,43.782,11.091,22.5.6Z" transform="translate(303.364 86.336)" fill="#3c384f"/>
        </g>
        <g id="Grupo_176037" data-name="Grupo 176037" transform="translate(0.008 0.009)">
          <g id="Grupo_176036" data-name="Grupo 176036" transform="translate(0)">
            <g id="Grupo_176035" data-name="Grupo 176035">
              <path id="Trazado_186470" data-name="Trazado 186470" d="M381.07,193.9c-28.706,28.879-58.284,56.782-88.387,84.233,13.754-28.382,28.47-56.374,41.6-85.02,14.888-32.481,32.479-76.636,17.012-109.335-35.257-74.533-136.37,4.581-174.067,44.549-4.02,4.255-7.865,8.687-11.76,13.076,14.238-31.556,27.237-63.909,25.687-97.256-2.139-45.85-44.513-55-82.378-31.988C68.116,36.877,34.508,78.019,6.309,115.282c-23.948,31.649,26.4,58.553,50.156,27.349A456.985,456.985,0,0,1,98.777,94.513q-3.466,5.925-6.994,11.835C76.205,132.379,60.8,158.5,47.836,185.748,23.008,237.923-13.481,310.239,12.45,362.825c13.07,26.5,46.439,27.777,72.159,15.625,34.567-16.334,59.516-50.127,83.4-78.848,24.926-29.989,47.111-61.644,70.338-92.813,9.71-13.025,19.416-26.229,30.4-38.3.251-.274.519-.532.77-.812l-.3.831c-6.606,18.035-14.844,35.425-23.169,52.864-15.5,32.441-35.147,66.74-41.852,101.6-5.933,30.82,5.128,64.582,42.636,60.71,35.255-3.639,64.934-38.228,89.441-61.534,29.684-28.227,58.878-56.971,88.077-85.681C454.827,206.492,411.218,163.575,381.07,193.9Z" transform="translate(5.758 5.623)" fill="#6b8dfc"/>
              <path id="Trazado_186471" data-name="Trazado 186471" d="M248.983,395.164c-13.8.609-25.3-3.639-33.41-12.4-11.277-12.178-15.469-32.637-11.219-54.736,5.535-28.8,19.441-56.766,32.891-83.812,3.214-6.476,6.4-12.884,9.435-19.224,2.869-6.013,5.889-12.33,8.9-18.859-1.767,2.352-3.516,4.7-5.248,7.031l-1.719,2.3c-6.035,8.1-12,16.229-17.96,24.35-16.725,22.811-34.025,46.4-52.595,68.73q-4.069,4.9-8.2,9.962c-21.312,26.015-45.465,55.505-77.4,70.6-28.475,13.438-64.886,11.628-79.416-17.848-26.115-52.942,7.829-124.053,32.611-175.98l2.819-5.9c7.293-15.338,15.373-30.352,23.9-45.318q-2.885,3.63-5.687,7.3c-14.678,19.293-38.917,20.082-53.875,9.7-12.371-8.589-18.78-25.289-5.2-43.24,30.1-39.778,63.563-80,104.258-104.743C134.461-.642,158.645-3.776,176.6,4.7c15.8,7.464,25.041,23.2,26.029,44.32,1.154,24.772-5.368,48.825-14.3,71.88,30.54-29.441,86.463-71.759,129.625-67.625,19.827,1.909,34.742,13.147,44.321,33.4,15.752,33.3.216,76.309-17.055,113.992-8.223,17.933-17.185,35.864-25.853,53.2L316.3,260c24.5-22.751,46.453-43.91,66.639-64.214h0c9.98-10.046,22.269-14.111,34.571-11.478a36.88,36.88,0,0,1,27.784,27.121c2.86,12.224-1.164,24.46-11.336,34.458l-3.321,3.266c-27.646,27.185-56.231,55.291-84.827,82.485-3.524,3.354-7.149,6.936-10.894,10.629-22.234,21.956-49.909,49.289-82.232,52.624C251.43,395.023,250.2,395.111,248.983,395.164Zm26.5-227.228a5.118,5.118,0,0,1,2.726.608,5.01,5.01,0,0,1,2.411,6.251l-.3.831c-6.923,18.906-15.67,37.226-23.386,53.383-3.057,6.4-6.277,12.868-9.523,19.4-13.087,26.319-26.618,53.532-31.855,80.748-3.553,18.483-.2,35.972,8.753,45.642,6.632,7.162,16.108,10.127,28.184,8.922,27.985-2.892,52.808-27.4,74.7-49.027,3.8-3.752,7.488-7.393,11.066-10.794,28.519-27.117,57.068-55.188,84.678-82.338l3.315-3.266c8.993-8.837,9.261-17.626,7.9-23.447a26.929,26.929,0,0,0-20.01-19.55c-5.827-1.255-14.611-.879-23.405,7.972h0c-26.078,26.226-55.063,53.851-88.619,84.456a5.861,5.861,0,0,1-7.2.743,5.25,5.25,0,0,1-1.587-6.746c5.2-10.731,10.534-21.4,15.866-32.076,8.624-17.245,17.536-35.079,25.677-52.829,16.181-35.294,30.855-75.332,16.968-104.685-8.076-17.068-19.852-26.121-36-27.677-40.239-3.854-99.113,41.6-128.842,73.118-3.166,3.36-6.229,6.833-9.3,10.3l-2.326,2.634a5.958,5.958,0,0,1-7.341,1.438,5.222,5.222,0,0,1-1.993-6.807c13.568-30.054,26.685-62.126,25.171-94.618C190.412,33.111,183.4,20.8,170.939,14.91c-14.536-6.858-34.611-4.018-53.718,7.59C78.368,46.113,45.875,85.24,16.544,124c-9.271,12.249-4.335,22.332,3.374,27.682,10.44,7.247,27.25,7.412,37.854-6.526a464.179,464.179,0,0,1,42.911-48.795,5.87,5.87,0,0,1,7.469-.867,5.312,5.312,0,0,1,1.274,7.113q-3.484,5.959-7.03,11.887c-15.774,26.359-30.981,52.228-43.668,78.883L55.91,199.3C32.132,249.113-.431,317.341,23.394,365.645c11.573,23.473,41.408,24.5,64.9,13.408,29.312-13.845,51.491-40.929,72.936-67.113q4.162-5.082,8.255-10.031c18.323-22.036,35.5-45.46,52.123-68.116q8.963-12.225,18.009-24.43l1.719-2.3c9.111-12.237,18.531-24.89,29.075-36.479l.537-.567A6.872,6.872,0,0,1,275.488,167.936Zm111.349,31.6.057,0Z" transform="translate(-0.008 -0.009)"/>
            </g>
            <path id="Trazado_186472" data-name="Trazado 186472" d="M27.614,3.055C4.746,45.533-9.283,94.762,7.163,138.615c2.435,6.479,13.595,3.108,11.13-3.471C2.848,93.97,15.7,48.237,37.206,8.283,40.75,1.692,31.177-3.566,27.614,3.055Z" transform="translate(24.528 216.658)"/>
            <path id="Trazado_186473" data-name="Trazado 186473" d="M16.413,29.871c-.1-.007-.186-.031-.277-.044-.146-.3-.279-.621-.327-.708l-.021-.033c-.009-.044.006-.017-.008-.084-.623-2.471-1.039-4.989-1.478-7.513Q12.76,12.695,11.228,3.9C10.73,1.053,7.242-.731,4.386.291A6.3,6.3,0,0,0,.1,7.369L3.576,27.262c.97,5.524,2.586,12.751,9.32,13.569,2.909.348,6.316-1.035,7.188-4.232C20.832,33.86,19.532,30.249,16.413,29.871Z" transform="translate(47.734 307.531)"/>
            <path id="Trazado_186474" data-name="Trazado 186474" d="M22.5.6c-6.318-3.115-12.521,6.825-6.186,9.946C25.05,14.852,27.346,24.306,27.284,33.69c-.068,10.662-1.78,21.7-4.013,32.293A229.064,229.064,0,0,1,.783,127.14c-3.55,6.592,6.029,11.849,9.591,5.228A240.32,240.32,0,0,0,35.686,60.394C39.277,40.044,43.784,11.085,22.5.6Z" transform="translate(303.362 86.336)"/>
          </g>
        </g>
      </g>
      <g id="Grupo_176039" data-name="Grupo 176039" transform="translate(212.667 13.258)">
        <path id="Trazado_186475" data-name="Trazado 186475" d="M611.508,159.8C606.855,80.8,551.624,5.37,476.823.692,390.908-6.529,312.048,45.164,226.468,45.711c-43.639,4.1-84.565-14.228-127.092-20.148C3.324,21.695-11.311,145.539,6.6,225.365,82.15,601.7,616.739,550.495,611.508,159.8Z" transform="matrix(0.799, 0.602, -0.602, 0.799, 535.028, 2110.019)" fill="#6b8dfc"/>
        <path id="Trazado_186476" data-name="Trazado 186476" d="M.035,154.006C4.373,77.87,55.859,5.175,125.587.667c80.088-6.959,153.6,42.859,233.376,43.386,40.68,3.956,78.83-13.712,118.473-19.417,89.538-3.728,103.18,115.624,86.481,192.555C493.494,579.873-4.841,530.528.035,154.006Z" transform="translate(1243.283 2373.271) rotate(-171)" fill="#3c3fa7" opacity="0.388" style="mix-blend-mode: multiply;isolation: isolate"/>
        <path id="Trazado_186477" data-name="Trazado 186477" d="M.035,154.006C4.373,77.87,55.859,5.175,125.587.667c80.088-6.959,153.6,42.859,233.376,43.386,40.68,3.956,78.83-13.712,118.473-19.417,89.538-3.728,103.18,115.624,86.481,192.555C493.494,579.873-4.841,530.528.035,154.006Z" transform="matrix(0.995, 0.105, -0.105, 0.995, -14.178, 2176.616)" fill="#3c3fa7" opacity="0.388" style="mix-blend-mode: multiply;isolation: isolate"/>
      </g>
    </g>
    <rect id="Rectángulo_45783" data-name="Rectángulo 45783" width="1030" height="37" transform="translate(285 11177.719)" fill="#6b8dfc" opacity="0.563"/>
    <g id="Enmascarar_grupo_336" data-name="Enmascarar grupo 336" transform="translate(0 8861)" clip-path="url(#clip-path-2)">
      <g id="Grupo_176182" data-name="Grupo 176182" transform="translate(427.712 1964.129)">
        <ellipse id="Elipse_4888" data-name="Elipse 4888" cx="254.03" cy="16.979" rx="254.03" ry="16.979" transform="translate(32.29 692.162)" fill="#d2e4ff"/>
        <g id="Grupo_176161" data-name="Grupo 176161" transform="translate(88.912 61.279)">
          <g id="Grupo_176135" data-name="Grupo 176135" transform="translate(0 273.25)">
            <g id="Grupo_176118" data-name="Grupo 176118" transform="translate(0 319.253)">
              <path id="Trazado_186566" data-name="Trazado 186566" d="M68.376,465.1s-3.843-9.307,0-12.491,12.353-3.918,12.353-3.918l25.529-16.653,4.393-11.02h24.156v18.122s5.491,14.695,2.746,25.961Z" transform="translate(-66.668 -421.017)" fill="#2e4174"/>
              <g id="Grupo_176112" data-name="Grupo 176112" transform="translate(13.237 26.851)">
                <path id="Trazado_186567" data-name="Trazado 186567" d="M82.942,455.373l-.038,0a.82.82,0,0,1-.786-.858c.519-11.587-6.9-15.6-6.972-15.64a.824.824,0,0,1,.764-1.461c.344.179,8.418,4.552,7.853,17.175A.825.825,0,0,1,82.942,455.373Z" transform="translate(-74.705 -437.32)" fill="#222f4c"/>
              </g>
              <g id="Grupo_176113" data-name="Grupo 176113" transform="translate(57.158 17.299)">
                <path id="Trazado_186568" data-name="Trazado 186568" d="M102.2,459.126c-.021,0-.043,0-.066,0a.822.822,0,0,1-.756-.884c1.662-21,10.19-26.379,10.551-26.6a.823.823,0,0,1,.856,1.407h0c-.081.051-8.179,5.277-9.765,25.32A.824.824,0,0,1,102.2,459.126Z" transform="translate(-101.372 -431.52)" fill="#222f4c"/>
              </g>
              <g id="Grupo_176117" data-name="Grupo 176117" transform="translate(18.489 11.829)">
                <g id="Grupo_176114" data-name="Grupo 176114" transform="translate(0 10.236)">
                  <path id="Trazado_186569" data-name="Trazado 186569" d="M89.936,446.568a1.647,1.647,0,0,1-1.535-1.051,13.939,13.939,0,0,0-9.256-7.858,1.648,1.648,0,0,1,.794-3.2,17.3,17.3,0,0,1,11.536,9.869,1.649,1.649,0,0,1-.947,2.13A1.689,1.689,0,0,1,89.936,446.568Z" transform="translate(-77.894 -434.414)" fill="#222f4c"/>
                </g>
                <g id="Grupo_176115" data-name="Grupo 176115" transform="translate(8.566 4.647)">
                  <path id="Trazado_186570" data-name="Trazado 186570" d="M94.258,444.333a1.65,1.65,0,0,1-1.566-1.136h0a16.114,16.114,0,0,0-8.57-9,1.647,1.647,0,1,1,1.24-3.052,19.191,19.191,0,0,1,10.462,11.037,1.65,1.65,0,0,1-1.566,2.154Z" transform="translate(-83.094 -431.021)" fill="#222f4c"/>
                </g>
                <g id="Grupo_176116" data-name="Grupo 176116" transform="translate(15.69)">
                  <path id="Trazado_186571" data-name="Trazado 186571" d="M98.884,441.728a1.651,1.651,0,0,1-1.54-1.061c-.931-2.439-4.258-8.843-8.41-9.179A1.647,1.647,0,0,1,89.2,428.2c7.074.573,11.058,10.856,11.225,11.292a1.647,1.647,0,0,1-.954,2.123A1.626,1.626,0,0,1,98.884,441.728Z" transform="translate(-87.42 -428.199)" fill="#222f4c"/>
                </g>
              </g>
              <path id="Trazado_186572" data-name="Trazado 186572" d="M67.705,447.782v5.877h3.843c2.334,0,3.844-1.836,5.9-1.836s3.431,1.836,5.765,1.836,3.843-1.958,6.725-1.958,3.569,1.958,7.823,1.958,5.72-1.591,8.968-1.591,4.345,1.591,6.542,1.591,2.331-1.346,5.763-1.346,3.431,1.346,6.862,1.346,4.951-1.865,6.461-1.865,3.368,1.865,4.521,1.865v-5.877Z" transform="translate(-65.997 -403.699)" fill="#547bd0"/>
            </g>
            <g id="Grupo_176125" data-name="Grupo 176125" transform="translate(196.183 319.253)">
              <path id="Trazado_186573" data-name="Trazado 186573" d="M255.725,465.1s3.843-9.307,0-12.491-12.353-3.918-12.353-3.918l-25.529-16.653-4.393-11.02H189.295v18.122s-5.491,14.695-2.746,25.961Z" transform="translate(-185.78 -421.017)" fill="#2e4174"/>
              <g id="Grupo_176119" data-name="Grupo 176119" transform="translate(49.33 26.852)">
                <path id="Trazado_186574" data-name="Trazado 186574" d="M216.581,455.373a.823.823,0,0,1-.822-.786c-.567-12.623,7.509-17,7.853-17.175a.824.824,0,0,1,.764,1.459c-.306.161-7.489,4.109-6.972,15.642a.822.822,0,0,1-.786.858Z" transform="translate(-215.731 -437.32)" fill="#222f4c"/>
              </g>
              <g id="Grupo_176120" data-name="Grupo 176120" transform="translate(2.693 17.299)">
                <path id="Trazado_186575" data-name="Trazado 186575" d="M198.392,459.126a.822.822,0,0,1-.82-.759c-1.586-20.043-9.685-25.269-9.765-25.32a.823.823,0,0,1,.855-1.407c.362.219,8.891,5.6,10.553,26.6a.822.822,0,0,1-.756.884C198.435,459.124,198.414,459.126,198.392,459.126Z" transform="translate(-187.415 -431.52)" fill="#222f4c"/>
              </g>
              <g id="Grupo_176124" data-name="Grupo 176124" transform="translate(24.362 11.83)">
                <g id="Grupo_176121" data-name="Grupo 176121" transform="translate(15.112 10.235)">
                  <path id="Trazado_186576" data-name="Trazado 186576" d="M211.394,446.564a1.644,1.644,0,0,1-1.538-2.235,17.3,17.3,0,0,1,11.536-9.869,1.648,1.648,0,0,1,.794,3.2,13.945,13.945,0,0,0-9.256,7.858A1.65,1.65,0,0,1,211.394,446.564Z" transform="translate(-209.747 -434.414)" fill="#222f4c"/>
                </g>
                <g id="Grupo_176122" data-name="Grupo 176122" transform="translate(7.425 4.646)">
                  <path id="Trazado_186577" data-name="Trazado 186577" d="M206.727,444.333a1.651,1.651,0,0,1-1.568-2.154,19.2,19.2,0,0,1,10.464-11.037,1.647,1.647,0,1,1,1.24,3.052,15.955,15.955,0,0,0-8.568,9A1.651,1.651,0,0,1,206.727,444.333Z" transform="translate(-205.08 -431.02)" fill="#222f4c"/>
                </g>
                <g id="Grupo_176123" data-name="Grupo 176123">
                  <path id="Trazado_186578" data-name="Trazado 186578" d="M202.219,441.728a1.616,1.616,0,0,1-.585-.107,1.647,1.647,0,0,1-.955-2.125c.166-.436,4.149-10.719,11.225-11.292a1.647,1.647,0,0,1,.265,3.284c-4.169.336-7.484,6.74-8.41,9.179A1.648,1.648,0,0,1,202.219,441.728Z" transform="translate(-200.572 -428.199)" fill="#222f4c"/>
                </g>
              </g>
              <path id="Trazado_186579" data-name="Trazado 186579" d="M255.423,447.782v5.877H251.58c-2.334,0-3.844-1.836-5.9-1.836s-3.431,1.836-5.765,1.836-3.843-1.958-6.725-1.958-3.569,1.958-7.823,1.958-5.72-1.591-8.968-1.591-4.345,1.591-6.542,1.591-2.332-1.346-5.763-1.346-3.431,1.346-6.863,1.346-4.951-1.865-6.46-1.865-3.368,1.865-4.521,1.865v-5.877Z" transform="translate(-185.478 -403.699)" fill="#547bd0"/>
            </g>
            <g id="Grupo_176134" data-name="Grupo 176134" transform="translate(35.752)">
              <path id="Trazado_186580" data-name="Trazado 186580" d="M243.869,227.684s10.706,42.96,13.588,56.136S276.4,527.994,277.221,533.347s4.118,4.118,4.941,7.412-3.294,5.353-2.471,7.823,3.513,7,2.581,9.471-28.522,7.412-30.992,4.118-.412-5.765-2.882-8.647-4.941-4.118-4.529-11.118,1.558-9.47-.044-14.412-45.249-198.057-45.249-198.057-68.764,199.292-70,202.174,3.294,9.47,2.882,11.529-6.588,1.647-7.412,3.706,1.647,6.588,0,9.059-8.235,1.235-8.235,1.235-23.059-2.471-25.529-3.294-.824-4.941,0-8.647-3.432-5.353-1.3-12.353,5.422-10.706,6.657-17.294S135.3,265.839,135.3,265.839l10.156-38.155Z" transform="translate(-88.375 -226.858)" fill="#392e66"/>
              <g id="Grupo_176133" data-name="Grupo 176133" transform="translate(3.429)">
                <g id="Grupo_176126" data-name="Grupo 176126" transform="translate(105.947 66.841)">
                  <path id="Trazado_186581" data-name="Trazado 186581" d="M155.607,304.827a.8.8,0,0,1-.231-.035.823.823,0,0,1-.56-1.021l4.941-16.882a.823.823,0,0,1,.463-.524l42.823-18.529a.824.824,0,1,1,.656,1.512L161.23,287.722,156.4,304.234A.825.825,0,0,1,155.607,304.827Z" transform="translate(-154.783 -267.765)" fill="#4f4984"/>
                </g>
                <g id="Grupo_176127" data-name="Grupo 176127" transform="translate(111.713 0.002)">
                  <path id="Trazado_186582" data-name="Trazado 186582" d="M162.708,312.287a.825.825,0,0,1-.667-1.306c.053-.072,5.223-7.318,4.086-12.241-1.234-5.341-7.571-67.985-7.84-70.65a.824.824,0,0,1,1.639-.166c.066.652,6.6,65.2,7.807,70.446,1.3,5.653-4.124,13.254-4.356,13.575A.827.827,0,0,1,162.708,312.287Z" transform="translate(-158.283 -227.184)" fill="#4f4984"/>
                </g>
                <g id="Grupo_176128" data-name="Grupo 176128" transform="translate(92.794)">
                  <path id="Trazado_186583" data-name="Trazado 186583" d="M172.829,287.885a.945.945,0,0,1-.119-.008c-1.525-.221-14.98-2.271-17.577-6.475-2.5-4.04-7.741-48.268-8.331-53.3a.823.823,0,1,1,1.635-.193c2.3,19.608,6.354,49.8,8.1,52.625,1.861,3.009,12.478,5.142,16.411,5.71a.824.824,0,0,1-.115,1.639Z" transform="translate(-146.797 -227.183)" fill="#4f4984"/>
                </g>
                <g id="Grupo_176129" data-name="Grupo 176129" transform="translate(0 0.001)">
                  <path id="Trazado_186584" data-name="Trazado 186584" d="M91.28,555.96a.782.782,0,0,1-.227-.033.821.821,0,0,1-.563-1.02,28.265,28.265,0,0,0,.725-3.152.823.823,0,0,1,1.624.273,30.076,30.076,0,0,1-.766,3.335A.826.826,0,0,1,91.28,555.96Zm.992-9.81a.825.825,0,0,1-.82-.753,42.754,42.754,0,0,0-.852-5.379,6.647,6.647,0,0,1-.138-1.171.823.823,0,0,1,.794-.85.855.855,0,0,1,.852.8,5.055,5.055,0,0,0,.1.881,44.09,44.09,0,0,1,.881,5.582.823.823,0,0,1-.749.891C92.318,546.149,92.3,546.15,92.272,546.15Zm.562-12.867a.8.8,0,0,1-.316-.063.825.825,0,0,1-.445-1.076c.856-2.062,1.952-4.192,2.909-6a.823.823,0,1,1,1.456.769c-.939,1.777-2.013,3.864-2.843,5.863A.824.824,0,0,1,92.834,533.284Zm5.933-11.771a.824.824,0,0,1-.738-1.184,21.562,21.562,0,0,0,1.237-2.96c.049-.16.191-.779.585-3.133a.823.823,0,1,1,1.624.27c-.422,2.523-.563,3.12-.634,3.348a22.767,22.767,0,0,1-1.332,3.2A.824.824,0,0,1,98.766,521.512Zm2.942-12.873a.851.851,0,0,1-.128-.01.822.822,0,0,1-.687-.94c.3-1.934.636-4.123,1-6.542a.824.824,0,0,1,1.629.247c-.367,2.421-.7,4.613-1,6.549A.822.822,0,0,1,101.708,508.639Zm1.981-13.087a.776.776,0,0,1-.122-.01.824.824,0,0,1-.693-.935l.972-6.539a.835.835,0,0,1,.936-.7.824.824,0,0,1,.693.937l-.972,6.54A.823.823,0,0,1,103.689,495.552Zm1.937-13.078a1.029,1.029,0,0,1-.12-.008.827.827,0,0,1-.7-.937l.96-6.532a.823.823,0,1,1,1.629.237l-.959,6.537A.825.825,0,0,1,105.626,482.474Zm1.916-13.068a.982.982,0,0,1-.12-.008.823.823,0,0,1-.7-.934l.954-6.535a.823.823,0,1,1,1.629.239l-.952,6.534A.823.823,0,0,1,107.542,469.406Zm1.9-13.071a.954.954,0,0,1-.119-.007.824.824,0,0,1-.7-.936l.947-6.532a.824.824,0,0,1,1.631.236l-.949,6.535A.822.822,0,0,1,109.446,456.336Zm1.894-13.064a.956.956,0,0,1-.119-.008.824.824,0,0,1-.7-.932l.945-6.534a.824.824,0,1,1,1.631.234l-.947,6.534A.822.822,0,0,1,111.34,443.271Zm1.891-13.066a.979.979,0,0,1-.119-.008.824.824,0,0,1-.7-.932l.944-6.532a.836.836,0,0,1,.934-.7.825.825,0,0,1,.7.934l-.944,6.532A.824.824,0,0,1,113.231,430.205Zm1.889-13.063a.956.956,0,0,1-.119-.008.823.823,0,0,1-.7-.934l.942-6.532a.838.838,0,0,1,.932-.7.824.824,0,0,1,.7.932l-.944,6.532A.825.825,0,0,1,115.12,417.143ZM117,404.078a.967.967,0,0,1-.119-.008.824.824,0,0,1-.7-.932l.944-6.532a.834.834,0,0,1,.932-.7.823.823,0,0,1,.7.932l-.944,6.532A.822.822,0,0,1,117,404.078ZM118.893,391a.979.979,0,0,1-.119-.008.825.825,0,0,1-.7-.934l.942-6.524a.824.824,0,1,1,1.631.236l-.944,6.524A.822.822,0,0,1,118.893,391Zm1.886-13.058a.978.978,0,0,1-.119-.008.825.825,0,0,1-.7-.934l.945-6.531a.823.823,0,1,1,1.629.234l-.945,6.532A.822.822,0,0,1,120.779,377.945Zm1.891-13.064a.979.979,0,0,1-.119-.008.823.823,0,0,1-.7-.932l.945-6.532a.823.823,0,1,1,1.629.236l-.945,6.53A.822.822,0,0,1,122.67,364.88Zm1.892-13.063a.965.965,0,0,1-.119-.007.823.823,0,0,1-.7-.934l.949-6.535a.823.823,0,0,1,1.629.239l-.949,6.532A.822.822,0,0,1,124.562,351.818Zm1.9-13.068a.956.956,0,0,1-.119-.008.825.825,0,0,1-.7-.934l.952-6.532a.833.833,0,0,1,.934-.7.825.825,0,0,1,.7.934l-.952,6.532A.825.825,0,0,1,126.46,338.75Zm1.907-13.066a1,1,0,0,1-.12-.008.823.823,0,0,1-.7-.934l.959-6.535a.823.823,0,1,1,1.629.239l-.959,6.536A.822.822,0,0,1,128.367,325.684Zm1.92-13.068a1.033,1.033,0,0,1-.122-.008.824.824,0,0,1-.693-.937l.967-6.536a.824.824,0,0,1,1.631.24l-.968,6.537A.824.824,0,0,1,130.287,312.616Zm1.944-13.078a.8.8,0,0,1-.124-.01.822.822,0,0,1-.692-.935l.987-6.544a.824.824,0,0,1,1.629.249l-.987,6.539A.823.823,0,0,1,132.231,299.539Zm1.993-13.084a.838.838,0,0,1-.127-.01.824.824,0,0,1-.687-.94c.42-2.69.774-4.9,1.054-6.563a.815.815,0,0,1,.949-.675.824.824,0,0,1,.675.949c-.28,1.66-.632,3.861-1.051,6.544A.825.825,0,0,1,134.224,286.455Zm2.311-13.053a.881.881,0,0,1-.173-.018.824.824,0,0,1-.632-.978c.445-2.072.94-4.24,1.471-6.451a.824.824,0,0,1,1.6.385c-.527,2.2-1.021,4.351-1.464,6.414A.821.821,0,0,1,136.535,273.4Zm3.062-12.83a.811.811,0,0,1-.206-.026.824.824,0,0,1-.591-1c.55-2.141,1.118-4.284,1.688-6.389a.823.823,0,1,1,1.589.43c-.567,2.1-1.133,4.235-1.683,6.369A.824.824,0,0,1,139.6,260.571Zm3.442-12.74a.881.881,0,0,1-.224-.03.824.824,0,0,1-.57-1.016c.629-2.237,1.24-4.373,1.815-6.351a.823.823,0,1,1,1.581.46c-.573,1.975-1.183,4.1-1.81,6.336A.824.824,0,0,1,143.039,247.832Zm3.678-12.674a.84.84,0,0,1-.236-.035.824.824,0,0,1-.553-1.024c1.168-3.907,1.927-6.336,1.927-6.336a.823.823,0,1,1,1.571.491s-.756,2.424-1.92,6.316A.823.823,0,0,1,146.717,235.158Z" transform="translate(-90.457 -227.184)" fill="#4f4984"/>
                </g>
                <g id="Grupo_176130" data-name="Grupo 176130" transform="translate(47.047 0.002)">
                  <path id="Trazado_186585" data-name="Trazado 186585" d="M119.846,265.631a.823.823,0,0,1-.463-1.505c13.489-9.123,15.289-35.9,15.306-36.169a.823.823,0,0,1,1.644.1c-.069,1.133-1.873,27.861-16.026,37.432A.825.825,0,0,1,119.846,265.631Z" transform="translate(-119.022 -227.184)" fill="#4f4984"/>
                </g>
                <g id="Grupo_176131" data-name="Grupo 176131" transform="translate(141.359 0.002)">
                  <path id="Trazado_186586" data-name="Trazado 186586" d="M195.041,261.54a.809.809,0,0,1-.255-.04c-17.829-5.835-18.483-32.353-18.5-33.479a.824.824,0,0,1,.809-.837.844.844,0,0,1,.838.809c0,.264.657,26.473,17.368,31.941a.824.824,0,0,1-.257,1.606Z" transform="translate(-176.283 -227.184)" fill="#4f4984"/>
                </g>
                <g id="Grupo_176132" data-name="Grupo 176132" transform="translate(108.905 92.15)">
                  <path id="Trazado_186587" data-name="Trazado 186587" d="M213.756,528.187a.824.824,0,0,1-.715-.413c-.127-.222-.245-.445-.357-.67a.824.824,0,0,1,1.476-.735c.1.2.2.392.311.585a.823.823,0,0,1-.715,1.234Zm-2.41-6.87a.824.824,0,0,1-.784-.573,14.188,14.188,0,0,0-2.966-5.425.823.823,0,1,1,1.225-1.1,15.717,15.717,0,0,1,3.309,6.025.824.824,0,0,1-.532,1.036A.9.9,0,0,1,211.347,521.318Zm-6.438-11.19a.823.823,0,0,1-.82-.761c-.02-.252-.03-.506-.03-.764a23.147,23.147,0,0,1,1.079-5.992.823.823,0,1,1,1.588.433,21.973,21.973,0,0,0-1.02,5.559c0,.216.008.428.025.639a.824.824,0,0,1-.759.884C204.95,510.128,204.93,510.128,204.908,510.128Zm2.128-12.938a.825.825,0,0,1-.819-.743,4.239,4.239,0,0,0-.069-.46c-.091-.44-.567-2.512-1.354-5.919a.823.823,0,1,1,1.6-.369c.794,3.426,1.27,5.511,1.362,5.956a6.043,6.043,0,0,1,.1.629.822.822,0,0,1-.736.9A.705.705,0,0,1,207.036,497.19Zm-2.94-12.944a.824.824,0,0,1-.8-.636l-1.5-6.448a.824.824,0,1,1,1.6-.374l1.5,6.448a.826.826,0,0,1-.616.99A.909.909,0,0,1,204.1,484.246Zm-3-12.888a.824.824,0,0,1-.8-.637l-1.5-6.438a.823.823,0,1,1,1.6-.372l1.5,6.438a.823.823,0,0,1-.616.988A.81.81,0,0,1,201.092,471.358Zm-3-12.873a.825.825,0,0,1-.8-.637l-1.5-6.433a.823.823,0,1,1,1.6-.374l1.5,6.433a.823.823,0,0,1-.8,1.011Zm-3.008-12.867a.821.821,0,0,1-.8-.636l-1.5-6.43a.823.823,0,1,1,1.6-.376l1.5,6.43a.824.824,0,0,1-.614.99A.811.811,0,0,1,195.08,445.618Zm-3.008-12.86a.822.822,0,0,1-.8-.636l-1.505-6.428a.824.824,0,0,1,1.6-.375l1.5,6.427a.825.825,0,0,1-.614.992A.811.811,0,0,1,192.073,432.758ZM189.064,419.9a.825.825,0,0,1-.8-.636l-1.5-6.427a.823.823,0,1,1,1.6-.377l1.505,6.428a.823.823,0,0,1-.8,1.011Zm-3.009-12.857a.824.824,0,0,1-.8-.636l-1.5-6.427a.823.823,0,1,1,1.6-.376l1.505,6.427a.825.825,0,0,1-.614.992A.921.921,0,0,1,186.055,407.044Zm-3.011-12.854a.823.823,0,0,1-.8-.636l-1.505-6.428a.824.824,0,0,1,1.6-.376l1.5,6.427a.825.825,0,0,1-.614.991A.81.81,0,0,1,183.044,394.191Zm-3.011-12.855a.822.822,0,0,1-.8-.636l-1.5-6.407a.824.824,0,1,1,1.6-.375l1.5,6.407a.822.822,0,0,1-.614.988A.745.745,0,0,1,180.033,381.335ZM177.027,368.5a.824.824,0,0,1-.8-.636l-1.505-6.427a.824.824,0,0,1,1.6-.377l1.505,6.428a.823.823,0,0,1-.8,1.011Zm-3.012-12.857a.822.822,0,0,1-.8-.636l-1.507-6.427a.823.823,0,1,1,1.6-.376l1.507,6.427a.823.823,0,0,1-.613.99A.835.835,0,0,1,174.015,355.645ZM171,342.79a.824.824,0,0,1-.8-.636l-1.507-6.43a.824.824,0,0,1,1.6-.376l1.507,6.428a.824.824,0,0,1-.614.99A.736.736,0,0,1,171,342.79Zm-3.014-12.86a.822.822,0,0,1-.8-.636l-1.509-6.432a.824.824,0,0,1,.614-.99.812.812,0,0,1,.99.613l1.507,6.433a.822.822,0,0,1-.613.988A.766.766,0,0,1,167.987,329.93Zm-3.016-12.867a.822.822,0,0,1-.8-.634l-1.51-6.438a.822.822,0,0,1,.614-.988.813.813,0,0,1,.99.613l1.509,6.437a.824.824,0,0,1-.613.99A.835.835,0,0,1,164.971,317.063Zm-3.019-12.877a.822.822,0,0,1-.8-.636l-1.512-6.447a.824.824,0,0,1,1.6-.376l1.512,6.447a.822.822,0,0,1-.614.988A.754.754,0,0,1,161.952,304.186Zm-3.026-12.9a.822.822,0,0,1-.8-.636l-1.525-6.5a.823.823,0,1,1,1.6-.376l1.525,6.5a.822.822,0,0,1-.613.988A.754.754,0,0,1,158.926,291.285Z" transform="translate(-156.579 -283.132)" fill="#4f4984"/>
                </g>
              </g>
            </g>
          </g>
          <g id="Grupo_176139" data-name="Grupo 176139" transform="translate(79.934 117.531)">
            <path id="Trazado_186588" data-name="Trazado 186588" d="M160.734,132.645s-28.515,3.088-45.534,18.187c0,0,11.529,84.548,11.254,99.1s-3.568,38.157-1.1,41.726,19.42,23.059,35.377,33.489,49.171,22.508,61.8,14.273,12.078-34.861,10.156-42.548-5.215-13.725-4.118-17.842.275-9.334-2.2-12.078-.824-6.863,0-10.432-1.922-6.038-1.647-10.156,7.079-84.823,6.863-101.293c0,0-21.344-8.922-41-10.775S160.734,132.645,160.734,132.645Z" transform="translate(-115.2 -132.638)" fill="#fcdbd4"/>
            <g id="Grupo_176138" data-name="Grupo 176138" transform="translate(25.529 131.838)">
              <g id="Grupo_176136" data-name="Grupo 176136" transform="translate(16.711)">
                <path id="Trazado_186589" data-name="Trazado 186589" d="M149.419,226.907q-3.787,0-7.8-.224a.823.823,0,0,1-.774-.87.836.836,0,0,1,.868-.774c37.7,2.151,60.259-12.079,60.483-12.224a.824.824,0,0,1,.893,1.385C202.878,214.337,182.951,226.907,149.419,226.907Z" transform="translate(-140.846 -212.683)" fill="#e0b9b3"/>
              </g>
              <g id="Grupo_176137" data-name="Grupo 176137" transform="translate(0 8.236)">
                <path id="Trazado_186590" data-name="Trazado 186590" d="M181.954,233.875c-2.149,0-4.431-.084-6.847-.272-24.632-1.915-43.843-14.282-44.034-14.405a.824.824,0,1,1,.9-1.38c.188.122,19.065,12.261,43.261,14.143,24.006,1.863,34.431-6.852,34.534-6.941a.824.824,0,0,1,1.079,1.245C210.453,226.608,201.833,233.875,181.954,233.875Z" transform="translate(-130.7 -217.684)" fill="#e0b9b3"/>
              </g>
            </g>
            <path id="Trazado_186591" data-name="Trazado 186591" d="M160.426,158.165l5.16,10.454,11.537,1.676-8.348,8.137,1.971,11.49L160.426,184.5l-10.319,5.425,1.971-11.49L143.73,170.3l11.537-1.676Z" transform="translate(-96.74 -116.12)" fill="#7e97cf"/>
          </g>
          <g id="Grupo_176145" data-name="Grupo 176145" transform="translate(42.809 113.75)">
            <path id="Trazado_186592" data-name="Trazado 186592" d="M175.319,131.179s-1.407,36.51,0,72.2-.035,84.259-2.471,86.188-23.848,2.2-30.162,1.105c0,0,8.235,7.137,6.04,17.294s-8.51,21.41-16.2,20.861S97.667,307.947,93.55,289.563s6.863-88.169,16.2-113.4,17.844-32.636,29.1-37.577S175.319,128.229,175.319,131.179Z" transform="translate(-92.659 -130.342)" fill="#2e4174"/>
            <g id="Grupo_176140" data-name="Grupo 176140" transform="translate(28.007 20.637)">
              <path id="Trazado_186593" data-name="Trazado 186593" d="M131.685,283.384a.826.826,0,0,1-.754-.489c-.054-.124-5.509-12.4-6.87-15.665-.405-.972.033-4.123,1.359-13.092,3.225-21.8,9.932-67.161,1.085-95.962-2.1-6.839-5.1-11.172-8.929-12.878a8.777,8.777,0,0,0-6.741-.191.823.823,0,0,1-.7-1.491,10.253,10.253,0,0,1,8.075.161c4.3,1.9,7.616,6.58,9.869,13.914,8.955,29.158,2.212,74.767-1.029,96.686-.908,6.13-1.69,11.426-1.461,12.241,1.346,3.225,6.792,15.484,6.847,15.606a.824.824,0,0,1-.751,1.16Z" transform="translate(-109.664 -142.872)" fill="#222f4c"/>
            </g>
            <g id="Grupo_176141" data-name="Grupo 176141" transform="translate(8.577 144.417)">
              <path id="Trazado_186594" data-name="Trazado 186594" d="M98.691,225.148a.823.823,0,0,1-.481-1.492c.466-.336,11.582-8.151,24.839-4.8a.823.823,0,0,1-.4,1.6c-12.5-3.161-23.367,4.462-23.475,4.539A.821.821,0,0,1,98.691,225.148Z" transform="translate(-97.867 -218.025)" fill="#222f4c"/>
            </g>
            <g id="Grupo_176142" data-name="Grupo 176142" transform="translate(9.949 136.254)">
              <path id="Trazado_186595" data-name="Trazado 186595" d="M122.307,219.3a.815.815,0,0,1-.529-.193c-7.977-6.692-21.935-3.7-22.077-3.67a.824.824,0,0,1-.356-1.609c.6-.132,14.9-3.192,23.49,4.017a.823.823,0,0,1-.529,1.454Z" transform="translate(-98.7 -213.069)" fill="#222f4c"/>
            </g>
            <g id="Grupo_176143" data-name="Grupo 176143" transform="translate(56.341 0.741)">
              <path id="Trazado_186596" data-name="Trazado 186596" d="M153.738,225.868a.826.826,0,0,1-.72-.423c-5.168-9.251-22.034-39.615-22.034-41.851,0-2.1,6.274-12.182,8.934-16.36-4.549-1.906-13.051-5.842-13.051-8.619s9.7-23.274,11.646-27.352a.823.823,0,1,1,1.486.71c-4.44,9.311-11.485,24.778-11.485,26.643,0,1.166,6.046,4.658,12.938,7.473a.823.823,0,0,1,.382,1.207c-4.51,7.03-9.186,15.049-9.2,16.3.295,1.973,13.214,25.636,21.825,41.049a.825.825,0,0,1-.718,1.225Z" transform="translate(-126.867 -130.792)" fill="#222f4c"/>
            </g>
            <g id="Grupo_176144" data-name="Grupo 176144" transform="translate(2.859 20.642)">
              <path id="Trazado_186597" data-name="Trazado 186597" d="M136.317,320.283c-.035,0-.069,0-.105-.007-.264-.035-.534-.079-.807-.137a.823.823,0,1,1,.331-1.612c.234.048.461.087.687.115a.824.824,0,0,1-.105,1.641Zm-6.812-2.642a.812.812,0,0,1-.408-.109,55.541,55.541,0,0,1-5.57-3.711.823.823,0,1,1,.985-1.319,54.213,54.213,0,0,0,5.4,3.6.824.824,0,0,1-.41,1.538Zm-10.614-7.805a.821.821,0,0,1-.54-.2c-1.606-1.392-3.255-2.9-4.9-4.485a.824.824,0,0,1,1.143-1.186c1.624,1.565,3.251,3.054,4.836,4.426a.823.823,0,0,1-.539,1.446Zm-9.515-9.141a.817.817,0,0,1-.6-.257c-1.545-1.631-3.042-3.287-4.454-4.925a.823.823,0,0,1,1.248-1.074c1.393,1.617,2.874,3.255,4.4,4.865a.824.824,0,0,1-.6,1.39Zm-8.586-10.017a.826.826,0,0,1-.657-.326,53.733,53.733,0,0,1-3.763-5.546.823.823,0,1,1,1.428-.82,52.373,52.373,0,0,0,3.648,5.371.824.824,0,0,1-.656,1.321Zm-5.514-11.71a.824.824,0,0,1-.822-.781c-.04-.781-.059-1.655-.059-2.614,0-1.219.033-2.576.094-4.052a.847.847,0,0,1,.856-.789.823.823,0,0,1,.789.856c-.059,1.453-.091,2.787-.092,3.984,0,.927.018,1.774.058,2.53a.825.825,0,0,1-.781.865Zm.432-13.175-.063,0a.823.823,0,0,1-.759-.884c.158-2.07.351-4.274.575-6.587a.823.823,0,0,1,1.639.158c-.222,2.3-.413,4.495-.572,6.554A.823.823,0,0,1,95.708,265.792Zm1.258-13.129a.9.9,0,0,1-.094,0,.825.825,0,0,1-.726-.911c.239-2.13.5-4.322.771-6.557a.808.808,0,0,1,.917-.716.822.822,0,0,1,.716.917c-.273,2.228-.53,4.414-.768,6.539A.824.824,0,0,1,96.966,252.663Zm1.6-13.089c-.036,0-.072,0-.109-.007a.825.825,0,0,1-.708-.926c.287-2.161.588-4.347.9-6.54a.824.824,0,0,1,1.631.232q-.464,3.283-.9,6.526A.823.823,0,0,1,98.57,239.574Zm1.85-13.058a.756.756,0,0,1-.122-.01.824.824,0,0,1-.693-.937c.329-2.184.665-4.363,1.008-6.522a.824.824,0,0,1,1.627.259c-.343,2.154-.679,4.33-1.006,6.509A.824.824,0,0,1,100.42,226.517Zm2.072-13.023a.781.781,0,0,1-.137-.012.824.824,0,0,1-.677-.949c.372-2.212.749-4.386,1.128-6.506a.823.823,0,1,1,1.621.29c-.377,2.115-.753,4.282-1.123,6.489A.824.824,0,0,1,102.492,213.494Zm2.324-12.982a.834.834,0,0,1-.155-.015.825.825,0,0,1-.656-.964c.433-2.261.865-4.431,1.295-6.481a.823.823,0,0,1,1.611.336c-.425,2.044-.855,4.2-1.286,6.455A.823.823,0,0,1,104.816,200.512Zm2.731-12.9a.786.786,0,0,1-.194-.025.822.822,0,0,1-.606-.993c.512-2.12,1.074-4.274,1.67-6.4a.823.823,0,0,1,1.586.441c-.59,2.113-1.148,4.249-1.657,6.349A.823.823,0,0,1,107.547,187.614Zm3.543-12.692a.825.825,0,0,1-.784-1.072c.66-2.088,1.365-4.2,2.1-6.275a.824.824,0,1,1,1.553.548c-.726,2.057-1.426,4.151-2.082,6.223A.826.826,0,0,1,111.089,174.921Zm4.391-12.427a.823.823,0,0,1-.768-1.123c.81-2.07,1.659-4.131,2.52-6.122a.823.823,0,1,1,1.512.652c-.855,1.975-1.695,4.017-2.5,6.069A.825.825,0,0,1,115.48,162.495Zm5.236-12.1a.822.822,0,0,1-.743-1.178c1.807-3.772,2.983-5.84,3.034-5.928a.823.823,0,0,1,1.43.817c-.012.02-1.2,2.11-2.976,5.821A.822.822,0,0,1,120.716,150.4Z" transform="translate(-94.395 -142.875)" fill="#222f4c"/>
            </g>
          </g>
          <g id="Grupo_176154" data-name="Grupo 176154" transform="translate(100.555)">
            <g id="Grupo_176146" data-name="Grupo 176146" transform="translate(24.913 89.012)">
              <path id="Trazado_186598" data-name="Trazado 186598" d="M143.782,115.323s2.153,15.143-.936,28.525c0,0,6.588,10.706,15.647,10.19S172.7,145.5,172.7,145.5s-1.441-13.453,0-24.073Z" transform="translate(-142.846 -115.323)" fill="#ff9576"/>
              <path id="Trazado_186599" data-name="Trazado 186599" d="M143.414,115.323a94.331,94.331,0,0,1,.716,10.7c3.622,4.193,9.492,9.158,17.083,9.276a17.185,17.185,0,0,0,10.48-2.937,83.572,83.572,0,0,1,.637-10.945Z" transform="translate(-142.478 -115.323)" fill="#d16f6f"/>
            </g>
            <path id="Trazado_186600" data-name="Trazado 186600" d="M134.936,127.964s-1.853-25.427-2.265-34.486,2.986-12.043,14.309-13.073c0,0,6.064-16.3,19.139-18.872S190.691,76.6,202.5,82.259s15,1.543,15.614,2.265.31,13.9-8.955,19.147a14.29,14.29,0,0,0,5.867.72c2.676-.412,1.441,15.871-19.353,22.4Z" transform="translate(-124.538 -61.279)" fill="#7e4f58"/>
            <path id="Trazado_186601" data-name="Trazado 186601" d="M167.214,71.892c-25.947-.214-31.911,27.176-30.059,48.176s15.441,32.323,35.823,30.059,26.147-20.794,26.764-37.676S192.125,72.1,167.214,71.892Z" transform="translate(-121.816 -54.413)" fill="#ff9576"/>
            <g id="Grupo_176147" data-name="Grupo 176147" transform="translate(47.383 46.92)">
              <path id="Trazado_186602" data-name="Trazado 186602" d="M159.238,118.179a.824.824,0,0,1-.646-1.334c2.7-3.411,5.585-7.611,5.873-8.869a17.8,17.8,0,0,0-5.906.308.819.819,0,0,1-.916-.522c-2.53-6.746-.133-16.933-.03-17.363a.824.824,0,0,1,1.6.384c-.025.1-2.228,9.472-.25,15.762,2.1-.334,5.753-.725,6.825.346.463.463,1.547,1.548-5.908,10.976A.817.817,0,0,1,159.238,118.179Z" transform="translate(-156.488 -89.767)" fill="#a85a5a"/>
            </g>
            <path id="Trazado_186603" data-name="Trazado 186603" d="M146.1,86.285a12.213,12.213,0,0,1,7.733,3.314,16.363,16.363,0,0,1,2.818,3.671c.091.15,1.1,1.538.394,1.337a18.737,18.737,0,0,1-6.946-3.864,35.074,35.074,0,0,1-3.467-3.335C146.386,87.132,145.512,86.451,146.1,86.285Z" transform="translate(-115.955 -45.099)" fill="#7e4f58"/>
            <path id="Trazado_186604" data-name="Trazado 186604" d="M162.48,94.814a8.323,8.323,0,0,1,3.358-7.466c1.873-1.415,5.59-2.708,7.519-.647.211.224-2.1.875-2.406,1.034a19.258,19.258,0,0,0-3.828,2.823,46.284,46.284,0,0,0-3.35,3.329C163.481,94.2,162.788,95.369,162.48,94.814Z" transform="translate(-105.27 -45.525)" fill="#7e4f58"/>
            <path id="Trazado_186605" data-name="Trazado 186605" d="M154.665,97.69c0,1.808-1.166,3.274-2.607,3.274s-2.606-1.466-2.606-3.274,1.166-3.274,2.606-3.274S154.665,95.882,154.665,97.69Z" transform="translate(-113.658 -39.838)" fill="#432242"/>
            <ellipse id="Elipse_4889" data-name="Elipse 4889" cx="2.607" cy="3.274" rx="2.607" ry="3.274" transform="translate(59.03 54.577)" fill="#432242"/>
            <g id="Grupo_176148" data-name="Grupo 176148" transform="translate(40.457 79.03)">
              <path id="Trazado_186606" data-name="Trazado 186606" d="M153.108,114.623a.824.824,0,0,1-.5-1.479c.222-.168,5.453-4.081,9.5-3.874,4.333.236,5.236,3.037,5.272,3.157a.824.824,0,0,1-1.576.479c-.021-.063-.656-1.822-3.785-1.991-3.462-.188-8.364,3.5-8.415,3.54A.822.822,0,0,1,153.108,114.623Z" transform="translate(-152.283 -109.262)" fill="#a85a5a"/>
            </g>
            <path id="Trazado_186607" data-name="Trazado 186607" d="M158.974,106.81c0,4.462-4.287,8.077-9.574,8.077s-9.573-3.615-9.573-8.077,4.286-8.077,9.573-8.077S158.974,102.35,158.974,106.81Z" transform="translate(-119.886 -37.045)" fill="#d3757e"/>
            <path id="Trazado_186608" data-name="Trazado 186608" d="M175.357,98.01c-5.287,0-9.574,3.615-9.574,8.075s4.287,8.077,9.574,8.077a11.223,11.223,0,0,0,2.438-.273,57.253,57.253,0,0,0,2.984-14.456A10.792,10.792,0,0,0,175.357,98.01Z" transform="translate(-103.092 -37.513)" fill="#d3757e"/>
            <g id="Grupo_176152" data-name="Grupo 176152" transform="translate(8.1 0)">
              <path id="Trazado_186609" data-name="Trazado 186609" d="M213.145,85.289c-2.364-.03-5.758-.685-10.648-3.031-11.806-5.663-23.306-23.3-36.378-20.725S146.98,80.406,146.98,80.406c-11.323,1.029-14.721,4.014-14.309,13.073.338,7.41,1.637,25.761,2.1,32.2,28.192-15.166,22.194-41.156,22.194-41.156s3.088,9.573,15.6,13.69,17.861-.824,17.861-.824C206.135,98.26,211.4,90.168,213.145,85.289Z" transform="translate(-132.638 -61.279)" fill="#956366"/>
              <g id="Grupo_176151" data-name="Grupo 176151" transform="translate(19.588 5.883)">
                <g id="Grupo_176149" data-name="Grupo 176149">
                  <path id="Trazado_186610" data-name="Trazado 186610" d="M182.724,95.9a.817.817,0,0,1-.377-.092c-6.333-3.276-8.551-9.365-10.7-15.253-1.619-4.445-3.151-8.645-6.356-11.223-7.214-5.794-19.5-.833-19.626-.782a.824.824,0,0,1-.628-1.524c.539-.222,13.31-5.387,21.285,1.023,3.566,2.864,5.172,7.273,6.873,11.941,2.037,5.592,4.144,11.374,9.907,14.356a.824.824,0,0,1-.38,1.555Z" transform="translate(-144.531 -64.851)" fill="#7e4f58"/>
                </g>
                <g id="Grupo_176150" data-name="Grupo 176150" transform="translate(24.729 8.773)">
                  <path id="Trazado_186611" data-name="Trazado 186611" d="M185.087,90.942a.822.822,0,0,1-.242-.036c-.713-.219-17.557-5.523-25.2-19.511a.824.824,0,0,1,1.446-.789C168.406,84,185.16,89.279,185.329,89.331a.824.824,0,0,1-.242,1.611Z" transform="translate(-159.545 -70.178)" fill="#7e4f58"/>
                </g>
              </g>
            </g>
            <g id="Grupo_176153" data-name="Grupo 176153" transform="translate(0 50.87)">
              <path id="Trazado_186612" data-name="Trazado 186612" d="M146.729,121.148l-3.94-18.727s-3.538-13.382-11.979-9.574C123.5,96.144,129.295,124.64,146.729,121.148Z" transform="translate(-127.72 -92.165)" fill="#d16f6f"/>
              <path id="Trazado_186613" data-name="Trazado 186613" d="M142.785,102.421s-3.538-13.382-11.979-9.574c-2.607,1.178-3.538,5.565-2.876,10.562,5.45-5.715,11.862-2.12,15.168.5Z" transform="translate(-127.717 -92.165)" fill="#ff9576"/>
            </g>
          </g>
          <g id="Grupo_176160" data-name="Grupo 176160" transform="translate(155.32 52.502)">
            <path id="Trazado_186614" data-name="Trazado 186614" d="M280.647,120.721s-.824-9.47,5.559-13.382,12.063-7.823,13.3-12.559,4.941,2.136,4.941,4.671-4.857,6.241-4.24,7.888,24.088-7.848,25.323-6.188-15.853,9.482-16.265,10.717,19.8-4.907,20.832-2.642-19.185,5.936-19.391,7.171,18.117-.863,18.323.906-17.294,4.241-17.912,5.476,11.529,1.441,11.118,3.088-37.47,5.353-37.47,5.353l-11.529,3.706L268.912,123.6Z" transform="translate(-91.128 -93.156)" fill="#ff9576"/>
            <g id="Grupo_176159" data-name="Grupo 176159" transform="translate(0 20.14)">
              <path id="Trazado_186615" data-name="Trazado 186615" d="M160.971,150.273c.1-3.785,36.337-5.962,47.043,2,0,0,3.294-4.307,4.393-4.213s4.118,2.416,5.216,2.217,45.567-18.593,63.411-24.358,64.788-21.067,68.357-20.519,14.548,17.294,10.981,28-65.888,40.01-74.123,44.676-61.214,27.1-61.489,28.548,18.117,69.176,15.647,70.549-48.863,15.322-50.783,12.053S160.867,154.3,160.971,150.273Z" transform="translate(-160.971 -105.383)" fill="#2e4174"/>
              <g id="Grupo_176155" data-name="Grupo 176155" transform="translate(11.632 41.85)">
                <path id="Trazado_186616" data-name="Trazado 186616" d="M172.246,215.473a.838.838,0,0,1-.308-.059.825.825,0,0,1-.456-1.072c5.972-14.825,15.388-39.15,15.232-41.311-.288-1.288-5.188-4.78-9.755-7.389a.823.823,0,0,1-.29-1.151c1.864-2.994,6.613-11.4,6.2-14.27-.372-2.576-9.153-12.427-14.6-18.03a.823.823,0,1,1,1.181-1.148c1.481,1.523,14.478,14.991,15.047,18.943.511,3.53-4.37,11.972-5.985,14.652,2.6,1.528,9.283,5.667,9.818,8.072.56,2.523-11.584,32.975-15.318,42.248A.824.824,0,0,1,172.246,215.473Z" transform="translate(-168.033 -130.792)" fill="#222f4c"/>
              </g>
              <g id="Grupo_176156" data-name="Grupo 176156" transform="translate(46.22 46.064)">
                <path id="Trazado_186617" data-name="Trazado 186617" d="M204.68,186.6a.827.827,0,0,1-.809-.664c-5.14-25.979-14.688-51.221-14.784-51.473a.823.823,0,1,1,1.538-.586c.1.254,9.693,25.621,14.863,51.738a.825.825,0,0,1-.649.968A.751.751,0,0,1,204.68,186.6Z" transform="translate(-189.033 -133.351)" fill="#222f4c"/>
              </g>
              <g id="Grupo_176157" data-name="Grupo 176157" transform="translate(54.73 46.063)">
                <path id="Trazado_186618" data-name="Trazado 186618" d="M201.337,179.193a.825.825,0,0,1-.822-.768c-1.352-19.753-6.249-43.844-6.3-44.086a.824.824,0,1,1,1.614-.329c.049.242,4.969,24.439,6.328,44.3a.824.824,0,0,1-.766.88Z" transform="translate(-194.2 -133.351)" fill="#222f4c"/>
              </g>
              <g id="Grupo_176158" data-name="Grupo 176158" transform="translate(61.043 25.552)">
                <path id="Trazado_186619" data-name="Trazado 186619" d="M198.856,190.331a.823.823,0,0,1-.3-1.589s2.359-.926,6.153-2.441a.824.824,0,0,1,.611,1.53c-3.8,1.517-6.163,2.444-6.163,2.444A.841.841,0,0,1,198.856,190.331Zm12.29-4.9a.824.824,0,0,1-.308-1.588c1.9-.769,3.96-1.6,6.112-2.482a.824.824,0,1,1,.623,1.525c-2.154.88-4.211,1.715-6.119,2.485A.845.845,0,0,1,211.147,185.428Zm12.221-5a.824.824,0,0,1-.316-1.584c2-.828,4.045-1.68,6.087-2.54a.823.823,0,1,1,.639,1.517c-2.047.861-4.09,1.713-6.1,2.545A.818.818,0,0,1,223.368,180.433Zm12.165-5.122a.823.823,0,0,1-.324-1.58c2.062-.886,4.088-1.767,6.043-2.63a.824.824,0,1,1,.667,1.507c-1.96.865-3.994,1.749-6.061,2.637A.834.834,0,0,1,235.533,175.31Zm12.071-5.341a.823.823,0,0,1-.344-1.571c2.181-1,4.185-1.957,5.938-2.83a.823.823,0,1,1,.735,1.472c-1.767.881-3.787,1.841-5.984,2.853A.829.829,0,0,1,247.6,169.969ZM259.39,164a.823.823,0,0,1-.4-1.542c1.575-.88,3.53-1.967,5.779-3.213a.824.824,0,1,1,.8,1.441c-2.25,1.245-4.2,2.331-5.776,3.21A.82.82,0,0,1,259.39,164Zm11.556-6.412a.823.823,0,0,1-.4-1.543l5.781-3.194a.823.823,0,1,1,.8,1.441l-5.779,3.194A.83.83,0,0,1,270.946,157.587Zm11.566-6.384a.823.823,0,0,1-.4-1.545l5.784-3.187a.823.823,0,0,1,.794,1.443l-5.784,3.187A.817.817,0,0,1,282.511,151.2Zm11.567-6.372a.824.824,0,0,1-.4-1.545l5.789-3.187a.823.823,0,1,1,.794,1.443l-5.788,3.187A.824.824,0,0,1,294.078,144.83Zm11.574-6.371a.824.824,0,0,1-.4-1.545l5.788-3.184a.823.823,0,0,1,.792,1.443l-5.786,3.184A.818.818,0,0,1,305.652,138.459Zm11.572-6.364a.823.823,0,0,1-.4-1.545l5.788-3.182a.824.824,0,1,1,.794,1.444l-5.788,3.18A.824.824,0,0,1,317.224,132.1Zm11.579-6.364a.824.824,0,0,1-.4-1.545l5.8-3.187a.823.823,0,1,1,.792,1.443l-5.8,3.187A.813.813,0,0,1,328.8,125.731Z" transform="translate(-198.033 -120.897)" fill="#222f4c"/>
              </g>
            </g>
          </g>
        </g>
        <g id="Grupo_176179" data-name="Grupo 176179" transform="translate(231.816 131.008)">
          <g id="Grupo_176164" data-name="Grupo 176164" transform="translate(139.105)">
            <g id="Grupo_176162" data-name="Grupo 176162" transform="translate(3.082 5.662)">
              <path id="Trazado_186620" data-name="Trazado 186620" d="M274.135,107.215c-21.639-1.537-33.489,7.685-34.313,34.038s6.862,34.861,6.862,34.861,2.471,3.844,14,1.374a41.789,41.789,0,0,1,2.746,25.8s10.981,9.059,27.176,0c0,0-3.294-26.078,0-31.019C295.978,164.214,320.527,110.509,274.135,107.215Z" transform="translate(-239.76 -107.052)" fill="#d3757e"/>
              <path id="Trazado_186621" data-name="Trazado 186621" d="M258.779,142.938c.273,6.512-6.315,11.33-6.315,11.33a37.032,37.032,0,0,1,3.154,10.823A24.947,24.947,0,0,0,258.779,142.938Z" transform="translate(-231.541 -83.833)" fill="#a85b6d"/>
            </g>
            <path id="Trazado_186622" data-name="Trazado 186622" d="M255.412,145.46s-15.477-4.893-17.33-21.967,10.006-23.755,22.953-17.669c0,0,28.733-5.788,40.708,10.065s-7.044,55.176-8.691,60.117-.206,8.647-.412,9.882-16.882,2.676-17.912,1.235.249-15.866-2.347-18.742-13.094-8.973-13.094-8.973Z" transform="translate(-237.889 -103.615)" fill="#3a163f"/>
            <g id="Grupo_176163" data-name="Grupo 176163" transform="translate(17.044 33.688)">
              <path id="Trazado_186623" data-name="Trazado 186623" d="M248.238,149.961V133.756s2.471-10.706,11.256-9.609S260.023,150.59,248.238,149.961Z" transform="translate(-248.238 -124.068)" fill="#a85b6d"/>
              <path id="Trazado_186624" data-name="Trazado 186624" d="M259.494,124.147c-8.785-1.1-11.256,9.609-11.256,9.609v.468c3.75-1.464,10.838-3.085,12.946,4.447C264.015,131.992,264.107,124.725,259.494,124.147Z" transform="translate(-248.238 -124.068)" fill="#d3757e"/>
            </g>
          </g>
          <path id="Trazado_186625" data-name="Trazado 186625" d="M287.874,170.69c9.408-6.483,23.882,9.807,30.882,26.277S337.027,234.9,338.391,235.9s35.13-36.281,39.659-40.7,12.351-8.12,19.763-6.473,16.47-2.471,16.059,1.235-8.647,7-11.941,9.059,11.941,3.5,16.882,3.194,14.823-.924,14.823,0-11.118,6.316-23.882,6.3-23.88-2.451-25.527,0-34.846,65.038-45.836,65.038-39.412-30.179-49.693-47.4C275.7,204.389,272.227,181.474,287.874,170.69Z" transform="translate(-73.164 -61.157)" fill="#d3757e"/>
          <path id="Trazado_186626" data-name="Trazado 186626" d="M236.131,232.9s3.327,19.125,2.075,24.73a157.625,157.625,0,0,0-2.075,16.355s25.521,8.5,47.759,5.465,36.113-5.04,37.684-9.744-5.821-19.512-3.839-36.806Z" transform="translate(-99.922 -19.962)" fill="#d3757e"/>
          <g id="Grupo_176167" data-name="Grupo 176167" transform="translate(125.274 99.979)">
            <path id="Trazado_186627" data-name="Trazado 186627" d="M232.063,184.656c2.054-8.991,33.091-20.339,55.864-20.339s47.2,8.359,50.773,14.062,9.607,35.349,0,60.6-12.628,43.083-12.9,45.56-15.372,5.771-41.449,6.595-46.117.817-47.491-6.595S224.651,217.124,232.063,184.656Z" transform="translate(-229.492 -164.317)" fill="#547bd0"/>
            <g id="Grupo_176165" data-name="Grupo 176165" transform="translate(27.134 73.552)">
              <path id="Trazado_186628" data-name="Trazado 186628" d="M246.789,218.324a.824.824,0,0,1-.216-1.619c1.611-.438,39.664-10.712,58.982-6.875a.823.823,0,1,1-.32,1.614c-18.946-3.762-57.839,6.745-58.229,6.85A.761.761,0,0,1,246.789,218.324Z" transform="translate(-245.967 -208.974)" fill="#3e66ad"/>
            </g>
            <g id="Grupo_176166" data-name="Grupo 176166" transform="translate(60.075 78.458)">
              <path id="Trazado_186629" data-name="Trazado 186629" d="M302.27,218.317a.805.805,0,0,1-.329-.069c-12.246-5.359-34.893-4.6-35.12-4.6a.837.837,0,0,1-.853-.792.824.824,0,0,1,.794-.853c.942-.035,23.246-.777,35.84,4.735a.824.824,0,0,1-.331,1.578Z" transform="translate(-265.967 -211.953)" fill="#3e66ad"/>
            </g>
          </g>
          <path id="Trazado_186630" data-name="Trazado 186630" d="M299.194,172.715c-9.408-6.483-23.882,9.806-30.882,26.277s-18.271,37.928-19.634,38.934-35.13-36.281-39.659-40.7-12.351-8.12-19.763-6.473-16.47-2.471-16.059,1.235,8.647,7,11.941,9.059-11.941,3.5-16.882,3.194-14.823-.924-14.823,0,11.118,6.315,23.882,6.3,23.88-2.452,25.527,0,34.846,65.038,45.836,65.038,39.412-30.179,49.693-47.4C311.364,206.413,314.84,183.5,299.194,172.715Z" transform="translate(-153.432 -59.847)" fill="#d3757e"/>
          <g id="Grupo_176171" data-name="Grupo 176171" transform="translate(183.709 4.037)">
            <path id="Trazado_186631" data-name="Trazado 186631" d="M283.97,106.463c15.677-1.077,19.147,14.206,18.529,44.882s-1.853,51.676,8.441,52.911c0,0,1.235,10.829-19.764,11.592s-22.441-26.621-23.676-47S257,108.316,283.97,106.463Z" transform="translate(-264.971 -105.843)" fill="#531c58"/>
            <g id="Grupo_176170" data-name="Grupo 176170" transform="translate(16.325)">
              <g id="Grupo_176168" data-name="Grupo 176168" transform="translate(9.166 0.803)">
                <path id="Trazado_186632" data-name="Trazado 186632" d="M296.016,212.487a4.654,4.654,0,0,1-3.085-1.155c-4.859-4.118-6.377-19.3-5.8-58.034.595-39.811-6.264-45.19-6.333-45.239a.834.834,0,0,1-.216-1.135.812.812,0,0,1,1.108-.249c.316.2,7.7,5.275,7.087,46.647-.476,31.9.231,52.527,5.218,56.754a3.115,3.115,0,0,0,2.723.7.823.823,0,1,1,.293,1.619A5.361,5.361,0,0,1,296.016,212.487Z" transform="translate(-280.448 -106.554)" fill="#3a163f"/>
              </g>
              <g id="Grupo_176169" data-name="Grupo 176169">
                <path id="Trazado_186633" data-name="Trazado 186633" d="M291.555,154.45a.822.822,0,0,1-.82-.766c-2.793-40.521-15.207-45.977-15.332-46.028a.824.824,0,0,1,.595-1.537c.548.211,13.5,5.613,16.382,47.451a.824.824,0,0,1-.766.878Z" transform="translate(-274.883 -106.066)" fill="#3a163f"/>
              </g>
            </g>
          </g>
          <g id="Grupo_176178" data-name="Grupo 176178" transform="translate(62.276 239.706)">
            <path id="Trazado_186634" data-name="Trazado 186634" d="M242.118,441.375a74.549,74.549,0,0,1,5.541,36.485H192.707s-3.294-10.844,0-12.079,13.588-2,13.588-2,11.012-18.888,18.477-27.178Z" transform="translate(-191.243 -127.865)" fill="#fcdbd4"/>
            <path id="Trazado_186635" data-name="Trazado 186635" d="M313.506,441.375a74.549,74.549,0,0,1,5.541,36.485H264.1s-3.294-10.844,0-12.079,13.588-2,13.588-2,11.01-18.888,18.475-27.178Z" transform="translate(-145.052 -127.865)" fill="#fcdbd4"/>
            <g id="Grupo_176177" data-name="Grupo 176177" transform="translate(27.977)">
              <path id="Trazado_186636" data-name="Trazado 186636" d="M251.989,255.739c-.634,2.047-9.059,53.254-9.607,60.941s-18.393,103.764-21.136,122.43-15.374,124.3-12.628,127.208,13.886,8.071,21.492,0,37.259-112.933,42.746-129.4,29.088-81.254,29.088-81.254,3.294,81.8,5.491,94.43S324.454,561.939,327.2,564.483s21.83,7.346,23.24-1.464,4.76-106.891,5.308-120.616,0-101.018,0-101.018,4.666-25.529,1.372-43.785-17.842-48.983-19.489-48.441-19.764,6.853-48.863,7.4C265.687,257,252.928,252.71,251.989,255.739Z" transform="translate(-208.229 -249.152)" fill="#2e4174"/>
              <path id="Trazado_186637" data-name="Trazado 186637" d="M246.633,273.443c.239-2.388,38.966-3.976,40.883-1.917s.553,22.235,0,23.882-13.089,13.227-18.287,13.639-20.972-9.79-22.207-12.4S246.222,277.561,246.633,273.443Z" transform="translate(-183.654 -235.289)" fill="#222f4c"/>
              <g id="Grupo_176176" data-name="Grupo 176176" transform="translate(2.222 4.513)">
                <g id="Grupo_176172" data-name="Grupo 176172" transform="translate(90.669 0.001)">
                  <path id="Trazado_186638" data-name="Trazado 186638" d="M265.451,354.71a.8.8,0,0,1-.343-.076.822.822,0,0,1-.405-1.09l4.533-9.884a.844.844,0,0,1,.193-.264c.194-.18,19.5-18.139,19.5-39.746,0-21.81-11.859-50.33-11.979-50.617a.823.823,0,0,1,1.519-.637c.122.288,12.107,29.11,12.107,51.254,0,21.407-18.21,39.231-19.908,40.842l-4.465,9.737A.824.824,0,0,1,265.451,354.71Z" transform="translate(-264.628 -251.892)" fill="#222f4c"/>
                </g>
                <g id="Grupo_176173" data-name="Grupo 176173" transform="translate(0 0.187)">
                  <path id="Trazado_186639" data-name="Trazado 186639" d="M210.4,560.755a.82.82,0,0,1-.817-.932l.866-6.555a.823.823,0,1,1,1.632.216l-.866,6.555A.823.823,0,0,1,210.4,560.755Zm1.733-13.107a.843.843,0,0,1-.11-.007.824.824,0,0,1-.707-.926l.868-6.552a.823.823,0,1,1,1.632.216l-.868,6.552A.823.823,0,0,1,212.135,547.647Zm1.734-13.1a.8.8,0,0,1-.109-.007.825.825,0,0,1-.708-.926l.868-6.549a.824.824,0,1,1,1.634.216l-.87,6.549A.823.823,0,0,1,213.87,534.545Zm1.738-13.1a.8.8,0,0,1-.109-.007.825.825,0,0,1-.708-.926l.87-6.547a.824.824,0,0,1,1.634.217l-.871,6.545A.823.823,0,0,1,215.607,521.448Zm1.743-13.094c-.036,0-.072,0-.11,0a.826.826,0,0,1-.707-.927l.871-6.547a.823.823,0,1,1,1.632.219l-.871,6.547A.822.822,0,0,1,217.35,508.354ZM219.1,495.27a.813.813,0,0,1-.109-.007.824.824,0,0,1-.708-.926l.876-6.547a.8.8,0,0,1,.926-.707.824.824,0,0,1,.707.926l-.876,6.547A.823.823,0,0,1,219.1,495.27Zm1.752-13.092a.64.64,0,0,1-.11-.008.823.823,0,0,1-.707-.924l.881-6.547a.8.8,0,0,1,.926-.707.822.822,0,0,1,.707.926l-.879,6.545A.826.826,0,0,1,220.848,482.177Zm1.766-13.091a.622.622,0,0,1-.11-.008.822.822,0,0,1-.707-.927l.888-6.545a.824.824,0,0,1,1.632.221l-.888,6.547A.825.825,0,0,1,222.614,469.087Zm1.782-13.1a.868.868,0,0,1-.112-.007.824.824,0,0,1-.7-.929l.906-6.55a.823.823,0,0,1,1.631.227l-.9,6.549A.823.823,0,0,1,224.4,455.989Zm1.83-13.1a.978.978,0,0,1-.119-.008.823.823,0,0,1-.7-.932l.321-2.2c.183-1.22.408-2.68.672-4.35a.824.824,0,1,1,1.627.257c-.264,1.665-.489,3.12-.67,4.337l-.321,2.194A.821.821,0,0,1,226.226,442.892Zm2.041-13.061a.742.742,0,0,1-.133-.012.823.823,0,0,1-.68-.944l1.072-6.519a.823.823,0,1,1,1.624.27l-1.071,6.512A.823.823,0,0,1,228.267,429.831Zm2.154-13.03a.779.779,0,0,1-.137-.012.822.822,0,0,1-.675-.947l1.09-6.514a.814.814,0,0,1,.949-.675.824.824,0,0,1,.675.949l-1.09,6.511A.823.823,0,0,1,230.421,416.8Zm2.186-13.022a.779.779,0,0,1-.137-.011.823.823,0,0,1-.677-.949l1.1-6.509a.815.815,0,0,1,.95-.675.824.824,0,0,1,.674.949l-1.1,6.509A.824.824,0,0,1,232.606,403.78Zm2.2-13.018a.784.784,0,0,1-.138-.012.825.825,0,0,1-.675-.949l1.1-6.507a.824.824,0,0,1,1.626.273l-1.1,6.507A.826.826,0,0,1,234.8,390.762Zm2.2-13.013a.784.784,0,0,1-.138-.012.825.825,0,0,1-.675-.949l1.1-6.509a.824.824,0,0,1,1.626.273l-1.1,6.509A.826.826,0,0,1,237,377.748Zm2.2-13.02a.81.81,0,0,1-.138-.012.822.822,0,0,1-.675-.949l1.1-6.509a.823.823,0,1,1,1.624.273l-1.094,6.509A.824.824,0,0,1,239.2,364.729Zm2.186-13.02a.779.779,0,0,1-.137-.012.825.825,0,0,1-.677-.947l1.085-6.511a.815.815,0,0,1,.945-.677.823.823,0,0,1,.679.947L242.2,351.02A.824.824,0,0,1,241.389,351.709Zm2.159-13.025a.73.73,0,0,1-.133-.011.824.824,0,0,1-.682-.945c.385-2.357.741-4.539,1.057-6.516a.823.823,0,1,1,1.626.26c-.316,1.976-.67,4.162-1.056,6.522A.824.824,0,0,1,243.548,338.684Zm2.077-13.049a.76.76,0,0,1-.122-.01.823.823,0,0,1-.693-.936l.931-6.534a.823.823,0,1,1,1.631.229l-.932,6.549A.823.823,0,0,1,245.625,325.634Zm1.838-13.081a.653.653,0,0,1-.112-.008.823.823,0,0,1-.7-.927l.893-6.539a.805.805,0,0,1,.927-.7.824.824,0,0,1,.707.926l-.894,6.54A.824.824,0,0,1,247.463,312.554Zm1.782-13.081a.653.653,0,0,1-.112-.008.82.82,0,0,1-.7-.926l.883-6.539a.809.809,0,0,1,.927-.7.821.821,0,0,1,.7.927l-.883,6.539A.823.823,0,0,1,249.245,299.473Zm1.764-13.078a.634.634,0,0,1-.11-.008.824.824,0,0,1-.707-.926l.88-6.54a.807.807,0,0,1,.926-.707.821.821,0,0,1,.707.924l-.878,6.542A.826.826,0,0,1,251.009,286.4Zm1.756-13.084a.843.843,0,0,1-.11-.007.825.825,0,0,1-.707-.926l.875-6.544a.824.824,0,0,1,1.634.219l-.876,6.544A.822.822,0,0,1,252.765,273.311Zm1.748-13.092a.8.8,0,0,1-.109-.007.825.825,0,0,1-.708-.926l.876-6.567a.823.823,0,1,1,1.632.217l-.876,6.568A.822.822,0,0,1,254.512,260.219Z" transform="translate(-209.579 -252.005)" fill="#222f4c"/>
                </g>
                <g id="Grupo_176174" data-name="Grupo 176174" transform="translate(93.512 94.974)">
                  <path id="Trazado_186640" data-name="Trazado 186640" d="M293.51,527.536a.822.822,0,0,1-.812-.692l-1.052-6.55a.824.824,0,0,1,1.627-.26l1.051,6.547a.824.824,0,0,1-.682.945A.9.9,0,0,1,293.51,527.536Zm-2.1-13.078a.825.825,0,0,1-.812-.693l-1.043-6.527a.824.824,0,1,1,1.627-.26l1.041,6.527a.824.824,0,0,1-.682.944A.886.886,0,0,1,291.413,514.458Zm-2.08-13.053a.822.822,0,0,1-.812-.693l-1.036-6.527a.823.823,0,1,1,1.626-.257l1.036,6.524a.823.823,0,0,1-.683.944A.865.865,0,0,1,289.333,501.405Zm-2.07-13.051a.823.823,0,0,1-.812-.7l-1.031-6.524a.824.824,0,0,1,1.627-.257l1.029,6.524a.821.821,0,0,1-.684.942A.864.864,0,0,1,287.263,488.354Zm-2.056-13.046a.824.824,0,0,1-.814-.693l-1.024-6.526a.824.824,0,1,1,1.627-.255l1.024,6.522a.824.824,0,0,1-.685.944A1.121,1.121,0,0,1,285.207,475.308Zm-2.044-13.046a.823.823,0,0,1-.814-.7l-1.015-6.529a.823.823,0,1,1,1.627-.252l1.015,6.526a.824.824,0,0,1-.687.942A.832.832,0,0,1,283.163,462.262Zm-2.024-13.054a.824.824,0,0,1-.814-.7l-1-6.529a.823.823,0,0,1,.688-.937.815.815,0,0,1,.939.69l1,6.526a.825.825,0,0,1-.814.949Zm-2-13.059a.824.824,0,0,1-.814-.7l-.983-6.535a.824.824,0,0,1,1.631-.244l.98,6.532a.822.822,0,0,1-.69.937A.8.8,0,0,1,279.141,436.148ZM277.2,423.075a.823.823,0,0,1-.815-.7c-.352-2.426-.665-4.625-.934-6.552a.824.824,0,0,1,1.632-.224c.267,1.922.58,4.118.932,6.537a.825.825,0,0,1-.7.935A.989.989,0,0,1,277.2,423.075Zm-1.782-13.107a.824.824,0,0,1-.819-.731c-.191-1.715-.418-3.946-.672-6.588a.823.823,0,1,1,1.639-.158c.254,2.632.479,4.855.672,6.563a.827.827,0,0,1-.728.911A.879.879,0,0,1,275.414,409.968Zm-1.281-13.155a.822.822,0,0,1-.819-.749c-.188-2.065-.382-4.271-.583-6.582a.823.823,0,1,1,1.64-.142c.2,2.307.4,4.51.583,6.575a.824.824,0,0,1-.746.894C274.182,396.812,274.157,396.813,274.133,396.813Zm-1.148-13.157a.824.824,0,0,1-.82-.754l-.555-6.582a.824.824,0,0,1,1.642-.138l.553,6.582a.822.822,0,0,1-.749.889C273.031,383.655,273.008,383.657,272.985,383.657Zm-1.1-13.161a.825.825,0,0,1-.82-.756l-.539-6.582a.824.824,0,0,1,1.642-.135l.539,6.582a.823.823,0,0,1-.753.888C271.929,370.494,271.906,370.5,271.883,370.5Zm-1.072-13.163a.825.825,0,0,1-.82-.758l-.53-6.583a.824.824,0,0,1,1.642-.132l.53,6.582a.825.825,0,0,1-.756.888C270.853,357.331,270.832,357.332,270.811,357.332Zm-1.056-13.165a.824.824,0,0,1-.82-.759l-.52-6.585a.824.824,0,0,1,1.642-.128l.52,6.585a.821.821,0,0,1-.756.884C269.8,344.166,269.778,344.167,269.755,344.167ZM268.716,331a.825.825,0,0,1-.82-.759l-.516-6.586a.824.824,0,0,1,.758-.885.8.8,0,0,1,.884.756l.516,6.586a.821.821,0,0,1-.756.884C268.758,331,268.737,331,268.716,331Zm-1.028-13.176a.824.824,0,0,1-.82-.759l-.511-6.619a.823.823,0,1,1,1.642-.125l.511,6.616a.82.82,0,0,1-.758.884A.42.42,0,0,1,267.688,317.821Z" transform="translate(-266.354 -309.555)" fill="#222f4c"/>
                </g>
                <g id="Grupo_176175" data-name="Grupo 176175" transform="translate(40.164)">
                  <path id="Trazado_186641" data-name="Trazado 186641" d="M274.066,262.94a157.008,157.008,0,0,1-39.513-5.414.824.824,0,0,1,.468-1.58c.24.071,24.309,7.105,48.764,4.93,24.473-2.177,40.282-8.851,40.44-8.919a.824.824,0,0,1,.649,1.515c-.16.068-16.189,6.843-40.942,9.044C280.618,262.81,277.308,262.94,274.066,262.94Z" transform="translate(-233.964 -251.892)" fill="#222f4c"/>
                </g>
              </g>
              <path id="Trazado_186642" data-name="Trazado 186642" d="M307.824,285.781a120.847,120.847,0,0,0-5.262-18.365c-9.291,1.479-17.887,3.37-17.973,4.5-.308,4.126-.328,20.6.972,23.182s17.327,12.386,22.512,11.844a5.363,5.363,0,0,0,.8-.176A99.107,99.107,0,0,0,307.824,285.781Z" transform="translate(-158.934 -237.333)" fill="#222f4c"/>
            </g>
          </g>
        </g>
        <path id="Trazado_186643" data-name="Trazado 186643" d="M200.835,136.578l13.176-35,9.059,12.459,21.722-38.812,9.482,17.294L227.555,131.1l-11.072-14.547Z" transform="translate(108.014 -11.653)" fill="#ffc476"/>
        <path id="Trazado_186644" data-name="Trazado 186644" d="M127.762,146.529l-26.345-26.543,15.1-3.054-26.257-35.9,19.671-1.427,23.97,40.349-17.834,4.017Z" transform="translate(38.389 17.94)" fill="#ffc476"/>
        <g id="Grupo_176180" data-name="Grupo 176180" transform="translate(97.682 172.776)">
          <path id="Trazado_186645" data-name="Trazado 186645" d="M95.378,129.507c-6.511-1.008-14.4-1.133-18.837,4.674-4.613,6.043-5.42,14.738-3.745,21.967,4.022,17.345,27,11.836,35.71,1.693,11.149-12.979-9.026-25.784-21.061-24.05-9.528,1.374-9.617,13.522-5.554,19.947,4.921,7.786,17.518,6.547,22.008-1.252,4.335-7.529-7.942-13.573-13.616-13.868a7.372,7.372,0,0,0-7.744,5.1c-1.774,5.366,3.286,8.879,7.963,9.289,4.752.417,11.116-3.409,10.437-8.817-.631-5.037-9.069-2.634-11.686-1.426a.827.827,0,0,0-.166,1.293,7.048,7.048,0,0,0,1.813,1.227c.944.483,1.777-.937.832-1.423a4.185,4.185,0,0,1-1.481-.968c-.056.432-.112.861-.166,1.293a14.415,14.415,0,0,1,6.035-1.39c4.323-.04,3.263,3.894,1.214,6.19-3.095,3.465-9.948,3.2-12.656-.522-2.06-2.833-.158-6.774,2.808-7.843,2.419-.873,5.231-.168,7.547.685,4.272,1.575,10.594,6.654,6.651,11.513-3.907,4.814-12.18,6.354-16.8,2-3.572-3.365-4.823-9.164-3.485-13.787,1.99-6.885,9.767-6.28,15.191-4.445,4.854,1.64,9.67,4.388,12.434,8.831,3.569,5.738-1.425,11.867-5.924,15.135-7.461,5.42-21.161,8.728-26.993-.54-3.836-6.092-2.943-15.215-.259-21.55,3.347-7.893,11.682-8.515,19.1-7.367,1.038.161,1.484-1.425.438-1.588Z" transform="translate(-71.993 -128.975)" fill="#7e97cf"/>
        </g>
        <g id="Grupo_176181" data-name="Grupo 176181" transform="translate(489.437 186.01)">
          <path id="Trazado_186646" data-name="Trazado 186646" d="M329.7,139.293c-7.049-2.171-13.5.786-17.363,6.9-3.887,6.148-2.945,13.743.911,19.6,6.763,10.281,20.8,6.43,27.906-1.183,8.286-8.869,5.084-23.946-7.257-27.2-11.228-2.96-20.753,11.052-15.591,20.7,4.615,8.629,17.893,8.379,21.043-1.255,3.034-9.279-13.063-15.342-16.541-6.05-2.546,6.8,8.237,11.116,11.4,4.842,3.615-7.163-9.66-10.882-8.846-4.587.135,1.038,1.784,1.051,1.647,0-.278-2.151,1.7-1.873,3.115-1.433a3.889,3.889,0,0,1,2.365,5.778c-1.878,3.721-8.235,1.051-8.512-2.408-.262-3.263,3.518-5.134,6.188-5.215a8.778,8.778,0,0,1,7.11,3.987c3.67,5.422-3.508,10.612-8.12,11.083-9.462.965-12.72-10.577-8.963-17.3,3.951-7.074,12.677-8.79,18.817-3.569,12.48,10.609.644,27.456-12.9,28.469-7.986.6-13.693-6.231-14.611-13.693-1.225-9.956,7.973-18.895,17.758-15.881,1.018.313,1.451-1.276.438-1.589Z" transform="translate(-309.847 -137.01)" fill="#7e97cf"/>
        </g>
      </g>
    </g>
    <path id="Trazado_186565" data-name="Trazado 186565" d="M246.99,57.991H395.337l7.722,8.351.222-8.351h5.407a7.4,7.4,0,0,0,7.4-7.4V14.29a7.4,7.4,0,0,0-7.4-7.4H246.99a7.4,7.4,0,0,0-7.4,7.4v36.3a7.4,7.4,0,0,0,7.4,7.4" transform="translate(130.412 10877.611)" fill="#fff"/>
    <g id="Grupo_176111" data-name="Grupo 176111" transform="translate(457.312 10991.483)">
      <path id="Trazado_184979" data-name="Trazado 184979" d="M689.806,139.524H541.459l-7.722,8.351-.222-8.351h-5.407a7.4,7.4,0,0,1-7.4-7.4v-36.3a7.4,7.4,0,0,1,7.4-7.4h161.7a7.4,7.4,0,0,1,7.4,7.4v36.3a7.4,7.4,0,0,1-7.4,7.4" transform="translate(-3.519 -74.64)" fill="#fff"/>
    </g>
  </g>
</svg>
