<svg xmlns="http://www.w3.org/2000/svg" width="90.719" height="104.999" viewBox="0 0 90.719 104.999">
  <g id="Grupo_177203" data-name="Grupo 177203" transform="translate(-288.776 -33.568)">
    <rect id="Rectángulo_45895" data-name="Rectángulo 45895" width="90.719" height="90.719" rx="29.342" transform="translate(288.776 43.662)" fill="#e1a21f"/>
    <g id="Grupo_177202" data-name="Grupo 177202" transform="translate(295.511 33.568)">
      <path id="Trazado_187498" data-name="Trazado 187498" d="M316.009,100.275c1.1,5.795,2.6,8.533,2.754,11.725.164,3.358-4.817,6.669-7.226,7.735,2.939,8.824,9.128,7.846,13.167,8.238s2.067,6.4,12.751,5.949l5.094-36.548-26.542,2.9Zm32.537.829,3.852,32.818c10.684.451,8.712-5.556,12.751-5.949s10.229.587,13.168-8.238c-2.409-1.066-7.39-4.377-7.226-7.735.156-3.192,1.461-5.688,2.617-10.862l-6.3-2.564Z" transform="translate(-306.298 -63.808)" fill="#2e1e11" fill-rule="evenodd"/>
      <path id="Trazado_187499" data-name="Trazado 187499" d="M330.6,110.5c-.091-1-4.174-2.178-5.536,1.089s1.089,7.9,5.717,8.258,3.266-.454,3.266-.454Z" transform="translate(-312.532 -69.53)" fill="#e4ae7c" fill-rule="evenodd"/>
      <path id="Trazado_187500" data-name="Trazado 187500" d="M410.987,110.5c.091-1,4.174-2.178,5.535,1.089s-1.089,7.9-5.717,8.258-3.267-.454-3.267-.454Z" transform="translate(-351.707 -69.53)" fill="#e4ae7c" fill-rule="evenodd"/>
      <path id="Trazado_187501" data-name="Trazado 187501" d="M341.349,190.481H304.008c-.432-19.1,14.26-30.18,26.875-34.316a64.906,64.906,0,0,0,.762-12.238h19.411a64.906,64.906,0,0,0,.762,12.238c12.616,4.136,27.308,15.221,26.875,34.316Z" transform="translate(-302.725 -85.871)" fill="#e4ae7c" fill-rule="evenodd"/>
      <path id="Trazado_187502" data-name="Trazado 187502" d="M375.962,143.926s-.052,1.37-.019,3.359c-3.687,9.262-15.133,10.3-19.38.385.047-2.2-.012-3.745-.012-3.745Z" transform="translate(-327.631 -85.871)" fill="#d67f54" fill-rule="evenodd"/>
      <path id="Trazado_187503" data-name="Trazado 187503" d="M378.818,201.619c.441-18.858-14.369-29.9-27.3-34.157-2.589,5.745-19.961,5.718-22.522-.034-12.958,4.231-27.849,15.283-27.406,34.192Z" transform="translate(-301.578 -97.009)" fill="#af2a3a" fill-rule="evenodd"/>
      <path id="Trazado_187504" data-name="Trazado 187504" d="M378.782,211.335a30.407,30.407,0,0,0-3.6-10.031H306.06a30.405,30.405,0,0,0-3.6,10.031Z" transform="translate(-301.995 -113.064)" fill="#39271f" fill-rule="evenodd"/>
      <path id="Trazado_187505" data-name="Trazado 187505" d="M377.559,175.217a47.077,47.077,0,0,0-14.5-7.756c-2.589,5.745-19.961,5.718-22.522-.034a47.1,47.1,0,0,0-14.6,7.79Z" transform="translate(-313.12 -97.009)" fill="#39271f" fill-rule="evenodd"/>
      <path id="Trazado_187506" data-name="Trazado 187506" d="M354.419,101.65c-24.079.578-36.236-58.8,0-57.281C390.657,42.848,378.5,102.228,354.419,101.65Z" transform="translate(-315.795 -38.674)" fill="#e4ae7c" fill-rule="evenodd"/>
      <path id="Trazado_187507" data-name="Trazado 187507" d="M356.535,98.433a2.157,2.157,0,1,1-3.016.483A2.152,2.152,0,0,1,356.535,98.433Z" transform="translate(-326 -64.116)" fill="#20201e" fill-rule="evenodd"/>
      <path id="Trazado_187508" data-name="Trazado 187508" d="M389.828,98.433a2.157,2.157,0,1,0,3.015.483A2.152,2.152,0,0,0,389.828,98.433Z" transform="translate(-342.978 -64.116)" fill="#20201e" fill-rule="evenodd"/>
      <path id="Trazado_187509" data-name="Trazado 187509" d="M349.909,112.946c1.229.944,1.283,2.325.119,3.087a4.026,4.026,0,0,1-4.331-.331c-1.229-.944-1.282-2.325-.12-3.086A4.028,4.028,0,0,1,349.909,112.946Z" transform="translate(-322.033 -70.801)" fill="#da9077" fill-rule="evenodd"/>
      <path id="Trazado_187510" data-name="Trazado 187510" d="M394.826,112.946c-1.229.944-1.283,2.325-.119,3.087a4.025,4.025,0,0,0,4.331-.331c1.229-.944,1.283-2.325.12-3.086A4.028,4.028,0,0,0,394.826,112.946Z" transform="translate(-345.317 -70.801)" fill="#da9077" fill-rule="evenodd"/>
      <path id="Trazado_187511" data-name="Trazado 187511" d="M354.994,87.235c-.08-.035-.16-.068-.243-.1A6.222,6.222,0,0,0,352,86.778a6.108,6.108,0,0,0-2.573.807c-.39.251-1.91,1.481-1.479,1.935a22.656,22.656,0,0,0,2.135-.87,6.052,6.052,0,0,1,1.986-.267,5.338,5.338,0,0,1,1.821.371c.017,0,.129.054.153.064,1.271.618,1.155,1.014,2.021.42C357.395,88.529,356.022,87.77,354.994,87.235Z" transform="translate(-323.516 -58.775)" fill="#3f2716" fill-rule="evenodd"/>
      <path id="Trazado_187512" data-name="Trazado 187512" d="M387.128,87.235q.119-.052.243-.1a6.222,6.222,0,0,1,2.755-.358,6.11,6.11,0,0,1,2.573.807c.389.251,1.91,1.481,1.478,1.935a22.706,22.706,0,0,1-2.135-.87,6.05,6.05,0,0,0-1.986-.267,5.344,5.344,0,0,0-1.821.371c-.016,0-.129.054-.153.064-1.27.618-1.155,1.014-2.021.42C384.727,88.529,386.1,87.77,387.128,87.235Z" transform="translate(-341.355 -58.775)" fill="#3f2716" fill-rule="evenodd"/>
      <path id="Trazado_187513" data-name="Trazado 187513" d="M363.126,123.223q3.329-.042,6.641-.042t6.642.042c0,3.482-3.434,4.726-6.629,4.726h-.024C366.56,127.948,363.126,126.7,363.126,123.223Z" transform="translate(-330.748 -76.039)" fill="#fff" fill-rule="evenodd"/>
      <path id="Trazado_187514" data-name="Trazado 187514" d="M372.732,135.75A.26.26,0,0,1,373,135.3a2.558,2.558,0,0,0,1.274.316,2.443,2.443,0,0,0,1.25-.314.26.26,0,0,1,.269.445,2.97,2.97,0,0,1-1.519.391A3.091,3.091,0,0,1,372.732,135.75Z" transform="translate(-335.24 -81.766)" fill="#d67f54" fill-rule="evenodd"/>
      <path id="Trazado_187515" data-name="Trazado 187515" d="M374.391,108.063a.261.261,0,0,1,0-.522,12.744,12.744,0,0,0,1.954-.1c.475-.08.824-.209.824-.426,0-.751-.761-5.42-.763-5.433a.26.26,0,1,1,.514-.082c0,.014.771,4.731.771,5.515,0,.55-.534.817-1.261.94A13.057,13.057,0,0,1,374.391,108.063Z" transform="translate(-335.963 -65.658)" fill="#d67f54" fill-rule="evenodd"/>
      <path id="Trazado_187516" data-name="Trazado 187516" d="M417.546,116.33a.261.261,0,1,1-.522,0,2.531,2.531,0,0,0-.358-1.562.621.621,0,0,0-.486-.243,1.429,1.429,0,0,0-.711.219,4.7,4.7,0,0,0-1.786,2.107,9.866,9.866,0,0,0-.445,1.211,1.851,1.851,0,0,1,1.216-.352,1.153,1.153,0,0,1,.562.2.924.924,0,0,1,.351.492,1.712,1.712,0,0,1-.36,1.413.26.26,0,0,1-.432-.29,1.24,1.24,0,0,0,.294-.974.414.414,0,0,0-.156-.219.641.641,0,0,0-.309-.107,1.432,1.432,0,0,0-1.113.468.562.562,0,0,1-.265.167.285.285,0,0,1-.377-.253l0-.014a.946.946,0,0,1,.008-.3,8.145,8.145,0,0,1,.553-1.648,5.254,5.254,0,0,1,2.006-2.353,1.94,1.94,0,0,1,.979-.286,1.126,1.126,0,0,1,.879.434A2.994,2.994,0,0,1,417.546,116.33Z" transform="translate(-354.212 -71.69)" fill="#d67f54" fill-rule="evenodd"/>
      <path id="Trazado_187517" data-name="Trazado 187517" d="M328.552,116.33a.261.261,0,1,1-.522,0,2.994,2.994,0,0,1,.476-1.891,1.126,1.126,0,0,1,.88-.434,1.938,1.938,0,0,1,.978.286,5.252,5.252,0,0,1,2.006,2.353,8.1,8.1,0,0,1,.553,1.648.89.89,0,0,1,.008.3l0,.014a.286.286,0,0,1-.377.253.566.566,0,0,1-.266-.167,1.431,1.431,0,0,0-1.113-.468.645.645,0,0,0-.309.107.41.41,0,0,0-.155.219,1.24,1.24,0,0,0,.293.974.26.26,0,0,1-.433.29,1.711,1.711,0,0,1-.36-1.413.919.919,0,0,1,.351-.492,1.155,1.155,0,0,1,.562-.2,1.851,1.851,0,0,1,1.216.352,9.791,9.791,0,0,0-.446-1.211,4.692,4.692,0,0,0-1.786-2.107,1.424,1.424,0,0,0-.711-.219.621.621,0,0,0-.486.243A2.531,2.531,0,0,0,328.552,116.33Z" transform="translate(-314.114 -71.69)" fill="#d67f54" fill-rule="evenodd"/>
      <path id="Trazado_187518" data-name="Trazado 187518" d="M323.15,211.528a.39.39,0,0,1,.781.006l-.1,10.8a.39.39,0,1,1-.78-.006Z" transform="translate(-311.757 -117.726)" fill="#27170c" fill-rule="evenodd"/>
      <path id="Trazado_187519" data-name="Trazado 187519" d="M425.376,211.528a.39.39,0,0,1,.78.006l-.1,10.8a.39.39,0,0,1-.78-.006Z" transform="translate(-360.204 -117.726)" fill="#27170c" fill-rule="evenodd"/>
      <path id="Trazado_187520" data-name="Trazado 187520" d="M331.4,95.71c.346,3.454,3.385,8.7,4.007,10.223s.069-4.9.069-13.124S331.4,95.71,331.4,95.71Z" transform="translate(-315.713 -60.21)" fill="#7e583e" fill-rule="evenodd"/>
      <path id="Trazado_187521" data-name="Trazado 187521" d="M414.918,95.71c-.345,3.454-3.385,8.7-4.006,10.223s-.069-4.9-.069-13.124S414.918,95.71,414.918,95.71Z" transform="translate(-353.255 -60.21)" fill="#7e583e" fill-rule="evenodd"/>
      <path id="Trazado_187522" data-name="Trazado 187522" d="M344.826,46.114c-2.891,0-5.636,5.425-5.882,9.958-.872,16.081-16.324,10.55-18.037,20.542-.627-1.865-2.2-8.151-2.366-8.94-1.254-5.9,6.525-12.668,7.987-18.968,1.49-6.424,5.18-11.416,9.75-13.66,3.993-1.96,8.465-1.881,10.608.52.664.531,1.291,1.158,1.291,1.158s.545-.543,1.156-1.048c2.1-2.62,6.726-2.76,10.881-.63,4.478,2.3,8.152,7.364,9.613,13.66s9.241,13.073,7.987,18.968c-.167.789-1.74,7.075-2.366,8.94-1.713-9.992-15.556-5.018-17.252-21.033-.588-5.557-3.127-8.276-5.585-8.737-.278-.052-2.312-.679-4.2,2.27C347.941,49.854,347.622,46.116,344.826,46.114Z" transform="translate(-309.552 -33.568)" fill="#4c3124" fill-rule="evenodd"/>
      <path id="Trazado_187523" data-name="Trazado 187523" d="M323.966,79.509a.261.261,0,0,1-.43-.294c.2-.286.39-.583.581-.875,1.494-2.285,2.755-4.213,8-5.585,4.944-1.295,5.861-7.583,6.659-13.065.109-.745.215-1.477.332-2.2a12.147,12.147,0,0,1,.879-2.993,9.159,9.159,0,0,1,3.125-3.891,5.137,5.137,0,0,1,3.612-1,3.089,3.089,0,0,1,.759.224l2.487,1.105a.26.26,0,1,1-.21.475l-2.486-1.1a2.547,2.547,0,0,0-.632-.185,4.619,4.619,0,0,0-3.235.912,8.635,8.635,0,0,0-2.943,3.67,11.682,11.682,0,0,0-.841,2.867c-.112.692-.22,1.432-.33,2.187-.822,5.642-1.765,12.113-7.045,13.5-5.044,1.321-6.254,3.172-7.69,5.367C324.369,78.909,324.18,79.2,323.966,79.509Z" transform="translate(-311.963 -41.151)" fill="#4e2c0b" fill-rule="evenodd"/>
      <path id="Trazado_187524" data-name="Trazado 187524" d="M323.215,68.541a.261.261,0,1,1-.477-.21,6.741,6.741,0,0,1,2.253-2.894h0a9.821,9.821,0,0,1,3.3-1.405c4.944-1.295,5.861-7.583,6.659-13.065.109-.745.215-1.477.332-2.2a10.634,10.634,0,0,1,.834-2.776,7.952,7.952,0,0,1,3.426-3.741,7.869,7.869,0,0,1,5.051-.772,10.789,10.789,0,0,1,2.8.878.26.26,0,1,1-.218.472,10.282,10.282,0,0,0-2.662-.836,7.35,7.35,0,0,0-4.721.716,7.437,7.437,0,0,0-3.2,3.5,10.161,10.161,0,0,0-.794,2.642c-.112.691-.22,1.431-.33,2.186-.822,5.641-1.765,12.113-7.045,13.5a9.322,9.322,0,0,0-3.127,1.325h0A6.239,6.239,0,0,0,323.215,68.541Z" transform="translate(-311.596 -37.262)" fill="#4e2c0b" fill-rule="evenodd"/>
      <path id="Trazado_187525" data-name="Trazado 187525" d="M404.173,79.215a.261.261,0,0,1-.43.294c-.213-.311-.4-.6-.587-.883-1.435-2.195-2.646-4.046-7.69-5.367-5.28-1.382-6.223-7.854-7.045-13.5-.109-.755-.217-1.5-.33-2.187a11.636,11.636,0,0,0-.84-2.867,8.64,8.64,0,0,0-2.944-3.67,4.617,4.617,0,0,0-3.235-.912,2.544,2.544,0,0,0-.632.185l-2.487,1.1a.26.26,0,1,1-.21-.475l2.486-1.105a3.1,3.1,0,0,1,.759-.224,5.137,5.137,0,0,1,3.612,1,9.159,9.159,0,0,1,3.125,3.891,12.17,12.17,0,0,1,.878,2.993c.117.721.224,1.452.333,2.2.8,5.482,1.715,11.77,6.659,13.065,5.241,1.373,6.5,3.3,8,5.585C403.784,78.632,403.978,78.929,404.173,79.215Z" transform="translate(-337.602 -41.151)" fill="#4e2c0b" fill-rule="evenodd"/>
      <path id="Trazado_187526" data-name="Trazado 187526" d="M406.6,68.331a.261.261,0,1,1-.477.21,6.243,6.243,0,0,0-2.08-2.68l-.013-.009a9.364,9.364,0,0,0-3.115-1.316c-5.28-1.382-6.223-7.855-7.046-13.5-.11-.755-.218-1.5-.33-2.186a10.143,10.143,0,0,0-.794-2.642,7.432,7.432,0,0,0-3.2-3.5,7.348,7.348,0,0,0-4.72-.716,10.291,10.291,0,0,0-2.663.836.26.26,0,1,1-.218-.472,10.8,10.8,0,0,1,2.8-.878,7.866,7.866,0,0,1,5.051.772,7.954,7.954,0,0,1,3.427,3.741,10.7,10.7,0,0,1,.834,2.776c.117.72.223,1.451.332,2.2.8,5.482,1.715,11.771,6.66,13.065a9.841,9.841,0,0,1,3.285,1.395l.016.011A6.735,6.735,0,0,1,406.6,68.331Z" transform="translate(-339.592 -37.262)" fill="#4e2c0b" fill-rule="evenodd"/>
    </g>
  </g>
</svg>
