<svg xmlns="http://www.w3.org/2000/svg" width="101.204" height="120.205" viewBox="0 0 101.204 120.205">
  <g id="Grupo_177604" data-name="Grupo 177604" transform="translate(-287.44 -280.504)">
    <circle id="Elipse_4899" data-name="Elipse 4899" cx="44.082" cy="44.082" r="44.082" transform="translate(287.44 386.519) rotate(-80.738)" fill="#4e7c4c"/>
    <g id="Grupo_177604-2" data-name="Grupo 177604" transform="translate(296.514 280.504)">
      <path id="Trazado_188405" data-name="Trazado 188405" d="M354.26,401.649l-.28-9.242H337.234l-.615,9.233c-.272,4.081-9.045,5.466-12.477,7.55-10.193,6.19-19.052,16.772-18.7,32.232h80.39c.331-14.639-7.6-24.9-17.092-31.208C364.12,407.147,354.36,404.926,354.26,401.649Z" transform="translate(-304.108 -327.737)" fill="#e4ae7c" fill-rule="evenodd"/>
      <path id="Trazado_188406" data-name="Trazado 188406" d="M359.644,415.821c-5.44,12.364-22.687,12.438-27.974.181-2.68,1.138-5.788,2.015-7.527,3.07-10.193,6.19-19.052,16.772-18.7,32.232h80.39c.331-14.639-7.6-24.9-17.092-31.208C366.389,418.535,362.707,417.194,359.644,415.821Z" transform="translate(-304.108 -337.62)" fill="#f1d7c8" fill-rule="evenodd"/>
      <path id="Trazado_188407" data-name="Trazado 188407" d="M305,297.669a6.371,6.371,0,0,0,4.9,10.859,6.372,6.372,0,1,0,12.466,1.478,10.017,10.017,0,0,0,10.759-12.255,6.844,6.844,0,1,0-3.772-12.608,6.634,6.634,0,0,0-12.961,1.993,5.585,5.585,0,0,0-6.92,8.662A6.351,6.351,0,0,0,305,297.669Z" transform="translate(-303.141 -280.504)" fill="#2d1500" fill-rule="evenodd"/>
      <path id="Trazado_188408" data-name="Trazado 188408" d="M417.6,297.669a6.371,6.371,0,0,1-4.9,10.859,6.372,6.372,0,1,1-12.467,1.478,10.017,10.017,0,0,1-10.758-12.255,6.844,6.844,0,1,1,3.771-12.608,6.635,6.635,0,0,1,12.962,1.993,5.585,5.585,0,0,1,6.919,8.662A6.353,6.353,0,0,1,417.6,297.669Z" transform="translate(-336.727 -280.504)" fill="#2d1500" fill-rule="evenodd"/>
      <path id="Trazado_188409" data-name="Trazado 188409" d="M397.105,315.469a6.222,6.222,0,1,0-6.222-6.222A6.234,6.234,0,0,0,397.105,315.469Z" transform="translate(-340.176 -290.01)" fill="#e8b649" fill-rule="evenodd"/>
      <path id="Trazado_188410" data-name="Trazado 188410" d="M342.483,315.469a6.222,6.222,0,1,0-6.223-6.222A6.234,6.234,0,0,0,342.483,315.469Z" transform="translate(-317.12 -290.01)" fill="#e8b649" fill-rule="evenodd"/>
      <path id="Trazado_188411" data-name="Trazado 188411" d="M359.584,400.031a12.7,12.7,0,0,0,17.493.3l-.239-7.92H360.092Z" transform="translate(-326.965 -327.737)" fill="#d67f54" fill-rule="evenodd"/>
      <path id="Trazado_188412" data-name="Trazado 188412" d="M357.365,361.288c-24.4.788-36.711-61.2,0-59.5.143-.008.28,0,.423-.008s.279,0,.424.008c36.711-1.7,24.395,60.289,0,59.5-.143,0-.282,0-.424,0S357.507,361.293,357.365,361.288Z" transform="translate(-316.26 -289.473)" fill="#e4ae7c" fill-rule="evenodd"/>
      <path id="Trazado_188413" data-name="Trazado 188413" d="M331.976,357.3c-.1-1.074-4.494-2.345-5.959,1.172s1.173,8.5,6.154,8.889,3.517-.489,3.517-.489Z" transform="translate(-312.627 -312.44)" fill="#e4ae7c" fill-rule="evenodd"/>
      <path id="Trazado_188414" data-name="Trazado 188414" d="M410.521,357.3c.1-1.074,4.493-2.345,5.957,1.172s-1.171,8.5-6.152,8.889-3.517-.489-3.517-.489Z" transform="translate(-346.813 -312.44)" fill="#e4ae7c" fill-rule="evenodd"/>
      <path id="Trazado_188415" data-name="Trazado 188415" d="M363.434,381.906c4.468-.055,8.9-.055,13.368,0C373.49,388.325,366.746,388.325,363.434,381.906Z" transform="translate(-328.59 -323.287)" fill="#88342a" fill-rule="evenodd"/>
      <path id="Trazado_188416" data-name="Trazado 188416" d="M375.932,387.653a6.147,6.147,0,0,1-6.908,0A6.146,6.146,0,0,1,375.932,387.653Z" transform="translate(-330.95 -325.282)" fill="#d17b65" fill-rule="evenodd"/>
      <path id="Trazado_188417" data-name="Trazado 188417" d="M353.179,369.6c1.35,1.036,1.408,2.554.131,3.39a4.422,4.422,0,0,1-4.757-.363c-1.35-1.037-1.41-2.555-.132-3.391A4.423,4.423,0,0,1,353.179,369.6Z" transform="translate(-321.865 -317.731)" fill="#cf806b" fill-rule="evenodd"/>
      <path id="Trazado_188418" data-name="Trazado 188418" d="M391.905,369.6c-1.35,1.036-1.41,2.554-.132,3.39a4.423,4.423,0,0,0,4.758-.363c1.35-1.037,1.409-2.555.132-3.391A4.421,4.421,0,0,0,391.905,369.6Z" transform="translate(-340.163 -317.731)" fill="#cf806b" fill-rule="evenodd"/>
      <path id="Trazado_188419" data-name="Trazado 188419" d="M329.443,362.721a.287.287,0,0,1-.574,0,3.289,3.289,0,0,1,.523-2.078,1.232,1.232,0,0,1,.966-.476,2.114,2.114,0,0,1,1.074.314,5.766,5.766,0,0,1,2.2,2.584,8.926,8.926,0,0,1,.608,1.811,1.025,1.025,0,0,1,.008.335l0,.015a.313.313,0,0,1-.414.277.621.621,0,0,1-.292-.183,1.576,1.576,0,0,0-1.222-.514.711.711,0,0,0-.34.117.451.451,0,0,0-.17.241,1.36,1.36,0,0,0,.322,1.07.286.286,0,1,1-.475.318,1.88,1.88,0,0,1-.4-1.553,1.012,1.012,0,0,1,.385-.54,1.274,1.274,0,0,1,.618-.224,2.037,2.037,0,0,1,1.336.388,10.732,10.732,0,0,0-.49-1.331,5.163,5.163,0,0,0-1.961-2.315,1.586,1.586,0,0,0-.781-.24.686.686,0,0,0-.533.266A2.789,2.789,0,0,0,329.443,362.721Z" transform="translate(-314.001 -314.129)" fill="#d67f54" fill-rule="evenodd"/>
      <path id="Trazado_188420" data-name="Trazado 188420" d="M374.123,370.685a.287.287,0,1,1,0-.574,12.1,12.1,0,0,0,2.138-.131c.526-.1.913-.277.913-.584,0-.955-.836-6.876-.839-6.893a.286.286,0,0,1,.567-.079c0,.018.846,5.985.846,6.972,0,.663-.584.991-1.378,1.146A12.48,12.48,0,0,1,374.123,370.685Z" transform="translate(-332.981 -314.978)" fill="#d67f54" fill-rule="evenodd"/>
      <path id="Trazado_188421" data-name="Trazado 188421" d="M416.977,362.721a.287.287,0,1,1-.573,0A2.78,2.78,0,0,0,416.01,361a.686.686,0,0,0-.534-.266,1.59,1.59,0,0,0-.781.24,5.174,5.174,0,0,0-1.962,2.315,10.809,10.809,0,0,0-.489,1.331,2.039,2.039,0,0,1,1.337-.388,1.272,1.272,0,0,1,.617.224,1.017,1.017,0,0,1,.386.54,1.884,1.884,0,0,1-.4,1.553.286.286,0,0,1-.476-.318,1.362,1.362,0,0,0,.322-1.07.452.452,0,0,0-.171-.241.7.7,0,0,0-.34-.117,1.578,1.578,0,0,0-1.222.514.62.62,0,0,1-.291.183.314.314,0,0,1-.414-.277l0-.015a.966.966,0,0,1,.009-.335,8.767,8.767,0,0,1,.607-1.811,5.767,5.767,0,0,1,2.2-2.584,2.121,2.121,0,0,1,1.075-.314,1.234,1.234,0,0,1,.966.476A3.289,3.289,0,0,1,416.977,362.721Z" transform="translate(-348.914 -314.129)" fill="#d67f54" fill-rule="evenodd"/>
      <path id="Trazado_188422" data-name="Trazado 188422" d="M371.995,394.3a.286.286,0,1,1,.288-.494,2.821,2.821,0,0,0,1.4.347,2.694,2.694,0,0,0,1.373-.344.285.285,0,0,1,.3.488,3.264,3.264,0,0,1-1.669.429A3.392,3.392,0,0,1,371.995,394.3Z" transform="translate(-332.144 -328.31)" fill="#d67f54" fill-rule="evenodd"/>
      <path id="Trazado_188423" data-name="Trazado 188423" d="M368.077,383.81q3.74-.013,7.481.025a11.383,11.383,0,0,0,1.244-1.929q-3.5-.042-6.986-.042-3.187,0-6.382.042a11.381,11.381,0,0,0,1.243,1.929Q366.379,383.817,368.077,383.81Z" transform="translate(-328.59 -323.287)" fill="#ebebeb" fill-rule="evenodd"/>
      <path id="Trazado_188424" data-name="Trazado 188424" d="M371.995,394.3a.286.286,0,1,1,.288-.494,2.821,2.821,0,0,0,1.4.347,2.694,2.694,0,0,0,1.373-.344.285.285,0,0,1,.3.488,3.264,3.264,0,0,1-1.669.429A3.392,3.392,0,0,1,371.995,394.3Z" transform="translate(-332.144 -328.31)" fill="#d67f54" fill-rule="evenodd"/>
      <path id="Trazado_188425" data-name="Trazado 188425" d="M358.854,357.751a2.207,2.207,0,1,1-3.086.495A2.2,2.2,0,0,1,358.854,357.751Z" transform="translate(-325.177 -312.933)" fill="#20201e" fill-rule="evenodd"/>
      <path id="Trazado_188426" data-name="Trazado 188426" d="M387.918,357.751a2.207,2.207,0,1,0,3.086.495A2.2,2.2,0,0,0,387.918,357.751Z" transform="translate(-338.538 -312.933)" fill="#20201e" fill-rule="evenodd"/>
      <path id="Trazado_188427" data-name="Trazado 188427" d="M357.98,346.819c-.077-.039-.155-.075-.235-.109a5.367,5.367,0,0,0-2.669-.393,5.436,5.436,0,0,0-2.493.886c-.377.276-1.849,1.627-1.432,2.127a20.621,20.621,0,0,0,2.068-.955,5.206,5.206,0,0,1,1.924-.294,4.639,4.639,0,0,1,1.764.407c.016,0,.125.059.148.071,1.23.678,1.119,1.114,1.957.462C360.3,348.24,358.975,347.406,357.98,346.819Z" transform="translate(-323.375 -308.272)" fill="#52311d" fill-rule="evenodd"/>
      <path id="Trazado_188428" data-name="Trazado 188428" d="M385.833,346.819c.078-.039.156-.075.235-.109a5.369,5.369,0,0,1,2.669-.393,5.434,5.434,0,0,1,2.492.886c.377.276,1.85,1.627,1.433,2.127a20.678,20.678,0,0,1-2.068-.955,5.2,5.2,0,0,0-1.924-.294,4.636,4.636,0,0,0-1.763.407c-.017,0-.125.059-.149.071-1.23.678-1.118,1.114-1.957.462C383.508,348.24,384.838,347.406,385.833,346.819Z" transform="translate(-337.383 -308.272)" fill="#52311d" fill-rule="evenodd"/>
      <path id="Trazado_188429" data-name="Trazado 188429" d="M336.465,340.118c-3.024-4.929-5.148-13.649-4.21-21.507.929-7.789,4.88-14.725,10.961-18.072,6.931-3.815,17.052-4.443,24.9-1.2,14.384,5.947,15.458,30.5,9.151,40.779.58-6.366.4-8-1.316-9.463-3.712-1.367.722-4.843-2.742-5.764-1.586-.422-2.553-1.286-2.121-3.684.158-.876,1.19-1.231.769-2.368a2.545,2.545,0,0,0-1.373-1.406,1.949,1.949,0,0,0-1.63.407c-.481.469-6.079,1.77-11.785,1.768-5.638,0-11.384-1.3-11.859-1.768-.525-.512-1.921-.339-2.547-.047a2.331,2.331,0,0,0-.783,1.046c-.421,1.137.61,1.492.769,2.368.432,2.4-.535,3.262-2.121,3.684-3.463.921.971,4.4-2.742,5.764C336.063,332.114,335.884,333.751,336.465,340.118Z" transform="translate(-315.335 -287.571)" fill="#3f2716" fill-rule="evenodd"/>
      <path id="Trazado_188430" data-name="Trazado 188430" d="M355.747,318.174a.285.285,0,1,1-.265.506,11.806,11.806,0,0,1-4.283-3.665,10.079,10.079,0,0,1-1.771-5.052,10.849,10.849,0,0,1,1.461-5.818,18.789,18.789,0,0,1,4.593-5.526.287.287,0,0,1,.363.444,18.192,18.192,0,0,0-4.451,5.35A10.294,10.294,0,0,0,350,309.92a9.508,9.508,0,0,0,1.671,4.767,11.244,11.244,0,0,0,4.077,3.487ZM371.3,298.68a.286.286,0,0,1,.346-.455,18.88,18.88,0,0,1,4.947,5.651,11.042,11.042,0,0,1,1.607,6.085,10.112,10.112,0,0,1-1.482,4.611,11.2,11.2,0,0,1-3.556,3.521.286.286,0,1,1-.307-.481,10.655,10.655,0,0,0,3.378-3.339,9.57,9.57,0,0,0,1.4-4.353,10.491,10.491,0,0,0-1.536-5.764A18.283,18.283,0,0,0,371.3,298.68Z" transform="translate(-322.67 -287.96)" fill="#5f3723" fill-rule="evenodd"/>
      <path id="Trazado_188431" data-name="Trazado 188431" d="M365.641,317.715a.286.286,0,0,1-.425.383,10.193,10.193,0,0,1-2.024-3.678,18.226,18.226,0,0,1-.822-4.988,21.518,21.518,0,0,1,.869-6.45,19.849,19.849,0,0,1,2.606-5.814.286.286,0,0,1,.469.329,19.278,19.278,0,0,0-2.523,5.639,20.933,20.933,0,0,0-.848,6.276,17.624,17.624,0,0,0,.8,4.831,9.624,9.624,0,0,0,1.9,3.473Zm6.534-20.326a.287.287,0,1,1,.465-.336,19.5,19.5,0,0,1,2.662,5.84,21.561,21.561,0,0,1,.894,6.538,18.769,18.769,0,0,1-.688,4.551,11.153,11.153,0,0,1-1.675,3.521.286.286,0,1,1-.459-.341,10.549,10.549,0,0,0,1.585-3.339,18.129,18.129,0,0,0,.666-4.412,20.984,20.984,0,0,0-.873-6.361A18.926,18.926,0,0,0,372.175,297.389Z" transform="translate(-328.136 -287.439)" fill="#5f3723" fill-rule="evenodd"/>
      <path id="Trazado_188432" data-name="Trazado 188432" d="M374.623,420.359c-.591,3.745-.661,12.075-2.123,16.343-3.036,3.384-33.5,2.564-36.745.03-.926-6.223-.963-13.512-1.274-16.774a13.484,13.484,0,0,0-1.761.862q-1.039.631-2.055,1.322c-1.063,3.54-4.915,17.317-4.915,30.91h56.924c0-9.831-3.794-26.693-4.777-30.815-.193-.133-.386-.264-.581-.393A22.43,22.43,0,0,0,374.623,420.359Z" transform="translate(-312.684 -339.366)" fill="#1f1d2e" fill-rule="evenodd"/>
    </g>
  </g>
</svg>
