<svg xmlns="http://www.w3.org/2000/svg" xmlns:xlink="http://www.w3.org/1999/xlink" width="65" height="65" viewBox="0 0 65 65">
  <defs>
    <clipPath id="clip-path">
      <rect id="Rectángulo_45722" data-name="Rectángulo 45722" width="65" height="65" transform="translate(200 1660)" fill="#fff" stroke="#707070" stroke-width="1"/>
    </clipPath>
  </defs>
  <g id="Enmascarar_grupo_318" data-name="Enmascarar grupo 318" transform="translate(-200 -1660)" clip-path="url(#clip-path)">
    <g id="podcast" transform="translate(200 1660)">
      <path id="Trazado_186043" data-name="Trazado 186043" d="M21.733,43.539v5.795A8.366,8.366,0,0,0,30.1,57.7h4.8a8.366,8.366,0,0,0,8.366-8.366V43.539Z" fill="#5766cb"/>
      <path id="Trazado_186044" data-name="Trazado 186044" d="M43.271,31.877H21.729a1.639,1.639,0,1,0,0,3.274H43.271a1.639,1.639,0,1,0,0-3.274Z" fill="#d0e2e7"/>
      <path id="Trazado_186045" data-name="Trazado 186045" d="M21.733,31.877V20.769A8.366,8.366,0,0,1,30.1,12.4h4.8a8.366,8.366,0,0,1,8.366,8.366V31.877Z" fill="#617881"/>
      <path id="Trazado_186046" data-name="Trazado 186046" d="M35.88,12.459a8.338,8.338,0,0,1,2.309,5.771v6.628a4.481,4.481,0,0,1-4.481,4.481H21.733v2.539H43.267V20.768A8.368,8.368,0,0,0,35.88,12.459Z" fill="#475959"/>
      <path id="Trazado_186047" data-name="Trazado 186047" d="M13.149,43.19H14.9V38.674H13.149A1.427,1.427,0,0,0,11.722,40.1v1.662a1.427,1.427,0,0,0,1.427,1.427Z" fill="#d0e2e7"/>
      <circle id="Elipse_4884" data-name="Elipse 4884" cx="2.108" cy="2.108" r="2.108" transform="translate(30.392 46.553)" fill="#dd5790"/>
      <path id="Trazado_186048" data-name="Trazado 186048" d="M43.526,43.539H21.474a.182.182,0,0,1-.182-.182V38.507a.182.182,0,0,1,.182-.182H43.526a.182.182,0,0,1,.182.182v4.849a.182.182,0,0,1-.182.182Z" fill="#d0e2e7"/>
      <path id="Trazado_186049" data-name="Trazado 186049" d="M18.079,39.325h3.213v3.213H18.079Z" fill="#b4d0d5"/>
      <path id="Trazado_186050" data-name="Trazado 186050" d="M51.851,43.19H50.1V38.674h1.755A1.427,1.427,0,0,1,53.278,40.1v1.662A1.427,1.427,0,0,1,51.851,43.19Z" fill="#d0e2e7"/>
      <path id="Trazado_186051" data-name="Trazado 186051" d="M18.079,37.7V50.154A10.72,10.72,0,0,0,28.8,60.874h7.4a10.72,10.72,0,0,0,10.72-10.72V37.7a.116.116,0,0,1,.116-.116h2.941a.116.116,0,0,1,.116.116V50.154A13.894,13.894,0,0,1,36.2,64.048H28.8A13.894,13.894,0,0,1,14.9,50.154V37.7a.116.116,0,0,1,.116-.116h2.943a.116.116,0,0,1,.116.116Z" fill="#f1f4f6"/>
      <path id="Trazado_186052" data-name="Trazado 186052" d="M43.708,39.325h3.213v3.213H43.708Z" transform="translate(90.63 81.864) rotate(180)" fill="#b4d0d5"/>
      <path id="Trazado_186053" data-name="Trazado 186053" d="M21.733,35.151H43.267v3.174H21.733Z" fill="#5766cb"/>
      <path id="Trazado_186054" data-name="Trazado 186054" d="M38.189,43.539v.252a11.37,11.37,0,0,1-11.37,11.37h-1.8a8.46,8.46,0,0,1-.98-.057A8.343,8.343,0,0,0,30.1,57.7h4.8a8.366,8.366,0,0,0,8.366-8.366V43.539Z" fill="#3d4fc3"/>
      <path id="Trazado_186055" data-name="Trazado 186055" d="M43.526,38.325h-4.9v.423A2.252,2.252,0,0,1,36.378,41H21.292v2.357a.182.182,0,0,0,.182.182H43.526a.182.182,0,0,0,.182-.182V38.507A.182.182,0,0,0,43.526,38.325Z" fill="#b4d0d5"/>
      <path id="Trazado_186056" data-name="Trazado 186056" d="M38.189,35.151h5.078v3.174H38.189Z" fill="#3d4fc3"/>
      <path id="Trazado_186057" data-name="Trazado 186057" d="M63.177,6.538H36.1a.871.871,0,0,0-.871.871v5a8.367,8.367,0,0,1,8.037,8.36v5.985h9.8a.452.452,0,0,1,.32.132l5.571,5.571a.452.452,0,0,0,.772-.32V27.205a.452.452,0,0,1,.452-.452h2.995a.871.871,0,0,0,.871-.871V7.409a.871.871,0,0,0-.871-.871Z" fill="#86f1a7"/>
      <path id="Trazado_186058" data-name="Trazado 186058" d="M21.733,20.769a8.366,8.366,0,0,1,8.037-8.36V1.823A.871.871,0,0,0,28.9.952H1.823a.871.871,0,0,0-.871.871V20.3a.871.871,0,0,0,.871.871H4.818a.452.452,0,0,1,.452.452v4.931a.452.452,0,0,0,.772.32L11.612,21.3a.452.452,0,0,1,.32-.132h9.8Z" fill="#7ad0df"/>
      <path id="Trazado_186059" data-name="Trazado 186059" d="M63.177,6.538H58.97V19.2a5.01,5.01,0,0,1-5.01,5.01H43.267v2.539h9.8a.452.452,0,0,1,.32.132l5.571,5.571a.452.452,0,0,0,.772-.32V27.205a.452.452,0,0,1,.452-.452h2.995a.871.871,0,0,0,.871-.871V7.409a.871.871,0,0,0-.871-.871Z" fill="#80e29d"/>
      <path id="Trazado_186060" data-name="Trazado 186060" d="M28.9.952H24.692V7.338A11.29,11.29,0,0,1,13.4,18.628H.952V20.3a.871.871,0,0,0,.871.871H4.818a.452.452,0,0,1,.452.452v4.931a.452.452,0,0,0,.772.32L11.612,21.3a.452.452,0,0,1,.32-.132h9.8v-.4a8.366,8.366,0,0,1,8.037-8.36V1.823A.871.871,0,0,0,28.9.952Z" fill="#70c6da"/>
      <path id="Trazado_186061" data-name="Trazado 186061" d="M25.326,6.331H5.4a.952.952,0,0,0,0,1.9H25.326a.952.952,0,0,0,0-1.9Z"/>
      <path id="Trazado_186062" data-name="Trazado 186062" d="M26.279,11.06a.952.952,0,0,0-.952-.952H13.669a.952.952,0,1,0,0,1.9H25.326a.952.952,0,0,0,.952-.952Z"/>
      <path id="Trazado_186063" data-name="Trazado 186063" d="M5.4,12.012h5.1a.952.952,0,1,0,0-1.9H5.4a.952.952,0,0,0,0,1.9Z"/>
      <path id="Trazado_186064" data-name="Trazado 186064" d="M5.4,15.788h10.8a.952.952,0,0,0,0-1.9H5.4a.952.952,0,0,0,0,1.9Z"/>
      <path id="Trazado_186065" data-name="Trazado 186065" d="M54.693,13.822H59.6a.952.952,0,1,0,0-1.9H54.693a.952.952,0,0,0,0,1.9Z"/>
      <path id="Trazado_186066" data-name="Trazado 186066" d="M59.6,15.694H47.947a.952.952,0,1,0,0,1.9H59.6a.952.952,0,1,0,0-1.9Z"/>
      <path id="Trazado_186067" data-name="Trazado 186067" d="M63.177,5.586H36.1a1.825,1.825,0,0,0-1.823,1.823V11.45H30.722V1.823A1.825,1.825,0,0,0,28.9,0H13.669a.952.952,0,1,0,0,1.9H28.818v9.634a9.291,9.291,0,0,0-4.992,2.346H19.367a.952.952,0,0,0,0,1.9h2.859A9.257,9.257,0,0,0,20.8,20.215H11.932a1.4,1.4,0,0,0-.993.411L6.222,25.343V21.619a1.406,1.406,0,0,0-1.4-1.4H1.9V1.9H9.226a.952.952,0,0,0,0-1.9h-7.4A1.825,1.825,0,0,0,0,1.823V20.3A1.825,1.825,0,0,0,1.823,22.12H4.317v4.431a1.4,1.4,0,0,0,2.4.993l5.424-5.424h8.642v8.973a2.56,2.56,0,0,0,0,4.842V37.61a1.135,1.135,0,0,0-.433.763H19.031V37.7a1.069,1.069,0,0,0-1.068-1.069H15.02A1.069,1.069,0,0,0,13.952,37.7v.02h-.8A2.382,2.382,0,0,0,10.77,40.1v1.662a2.382,2.382,0,0,0,2.379,2.379h.8v6.012A14.863,14.863,0,0,0,28.8,65h7.4A14.863,14.863,0,0,0,51.048,50.154V44.142h.8a2.382,2.382,0,0,0,2.379-2.379V40.1a2.382,2.382,0,0,0-2.379-2.379h-.8V37.7a1.07,1.07,0,0,0-1.069-1.069H47.038A1.069,1.069,0,0,0,45.969,37.7v.672H44.652a1.135,1.135,0,0,0-.433-.763V35.935a2.56,2.56,0,0,0,0-4.842V27.706h8.642l5.424,5.424a1.4,1.4,0,0,0,2.4-.993V27.706h2.494A1.825,1.825,0,0,0,65,25.883V7.409a1.825,1.825,0,0,0-1.823-1.823ZM43.271,32.83a.69.69,0,1,1,0,1.37H21.729a.69.69,0,1,1,0-1.37ZM19.031,43.491h1.317a1.135,1.135,0,0,0,.433.763v5.08A9.329,9.329,0,0,0,30.1,58.652h4.8a9.329,9.329,0,0,0,9.319-9.319v-5.08a1.135,1.135,0,0,0,.433-.763h1.317v6.663A9.779,9.779,0,0,1,36.2,59.922H28.8a9.779,9.779,0,0,1-9.768-9.768Zm23.725-4.214v3.309H28.83a.952.952,0,1,0,0,1.9H42.315v4.843A7.423,7.423,0,0,1,34.9,56.748H30.1a7.423,7.423,0,0,1-7.414-7.414V44.491h1.7a.952.952,0,1,0,0-1.9H22.244V39.277Zm-20.071-1.9V36.1h19.63v1.27Zm6.437-23.955-6.372,6.372A7.431,7.431,0,0,1,29.122,13.418Zm5.122-.064L22.685,24.913V22.548l9.194-9.194ZM42.315,25.51,36.9,30.925H34.536l7.779-7.779V25.51Zm-2.723,5.416L42.315,28.2v2.723ZM38.8,20.257a.952.952,0,0,0,1.346,0l1.8-1.8a7.372,7.372,0,0,1,.362,2L31.843,30.925H29.479l7.432-7.432a.952.952,0,1,0-1.346-1.347l-8.778,8.778H24.423L39.977,15.37a7.473,7.473,0,0,1,1.085,1.279L38.8,18.91A.952.952,0,0,0,38.8,20.257ZM22.685,29.969V27.606L36.713,13.578a7.362,7.362,0,0,1,1.7.662ZM20.34,40.277v1.309H19.031V40.277Zm-7.19,1.961a.476.476,0,0,1-.475-.475V40.1a.476.476,0,0,1,.475-.475h.8v2.612Zm38.7-2.612a.476.476,0,0,1,.475.475v1.662a.476.476,0,0,1-.475.475h-.8V39.626Zm-3.977-1.088h1.27V50.154A12.957,12.957,0,0,1,36.2,63.1H28.8A12.957,12.957,0,0,1,15.857,50.154V38.538h1.27V50.154A11.686,11.686,0,0,0,28.8,61.826h7.4A11.686,11.686,0,0,0,47.874,50.154Zm-1.9,3.049H44.66V40.277H45.97ZM63.1,25.8H60.183a1.406,1.406,0,0,0-1.4,1.4V30.93l-4.717-4.717a1.4,1.4,0,0,0-.993-.411H44.219V21.374H54.693a.952.952,0,1,0,0-1.9H44.129a9.237,9.237,0,0,0-.465-1.872h1.11a.952.952,0,0,0,0-1.9H42.713a9.389,9.389,0,0,0-1.608-1.872H51.519a.952.952,0,1,0,0-1.9H39.674a.951.951,0,0,0-.793.426,9.245,9.245,0,0,0-2.7-.805V7.49H63.1Z"/>
      <path id="Trazado_186068" data-name="Trazado 186068" d="M32.5,51.722a3.061,3.061,0,1,0-3.06-3.061A3.064,3.064,0,0,0,32.5,51.722Zm0-4.217a1.156,1.156,0,1,1-1.156,1.156A1.158,1.158,0,0,1,32.5,47.5Z"/>
    </g>
  </g>
</svg>
