<svg id="herramienta-de-audio-con-altavoz" xmlns="http://www.w3.org/2000/svg" width="26.461" height="21.021" viewBox="0 0 26.461 21.021">
  <path id="Trazado_115694" data-name="Trazado 115694" d="M13.238,28.323a1.2,1.2,0,0,1-1.969.925L4.7,23.8H1.2A1.2,1.2,0,0,1,0,22.6V17.816a1.2,1.2,0,0,1,1.2-1.2H4.7L11.27,11.17a1.2,1.2,0,0,1,1.969.925V28.323Zm4.618-1.878c-.029,0-.057,0-.086,0a1.2,1.2,0,0,1-.85-.352l-.161-.161a1.2,1.2,0,0,1-.116-1.565,6.987,6.987,0,0,0-.185-8.562,1.2,1.2,0,0,1,.083-1.607l.16-.161a1.175,1.175,0,0,1,.91-.35,1.2,1.2,0,0,1,.871.439,9.623,9.623,0,0,1,.251,11.837A1.2,1.2,0,0,1,17.856,26.446Zm4.968,3.714a1.2,1.2,0,0,1-.868.425h-.05a1.2,1.2,0,0,1-.85-.352l-.158-.158a1.2,1.2,0,0,1-.07-1.623,12.806,12.806,0,0,0-.212-16.732,1.2,1.2,0,0,1,.048-1.645l.158-.158a1.17,1.17,0,0,1,.886-.353,1.2,1.2,0,0,1,.863.4,15.429,15.429,0,0,1,.253,20.191Z" transform="translate(0 -9.565)" fill="#12263f"/>
</svg>
