<svg xmlns="http://www.w3.org/2000/svg" width="96.771" height="105" viewBox="0 0 96.771 105">
  <g id="Grupo_177585" data-name="Grupo 177585" transform="translate(-490.657 -28.535)">
    <path id="Trazado_188339" data-name="Trazado 188339" d="M548.19,46.016l35.465,35.465a12.974,12.974,0,0,1,0,18.295L548.19,135.241a12.974,12.974,0,0,1-18.294,0L494.43,99.775a12.975,12.975,0,0,1,0-18.295L529.9,46.016A12.973,12.973,0,0,1,548.19,46.016Z" transform="translate(0 -6.674)" fill="#9976ae" fill-rule="evenodd"/>
    <g id="Grupo_177584" data-name="Grupo 177584" transform="translate(502.34 28.535)">
      <path id="Trazado_188340" data-name="Trazado 188340" d="M549.858,189.336H513.434c-.421-18.626,13.909-29.438,26.213-33.472a63.283,63.283,0,0,0,.743-11.937h18.934a63.279,63.279,0,0,0,.744,11.937c12.3,4.034,26.635,14.846,26.214,33.472Z" transform="translate(-513.425 -84.716)" fill="#e4ae7c" fill-rule="evenodd"/>
      <path id="Trazado_188341" data-name="Trazado 188341" d="M579.647,174.27c-5.07,7.062-13.017,6.921-18-.034l-1.836.716-3.778,9.371v19.77h29.673v-19.77l-4.318-9.371Z" transform="translate(-534.172 -99.473)" fill="#d0ced2" fill-rule="evenodd"/>
      <path id="Trazado_188342" data-name="Trazado 188342" d="M539.882,113.839c-.088-.974-4.072-2.124-5.4,1.062s1.063,7.7,5.577,8.055,3.187-.442,3.187-.442Z" transform="translate(-523.5 -69.566)" fill="#e4ae7c" fill-rule="evenodd"/>
      <path id="Trazado_188343" data-name="Trazado 188343" d="M620.324,113.839c.088-.974,4.072-2.124,5.4,1.062s-1.062,7.7-5.576,8.055-3.187-.442-3.187-.442Z" transform="translate(-563.745 -69.566)" fill="#e4ae7c" fill-rule="evenodd"/>
      <path id="Trazado_188344" data-name="Trazado 188344" d="M584.9,152.911c-4.1,7.84-14.655,8.658-19.188.3.119-1.709.158-3.317.165-4.56h18.879C584.76,149.822,584.794,151.315,584.9,152.911Z" transform="translate(-538.881 -87.017)" fill="#d67f54" fill-rule="evenodd"/>
      <path id="Trazado_188345" data-name="Trazado 188345" d="M563.285,103.6c-23.488.564-35.346-57.357,0-55.873C598.631,46.246,586.772,104.167,563.285,103.6Z" transform="translate(-526.852 -37.867)" fill="#e4ae7c" fill-rule="evenodd"/>
      <path id="Trazado_188346" data-name="Trazado 188346" d="M565.878,103.872a2.1,2.1,0,1,1-2.942.473A2.1,2.1,0,0,1,565.878,103.872Z" transform="translate(-537.336 -65.02)" fill="#20201e" fill-rule="evenodd"/>
      <path id="Trazado_188347" data-name="Trazado 188347" d="M599.232,103.872a2.1,2.1,0,1,0,2.942.473A2.1,2.1,0,0,0,599.232,103.872Z" transform="translate(-554.777 -65.02)" fill="#20201e" fill-rule="evenodd"/>
      <path id="Trazado_188348" data-name="Trazado 188348" d="M559.208,118.376c1.2.921,1.252,2.269.117,3.01a3.926,3.926,0,0,1-4.225-.322c-1.2-.92-1.251-2.268-.116-3.01A3.926,3.926,0,0,1,559.208,118.376Z" transform="translate(-533.261 -71.888)" fill="#da9077" fill-rule="evenodd"/>
      <path id="Trazado_188349" data-name="Trazado 188349" d="M604.23,118.376c-1.2.921-1.25,2.269-.116,3.01a3.925,3.925,0,0,0,4.224-.322c1.2-.92,1.252-2.268.117-3.01A3.927,3.927,0,0,0,604.23,118.376Z" transform="translate(-557.181 -71.888)" fill="#da9077" fill-rule="evenodd"/>
      <path id="Trazado_188350" data-name="Trazado 188350" d="M564.245,92.673c-.078-.034-.156-.066-.237-.1a6.058,6.058,0,0,0-2.688-.349,5.957,5.957,0,0,0-2.51.787c-.379.245-1.863,1.445-1.442,1.888a22.118,22.118,0,0,0,2.083-.848,5.9,5.9,0,0,1,1.938-.261,5.226,5.226,0,0,1,1.775.362c.017,0,.126.053.15.063,1.239.6,1.127.989,1.972.409C566.587,93.935,565.248,93.194,564.245,92.673Z" transform="translate(-534.784 -59.534)" fill="#3f2716" fill-rule="evenodd"/>
      <path id="Trazado_188351" data-name="Trazado 188351" d="M596.515,92.673c.077-.034.156-.066.237-.1a6.057,6.057,0,0,1,2.688-.349,5.951,5.951,0,0,1,2.509.787c.38.245,1.863,1.445,1.442,1.888a22.183,22.183,0,0,1-2.082-.848,5.9,5.9,0,0,0-1.938-.261,5.229,5.229,0,0,0-1.776.362c-.016,0-.126.053-.15.063-1.239.6-1.126.989-1.971.409C594.173,93.935,595.512,93.194,596.515,92.673Z" transform="translate(-553.11 -59.534)" fill="#3f2716" fill-rule="evenodd"/>
      <path id="Trazado_188352" data-name="Trazado 188352" d="M585.023,129.924a.254.254,0,0,1,.44.255,4.835,4.835,0,0,1-2.364,1.963,9.861,9.861,0,0,1-3.795.7h-.023a9.676,9.676,0,0,1-3.776-.687,4.873,4.873,0,0,1-2.381-1.969.255.255,0,0,1,.44-.257,4.379,4.379,0,0,0,2.14,1.759,9.164,9.164,0,0,0,3.577.647h.023a9.354,9.354,0,0,0,3.6-.654A4.34,4.34,0,0,0,585.023,129.924Z" transform="translate(-542.474 -77.837)" fill="#4e2c0b" fill-rule="evenodd"/>
      <path id="Trazado_188353" data-name="Trazado 188353" d="M582.156,141.188a.253.253,0,1,1,.256-.437,2.5,2.5,0,0,0,1.243.307,2.383,2.383,0,0,0,1.219-.306.253.253,0,1,1,.263.434,2.9,2.9,0,0,1-1.482.382A3.01,3.01,0,0,1,582.156,141.188Z" transform="translate(-546.827 -83.152)" fill="#d67f54" fill-rule="evenodd"/>
      <path id="Trazado_188354" data-name="Trazado 188354" d="M583.812,117.4a.255.255,0,0,1,0-.51,12.432,12.432,0,0,0,1.906-.1c.463-.079.8-.2.8-.416,0-.733-.743-5.287-.745-5.3a.254.254,0,0,1,.5-.08c0,.013.752,4.615.752,5.379,0,.537-.522.8-1.23.916A12.725,12.725,0,0,1,583.812,117.4Z" transform="translate(-547.57 -68.577)" fill="#d67f54" fill-rule="evenodd"/>
      <path id="Trazado_188355" data-name="Trazado 188355" d="M626.851,119.635a.254.254,0,1,1-.508,0,2.477,2.477,0,0,0-.348-1.524.609.609,0,0,0-.474-.236,1.393,1.393,0,0,0-.693.213,4.577,4.577,0,0,0-1.742,2.056,9.524,9.524,0,0,0-.435,1.181,1.8,1.8,0,0,1,1.186-.344,1.13,1.13,0,0,1,.55.2.9.9,0,0,1,.342.48,1.669,1.669,0,0,1-.352,1.378.254.254,0,1,1-.421-.282,1.21,1.21,0,0,0,.286-.95.4.4,0,0,0-.151-.213.627.627,0,0,0-.3-.1,1.4,1.4,0,0,0-1.086.457.545.545,0,0,1-.259.163.278.278,0,0,1-.367-.246l0-.014a.891.891,0,0,1,.007-.3,7.957,7.957,0,0,1,.539-1.608,5.13,5.13,0,0,1,1.958-2.295,1.893,1.893,0,0,1,.954-.279,1.1,1.1,0,0,1,.857.423A2.913,2.913,0,0,1,626.851,119.635Z" transform="translate(-566.318 -71.785)" fill="#d67f54" fill-rule="evenodd"/>
      <path id="Trazado_188356" data-name="Trazado 188356" d="M537.967,119.635a.255.255,0,1,1-.509,0,2.92,2.92,0,0,1,.464-1.844,1.1,1.1,0,0,1,.858-.423,1.9,1.9,0,0,1,.954.279,5.131,5.131,0,0,1,1.957,2.295,7.969,7.969,0,0,1,.54,1.608.863.863,0,0,1,.007.3l0,.014a.279.279,0,0,1-.368.246.542.542,0,0,1-.259-.163,1.4,1.4,0,0,0-1.086-.457.622.622,0,0,0-.3.1.4.4,0,0,0-.151.213,1.209,1.209,0,0,0,.285.95.254.254,0,1,1-.422.282,1.668,1.668,0,0,1-.351-1.378.9.9,0,0,1,.342-.48,1.125,1.125,0,0,1,.549-.2,1.8,1.8,0,0,1,1.186.344,9.485,9.485,0,0,0-.434-1.181,4.581,4.581,0,0,0-1.743-2.056,1.4,1.4,0,0,0-.693-.213.608.608,0,0,0-.474.236A2.474,2.474,0,0,0,537.967,119.635Z" transform="translate(-525.126 -71.785)" fill="#d67f54" fill-rule="evenodd"/>
      <path id="Trazado_188357" data-name="Trazado 188357" d="M540.705,77.544c-2.551-17.684.606-35.593,22.07-35.593s24.62,17.908,22.07,35.593c-1.687,5.1-2.1-4.657-2.1-5.772-.011-3.116-2.773-2.49-2.885-9.456-.127-7.877-34.041-7.864-34.168,0-.112,6.966-2.885,6.34-2.885,9.456C542.806,72.694,542.21,83.111,540.705,77.544Z" transform="translate(-526.342 -35.067)" fill="#623a1c" fill-rule="evenodd"/>
      <path id="Trazado_188358" data-name="Trazado 188358" d="M555.662,51.594c-1.123,3.584-8.775,4.266-10.165,1.984-.647,1.964-5.905,2.651-6.666,1.536-1.576,2.05-3.826.437-2.362-1.509a5.263,5.263,0,0,1,0-7.545c-1.086-5.057,3.418-8.812,5.943-7.546-.166-6.892,7.582-6.589,9.054-3.968,6.205-9.633,17.393-6.22,17.284,0,3.667-2.275,10.326-2.01,9.054,3.968,4.379-.318,8.879,1.257,5.943,7.546,2.346,2.521,2.934,5.84-.028,7.545,1.356,1.866-.706,3.452-2.335,1.509-.769,1.127-6.017.433-6.666-1.536-1.388,2.278-8.818,2.312-10.165-1.984C563.167,54.925,557.048,54.925,555.662,51.594Z" transform="translate(-523.869 -28.535)" fill="#232221" fill-rule="evenodd"/>
      <path id="Trazado_188359" data-name="Trazado 188359" d="M543.826,199.545c.023-6.161.044-16.873-.026-19.366-.038-1.345-3.855-3.285-4.533-5.434-.978-3.1,1.267-6.971.583-9.851-.061.4-.128.793-.2,1.178-12.3,4.034-26.635,14.846-26.213,33.472Z" transform="translate(-513.425 -94.924)" fill="#29273f" fill-rule="evenodd"/>
      <path id="Trazado_188360" data-name="Trazado 188360" d="M562.081,162.293c.774,8.192,1.714,11.811,3.664,16.12C558.262,179.242,556.008,164.692,562.081,162.293Z" transform="translate(-535.415 -93.658)" fill="#413962" fill-rule="evenodd"/>
      <path id="Trazado_188361" data-name="Trazado 188361" d="M596.163,199.545c-.024-6.161-.045-16.873.025-19.366.038-1.345,3.856-3.285,4.532-5.434.978-3.1-1.266-6.971-.582-9.851.061.4.128.793.2,1.178,12.3,4.034,26.635,14.846,26.214,33.472Z" transform="translate(-553.697 -94.924)" fill="#29273f" fill-rule="evenodd"/>
      <path id="Trazado_188362" data-name="Trazado 188362" d="M599.985,162.293c-.774,8.192-1.715,11.811-3.664,16.12C603.8,179.242,606.058,164.692,599.985,162.293Z" transform="translate(-553.785 -93.658)" fill="#413962" fill-rule="evenodd"/>
      <path id="Trazado_188363" data-name="Trazado 188363" d="M533.1,211.519a.381.381,0,0,1,.761.006l-.094,10.54a.38.38,0,1,1-.76-.006Z" transform="translate(-522.959 -117.441)" fill="#141632" fill-rule="evenodd"/>
      <path id="Trazado_188364" data-name="Trazado 188364" d="M635.326,211.519a.381.381,0,0,1,.761.006l-.093,10.54a.381.381,0,0,1-.761-.006Z" transform="translate(-572.729 -117.441)" fill="#141632" fill-rule="evenodd"/>
      <path id="Trazado_188365" data-name="Trazado 188365" d="M572.738,40.181a.254.254,0,0,1-.436-.263,10.156,10.156,0,0,1,3.945-3.49,7.555,7.555,0,0,1,4.674-.94c3.019.575,3.17,2.376,3.17,2.381a.254.254,0,1,1-.5.049s-.118-1.428-2.759-1.931a7.053,7.053,0,0,0-4.347.893A9.617,9.617,0,0,0,572.738,40.181Z" transform="translate(-542.073 -31.88)" fill="#3d3d3c" fill-rule="evenodd"/>
      <path id="Trazado_188366" data-name="Trazado 188366" d="M556.68,46.1a.254.254,0,1,1-.489-.139,4.388,4.388,0,0,1,1.538-2.337,3.832,3.832,0,0,1,1.631-.721,3.9,3.9,0,0,1,1.77.088,4.305,4.305,0,0,1,2.245,1.572.253.253,0,1,1-.4.307,3.8,3.8,0,0,0-1.98-1.39,3.388,3.388,0,0,0-1.54-.077,3.32,3.32,0,0,0-1.416.625A3.883,3.883,0,0,0,556.68,46.1Z" transform="translate(-534.242 -35.498)" fill="#3d3d3c" fill-rule="evenodd"/>
      <path id="Trazado_188367" data-name="Trazado 188367" d="M599.278,45.5a.254.254,0,0,1-.337-.38,9.107,9.107,0,0,1,4.468-2.313,3.729,3.729,0,0,1,1.884.145,2.071,2.071,0,0,1,1.2,1.112,3.037,3.037,0,0,1,.108,1.871.254.254,0,1,1-.5-.105,2.55,2.55,0,0,0-.077-1.563,1.573,1.573,0,0,0-.911-.842,3.236,3.236,0,0,0-1.627-.115A8.6,8.6,0,0,0,599.278,45.5Z" transform="translate(-555.019 -35.458)" fill="#3d3d3c" fill-rule="evenodd"/>
      <path id="Trazado_188368" data-name="Trazado 188368" d="M576.3,64.969a.254.254,0,1,1,.452-.232,3.924,3.924,0,0,0,2.022,1.907,3.63,3.63,0,0,0,1.552.253,3.822,3.822,0,0,0,1.538-.421,4.33,4.33,0,0,0,2.018-2.291.254.254,0,0,1,.472.189,4.834,4.834,0,0,1-2.256,2.553,4.33,4.33,0,0,1-1.743.476,4.149,4.149,0,0,1-1.768-.288A4.428,4.428,0,0,1,576.3,64.969Z" transform="translate(-544.022 -45.815)" fill="#3d3d3c" fill-rule="evenodd"/>
      <path id="Trazado_188369" data-name="Trazado 188369" d="M602.358,66.181a.254.254,0,0,1,.452.233,4.429,4.429,0,0,1-2.285,2.146,4.148,4.148,0,0,1-1.768.288,4.317,4.317,0,0,1-1.743-.476,4.828,4.828,0,0,1-2.257-2.553.254.254,0,0,1,.472-.189,4.328,4.328,0,0,0,2.018,2.291,3.827,3.827,0,0,0,1.538.421,3.634,3.634,0,0,0,1.551-.253A3.925,3.925,0,0,0,602.358,66.181Z" transform="translate(-553.015 -46.518)" fill="#3d3d3c" fill-rule="evenodd"/>
    </g>
  </g>
</svg>
