<svg xmlns="http://www.w3.org/2000/svg" width="206" height="120.776" viewBox="0 0 206 120.776">
  <g id="Grupo_177624" data-name="Grupo 177624" transform="translate(-346 -1166.358)">
    <g id="Grupo_175454" data-name="Grupo 175454" transform="translate(63 6.862)">
      <path id="Rect치ngulo_45467" data-name="Rect치ngulo 45467" d="M34,0H172a34,34,0,0,1,34,34V68a0,0,0,0,1,0,0H0a0,0,0,0,1,0,0V34A34,34,0,0,1,34,0Z" transform="translate(283 1212)" fill="#6b8dfc"/>
    </g>
    <g id="Grupo_177354" data-name="Grupo 177354" transform="translate(41.797 1076.401)">
      <g id="Grupo_177322" data-name="Grupo 177322" transform="translate(366.146 89.957)">
        <g id="Grupo_177309" data-name="Grupo 177309" transform="translate(0 29.508)">
          <g id="Grupo_177302" data-name="Grupo 177302" transform="translate(0 17.914)">
            <g id="Grupo_177301" data-name="Grupo 177301" transform="translate(0 1.589)">
              <path id="Trazado_187868" data-name="Trazado 187868" d="M418.931,244.381c.52,7.876-6.889,39.28-11.317,38.226-7.334-1.745-9.535-12.912-11.53-24.371,1.839-1.948,3.3-3.577,5.946-4.1,0,0,2.352,8.888,2.854,10.885,0,0,7.226-21.045,8.257-23.053C414.707,238.918,418.585,239.143,418.931,244.381Z" transform="translate(-396.084 -239.987)" fill="#874c4c"/>
              <g id="Grupo_177300" data-name="Grupo 177300" transform="translate(8.757 24.943)">
                <path id="Trazado_187869" data-name="Trazado 187869" d="M422.913,316.426c1.578,1.036,2.719,3.665,3.652,5.259a19.792,19.792,0,0,1,2.153,5.683.4.4,0,0,0,.782-.106,13.774,13.774,0,0,0-2.373-6.223c-.994-1.574-2.406-3.946-4.167-4.693a.046.046,0,0,0-.046.079Z" transform="translate(-422.89 -316.342)" fill="#312a3c"/>
              </g>
            </g>
            <path id="Trazado_187870" data-name="Trazado 187870" d="M433.292,237.144c-2.846,4.333-5.884,8.817-7.587,13.713a1.89,1.89,0,0,0,.305,2.116,53.338,53.338,0,0,0,9.623,11.092c4.3-6.474,5.334-14.528,5.908-22.278a10.6,10.6,0,0,0-.225-4.008,3.7,3.7,0,0,0-2.762-2.656Z" transform="translate(-415.898 -235.123)" fill="#cfbda5"/>
          </g>
          <g id="Grupo_177305" data-name="Grupo 177305" transform="translate(59.872 17.914)">
            <g id="Grupo_177304" data-name="Grupo 177304" transform="translate(1.599 2.637)">
              <path id="Trazado_187871" data-name="Trazado 187871" d="M584.257,247.527c-.152,1.4,6.983,38.124,11.507,37.626,7.494-.826,9.195-10.4,12.521-22.4-1.584-2.16-1.674-1.372-4.238-2.218,0,0-3.983,7.7-4.729,9.624,0,0-6.5-22.713-7.271-24.833C590.87,242.1,584.826,242.308,584.257,247.527Z" transform="translate(-584.255 -243.195)" fill="#874c4c"/>
              <g id="Grupo_177303" data-name="Grupo 177303" transform="translate(10.787 26.783)">
                <path id="Trazado_187872" data-name="Trazado 187872" d="M621.374,325.219c-2.277,2.3-4.5,6.014-4.038,9.389.03.219.363.189.414,0,.4-1.492.476-3.008,1.021-4.475a16.176,16.176,0,0,1,2.777-4.741c.1-.119-.06-.287-.173-.173Z" transform="translate(-617.274 -325.181)" fill="#312a3c"/>
              </g>
            </g>
            <path id="Trazado_187873" data-name="Trazado 187873" d="M587.691,237.144c2.847,4.333,5.884,8.817,7.587,13.713a1.89,1.89,0,0,1-.305,2.116,53.338,53.338,0,0,1-9.623,11.092c-4.3-6.474-5.334-14.528-5.908-22.278a10.594,10.594,0,0,1,.225-4.008,3.7,3.7,0,0,1,2.762-2.656Z" transform="translate(-579.36 -235.123)" fill="#cfbda5"/>
          </g>
          <path id="Trazado_187874" data-name="Trazado 187874" d="M484.68,195.286c-2.4-2.882-2.477-9.886-2.556-15-2.925.019-10.824.019-13.749,0-.079,5.115-.153,12.118-2.556,15-2.563,3.075-16.288,6.514-15.83,6.946,3.382,3.115,14.026,17.4,24.965,17.4s22.173-14.286,25.556-17.4C500.968,201.8,487.243,198.361,484.68,195.286Z" transform="translate(-432.373 -180.285)" fill="#874c4c"/>
          <g id="Grupo_177308" data-name="Grupo 177308" transform="translate(14.607 14.346)">
            <path id="Trazado_187875" data-name="Trazado 187875" d="M495.034,230.95c.3-2.875-12.319-6.921-15.722-6.743h0a11.163,11.163,0,0,1-20.465.047l-.021-.047c-3.4-.178-16.026,3.868-15.722,6.743.744,7.1,4.042,27.751,3.265,44.187-.463,9.783-5.712,18.072-5.568,21.12,0,8.966,56.781,2.732,56.781,2.732s-5.325-13.633-5.77-23.076C491.033,259.356,494.278,238.16,495.034,230.95Z" transform="translate(-440.799 -224.201)" fill="#cfbda5"/>
            <g id="Grupo_177306" data-name="Grupo 177306" transform="translate(3.145 4.551)">
              <path id="Trazado_187876" data-name="Trazado 187876" d="M451.218,238.208c-1.107,4.463-.834,9.347-.491,13.889.354,4.689.83,9.387,1.52,14.038.028.189.336.142.331-.045-.112-4.6-.879-9.172-1.248-13.755-.372-4.62-.906-9.493.095-14.07.029-.134-.173-.192-.207-.057Z" transform="translate(-450.426 -238.131)" fill="#312a3c"/>
            </g>
            <g id="Grupo_177307" data-name="Grupo 177307" transform="translate(51.769 5.248)">
              <path id="Trazado_187877" data-name="Trazado 187877" d="M600.943,240.386a80.513,80.513,0,0,1,.146,13.457c-.309,4.58-1.355,9.03-1.816,13.576-.031.3.429.339.511.069a59.972,59.972,0,0,0,1.969-13.645,66.783,66.783,0,0,0-.57-13.489c-.019-.135-.254-.1-.24.033Z" transform="translate(-599.272 -240.266)" fill="#312a3c"/>
            </g>
          </g>
        </g>
        <g id="Grupo_177321" data-name="Grupo 177321" transform="translate(6.397)">
          <path id="Trazado_187878" data-name="Trazado 187878" d="M437.773,95.946c-1.659,2.551-3.375,5.34-6.181,6.517-11.63,4.88-3.752,8.707-10.683,17.145a32.946,32.946,0,0,0-4.094,5.243c-2.173,4.127-1.115,9.506,1.958,13.013a17.085,17.085,0,0,0,12.494,5.352,13.417,13.417,0,0,0,5.535-.91,14.253,14.253,0,0,0,5.8-5.094c2.689-3.791,4.374-8.671,3.016-13.115-.505-1.653-1.419-3.236-1.393-4.964a7.008,7.008,0,0,1,2.324-4.654c1.259-1.256,2.757-2.248,4.056-3.462a16.76,16.76,0,0,0,4.944-14.406c-.763-4.373-6.376-7.11-10.514-6.59C441.686,90.44,439.487,93.311,437.773,95.946Z" transform="translate(-415.667 -89.957)" fill="#312a3c"/>
          <g id="Grupo_177311" data-name="Grupo 177311" transform="translate(26.189 8.754)">
            <path id="Trazado_187879" data-name="Trazado 187879" d="M523.283,133.26c-1.562,8.373-4.632,12.883-15.928,10.776s-12.533-7.421-10.971-15.794C499.619,110.9,526.934,113.689,523.283,133.26Z" transform="translate(-495.836 -116.754)" fill="#874c4c"/>
            <g id="Grupo_177310" data-name="Grupo 177310" transform="translate(5.331 25.408)">
              <path id="Trazado_187880" data-name="Trazado 187880" d="M525.264,196.875a18.61,18.61,0,0,1-12.97-1.848c-.3-.151-.069-.621.227-.466,4.1,2.146,8.186,2.54,12.732,2.263.028,0,.041.043.011.05Z" transform="translate(-512.156 -194.53)" fill="#312a3c"/>
            </g>
          </g>
          <g id="Grupo_177316" data-name="Grupo 177316" transform="translate(37.665 18.711)">
            <path id="Trazado_187881" data-name="Trazado 187881" d="M558.354,161.434c-.136.727.108,1.383.544,1.464s.9-.442,1.036-1.169-.108-1.383-.545-1.464S558.489,160.707,558.354,161.434Z" transform="translate(-549.381 -156.002)" fill="#312a3c"/>
            <path id="Trazado_187882" data-name="Trazado 187882" d="M532.177,156.55c-.136.727.108,1.383.544,1.464s.9-.442,1.036-1.169-.108-1.382-.544-1.464S532.312,155.823,532.177,156.55Z" transform="translate(-531.755 -152.714)" fill="#312a3c"/>
            <g id="Grupo_177312" data-name="Grupo 177312">
              <path id="Trazado_187883" data-name="Trazado 187883" d="M533.747,148.095a2.52,2.52,0,0,0-1.375-.412,9.912,9.912,0,0,0-1.209.257.183.183,0,0,1-.152-.3c.739-.728,2.187-.356,2.935.154.168.114-.024.41-.2.3Z" transform="translate(-530.964 -147.233)" fill="#312a3c"/>
            </g>
            <g id="Grupo_177313" data-name="Grupo 177313" transform="translate(8.922 1.614)">
              <path id="Trazado_187884" data-name="Trazado 187884" d="M558.394,152.251c.881-.206,2.366-.031,2.793.915a.183.183,0,0,1-.25.224,9.917,9.917,0,0,0-1.035-.676,2.524,2.524,0,0,0-1.431-.112c-.2.039-.276-.3-.076-.352Z" transform="translate(-558.277 -152.174)" fill="#312a3c"/>
            </g>
            <g id="Grupo_177314" data-name="Grupo 177314" transform="translate(2.802 10.004)">
              <path id="Trazado_187885" data-name="Trazado 187885" d="M542.909,178.911c-1,.829-3.116.676-3.365-.865-.031-.192.228-.249.33-.118.349.449.539.89,1.1,1.12a1.932,1.932,0,0,0,1.847-.265c.083-.058.164.065.088.128Z" transform="translate(-539.541 -177.857)" fill="#312a3c"/>
            </g>
            <g id="Grupo_177315" data-name="Grupo 177315" transform="translate(4.595 2.257)">
              <path id="Trazado_187886" data-name="Trazado 187886" d="M546.237,154.157a12.823,12.823,0,0,0-.15,3,8.989,8.989,0,0,0,.278,1.673,4.415,4.415,0,0,1,.324,1.04c-.064.723-.989.765-1.592.868a.065.065,0,0,1-.027-.125,2.945,2.945,0,0,0,.825-.278c.676-.466.42-.662.263-1.2a9.428,9.428,0,0,1-.314-1.521,8.013,8.013,0,0,1,.367-3.456.013.013,0,0,1,.025,0Z" transform="translate(-545.03 -154.142)" fill="#312a3c"/>
            </g>
          </g>
          <g id="Grupo_177320" data-name="Grupo 177320" transform="translate(24.828 16.071)">
            <path id="Trazado_187887" data-name="Trazado 187887" d="M495.253,139.428a2.3,2.3,0,0,0-3.189,1.151c-1.378,2.947,1.134,5.767,2.921,7.832C495.574,147.184,497.169,140.464,495.253,139.428Z" transform="translate(-491.668 -139.154)" fill="#874c4c"/>
            <g id="Grupo_177319" data-name="Grupo 177319" transform="translate(1.115 1.264)">
              <g id="Grupo_177317" data-name="Grupo 177317">
                <path id="Trazado_187888" data-name="Trazado 187888" d="M497.173,147.1a5.8,5.8,0,0,0-.387-2.323,3.31,3.31,0,0,0-1.621-1.457.157.157,0,0,1,.055-.295,1.964,1.964,0,0,1,1.73,1.211,5.337,5.337,0,0,1,.43,2.845c-.007.129-.2.154-.207.018Z" transform="translate(-495.082 -143.023)" fill="#312a3c"/>
              </g>
              <g id="Grupo_177318" data-name="Grupo 177318" transform="translate(0.1 1.324)">
                <path id="Trazado_187889" data-name="Trazado 187889" d="M496.769,147.278a1.369,1.369,0,0,0-.792.593,1.322,1.322,0,0,0-.161.391c-.034.15-.02.245-.123.364a.157.157,0,0,1-.246-.014c-.185-.3.1-.755.307-.99a1.637,1.637,0,0,1,.97-.544c.115-.021.156.168.044.2Z" transform="translate(-495.389 -147.076)" fill="#312a3c"/>
              </g>
            </g>
          </g>
          <path id="Trazado_187890" data-name="Trazado 187890" d="M527.794,110.652c1.818,1.675,4.411,2.215,6.881,2.314,5.931.239,7.684,8.466,5.862,13.1a5.952,5.952,0,0,0,.955,5.873c.261-1.763,1.866-2.955,3.286-4.032,4.7-3.558,3.959-12.063,1.722-17.095a16.931,16.931,0,0,0-8.646-8.313C533.015,100.766,520.732,104.148,527.794,110.652Z" transform="translate(-489.725 -98.099)" fill="#312a3c"/>
          <path id="Trazado_187891" data-name="Trazado 187891" d="M505.684,121.2c-1.3,1.59-3.2,2.924-5.245,2.764a1.644,1.644,0,0,1-.763-.213,1.613,1.613,0,0,1-.512-.6,6.147,6.147,0,0,1-.391-4.085,10.234,10.234,0,0,1,3.122-5.981c1.729-1.494,5.476-2.806,6.483.078C509.257,115.681,507.2,119.346,505.684,121.2Z" transform="translate(-471.513 -104.431)" fill="#312a3c"/>
        </g>
      </g>
      <g id="Grupo_177338" data-name="Grupo 177338" transform="translate(351.62 130.602)">
        <g id="Grupo_177329" data-name="Grupo 177329" transform="translate(0 5.977)">
          <g id="Grupo_177324" data-name="Grupo 177324" transform="translate(2.765 4.213)">
            <path id="Trazado_187892" data-name="Trazado 187892" d="M363.668,246.224c-.65-.214-1.865-.824-2.6-.608-.434.126-.447.234-.369.709.144.878.8,1.077,1.473,1.49.768.468,2.241,1.29,1.953,2.357a1.365,1.365,0,0,1-1.12.943,5.067,5.067,0,0,1-2.92-.961c.139,1.688,1.266,3.443,2.037,4.935.513.994,7.172,2.515,7.842,2.6.721.088,1.882,4.311,2.759,7.6,1.131-.674,5.833-4.5,5.833-4.5-.5-2.408-1.825-7.644-2.845-8.34a78.021,78.021,0,0,0-6.889-4.479C368.253,247.734,364.512,246.5,363.668,246.224Z" transform="translate(-360.083 -245.57)" fill="#874c4c"/>
            <g id="Grupo_177323" data-name="Grupo 177323" transform="translate(5.292 4.634)">
              <path id="Trazado_187893" data-name="Trazado 187893" d="M376.318,260.213a3.552,3.552,0,0,0,1.824.2,17.01,17.01,0,0,1,1.662-.575,2.3,2.3,0,0,1,2.219.452.167.167,0,0,1-.221.251c-1.087-.728-2.367-.119-3.488.228a1.434,1.434,0,0,1-.6.137c-.462-.076-.916-.53-1.4-.638-.037-.008-.026-.067.011-.058Z" transform="translate(-376.284 -259.756)" fill="#312a3c"/>
            </g>
          </g>
          <path id="Trazado_187894" data-name="Trazado 187894" d="M356.779,232.7c1.315-.316,4.816,1.974,5.695,5.626s-.56,5.756-2.827,6.3-4.5-.675-5.382-4.327S355.464,233.017,356.779,232.7Z" transform="translate(-353.259 -232.672)" fill="#fffcf8"/>
          <g id="Grupo_177328" data-name="Grupo 177328" transform="translate(0 3.782)">
            <path id="Trazado_187895" data-name="Trazado 187895" d="M353.666,249.594c-.185-.823-.086-1.72-.244-2.555a3.045,3.045,0,0,0-.688-1.712c-1.051-.935-1.216,2.856-1.066,3.646.579,3.04,3.395,4.429,3.7,4.131S354.01,250.55,353.666,249.594Z" transform="translate(-351.62 -244.875)" fill="#874c4c"/>
            <path id="Trazado_187896" data-name="Trazado 187896" d="M373.236,256.011c-.521.034-1.277-.958-1.489-1.485a3.953,3.953,0,0,1-.022-2.14c.16-1,.57-3.11-.094-3.382-1.13-.464-3.281,5.345-1.784,7.41.419.578,1.132,1.285,1.868,1.13C372.4,257.4,373.331,256.753,373.236,256.011Z" transform="translate(-363.549 -247.432)" fill="#874c4c"/>
            <path id="Trazado_187897" data-name="Trazado 187897" d="M365.556,248.575c.1-1.274,1.233-3.762.579-4.233-.982-.708-2.388,2.817-3,4.463s-.713,2.141.194,3.625c.33.54,1.6,2.294,2.4,2.277.481-.01.977-.825,1.064-1.2.153-.665-.316-1.232-.549-1.81A10.766,10.766,0,0,1,365.556,248.575Z" transform="translate(-359.054 -244.249)" fill="#874c4c"/>
            <path id="Trazado_187898" data-name="Trazado 187898" d="M357.518,250.695c-.471-.558-.7-.775-.469-1.5.25-.775.57-1.529.8-2.312.107-.358.617-1.573.083-1.744-.963-.309-2,1.995-2.28,2.576-.8,1.649-1.643,3.457-.257,4.956a22.1,22.1,0,0,0,4.909,3.109C362.089,256.6,358.951,250.34,357.518,250.695Z" transform="translate(-353.668 -244.826)" fill="#874c4c"/>
            <g id="Grupo_177325" data-name="Grupo 177325" transform="translate(5.626 2.345)">
              <path id="Trazado_187899" data-name="Trazado 187899" d="M370.314,251.582c-.536.9-1.406,2.292-1.054,3.37a21.972,21.972,0,0,0,1.722,3.006c.078.154-.107.363-.251.217a7.263,7.263,0,0,1-1.875-3.458c-.136-1.092.712-2.374,1.258-3.233.076-.119.275-.027.2.1Z" transform="translate(-368.841 -251.429)" fill="#312a3c"/>
            </g>
            <g id="Grupo_177326" data-name="Grupo 177326" transform="translate(3.512 5.386)">
              <path id="Trazado_187900" data-name="Trazado 187900" d="M362.694,260.8a2.45,2.45,0,0,0-.065,1.271,2.84,2.84,0,0,0,.551.863,11.851,11.851,0,0,1,1.351,1.627.168.168,0,0,1-.251.217,8.311,8.311,0,0,1-1.676-2.11,2.125,2.125,0,0,1-.02-1.889.056.056,0,0,1,.109.021Z" transform="translate(-362.37 -260.737)" fill="#312a3c"/>
            </g>
            <g id="Grupo_177327" data-name="Grupo 177327" transform="translate(0.912 3.002)">
              <path id="Trazado_187901" data-name="Trazado 187901" d="M355.517,253.478a8.851,8.851,0,0,0-.805,3.62.14.14,0,0,1-.278.018,6.667,6.667,0,0,1,1.034-3.662.028.028,0,0,1,.05.024Z" transform="translate(-354.413 -253.439)" fill="#312a3c"/>
            </g>
          </g>
        </g>
        <g id="Grupo_177337" data-name="Grupo 177337" transform="translate(81.163)">
          <g id="Grupo_177330" data-name="Grupo 177330">
            <path id="Trazado_187902" data-name="Trazado 187902" d="M622.83,224.465l-18.809,20.148,15.62,2.064,17.34-19.776Z" transform="translate(-602.731 -221.169)" fill="#f59d56"/>
            <path id="Trazado_187903" data-name="Trazado 187903" d="M667.555,221.9l9.074-4.45-20.206,22.39-4.586,2.116Z" transform="translate(-634.927 -216.443)" fill="#f59d56"/>
            <path id="Trazado_187904" data-name="Trazado 187904" d="M699.934,219.829s-.527-4.163,6.495-5.453c1.72,1,1.966,1.683,1.966,1.683Z" transform="translate(-667.306 -214.376)" fill="#fffcf8"/>
            <path id="Trazado_187905" data-name="Trazado 187905" d="M672.872,223.343s-6.26-4.02-13.138-3.733l.609,1.576Z" transform="translate(-640.244 -217.89)" fill="#fffcf8"/>
            <path id="Trazado_187906" data-name="Trazado 187906" d="M619.563,219.64l-19.49,20.923,1.29.8,18.809-20.148Z" transform="translate(-600.073 -217.92)" fill="#e8e8ea"/>
          </g>
          <path id="Trazado_187907" data-name="Trazado 187907" d="M657.761,267.331s-.646,3.153-.717,4.514c-2.865,2.336-2.794,2.938-2.794,2.938l2.436,1.978s2.866-3.555,2.866-4.2S659.7,266.113,657.761,267.331Z" transform="translate(-636.551 -249.919)" fill="#874c4c"/>
          <path id="Trazado_187908" data-name="Trazado 187908" d="M642.571,296.6l-.931,2.747a10.421,10.421,0,0,0-2.364,5.231c-.43,3.153-6.52,0-6.52,0v-8.488Z" transform="translate(-622.079 -269.395)" fill="#874c4c"/>
          <g id="Grupo_177336" data-name="Grupo 177336" transform="translate(7.669 20.865)">
            <path id="Trazado_187909" data-name="Trazado 187909" d="M633.541,297.957s-7.631-4.944-9.351-4.3-.322,2.579,8.276,6.556C634.939,301.181,633.541,297.957,633.541,297.957Z" transform="translate(-623.547 -288.584)" fill="#874c4c"/>
            <path id="Trazado_187910" data-name="Trazado 187910" d="M641,282.6s-7.631-4.944-9.351-4.3-.322,2.579,8.276,6.556C642.4,285.827,641,282.6,641,282.6Z" transform="translate(-628.569 -278.245)" fill="#874c4c"/>
            <path id="Trazado_187911" data-name="Trazado 187911" d="M635.077,290.5s-7.631-4.944-9.351-4.3-.323,2.58,8.276,6.556C636.474,293.723,635.077,290.5,635.077,290.5Z" transform="translate(-624.582 -283.562)" fill="#874c4c"/>
            <g id="Grupo_177331" data-name="Grupo 177331" transform="translate(1.068 4.379)">
              <path id="Trazado_187912" data-name="Trazado 187912" d="M626.836,291.757a19.2,19.2,0,0,0,4.367,2.662,49.734,49.734,0,0,0,4.74,2.1c.125.042.171-.128.083-.2a22.641,22.641,0,0,0-4.634-2.231,24.741,24.741,0,0,1-4.482-2.435c-.056-.041-.128.052-.074.1Z" transform="translate(-626.817 -291.651)" fill="#312a3c"/>
            </g>
            <g id="Grupo_177332" data-name="Grupo 177332" transform="translate(6.349 4.204)">
              <path id="Trazado_187913" data-name="Trazado 187913" d="M643.006,291.2c1.265.755,2.52,1.526,3.819,2.222.226.121.427-.222.2-.344-1.3-.7-2.641-1.32-3.973-1.958a.046.046,0,0,0-.046.079Z" transform="translate(-642.983 -291.116)" fill="#312a3c"/>
            </g>
            <g id="Grupo_177333" data-name="Grupo 177333" transform="translate(10.386 3.197)">
              <path id="Trazado_187914" data-name="Trazado 187914" d="M655.373,288.176a15.52,15.52,0,0,0,2.025,1.388.2.2,0,1,0,.153-.364,15.166,15.166,0,0,1-2.1-1.156c-.086-.053-.153.074-.077.132Z" transform="translate(-655.34 -288.031)" fill="#312a3c"/>
            </g>
            <g id="Grupo_177334" data-name="Grupo 177334" transform="translate(2.963 8.532)">
              <path id="Trazado_187915" data-name="Trazado 187915" d="M632.639,304.447c.79.5,1.584,1,2.39,1.475a6.222,6.222,0,0,0,2.255,1.069.139.139,0,0,0,.1-.236,12.925,12.925,0,0,0-2.314-1.158c-.8-.4-1.594-.81-2.382-1.23a.046.046,0,0,0-.046.079Z" transform="translate(-632.617 -304.362)" fill="#312a3c"/>
            </g>
            <g id="Grupo_177335" data-name="Grupo 177335" transform="translate(3.173 10.186)">
              <path id="Trazado_187916" data-name="Trazado 187916" d="M636.121,309.431c-1.216.408-3.37,1.335-2.75,3.011a.138.138,0,0,0,.266-.073c-.225-1.453,1.438-2.277,2.556-2.77.1-.042.027-.2-.071-.168Z" transform="translate(-633.261 -309.426)" fill="#312a3c"/>
            </g>
          </g>
        </g>
      </g>
      <g id="Grupo_177346" data-name="Grupo 177346" transform="translate(372.976 183.426)">
        <g id="Grupo_177339" data-name="Grupo 177339" transform="translate(0)">
          <path id="Trazado_187917" data-name="Trazado 187917" d="M401.688,350.1c0,1.786,1.383,22.225,23.9,22.225s23.9-20.439,23.9-22.225-10.7-3.235-23.9-3.235S401.688,348.312,401.688,350.1Z" transform="translate(-401.688 -346.864)" fill="#f59d56"/>
          <ellipse id="Elipse_4897" data-name="Elipse 4897" cx="22.237" cy="3.01" rx="22.237" ry="3.01" transform="translate(1.658 0.224)" fill="#ab693a"/>
        </g>
        <g id="Grupo_177340" data-name="Grupo 177340" transform="translate(2.741 7.123)">
          <path id="Trazado_187918" data-name="Trazado 187918" d="M410.081,368.782c1.212,4.92,3.916,10.01,8.189,12.924.161.11.335-.131.2-.264-3.676-3.761-6.7-7.575-8.216-12.708a.092.092,0,0,0-.177.049Z" transform="translate(-410.078 -368.668)" fill="#312a3c"/>
        </g>
        <g id="Grupo_177341" data-name="Grupo 177341" transform="translate(12.504 20.866)">
          <path id="Trazado_187919" data-name="Trazado 187919" d="M440.017,410.968a4.2,4.2,0,0,0,2.746,1.135c.137-.015.226-.208.077-.285a7.217,7.217,0,0,0-1.246-.426,6.844,6.844,0,0,1-1.453-.636c-.141-.081-.244.118-.123.212Z" transform="translate(-439.964 -410.737)" fill="#312a3c"/>
        </g>
        <g id="Grupo_177342" data-name="Grupo 177342" transform="translate(41.475 5.872)">
          <path id="Trazado_187920" data-name="Trazado 187920" d="M532.005,364.867c-.528.575-1.1,1.112-1.676,1.638a9.369,9.369,0,0,0-1.643,1.455.247.247,0,0,0,.277.36,4.579,4.579,0,0,0,1.771-1.41,10.525,10.525,0,0,0,1.415-1.932c.052-.088-.073-.189-.144-.111Z" transform="translate(-528.65 -364.839)" fill="#312a3c"/>
        </g>
        <g id="Grupo_177343" data-name="Grupo 177343" transform="translate(41.868 8.237)">
          <path id="Trazado_187921" data-name="Trazado 187921" d="M532.378,372.156a8.615,8.615,0,0,1-1.334,1.779c-.4.411-.984.737-1.187,1.3a.139.139,0,0,0,.133.174c.662-.059,1.11-.685,1.494-1.17a9.023,9.023,0,0,0,1.158-1.924c.079-.176-.164-.329-.265-.155Z" transform="translate(-529.852 -372.079)" fill="#312a3c"/>
        </g>
        <g id="Grupo_177344" data-name="Grupo 177344" transform="translate(41.558 11.007)">
          <path id="Trazado_187922" data-name="Trazado 187922" d="M531.069,380.643a8.344,8.344,0,0,1-.972,1.452c-.35.415-.793.74-1.141,1.149-.151.178.039.468.26.337a6.548,6.548,0,0,0,2.144-2.767c.092-.193-.187-.363-.291-.17Z" transform="translate(-528.902 -380.558)" fill="#312a3c"/>
        </g>
        <g id="Grupo_177345" data-name="Grupo 177345" transform="translate(40.384 14.496)">
          <path id="Trazado_187923" data-name="Trazado 187923" d="M527.5,391.289l-1.164,1.125a4.983,4.983,0,0,0-1.007,1.1.154.154,0,0,0,.209.209,4.979,4.979,0,0,0,1.086-1.017l1.114-1.176a.168.168,0,0,0-.238-.238Z" transform="translate(-525.31 -391.24)" fill="#312a3c"/>
        </g>
      </g>
      <g id="Grupo_177353" data-name="Grupo 177353" transform="translate(351.62 196.875)">
        <g id="Grupo_177349" data-name="Grupo 177349" transform="translate(0 1.342)">
          <path id="Trazado_187924" data-name="Trazado 187924" d="M429.283,443.763c.407-1.29,4.175-3.109,7.757-1.978s4.642,3.448,3.941,5.671-2.9,3.511-6.483,2.38S428.876,445.053,429.283,443.763Z" transform="translate(-429.232 -441.429)" fill="#fffcf8"/>
          <g id="Grupo_177347" data-name="Grupo 177347" transform="translate(2.554 1.223)">
            <path id="Trazado_187925" data-name="Trazado 187925" d="M437.166,446.044a7.707,7.707,0,0,1,3.012-.19,7.313,7.313,0,0,0,2.116.363.185.185,0,0,0,.11-.27c-.51-.7-1.535-.743-2.353-.771a6.291,6.291,0,0,0-2.955.7c-.1.046-.028.194.071.168Z" transform="translate(-437.049 -445.173)" fill="#312a3c"/>
          </g>
          <g id="Grupo_177348" data-name="Grupo 177348" transform="translate(8.767 2.847)">
            <path id="Trazado_187926" data-name="Trazado 187926" d="M456.116,450.344c.293.223.593.431.866.679.234.213.469.551.774.642a.293.293,0,0,0,.368-.281c-.044-.4-.453-.717-.788-.907a2.286,2.286,0,0,0-1.166-.334.108.108,0,0,0-.054.2Z" transform="translate(-456.068 -450.143)" fill="#312a3c"/>
          </g>
        </g>
        <g id="Grupo_177352" data-name="Grupo 177352" transform="translate(13.683 0)">
          <path id="Trazado_187927" data-name="Trazado 187927" d="M482.866,439.355c.481,1.264-1.346,5.028-4.857,6.363s-5.78.175-6.609-2,.1-4.553,3.608-5.888S482.385,438.091,482.866,439.355Z" transform="translate(-471.117 -437.323)" fill="#fffcf8"/>
          <g id="Grupo_177350" data-name="Grupo 177350" transform="translate(4.141 1.183)">
            <path id="Trazado_187928" data-name="Trazado 187928" d="M490.214,441.7c-1.679-.936-4.9-1.161-6.37.288a.17.17,0,0,0,.164.282c1.046-.166,1.933-.678,3.019-.756a10.637,10.637,0,0,1,3.105.382.108.108,0,0,0,.083-.2Z" transform="translate(-483.792 -440.945)" fill="#312a3c"/>
          </g>
          <g id="Grupo_177351" data-name="Grupo 177351" transform="translate(1.306 3.004)">
            <path id="Trazado_187929" data-name="Trazado 187929" d="M477.06,446.533a6.516,6.516,0,0,0-1.121.705,2.233,2.233,0,0,0-.815.868.2.2,0,0,0,.293.225c.308-.181.51-.564.765-.818a6.2,6.2,0,0,1,.987-.8.107.107,0,0,0-.108-.185Z" transform="translate(-475.114 -446.52)" fill="#312a3c"/>
          </g>
        </g>
      </g>
      <rect id="Rect치ngulo_45905" data-name="Rect치ngulo 45905" width="148.877" height="3.692" transform="translate(333.33 207.041)" fill="#fc5f65"/>
    </g>
  </g>
</svg>
