<svg id="Grupo_175646" data-name="Grupo 175646" xmlns="http://www.w3.org/2000/svg" xmlns:xlink="http://www.w3.org/1999/xlink" width="79.904" height="83.094" viewBox="0 0 79.904 83.094">
  <defs>
    <clipPath id="clip-path">
      <rect id="Rectángulo_45687" data-name="Rectángulo 45687" width="79.904" height="83.093" fill="none"/>
    </clipPath>
  </defs>
  <g id="Grupo_175635" data-name="Grupo 175635" clip-path="url(#clip-path)">
    <path id="Trazado_185857" data-name="Trazado 185857" d="M4.874,57.6c-2.734-4.492-2.695-5.276.633-9.059.667-.758.082-1.135-.114-1.665-1.287-3.471-.808-5.513,2.146-7.589,1.011-.71.685-1.116.347-1.936-1.633-3.956-.971-6.4,2.689-8.88,1.225-.829.43-1.3.164-1.936-1.146-2.745-1.143-5.367.931-7.684a4.862,4.862,0,0,1,4.781-1.459c1.688.345,2.394-.372,2.625-1.824.733-4.6,3.845-6.687,7.94-8.081C41.535,2.543,56.557.722,71.769.021c2.094-.1,4.035.02,3.637,3.171a15.971,15.971,0,0,0,.639,4.862c.227,1.158.115,2.378,2.158,2.421,1.808.038,1.9,1.841,1.516,3.428-1.249,5.153-2.433,10.321-3.711,15.467C72.547,43.3,68.662,57.109,64.564,70.863A4.37,4.37,0,0,1,60.9,74.3C45.025,77.958,28.983,80.636,12.878,83a6.548,6.548,0,0,1-6.12-2.2c-3.12-3.278-3.926-7.371-3.673-11.664a3.1,3.1,0,0,0-1.172-2.989A5.179,5.179,0,0,1,.26,60.449c.634-2.2,2.236-2.981,4.615-2.849" transform="translate(0 0)"/>
    <path id="Trazado_185858" data-name="Trazado 185858" d="M9.33,70.624c.541-2.321.973-4.273,1.46-6.211.166-.657-.024-1.708.9-1.771A2.1,2.1,0,0,1,13.667,63.9c.488,1.1,1.044,2,2.44,1.544a1.966,1.966,0,0,0,1.235-2.22c-.092-1.557-1.17-1.612-2.52-1.73-1.83-.16-3.382-.949-2.445-3.414.55-1.446.83-2.993,1.268-4.483.165-.561.1-1.428,1.03-1.315A1.506,1.506,0,0,1,16.1,53.391c.259,1.187.65,2.314,2.138,1.549a3.346,3.346,0,0,0,1.543-3.8c-.248-1.3-1.542-.892-2.533-.678-1.948.421-2.8-.16-2.039-2.24.282-.771.389-1.615.737-2.35.548-1.155.477-4.582,2.654-.793.6,1.038,1.642.382,2.361-.241.936-.81,1.715-1.737,1.072-3.082a1.608,1.608,0,0,0-2.269-.867c-.606.232-1.1,1.207-1.891.4-.691-.705.013-1.391.2-2.026.583-2,1.283-3.959,2.056-6.289.732,1.546,1.56,2.544,2.974,1.69a2.657,2.657,0,0,0,1.116-3.354c-.544-1.5-1.755-1.27-3.3-.613L23.5,22.849c.868.622,1.427,1.658,2.575,1.057a2.307,2.307,0,0,0,1.269-2.249,1.731,1.731,0,0,0-1.663-1.834c-.572-.081-1.126-.085-.839-.94.957-2.848,1.637-5.711,5.036-7A100.01,100.01,0,0,1,45.145,7.506,167.108,167.108,0,0,1,74.766,3.77c2.15-.052,2.577.369,1.928,2.558Q68.9,32.617,61.38,58.987c-.514,1.793-1.335,2.393-3.164,2.584C42.174,63.25,26.529,67.1,10.78,70.381c-.345.072-.7.118-1.45.243" transform="translate(-4.206 -1.697)" fill="#fff"/>
    <path id="Trazado_185859" data-name="Trazado 185859" d="M22.759,88.389c-1.27-.407-3.344,1.983-3.783-.6-.367-2.16,2.1-1.172,3.228-1.643a23.916,23.916,0,0,1,4.5-.978c3.675-1.682,7.714-1.817,11.574-2.708,2.722-.628,5.5-.979,7.327-1.432-6.162.846-13.023,2.981-20.168,3.526-1.881.345-3.758.7-5.642,1.03-.793.137-1.733.421-1.918-.806-.173-1.146.833-.968,1.455-1.1,14.628-3.118,29.2-6.581,44.121-8.03,2.008-.195,2.866-.934,3.384-2.749q5.709-19.99,11.528-39.95c.2-.691.44-1.371.661-2.056.7-.163.757.5,1.071.827a.664.664,0,0,0,.493.16c.366-.069.727-.274,1.094-.024a.455.455,0,0,0,.486,0c.507-.073.789.067.609.644L68.5,82.922c-1.471-2.306-1.842-4.436-2.709-6.433a4.792,4.792,0,0,0,.5,4.156c1.281,2.3.261,2.845-1.814,3.341-7.293,1.741-14.655,3.11-22.046,4.335-6.4,1.06-12.808,2.062-19.215,3.079a7.675,7.675,0,0,1-1.892.143,1.23,1.23,0,0,1-1.152-1.025c-.076-.759.655-.705,1.146-.833.884-.23,1.774-.438,2.661-.656,1.213-1.165,2.8-1.011,4.427-1.217-1.988.1-3.794.571-5.648.578" transform="translate(-8.05 -13.912)" fill="#fff"/>
    <path id="Trazado_185860" data-name="Trazado 185860" d="M66.1,129.793c-10.292,2.967-20.846,4.67-31.378,6.462-5.766.98-11.552,1.851-17.336,2.719-4.135.621-9.181-5.026-8.253-9.122.188-.831.728-.9,1.359-1.07.957-.26,1.339.259,1.608,1.017.52,1.463.987,2.947,1.568,4.385,1.293,3.2,2.358,3.981,5.637,3.378,15.449-2.843,31.12-4.533,46.29-8.835.94-.01.947.421.5,1.066" transform="translate(-4.068 -58.018)" fill="#fff"/>
    <path id="Trazado_185861" data-name="Trazado 185861" d="M112.532,100.472c0-.433.008-.874-.505-1.066,2.617-6.612,4.058-13.578,6.107-20.361,1.548-5.124,2.969-10.287,4.646-15.381a59.542,59.542,0,0,1-2.414,10.484c-2.28,8.048-4.522,16.107-6.845,24.142-.213.738-.215,1.661-.989,2.181" transform="translate(-50.497 -28.697)" fill="#fff"/>
    <path id="Trazado_185862" data-name="Trazado 185862" d="M24.7,43.56c-3.145-2.243-3.81-5.683-1.631-7.654a3.045,3.045,0,0,1,3.754-.618c1.181.73.037,1.8-.187,2.635-.51,1.893-1.262,3.722-1.936,5.637" transform="translate(-9.827 -15.721)" fill="#fff"/>
    <path id="Trazado_185863" data-name="Trazado 185863" d="M18.857,62.9a5.136,5.136,0,0,1-2.27-5.055,3.828,3.828,0,0,1,2.628-3.18,2.037,2.037,0,0,1,1.838-.007c.73.484.165,1.176,0,1.7-.664,2.148-1.425,4.266-2.2,6.542" transform="translate(-7.45 -24.54)" fill="#fff"/>
    <path id="Trazado_185864" data-name="Trazado 185864" d="M31.659,124.721c7.822-1.937,15.761-3.235,23.662-4.738l.211,1.024-22.606,4.33c-.266-.526-.821-.459-1.267-.615" transform="translate(-14.27 -54.083)"/>
    <path id="Trazado_185865" data-name="Trazado 185865" d="M14.128,80.742c-2.554-2.44-2.441-5.456.149-6.467.5-.2,1.057-.437,1.532,0,.406.375.133.858.014,1.275-.326,1.14-.678,2.272-1.042,3.4-.189.588-.422,1.162-.654,1.791" transform="translate(-5.532 -33.369)" fill="#fff"/>
    <path id="Trazado_185866" data-name="Trazado 185866" d="M129.639,24.957c-.128-.522.124-1.145-.411-1.56l2.492-9.156c1.689,1.341-.2,2.928.685,4.169.154,1.052-.452,1.9-.748,2.835-.784,1.177-.03,3.192-2.018,3.713" transform="translate(-58.25 -6.419)" fill="#fff"/>
    <path id="Trazado_185867" data-name="Trazado 185867" d="M5.52,114.081c-1.774-1.315-2.225-2.734-1.487-4.441a1.552,1.552,0,0,1,2.034-.846c.91.269.554,1.012.431,1.57-.266,1.2-.619,2.377-.977,3.717" transform="translate(-1.665 -48.995)" fill="#fff"/>
    <path id="Trazado_185868" data-name="Trazado 185868" d="M10.253,96.74c-2.068-3.345-1.773-4.41,1.274-5.572.205,1.911-.665,3.493-1.274,5.572" transform="translate(-4.024 -41.094)" fill="#fff"/>
    <path id="Trazado_185869" data-name="Trazado 185869" d="M132.375,23.715a4.27,4.27,0,0,1,1.128-2.227c.779-.679,1.156-.541.9.507-.443,1.822-1.4,3.51-1.42,5.444l-1.083.66c-.741-1.559.485-2.9.474-4.384" transform="translate(-59.348 -9.498)" fill="#fff"/>
    <path id="Trazado_185870" data-name="Trazado 185870" d="M26.781,134.6a21.265,21.265,0,0,1,7.67-1.208c-1.977,1.23-4.255,1.4-6.449,1.847-.22-.57-.788-.476-1.221-.639" transform="translate(-12.072 -60.121)"/>
    <path id="Trazado_185871" data-name="Trazado 185871" d="M135.56,28.965l-.609-.644,1.7-5.3c.446,2.2-.356,4.064-1.09,5.941" transform="translate(-60.83 -10.378)" fill="#fff"/>
    <path id="Trazado_185872" data-name="Trazado 185872" d="M48.98,32.19c-1.624.184-2.22-.633-1.917-2.118.547-2.679,1.208-5.334,1.747-8.015.243-1.207,1.093-1.591,2.088-1.849,9.621-2.5,19.253-4.959,29.058-6.642,2.79-.479,3.052-.111,2.518,2.686-1.676,8.779-1.66,8.84-10.219,11.055A211.438,211.438,0,0,1,48.98,32.19" transform="translate(-21.18 -6.035)"/>
    <path id="Trazado_185873" data-name="Trazado 185873" d="M131.615,25.885c.528,1.536-.621,2.89-.474,4.384-.422.61-.846,1.229-1.165-.063l1.639-4.321" transform="translate(-58.587 -11.668)"/>
    <path id="Trazado_185874" data-name="Trazado 185874" d="M50.667,32.043c-1.508.275-1.767-.521-1.5-1.738.5-2.227,1.067-4.439,1.505-6.677.228-1.168,1.11-1.369,1.975-1.594,9.286-2.411,18.594-4.721,28.037-6.462,1.912-.353,2.018.387,1.682,1.82-.063.267-.144.529-.2.8-1.609,7.128-1.608,7.131-8.735,8.931-6.912,1.746-13.855,3.345-20.873,4.609-.629.113-1.26.211-1.89.316" transform="translate(-22.121 -6.979)" fill="#fff"/>
  </g>
</svg>
