<svg xmlns="http://www.w3.org/2000/svg" width="95.007" height="122.128" viewBox="0 0 95.007 122.128">
  <g id="Grupo_176438" data-name="Grupo 176438" transform="translate(-221.613 -433.942)">
    <path id="Trazado_185922" data-name="Trazado 185922" d="M277.7,506.066c-2.313,5.614-4.524,10.768-6.56,15.99-1.648,4.226-2.078,4.514-6.492,3.125-2.885-.908-5.835-1.653-8.645-2.751-3.532-1.38-4.26-3.185-3.236-6.715,2.433-8.393,4.818-16.8,7.271-25.186a27.9,27.9,0,0,1,1.922-5.162,10.612,10.612,0,0,1,2.663-3.044,3.9,3.9,0,0,1,4.379-.506,23.858,23.858,0,0,0,9.642,2.083,15.881,15.881,0,0,0,4.078-.556,5.153,5.153,0,0,0,3.971-4.748,5.347,5.347,0,0,0-3.329-5.526c-3.011-1.191-6.1-2.02-9.419-1.432-2.25.4-3.341-.773-3.5-3-.426-6.074,2.175-11.454,3.714-17.075.7-2.559,2.907-3.194,5.163-3.468,14.249-1.729,26.94,4.9,34.01,17.691a41.147,41.147,0,0,1,4.638,13.512,20.312,20.312,0,0,1-2.023,12.614c-4.252,8.484-11.494,12.9-20.478,14.934C289.537,508.186,283.642,508.531,277.7,506.066Zm-2.454-40.784c2.852.567,5.365,1.038,7.866,1.57,5.7,1.213,8.448,5.281,9.684,10.515,1.622,6.865-2.07,10.087-6.961,11.566a25.747,25.747,0,0,1-12.841.343c-2.477-.524-4.9-1.325-7.622-2.078-1.2,4.939-2.5,9.724-3.485,14.575-.992,4.894-2.881,9.584-3.615,14.454l6.813,1.794c.214-.435.441-.82.6-1.231,1.909-4.879,3.839-9.75,5.7-14.649,1.435-3.78,3.41-4.594,7.01-2.781a18.491,18.491,0,0,0,9,2.264,27.562,27.562,0,0,0,16.652-5.768c5.912-4.7,9.191-10.874,7.722-18.4-2.322-11.9-9.1-20.414-21.058-23.988-3.75-1.121-7.658-2.029-11.666-.826-.884.265-1.511.539-1.691,1.512C276.663,457.852,275.951,461.547,275.242,465.282Z" transform="translate(-5.877 -2.655)"/>
    <path id="Trazado_185923" data-name="Trazado 185923" d="M261.715,565.7a14.662,14.662,0,0,1-6.167,12.048,6.557,6.557,0,0,1-6.991.81,13.692,13.692,0,0,1-8.321-15.932c.937-4.04,3.376-6.159,7.385-7.221a10.893,10.893,0,0,1,11.161,2.8A9.177,9.177,0,0,1,261.715,565.7Zm-4.771-.07c-.07-3.156-4.154-6.5-7.3-4.51-1.588,1-3.478,1.52-5.166,2.383a2.1,2.1,0,0,0-1.026,1.431,6.527,6.527,0,0,0,.376,2.933,9.932,9.932,0,0,0,5.693,5.273,2.754,2.754,0,0,0,1.8.008A8.945,8.945,0,0,0,256.944,565.629Z" transform="translate(-3.49 -23.139)"/>
    <path id="Trazado_185924" data-name="Trazado 185924" d="M331.127,502.367a3.7,3.7,0,0,1,.243,4.141,27.646,27.646,0,0,1-3.655,6.425,35.124,35.124,0,0,1-18.9,11.724,23.074,23.074,0,0,1-5.2.338,1.9,1.9,0,0,1-2.161-1.7c-.141-1.437.906-1.938,2.036-2.155,1.525-.294,3.121-.281,4.615-.672,8.394-2.2,15.1-7.014,20.528-13.655A29.666,29.666,0,0,0,331.127,502.367Z" transform="translate(-15.269 -13.088)"/>
    <path id="Trazado_185925" data-name="Trazado 185925" d="M281.538,437.647c.335.308,1.047.681,1.219,1.224.112.356-.46,1.092-.9,1.423-.877.658-1.895,1.125-2.819,1.726a17.778,17.778,0,0,0-6.7,7.156c-.448.932-.852,2.377-2.274,1.82-1.282-.5-.9-1.909-.732-2.949a7.956,7.956,0,0,1,.976-2.552,16.524,16.524,0,0,1,9.5-7.519A14.961,14.961,0,0,1,281.538,437.647Z" transform="translate(-9.091 -0.709)"/>
    <path id="Trazado_185926" data-name="Trazado 185926" d="M235.118,555.094c-.675,1.156-1.073,1.916-1.542,2.629-2.046,3.109-3.152,6.487-2.378,10.186a28.529,28.529,0,0,0,1.977,5.063c.378.894,1.372,1.893.178,2.649-1.059.671-1.846-.372-2.484-1.144-3.629-4.391-3.571-13.244.143-17.533C231.877,555.944,232.754,554.811,235.118,555.094Z" transform="translate(-1.257 -23.164)"/>
    <path id="Trazado_185927" data-name="Trazado 185927" d="M316.639,531.625a2.161,2.161,0,0,1,1.98-2.267c4.5-.807,8.472-2.843,12.447-5.341C329.8,529.867,320.957,534.386,316.639,531.625Z" transform="translate(-18.175 -17.229)"/>
    <path id="Trazado_185928" data-name="Trazado 185928" d="M265.353,444.167a4.449,4.449,0,0,1,.387-4.188,14.379,14.379,0,0,1,7.513-5.807c.848-.29,1.624-.425,2,.349Z" transform="translate(-8.299 0)"/>
    <path id="Trazado_185929" data-name="Trazado 185929" d="M225.593,558.048c-1.268,4.889-2.141,9.4.792,13.617a2.225,2.225,0,0,1-3.032-.5C220.549,568.4,221.024,559.86,225.593,558.048Z" transform="translate(0 -23.738)"/>
  </g>
</svg>
