<svg xmlns="http://www.w3.org/2000/svg" width="103.642" height="80.163" viewBox="0 0 103.642 80.163">
  <g id="Grupo_176435" data-name="Grupo 176435" transform="translate(-383.43 -272.184)">
    <path id="Trazado_185916" data-name="Trazado 185916" d="M401.463,339.45c3.067.238,5.795.664,8.511.6a23.251,23.251,0,0,0,8.377-1.394,19.973,19.973,0,0,1-7.285-5.941c-.557.4-1.048.757-1.536,1.114a27.237,27.237,0,0,1-11.46,5.188c-5.754,1.013-11.751-2.945-12.631-8.732-.686-4.514.509-8.506,2.651-12.351.184-.332.4-.648.591-.974s.379-.649.618-1.059c-.862-1.312-1.769-2.6-2.577-3.942a20.466,20.466,0,0,1-3.209-7.841,6.613,6.613,0,0,1,4.5-7.617c.47-.18.943-.351,1.452-.54a28.607,28.607,0,0,1,6.668-13.847c5.664-6.438,12.766-10,21.487-9.93a9.626,9.626,0,0,1,4.713,1.256c3.138,1.776,4.565,5.378,3.8,9.568-.133.734-.322,1.457-.565,2.543.622-.508,1-.779,1.334-1.1a11.835,11.835,0,0,1,6.872-3.356,9.345,9.345,0,0,1,4.433.6,32.4,32.4,0,0,0,6.207,1.494,4.735,4.735,0,0,0,3.529-.566,18.753,18.753,0,0,1,11.214-1.933,24.777,24.777,0,0,1,4.46.795c7.551,2.2,11.675,7.48,12.038,15.6.072,1.618-.153,3.25-.247,4.973.847.116,1.649.208,2.447.335,7.046,1.129,8.931,6.027,9.175,10.616.487,9.153-3.46,16.03-11.411,20.508a37.03,37.03,0,0,1-17.054,4.562,69.4,69.4,0,0,1-15.081-1.336,3.28,3.28,0,0,0-1.639.085c-3.254,1.189-6.485,2.44-10.009,3.78a15.979,15.979,0,0,0,1.666,1.6,24.614,24.614,0,0,0,17.731,4.588,18.486,18.486,0,0,1,10.75,1.43c.277.138.536.312,1.049.613a29.98,29.98,0,0,1-19.232,3.09,25.175,25.175,0,0,1-16.61-9.942c-3.237.371-6.434.7-9.619,1.114a30.477,30.477,0,0,1-10.917-.534A8.881,8.881,0,0,1,401.463,339.45Zm54.936-5.708.073.4c1.3-.129,2.6-.284,3.9-.382a32.943,32.943,0,0,0,14.017-4.264A18.442,18.442,0,0,0,481,323.361c2.181-3.44,3.261-7.13,2.316-11.2-.989-4.262-3.727-6.032-7.985-5.22a2.412,2.412,0,0,0-2.028,1.457,59.953,59.953,0,0,1-6.99,11.924,6.371,6.371,0,0,0-.836,1.682C463.776,326.934,461.058,331.08,456.4,333.742ZM403.43,297.358a33.089,33.089,0,0,1,5.187-3.143,35.394,35.394,0,0,0,6.805-3.632,11.718,11.718,0,0,1,1.458-.882c3.26-1.515,4.513-4.512,5.351-7.637a4.158,4.158,0,0,0-3.638-5.521,13.057,13.057,0,0,0-3.949.2c-9.581,2.113-16.164,7.891-20.163,16.741a15.881,15.881,0,0,0-.6,1.911Zm63.409,9.73c2.254-1.549,4.078-3.194,4.231-6.015a53.785,53.785,0,0,0,.286-5.832,9.893,9.893,0,0,0-4.383-7.607c-3.581-2.644-7.612-2.744-11.763-2.214a20.4,20.4,0,0,0-2.558.675C463,295.155,464.062,296.728,466.839,307.087ZM408.314,329c-.617-1.042-1.18-1.882-1.626-2.779a2.4,2.4,0,0,0-2.259-1.43c-3.978-.109-7.27-1.884-10.328-4.233l-1.707-1.313c-2.275,3.1-3.566,6.316-2.883,10.018.491,2.66,1.988,4.886,5.715,4.918C400.281,334.226,404.327,332.039,408.314,329Zm29.351-32.59c5.727,3.945,8.424,9.582,9.913,16.111,3.013-6.99.943-16.49-4.026-21.568A10.906,10.906,0,0,0,437.665,296.409Zm-14.23,21.7-9.054,11.5c1.041,1.07,2.078,2.155,3.139,3.217a1.363,1.363,0,0,0,2.16-.073A26.353,26.353,0,0,0,422.2,329.7c1.487-2.189,2.875-4.445,4.293-6.681a1.952,1.952,0,0,0,.136-.57Zm19.6-3.384c-.057-5.441-3.41-11.843-6.892-13.577-.4,3.041-1.434,6.141,1.962,8.271a4.924,4.924,0,0,1,.972,1.152c.758.929,1.487,1.884,2.285,2.777A16.028,16.028,0,0,0,443.04,314.729Zm-46.634-6.224c-2.834-1.744-5.178-3.81-6.246-6.949-2.006.949-2.514,1.671-2.08,3.028a22.792,22.792,0,0,0,4.159,7.485Zm34.613-9.538c-2.1-.2-3.427.847-4.693,2a1.225,1.225,0,0,0-.352.838,20.616,20.616,0,0,0,.738,5.926l4.307-1.373Zm8.015-11.422c-.033-.141-.066-.282-.1-.422-2.144.4-4.28.851-6.434,1.185-2.5.387-3.832,1.907-4.425,4.311.312.487.648,1.014,1,1.571H432.6A14.719,14.719,0,0,1,439.034,287.546Zm-17.949,9.107c-4.037-.51-6.453,1.978-9.245,4.319,2.216.775,3.788,2.473,6.064,2.319.871-1.35,1.609-2.67,2.521-3.856A2.945,2.945,0,0,0,421.085,296.653Zm33.023,19.671c.954-.761,1.941-1.442,2.8-2.257a2.983,2.983,0,0,0,.854-3.464,35.394,35.394,0,0,0-2.015-4.045,4.1,4.1,0,0,0-1.88-1.973,26.951,26.951,0,0,1-1.387,10.717Zm-58.584-.739c2.392,2.617,5.924,4.484,7.736,4.132l-2.4-8.021A18.425,18.425,0,0,0,395.525,315.586Zm12.609,3.39c2.159-.843,4.725-3.934,5.309-6.422L405.667,312A34.574,34.574,0,0,0,408.134,318.976Zm35.42,10.926c1,.057,1.834.36,2.392.09a13.848,13.848,0,0,0,5.8-4.759,13.474,13.474,0,0,0,.937-2.172c-1.125-.208-1.984-.432-2.853-.5A1.483,1.483,0,0,0,448.7,323C447.044,325.145,445.45,327.339,443.554,329.9Zm-49.11-29.382c1.017,2.5,3.975,4.847,6.076,4.866.213-1.21.428-2.427.656-3.716C398.905,301.048,396.813,300.185,394.443,300.519Zm17.423,25.194c3.036-4.049,5.861-7.819,8.691-11.585a1.423,1.423,0,0,0-.207-2.024c-1.343,2.264-2.6,4.508-3.979,6.667a15.992,15.992,0,0,1-5.7,5.184Zm17.444,6.229a5.377,5.377,0,0,0,5.371-1.82l-3.274-2.5A7.626,7.626,0,0,0,429.311,331.942Zm25.74-3.132a11.61,11.61,0,0,0,4.634-4.556l-1.183-2.14a1.521,1.521,0,0,0-1.567,1.308C456.427,325.163,455.747,326.852,455.051,328.81Zm-4.543-35.987c1.247,3.664,4.272,5.995,6.506,8.919A17.936,17.936,0,0,0,450.507,292.823ZM431.56,318.071l1.358-1.046-2.749-1.307-.185.254Z" transform="translate(0)"/>
  </g>
</svg>
