<svg xmlns="http://www.w3.org/2000/svg" width="400" height="355.682" viewBox="0 0 400 355.682">
  <g id="Grupo_177678" data-name="Grupo 177678" transform="translate(-44.187 -61.426)">
    <path id="Trazado_188438" data-name="Trazado 188438" d="M421.868,199.672c-8.091,42.105-37.231,81.43-68.975,107.981-35.29,29.517-81.6,48.7-127.789,50.635-39.46,1.654-79.826-9.858-110.781-34.387s-51.705-62.36-52.99-101.834,17.92-79.65,50.978-101.261c22.352-14.613,51.19-20.241,76.62-27.263,52.164-14.4,112.895-27.72,165.806-9.464,31.96,11.027,59.057,35.136,66.71,69A113.179,113.179,0,0,1,421.868,199.672Z" transform="translate(-0.483 -0.389)" fill="#8284d2"/>
    <g id="Grupo_177629" data-name="Grupo 177629" transform="translate(44.187 61.426)">
      <g id="Grupo_177626" data-name="Grupo 177626" transform="translate(326.223 121.759)">
        <g id="Grupo_177624" data-name="Grupo 177624" transform="translate(6.74 27.014)">
          <path id="Trazado_188439" data-name="Trazado 188439" d="M441.818,244.6v-5.16l-7.288-1.236a20.445,20.445,0,0,0-3.219-7.775l4.279-6.027-3.649-3.648-6.026,4.278a20.46,20.46,0,0,0-7.775-3.218l-1.236-7.288h-5.16l-1.236,7.288a20.461,20.461,0,0,0-7.775,3.218l-6.027-4.278-3.648,3.648,4.278,6.027a20.46,20.46,0,0,0-3.218,7.775l-7.288,1.236v5.16l7.288,1.236a20.46,20.46,0,0,0,3.218,7.775l-4.278,6.026,3.648,3.649,6.027-4.279a20.447,20.447,0,0,0,7.775,3.219l1.236,7.288h5.16l1.236-7.288a20.446,20.446,0,0,0,7.775-3.219l6.026,4.279,3.649-3.649-4.279-6.026a20.445,20.445,0,0,0,3.219-7.775Zm-27.495,9.73a12.31,12.31,0,1,1,12.31-12.31A12.311,12.311,0,0,1,414.323,254.328Z" transform="translate(-386.828 -214.523)" fill="#6265ce"/>
          <circle id="Elipse_4900" data-name="Elipse 4900" cx="5.971" cy="5.971" r="5.971" transform="translate(21.524 21.524)" fill="#6265ce"/>
        </g>
        <g id="Grupo_177625" data-name="Grupo 177625">
          <path id="Trazado_188440" data-name="Trazado 188440" d="M413.376,197.462l-1.472-2.934-4.5,1.377a13.021,13.021,0,0,0-4.048-3.5l.712-4.647-3.115-1.033-2.206,4.152a13.014,13.014,0,0,0-5.338.389l-2.783-3.79-2.934,1.472,1.378,4.5a13,13,0,0,0-3.5,4.049l-4.647-.712-1.033,3.115,4.152,2.2a13,13,0,0,0,.389,5.338l-3.791,2.783,1.473,2.934,4.5-1.377a13.025,13.025,0,0,0,4.049,3.5l-.712,4.647,3.116,1.033,2.2-4.152a13,13,0,0,0,5.339-.39l2.783,3.791,2.933-1.472-1.377-4.5a13.014,13.014,0,0,0,3.5-4.049l4.647.712,1.033-3.115-4.152-2.2a13.013,13.013,0,0,0-.389-5.338ZM400.522,210.84a7.831,7.831,0,1,1,3.485-10.511A7.831,7.831,0,0,1,400.522,210.84Z" transform="translate(-379.892 -186.724)" fill="#6265ce"/>
          <path id="Trazado_188441" data-name="Trazado 188441" d="M395.692,200.834a3.8,3.8,0,1,0,5.1,1.691A3.8,3.8,0,0,0,395.692,200.834Z" transform="translate(-380.279 -187.111)" fill="#6265ce"/>
        </g>
      </g>
      <g id="Grupo_177627" data-name="Grupo 177627" transform="translate(0 133.265)">
        <rect id="Rectángulo_45942" data-name="Rectángulo 45942" width="42.65" height="61.385" rx="4.232" fill="#4d52a8"/>
        <rect id="Rectángulo_45943" data-name="Rectángulo 45943" width="8.225" height="21.02" transform="translate(6.334 31.657)" fill="#5fc5a9"/>
        <rect id="Rectángulo_45944" data-name="Rectángulo 45944" width="8.225" height="26.656" transform="translate(17.91 26.021)" fill="#ffb552"/>
        <rect id="Rectángulo_45945" data-name="Rectángulo 45945" width="8.225" height="31.378" transform="translate(29.487 21.299)" fill="#5fc5a9"/>
        <path id="Trazado_188442" data-name="Trazado 188442" d="M48.983,225.41a.3.3,0,0,1-.059-.591,62.041,62.041,0,0,0,33.149-18.854.3.3,0,1,1,.44.4A62.645,62.645,0,0,1,49.045,225.4.327.327,0,0,1,48.983,225.41Z" transform="translate(-44.314 -198.771)" fill="#fff"/>
      </g>
      <g id="Grupo_177628" data-name="Grupo 177628" transform="translate(66.18)">
        <path id="Trazado_188443" data-name="Trazado 188443" d="M161.133,140.688,149.958,135.1l-11.175,5.587V111.017h22.349Z" transform="translate(-113.039 -62.826)" fill="#fed947"/>
        <circle id="Elipse_4901" data-name="Elipse 4901" cx="26.106" cy="26.106" r="26.106" transform="translate(0 36.92) rotate(-45)" fill="#fc5f65"/>
        <circle id="Elipse_4902" data-name="Elipse 4902" cx="20.615" cy="20.615" r="20.615" transform="translate(16.305 16.305)" fill="#3c3fa7"/>
        <path id="Trazado_188444" data-name="Trazado 188444" d="M149.617,121.674a22.921,22.921,0,1,1,22.921-22.921A22.947,22.947,0,0,1,149.617,121.674Zm0-45.277a22.356,22.356,0,1,0,22.355,22.356A22.381,22.381,0,0,0,149.617,76.4Z" transform="translate(-112.697 -61.833)" fill="#fff"/>
        <path id="Trazado_188445" data-name="Trazado 188445" d="M149.343,81.8c2.108,2.236.216,7.444-4.226,11.632s-9.752,5.771-11.859,3.535-.216-7.443,4.226-11.631S147.236,79.56,149.343,81.8Z" transform="translate(-112.858 -61.972)" fill="#fff" opacity="0.5" style="mix-blend-mode: soft-light;isolation: isolate"/>
      </g>
    </g>
    <g id="Grupo_177634" data-name="Grupo 177634" transform="translate(69.615 151.32)">
      <g id="Grupo_177630" data-name="Grupo 177630" transform="translate(0 172.421)">
        <path id="Trazado_188446" data-name="Trazado 188446" d="M97.864,386.385a27.51,27.51,0,1,1,0-55.02H231.7v55.02Z" transform="translate(-70.354 -331.365)" fill="#fc5f65"/>
        <path id="Trazado_188447" data-name="Trazado 188447" d="M225.823,337.588H98.04A21.462,21.462,0,0,0,76.578,359.05h0A21.462,21.462,0,0,0,98.04,380.513H231.871V337.588Z" transform="translate(-70.53 -331.541)" fill="#fff"/>
        <rect id="Rectángulo_45946" data-name="Rectángulo 45946" width="120.23" height="0.605" transform="translate(32.091 14.907)" fill="#a9b3ff"/>
        <rect id="Rectángulo_45947" data-name="Rectángulo 45947" width="120.23" height="0.605" transform="translate(32.091 31.994)" fill="#a9b3ff"/>
        <rect id="Rectángulo_45948" data-name="Rectángulo 45948" width="120.23" height="0.605" transform="translate(17.886 24.583)" fill="#a9b3ff"/>
        <rect id="Rectángulo_45949" data-name="Rectángulo 45949" width="120.23" height="0.605" transform="translate(30.238 40.178)" fill="#a9b3ff"/>
        <path id="Trazado_188448" data-name="Trazado 188448" d="M184.262,362.383l-8.981-3.218-8.981,3.218V344.421h17.962Z" transform="translate(-73.064 -331.734)" fill="#fed947"/>
      </g>
      <g id="Grupo_177633" data-name="Grupo 177633" transform="translate(30.533)">
        <rect id="Rectángulo_45950" data-name="Rectángulo 45950" width="128.055" height="172.421" fill="#5fc5a9"/>
        <rect id="Rectángulo_45951" data-name="Rectángulo 45951" width="9.579" height="69.069" transform="translate(7.31 51.676)" fill="#93d8c3"/>
        <rect id="Rectángulo_45952" data-name="Rectángulo 45952" width="128.055" height="172.421" transform="translate(24.2)" fill="#93d8c3"/>
        <rect id="Rectángulo_45953" data-name="Rectángulo 45953" width="3.277" height="172.421" transform="translate(31.51)" fill="#5fc5a9"/>
        <rect id="Rectángulo_45954" data-name="Rectángulo 45954" width="82.177" height="40.332" transform="translate(47.139 16.133)" fill="#33896e"/>
        <ellipse id="Elipse_4903" data-name="Elipse 4903" cx="11.47" cy="42.417" rx="11.47" ry="42.417" transform="translate(31.51 11.334)" fill="#fff" opacity="0.5" style="mix-blend-mode: soft-light;isolation: isolate"/>
        <g id="Grupo_177632" data-name="Grupo 177632" transform="translate(0 14.831)">
          <g id="Grupo_177631" data-name="Grupo 177631">
            <rect id="Rectángulo_45955" data-name="Rectángulo 45955" width="24.2" height="3.025" fill="#93d8c3"/>
            <rect id="Rectángulo_45956" data-name="Rectángulo 45956" width="24.2" height="3.025" transform="translate(0 7.898)" fill="#93d8c3"/>
            <rect id="Rectángulo_45957" data-name="Rectángulo 45957" width="24.2" height="3.025" transform="translate(0 131.837)" fill="#93d8c3"/>
            <rect id="Rectángulo_45958" data-name="Rectángulo 45958" width="24.2" height="3.025" transform="translate(0 139.735)" fill="#93d8c3"/>
          </g>
        </g>
      </g>
    </g>
    <g id="Grupo_177639" data-name="Grupo 177639" transform="translate(197.935 91.982)">
      <g id="Grupo_177636" data-name="Grupo 177636" transform="translate(0 30.843)">
        <rect id="Rectángulo_45959" data-name="Rectángulo 45959" width="181.856" height="234.216" rx="8.475" transform="translate(0 21.718)" fill="#162a45"/>
        <rect id="Rectángulo_45960" data-name="Rectángulo 45960" width="141.473" height="193.773" transform="translate(20.192 34.941)" fill="#fff"/>
        <path id="Trazado_188449" data-name="Trazado 188449" d="M315.593,139.257a8.142,8.142,0,0,0,.173-1.636c0-7.185-9.478-13.011-21.168-13.011s-21.168,5.826-21.168,13.011a8.211,8.211,0,0,0,.172,1.636H247.245v24.877h94.707V139.257Z" transform="translate(-203.67 -124.61)" fill="#fc5f65"/>
        <path id="Trazado_188450" data-name="Trazado 188450" d="M302.225,132.626c0,2.893-4.835,5.238-10.8,5.238s-10.8-2.345-10.8-5.238,4.836-5.237,10.8-5.237S302.225,129.734,302.225,132.626Z" transform="translate(-204.613 -124.688)" fill="#fff" opacity="0.5" style="mix-blend-mode: soft-light;isolation: isolate"/>
        <g id="Grupo_177635" data-name="Grupo 177635" transform="translate(33.182 50.817)">
          <rect id="Rectángulo_45961" data-name="Rectángulo 45961" width="42.224" height="42.224" transform="translate(0.602)" fill="#fc5f65"/>
          <rect id="Rectángulo_45962" data-name="Rectángulo 45962" width="42.224" height="42.224" transform="translate(73.268 96.232)" fill="#fed947"/>
          <rect id="Rectángulo_45963" data-name="Rectángulo 45963" width="115.626" height="1.964" transform="translate(0.602 53.517)" fill="#3c3fa7"/>
          <rect id="Rectángulo_45964" data-name="Rectángulo 45964" width="64.564" height="1.964" transform="translate(51.664 39.278)" fill="#3c3fa7"/>
          <rect id="Rectángulo_45965" data-name="Rectángulo 45965" width="64.564" height="1.964" transform="translate(51.664 25.04)" fill="#3c3fa7"/>
          <rect id="Rectángulo_45966" data-name="Rectángulo 45966" width="47.686" height="1.964" transform="translate(68.542 10.801)" fill="#3c3fa7"/>
          <rect id="Rectángulo_45967" data-name="Rectángulo 45967" width="115.626" height="1.964" transform="translate(0.602 67.755)" fill="#3c3fa7"/>
          <rect id="Rectángulo_45968" data-name="Rectángulo 45968" width="115.626" height="1.964" transform="translate(0.602 81.994)" fill="#3c3fa7"/>
          <rect id="Rectángulo_45969" data-name="Rectángulo 45969" width="63.091" height="1.964" transform="translate(0.602 96.232)" fill="#3c3fa7"/>
          <rect id="Rectángulo_45970" data-name="Rectángulo 45970" width="63.091" height="1.964" transform="translate(0.602 110.47)" fill="#3c3fa7"/>
          <rect id="Rectángulo_45971" data-name="Rectángulo 45971" width="63.091" height="1.964" transform="translate(0.602 124.709)" fill="#3c3fa7"/>
          <rect id="Rectángulo_45972" data-name="Rectángulo 45972" width="47.818" height="5.564" transform="translate(0 150.894)" fill="#7b85e8"/>
          <rect id="Rectángulo_45973" data-name="Rectángulo 45973" width="63.612" height="5.564" transform="translate(51.88 150.894)" fill="#a9b3ff"/>
          <rect id="Rectángulo_45974" data-name="Rectángulo 45974" width="22.942" height="5.564" transform="translate(0 161.532)" fill="#a9b3ff"/>
          <rect id="Rectángulo_45975" data-name="Rectángulo 45975" width="87.313" height="5.564" transform="translate(28.179 161.532)" fill="#7b85e8"/>
        </g>
      </g>
      <g id="Grupo_177638" data-name="Grupo 177638" transform="translate(90.928)">
        <g id="Grupo_177637" data-name="Grupo 177637">
          <path id="Trazado_188451" data-name="Trazado 188451" d="M403.863,178.008c-1.265,2.7-21.322-4.018-44.8-15.012s-41.482-22.095-40.217-24.8,21.322,4.019,44.8,15.013S405.128,175.306,403.863,178.008Z" transform="translate(-296.619 -94.134)" fill="#383d84"/>
          <path id="Trazado_188452" data-name="Trazado 188452" d="M413.4,152.173l-43.659-12.578-38.674-23.223L318.849,137.6l42.508,19.9,42.508,19.9Z" transform="translate(-296.621 -93.534)" fill="#383d84"/>
          <path id="Trazado_188453" data-name="Trazado 188453" d="M380.859,113.811,295.975,92.87l70.439,51.79L451.3,165.6Z" transform="translate(-295.975 -92.87)" fill="#4d52a8"/>
        </g>
        <path id="Trazado_188454" data-name="Trazado 188454" d="M317.266,147.378a.507.507,0,0,1-.06-.031.807.807,0,0,1-.3-1.1l15.149-26.415a.809.809,0,0,1,.886-.385L374.41,129.2a.809.809,0,0,1-.37,1.574l-40.882-9.616L318.31,147.048A.808.808,0,0,1,317.266,147.378Z" transform="translate(-296.563 -93.62)" fill="#ffb552"/>
        <path id="Trazado_188455" data-name="Trazado 188455" d="M320.085,148.543a2.8,2.8,0,1,1-1.348-3.722A2.8,2.8,0,0,1,320.085,148.543Z" transform="translate(-296.505 -94.33)" fill="#ffb552"/>
        <path id="Trazado_188456" data-name="Trazado 188456" d="M314.952,146.045l-5.235,7.175c2.259,2.425,6.335,3.675,6.335,3.675l3.891-8.31Z" transform="translate(-296.363 -94.372)" fill="#ffb552"/>
      </g>
    </g>
    <g id="Grupo_177640" data-name="Grupo 177640" transform="translate(83.414 348.626)">
      <rect id="Rectángulo_45976" data-name="Rectángulo 45976" width="91.975" height="60.38" transform="translate(0 8.102)" fill="#383d84"/>
      <path id="Trazado_188457" data-name="Trazado 188457" d="M146.27,367.981H116.624v-7.94a3.071,3.071,0,0,1,3.068-3.067H143.2a3.071,3.071,0,0,1,3.068,3.067Zm-27.951-1.7h26.255v-6.245a1.374,1.374,0,0,0-1.372-1.371H119.692a1.373,1.373,0,0,0-1.372,1.371Z" transform="translate(-85.46 -356.974)" fill="#162a45"/>
      <path id="Trazado_188458" data-name="Trazado 188458" d="M176.528,389.779l-45.987,11.043L84.554,389.779V365.311h91.975Z" transform="translate(-84.554 -357.21)" fill="#6265ce"/>
      <rect id="Rectángulo_45977" data-name="Rectángulo 45977" width="5.485" height="7.506" transform="translate(67.712 33.724)" fill="#162a45"/>
      <rect id="Rectángulo_45978" data-name="Rectángulo 45978" width="5.485" height="7.506" transform="translate(18.994 33.724)" fill="#162a45"/>
      <path id="Trazado_188459" data-name="Trazado 188459" d="M131.088,376.365c0,3.768-8.724,6.821-19.487,6.821s-19.488-3.053-19.488-6.821,8.724-6.82,19.488-6.82S131.088,372.6,131.088,376.365Z" transform="translate(-84.767 -357.329)" fill="#fff" opacity="0.5" style="mix-blend-mode: soft-light;isolation: isolate"/>
    </g>
    <g id="Grupo_177666" data-name="Grupo 177666" transform="translate(153.844 86.689)">
      <g id="Grupo_177648" data-name="Grupo 177648" transform="translate(0 135.495)">
        <g id="Grupo_177642" data-name="Grupo 177642" transform="translate(0 10.686)">
          <path id="Trazado_188460" data-name="Trazado 188460" d="M209.136,250.716l-9.281,159.848a6.507,6.507,0,0,1-13-.3l-2.011-160.1a12.158,12.158,0,1,1,24.313-.305C209.159,250.137,209.15,250.443,209.136,250.716Z" transform="translate(-157.817 -237.854)" fill="#ffc1b0"/>
          <g id="Grupo_177641" data-name="Grupo 177641" transform="translate(0 171.095)">
            <path id="Trazado_188461" data-name="Trazado 188461" d="M201.92,427.02H157.04a9.033,9.033,0,0,1,.3-2.657c.673-2.648,2.859-6.378,9.7-6.668a56.8,56.8,0,0,0,18.389-3.773,58.988,58.988,0,0,0,14.463,0A20.54,20.54,0,0,1,201.92,427.02Z" transform="translate(-157.031 -413.922)" fill="#162a45"/>
            <path id="Trazado_188462" data-name="Trazado 188462" d="M157.04,427.324H201.92a16.124,16.124,0,0,0,.3-2.657H157.337A9.033,9.033,0,0,0,157.04,427.324Z" transform="translate(-157.031 -414.225)" fill="#a9b3ff"/>
          </g>
        </g>
        <g id="Grupo_177644" data-name="Grupo 177644" transform="translate(49.609 11.085)">
          <path id="Trazado_188463" data-name="Trazado 188463" d="M238.222,249.186,250.479,409.7a6.794,6.794,0,0,1-13.5,1.456L214.731,251.719a11.82,11.82,0,0,1,23.413-3.267C238.175,248.685,238.2,248.953,238.222,249.186Z" transform="translate(-208.267 -238.265)" fill="#ffc1b0"/>
          <g id="Grupo_177643" data-name="Grupo 177643" transform="translate(0 170.696)">
            <path id="Trazado_188464" data-name="Trazado 188464" d="M252.971,427.02H208.091a9.016,9.016,0,0,1,.3-2.657c.673-2.648,2.858-6.378,9.7-6.668a51.426,51.426,0,0,0,17.873-3.773c6.632,1.047,14.979,0,14.979,0A20.543,20.543,0,0,1,252.971,427.02Z" transform="translate(-208.082 -413.922)" fill="#162a45"/>
            <path id="Trazado_188465" data-name="Trazado 188465" d="M208.092,427.324h44.88a16.045,16.045,0,0,0,.3-2.657H208.389A9.033,9.033,0,0,0,208.092,427.324Z" transform="translate(-208.082 -414.225)" fill="#a9b3ff"/>
          </g>
        </g>
        <g id="Grupo_177647" data-name="Grupo 177647" transform="translate(24.809)">
          <g id="Grupo_177645" data-name="Grupo 177645">
            <path id="Trazado_188466" data-name="Trazado 188466" d="M183.829,232.264,182.561,403.48h21.4l9.408-173.972Z" transform="translate(-182.561 -226.932)" fill="#383d84"/>
            <path id="Trazado_188467" data-name="Trazado 188467" d="M242.368,231.514,252.462,403.4H231.4L209.746,226.857Z" transform="translate(-183.329 -226.857)" fill="#383d84"/>
          </g>
          <g id="Grupo_177646" data-name="Grupo 177646" transform="translate(2.051 0.36)">
            <path id="Trazado_188468" data-name="Trazado 188468" d="M213.215,248.4a.176.176,0,0,1-.176-.17l-.639-20.826a.175.175,0,0,1,.351-.011l.639,20.826a.176.176,0,0,1-.17.181Z" transform="translate(-185.455 -227.227)" fill="#2a153f"/>
            <path id="Trazado_188469" data-name="Trazado 188469" d="M213.031,245.117h-2.682a.175.175,0,0,1-.175-.168l-.609-14.249a.177.177,0,0,1,.168-.183.166.166,0,0,1,.183.168l.6,14.082h2.514a.175.175,0,0,1,0,.35Z" transform="translate(-185.375 -227.32)" fill="#2a153f"/>
            <path id="Trazado_188470" data-name="Trazado 188470" d="M240.46,243.665a6.2,6.2,0,0,1-4.024-1.461c-4.445-3.638-5.168-12.714-5.2-13.1a.175.175,0,0,1,.162-.188.17.17,0,0,1,.188.161c.007.093.741,9.31,5.069,12.853a5.93,5.93,0,0,0,4.653,1.326.181.181,0,0,1,.2.152.175.175,0,0,1-.152.2A7.215,7.215,0,0,1,240.46,243.665Z" transform="translate(-185.987 -227.275)" fill="#2a153f"/>
            <path id="Trazado_188471" data-name="Trazado 188471" d="M184.847,244.182a.175.175,0,0,1-.115-.307c.047-.042,4.67-4.18,3.776-13.918a.175.175,0,0,1,.349-.032c.912,9.931-3.847,14.173-3.9,14.215A.177.177,0,0,1,184.847,244.182Z" transform="translate(-184.672 -227.299)" fill="#2a153f"/>
          </g>
        </g>
      </g>
      <g id="Grupo_177657" data-name="Grupo 177657" transform="translate(9.192 48.22)">
        <path id="Trazado_188472" data-name="Trazado 188472" d="M176.522,198.291a7.708,7.708,0,0,1-7.148-10.571l15.812-39.444a7.7,7.7,0,0,1,14.3,5.732l-15.811,39.444A7.706,7.706,0,0,1,176.522,198.291Z" transform="translate(-166.556 -137.225)" fill="#ffc1b0"/>
        <g id="Grupo_177650" data-name="Grupo 177650">
          <g id="Grupo_177649" data-name="Grupo 177649" transform="translate(16.047 0.021)">
            <path id="Trazado_188473" data-name="Trazado 188473" d="M187.956,170.637c-2.227,17.631-4.325,43.98-4.952,65.43a292.884,292.884,0,0,0,59.831-.8c-1.638-18.616-2.525-44.513-.831-64.8l-8.888-31.07-21.8-2.332-16.731,3.373Z" transform="translate(-183.004 -137.067)" fill="#4d52a8"/>
          </g>
          <path id="Trazado_188474" data-name="Trazado 188474" d="M224.3,138.378l-14.9,43.347-5.442-43.057,8.05-1.623Z" transform="translate(-167.549 -137.045)" fill="#fff"/>
          <path id="Trazado_188475" data-name="Trazado 188475" d="M211.505,142.9l-4.343,1.633,1.81,2.928-1.81,17.291L209.5,181.89,215.13,165.5,213,147.475l2-2.771Z" transform="translate(-167.639 -137.21)" fill="#d35d57"/>
          <path id="Trazado_188476" data-name="Trazado 188476" d="M175.924,183.988l47.067-5.66a4.97,4.97,0,0,1,1.752,9.767l-46.1,11.057a7.716,7.716,0,1,1-2.721-15.163Z" transform="translate(-166.565 -138.21)" fill="#ffc1b0"/>
          <path id="Trazado_188477" data-name="Trazado 188477" d="M205.231,178.488l-20.379,3.328,1-2.825c.64.051,1.291.09,1.959.109l6.415-38.585a17.216,17.216,0,0,0-12.021,10.195l-9.465,22.9.014.014-5.562,13.61a9.448,9.448,0,0,0,.13,7.452h0a9.448,9.448,0,0,0,10.854,5.3l32.318-7.874Z" transform="translate(-166.49 -137.143)" fill="#4d52a8"/>
        </g>
        <path id="Trazado_188478" data-name="Trazado 188478" d="M234.359,200.687a7.712,7.712,0,0,1-7.593-9.052l7.429-41.839a7.7,7.7,0,1,1,15.169,2.694l-7.43,41.839A7.705,7.705,0,0,1,234.359,200.687Z" transform="translate(-168.189 -137.225)" fill="#ffc1b0"/>
        <path id="Trazado_188479" data-name="Trazado 188479" d="M234.352,139.467l6.623.8a11.181,11.181,0,0,1,9.685,12.991l-4.726,27.917c-7.45.228-13.821-3.327-19.175-7.1Z" transform="translate(-168.193 -137.113)" fill="#4d52a8"/>
        <g id="Grupo_177652" data-name="Grupo 177652" transform="translate(12.352 33.246)">
          <path id="Trazado_188480" data-name="Trazado 188480" d="M230.159,200.933,194.166,186.14a4.974,4.974,0,0,1,3.116-9.421L235,186.306a7.723,7.723,0,0,1-3.805,14.969A8.515,8.515,0,0,1,230.159,200.933Z" transform="translate(-179.537 -171.407)" fill="#ffc1b0"/>
          <path id="Trazado_188481" data-name="Trazado 188481" d="M226.5,171.257l-1.991,12.318-13.96-3.831s-5.273,7.241-6.585,12.723l25.389,10.688a9.947,9.947,0,0,0,13.671-7.525l2.866-17.1Z" transform="translate(-179.901 -171.257)" fill="#4d52a8"/>
          <g id="Grupo_177651" data-name="Grupo 177651" transform="translate(0 4.865)">
            <path id="Trazado_188482" data-name="Trazado 188482" d="M196.432,176.6c-3.562-.821-10.892.069-12.057.412s-2.655,1.524-2.175,2.277c0,0-2.039.583-1.628,1.953,0,0-1.952,1.5-1.2,2.54l2.314-.291c3.235,3.8,11.328,4.023,13.7,2.8C198.583,184.656,196.432,176.6,196.432,176.6Z" transform="translate(-179.202 -176.263)" fill="#ffc1b0"/>
          </g>
        </g>
        <g id="Grupo_177653" data-name="Grupo 177653" transform="translate(58.392 15.751)">
          <path id="Trazado_188483" data-name="Trazado 188483" d="M226.755,174.635l-.026,0a.175.175,0,0,1-.148-.2c.018-.124,1.841-12.548,3.558-21.04a.175.175,0,0,1,.344.069c-1.715,8.483-3.537,20.9-3.555,21.022A.175.175,0,0,1,226.755,174.635Z" transform="translate(-226.579 -153.253)" fill="#31184c"/>
          <path id="Trazado_188484" data-name="Trazado 188484" d="M228.286,165.138a.176.176,0,0,1-.171-.141,36.124,36.124,0,0,1-.276-8.27.178.178,0,0,1,.189-.16.175.175,0,0,1,.159.189,35.816,35.816,0,0,0,.271,8.171.174.174,0,0,1-.136.206A.152.152,0,0,1,228.286,165.138Z" transform="translate(-226.611 -153.347)" fill="#31184c"/>
        </g>
        <g id="Grupo_177654" data-name="Grupo 177654" transform="translate(18.362 17.12)">
          <path id="Trazado_188485" data-name="Trazado 188485" d="M186.565,175.828h-.009a.174.174,0,0,1-.165-.184c.007-.144.747-14.46,1.876-20.836a.175.175,0,1,1,.345.061c-1.125,6.355-1.865,20.649-1.873,20.793A.174.174,0,0,1,186.565,175.828Z" transform="translate(-185.414 -154.663)" fill="#31184c"/>
          <path id="Trazado_188486" data-name="Trazado 188486" d="M187.235,165.475a.176.176,0,0,1-.155-.094,18.812,18.812,0,0,1-1.676-8.651.175.175,0,1,1,.349.023,18.45,18.45,0,0,0,1.637,8.465.175.175,0,0,1-.074.236A.171.171,0,0,1,187.235,165.475Z" transform="translate(-185.386 -154.717)" fill="#31184c"/>
        </g>
        <g id="Grupo_177655" data-name="Grupo 177655" transform="translate(53.439 38.623)">
          <path id="Trazado_188487" data-name="Trazado 188487" d="M221.483,178.664s9.748-2.355,11.954-1.784,10.656,5.534,10.161,6.4-7.6-2.641-7.6-2.641,7.447,4.291,6.772,4.99-7.8-3.014-7.8-3.014,6.2,3.458,5.551,4.449-6.839-2.744-6.839-2.744,4.8,3.641,4.15,4.443c-.764.934-6-3.008-6-3.008s-3.493,1.061-7.352-2.478Z" transform="translate(-221.483 -176.79)" fill="#ffc1b0"/>
        </g>
        <g id="Grupo_177656" data-name="Grupo 177656" transform="translate(18.186 51.98)">
          <path id="Trazado_188488" data-name="Trazado 188488" d="M233.47,204.8a9.7,9.7,0,0,1-3.771-.762l-25.807-10.862a.176.176,0,0,1-.1-.215l.729-2.3a.174.174,0,0,1,.22-.115.177.177,0,0,1,.115.221l-.681,2.149,25.66,10.8a9.364,9.364,0,0,0,12.683-6.219.175.175,0,0,1,.338.089,9.717,9.717,0,0,1-9.387,7.214Z" transform="translate(-185.73 -190.535)" fill="#31184c"/>
          <path id="Trazado_188489" data-name="Trazado 188489" d="M185.381,199.907a.176.176,0,0,1-.04-.347l21.616-5.109a.175.175,0,1,1,.08.341l-21.616,5.11A.2.2,0,0,1,185.381,199.907Z" transform="translate(-185.205 -190.646)" fill="#31184c"/>
          <path id="Trazado_188490" data-name="Trazado 188490" d="M209.528,226.127a.174.174,0,0,1-.174-.167c-.008-.163-.739-16.479-1.091-30.974a.174.174,0,0,1,.169-.18h0a.174.174,0,0,1,.175.171c.354,14.491,1.084,30.8,1.091,30.967a.174.174,0,0,1-.167.183Z" transform="translate(-185.856 -190.656)" fill="#31184c"/>
          <path id="Trazado_188491" data-name="Trazado 188491" d="M211.4,201.98a.61.61,0,1,1-.61-.61A.61.61,0,0,1,211.4,201.98Z" transform="translate(-185.911 -190.841)" fill="#31184c"/>
          <circle id="Elipse_4904" data-name="Elipse 4904" cx="0.61" cy="0.61" r="0.61" transform="translate(24.711 20.843)" fill="#31184c"/>
          <path id="Trazado_188492" data-name="Trazado 188492" d="M212.481,223.057a.609.609,0,1,1-.609-.61A.61.61,0,0,1,212.481,223.057Z" transform="translate(-185.941 -191.437)" fill="#31184c"/>
        </g>
      </g>
      <g id="Grupo_177665" data-name="Grupo 177665" transform="translate(34.685)">
        <g id="Grupo_177659" data-name="Grupo 177659" transform="translate(10.454 35.275)">
          <path id="Trazado_188493" data-name="Trazado 188493" d="M220.644,123.724l1.135,16.242s-9.269,4.618-15.407,1.022l.215-12.327Z" transform="translate(-203.563 -123.724)" fill="#ffc1b0"/>
          <g id="Grupo_177658" data-name="Grupo 177658" transform="translate(0 11.881)">
            <path id="Trazado_188494" data-name="Trazado 188494" d="M203.481,138.763l2.884-1.7,5.036,5.669-7.45,3.592Z" transform="translate(-203.481 -135.982)" fill="#cdd7ff"/>
            <path id="Trazado_188495" data-name="Trazado 188495" d="M211.632,142.7l9.991-6.753,3.455,2.453-5.937,9.024Z" transform="translate(-203.712 -135.951)" fill="#cdd7ff"/>
          </g>
          <path id="Trazado_188496" data-name="Trazado 188496" d="M206.449,136.917c8.148-.691,11.012-5.139,11.012-5.139l-10.936.771Z" transform="translate(-203.565 -123.951)" fill="#ad6253"/>
        </g>
        <g id="Grupo_177664" data-name="Grupo 177664">
          <path id="Trazado_188497" data-name="Trazado 188497" d="M232.3,103.853a6.8,6.8,0,0,0-3.662-3.834,10.073,10.073,0,0,0-4.077-.839,6.782,6.782,0,0,0-2.73-4.751,17.4,17.4,0,0,0-5.247-2.548,27.637,27.637,0,0,1-5.413-2.219c-1.326-.8-2.553-1.874-4.073-2.166a4.264,4.264,0,0,0-5.066,4.309,5.807,5.807,0,0,0-7.576,7.1,10.01,10.01,0,0,0,1.6,13.088c4.774,4.331,6.447,11.264,10.818,16a49.532,49.532,0,0,0,14.237-.832,40.334,40.334,0,0,0,9.485-13.933,7.571,7.571,0,0,0,.71-4.375A4.867,4.867,0,0,0,232.3,103.853Z" transform="translate(-192.724 -87.423)" fill="#162a45"/>
          <path id="Trazado_188498" data-name="Trazado 188498" d="M203.908,95.862c15.166-1.881,23.128,5.414,21.844,19.581-1.021,11.277-7.57,18.294-18.232,18.328-9.822.032-11.416-7.984-11.548-16.393C195.783,105.391,194.9,96.978,203.908,95.862Z" transform="translate(-192.813 -87.653)" fill="#ffc1b0"/>
          <path id="Trazado_188499" data-name="Trazado 188499" d="M195,106.613a5.722,5.722,0,0,0,3.871-2.473,12.061,12.061,0,0,0,13.467-1.231,3.556,3.556,0,0,0,4.849,2.311,5.344,5.344,0,0,0,3.986,5.272,8.88,8.88,0,0,0,4.692,7.841c.232-3.464.585-6.992,0-10.414a14.914,14.914,0,0,0-4.724-9.041c-2.976-2.492-7.014-3.245-10.878-3.607-3.588-.336-7.434-.354-10.5,1.531A10.348,10.348,0,0,0,195,106.613Z" transform="translate(-192.786 -87.64)" fill="#162a45"/>
          <g id="Grupo_177662" data-name="Grupo 177662" transform="translate(3.539 22.696)">
            <path id="Trazado_188500" data-name="Trazado 188500" d="M196.366,112.019a23.052,23.052,0,0,1,6.138-.226C201.225,110.024,197.839,110.879,196.366,112.019Z" transform="translate(-196.366 -110.779)" fill="#162a45"/>
            <path id="Trazado_188501" data-name="Trazado 188501" d="M215.1,112.019a23.061,23.061,0,0,0-6.139-.226C210.244,110.024,213.629,110.879,215.1,112.019Z" transform="translate(-196.722 -110.779)" fill="#162a45"/>
            <g id="Grupo_177660" data-name="Grupo 177660" transform="translate(2.738 5.469)">
              <path id="Trazado_188502" data-name="Trazado 188502" d="M201.395,117.769a1.13,1.13,0,1,1-1.106-1.362A1.253,1.253,0,0,1,201.395,117.769Z" transform="translate(-199.184 -116.407)" fill="#162a45"/>
              <path id="Trazado_188503" data-name="Trazado 188503" d="M200.3,117.286a.356.356,0,1,1-.347-.438A.4.4,0,0,1,200.3,117.286Z" transform="translate(-199.196 -116.419)" fill="#fff"/>
            </g>
            <g id="Grupo_177661" data-name="Grupo 177661" transform="translate(13.433 5.469)">
              <path id="Trazado_188504" data-name="Trazado 188504" d="M212.4,117.769a1.129,1.129,0,1,1-1.1-1.362A1.253,1.253,0,0,1,212.4,117.769Z" transform="translate(-210.189 -116.407)" fill="#162a45"/>
              <path id="Trazado_188505" data-name="Trazado 188505" d="M211.306,117.286a.356.356,0,1,1-.347-.438A.4.4,0,0,1,211.306,117.286Z" transform="translate(-210.201 -116.419)" fill="#fff"/>
            </g>
            <path id="Trazado_188506" data-name="Trazado 188506" d="M204.58,122.849a.376.376,0,0,1-.065-.006,1.825,1.825,0,0,1-1.329-.782,1.266,1.266,0,0,1-.036-1.1,7.568,7.568,0,0,1,.57-1.058,7.573,7.573,0,0,0,.532-.978.35.35,0,1,1,.656.244,7.681,7.681,0,0,1-.587,1.094,7.63,7.63,0,0,0-.517.946.591.591,0,0,0-.007.512,1.2,1.2,0,0,0,.847.437.35.35,0,0,1-.064.695Z" transform="translate(-196.555 -111.003)" fill="#ad6253"/>
            <path id="Trazado_188507" data-name="Trazado 188507" d="M201.882,124.776a38.608,38.608,0,0,0,7.6-.275C208.128,127.525,202.72,126.995,201.882,124.776Z" transform="translate(-196.522 -111.167)" fill="#fff"/>
          </g>
          <g id="Grupo_177663" data-name="Grupo 177663" transform="translate(30.01 26.702)">
            <path id="Trazado_188508" data-name="Trazado 188508" d="M224.014,118.087c-.9,2.222-.253,4.365,1.357,5.017s3.641-.622,4.54-2.844.324-4.551-1.285-5.2S224.913,115.866,224.014,118.087Z" transform="translate(-223.606 -114.901)" fill="#ffc1b0"/>
            <path id="Trazado_188509" data-name="Trazado 188509" d="M225.613,120.992a.35.35,0,0,1-.118-.679,1.124,1.124,0,0,0,.775-.91,1.338,1.338,0,0,0-.131-.541,2.212,2.212,0,0,1-.175-.668,1.744,1.744,0,0,1,.486-1.294,1.726,1.726,0,0,1,1.488-.574,1.654,1.654,0,0,1,1.285,1.7.35.35,0,1,1-.7,0,.975.975,0,0,0-.7-1.008,1.072,1.072,0,0,0-.873.368,1.034,1.034,0,0,0-.291.765,1.626,1.626,0,0,0,.13.46,1.979,1.979,0,0,1,.177.83,1.81,1.81,0,0,1-1.24,1.531A.333.333,0,0,1,225.613,120.992Z" transform="translate(-223.653 -114.941)" fill="#ad6253"/>
          </g>
        </g>
      </g>
    </g>
    <g id="Grupo_177677" data-name="Grupo 177677" transform="translate(245.423 263.807)">
      <g id="Grupo_177671" data-name="Grupo 177671" transform="translate(57.065 52.805)">
        <g id="Grupo_177668" data-name="Grupo 177668" transform="translate(0 65.12)">
          <rect id="Rectángulo_45979" data-name="Rectángulo 45979" width="74.984" height="15.957" fill="#ffb552"/>
          <g id="Grupo_177667" data-name="Grupo 177667" transform="translate(6.359 1.247)">
            <rect id="Rectángulo_45980" data-name="Rectángulo 45980" width="1.777" height="13.464" fill="#f78721"/>
            <rect id="Rectángulo_45981" data-name="Rectángulo 45981" width="1.777" height="13.464" transform="translate(8.641)" fill="#f78721"/>
            <rect id="Rectángulo_45982" data-name="Rectángulo 45982" width="1.777" height="13.464" transform="translate(17.282)" fill="#f78721"/>
            <rect id="Rectángulo_45983" data-name="Rectángulo 45983" width="1.777" height="13.464" transform="translate(25.924)" fill="#f78721"/>
            <rect id="Rectángulo_45984" data-name="Rectángulo 45984" width="1.777" height="13.464" transform="translate(34.565)" fill="#f78721"/>
            <rect id="Rectángulo_45985" data-name="Rectángulo 45985" width="1.777" height="13.464" transform="translate(43.206)" fill="#f78721"/>
            <rect id="Rectángulo_45986" data-name="Rectángulo 45986" width="1.777" height="13.464" transform="translate(51.847)" fill="#f78721"/>
            <rect id="Rectángulo_45987" data-name="Rectángulo 45987" width="1.777" height="13.464" transform="translate(60.489)" fill="#f78721"/>
          </g>
          <ellipse id="Elipse_4905" data-name="Elipse 4905" cx="15.479" cy="3.59" rx="15.479" ry="3.59" transform="translate(4.93 1.247)" fill="#fff" opacity="0.5" style="mix-blend-mode: soft-light;isolation: isolate"/>
        </g>
        <g id="Grupo_177670" data-name="Grupo 177670" transform="translate(28.381 0)">
          <circle id="Elipse_4906" data-name="Elipse 4906" cx="37.7" cy="37.7" r="37.7" transform="translate(0 74.376) rotate(-80.549)" fill="#ffcc04"/>
          <circle id="Elipse_4907" data-name="Elipse 4907" cx="37.7" cy="37.7" r="37.7" transform="translate(4.952 74.636) rotate(-80.894)" fill="#fed947"/>
          <circle id="Elipse_4908" data-name="Elipse 4908" cx="29.343" cy="29.343" r="29.343" transform="translate(9.683 27.796) rotate(-22.944)" fill="#ffe891"/>
          <g id="Grupo_177669" data-name="Grupo 177669" transform="translate(37.092 26.289)">
            <path id="Trazado_188510" data-name="Trazado 188510" d="M397.121,378.671a10.725,10.725,0,0,1-6.346,2.573l-.149,4.017-4.343-.161.143-3.872a22.691,22.691,0,0,1-5.1-1.113,14.822,14.822,0,0,1-3.95-1.977l2.548-5.2A15.233,15.233,0,0,0,383.8,374.9a15.032,15.032,0,0,0,4.389.85q4.126.153,4.2-1.909a1.708,1.708,0,0,0-1.117-1.654,21.777,21.777,0,0,0-3.741-1.244,36.13,36.13,0,0,1-4.728-1.5,8.045,8.045,0,0,1-3.21-2.385,6.115,6.115,0,0,1-1.22-4.249,7.254,7.254,0,0,1,2.442-5.255,10.722,10.722,0,0,1,6.579-2.493l.147-3.98,4.344.16-.145,3.908a21.119,21.119,0,0,1,3.936.871,14.622,14.622,0,0,1,3.331,1.537l-2.4,5.238a14.752,14.752,0,0,0-6.949-2.214,5.889,5.889,0,0,0-3.136.518,1.9,1.9,0,0,0-1.038,1.61,1.634,1.634,0,0,0,1.1,1.564,21.086,21.086,0,0,0,3.689,1.186,34.717,34.717,0,0,1,4.746,1.5,8.28,8.28,0,0,1,3.21,2.364,6,6,0,0,1,1.24,4.232A7.166,7.166,0,0,1,397.121,378.671Z" transform="translate(-377.372 -351.082)" fill="#fed947"/>
          </g>
          <ellipse id="Elipse_4909" data-name="Elipse 4909" cx="15.226" cy="8.178" rx="15.226" ry="8.178" transform="matrix(0.815, -0.58, 0.58, 0.815, 20.994, 29.834)" fill="#fff" opacity="0.5" style="mix-blend-mode: soft-light;isolation: isolate"/>
        </g>
      </g>
      <g id="Grupo_177676" data-name="Grupo 177676" transform="translate(0 0)">
        <g id="Grupo_177672" data-name="Grupo 177672" transform="translate(0 15.412)">
          <path id="Trazado_188511" data-name="Trazado 188511" d="M291.853,353.217c-2.049-2.676-2-8.82-1.106-12.07s2.107-6.662,1.181-9.9c-.848-2.971-3.33-5.159-5.822-6.986s-5.188-3.55-6.846-6.157c-2.165-3.4-2.182-7.687-2.35-11.717s-.714-8.408-3.564-11.263c-2.213-2.215-5.391-3.077-8.342-4.126s-6.041-2.592-7.331-5.445c1.732,3.811-.41,8.3-2.487,11.94s-4.483,7.563-3.8,11.692c.679,4.08,4.177,7.025,7.538,9.435s7.036,4.936,8.411,8.835c1.109,3.143.5,6.591.082,9.9s-.573,6.915,1.257,9.7c2.192,3.334,6.57,4.462,10.559,4.552A67.628,67.628,0,0,1,291.853,353.217Z" transform="translate(-251.272 -285.549)" fill="#5fc5a9"/>
          <path id="Trazado_188512" data-name="Trazado 188512" d="M260.309,293.46a484.107,484.107,0,0,0,41.266,74.567" transform="translate(-251.527 -285.772)" fill="none" stroke="#162a45" stroke-linecap="round" stroke-linejoin="round" stroke-width="0.44"/>
        </g>
        <g id="Grupo_177673" data-name="Grupo 177673" transform="translate(47.526 27.503)">
          <path id="Trazado_188513" data-name="Trazado 188513" d="M303.22,352.444c.942-2.549.567-5.392-.119-8.022s-1.67-5.2-1.933-7.907.328-5.67,2.33-7.507,4.971-2.21,7.029-3.959c2.7-2.3,3.12-6.254,3.275-9.8s.4-7.469,2.923-9.963c1.7-1.676,4.106-2.357,6.349-3.171s4.586-1.977,5.628-4.124c1.467,2.666,2.523,5.581,3.989,8.247a21.374,21.374,0,0,1,2.018,4.438,7.175,7.175,0,0,1-.151,4.787c-1.257,2.864-4.812,4.246-5.912,7.173-1.283,3.414,1.339,7.047,1.368,10.694.032,3.912-2.988,7.278-6.453,9.1s-7.4,2.471-11.143,3.608S305.286,349.123,303.22,352.444Z" transform="translate(-300.205 -297.991)" fill="#5fc5a9"/>
          <path id="Trazado_188514" data-name="Trazado 188514" d="M327.368,303.106c-2.42,11.261-8.718,21.233-14.6,31.134s-11.586,20.378-12.587,31.852" transform="translate(-300.179 -298.135)" fill="none" stroke="#162a45" stroke-linecap="round" stroke-linejoin="round" stroke-width="0.44"/>
        </g>
        <g id="Grupo_177674" data-name="Grupo 177674" transform="translate(29.364)">
          <path id="Trazado_188515" data-name="Trazado 188515" d="M296.654,348.853c-1.024-3.685-4.41-6.132-7.554-8.31s-6.5-4.708-7.383-8.429c-.862-3.616.87-7.314,2.792-10.5s4.151-6.408,4.41-10.116c.5-7.136-6.436-13.363-5.485-20.453.55-4.094,3.605-7.324,6.336-10.424s5.427-6.827,5.008-10.937c-.11,3.516,2.194,6.713,4.743,9.136s5.566,4.329,8,6.871,4.279,6.015,3.665,9.478c-.648,3.659-3.836,6.4-4.824,9.98-1.769,6.416,3.962,12.816,3.221,19.429-.357,3.184-2.189,6.012-4.259,8.457s-4.435,4.661-6.194,7.338S295.857,345.75,296.654,348.853Z" transform="translate(-281.489 -269.689)" fill="#33896e"/>
          <path id="Trazado_188516" data-name="Trazado 188516" d="M295.68,279.261l.166,35.805c.077,16.65.167,33.429,3.523,49.737" transform="translate(-281.89 -269.959)" fill="none" stroke="#162a45" stroke-linecap="round" stroke-linejoin="round" stroke-width="0.44"/>
        </g>
        <g id="Grupo_177675" data-name="Grupo 177675" transform="translate(26.42 89.231)">
          <path id="Trazado_188517" data-name="Trazado 188517" d="M310.7,406.335H283.641L280.368,367.5h33.6Z" transform="translate(-278.514 -361.683)" fill="#4d52a8"/>
          <rect id="Rectángulo_45988" data-name="Rectángulo 45988" width="37.31" height="9.228" fill="#fc5f65"/>
        </g>
        <ellipse id="Elipse_4910" data-name="Elipse 4910" cx="5.127" cy="9.273" rx="5.127" ry="9.273" transform="translate(31.22 101.809)" fill="#fff" opacity="0.5" style="mix-blend-mode: soft-light;isolation: isolate"/>
      </g>
    </g>
  </g>
</svg>
