<svg xmlns="http://www.w3.org/2000/svg" width="89.259" height="102.926" viewBox="0 0 89.259 102.926">
  <g id="Grupo_176440" data-name="Grupo 176440" transform="translate(-501.14 -34.31)">
    <rect id="Rectángulo_45884" data-name="Rectángulo 45884" width="89.259" height="89.259" rx="29.342" transform="translate(501.14 43.857)" fill="#9976ae"/>
    <g id="Grupo_176439" data-name="Grupo 176439" transform="translate(508.788 34.31)">
      <path id="Trazado_186901" data-name="Trazado 186901" d="M552.9,190.49h36.981c0-34.781-27.585-16.016-27.585-44.992H543.365c0,28.976-27.449,10.211-27.449,44.992Z" transform="translate(-515.916 -87.947)" fill="#e4ae7c" fill-rule="evenodd"/>
      <path id="Trazado_186902" data-name="Trazado 186902" d="M542.87,110.486c-.089-.982-4.108-2.143-5.446,1.071s1.071,7.768,5.625,8.125,3.215-.447,3.215-.447Z" transform="translate(-526.113 -70.557)" fill="#e4ae7c" fill-rule="evenodd"/>
      <path id="Trazado_186903" data-name="Trazado 186903" d="M623.291,110.486c.089-.982,4.107-2.143,5.446,1.071s-1.071,7.768-5.625,8.125-3.214-.447-3.214-.447Z" transform="translate(-565.988 -70.557)" fill="#e4ae7c" fill-rule="evenodd"/>
      <path id="Trazado_186904" data-name="Trazado 186904" d="M588.012,143.926s-.05,1.348-.018,3.305c-3.319,8.339-15.529,8.647-19.069.379.046-2.16-.011-3.684-.011-3.684Z" transform="translate(-541.482 -87.189)" fill="#d67f54" fill-rule="evenodd"/>
      <path id="Trazado_186905" data-name="Trazado 186905" d="M566.415,100.728c-23.692.569-35.654-57.856,0-56.359C602.069,42.872,590.108,101.3,566.415,100.728Z" transform="translate(-529.434 -39.149)" fill="#e4ae7c" fill-rule="evenodd"/>
      <path id="Trazado_186906" data-name="Trazado 186906" d="M565.524,101.01a.64.64,0,1,1-1.274.126,2.766,2.766,0,1,1,5.512-.083.641.641,0,0,1-1.28-.085,1.49,1.49,0,0,0-.136-.735,1.485,1.485,0,0,0-2.822.778Z" transform="translate(-539.225 -65.083)" fill="#39271f" fill-rule="evenodd"/>
      <path id="Trazado_186907" data-name="Trazado 186907" d="M562.189,112.933c1.209.929,1.262,2.288.117,3.037a3.96,3.96,0,0,1-4.261-.326c-1.209-.929-1.262-2.287-.118-3.037A3.962,3.962,0,0,1,562.189,112.933Z" transform="translate(-535.784 -71.85)" fill="#da9077" fill-rule="evenodd"/>
      <path id="Trazado_186908" data-name="Trazado 186908" d="M607.175,112.933c-1.21.929-1.263,2.288-.119,3.037a3.961,3.961,0,0,0,4.261-.326c1.209-.929,1.262-2.287.117-3.037A3.96,3.96,0,0,0,607.175,112.933Z" transform="translate(-559.484 -71.85)" fill="#da9077" fill-rule="evenodd"/>
      <path id="Trazado_186909" data-name="Trazado 186909" d="M567.242,87.227c-.079-.034-.158-.067-.239-.1a6.124,6.124,0,0,0-2.711-.352,6.016,6.016,0,0,0-2.532.794c-.383.247-1.878,1.458-1.454,1.9a22.3,22.3,0,0,0,2.1-.856,5.947,5.947,0,0,1,1.954-.263,5.258,5.258,0,0,1,1.792.365c.017,0,.127.053.151.063,1.25.608,1.137,1,1.989.414C569.6,88.5,568.254,87.753,567.242,87.227Z" transform="translate(-537.294 -59.609)" fill="#3f2716" fill-rule="evenodd"/>
      <path id="Trazado_186910" data-name="Trazado 186910" d="M599.465,87.227c.079-.034.158-.067.239-.1a6.124,6.124,0,0,1,2.711-.352,6.012,6.012,0,0,1,2.532.794c.383.247,1.879,1.458,1.455,1.9a22.292,22.292,0,0,1-2.1-.856,5.954,5.954,0,0,0-1.954-.263,5.252,5.252,0,0,0-1.791.365c-.017,0-.127.053-.151.063-1.25.608-1.137,1-1.989.414C597.1,88.5,598.454,87.753,599.465,87.227Z" transform="translate(-555.452 -59.609)" fill="#3f2716" fill-rule="evenodd"/>
      <path id="Trazado_186911" data-name="Trazado 186911" d="M575.49,123.222q3.276-.041,6.534-.041t6.534.041c0,3.426-3.378,4.65-6.522,4.65h-.023C578.869,127.871,575.49,126.648,575.49,123.222Z" transform="translate(-544.655 -77.182)" fill="#fff" fill-rule="evenodd"/>
      <path id="Trazado_186912" data-name="Trazado 186912" d="M585.094,135.742a.256.256,0,0,1,.259-.442,2.519,2.519,0,0,0,1.254.311,2.407,2.407,0,0,0,1.23-.309.256.256,0,0,1,.264.438,2.923,2.923,0,0,1-1.495.385A3.041,3.041,0,0,1,585.094,135.742Z" transform="translate(-549.227 -83.011)" fill="#d67f54" fill-rule="evenodd"/>
      <path id="Trazado_186913" data-name="Trazado 186913" d="M586.75,107.954a.257.257,0,1,1,0-.514,12.532,12.532,0,0,0,1.922-.1c.467-.079.811-.206.811-.419,0-.739-.748-5.333-.75-5.346a.256.256,0,0,1,.506-.08c0,.013.759,4.655.759,5.426,0,.541-.526.8-1.242.925A12.826,12.826,0,0,1,586.75,107.954Z" transform="translate(-549.962 -66.615)" fill="#d67f54" fill-rule="evenodd"/>
      <path id="Trazado_186914" data-name="Trazado 186914" d="M629.83,116.293a.257.257,0,1,1-.514,0,2.5,2.5,0,0,0-.351-1.537.612.612,0,0,0-.478-.239,1.4,1.4,0,0,0-.7.215,4.613,4.613,0,0,0-1.757,2.074,9.722,9.722,0,0,0-.438,1.192,1.822,1.822,0,0,1,1.2-.347,1.139,1.139,0,0,1,.554.2.905.905,0,0,1,.345.484,1.684,1.684,0,0,1-.354,1.39.256.256,0,0,1-.426-.285,1.22,1.22,0,0,0,.289-.959.407.407,0,0,0-.153-.215.632.632,0,0,0-.3-.105,1.409,1.409,0,0,0-1.1.461.555.555,0,0,1-.261.164.281.281,0,0,1-.371-.248l0-.014a.885.885,0,0,1,.007-.3,8.044,8.044,0,0,1,.544-1.622,5.168,5.168,0,0,1,1.974-2.315,1.907,1.907,0,0,1,.963-.282,1.107,1.107,0,0,1,.865.427A2.942,2.942,0,0,1,629.83,116.293Z" transform="translate(-568.538 -72.755)" fill="#d67f54" fill-rule="evenodd"/>
      <path id="Trazado_186915" data-name="Trazado 186915" d="M540.908,116.293a.257.257,0,1,1-.514,0,2.943,2.943,0,0,1,.468-1.86,1.107,1.107,0,0,1,.865-.427,1.908,1.908,0,0,1,.962.282,5.164,5.164,0,0,1,1.974,2.315,8.012,8.012,0,0,1,.544,1.622.9.9,0,0,1,.008.3l0,.014a.281.281,0,0,1-.371.248.553.553,0,0,1-.261-.164,1.409,1.409,0,0,0-1.1-.461.634.634,0,0,0-.3.105.4.4,0,0,0-.153.215,1.217,1.217,0,0,0,.288.959.256.256,0,0,1-.425.285,1.683,1.683,0,0,1-.355-1.39.912.912,0,0,1,.345-.484,1.139,1.139,0,0,1,.553-.2,1.824,1.824,0,0,1,1.2.347,9.711,9.711,0,0,0-.438-1.192,4.619,4.619,0,0,0-1.757-2.074,1.409,1.409,0,0,0-.7-.215.612.612,0,0,0-.478.239A2.491,2.491,0,0,0,540.908,116.293Z" transform="translate(-527.724 -72.755)" fill="#d67f54" fill-rule="evenodd"/>
      <path id="Trazado_186916" data-name="Trazado 186916" d="M601.347,101.01a.64.64,0,1,1-1.274.126,2.739,2.739,0,0,1,.08-.992,2.767,2.767,0,0,1,5.432.908.641.641,0,0,1-1.279-.085,1.491,1.491,0,0,0-.136-.735,1.487,1.487,0,0,0-2.778.243A1.493,1.493,0,0,0,601.347,101.01Z" transform="translate(-556.506 -65.083)" fill="#39271f" fill-rule="evenodd"/>
      <path id="Trazado_186917" data-name="Trazado 186917" d="M615.784,52.958c-4.285-1.847-5.137-3.942-6.291-6.36-2.251-4.719-1.072-9.909,3.3-11.566,8.477-3.211,15.578,4.948,14.472,11.537C626.483,51.229,621.391,55.376,615.784,52.958Z" transform="translate(-560.519 -34.31)" fill="#2e1e11" fill-rule="evenodd"/>
      <path id="Trazado_186918" data-name="Trazado 186918" d="M541.433,52.958c4.285-1.847,5.138-3.942,6.292-6.36,2.251-4.719,1.073-9.909-3.3-11.566-8.477-3.211-15.578,4.948-14.472,11.537C530.734,51.229,535.825,55.376,541.433,52.958Z" transform="translate(-522.632 -34.31)" fill="#2e1e11" fill-rule="evenodd"/>
      <path id="Trazado_186919" data-name="Trazado 186919" d="M545.847,82.913c.936-.958-.742-5.782.555-12.459s17.06-14.765,19.634-18.409c2.573,3.644,18.336,11.733,19.633,18.409s.57,8.238,1.507,9.2c.718.735,10.027-37.206-21.14-36.934C532.357,42.718,545.745,83.017,545.847,82.913Z" transform="translate(-529.047 -38.365)" fill="#4e3832" fill-rule="evenodd"/>
      <path id="Trazado_186920" data-name="Trazado 186920" d="M567.216,59.36c1.031,6.262-11.845,9.643-14.474,26.354-2.347,14.915,1.809,29.688,1.809,29.688.2.825-.754.419-1.649-1.448-1.358-2.828-9.459-18.089-6.559-32.035S560.385,61.559,567.216,59.36Z" transform="translate(-530.294 -46.394)" fill="#f1d3a4" fill-rule="evenodd"/>
      <path id="Trazado_186921" data-name="Trazado 186921" d="M587.422,59.36C586.391,65.622,599.267,69,601.9,85.714c2.347,14.915-1.809,29.688-1.809,29.688-.2.825.753.419,1.65-1.448,1.357-2.828,9.458-18.089,6.558-32.035S594.254,61.559,587.422,59.36Z" transform="translate(-550.382 -46.394)" fill="#f1d3a4" fill-rule="evenodd"/>
      <path id="Trazado_186922" data-name="Trazado 186922" d="M586.733,158.93c-5.311,3.515-15.2,3.861-20.281-.138a18.657,18.657,0,0,1-1.31,3.952c6.342,4.016,16.435,3.756,22.9.055A18.458,18.458,0,0,1,586.733,158.93Z" transform="translate(-539.663 -94.36)" fill="#35253d" fill-rule="evenodd"/>
      <path id="Trazado_186923" data-name="Trazado 186923" d="M515.916,211.135h73.962c0-13.9-4.406-19.245-9.7-22.506-14.912,18.075-39.269,17.963-54.065-.334C520.611,191.527,515.916,196.751,515.916,211.135Z" transform="translate(-515.916 -108.593)" fill="#35253d" fill-rule="evenodd"/>
      <path id="Trazado_186924" data-name="Trazado 186924" d="M535.513,211.522a.384.384,0,1,1,.768.006l-.095,10.631a.384.384,0,1,1-.768-.006Z" transform="translate(-525.324 -119.614)" fill="#23142b" fill-rule="evenodd"/>
      <path id="Trazado_186925" data-name="Trazado 186925" d="M637.738,211.522a.384.384,0,0,1,.768.006l-.095,10.631a.384.384,0,0,1-.768-.006Z" transform="translate(-574.638 -119.614)" fill="#23142b" fill-rule="evenodd"/>
      <path id="Trazado_186926" data-name="Trazado 186926" d="M555.861,113.16a.256.256,0,0,1-.462.223,39.262,39.262,0,0,1-2.852-26.047A33.625,33.625,0,0,1,566.54,66.89a.256.256,0,0,1,.283.428,33.111,33.111,0,0,0-13.778,20.137A38.747,38.747,0,0,0,555.861,113.16Z" transform="translate(-533.082 -50.006)" fill="#ddba8a" fill-rule="evenodd"/>
      <path id="Trazado_186927" data-name="Trazado 186927" d="M604.939,113.382a.256.256,0,0,1-.461-.223,38.744,38.744,0,0,0,2.816-25.706,33.113,33.113,0,0,0-13.778-20.137.256.256,0,0,1,.283-.428,33.622,33.622,0,0,1,13.993,20.445A39.259,39.259,0,0,1,604.939,113.382Z" transform="translate(-553.295 -50.006)" fill="#ddba8a" fill-rule="evenodd"/>
    </g>
  </g>
</svg>
