<svg xmlns="http://www.w3.org/2000/svg" xmlns:xlink="http://www.w3.org/1999/xlink" width="715" height="164.896" viewBox="0 0 715 164.896">
  <defs>
    <clipPath id="clip-path">
      <path id="Trazado_165200" data-name="Trazado 165200" d="M0,0H715V164.2H0Z" fill="#ffbfc1"/>
    </clipPath>
  </defs>
  <g id="Grupo_167788" data-name="Grupo 167788" transform="translate(-541 -4520)">
    <path id="Trazado_156666" data-name="Trazado 156666" d="M0,0H715V164.9H0Z" transform="translate(541 4520)" fill="#c4d1ff"/>
    <g id="Enmascarar_grupo_245" data-name="Enmascarar grupo 245" transform="translate(541 4520)" clip-path="url(#clip-path)">
      <g id="Grupo_165968" data-name="Grupo 165968" transform="translate(27.609 12.785)" opacity="0.58">
        <g id="Grupo_165967" data-name="Grupo 165967" transform="translate(0 0)">
          <path id="Trazado_153264" data-name="Trazado 153264" d="M253.5,156.041s1.935,11.881-1.191,15.008c-5.965,5.969-24.285,8.746-14.621,34.272H321.98s4.172-10.163-5.245-16.072c0,0-3.278-2.289-1.267-9.181s-3-11.79-9.147-19.15l-12.091-19.65Z" transform="translate(-42.081 -88.028)" fill="#f46eab"/>
          <path id="Trazado_153265" data-name="Trazado 153265" d="M257.405,151.13c0,15.178,12.892,27.481,28.795,27.481s28.795-12.3,28.795-27.481S302.1,123.649,286.2,123.649s-28.795,12.3-28.795,27.481" transform="translate(-46.108 -84.872)" fill="#f46eab"/>
          <path id="Trazado_153266" data-name="Trazado 153266" d="M315.207,170.226a7.451,7.451,0,1,0,4.97-9.292,7.451,7.451,0,0,0-4.97,9.292" transform="translate(-56.404 -91.492)" fill="#f29b5f"/>
          <path id="Trazado_153267" data-name="Trazado 153267" d="M299.3,187.075l-.718,33.039-23.933-1.338,4.884-48.626Z" transform="translate(-49.197 -93.201)" fill="#ffaf78"/>
          <path id="Trazado_153268" data-name="Trazado 153268" d="M301.9,200.19s-10.675-1.1-11.135-13.253l11.328,5.994Z" transform="translate(-52.084 -96.208)" fill="#2f1a2a"/>
          <path id="Trazado_153269" data-name="Trazado 153269" d="M313.361,135.959a10.883,10.883,0,0,1,3.558,6.223c1.426,7.128,4.225,19.688,1.7,27.256-3.281,9.84-11.272,16.818-24.185,14.363,0,0-15.475-1.562-18.658-21.162-5.071-31.229,21.489-40.282,37.584-26.679" transform="translate(-49.285 -85.977)" fill="#ffaf78"/>
          <path id="Trazado_153270" data-name="Trazado 153270" d="M322.7,162.849a1.7,1.7,0,1,0,1.216-2.083,1.706,1.706,0,0,0-1.216,2.083" transform="translate(-57.795 -91.51)" fill="#2f1a2a"/>
          <path id="Trazado_153271" data-name="Trazado 153271" d="M305.151,163.2a1.7,1.7,0,1,0,1.216-2.083,1.706,1.706,0,0,0-1.216,2.083" transform="translate(-54.65 -91.573)" fill="#2f1a2a"/>
          <path id="Trazado_153272" data-name="Trazado 153272" d="M318.43,168.3l1.189,3.239a.779.779,0,0,1-.558.919l-1.839.34" transform="translate(-56.823 -92.87)" fill="none" stroke="#2f1a2a" stroke-linecap="round" stroke-linejoin="round" stroke-width="0.893"/>
          <path id="Trazado_153273" data-name="Trazado 153273" d="M302.291,146.96s5.286-.936,5.568,1.495c0,0,.149,1.649-4.472,2.365s-6.47.6-7.04-.917,3.444-2.719,5.944-2.943" transform="translate(-53.074 -89.015)" fill="#2f1a2a"/>
          <path id="Trazado_153274" data-name="Trazado 153274" d="M325.927,147.055s-4.605-1-5.266,1.322c0,0-.416,1.591,3.632,2.358,2.948.558,4.046.051,4.346-1.015.355-1.264-.97-2.431-2.711-2.665" transform="translate(-57.437 -89.025)" fill="#2f1a2a"/>
          <path id="Trazado_153275" data-name="Trazado 153275" d="M318.943,176.981l-13.077.149a6,6,0,0,0,6.325,5.65c6.019,0,6.752-5.8,6.752-5.8" transform="translate(-54.788 -94.424)" fill="#221914"/>
          <path id="Trazado_153276" data-name="Trazado 153276" d="M305.191,187.044a4.607,4.607,0,1,0,2.265-6.109,4.607,4.607,0,0,0-2.265,6.109" transform="translate(-54.592 -95.058)" fill="#e275c2"/>
          <path id="Trazado_153277" data-name="Trazado 153277" d="M319.634,178.455l-14.843-.022v-2.509l14.843-.544Z" transform="translate(-54.596 -94.137)" fill="#fff"/>
          <path id="Trazado_153278" data-name="Trazado 153278" d="M305.867,177.129a6,6,0,0,0,6.324,5.651c6.019,0,6.753-5.8,6.753-5.8Z" transform="translate(-54.789 -94.424)" fill="none"/>
          <path id="Trazado_153279" data-name="Trazado 153279" d="M310.781,160.724a9.051,9.051,0,1,1-8.942-9.351,9.151,9.151,0,0,1,8.942,9.351" transform="translate(-52.427 -89.837)" fill="#fff"/>
          <rect id="Rectángulo_41170" data-name="Rectángulo 41170" width="18.099" height="18.495" transform="translate(240.256 61.536)" fill="none"/>
          <path id="Trazado_153280" data-name="Trazado 153280" d="M335.989,161.009c-.057,4.9-3.574,8.84-7.857,8.791s-7.709-4.065-7.652-8.97,3.574-8.839,7.857-8.79,7.709,4.065,7.652,8.969" transform="translate(-57.406 -89.957)" fill="#fff"/>
          <rect id="Rectángulo_41171" data-name="Rectángulo 41171" width="15.51" height="17.76" transform="translate(263.073 62.082)" fill="none"/>
          <path id="Trazado_153281" data-name="Trazado 153281" d="M310.781,160.724a9.051,9.051,0,1,1-8.942-9.351A9.151,9.151,0,0,1,310.781,160.724Z" transform="translate(-52.427 -89.837)" fill="none" stroke="#fff" stroke-linecap="round" stroke-linejoin="round" stroke-width="1.261"/>
          <path id="Trazado_153282" data-name="Trazado 153282" d="M335.989,161.009c-.057,4.9-3.574,8.84-7.857,8.791s-7.709-4.065-7.652-8.97,3.574-8.839,7.857-8.79S336.045,156.1,335.989,161.009Z" transform="translate(-57.406 -89.957)" fill="none" stroke="#fff" stroke-linecap="round" stroke-linejoin="round" stroke-width="1.261"/>
          <path id="Trazado_153283" data-name="Trazado 153283" d="M314.73,162.542a3.249,3.249,0,0,1,4.72-.014" transform="translate(-56.376 -91.656)" fill="none" stroke="#fff" stroke-linecap="round" stroke-linejoin="round" stroke-width="1.261"/>
          <line id="Línea_477" data-name="Línea 477" x1="8.087" y2="3.076" transform="translate(232.17 70.679)" fill="none" stroke="#fff" stroke-linecap="round" stroke-linejoin="round" stroke-width="1.261"/>
          <path id="Trazado_153284" data-name="Trazado 153284" d="M277.359,157.652c1.23.515,23.78-13.055,12.339-27.824,0,0-17.153,4.026-16.165,27.812Z" transform="translate(-48.989 -85.978)" fill="#f46eab"/>
          <path id="Trazado_153285" data-name="Trazado 153285" d="M293.51,134.15s15.178-3.7,24.011,3.864c0,0-4.28-13.666-25.154-14.364l-7.856,17.476Z" transform="translate(-50.963 -84.872)" fill="#f46eab"/>
          <path id="Trazado_153286" data-name="Trazado 153286" d="M251.608,121.125a11.568,11.568,0,1,0,11.568-11.568,11.568,11.568,0,0,0-11.568,11.568" transform="translate(-45.069 -82.347)" fill="#f46eab"/>
          <path id="Trazado_153287" data-name="Trazado 153287" d="M282.47,154.263,281,169.856l-5.378-14.274Z" transform="translate(-49.371 -90.355)" fill="#f46eab"/>
          <path id="Trazado_153288" data-name="Trazado 153288" d="M262.321,172.613a9.042,9.042,0,1,0,6.031-11.276,9.043,9.043,0,0,0-6.031,11.276" transform="translate(-46.918 -91.552)" fill="#ffaf78"/>
          <path id="Trazado_153289" data-name="Trazado 153289" d="M267.979,168.7s6.629-1.9,8.393,5.391" transform="translate(-48.002 -92.9)" fill="none" stroke="#2f1a2a" stroke-linecap="round" stroke-linejoin="round" stroke-width="0.893"/>
          <path id="Trazado_153290" data-name="Trazado 153290" d="M326.857,236.087s12.921,7.66,12.921,27.559V320.69a14.442,14.442,0,0,1-28.884.1l-.51-75.155Z" transform="translate(-55.597 -105.012)" fill="#a8527e"/>
          <path id="Trazado_153291" data-name="Trazado 153291" d="M373.8,294.1l6.2,8.029-47.531,42.287a11.689,11.689,0,1,1-12.024-19.937Z" transform="translate(-56.22 -115.403)" fill="#ffaf78"/>
          <path id="Trazado_153292" data-name="Trazado 153292" d="M386.883,290.322l3.384-5.875a22.575,22.575,0,0,1,7.188-7.614l5.21-3.414a2.392,2.392,0,0,1,3.5,1.04,3.065,3.065,0,0,1-.616,3.373l-4.626,4.724,24.889-7.13a1.853,1.853,0,0,1,2.373,1.451l.129.738a1.854,1.854,0,0,1-1.151,2.045l-14.607,4.685,17.522-3.06a1.852,1.852,0,0,1,2.272,1.593l.062.548a1.852,1.852,0,0,1-1.409,2.01l-18.137,3.724,15.039-.3a1.853,1.853,0,0,1,1.906,2.17l-.041.235a1.853,1.853,0,0,1-1.587,1.519L412.53,294.8l9.611,0a1.853,1.853,0,0,1,.171,3.7l-35,3.24Z" transform="translate(-69.301 -111.629)" fill="#ffaf78"/>
          <path id="Trazado_153293" data-name="Trazado 153293" d="M253.74,225.477s-23.6,5.13-32.642,27.111-2.763,97.526-2.763,97.526,44.9,21.119,84.083-2.678l7.571-113.607s-8.763-6.3-15.908-10.345Z" transform="translate(-38.729 -102.755)" fill="#a8527e"/>
          <path id="Trazado_153294" data-name="Trazado 153294" d="M280.019,217.361s-6.613,1.478-18.089,7.018c0,0,17.158,13.332,30.721,29.368,0,0,10.55-10.839,9.619-31.36l-13.4-5.027Z" transform="translate(-46.918 -101.658)" fill="#ffaf78"/>
          <line id="Línea_478" data-name="Línea 478" x1="3.256" y2="48.859" transform="translate(266.227 157.736)" fill="none" stroke="#873964" stroke-linecap="round" stroke-linejoin="round" stroke-width="1.7"/>
          <path id="Trazado_153297" data-name="Trazado 153297" d="M140.019,352.568s29.953,6.037,54.451-5.915l8.159-102.809L173.5,214.2l-28.827-6.125-15.877,57.8Z" transform="translate(-23.07 -99.994)" fill="#fafbfd"/>
          <path id="Trazado_153298" data-name="Trazado 153298" d="M139.556,208.075s4.169,102.637,3.076,153.448l-22.184-2.633a22.9,22.9,0,0,1-20.188-23.4l2.3-79.028,2.516-34.165a7.767,7.767,0,0,1,4.841-6.642,116.363,116.363,0,0,1,29.643-7.577" transform="translate(-17.957 -99.994)" fill="#fca428"/>
          <path id="Trazado_153299" data-name="Trazado 153299" d="M45.614,345.452l-7.935,13.921s-15.595.978-29.957,7.757a1.941,1.941,0,0,0,1.39,3.612l10.706-3.235a169.59,169.59,0,0,0-18.6,8.993A2.425,2.425,0,0,0,3.3,380.867l17.306-6.721L4.447,383.072a2.68,2.68,0,0,0,2.46,4.76l15.648-7.553-12.2,8.57a3.1,3.1,0,0,0,3.5,5.121c4.8-3.168,16.891-10.571,24.741-10.362a37.537,37.537,0,0,1-5.176,6.163,3.5,3.5,0,0,0,4.386,5.425l9.218-6.371a9.072,9.072,0,0,0,3.589-5.055l3.063-11.134,13.365-12.643Z" transform="translate(0 -124.602)" fill="#fc9753"/>
          <path id="Trazado_153300" data-name="Trazado 153300" d="M100.847,216.739s-4.28-.245-18.3,17.726c-14.428,18.5-39.5,101.069-39.5,101.069l25.186,19.123,42.759-93.072Z" transform="translate(-7.711 -101.546)" fill="#fca428"/>
          <line id="Línea_479" data-name="Línea 479" y1="32.416" x2="14.893" transform="translate(83.7 170.247)" fill="none" stroke="#d3750d" stroke-linecap="round" stroke-linejoin="round" stroke-width="1.748"/>
          <path id="Trazado_153301" data-name="Trazado 153301" d="M209.775,218.531s22.081,6.884,30.393,88.349L222.23,319.59Z" transform="translate(-37.576 -101.867)" fill="#fca428"/>
          <path id="Trazado_153302" data-name="Trazado 153302" d="M300.266,283.235s-8.059-6.207-.562-16.594l11.244-16.212a2.916,2.916,0,0,1,5.086,2.747l-3.467,9.6,21.325-14.438a3.159,3.159,0,0,1,3.852,5.007L324.01,264l.268.841,15.763-8.981a3.044,3.044,0,0,1,2.547,5.53l-15.222,9.751.222,1.07,14.853-6.359c3.678-1.764,4.823-.039,5.185,1.322.338,1.271-2.428,3-3.676,3.416l-15.364,7.767.167.992L343,273.88a2.194,2.194,0,0,1,.689,4.333l-16.256,6.925s-14.846,10.133-21.577,4.416Z" transform="translate(-53.112 -107.094)" fill="#fc9753"/>
          <path id="Trazado_153303" data-name="Trazado 153303" d="M315.844,266.058s4.692,8.378-1.037,15.834" transform="translate(-56.39 -110.381)" fill="none" stroke="#e07832" stroke-linecap="round" stroke-linejoin="round" stroke-width="1.6"/>
          <path id="Trazado_153304" data-name="Trazado 153304" d="M273.307,290.434l24.466-10.319,10.576,14.834L280.922,309.71Z" transform="translate(-48.956 -112.898)" fill="#fc9753"/>
          <path id="Trazado_153305" data-name="Trazado 153305" d="M212.059,305.439l61.849-25.009,12.377,26.8L232.3,342.89a18.8,18.8,0,0,1-25.075-5.307c-6.492-9.25-5.15-26.843,4.83-32.145" transform="translate(-36.407 -112.955)" fill="#fca428"/>
          <line id="Línea_480" data-name="Línea 480" x1="7.51" y2="3.036" transform="translate(191.789 182.922)" fill="none" stroke="#d3750d" stroke-linecap="round" stroke-linejoin="round" stroke-width="1.748"/>
          <path id="Trazado_153306" data-name="Trazado 153306" d="M183.251,214.6s7.151,8.385,10.075,44.584,3.9,98.09,3.9,98.09a26.466,26.466,0,0,0,21.156-26.734c-.814-26.8-2.744-70.484-6.962-88.957l-3.929-20.053c-.217-.949-1.139-3.8-1.139-3.8s-3.166-2.885-22.836-7.4Z" transform="translate(-32.825 -100.399)" fill="#fca428"/>
          <path id="Trazado_153307" data-name="Trazado 153307" d="M224.7,340.428s.19-51.4-5.96-88.778" transform="translate(-39.182 -107.8)" fill="none" stroke="#d3750d" stroke-linecap="round" stroke-linejoin="round" stroke-width="1.748"/>
          <path id="Trazado_153308" data-name="Trazado 153308" d="M145.022,164.872s-7.047,11.39,3.3,11.049a11.4,11.4,0,0,0,3.345-10.238Z" transform="translate(-25.558 -92.255)" fill="#793625"/>
          <path id="Trazado_153309" data-name="Trazado 153309" d="M209.677,121.684a18.164,18.164,0,0,0-2.151-6.785c-14.9-27.54-47.3-5.56-47.3-5.56l5.674,19.3c13.507-8.171,29.578-11.507,43.776-6.953" transform="translate(-28.701 -80.82)" fill="#793625"/>
          <path id="Trazado_153310" data-name="Trazado 153310" d="M167.139,132.4l6.331,25.036s39.619-11.377,37.445-31.989c-14.2-4.554-28.256-6.491-43.776,6.953" transform="translate(-29.939 -84.583)" fill="#6b2a1d"/>
          <path id="Trazado_153311" data-name="Trazado 153311" d="M190.064,159.356a8.123,8.123,0,1,0,5.81-9.91,8.123,8.123,0,0,0-5.81,9.91" transform="translate(-33.998 -89.445)" fill="#e8803a"/>
          <path id="Trazado_153312" data-name="Trazado 153312" d="M175.642,178.026l1.5,24.133a11.2,11.2,0,0,1-19.309,6.986l-9.7-10.259,2.885-42.111Z" transform="translate(-26.534 -90.805)" fill="#fc9753"/>
          <path id="Trazado_153313" data-name="Trazado 153313" d="M178.843,193.547s-15.791-.677-16.968-16.6L178.1,181.64Z" transform="translate(-28.996 -94.418)" fill="#2f1a2a"/>
          <path id="Trazado_153314" data-name="Trazado 153314" d="M191.953,117.214s5.176,32.942,1.129,43.316-13.042,16.724-26.966,13.645c0,0-16.241-1.261-19.184-24.841-4.432-35.5,28.988-51.424,45.021-32.12" transform="translate(-26.247 -82.234)" fill="#fc9753"/>
          <path id="Trazado_153315" data-name="Trazado 153315" d="M198.561,151.63a1.858,1.858,0,1,0,1.413-2.216,1.858,1.858,0,0,0-1.413,2.216" transform="translate(-35.559 -89.479)" fill="#171717"/>
          <path id="Trazado_153316" data-name="Trazado 153316" d="M179.425,151.263a1.858,1.858,0,1,0,1.413-2.216,1.858,1.858,0,0,0-1.413,2.216" transform="translate(-32.132 -89.413)" fill="#171717"/>
          <path id="Trazado_153317" data-name="Trazado 153317" d="M194.16,153.776l1.786,6.352-3.007,1.5" transform="translate(-34.56 -90.268)" fill="none" stroke="#2f1a2a" stroke-linecap="round" stroke-linejoin="round" stroke-width="0.983"/>
          <path id="Trazado_153318" data-name="Trazado 153318" d="M176.522,135.532s5.775-1.4,6.187,1.725c0,0,.235,2.12-4.818,3.211s-7.091,1-7.781-.927,3.673-3.631,6.412-4.01" transform="translate(-30.458 -86.944)" fill="#221914"/>
          <path id="Trazado_153319" data-name="Trazado 153319" d="M202.953,135.02s-5.377-1.331-5.957,1.728c0,0-.355,2.093,4.363,3.112,3.435.741,4.659.076,4.921-1.327.31-1.663-1.305-3.2-3.327-3.513" transform="translate(-35.286 -86.857)" fill="#221914"/>
          <path id="Trazado_153320" data-name="Trazado 153320" d="M182.058,166.655l10.776.793s-.107,4.21-5.6,3.839-5.176-4.632-5.176-4.632" transform="translate(-32.61 -92.575)" fill="#fff"/>
          <path id="Trazado_153321" data-name="Trazado 153321" d="M152.929,147.2l1.585-11.991s9.5-3.022,11.767-20.968c0,0-3.986-8.256-16.161-4.48s-22.745,12.582-9.395,34.687Z" transform="translate(-24.096 -82.206)" fill="#793625"/>
          <path id="Trazado_153322" data-name="Trazado 153322" d="M133.637,158.95a9.857,9.857,0,1,0,7.051-12.026,9.858,9.858,0,0,0-7.051,12.026" transform="translate(-23.88 -88.983)" fill="#fc9753"/>
          <path id="Trazado_153323" data-name="Trazado 153323" d="M140.051,154.86s7.3-1.791,8.911,6.231" transform="translate(-25.087 -90.431)" fill="none" stroke="#2f1a2a" stroke-linecap="round" stroke-linejoin="round" stroke-width="0.983"/>
          <path id="Trazado_153324" data-name="Trazado 153324" d="M171.17,113.868a37.469,37.469,0,0,1,23.981,5.668l-2.52-10.657L176.86,106.7l-15.047,5.665,3.713.351Z" transform="translate(-28.985 -81.835)" fill="#793625"/>
          <path id="Trazado_153325" data-name="Trazado 153325" d="M202.115,121.552s18.161.045,18.235,13.278a.228.228,0,0,0,.453.04c.851-4.916-.062-18.369-20.107-16.8Z" transform="translate(-35.95 -83.849)" fill="#793625"/>
          <path id="Trazado_153328" data-name="Trazado 153328" d="M511.093,141.393s3.465,21.547,11.227,33.648a5.016,5.016,0,0,1-1.566,6.819c-8.765,5.664-33.424,16.4-64.92,4.106a5.029,5.029,0,0,1-3.106-5.263c.645-5.825,5.7-17.261,13.132-27.52Z" transform="translate(-81.09 -88.05)" fill="#f76b2c"/>
          <path id="Trazado_153329" data-name="Trazado 153329" d="M467.522,163.69a7.281,7.281,0,1,1-4.856-9.08,7.281,7.281,0,0,1,4.856,9.08" transform="translate(-81.192 -90.361)" fill="#f4ab7a"/>
          <path id="Trazado_153330" data-name="Trazado 153330" d="M480.984,180.154l.7,29.479,22.967-2.68L500.3,163.616Z" transform="translate(-86.156 -92.03)" fill="#ffb98a"/>
          <path id="Trazado_153331" data-name="Trazado 153331" d="M481.273,194.383s10.445-.527,10.895-12.4L481.1,187.837Z" transform="translate(-86.177 -95.32)" fill="#2f1a2a"/>
          <path id="Trazado_153332" data-name="Trazado 153332" d="M463.019,130.208a10.632,10.632,0,0,0-3.477,6.081c-1.393,6.965-4.128,21.454-1.662,28.847,3.205,9.616,11.014,15.7,23.632,13.3,0,0,14.625-.666,18.231-22.155,5.118-30.488-21-39.361-36.723-26.069" transform="translate(-81.84 -84.973)" fill="#ffb98a"/>
          <path id="Trazado_153333" data-name="Trazado 153333" d="M462.648,158.233a1.666,1.666,0,1,1-1.188-2.035,1.666,1.666,0,0,1,1.188,2.035" transform="translate(-82.285 -90.692)" fill="#2f1a2a"/>
          <path id="Trazado_153334" data-name="Trazado 153334" d="M479.8,158.577a1.666,1.666,0,1,1-1.188-2.035,1.666,1.666,0,0,1,1.188,2.035" transform="translate(-85.357 -90.753)" fill="#2f1a2a"/>
          <path id="Trazado_153335" data-name="Trazado 153335" d="M466.443,163.21l-1.647,3.967,2.669.719" transform="translate(-83.257 -91.958)" fill="none" stroke="#2f1a2a" stroke-linecap="round" stroke-linejoin="round" stroke-width="0.873"/>
          <path id="Trazado_153336" data-name="Trazado 153336" d="M479.387,146.649s-5.166-.914-5.44,1.46c0,0-.147,1.611,4.37,2.311s6.322.584,6.878-.9-3.365-2.657-5.808-2.876" transform="translate(-84.896 -88.96)" fill="#f76b2c"/>
          <path id="Trazado_153337" data-name="Trazado 153337" d="M458.51,146.742s4.5-.981,5.145,1.292c0,0,.406,1.555-3.549,2.3-2.88.546-3.953.05-4.246-.992-.346-1.235.948-2.375,2.65-2.6" transform="translate(-81.646 -88.97)" fill="#f76b2c"/>
          <path id="Trazado_153338" data-name="Trazado 153338" d="M466.581,172.639l9.277.154s.021,3.737-4.707,3.689-4.57-3.843-4.57-3.843" transform="translate(-83.576 -93.647)" fill="#fff"/>
          <path id="Trazado_153339" data-name="Trazado 153339" d="M494.832,152.889s-7.637-6.756-6.116-19.9a127.3,127.3,0,0,1-28.363,1.157s3.434-20.32,32.709-15.446c30.419,5.063,19.2,40.242,7.9,50.544Z" transform="translate(-82.461 -83.85)" fill="#f76b2c"/>
          <path id="Trazado_153340" data-name="Trazado 153340" d="M516.505,165.231a8.836,8.836,0,1,1-5.893-11.019,8.836,8.836,0,0,1,5.893,11.019" transform="translate(-89.421 -90.278)" fill="#ffb98a"/>
          <path id="Trazado_153341" data-name="Trazado 153341" d="M513.045,161.405s-6.478-1.86-8.2,5.268" transform="translate(-90.431 -91.595)" fill="none" stroke="#2f1a2a" stroke-linecap="round" stroke-linejoin="round" stroke-width="0.873"/>
          <path id="Trazado_153342" data-name="Trazado 153342" d="M480.445,118.042c.04-.038-25.443.434-28.63,20.68l40.324.9,2.415-13.479Z" transform="translate(-80.932 -83.866)" fill="#f76b2c"/>
          <path id="Trazado_153343" data-name="Trazado 153343" d="M444.01,280.027l2.806,38.145-15.742,48H448.54l27.236-26.309-2.926-57.384Z" transform="translate(-77.217 -112.882)" fill="#ffb98a"/>
          <path id="Trazado_153344" data-name="Trazado 153344" d="M451.971,224.182s-19.909,14.382-14.047,60.518H470.5Z" transform="translate(-78.25 -102.879)" fill="#fff"/>
          <path id="Trazado_153345" data-name="Trazado 153345" d="M462.775,325.822l-10.959,48.212c40.9,11.555,78.924,0,78.924,0s-2.13-18.516-16.346-48.54Z" transform="translate(-80.932 -121.027)" fill="#2f1a2a"/>
          <path id="Trazado_153346" data-name="Trazado 153346" d="M510.238,213.584l-40.015.669s-8.765,2.94-14.951,8.03l1.254,33.744,6.867,49.75,51.619-.329,10.151-77.306Z" transform="translate(-81.551 -100.981)" fill="#fff"/>
          <path id="Trazado_153347" data-name="Trazado 153347" d="M491.67,206.49a83.48,83.48,0,0,1,21.82,5.823s-3.339,12.985-22.538,13.043a24.856,24.856,0,0,1-9.41-1.682c-3.99-1.614-8.655-4.782-8.067-10.692Z" transform="translate(-84.802 -99.71)" fill="#ffb98a"/>
          <line id="Línea_481" data-name="Línea 481" x1="3.722" y1="27.23" transform="translate(374.171 153.77)" fill="none" stroke="#dbdbdb" stroke-linecap="round" stroke-linejoin="round" stroke-width="1.748"/>
          <path id="Trazado_153348" data-name="Trazado 153348" d="M551.2,317.635c.09-1.02-1.825-47.9-1.825-47.9H527.232l-.346,34.93Z" transform="translate(-94.379 -111.04)" fill="#ffb98a"/>
          <path id="Trazado_153349" data-name="Trazado 153349" d="M522.232,213.584s27.48,7.625,30.827,24.7,11.434,45.563,11.434,45.563l-42.261.122,3.178-57.34Z" transform="translate(-93.545 -100.981)" fill="#fff"/>
          <line id="Línea_482" data-name="Línea 482" x1="3.574" y1="25.355" transform="translate(426.645 160.604)" fill="none" stroke="#dbdbdb" stroke-linecap="round" stroke-linejoin="round" stroke-width="1.748"/>
          <path id="Trazado_153350" data-name="Trazado 153350" d="M483.855,269.781,478.588,280l44.9,45.075a11.69,11.69,0,1,0,13.2-19.177l-6.3-4.3-11.059-7.559Z" transform="translate(-85.727 -111.047)" fill="#ffb98a"/>
          <path id="Trazado_153351" data-name="Trazado 153351" d="M481.236,265.939l-.023-6.78a22.577,22.577,0,0,0-2.463-10.177l-2.829-5.55a2.392,2.392,0,0,0-3.558-.835,3.063,3.063,0,0,0-1.139,3.234l1.672,6.4-16.183-17.556a2.451,2.451,0,0,0-3.272.186,2.226,2.226,0,0,0-.215,2.588l8.682,10.561-11.877-10.473a2.217,2.217,0,0,0-3.066.348,2.383,2.383,0,0,0,.228,2.82l13.73,12.086-12.906-7.728a1.853,1.853,0,0,0-2.732.938l-.081.225a1.851,1.851,0,0,0,.625,2.106l12.587,9.526-8.345-4.768a1.853,1.853,0,0,0-1.983,3.126L475.2,275.644Z" transform="translate(-79.728 -104.662)" fill="#ffb98a"/>
          <line id="Línea_483" data-name="Línea 483" x2="12.791" y2="8.744" transform="translate(434.436 183.555)" fill="none" stroke="#f2a36d" stroke-linecap="round" stroke-linejoin="round" stroke-width="1.6"/>
          <path id="Trazado_153356" data-name="Trazado 153356" d="M623.539,152.827a8.362,8.362,0,1,1-6.314-10,8.361,8.361,0,0,1,6.314,10" transform="translate(-108.732 -88.27)" fill="#8c4d41"/>
          <path id="Trazado_153357" data-name="Trazado 153357" d="M637.557,172.516l.753,32.879,29.945-2.144-6.084-53.435Z" transform="translate(-114.203 -89.559)" fill="#9b5e4e"/>
          <path id="Trazado_153358" data-name="Trazado 153358" d="M637.863,189.709s16.277-1.351,17.063-20.815l-17.369,7.974Z" transform="translate(-114.203 -92.976)" fill="#221914"/>
          <path id="Trazado_153359" data-name="Trazado 153359" d="M626.707,108.65a21.765,21.765,0,0,0-13.4,18.112c-.964,9.249-1.82,23.583,1.055,30.6,4.445,10.855,13.883,17.219,28.155,13.349,0,0,16.71-2.037,19.126-27.23,2.858-29.811-18.068-41.5-34.936-34.835" transform="translate(-109.695 -81.859)" fill="#9b5e4e"/>
          <path id="Trazado_153360" data-name="Trazado 153360" d="M618.67,146.11a1.913,1.913,0,1,1-1.529-2.232,1.914,1.914,0,0,1,1.529,2.232" transform="translate(-110.14 -88.489)" fill="#221914"/>
          <path id="Trazado_153361" data-name="Trazado 153361" d="M638.346,145.084a1.913,1.913,0,1,1-1.529-2.232,1.914,1.914,0,0,1,1.529,2.232" transform="translate(-113.665 -88.305)" fill="#221914"/>
          <path id="Trazado_153362" data-name="Trazado 153362" d="M623.515,148.164l-1.356,5.513a1.06,1.06,0,0,0,.829,1.294l2.022.391" transform="translate(-111.439 -89.263)" fill="none" stroke="#2f1a2a" stroke-linecap="round" stroke-linejoin="round" stroke-width="1.012"/>
          <path id="Trazado_153363" data-name="Trazado 153363" d="M639.9,130.4s-5.989-1.243-6.308,1.985c0,0-.169,2.19,5.066,3.141s7.329.793,7.975-1.217-3.9-3.611-6.734-3.908" transform="translate(-113.493 -86.038)" fill="#221914"/>
          <path id="Trazado_153364" data-name="Trazado 153364" d="M613.455,130.725s5.487-1.552,6.187,1.576c0,0,.437,2.142-4.383,3.349-3.508.88-4.791.236-5.108-1.2-.376-1.7,1.234-3.339,3.3-3.728" transform="translate(-109.284 -86.07)" fill="#221914"/>
          <path id="Trazado_153365" data-name="Trazado 153365" d="M622.639,161.626l11.652.442s-.256,5.043-5.981,5.043c-5.692,0-5.671-5.485-5.671-5.485" transform="translate(-111.53 -91.674)" fill="#221914"/>
          <path id="Trazado_153366" data-name="Trazado 153366" d="M635.423,170.835a4.357,4.357,0,1,1-2.142-5.778,4.358,4.358,0,0,1,2.142,5.778" transform="translate(-112.33 -92.218)" fill="#e275c2"/>
          <path id="Trazado_153367" data-name="Trazado 153367" d="M628.31,167.111c5.725,0,5.981-5.043,5.981-5.043l-11.652-.442s-.021,5.485,5.671,5.485" transform="translate(-111.53 -91.674)" fill="none"/>
          <path id="Trazado_153368" data-name="Trazado 153368" d="M654.9,142.3s-6.763-12.735-4.311-26.586c0,0-20.649,3.463-32.589-.339,0,0,2.8-17.032,30.577-14.83,38.031,3.016,26.916,43.543,8.781,50.479Z" transform="translate(-110.7 -80.697)" fill="#221914"/>
          <path id="Trazado_153369" data-name="Trazado 153369" d="M681.267,153.8a10.147,10.147,0,1,1-7.663-12.133,10.148,10.148,0,0,1,7.663,12.133" transform="translate(-118.441 -88.054)" fill="#9b5e4e"/>
          <path id="Trazado_153370" data-name="Trazado 153370" d="M676.93,149.748s-7.574-1.6-8.957,6.713" transform="translate(-119.651 -89.525)" fill="none" stroke="#2f1a2a" stroke-linecap="round" stroke-linejoin="round" stroke-width="1.012"/>
          <path id="Trazado_153371" data-name="Trazado 153371" d="M583.085,280.027v48.742l-22.861,40.051,22.466-2.652,27.236-26.309L607,282.475Z" transform="translate(-100.35 -112.882)" fill="#9b5e4e"/>
          <path id="Trazado_153372" data-name="Trazado 153372" d="M602.528,221.747S584.8,232.1,581.954,257.689V294.08l28.938-.99Z" transform="translate(-104.243 -102.443)" fill="#f46eab"/>
          <path id="Trazado_153373" data-name="Trazado 153373" d="M628.365,211.63s-14.524,2.771-21.818,8.3l-2.156,130.7c46.649,28.135,99.983.821,99.983.821L689.906,220.61s-1.889-7.376-22.16-8.954Z" transform="translate(-108.262 -100.631)" fill="#f46eab"/>
          <path id="Trazado_153374" data-name="Trazado 153374" d="M672.961,211.3s-16.73-3.694-39.381-.025c0,0-2.151,13.465,16.039,14.032,19.7.615,23.342-14.007,23.342-14.007" transform="translate(-113.476 -100.277)" fill="#9b5e4e"/>
          <line id="Línea_484" data-name="Línea 484" x1="0.172" y1="45.843" transform="translate(496.951 145.793)" fill="none" stroke="#e03f90" stroke-linecap="round" stroke-linejoin="round" stroke-width="1.7"/>
          <path id="Trazado_153375" data-name="Trazado 153375" d="M644.1,299.143s-3.233-9.333-14.767-11.729l-8.113-7.967a3.539,3.539,0,0,0-5.352,4.593l4,5.549-2.191-.943a16.821,16.821,0,0,1-8.149-7.462l-5.12-9.489a3.362,3.362,0,0,0-6.1,2.807l5.127,13.287a19.161,19.161,0,0,0,11.281,11.092l25.913,11.527Z" transform="translate(-107.131 -111.074)" fill="#9b5e4e"/>
          <path id="Trazado_153376" data-name="Trazado 153376" d="M653.386,305.518l72.061,27.572c6.233,2.695,9.25,13.3,6.465,19.5a12.171,12.171,0,0,1-17.913,5.1l-64.085-40.9Z" transform="translate(-116.416 -117.449)" fill="#9b5e4e"/>
          <path id="Trazado_153377" data-name="Trazado 153377" d="M741.693,340.853l-7.536-58.241-34.95-2.584,12.247,51.9Z" transform="translate(-125.245 -112.883)" fill="#9b5e4e"/>
          <path id="Trazado_153378" data-name="Trazado 153378" d="M696.033,214.719s43.675,7.2,48.83,78.1h-53.71l-3.533-45.884Z" transform="translate(-123.17 -101.184)" fill="#f46eab"/>
          <path id="Trazado_153379" data-name="Trazado 153379" d="M702.669,301.874H692.553l-6.282-36.611" transform="translate(-122.929 -110.238)" fill="none" stroke="#e03f90" stroke-linecap="round" stroke-linejoin="round" stroke-width="1.7"/>
          <path id="Trazado_153380" data-name="Trazado 153380" d="M85.224,110.471H39.945A21.167,21.167,0,0,1,18.778,89.3V76.974A21.167,21.167,0,0,1,39.945,55.808H85.224A21.166,21.166,0,0,1,106.39,76.974V89.3a21.166,21.166,0,0,1-21.166,21.166" transform="translate(-8.579 -21.705)" fill="#fc83b9"/>
          <path id="Trazado_153381" data-name="Trazado 153381" d="M86.625,115.327l11.024,13.929a1.788,1.788,0,0,0,3.13-1.569L96.91,113.122Z" transform="translate(-20.616 -31.994)" fill="#fc83b9"/>
          <path id="Trazado_165202" data-name="Trazado 165202" d="M7.875-10.983A4.653,4.653,0,0,0,4.51-9.723V-14.84H1.44v14.6H4.51V-5.473c0-1.948,1.063-2.853,2.539-2.853,1.358,0,2.145.787,2.145,2.5V-.238h3.07V-6.3C12.263-9.527,10.374-10.983,7.875-10.983Zm11.63,0A8.139,8.139,0,0,0,14.94-9.7l1.1,2.145a5.091,5.091,0,0,1,3.05-.984c1.653,0,2.44.767,2.44,2.086h-2.44c-3.227,0-4.546,1.3-4.546,3.168,0,1.83,1.476,3.208,3.955,3.208a3.475,3.475,0,0,0,3.227-1.476V-.238H24.6V-6.28C24.6-9.487,22.733-10.983,19.505-10.983Zm-.236,8.836c-1.082,0-1.732-.512-1.732-1.279,0-.708.453-1.24,1.889-1.24h2.106v1.082A2.262,2.262,0,0,1,19.269-2.147Zm8.3,1.909h3.07v-14.6h-3.07Zm6.1,0h3.07v-14.6h-3.07Zm11.138.157c3.365,0,5.805-2.263,5.805-5.451s-2.44-5.451-5.805-5.451S38.987-8.72,38.987-5.532,41.447-.081,44.812-.081Zm0-2.519A2.686,2.686,0,0,1,42.1-5.532a2.686,2.686,0,0,1,2.716-2.932,2.672,2.672,0,0,1,2.7,2.932A2.672,2.672,0,0,1,44.812-2.6ZM53.058-5.02H55.5l.61-8.993h-3.66Zm1.22,4.939a1.809,1.809,0,0,0,1.889-1.791,1.767,1.767,0,0,0-1.889-1.751,1.767,1.767,0,0,0-1.889,1.751A1.809,1.809,0,0,0,54.278-.081Z" transform="translate(23.612 66.769)" fill="#fafbfd"/>
          <path id="Trazado_153382" data-name="Trazado 153382" d="M223.6,50.975h41.3a18.247,18.247,0,0,0,18.247-18.246V18.247A18.247,18.247,0,0,0,264.9,0H223.6a18.247,18.247,0,0,0-18.246,18.247V32.728A18.247,18.247,0,0,0,223.6,50.975" transform="translate(64.951)" fill="#fafbfd"/>
          <path id="Trazado_153383" data-name="Trazado 153383" d="M275.258,55.869,264.234,69.8a1.788,1.788,0,0,1-3.13-1.569l3.869-14.565Z" transform="translate(27.135 -9.613)" fill="#fafbfd"/>
          <path id="Trazado_165201" data-name="Trazado 165201" d="M6.217-.09a4.666,4.666,0,0,0,4.505-2.543L8.46-3.867A2.474,2.474,0,0,1,6.2-2.483,2.574,2.574,0,0,1,3.562-5.269,2.574,2.574,0,0,1,6.2-8.055,2.508,2.508,0,0,1,8.46-6.671l2.262-1.215a4.621,4.621,0,0,0-4.505-2.561C2.945-10.448.608-8.3.608-5.269S2.945-.09,6.217-.09ZM14.05-11.7a1.677,1.677,0,0,0,1.813-1.683,1.637,1.637,0,0,0-1.813-1.57,1.667,1.667,0,0,0-1.813,1.626A1.667,1.667,0,0,0,14.05-11.7ZM12.592-.24h2.916V-10.3H12.592Zm9.852-10.207a7.732,7.732,0,0,0-4.337,1.215l1.047,2.038a4.836,4.836,0,0,1,2.9-.935c1.57,0,2.318.729,2.318,1.982H22.051c-3.066,0-4.319,1.234-4.319,3.01,0,1.739,1.4,3.047,3.758,3.047a3.3,3.3,0,0,0,3.066-1.4V-.24h2.729V-5.979C27.286-9.027,25.51-10.448,22.444-10.448Zm-.224,8.394c-1.028,0-1.645-.486-1.645-1.215,0-.673.43-1.178,1.795-1.178h2v1.028A2.149,2.149,0,0,1,22.219-2.053ZM35.119-.09c3.2,0,5.515-2.15,5.515-5.179s-2.318-5.179-5.515-5.179S29.585-8.3,29.585-5.269,31.922-.09,35.119-.09Zm0-2.393a2.552,2.552,0,0,1-2.58-2.786,2.552,2.552,0,0,1,2.58-2.786A2.538,2.538,0,0,1,37.68-5.269,2.538,2.538,0,0,1,35.119-2.483Zm7.833-2.3H45.27l.58-8.544H42.373ZM44.111-.09a1.718,1.718,0,0,0,1.795-1.7,1.678,1.678,0,0,0-1.795-1.664,1.678,1.678,0,0,0-1.795,1.664A1.718,1.718,0,0,0,44.111-.09Z" transform="translate(285.355 33.316)" fill="#221914"/>
          <path id="Trazado_153384" data-name="Trazado 153384" d="M471.965,73.7h41.606a19.45,19.45,0,0,0,19.45-19.45V42.924a19.45,19.45,0,0,0-19.45-19.45H471.965a19.449,19.449,0,0,0-19.449,19.45v11.33A19.45,19.45,0,0,0,471.965,73.7" transform="translate(-40.113 -22.382)" fill="#fc83b9"/>
          <path id="Trazado_153385" data-name="Trazado 153385" d="M493.915,82.814l-10.129,12.8a1.643,1.643,0,0,1-2.876-1.441l3.555-13.383Z" transform="translate(-47.075 -36.464)" fill="#fc83b9"/>
          <path id="Trazado_165203" data-name="Trazado 165203" d="M7.293-5.05A4.649,4.649,0,0,0,3.931-3.792V-8.9H.864V5.685H3.931V.455C3.931-1.491,4.993-2.4,6.468-2.4c1.357,0,2.143.786,2.143,2.5V5.685h3.067V-.371C11.678-3.6,9.791-5.05,7.293-5.05ZM25.245.435A5.237,5.237,0,0,0,19.739-5.05,5.385,5.385,0,0,0,14.1.4c0,3.146,2.379,5.446,6.036,5.446A5.54,5.54,0,0,0,24.5,4.132l-1.632-1.77a3.586,3.586,0,0,1-2.654,1.022,2.821,2.821,0,0,1-3.028-2.123h8C25.205,1.006,25.245.671,25.245.435ZM19.759-2.73a2.514,2.514,0,0,1,2.6,2.2h-5.21A2.5,2.5,0,0,1,19.759-2.73Zm7.727,8.415h3.067V-8.9H27.486Zm6.115,0h3.067V-8.9H33.6Zm11.129.157c3.362,0,5.8-2.261,5.8-5.446S48.092-5.05,44.73-5.05,38.91-2.789,38.91.4,41.368,5.842,44.73,5.842Zm0-2.517A2.684,2.684,0,0,1,42.016.4a2.684,2.684,0,0,1,2.713-2.93A2.67,2.67,0,0,1,47.423.4,2.67,2.67,0,0,1,44.73,3.326ZM52.988.907h2.438l.61-8.986H52.378Zm1.219,4.935a1.807,1.807,0,0,0,1.888-1.789,1.893,1.893,0,0,0-3.775,0A1.807,1.807,0,0,0,54.207,5.842Z" transform="translate(426.505 25.44)" fill="#fafbfd"/>
          <path id="Trazado_153386" data-name="Trazado 153386" d="M658.868,41.72h32.679A16.155,16.155,0,0,0,707.7,25.566V16.155A16.155,16.155,0,0,0,691.546,0H658.868a16.154,16.154,0,0,0-16.155,16.155v9.412A16.154,16.154,0,0,0,658.868,41.72" transform="translate(-75.533 55.499)" fill="#fafbfd"/>
          <path id="Trazado_153387" data-name="Trazado 153387" d="M676.806,59l-8.414,10.631A1.365,1.365,0,0,1,666,68.43l2.953-11.116Z" transform="translate(-84.213 34.093)" fill="#fafbfd"/>
          <path id="Trazado_165204" data-name="Trazado 165204" d="M6.694-9.335a3.955,3.955,0,0,0-2.86,1.071v-4.349H1.224V-.2H3.833V-4.652c0-1.656.9-2.425,2.158-2.425,1.154,0,1.823.669,1.823,2.124V-.2h2.609V-5.354C10.424-8.1,8.818-9.335,6.694-9.335ZM17.433-.069A4.619,4.619,0,0,0,22.367-4.7a4.619,4.619,0,0,0-4.935-4.633A4.633,4.633,0,0,0,12.481-4.7,4.633,4.633,0,0,0,17.433-.069Zm0-2.141A2.283,2.283,0,0,1,15.124-4.7a2.283,2.283,0,0,1,2.308-2.492A2.271,2.271,0,0,1,19.724-4.7,2.271,2.271,0,0,1,17.433-2.21ZM24.274-.2h2.609V-12.614H24.274Zm8.815-9.133a6.918,6.918,0,0,0-3.881,1.087l.937,1.823a4.327,4.327,0,0,1,2.593-.836c1.405,0,2.074.652,2.074,1.773H32.738c-2.743,0-3.864,1.1-3.864,2.693,0,1.556,1.255,2.727,3.362,2.727a2.953,2.953,0,0,0,2.743-1.255V-.2h2.442V-5.338C37.421-8.064,35.832-9.335,33.089-9.335Zm-.2,7.51c-.92,0-1.472-.435-1.472-1.087,0-.6.385-1.054,1.606-1.054h1.79v.92A1.923,1.923,0,0,1,32.888-1.825Zm7.243-2.442h2.074l.519-7.644H39.613Zm1.037,4.2a1.538,1.538,0,0,0,1.606-1.522A1.5,1.5,0,0,0,41.168-3.08a1.5,1.5,0,0,0-1.606,1.489A1.538,1.538,0,0,0,41.168-.069Z" transform="translate(578.562 80.508)" fill="#221914"/>
        </g>
      </g>
    </g>
  </g>
</svg>
