<svg xmlns="http://www.w3.org/2000/svg" xmlns:xlink="http://www.w3.org/1999/xlink" width="505" height="528.219" viewBox="0 0 505 528.219">
  <defs>
    <clipPath id="clip-path">
      <rect id="Rect치ngulo_42953" data-name="Rect치ngulo 42953" width="505" height="510.5" rx="11" transform="translate(0 0)" fill="#a6bbff"/>
    </clipPath>
  </defs>
  <g id="Grupo_177626" data-name="Grupo 177626" transform="translate(-915 -4816)">
    <g id="Grupo_177172" data-name="Grupo 177172" transform="translate(750.477 3368.054)">
      <g id="Enmascarar_grupo_243" data-name="Enmascarar grupo 243" transform="translate(164.523 1447.946)" clip-path="url(#clip-path)">
        <g id="Grupo_170223" data-name="Grupo 170223" transform="translate(-232.656 -163.363)">
          <rect id="Rect치ngulo_42952" data-name="Rect치ngulo 42952" width="547.395" height="1016.01" rx="11" transform="translate(213.922 19.254)" fill="#f0f4ff"/>
          <g id="Grupo_170222" data-name="Grupo 170222" transform="translate(0 0)">
            <path id="Trazado_165129" data-name="Trazado 165129" d="M661,172.734C655.967,87.34,596.266,5.8,515.411.748,422.543-7.058,337.3,48.819,244.8,49.41c-47.171,4.437-91.409-15.38-137.378-21.779C3.592,23.45-12.226,157.317,7.137,243.6,88.8,650.391,666.65,595.045,661,172.734Z" transform="matrix(-0.602, 0.799, -0.799, -0.602, 813.813, 313.472)" fill="#e1e8ff"/>
            <path id="Trazado_165130" data-name="Trazado 165130" d="M.03,131.637C3.738,66.559,47.745,4.424,107.346.57,175.8-5.379,238.636,37.2,306.825,37.654c34.771,3.381,67.38-11.721,101.265-16.6,76.533-3.186,88.193,98.83,73.92,164.587C421.814,495.647-4.138,453.469.03,131.637Z" transform="translate(345.527 902.699) rotate(-81)" fill="#a6bbff" opacity="0.388" style="mix-blend-mode: multiply;isolation: isolate"/>
          </g>
        </g>
      </g>
    </g>
    <g id="Grupo_175896" data-name="Grupo 175896" transform="translate(979.639 4845.643)">
      <path id="Trazado_186258" data-name="Trazado 186258" d="M410.065,327.344c-3.484-9.416-7.991-18.592-14.586-26.162-9.2-10.556-21.828-17.352-33.46-25.143s-23.01-17.52-27.318-30.842c-4.411-13.64-.737-35.9-2.657-50.108-3.43-25.37-26.317-44.236-61.475-42.3l-14.842,25.9c-1.334,7.126-6.016,13.086-10.4,18.861A397.581,397.581,0,0,0,205.7,261.578c-5.275,10.667-10.1,21.655-12.727,33.262-7.054,31.175,3.357,65.717,26.465,87.8,15.434,14.749,35.639,23.815,56.448,28.584s42.329,5.475,63.676,5.257c11.771-.121,23.649-.531,35.065-3.406s22.455-8.419,30.107-17.364c7.8-9.116,11.564-21.232,11.939-33.222S414.228,338.593,410.065,327.344Z" transform="translate(6.987 0)" fill="#953183"/>
      <g id="Grupo_175888" data-name="Grupo 175888" transform="translate(157.305 458.676)">
        <path id="Trazado_186259" data-name="Trazado 186259" d="M201.148,425.071s-28.767-12.7-41.21.037c-6.727,6.888-6.252,30.663,7.531,32.208s48.124-5.063,48.124-5.063Z" transform="translate(-155.714 -417.65)" fill="#efe2ce"/>
        <path id="Trazado_186260" data-name="Trazado 186260" d="M203.923,421.509s-35.038-6.069-41.063,1.44-6.4,29.26,7.384,30.8,48.125-5.064,48.125-5.064Z" transform="translate(-155.226 -417.688)" fill="#938676"/>
        <path id="Trazado_186261" data-name="Trazado 186261" d="M206,420.2s-35.038-6.069-41.063,1.44-6.4,29.26,7.385,30.8,48.124-5.064,48.124-5.064Z" transform="translate(-154.907 -417.888)" fill="#efe2ce"/>
        <path id="Trazado_186262" data-name="Trazado 186262" d="M186.645,438.116a28.657,28.657,0,0,0-7.781-20.222,175.018,175.018,0,0,1,24.381,2.31l14.446,27.181s-19.583,3.768-35.11,4.947A29.253,29.253,0,0,0,186.645,438.116Z" transform="translate(-152.153 -417.888)" fill="#3a5c66"/>
        <g id="Grupo_175885" data-name="Grupo 175885">
          <path id="Trazado_186263" data-name="Trazado 186263" d="M201.148,425.071s-28.767-12.7-41.21.037c-6.727,6.888-6.252,30.663,7.531,32.208s48.124-5.063,48.124-5.063Z" transform="translate(-155.714 -417.65)" fill="#efe2ce"/>
          <path id="Trazado_186264" data-name="Trazado 186264" d="M203.923,421.509s-35.038-6.069-41.063,1.44-6.4,29.26,7.384,30.8,48.125-5.064,48.125-5.064Z" transform="translate(-155.226 -417.688)" fill="#938676"/>
          <path id="Trazado_186265" data-name="Trazado 186265" d="M206,420.2s-35.038-6.069-41.063,1.44-6.4,29.26,7.385,30.8,48.124-5.064,48.124-5.064Z" transform="translate(-154.907 -417.888)" fill="#efe2ce"/>
          <path id="Trazado_186266" data-name="Trazado 186266" d="M186.645,438.116a28.657,28.657,0,0,0-7.781-20.222,175.018,175.018,0,0,1,24.381,2.31l14.446,27.181s-19.583,3.768-35.11,4.947A29.253,29.253,0,0,0,186.645,438.116Z" transform="translate(-152.153 -417.888)" fill="#3a5c66"/>
        </g>
        <g id="Grupo_175886" data-name="Grupo 175886" transform="translate(34.063 4.319)">
          <path id="Trazado_186267" data-name="Trazado 186267" d="M185.4,424.52c2.276,5.357,6.1,11.182,3.723,17.12-.9,2.249,2.739,3.225,3.629,1,2.782-6.962-1.43-13.73-4.1-20.02-.944-2.221-4.186-.306-3.249,1.9Z" transform="translate(-185.236 -421.632)" fill="#efe2ce"/>
        </g>
        <g id="Grupo_175887" data-name="Grupo 175887" transform="translate(39.98 2.298)">
          <path id="Trazado_186268" data-name="Trazado 186268" d="M190.5,422.139c1.087,2.747,3.277,4.775,4.083,7.661,1.057,3.781.488,7.729-.407,11.466-.563,2.355,3.064,3.359,3.629,1a29.117,29.117,0,0,0,.8-11.379,16.65,16.65,0,0,0-1.149-4.251c-.875-1.989-2.534-3.5-3.325-5.5-.88-2.226-4.521-1.255-3.629,1Z" transform="translate(-190.365 -419.88)" fill="#efe2ce"/>
        </g>
      </g>
      <g id="Grupo_175889" data-name="Grupo 175889" transform="translate(157.305 458.68)" opacity="0.3">
        <path id="Trazado_186269" data-name="Trazado 186269" d="M218.342,447.921l.328-.059.023,0,.555-.1.227-.042.4-.074.337-.062c.528-.1.858-.16.971-.182l.023,0,.042-.008-11.413-21.474L206.8,420.2l-.375-.064-.067-.01-.25-.042-.44-.07-.179-.028a170.842,170.842,0,0,0-23.069-2.1h0c-7.062-.05-13.579.719-16.259,3.315a9.531,9.531,0,0,0-1.481.772,16.738,16.738,0,0,0-4.746,3.364c-6.727,6.888-6.252,30.663,7.531,32.208s48.124-5.063,48.124-5.063l-1.457-2.743c2.921-.512,4.721-.858,4.721-.858Z" transform="translate(-155.714 -417.892)"/>
      </g>
      <path id="Trazado_186270" data-name="Trazado 186270" d="M338.757,383.739s36.075,5.055,35.1,23.959-9.119,37.79-100.8,48.943c-46.088,5.606-72.625,5.951-72.625,5.951l-7.287-41.522S304.985,382.761,338.757,383.739Z" transform="translate(7.349 35.533)" fill="#f79527"/>
      <g id="Grupo_175893" data-name="Grupo 175893" transform="translate(301.214 454.928)">
        <path id="Trazado_186271" data-name="Trazado 186271" d="M300.933,420.9s29.382-11.211,41.154,2.152c6.363,7.224,4.67,30.943-9.174,31.78s-47.8-7.527-47.8-7.527Z" transform="translate(-279.723 -414.354)" fill="#efe2ce"/>
        <path id="Trazado_186272" data-name="Trazado 186272" d="M298.269,417.211s35.3-4.263,40.935,3.544,4.889,29.549-8.956,30.386-47.8-7.526-47.8-7.526Z" transform="translate(-280.133 -414.423)" fill="#938676"/>
        <path id="Trazado_186273" data-name="Trazado 186273" d="M296.263,415.8s35.3-4.263,40.936,3.544,4.889,29.551-8.957,30.386-47.8-7.526-47.8-7.526Z" transform="translate(-280.441 -414.64)" fill="#efe2ce"/>
        <path id="Trazado_186274" data-name="Trazado 186274" d="M311.922,434.542a28.66,28.66,0,0,1,8.808-19.8,175.053,175.053,0,0,0-24.467,1.056l-15.822,26.4s19.364,4.767,34.81,6.743A29.245,29.245,0,0,1,311.922,434.542Z" transform="translate(-280.441 -414.64)" fill="#3a5c66"/>
        <g id="Grupo_175890" data-name="Grupo 175890">
          <path id="Trazado_186275" data-name="Trazado 186275" d="M300.933,420.9s29.382-11.211,41.154,2.152c6.363,7.224,4.67,30.943-9.174,31.78s-47.8-7.527-47.8-7.527Z" transform="translate(-279.723 -414.354)" fill="#efe2ce"/>
          <path id="Trazado_186276" data-name="Trazado 186276" d="M298.269,417.211s35.3-4.263,40.935,3.544,4.889,29.549-8.956,30.386-47.8-7.526-47.8-7.526Z" transform="translate(-280.133 -414.423)" fill="#938676"/>
          <path id="Trazado_186277" data-name="Trazado 186277" d="M296.263,415.8s35.3-4.263,40.936,3.544,4.889,29.551-8.957,30.386-47.8-7.526-47.8-7.526Z" transform="translate(-280.441 -414.64)" fill="#efe2ce"/>
          <path id="Trazado_186278" data-name="Trazado 186278" d="M311.922,434.542a28.66,28.66,0,0,1,8.808-19.8,175.053,175.053,0,0,0-24.467,1.056l-15.822,26.4s19.364,4.767,34.81,6.743A29.245,29.245,0,0,1,311.922,434.542Z" transform="translate(-280.441 -414.64)" fill="#443937"/>
        </g>
        <path id="Trazado_186279" data-name="Trazado 186279" d="M342.805,423.092a16.739,16.739,0,0,0-4.568-3.6,9.507,9.507,0,0,0-1.44-.847,10.024,10.024,0,0,0-4.189-2.376c2.747,9.744-.423,25.847-11.789,26.533-9.029.545-26.609-2.822-37.748-5.23l-2.629,4.388s.661.163,1.806.434l.145.035.927.217-.563.94s1.779.437,4.67,1.1l-1.6,2.663s33.958,8.363,47.8,7.526S349.168,430.316,342.805,423.092Z" transform="translate(-280.441 -414.39)" opacity="0.3"/>
        <g id="Grupo_175891" data-name="Grupo 175891" transform="translate(23.464 3.968)">
          <path id="Trazado_186280" data-name="Trazado 186280" d="M306.525,419.041c-3.009,6.18-7.482,12.666-5.05,19.794.778,2.279,4.413,1.3,3.629-1-2.054-6.017,2.139-11.7,4.671-16.895,1.056-2.169-2.189-4.079-3.249-1.9Z" transform="translate(-300.777 -418.079)" fill="#efe2ce"/>
        </g>
        <g id="Grupo_175892" data-name="Grupo 175892" transform="translate(17.654 1.445)">
          <path id="Trazado_186281" data-name="Trazado 186281" d="M301.341,416.868c-1.559,3.416-4.171,5.567-5.046,9.423a29.18,29.18,0,0,0,.151,11.941c.443,2.378,4.069,1.371,3.629-1a23.589,23.589,0,0,1,.1-10.972c.847-2.955,3.179-4.776,4.417-7.49,1-2.188-2.245-4.1-3.249-1.9Z" transform="translate(-295.742 -415.892)" fill="#efe2ce"/>
        </g>
      </g>
      <path id="Trazado_186282" data-name="Trazado 186282" d="M181.649,373.412s-36.288,3.2-36.288,22.127,7.17,38.209,98.158,54.05c45.739,7.963,72.224,9.671,72.224,9.671l9.407-41.094S215.427,374.169,181.649,373.412Z" transform="translate(0 33.948)" fill="#f79527"/>
      <path id="Trazado_186283" data-name="Trazado 186283" d="M249.2,430.2c-80.975-14.1-95.564-30.919-97.794-47.792-3.6,3.009-6.042,6.845-6.042,11.744,0,18.929,7.17,38.209,98.158,54.05,45.739,7.963,72.224,9.671,72.224,9.671l4.147-18.115C313.674,439.277,288.584,437.061,249.2,430.2Z" transform="translate(0 35.332)" fill="#fcb82e"/>
      <g id="Grupo_175894" data-name="Grupo 175894" transform="translate(184.037 273.017)">
        <path id="Trazado_186284" data-name="Trazado 186284" d="M249.609,256.975v15.679l-14.738,4.076s0,18.5,23.571,18.5c25.9,0,23.467-20.7,23.467-20.7l-14.738-2.1-.628-15.46Z" transform="translate(-170.272 -256.975)" fill="#f39c64"/>
        <path id="Trazado_186285" data-name="Trazado 186285" d="M206.168,284.843s12.853-13.391,37.313-13.38c0,0,8.07,17.78,25.359,15.271,0,0,21.759-3.959,21.678-15.271,0,0,34.495-1.661,42.648,37.222s-55.867,71.5-94.414,63.345-59.871-55.191-59.871-55.191Z" transform="translate(-178.882 -254.749)" fill="#adaaec"/>
        <path id="Trazado_186286" data-name="Trazado 186286" d="M330.322,308.685c-8.154-38.884-42.648-37.222-42.648-37.222.044,6.12-6.3,10.084-12.139,12.437-3.681,14.893-11.974,28.861-22.806,37.52a119.338,119.338,0,0,1-31.887,18.241q-10.078,3.929-20.29,7.451c-1.057.366-2.111.74-3.168,1.106,9.741,10.529,22.673,20.459,38.525,23.812C274.454,380.183,338.474,347.569,330.322,308.685Z" transform="translate(-176.037 -254.749)" fill="#9894e7"/>
      </g>
      <path id="Trazado_186287" data-name="Trazado 186287" d="M232.748,181.552s-34.956,52.642-19.127,77.739c14.808,23.477,82.882,39.282,95.222-17.481,0,0,13.985,5.141,14.808-10.18s-11.517-14.5-11.517-14.5,4.936-31.261-17.276-39.487S252.49,156.05,232.748,181.552Z" transform="translate(9.864 2.162)" fill="#f6b58b"/>
      <path id="Trazado_186288" data-name="Trazado 186288" d="M308.849,217.13s4.936-31.261-17.276-39.487c-14.65-5.425-28.4-13.08-41.736-10.353a35.344,35.344,0,0,1,22.907,17.423c4.206,7.411,5.161,15.244,7.4,23.209,3.16,11.247,5.759,25.259.921,36.477s-11.758,21.386-23.426,26.407a50.746,50.746,0,0,1-26.78,4.131c26,11.135,65.579,8.833,74.7-33.127,0,0,13.985,5.141,14.808-10.18S308.849,217.13,308.849,217.13Z" transform="translate(13.148 2.163)" fill="#f39c64"/>
      <path id="Trazado_186289" data-name="Trazado 186289" d="M312.3,168.873C238.18,120.957,204.43,194.617,204.43,194.617c16.306,18.188,47.665,15.68,47.665,15.68l-8.153,7.1a45.879,45.879,0,0,0,45.079-8.359V217.4a24.238,24.238,0,0,0,13.548-10.466c3.378,6.685,3.289,19.75,2.836,26.566,0,0,17.375-8.446,19.612-27.767C327.356,185.523,318.2,172.289,312.3,168.873Z" transform="translate(9.084 0.003)" fill="#a24a92"/>
      <path id="Trazado_186290" data-name="Trazado 186290" d="M253.588,178.361l-.381-3.842a48.2,48.2,0,0,1,.137,5.276Q253.465,179.079,253.588,178.361Z" transform="translate(16.585 3.362)" fill="#6b392f"/>
      <path id="Trazado_186291" data-name="Trazado 186291" d="M303.768,168.857c-16.617-10.742-31.2-15.36-43.831-16.081,1.16.89,2.5,2.058,4.554,3.848,7.323,6.394,9.169,16.035,9.948,25.129.674,7.863-2.436,15.626-4,23.239-1.073,5.222-4.868,10.2-9.241,13.8a44.825,44.825,0,0,0,19.288-9.762v8.359a24.238,24.238,0,0,0,13.548-10.466c3.378,6.685,3.289,19.75,2.836,26.566,0,0,17.376-8.446,19.612-27.767C318.82,185.508,309.659,172.274,303.768,168.857Z" transform="translate(17.62 0.018)" fill="#953183"/>
      <path id="Trazado_186292" data-name="Trazado 186292" d="M219.089,208.775l.077,2.026c.067,1.273.151,3.075.4,5.138a19.866,19.866,0,0,0,1.676,6.373,8.847,8.847,0,0,0,.834,1.325,6.122,6.122,0,0,0,1.038,1,5.844,5.844,0,0,0,2.716,1.078l.533.084c.143.014.228.007.345.016a4.685,4.685,0,0,0,.735,0,8.936,8.936,0,0,0,1.578-.223,11.731,11.731,0,0,0,3.074-1.344,26.324,26.324,0,0,0,5.147-4.381c1.431-1.52,2.579-2.908,3.394-3.888l1.273-1.577a13.935,13.935,0,0,1-.378,2.021,23.976,23.976,0,0,1-1.9,5.1,19.633,19.633,0,0,1-4.92,6.322,13.334,13.334,0,0,1-4.312,2.413,11.385,11.385,0,0,1-2.628.518,9.561,9.561,0,0,1-1.418.017c-.242-.013-.518-.025-.733-.047l-.534-.076a9.7,9.7,0,0,1-7.953-6.691,14.616,14.616,0,0,1-.742-4.384,20.6,20.6,0,0,1,.282-3.744,23.312,23.312,0,0,1,1.514-5.236A14.084,14.084,0,0,1,219.089,208.775Z" transform="translate(10.923 8.63)" fill="#3e352d"/>
      <path id="Trazado_186293" data-name="Trazado 186293" d="M260.463,215.816l.241,2.012c.17,1.263.4,3.053.818,5.088a19.825,19.825,0,0,0,2.188,6.217,8.861,8.861,0,0,0,.938,1.253,6.225,6.225,0,0,0,1.117.917,5.852,5.852,0,0,0,2.794.853l.539.042c.143,0,.228-.013.345-.013a4.526,4.526,0,0,0,.733-.058,9.019,9.019,0,0,0,1.555-.348,11.758,11.758,0,0,0,2.955-1.59,26.3,26.3,0,0,0,4.774-4.785c1.3-1.629,2.335-3.106,3.068-4.149l1.14-1.676a13.725,13.725,0,0,1-.214,2.046,23.958,23.958,0,0,1-1.479,5.24,19.651,19.651,0,0,1-4.392,6.7,13.318,13.318,0,0,1-4.1,2.754,11.314,11.314,0,0,1-2.578.729,9.556,9.556,0,0,1-1.413.133c-.242.007-.518.016-.733.013l-.54-.032a9.694,9.694,0,0,1-8.468-6.025,14.62,14.62,0,0,1-1.1-4.309,20.587,20.587,0,0,1-.023-3.754,23.38,23.38,0,0,1,1.085-5.341A14.066,14.066,0,0,1,260.463,215.816Z" transform="translate(17.407 9.713)" fill="#3e352d"/>
      <path id="Trazado_186294" data-name="Trazado 186294" d="M248.089,227.143s-5.109-6.6-6.677-.675c-.853,3.222-4.764,5.15-6.8,5.018-5.094-.335-5.142,4.639,0,7.839C242.4,244.172,250.866,234.136,248.089,227.143Z" transform="translate(13.135 10.971)" fill="#f39c64"/>
      <path id="Trazado_186295" data-name="Trazado 186295" d="M238.22,245.095l1.413.263c.436.1.99.147,1.586.271.618.07,1.292.2,2.036.265l1.146.136,1.223.093c.828.1,1.712.061,2.6.13.9-.052,1.817.013,2.74-.091.463-.036.926-.086,1.394-.11s.922-.145,1.384-.212a20.855,20.855,0,0,0,2.728-.563,27.142,27.142,0,0,0,2.594-.8,7.314,7.314,0,0,0,1.22-.478l1.164-.5a17.476,17.476,0,0,0,2.111-1.049l.954-.488a4.808,4.808,0,0,0,.852-.477c.506-.339.982-.61,1.371-.842.781-.462,1.27-.706,1.27-.706s-.243.463-.745,1.239c-.253.387-.557.867-.944,1.389a11.913,11.913,0,0,1-1.45,1.63,12.877,12.877,0,0,1-1.954,1.73l-1.179.826a7.212,7.212,0,0,1-1.3.77c-.457.234-.932.453-1.413.68l-.729.336-.773.24a17.066,17.066,0,0,1-3.19.782c-.547.069-1.09.18-1.636.21s-1.091.028-1.63.04a9.29,9.29,0,0,1-1.6-.073c-.524-.051-1.041-.092-1.544-.166a23.055,23.055,0,0,1-2.842-.674c-.44-.147-.868-.275-1.275-.422l-1.153-.492a19.177,19.177,0,0,1-1.934-1.006,15.85,15.85,0,0,1-1.393-.935A8.266,8.266,0,0,1,238.22,245.095Z" transform="translate(14.28 13.422)" fill="#3e352d"/>
      <g id="Grupo_175895" data-name="Grupo 175895" transform="translate(162.613 294.24)">
        <path id="Trazado_186296" data-name="Trazado 186296" d="M187.44,302.224l2.343-25.2S267.126,326.2,265.451,346.6,187.44,302.224,187.44,302.224Z" transform="translate(-156.143 -275.114)" fill="#fffaef"/>
        <path id="Trazado_186297" data-name="Trazado 186297" d="M180.961,300.565l2.342-25.2s82.208,49.6,80.545,70.008S180.961,300.565,180.961,300.565Z" transform="translate(-157.139 -275.369)" fill="#ffecc2"/>
        <path id="Trazado_186298" data-name="Trazado 186298" d="M176.812,303.872v-25.3s86.463,42.133,86.7,62.6S176.812,303.872,176.812,303.872Z" transform="translate(-157.777 -274.876)" fill="#fffaef"/>
        <path id="Trazado_186299" data-name="Trazado 186299" d="M173.265,306.3V281s86.463,42.134,86.7,62.6S173.265,306.3,173.265,306.3Z" transform="translate(-158.322 -274.504)" fill="#ffecc2"/>
        <path id="Trazado_186300" data-name="Trazado 186300" d="M331.469,313.6l-.767-25.29s-83.353,44.393-82.96,64.858S331.469,313.6,331.469,313.6Z" transform="translate(-146.87 -273.379)" fill="#fffaef"/>
        <path id="Trazado_186301" data-name="Trazado 186301" d="M338.967,312.337l-.767-25.291s-88.421,44.53-88.042,64.995S338.967,312.337,338.967,312.337Z" transform="translate(-146.498 -273.573)" fill="#ffecc2"/>
        <path id="Trazado_186302" data-name="Trazado 186302" d="M343.51,315.869l1.665-25.252s-92.336,36.815-93.925,57.228S343.51,315.869,343.51,315.869Z" transform="translate(-146.333 -273.024)" fill="#fffaef"/>
        <path id="Trazado_186303" data-name="Trazado 186303" d="M347.024,318.5l1.666-25.252s-92.336,36.815-93.926,57.228S347.024,318.5,347.024,318.5Z" transform="translate(-145.792 -272.619)" fill="#ffecc2"/>
        <path id="Trazado_186304" data-name="Trazado 186304" d="M366,301.863l-84.772,33.276-.156.785s.524,1.685-2.2,2.194a47.2,47.2,0,0,1-26.655-3.606c-1.049-.48.428-2.384-.628-2.979L170.44,286.8,165.2,287l76.822,131.253-.249,2.884s9.7,10.7,31.9,4.755l.308-3.07L371.537,302.9Z" transform="translate(-159.562 -273.611)" fill="#372f82"/>
        <path id="Trazado_186305" data-name="Trazado 186305" d="M165.954,286.977l83.418,47.038-4.289,93.448-84.77-42.083Z" transform="translate(-160.314 -273.584)" fill="#372f82"/>
        <path id="Trazado_186306" data-name="Trazado 186306" d="M357.367,300.751,269.573,335.5l-12.23,93.837,92.4-30.319Z" transform="translate(-145.393 -271.466)" fill="#514a92"/>
        <path id="Trazado_186307" data-name="Trazado 186307" d="M238.589,329.376l-8.153,94.7s10.238,11.29,33.655,5.018l9.62-95.958A45.268,45.268,0,0,1,238.589,329.376Z" transform="translate(-149.531 -267.064)" fill="#514a92"/>
        <path id="Trazado_186308" data-name="Trazado 186308" d="M270.826,351.589l.417-4.156c-22.25,4.955-33.055-4.5-34.692-6.106l-.583,6.768A51.344,51.344,0,0,0,270.826,351.589Z" transform="translate(-148.68 -265.226)" fill="#372f82"/>
        <path id="Trazado_186309" data-name="Trazado 186309" d="M269.848,362.943l.417-4.155c-22.249,4.954-33.055-4.5-34.692-6.107l-.583,6.769A51.342,51.342,0,0,0,269.848,362.943Z" transform="translate(-148.83 -263.48)" fill="#372f82"/>
        <path id="Trazado_186310" data-name="Trazado 186310" d="M280.237,355.6l56.027-16.646-4.6,46.411-54.355,15.47Z" transform="translate(-142.322 -265.59)" fill="#372f82"/>
        <path id="Trazado_186311" data-name="Trazado 186311" d="M280.378,339.675l56.027-16.646-2.118,10.9L279.932,349.4Z" transform="translate(-141.919 -268.04)" fill="#372f82"/>
      </g>
      <path id="Trazado_186312" data-name="Trazado 186312" d="M160.123,311.135s.432-6.166,5.154-6.135,16.8,6.167,14.1,8.067-13.463-.279-13.463-.279,13.65,6.556,10,8.116-12.005-.676-12.005-.676,26.059,12.921.178,7.093c0,0,17.671,14.673-2.23,4.94,0,0-5.564-5.092-2.609-9.967C159.256,322.294,154.97,317.271,160.123,311.135Z" transform="translate(1.88 23.427)" fill="#f6b58b"/>
      <path id="Trazado_186313" data-name="Trazado 186313" d="M350.925,329.833s1.31-6.04-3.233-7.331-17.85,1.225-15.8,3.8,13,3.5,13,3.5-14.938,2.478-11.872,4.995S344.74,337.5,344.74,337.5s-28.632,5.121-2.153,6.762c0,0-21.069,9.147.759,5.366,0,0,6.766-3.332,5.292-8.84C348.639,340.79,354.158,337.165,350.925,329.833Z" transform="translate(28.602 26.065)" fill="#f6b58b"/>
    </g>
  </g>
</svg>
