<svg xmlns="http://www.w3.org/2000/svg" xmlns:xlink="http://www.w3.org/1999/xlink" width="1030" height="349" viewBox="0 0 1030 349">
  <defs>
    <clipPath id="clip-path">
      <path id="Rectángulo_45743" data-name="Rectángulo 45743" d="M17,0h996a17,17,0,0,1,17,17V300a0,0,0,0,1,0,0H0a0,0,0,0,1,0,0V17A17,17,0,0,1,17,0Z" transform="translate(285 2147.719)" fill="#3c3fa7"/>
    </clipPath>
    <clipPath id="clip-path-2">
      <rect id="Rectángulo_45745" data-name="Rectángulo 45745" width="1030" height="349" transform="translate(285 2005)" fill="#fff" stroke="#707070" stroke-width="1"/>
    </clipPath>
  </defs>
  <g id="Grupo_177628" data-name="Grupo 177628" transform="translate(-285 -5733)">
    <path id="Rectángulo_45742" data-name="Rectángulo 45742" d="M17,0h996a17,17,0,0,1,17,17V300a0,0,0,0,1,0,0H0a0,0,0,0,1,0,0V17A17,17,0,0,1,17,0Z" transform="translate(285 5781.719)" fill="#3c3fa7"/>
    <rect id="Rectángulo_45744" data-name="Rectángulo 45744" width="1030" height="37" transform="translate(285 6044.719)" fill="#6b8dfc" opacity="0.563"/>
    <g id="Grupo_177627" data-name="Grupo 177627">
      <g id="Enmascarar_grupo_330" data-name="Enmascarar grupo 330" transform="translate(0 3634)" clip-path="url(#clip-path)">
        <g id="Grupo_175903" data-name="Grupo 175903" transform="translate(44.874 2102.86) rotate(-45)">
          <g id="Grupo_175899" data-name="Grupo 175899" transform="translate(12.928 12.719)" style="mix-blend-mode: overlay;isolation: isolate">
            <path id="Trazado_186320" data-name="Trazado 186320" d="M381.065,193.9c-28.706,28.879-58.284,56.782-88.382,84.238,13.755-28.387,28.464-56.374,41.6-85.025,14.888-32.481,32.484-76.637,17.012-109.336-35.257-74.533-136.371,4.587-174.067,44.549-4.014,4.26-7.865,8.692-11.76,13.076,14.244-31.557,27.243-63.91,25.687-97.256-2.139-45.85-44.513-55-82.378-31.983C68.116,36.875,34.5,78.018,6.309,115.281c-23.948,31.649,26.4,58.553,50.15,27.35A456.4,456.4,0,0,1,98.777,94.517q-3.466,5.925-7,11.83C76.2,132.378,60.795,158.5,47.831,185.752c-24.822,52.17-61.317,124.491-35.386,177.071,13.07,26.5,46.444,27.776,72.159,15.625,34.567-16.334,59.516-50.127,83.4-78.849,24.926-29.989,47.117-61.644,70.344-92.813,9.7-13.024,19.41-26.228,30.4-38.3.252-.28.514-.538.765-.812l-.3.825c-6.606,18.035-14.838,35.425-23.169,52.864-15.5,32.446-35.147,66.745-41.852,101.6-5.927,30.82,5.128,64.582,42.636,60.71,35.261-3.639,64.939-38.229,89.447-61.534,29.678-28.227,58.872-56.965,88.071-85.675C454.828,206.49,411.218,163.573,381.065,193.9Z" transform="translate(5.763 5.624)" fill="#3c384f"/>
            <path id="Trazado_186321" data-name="Trazado 186321" d="M248.989,395.17c-13.8.609-25.3-3.645-33.416-12.405-11.277-12.178-15.469-32.638-11.219-54.73,5.541-28.8,19.447-56.772,32.891-83.812,3.22-6.477,6.409-12.89,9.436-19.23,2.87-6.013,5.889-12.33,8.9-18.859q-2.65,3.536-5.248,7.031l-1.719,2.311q-9.053,12.144-17.954,24.349c-16.73,22.806-34.03,46.393-52.6,68.73-2.712,3.262-5.439,6.591-8.2,9.956-21.312,26.021-45.465,55.511-77.4,70.6-28.469,13.438-64.886,11.633-79.416-17.842-26.115-52.947,7.829-124.059,32.617-175.98l2.813-5.9c7.293-15.338,15.373-30.352,23.9-45.318q-2.894,3.631-5.687,7.308C52,170.658,27.766,171.447,12.807,161.062c-12.371-8.589-18.78-25.289-5.2-43.24,30.1-39.778,63.563-80,104.264-104.738C134.461-.642,158.651-3.776,176.6,4.7c15.8,7.464,25.046,23.2,26.029,44.326,1.154,24.772-5.368,48.819-14.292,71.88,30.535-29.447,86.463-71.764,129.626-67.63,19.827,1.909,34.737,13.148,44.315,33.4,15.758,33.3.222,76.314-17.055,113.992-8.223,17.939-17.185,35.865-25.853,53.207l-3.068,6.134c24.5-22.756,46.453-43.916,66.639-64.219v.006c9.98-10.046,22.269-14.117,34.571-11.483a36.9,36.9,0,0,1,27.79,27.121c2.855,12.224-1.17,24.466-11.342,34.464l-3.321,3.261c-27.646,27.185-56.231,55.3-84.827,82.485-3.524,3.354-7.149,6.936-10.888,10.629-22.239,21.957-49.914,49.289-82.237,52.624C251.436,395.028,250.2,395.116,248.989,395.17Zm26.5-227.228a5.127,5.127,0,0,1,2.727.6,5.016,5.016,0,0,1,2.405,6.251l-.3.831c-6.924,18.912-15.67,37.226-23.386,53.384-3.058,6.4-6.278,12.873-9.523,19.4-13.082,26.319-26.613,53.531-31.849,80.753-3.553,18.483-.2,35.972,8.748,45.637,6.637,7.168,16.108,10.127,28.184,8.922,27.985-2.892,52.808-27.4,74.709-49.027,3.8-3.747,7.483-7.387,11.06-10.794,28.519-27.117,57.069-55.188,84.678-82.338l3.315-3.26c9-8.843,9.262-17.631,7.906-23.447a26.945,26.945,0,0,0-20.01-19.555c-5.832-1.255-14.617-.879-23.411,7.972v.006c-26.078,26.226-55.063,53.851-88.619,84.45a5.86,5.86,0,0,1-7.2.743,5.256,5.256,0,0,1-1.587-6.746c5.2-10.731,10.534-21.4,15.871-32.071,8.619-17.25,17.536-35.085,25.671-52.835,16.186-35.294,30.855-75.332,16.968-104.679-8.071-17.074-19.846-26.127-36-27.677-40.239-3.86-99.108,41.6-128.836,73.118-3.171,3.355-6.234,6.828-9.3,10.3l-2.32,2.628a5.967,5.967,0,0,1-7.347,1.439,5.216,5.216,0,0,1-1.988-6.8c13.562-30.059,26.679-62.126,25.166-94.623-.813-17.411-7.828-29.726-20.286-35.612-14.531-6.864-34.611-4.024-53.718,7.584C78.374,46.118,45.875,85.24,16.544,124c-9.265,12.249-4.335,22.337,3.374,27.688,10.44,7.241,27.25,7.407,37.854-6.531a465.334,465.334,0,0,1,42.911-48.795,5.877,5.877,0,0,1,7.475-.867,5.323,5.323,0,0,1,1.274,7.119q-3.484,5.951-7.035,11.882c-15.769,26.359-30.981,52.229-43.662,78.883l-2.82,5.916C32.132,249.113-.431,317.341,23.394,365.651c11.573,23.467,41.408,24.492,64.9,13.4,29.312-13.845,51.491-40.923,72.936-67.113,2.774-3.382,5.525-6.741,8.261-10.026,18.318-22.041,35.5-45.466,52.118-68.121q8.962-12.224,18.009-24.425l1.719-2.305c9.111-12.237,18.53-24.885,29.08-36.479l.532-.567A6.878,6.878,0,0,1,275.493,167.941Zm111.349,31.59.051,0Z" transform="translate(-0.008 -0.009)" fill="#3c384f"/>
            <path id="Trazado_186322" data-name="Trazado 186322" d="M27.611,3.054C4.748,45.532-9.286,94.767,7.166,138.613c2.429,6.485,13.589,3.108,11.125-3.471C2.851,93.974,15.7,48.236,37.2,8.282,40.752,1.7,31.174-3.567,27.611,3.054Z" transform="translate(24.531 216.659)" fill="#3c384f"/>
            <path id="Trazado_186323" data-name="Trazado 186323" d="M16.413,29.871c-.1-.007-.186-.031-.277-.044-.146-.3-.274-.621-.321-.708l-.027-.032c-.009-.044.006-.011-.008-.078-.623-2.476-1.034-4.99-1.478-7.518q-1.535-8.8-3.075-17.591C10.73,1.053,7.242-.731,4.392.291A6.305,6.305,0,0,0,.1,7.37q1.739,9.946,3.484,19.9c.965,5.519,2.581,12.746,9.315,13.563,2.909.353,6.316-1.035,7.188-4.232C20.832,33.86,19.537,30.249,16.413,29.871Z" transform="translate(47.734 307.531)" fill="#3c384f"/>
            <path id="Trazado_186324" data-name="Trazado 186324" d="M22.5.6C16.177-2.517,9.98,7.423,16.309,10.544,25.049,14.852,27.35,24.306,27.282,33.7c-.068,10.662-1.78,21.692-4.013,32.287A229.062,229.062,0,0,1,.781,127.14c-3.544,6.592,6.029,11.849,9.591,5.228A240.07,240.07,0,0,0,35.684,60.394C39.275,40.05,43.782,11.091,22.5.6Z" transform="translate(303.364 86.336)" fill="#3c384f"/>
          </g>
          <g id="Grupo_175902" data-name="Grupo 175902" transform="translate(0.008 0.009)">
            <g id="Grupo_175901" data-name="Grupo 175901" transform="translate(0)">
              <g id="Grupo_175900" data-name="Grupo 175900">
                <path id="Trazado_186325" data-name="Trazado 186325" d="M381.07,193.9c-28.706,28.879-58.284,56.782-88.387,84.233,13.754-28.382,28.47-56.374,41.6-85.02,14.888-32.481,32.479-76.636,17.012-109.335-35.257-74.533-136.37,4.581-174.067,44.549-4.02,4.255-7.865,8.687-11.76,13.076,14.238-31.556,27.237-63.909,25.687-97.256-2.139-45.85-44.513-55-82.378-31.988C68.116,36.877,34.508,78.019,6.309,115.282c-23.948,31.649,26.4,58.553,50.156,27.349A456.985,456.985,0,0,1,98.777,94.513q-3.466,5.925-6.994,11.835C76.205,132.379,60.8,158.5,47.836,185.748,23.008,237.923-13.481,310.239,12.45,362.825c13.07,26.5,46.439,27.777,72.159,15.625,34.567-16.334,59.516-50.127,83.4-78.848,24.926-29.989,47.111-61.644,70.338-92.813,9.71-13.025,19.416-26.229,30.4-38.3.251-.274.519-.532.77-.812l-.3.831c-6.606,18.035-14.844,35.425-23.169,52.864-15.5,32.441-35.147,66.74-41.852,101.6-5.933,30.82,5.128,64.582,42.636,60.71,35.255-3.639,64.934-38.228,89.441-61.534,29.684-28.227,58.878-56.971,88.077-85.681C454.827,206.492,411.218,163.575,381.07,193.9Z" transform="translate(5.758 5.623)" fill="#6b8dfc"/>
                <path id="Trazado_186326" data-name="Trazado 186326" d="M248.983,395.164c-13.8.609-25.3-3.639-33.41-12.4-11.277-12.178-15.469-32.637-11.219-54.736,5.535-28.8,19.441-56.766,32.891-83.812,3.214-6.476,6.4-12.884,9.435-19.224,2.869-6.013,5.889-12.33,8.9-18.859-1.767,2.352-3.516,4.7-5.248,7.031l-1.719,2.3c-6.035,8.1-12,16.229-17.96,24.35-16.725,22.811-34.025,46.4-52.595,68.73q-4.069,4.9-8.2,9.962c-21.312,26.015-45.465,55.505-77.4,70.6-28.475,13.438-64.886,11.628-79.416-17.848-26.115-52.942,7.829-124.053,32.611-175.98l2.819-5.9c7.293-15.338,15.373-30.352,23.9-45.318q-2.885,3.63-5.687,7.3c-14.678,19.293-38.917,20.082-53.875,9.7-12.371-8.589-18.78-25.289-5.2-43.24,30.1-39.778,63.563-80,104.258-104.743C134.461-.642,158.645-3.776,176.6,4.7c15.8,7.464,25.041,23.2,26.029,44.32,1.154,24.772-5.368,48.825-14.3,71.88,30.54-29.441,86.463-71.759,129.625-67.625,19.827,1.909,34.742,13.147,44.321,33.4,15.752,33.3.216,76.309-17.055,113.992-8.223,17.933-17.185,35.864-25.853,53.2L316.3,260c24.5-22.751,46.453-43.91,66.639-64.214h0c9.98-10.046,22.269-14.111,34.571-11.478a36.88,36.88,0,0,1,27.784,27.121c2.86,12.224-1.164,24.46-11.336,34.458l-3.321,3.266c-27.646,27.185-56.231,55.291-84.827,82.485-3.524,3.354-7.149,6.936-10.894,10.629-22.234,21.956-49.909,49.289-82.232,52.624C251.43,395.023,250.2,395.111,248.983,395.164Zm26.5-227.228a5.118,5.118,0,0,1,2.726.608,5.01,5.01,0,0,1,2.411,6.251l-.3.831c-6.923,18.906-15.67,37.226-23.386,53.383-3.057,6.4-6.277,12.868-9.523,19.4-13.087,26.319-26.618,53.532-31.855,80.748-3.553,18.483-.2,35.972,8.753,45.642,6.632,7.162,16.108,10.127,28.184,8.922,27.985-2.892,52.808-27.4,74.7-49.027,3.8-3.752,7.488-7.393,11.066-10.794,28.519-27.117,57.068-55.188,84.678-82.338l3.315-3.266c8.993-8.837,9.261-17.626,7.9-23.447a26.929,26.929,0,0,0-20.01-19.55c-5.827-1.255-14.611-.879-23.405,7.972h0c-26.078,26.226-55.063,53.851-88.619,84.456a5.861,5.861,0,0,1-7.2.743,5.25,5.25,0,0,1-1.587-6.746c5.2-10.731,10.534-21.4,15.866-32.076,8.624-17.245,17.536-35.079,25.677-52.829,16.181-35.294,30.855-75.332,16.968-104.685-8.076-17.068-19.852-26.121-36-27.677-40.239-3.854-99.113,41.6-128.842,73.118-3.166,3.36-6.229,6.833-9.3,10.3l-2.326,2.634a5.958,5.958,0,0,1-7.341,1.438,5.222,5.222,0,0,1-1.993-6.807c13.568-30.054,26.685-62.126,25.171-94.618C190.412,33.111,183.4,20.8,170.939,14.91c-14.536-6.858-34.611-4.018-53.718,7.59C78.368,46.113,45.875,85.24,16.544,124c-9.271,12.249-4.335,22.332,3.374,27.682,10.44,7.247,27.25,7.412,37.854-6.526a464.179,464.179,0,0,1,42.911-48.795,5.87,5.87,0,0,1,7.469-.867,5.312,5.312,0,0,1,1.274,7.113q-3.484,5.959-7.03,11.887c-15.774,26.359-30.981,52.228-43.668,78.883L55.91,199.3C32.132,249.113-.431,317.341,23.394,365.645c11.573,23.473,41.408,24.5,64.9,13.408,29.312-13.845,51.491-40.929,72.936-67.113q4.162-5.082,8.255-10.031c18.323-22.036,35.5-45.46,52.123-68.116q8.963-12.225,18.009-24.43l1.719-2.3c9.111-12.237,18.531-24.89,29.075-36.479l.537-.567A6.872,6.872,0,0,1,275.488,167.936Zm111.349,31.6.057,0Z" transform="translate(-0.008 -0.009)"/>
              </g>
              <path id="Trazado_186327" data-name="Trazado 186327" d="M27.614,3.055C4.746,45.533-9.283,94.762,7.163,138.615c2.435,6.479,13.595,3.108,11.13-3.471C2.848,93.97,15.7,48.237,37.206,8.283,40.75,1.692,31.177-3.566,27.614,3.055Z" transform="translate(24.528 216.658)"/>
              <path id="Trazado_186328" data-name="Trazado 186328" d="M16.413,29.871c-.1-.007-.186-.031-.277-.044-.146-.3-.279-.621-.327-.708l-.021-.033c-.009-.044.006-.017-.008-.084-.623-2.471-1.039-4.989-1.478-7.513Q12.76,12.695,11.228,3.9C10.73,1.053,7.242-.731,4.386.291A6.3,6.3,0,0,0,.1,7.369L3.576,27.262c.97,5.524,2.586,12.751,9.32,13.569,2.909.348,6.316-1.035,7.188-4.232C20.832,33.86,19.532,30.249,16.413,29.871Z" transform="translate(47.734 307.531)"/>
              <path id="Trazado_186329" data-name="Trazado 186329" d="M22.5.6c-6.318-3.115-12.521,6.825-6.186,9.946C25.05,14.852,27.346,24.306,27.284,33.69c-.068,10.662-1.78,21.7-4.013,32.293A229.064,229.064,0,0,1,.783,127.14c-3.55,6.592,6.029,11.849,9.591,5.228A240.32,240.32,0,0,0,35.686,60.394C39.277,40.044,43.784,11.085,22.5.6Z" transform="translate(303.362 86.336)"/>
            </g>
          </g>
        </g>
        <g id="Grupo_175908" data-name="Grupo 175908" transform="translate(1571.336 2492.029) rotate(135)">
          <g id="Grupo_175904" data-name="Grupo 175904" transform="translate(12.928 12.719)" style="mix-blend-mode: overlay;isolation: isolate">
            <path id="Trazado_186330" data-name="Trazado 186330" d="M381.065,193.9c-28.706,28.879-58.284,56.782-88.382,84.238,13.755-28.387,28.464-56.374,41.6-85.025,14.888-32.481,32.484-76.637,17.012-109.336-35.257-74.533-136.371,4.587-174.067,44.549-4.014,4.26-7.865,8.692-11.76,13.076,14.244-31.557,27.243-63.91,25.687-97.256-2.139-45.85-44.513-55-82.378-31.983C68.116,36.875,34.5,78.018,6.309,115.281c-23.948,31.649,26.4,58.553,50.15,27.35A456.4,456.4,0,0,1,98.777,94.517q-3.466,5.925-7,11.83C76.2,132.378,60.795,158.5,47.831,185.752c-24.822,52.17-61.317,124.491-35.386,177.071,13.07,26.5,46.444,27.776,72.159,15.625,34.567-16.334,59.516-50.127,83.4-78.849,24.926-29.989,47.117-61.644,70.344-92.813,9.7-13.024,19.41-26.228,30.4-38.3.252-.28.514-.538.765-.812l-.3.825c-6.606,18.035-14.838,35.425-23.169,52.864-15.5,32.446-35.147,66.745-41.852,101.6-5.927,30.82,5.128,64.582,42.636,60.71,35.261-3.639,64.939-38.229,89.447-61.534,29.678-28.227,58.872-56.965,88.071-85.675C454.828,206.49,411.218,163.573,381.065,193.9Z" transform="translate(5.763 5.624)" fill="#3c384f"/>
            <path id="Trazado_186331" data-name="Trazado 186331" d="M248.989,395.17c-13.8.609-25.3-3.645-33.416-12.405-11.277-12.178-15.469-32.638-11.219-54.73,5.541-28.8,19.447-56.772,32.891-83.812,3.22-6.477,6.409-12.89,9.436-19.23,2.87-6.013,5.889-12.33,8.9-18.859q-2.65,3.536-5.248,7.031l-1.719,2.311q-9.053,12.144-17.954,24.349c-16.73,22.806-34.03,46.393-52.6,68.73-2.712,3.262-5.439,6.591-8.2,9.956-21.312,26.021-45.465,55.511-77.4,70.6-28.469,13.438-64.886,11.633-79.416-17.842-26.115-52.947,7.829-124.059,32.617-175.98l2.813-5.9c7.293-15.338,15.373-30.352,23.9-45.318q-2.894,3.631-5.687,7.308C52,170.658,27.766,171.447,12.807,161.062c-12.371-8.589-18.78-25.289-5.2-43.24,30.1-39.778,63.563-80,104.264-104.738C134.461-.642,158.651-3.776,176.6,4.7c15.8,7.464,25.046,23.2,26.029,44.326,1.154,24.772-5.368,48.819-14.292,71.88,30.535-29.447,86.463-71.764,129.626-67.63,19.827,1.909,34.737,13.148,44.315,33.4,15.758,33.3.222,76.314-17.055,113.992-8.223,17.939-17.185,35.865-25.853,53.207l-3.068,6.134c24.5-22.756,46.453-43.916,66.639-64.219v.006c9.98-10.046,22.269-14.117,34.571-11.483a36.9,36.9,0,0,1,27.79,27.121c2.855,12.224-1.17,24.466-11.342,34.464l-3.321,3.261c-27.646,27.185-56.231,55.3-84.827,82.485-3.524,3.354-7.149,6.936-10.888,10.629-22.239,21.957-49.914,49.289-82.237,52.624C251.436,395.028,250.2,395.116,248.989,395.17Zm26.5-227.228a5.127,5.127,0,0,1,2.727.6,5.016,5.016,0,0,1,2.405,6.251l-.3.831c-6.924,18.912-15.67,37.226-23.386,53.384-3.058,6.4-6.278,12.873-9.523,19.4-13.082,26.319-26.613,53.531-31.849,80.753-3.553,18.483-.2,35.972,8.748,45.637,6.637,7.168,16.108,10.127,28.184,8.922,27.985-2.892,52.808-27.4,74.709-49.027,3.8-3.747,7.483-7.387,11.06-10.794,28.519-27.117,57.069-55.188,84.678-82.338l3.315-3.26c9-8.843,9.262-17.631,7.906-23.447a26.945,26.945,0,0,0-20.01-19.555c-5.832-1.255-14.617-.879-23.411,7.972v.006c-26.078,26.226-55.063,53.851-88.619,84.45a5.86,5.86,0,0,1-7.2.743,5.256,5.256,0,0,1-1.587-6.746c5.2-10.731,10.534-21.4,15.871-32.071,8.619-17.25,17.536-35.085,25.671-52.835,16.186-35.294,30.855-75.332,16.968-104.679-8.071-17.074-19.846-26.127-36-27.677-40.239-3.86-99.108,41.6-128.836,73.118-3.171,3.355-6.234,6.828-9.3,10.3l-2.32,2.628a5.967,5.967,0,0,1-7.347,1.439,5.216,5.216,0,0,1-1.988-6.8c13.562-30.059,26.679-62.126,25.166-94.623-.813-17.411-7.828-29.726-20.286-35.612-14.531-6.864-34.611-4.024-53.718,7.584C78.374,46.118,45.875,85.24,16.544,124c-9.265,12.249-4.335,22.337,3.374,27.688,10.44,7.241,27.25,7.407,37.854-6.531a465.334,465.334,0,0,1,42.911-48.795,5.877,5.877,0,0,1,7.475-.867,5.323,5.323,0,0,1,1.274,7.119q-3.484,5.951-7.035,11.882c-15.769,26.359-30.981,52.229-43.662,78.883l-2.82,5.916C32.132,249.113-.431,317.341,23.394,365.651c11.573,23.467,41.408,24.492,64.9,13.4,29.312-13.845,51.491-40.923,72.936-67.113,2.774-3.382,5.525-6.741,8.261-10.026,18.318-22.041,35.5-45.466,52.118-68.121q8.962-12.224,18.009-24.425l1.719-2.305c9.111-12.237,18.53-24.885,29.08-36.479l.532-.567A6.878,6.878,0,0,1,275.493,167.941Zm111.349,31.59.051,0Z" transform="translate(-0.008 -0.009)" fill="#3c384f"/>
            <path id="Trazado_186332" data-name="Trazado 186332" d="M27.611,3.054C4.748,45.532-9.286,94.767,7.166,138.613c2.429,6.485,13.589,3.108,11.125-3.471C2.851,93.974,15.7,48.236,37.2,8.282,40.752,1.7,31.174-3.567,27.611,3.054Z" transform="translate(24.531 216.659)" fill="#3c384f"/>
            <path id="Trazado_186333" data-name="Trazado 186333" d="M16.413,29.871c-.1-.007-.186-.031-.277-.044-.146-.3-.274-.621-.321-.708l-.027-.032c-.009-.044.006-.011-.008-.078-.623-2.476-1.034-4.99-1.478-7.518q-1.535-8.8-3.075-17.591C10.73,1.053,7.242-.731,4.392.291A6.305,6.305,0,0,0,.1,7.37q1.739,9.946,3.484,19.9c.965,5.519,2.581,12.746,9.315,13.563,2.909.353,6.316-1.035,7.188-4.232C20.832,33.86,19.537,30.249,16.413,29.871Z" transform="translate(47.734 307.531)" fill="#3c384f"/>
            <path id="Trazado_186334" data-name="Trazado 186334" d="M22.5.6C16.177-2.517,9.98,7.423,16.309,10.544,25.049,14.852,27.35,24.306,27.282,33.7c-.068,10.662-1.78,21.692-4.013,32.287A229.062,229.062,0,0,1,.781,127.14c-3.544,6.592,6.029,11.849,9.591,5.228A240.07,240.07,0,0,0,35.684,60.394C39.275,40.05,43.782,11.091,22.5.6Z" transform="translate(303.364 86.336)" fill="#3c384f"/>
          </g>
          <g id="Grupo_175907" data-name="Grupo 175907" transform="translate(0.008 0.009)">
            <g id="Grupo_175906" data-name="Grupo 175906" transform="translate(0)">
              <g id="Grupo_175905" data-name="Grupo 175905">
                <path id="Trazado_186335" data-name="Trazado 186335" d="M381.07,193.9c-28.706,28.879-58.284,56.782-88.387,84.233,13.754-28.382,28.47-56.374,41.6-85.02,14.888-32.481,32.479-76.636,17.012-109.335-35.257-74.533-136.37,4.581-174.067,44.549-4.02,4.255-7.865,8.687-11.76,13.076,14.238-31.556,27.237-63.909,25.687-97.256-2.139-45.85-44.513-55-82.378-31.988C68.116,36.877,34.508,78.019,6.309,115.282c-23.948,31.649,26.4,58.553,50.156,27.349A456.985,456.985,0,0,1,98.777,94.513q-3.466,5.925-6.994,11.835C76.205,132.379,60.8,158.5,47.836,185.748,23.008,237.923-13.481,310.239,12.45,362.825c13.07,26.5,46.439,27.777,72.159,15.625,34.567-16.334,59.516-50.127,83.4-78.848,24.926-29.989,47.111-61.644,70.338-92.813,9.71-13.025,19.416-26.229,30.4-38.3.251-.274.519-.532.77-.812l-.3.831c-6.606,18.035-14.844,35.425-23.169,52.864-15.5,32.441-35.147,66.74-41.852,101.6-5.933,30.82,5.128,64.582,42.636,60.71,35.255-3.639,64.934-38.228,89.441-61.534,29.684-28.227,58.878-56.971,88.077-85.681C454.827,206.492,411.218,163.575,381.07,193.9Z" transform="translate(5.758 5.623)" fill="#6b8dfc"/>
                <path id="Trazado_186336" data-name="Trazado 186336" d="M248.983,395.164c-13.8.609-25.3-3.639-33.41-12.4-11.277-12.178-15.469-32.637-11.219-54.736,5.535-28.8,19.441-56.766,32.891-83.812,3.214-6.476,6.4-12.884,9.435-19.224,2.869-6.013,5.889-12.33,8.9-18.859-1.767,2.352-3.516,4.7-5.248,7.031l-1.719,2.3c-6.035,8.1-12,16.229-17.96,24.35-16.725,22.811-34.025,46.4-52.595,68.73q-4.069,4.9-8.2,9.962c-21.312,26.015-45.465,55.505-77.4,70.6-28.475,13.438-64.886,11.628-79.416-17.848-26.115-52.942,7.829-124.053,32.611-175.98l2.819-5.9c7.293-15.338,15.373-30.352,23.9-45.318q-2.885,3.63-5.687,7.3c-14.678,19.293-38.917,20.082-53.875,9.7-12.371-8.589-18.78-25.289-5.2-43.24,30.1-39.778,63.563-80,104.258-104.743C134.461-.642,158.645-3.776,176.6,4.7c15.8,7.464,25.041,23.2,26.029,44.32,1.154,24.772-5.368,48.825-14.3,71.88,30.54-29.441,86.463-71.759,129.625-67.625,19.827,1.909,34.742,13.147,44.321,33.4,15.752,33.3.216,76.309-17.055,113.992-8.223,17.933-17.185,35.864-25.853,53.2L316.3,260c24.5-22.751,46.453-43.91,66.639-64.214h0c9.98-10.046,22.269-14.111,34.571-11.478a36.88,36.88,0,0,1,27.784,27.121c2.86,12.224-1.164,24.46-11.336,34.458l-3.321,3.266c-27.646,27.185-56.231,55.291-84.827,82.485-3.524,3.354-7.149,6.936-10.894,10.629-22.234,21.956-49.909,49.289-82.232,52.624C251.43,395.023,250.2,395.111,248.983,395.164Zm26.5-227.228a5.118,5.118,0,0,1,2.726.608,5.01,5.01,0,0,1,2.411,6.251l-.3.831c-6.923,18.906-15.67,37.226-23.386,53.383-3.057,6.4-6.277,12.868-9.523,19.4-13.087,26.319-26.618,53.532-31.855,80.748-3.553,18.483-.2,35.972,8.753,45.642,6.632,7.162,16.108,10.127,28.184,8.922,27.985-2.892,52.808-27.4,74.7-49.027,3.8-3.752,7.488-7.393,11.066-10.794,28.519-27.117,57.068-55.188,84.678-82.338l3.315-3.266c8.993-8.837,9.261-17.626,7.9-23.447a26.929,26.929,0,0,0-20.01-19.55c-5.827-1.255-14.611-.879-23.405,7.972h0c-26.078,26.226-55.063,53.851-88.619,84.456a5.861,5.861,0,0,1-7.2.743,5.25,5.25,0,0,1-1.587-6.746c5.2-10.731,10.534-21.4,15.866-32.076,8.624-17.245,17.536-35.079,25.677-52.829,16.181-35.294,30.855-75.332,16.968-104.685-8.076-17.068-19.852-26.121-36-27.677-40.239-3.854-99.113,41.6-128.842,73.118-3.166,3.36-6.229,6.833-9.3,10.3l-2.326,2.634a5.958,5.958,0,0,1-7.341,1.438,5.222,5.222,0,0,1-1.993-6.807c13.568-30.054,26.685-62.126,25.171-94.618C190.412,33.111,183.4,20.8,170.939,14.91c-14.536-6.858-34.611-4.018-53.718,7.59C78.368,46.113,45.875,85.24,16.544,124c-9.271,12.249-4.335,22.332,3.374,27.682,10.44,7.247,27.25,7.412,37.854-6.526a464.179,464.179,0,0,1,42.911-48.795,5.87,5.87,0,0,1,7.469-.867,5.312,5.312,0,0,1,1.274,7.113q-3.484,5.959-7.03,11.887c-15.774,26.359-30.981,52.228-43.668,78.883L55.91,199.3C32.132,249.113-.431,317.341,23.394,365.645c11.573,23.473,41.408,24.5,64.9,13.408,29.312-13.845,51.491-40.929,72.936-67.113q4.162-5.082,8.255-10.031c18.323-22.036,35.5-45.46,52.123-68.116q8.963-12.225,18.009-24.43l1.719-2.3c9.111-12.237,18.531-24.89,29.075-36.479l.537-.567A6.872,6.872,0,0,1,275.488,167.936Zm111.349,31.6.057,0Z" transform="translate(-0.008 -0.009)"/>
              </g>
              <path id="Trazado_186337" data-name="Trazado 186337" d="M27.614,3.055C4.746,45.533-9.283,94.762,7.163,138.615c2.435,6.479,13.595,3.108,11.13-3.471C2.848,93.97,15.7,48.237,37.206,8.283,40.75,1.692,31.177-3.566,27.614,3.055Z" transform="translate(24.528 216.658)"/>
              <path id="Trazado_186338" data-name="Trazado 186338" d="M16.413,29.871c-.1-.007-.186-.031-.277-.044-.146-.3-.279-.621-.327-.708l-.021-.033c-.009-.044.006-.017-.008-.084-.623-2.471-1.039-4.989-1.478-7.513Q12.76,12.695,11.228,3.9C10.73,1.053,7.242-.731,4.386.291A6.3,6.3,0,0,0,.1,7.369L3.576,27.262c.97,5.524,2.586,12.751,9.32,13.569,2.909.348,6.316-1.035,7.188-4.232C20.832,33.86,19.532,30.249,16.413,29.871Z" transform="translate(47.734 307.531)"/>
              <path id="Trazado_186339" data-name="Trazado 186339" d="M22.5.6c-6.318-3.115-12.521,6.825-6.186,9.946C25.05,14.852,27.346,24.306,27.284,33.69c-.068,10.662-1.78,21.7-4.013,32.293A229.064,229.064,0,0,1,.783,127.14c-3.55,6.592,6.029,11.849,9.591,5.228A240.32,240.32,0,0,0,35.686,60.394C39.277,40.044,43.784,11.085,22.5.6Z" transform="translate(303.362 86.336)"/>
            </g>
          </g>
        </g>
        <g id="Grupo_175909" data-name="Grupo 175909" transform="translate(212.667 13.258)">
          <path id="Trazado_186340" data-name="Trazado 186340" d="M611.508,159.8C606.855,80.8,551.624,5.37,476.823.692,390.908-6.529,312.048,45.164,226.468,45.711c-43.639,4.1-84.565-14.228-127.092-20.148C3.324,21.695-11.311,145.539,6.6,225.365,82.15,601.7,616.739,550.495,611.508,159.8Z" transform="matrix(0.799, 0.602, -0.602, 0.799, 535.028, 2110.019)" fill="#6b8dfc"/>
          <path id="Trazado_186341" data-name="Trazado 186341" d="M.035,154.006C4.373,77.87,55.859,5.175,125.587.667c80.088-6.959,153.6,42.859,233.376,43.386,40.68,3.956,78.83-13.712,118.473-19.417,89.538-3.728,103.18,115.624,86.481,192.555C493.494,579.873-4.841,530.528.035,154.006Z" transform="translate(1243.283 2373.271) rotate(-171)" fill="#3c3fa7" opacity="0.388" style="mix-blend-mode: multiply;isolation: isolate"/>
          <path id="Trazado_186342" data-name="Trazado 186342" d="M.035,154.006C4.373,77.87,55.859,5.175,125.587.667c80.088-6.959,153.6,42.859,233.376,43.386,40.68,3.956,78.83-13.712,118.473-19.417,89.538-3.728,103.18,115.624,86.481,192.555C493.494,579.873-4.841,530.528.035,154.006Z" transform="matrix(0.995, 0.105, -0.105, 0.995, -14.178, 2176.616)" fill="#3c3fa7" opacity="0.388" style="mix-blend-mode: multiply;isolation: isolate"/>
        </g>
      </g>
      <g id="Enmascarar_grupo_331" data-name="Enmascarar grupo 331" transform="translate(0 3728)" clip-path="url(#clip-path-2)">
        <g id="Grupo_177192" data-name="Grupo 177192" transform="translate(521.478 1885.145)">
          <g id="Grupo_177183" data-name="Grupo 177183" transform="translate(143 -144)">
            <g id="Grupo_177177" data-name="Grupo 177177">
              <path id="Trazado_187288" data-name="Trazado 187288" d="M533.433,858.534c9.751,0,17.7-7.459,17.7-16.6s-7.95-16.608-17.7-16.608-17.7,7.46-17.7,16.608S523.686,858.534,533.433,858.534Z" fill="#536fb4" fill-rule="evenodd"/>
              <path id="Trazado_187289" data-name="Trazado 187289" d="M433.347,858.1c9.75,0,17.7-7.461,17.7-16.607s-7.947-16.612-17.7-16.612-17.7,7.463-17.7,16.612S423.6,858.1,433.347,858.1Z" fill="#536fb4" fill-rule="evenodd"/>
              <path id="Trazado_187290" data-name="Trazado 187290" d="M533.433,849.578a7.665,7.665,0,1,0-8.15-7.649A7.929,7.929,0,0,0,533.433,849.578Z" fill="#fff" fill-rule="evenodd"/>
              <path id="Trazado_187291" data-name="Trazado 187291" d="M432.471,848.7a7.663,7.663,0,1,0-8.15-7.646A7.925,7.925,0,0,0,432.471,848.7Z" fill="#fff" fill-rule="evenodd"/>
              <rect id="Rectángulo_45890" data-name="Rectángulo 45890" width="7.43" height="43.32" transform="translate(451.97 529.823)" fill="#343434"/>
              <rect id="Rectángulo_45891" data-name="Rectángulo 45891" width="7.426" height="43.32" transform="translate(519.279 529.823)" fill="#343434"/>
              <path id="Trazado_187292" data-name="Trazado 187292" d="M423.448,570.531h130.08a23.99,23.99,0,0,1,23.924,23.919V802.273A24,24,0,0,1,553.528,826.2H423.448a23.994,23.994,0,0,1-23.923-23.924V594.45A23.989,23.989,0,0,1,423.448,570.531Z" fill="#d75656" fill-rule="evenodd"/>
              <g id="Grupo_177173" data-name="Grupo 177173">
                <path id="Trazado_187293" data-name="Trazado 187293" d="M440.555,607.213h0a4.122,4.122,0,0,1,4.11,4.112V785.506a4.123,4.123,0,0,1-4.11,4.114h0a4.124,4.124,0,0,1-4.111-4.114V611.325A4.123,4.123,0,0,1,440.555,607.213Z" fill="#a92324" fill-rule="evenodd"/>
                <path id="Trazado_187294" data-name="Trazado 187294" d="M440.555,607.213a4.127,4.127,0,0,0-4.031,3.306,4.1,4.1,0,0,1,6.41,3.4V788.107a4.186,4.186,0,0,1-.081.8,4.12,4.12,0,0,0,1.812-3.406V611.325A4.122,4.122,0,0,0,440.555,607.213Z" fill="#d492a2" fill-rule="evenodd"/>
              </g>
              <g id="Grupo_177174" data-name="Grupo 177174">
                <path id="Trazado_187295" data-name="Trazado 187295" d="M471.753,607.213h0a4.128,4.128,0,0,1,4.116,4.112V785.506a4.129,4.129,0,0,1-4.116,4.114h0a4.127,4.127,0,0,1-4.115-4.114V611.325A4.126,4.126,0,0,1,471.753,607.213Z" fill="#a92324" fill-rule="evenodd"/>
                <path id="Trazado_187296" data-name="Trazado 187296" d="M471.753,607.213a4.131,4.131,0,0,0-4.034,3.306,4.106,4.106,0,0,1,6.413,3.4V788.107a4.265,4.265,0,0,1-.078.8,4.125,4.125,0,0,0,1.815-3.406V611.325A4.128,4.128,0,0,0,471.753,607.213Z" fill="#d492a2" fill-rule="evenodd"/>
              </g>
              <path id="Trazado_187297" data-name="Trazado 187297" d="M448.253,522.017h83.481a5.918,5.918,0,0,1,5.9,5.9h0a5.916,5.916,0,0,1-5.9,5.9H448.253a5.916,5.916,0,0,1-5.9-5.9h0A5.918,5.918,0,0,1,448.253,522.017Z" fill="#d75656" fill-rule="evenodd"/>
              <g id="Grupo_177175" data-name="Grupo 177175">
                <path id="Trazado_187298" data-name="Trazado 187298" d="M504.692,607.213h0a4.125,4.125,0,0,1,4.112,4.112V785.506a4.126,4.126,0,0,1-4.112,4.114h0a4.13,4.13,0,0,1-4.118-4.114V611.325A4.129,4.129,0,0,1,504.692,607.213Z" fill="#a92324" fill-rule="evenodd"/>
                <path id="Trazado_187299" data-name="Trazado 187299" d="M504.692,607.213a4.128,4.128,0,0,0-4.033,3.306,4.106,4.106,0,0,1,6.412,3.4V788.107a4.032,4.032,0,0,1-.081.8,4.119,4.119,0,0,0,1.814-3.406V611.325A4.125,4.125,0,0,0,504.692,607.213Z" fill="#d492a2" fill-rule="evenodd"/>
              </g>
              <g id="Grupo_177176" data-name="Grupo 177176">
                <path id="Trazado_187300" data-name="Trazado 187300" d="M535.893,607.213h0a4.128,4.128,0,0,1,4.118,4.112V785.506a4.129,4.129,0,0,1-4.118,4.114h0a4.125,4.125,0,0,1-4.112-4.114V611.325A4.124,4.124,0,0,1,535.893,607.213Z" fill="#a92324" fill-rule="evenodd"/>
                <path id="Trazado_187301" data-name="Trazado 187301" d="M535.893,607.213a4.125,4.125,0,0,0-4.029,3.306,4.106,4.106,0,0,1,6.413,3.4V788.107a4.108,4.108,0,0,1-.083.8,4.125,4.125,0,0,0,1.817-3.406V611.325A4.128,4.128,0,0,0,535.893,607.213Z" fill="#d492a2" fill-rule="evenodd"/>
              </g>
            </g>
            <g id="Grupo_177180" data-name="Grupo 177180">
              <path id="Trazado_187302" data-name="Trazado 187302" d="M495.245,602.57a30,30,0,1,1-37.889-19.09A30,30,0,0,1,495.245,602.57Z" fill="#fff"/>
              <path id="Trazado_187303" data-name="Trazado 187303" d="M491.271,603.88a25.813,25.813,0,1,1-32.6-16.428A25.814,25.814,0,0,1,491.271,603.88Z" fill="#536fb4"/>
              <g id="Grupo_177179" data-name="Grupo 177179">
                <g id="Grupo_177178" data-name="Grupo 177178">
                  <path id="Trazado_187304" data-name="Trazado 187304" d="M458.36,605.987a13.248,13.248,0,0,0-2.394.9,6.248,6.248,0,0,1,.016-.635,3.03,3.03,0,0,0-.694.983,23.412,23.412,0,0,0-2.6,1.655c-.044-.228-.064-.432-.082-.609a3.032,3.032,0,0,0-.52,1.054c-.877.667-1.656,1.32-2.3,1.863.031-4.741,3.306-7.528,8.753-6.891-3.52-3.945-3.136-8.073.587-10.724-.069.811-.154,1.788-.193,2.848a2.914,2.914,0,0,0-.544.995c.149-.084.321-.182.525-.273a22.761,22.761,0,0,0,.136,2.971,2.908,2.908,0,0,0-.391,1.092,5.725,5.725,0,0,1,.493-.365,12.53,12.53,0,0,0,.666,2.521c.029-4.907,3.67-8.006,8.654-7.292-.873.844-1.79,1.712-2.647,2.564a1.953,1.953,0,0,0-1.228.239,4.435,4.435,0,0,1,.668.33c-.6.611-1.2,1.252-1.73,1.87a2.4,2.4,0,0,0-1.289.646,4,4,0,0,1,.666.132,14.1,14.1,0,0,0-1.5,2.33c2.561-3.094,7.774-5.776,12.015-1.836-1.152.31-2.485.646-3.863,1a2.986,2.986,0,0,0-1.233-.478c.151.171.319.4.5.654-.937.244-1.836.493-2.746.749a1.994,1.994,0,0,0-.756-.486,4.286,4.286,0,0,1,.257.633c-.967.277-1.874.557-2.678.836a26.546,26.546,0,0,1,6.788,3.623,3.06,3.06,0,0,0-.294.729,4.8,4.8,0,0,1,.735-.4,26.118,26.118,0,0,1,5.751,6.16c.113.167.223.336.33.505a3.308,3.308,0,0,0-.754.716,4.845,4.845,0,0,1,1.15-.074,26.12,26.12,0,0,1,3.56,10.675q-2.014.559-4.071,1.272a23.473,23.473,0,0,0-.616-5.876,3.828,3.828,0,0,1,.848-.471,2.633,2.633,0,0,0-1.009-.173,23.41,23.41,0,0,0-3.185-7.03q-.354-.531-.733-1.034a4.77,4.77,0,0,1,.489-.714,3.169,3.169,0,0,0-.845.25,23.34,23.34,0,0,0-5.108-4.785,5.058,5.058,0,0,1,.215-.588,2.88,2.88,0,0,0-.58.341,23.538,23.538,0,0,0-3.455-1.883c.294.835.661,1.763,1.071,2.741a4.426,4.426,0,0,1-.654.2,1.989,1.989,0,0,0,.851.286c.37.869.74,1.726,1.136,2.61-.311.016-.6.03-.825.018a3,3,0,0,0,1.145.664c.584,1.3,1.156,2.547,1.636,3.64-5.517-.812-6.807-6.173-6.169-10.082a14.483,14.483,0,0,0-.8,2.407,3.923,3.923,0,0,1-.516-.44,2.4,2.4,0,0,0,.293,1.411c-.157.794-.284,1.666-.392,2.512a4.523,4.523,0,0,1-.673-.318,1.941,1.941,0,0,0,.574,1.108c-.137,1.2-.247,2.455-.368,3.662C454.919,613.6,454.945,609.055,458.36,605.987Z" fill="#fff" fill-rule="evenodd"/>
                  <path id="Trazado_187305" data-name="Trazado 187305" d="M482.966,626.908a28.8,28.8,0,0,0-3.942-11.823,2.9,2.9,0,0,0-.24-.341,2.809,2.809,0,0,0-.2-.366c-.119-.188-.242-.376-.366-.562a28.954,28.954,0,0,0-6.368-6.82,2.816,2.816,0,0,0-.255-.176,2.928,2.928,0,0,0-.236-.194q-.418-.309-.851-.606l1.045-.269c.924-.237,1.8-.461,2.591-.674a2.816,2.816,0,0,0,1.188-4.783,9.969,9.969,0,0,0-4.633-2.5,2.816,2.816,0,0,0-1.836-4.5,10.887,10.887,0,0,0-7,1.192c.016-.2.034-.4.05-.593l.006-.069a2.816,2.816,0,0,0-4.439-2.533,9.344,9.344,0,0,0-4.152,6.6,9.09,9.09,0,0,0,.457,3.934,9.34,9.34,0,0,0-3.738,1.982,9.6,9.6,0,0,0-3.091,7.38,2.817,2.817,0,0,0,4.625,2.177l.055-.047c.422-.353.88-.736,1.376-1.133a10.754,10.754,0,0,0,3.47,6.793,2.833,2.833,0,0,0,2.922.6,2.8,2.8,0,0,0,1.795-2.171,9.968,9.968,0,0,0,4.86,2.057,2.816,2.816,0,0,0,2.988-3.919c-.03-.07-.06-.138-.091-.208.012.014.025.028.038.041.046.075.1.146.146.214.221.3.438.6.646.912a20.624,20.624,0,0,1,2.8,6.188c.026.095.056.187.091.279a2.642,2.642,0,0,0,.052.286,20.7,20.7,0,0,1,.541,5.168,2.819,2.819,0,0,0,3.737,2.724c1.308-.454,2.62-.864,3.9-1.218a2.789,2.789,0,0,0,.813-.369l.007-.005A2.808,2.808,0,0,0,482.966,626.908Z" fill="#fff"/>
                </g>
                <path id="Trazado_187306" data-name="Trazado 187306" d="M458.388,606.02a13.248,13.248,0,0,0-2.394.9,6.25,6.25,0,0,1,.016-.636,3.03,3.03,0,0,0-.694.983,23.512,23.512,0,0,0-2.6,1.655c-.044-.228-.064-.432-.081-.608a3.009,3.009,0,0,0-.521,1.054c-.877.665-1.656,1.32-2.3,1.862.032-4.74,3.307-7.528,8.753-6.891-3.52-3.945-3.136-8.073.587-10.724-.069.812-.154,1.788-.193,2.849a2.9,2.9,0,0,0-.544.994c.149-.084.321-.182.525-.273a22.582,22.582,0,0,0,.137,2.971,2.918,2.918,0,0,0-.392,1.091c.138-.109.3-.238.493-.365a12.58,12.58,0,0,0,.666,2.523c.03-4.907,3.67-8.006,8.654-7.294-.873.846-1.79,1.713-2.647,2.566a1.933,1.933,0,0,0-1.228.238,4.529,4.529,0,0,1,.668.33c-.6.612-1.2,1.252-1.73,1.87a2.4,2.4,0,0,0-1.289.646,4,4,0,0,1,.666.133,14.079,14.079,0,0,0-1.5,2.33c2.561-3.1,7.775-5.776,12.015-1.836-1.152.309-2.485.645-3.862,1a3,3,0,0,0-1.234-.476c.151.169.32.4.5.653-.938.245-1.837.493-2.747.749a2,2,0,0,0-.755-.486,4.148,4.148,0,0,1,.256.634c-.966.277-1.874.557-2.678.835a26.574,26.574,0,0,1,6.789,3.624,3.061,3.061,0,0,0-.3.728,4.929,4.929,0,0,1,.735-.395,26.134,26.134,0,0,1,5.752,6.158c.112.169.222.336.33.507a3.231,3.231,0,0,0-.755.716,4.751,4.751,0,0,1,1.15-.075,26.106,26.106,0,0,1,3.56,10.676q-2.014.558-4.071,1.271a23.463,23.463,0,0,0-.615-5.875,3.721,3.721,0,0,1,.847-.471,2.614,2.614,0,0,0-1.009-.173,23.4,23.4,0,0,0-3.185-7.032q-.354-.529-.733-1.034a4.978,4.978,0,0,1,.489-.713,3.138,3.138,0,0,0-.845.251,23.348,23.348,0,0,0-5.108-4.787,4.959,4.959,0,0,1,.215-.586,2.833,2.833,0,0,0-.58.341,23.43,23.43,0,0,0-3.454-1.884c.293.836.66,1.764,1.07,2.74a4.043,4.043,0,0,1-.655.2,1.982,1.982,0,0,0,.852.285c.37.87.74,1.727,1.136,2.612-.311.014-.6.029-.824.017a3,3,0,0,0,1.144.664c.584,1.3,1.156,2.547,1.637,3.639-5.518-.81-6.808-6.171-6.17-10.08a14.456,14.456,0,0,0-.8,2.407,4.028,4.028,0,0,1-.517-.44,2.392,2.392,0,0,0,.293,1.409c-.158.8-.284,1.667-.392,2.513a4.414,4.414,0,0,1-.673-.318,1.949,1.949,0,0,0,.574,1.109c-.137,1.2-.247,2.454-.368,3.662C454.947,613.631,454.974,609.087,458.388,606.02Z" fill-rule="evenodd"/>
              </g>
            </g>
            <g id="Grupo_177182" data-name="Grupo 177182">
              <g id="Grupo_177181" data-name="Grupo 177181">
                <path id="Trazado_187307" data-name="Trazado 187307" d="M536.23,624.559a19.007,19.007,0,0,0-2.63-2.567,9,9,0,0,1,.837-.366,4.333,4.333,0,0,0-1.7-.3A33.662,33.662,0,0,0,529,618.94c.27-.2.524-.345.743-.475a4.323,4.323,0,0,0-1.688-.036c-1.4-.737-2.725-1.352-3.826-1.864,6.189-2.843,11.808-.277,14.293,7.2,2.992-6.981,8.6-8.992,14.312-5.76-1.1.4-2.421.886-3.824,1.48a4.212,4.212,0,0,0-1.626-.1,8.336,8.336,0,0,1,.674.517,32.9,32.9,0,0,0-3.782,1.985,4.184,4.184,0,0,0-1.659.155,8,8,0,0,1,.775.42,18.064,18.064,0,0,0-2.876,2.4c6.4-2.946,12.65-.094,14.755,6.826-1.631-.623-3.317-1.289-4.949-1.885a2.794,2.794,0,0,0-1.056-1.452,6.613,6.613,0,0,1-.024,1.07c-1.159-.406-2.361-.8-3.486-1.113a3.45,3.45,0,0,0-1.624-1.286,5.859,5.859,0,0,1,.233.948,20.2,20.2,0,0,0-3.947-.538c5.585,1.449,12.246,6.6,9.7,14.517-1.1-1.311-2.352-2.841-3.654-4.416a4.293,4.293,0,0,0-.13-1.9c-.129.3-.329.66-.545,1.051-.889-1.072-1.76-2.09-2.645-3.119a2.87,2.87,0,0,0,.173-1.279,6.066,6.066,0,0,1-.669.72c-.948-1.089-1.864-2.1-2.716-2.977a38.176,38.176,0,0,1-.585,11.038,4.343,4.343,0,0,0-1.127.061,6.9,6.9,0,0,1,.962.715,37.555,37.555,0,0,1-4.516,11.231q-.225.372-.457.737a4.71,4.71,0,0,0-1.391-.546,6.893,6.893,0,0,1,.8,1.451,37.506,37.506,0,0,1-11.725,11.127q-1.953-2.28-4.131-4.524a33.706,33.706,0,0,0,7.271-4.375,5.432,5.432,0,0,1,1.128.816,3.787,3.787,0,0,0-.388-1.418,33.612,33.612,0,0,0,7.21-8.422q.476-.785.9-1.582a6.888,6.888,0,0,1,1.226.2,4.511,4.511,0,0,0-.84-.947,33.514,33.514,0,0,0,3.12-9.559,7.109,7.109,0,0,1,.895-.078,4.059,4.059,0,0,0-.8-.546,33.723,33.723,0,0,0,.35-5.642c-.909.891-1.893,1.933-2.916,3.061a6.17,6.17,0,0,1-.652-.733,2.86,2.86,0,0,0,.146,1.282c-.905,1.01-1.8,2.012-2.706,3.066-.209-.4-.4-.759-.524-1.062a4.288,4.288,0,0,0-.168,1.893c-1.332,1.549-2.611,3.054-3.741,4.344-2.3-7.674,3.891-12.613,9.366-14.161a20.924,20.924,0,0,0-3.617.427,5.705,5.705,0,0,1,.258-.939,3.449,3.449,0,0,0-1.657,1.239c-1.13.279-2.341.645-3.507,1.019a6.48,6.48,0,0,1,0-1.069,2.78,2.78,0,0,0-1.093,1.421c-1.644.551-3.344,1.171-4.989,1.749C524.233,624.711,530.161,621.982,536.23,624.559Z" fill="#fff" fill-rule="evenodd"/>
                <path id="Trazado_187308" data-name="Trazado 187308" d="M523.976,669.3a41.381,41.381,0,0,0,12.987-12.322,4.131,4.131,0,0,0,.3-.521,4.015,4.015,0,0,0,.357-.478q.258-.405.508-.819a41.555,41.555,0,0,0,5-12.434,3.841,3.841,0,0,0,.074-.44,4.075,4.075,0,0,0,.11-.425c.1-.489.189-.981.27-1.475l.986,1.2c.87,1.058,1.693,2.056,2.453,2.96a4.044,4.044,0,0,0,6.947-1.363,14.337,14.337,0,0,0,.437-7.551,4.044,4.044,0,0,0,4.737-5.127,15.636,15.636,0,0,0-5.807-8.377c.273-.1.542-.2.8-.3l.094-.034a4.046,4.046,0,0,0,.595-7.318,13.429,13.429,0,0,0-11.108-1.39,13.037,13.037,0,0,0-4.841,2.989,13.41,13.41,0,0,0-4.853-3.659,13.789,13.789,0,0,0-11.483.468,4.045,4.045,0,0,0-.019,7.342l.1.044c.715.334,1.493.7,2.311,1.1a15.445,15.445,0,0,0-6.729,8.648,4.072,4.072,0,0,0,1,4.165,4.019,4.019,0,0,0,3.917,1.014,14.323,14.323,0,0,0,.281,7.576,4.044,4.044,0,0,0,6.917,1.5l.215-.246c-.011.025-.021.05-.03.076-.069.1-.133.211-.19.319-.251.468-.517.937-.793,1.4a29.645,29.645,0,0,1-6.346,7.413,3.809,3.809,0,0,0-.309.286c-.117.075-.23.155-.34.242a29.728,29.728,0,0,1-6.4,3.849,4.048,4.048,0,0,0-1.271,6.52c1.386,1.426,2.718,2.884,3.955,4.329a4.045,4.045,0,0,0,.975.833l.011.006A4.034,4.034,0,0,0,523.976,669.3Z" fill="#f1cc30"/>
              </g>
              <path id="Trazado_187309" data-name="Trazado 187309" d="M536.2,624.616a19.007,19.007,0,0,0-2.63-2.567,8.789,8.789,0,0,1,.838-.366,4.365,4.365,0,0,0-1.7-.3A33.985,33.985,0,0,0,528.973,619c.269-.2.523-.346.741-.475a4.324,4.324,0,0,0-1.688-.037c-1.4-.736-2.725-1.351-3.824-1.863,6.187-2.843,11.807-.277,14.292,7.2,2.991-6.98,8.6-8.992,14.311-5.76-1.1.4-2.419.887-3.824,1.481a4.145,4.145,0,0,0-1.625-.1c.2.142.432.306.675.516a32.745,32.745,0,0,0-3.783,1.985,4.213,4.213,0,0,0-1.658.154c.226.113.491.243.775.42a18.1,18.1,0,0,0-2.877,2.4c6.4-2.946,12.65-.094,14.755,6.825-1.632-.622-3.318-1.288-4.949-1.884a2.782,2.782,0,0,0-1.057-1.453,6.4,6.4,0,0,1-.023,1.071c-1.159-.406-2.362-.8-3.485-1.114a3.459,3.459,0,0,0-1.626-1.285,5.637,5.637,0,0,1,.233.948,20.258,20.258,0,0,0-3.946-.538c5.584,1.45,12.245,6.6,9.7,14.517-1.1-1.311-2.352-2.841-3.653-4.417a4.318,4.318,0,0,0-.131-1.895c-.128.3-.329.661-.545,1.05-.889-1.071-1.759-2.09-2.646-3.118a2.855,2.855,0,0,0,.173-1.278,6.047,6.047,0,0,1-.668.719c-.949-1.09-1.865-2.1-2.716-2.977a38.178,38.178,0,0,1-.585,11.038,4.407,4.407,0,0,0-1.128.06,6.954,6.954,0,0,1,.962.716,37.508,37.508,0,0,1-4.515,11.23c-.151.249-.3.495-.457.738a4.662,4.662,0,0,0-1.391-.546,6.9,6.9,0,0,1,.8,1.451A37.511,37.511,0,0,1,521.859,665.9q-1.952-2.281-4.13-4.524A33.729,33.729,0,0,0,525,657a5.4,5.4,0,0,1,1.128.816,3.776,3.776,0,0,0-.389-1.418,33.619,33.619,0,0,0,7.212-8.422q.474-.785.9-1.583a7.058,7.058,0,0,1,1.225.2,4.565,4.565,0,0,0-.84-.948,33.52,33.52,0,0,0,3.12-9.558,7.126,7.126,0,0,1,.894-.078,4.139,4.139,0,0,0-.8-.546,33.619,33.619,0,0,0,.349-5.642c-.908.891-1.892,1.933-2.914,3.06a5.936,5.936,0,0,1-.653-.732,2.848,2.848,0,0,0,.147,1.282c-.907,1.009-1.8,2.012-2.707,3.066-.208-.4-.4-.76-.524-1.062a4.316,4.316,0,0,0-.168,1.893c-1.332,1.549-2.611,3.054-3.74,4.343-2.3-7.673,3.89-12.612,9.364-14.16a20.8,20.8,0,0,0-3.616.428,5.691,5.691,0,0,1,.258-.94,3.44,3.44,0,0,0-1.656,1.239c-1.13.278-2.342.644-3.509,1.019a6.262,6.262,0,0,1,.006-1.07A2.791,2.791,0,0,0,527,629.612c-1.645.551-3.345,1.171-4.989,1.749C524.207,624.769,530.135,622.039,536.2,624.616Z" fill-rule="evenodd"/>
            </g>
          </g>
          <g id="Grupo_177191" data-name="Grupo 177191">
            <path id="Trazado_187310" data-name="Trazado 187310" d="M113.779,584.924c-1.724-48.831.42-95.36,5.728-135.689l-12.145-24.228c-8.286,46.49-11.819,102.926-9.26,164.02Z" fill="#e8a327" fill-rule="evenodd"/>
            <path id="Trazado_187311" data-name="Trazado 187311" d="M264.462,174.678A367.912,367.912,0,0,1,305.492,153a53.849,53.849,0,0,0-39.526-17.148c-29.4,0-53.375,23.4-53.375,52.092a50.634,50.634,0,0,0,4.534,20.951A349.4,349.4,0,0,1,264.462,174.678Z" fill="#f1cc30" fill-rule="evenodd"/>
            <path id="Trazado_187312" data-name="Trazado 187312" d="M264.462,174.678a368.025,368.025,0,0,1,41.007-21.665,53.429,53.429,0,0,0-7.782-6.911,372.262,372.262,0,0,0-37.742,20.187,352,352,0,0,0-46.037,33.1,50.722,50.722,0,0,0,3.222,9.5A349.391,349.391,0,0,1,264.462,174.678Z" fill="#d75656" fill-rule="evenodd"/>
            <path id="Trazado_187313" data-name="Trazado 187313" d="M264.462,174.678c53.584-32.63,104.7-46.7,114.175-31.422S352.353,197.367,298.769,230s-104.7,46.7-114.175,31.422S210.879,207.308,264.462,174.678Z" fill="#e8a327" fill-rule="evenodd"/>
            <path id="Trazado_187314" data-name="Trazado 187314" d="M391.225,488.945l-17.18-208.831a17.443,17.443,0,0,0-17.055-16.146,16.991,16.991,0,0,0-10.107-2.31L177.227,276.1a17.534,17.534,0,0,0-15.816,19.029l17.18,208.831a17.443,17.443,0,0,0,17.055,16.146,17,17,0,0,0,10.107,2.311l169.656-14.446A17.532,17.532,0,0,0,391.225,488.945Z" fill="#f1cc30"/>
            <path id="Trazado_187315" data-name="Trazado 187315" d="M162.713,308.557l27.412,2.88-.619-5.125-27.412-2.88Z" fill="#6957c5" fill-rule="evenodd"/>
            <path id="Trazado_187316" data-name="Trazado 187316" d="M399.725,489.945l-17.18-208.831a17.655,17.655,0,0,0-5.41-11.372,17.074,17.074,0,0,0-2.722.014L204.757,284.2a17.533,17.533,0,0,0-15.816,19.029L206.12,512.062c.766,6.291,2.4,8.495,5.411,11.371a17.073,17.073,0,0,0,2.722-.013l169.656-14.446A17.532,17.532,0,0,0,399.725,489.945Z" fill="#e8a327"/>
            <path id="Trazado_187317" data-name="Trazado 187317" d="M346.542,239.27c8.286-35.247-5.911-36.968-23.778-40.935,3.618,11.346,6.845,21.555,7.88,32.795,1.384,11.591-3.9,24.539-16.259,28.22,1.227,8.012,3.734,15.557,6.982,23.757.943-.017,1.925-.021,2.938-.015l-.056-.044c10.789-.4,22.741-1.149,32.312-.021.078.061.243.017.32.079a62.433,62.433,0,0,1,17.785,4.27C381.9,259.184,369.075,239.769,346.542,239.27Z" fill="#b36d48" fill-rule="evenodd"/>
            <path id="Trazado_187318" data-name="Trazado 187318" d="M266.157,235.569a11.915,11.915,0,0,1-3.6.56,11.549,11.549,0,1,1,0-23.1,11.814,11.814,0,0,1,7.249,2.463c11.335-4.254,23.954-15.194,25.919-35.566,7.613,3.421,16.252,2.608,21.3-.642.281,1.044.567,2.066.854,3.082l.307-.583c4.02-5.687,3.935-16.253.513-19.759-25.831,4.277-118.9,72.579-89.3,88.66-25.25,10.773-35.578,43.4-26.615,71.013,12.723-15.454,29.984-27.312,55.63-33.969C264.434,272.234,267.072,252.285,266.157,235.569Z" fill="#b36d48" fill-rule="evenodd"/>
            <path id="Trazado_187319" data-name="Trazado 187319" d="M262.557,236.129a11.874,11.874,0,0,1-4.5-.883c.168.069.336.142.508.2-2.918,2.406-5.8,4.809-8.689,7.214a13.259,13.259,0,0,0,11.274,1.263c.825,15.06.192,29.406-4.625,44.1.569-.155,1.314-.141,1.891-.291,6.021-15.5,8.659-35.448,7.744-52.164A11.915,11.915,0,0,1,262.557,236.129Z" fill="#a54b21" fill-rule="evenodd"/>
            <path id="Trazado_187320" data-name="Trazado 187320" d="M500.2,370.818c17.484-11.1,32.529-21.446,50.147-33.632,2.493-7.4,6.174-12.665,14.248-15.673a149.166,149.166,0,0,1,16.206-4.571c2.505-.5,6.2-3.265,8.732-3.17,17.56.662,18.831,7.859,8.662,21.514-4.314,6.214-11.24,11.239-15.791,5.817l3.8,23.034c-1.267,6.61-6.1,9.656-10.686,12.941-20.054,23.66-38.135,45.743-55.682,66.607C510.052,415.355,504.525,397.565,500.2,370.818Z" fill="#eebfa0" fill-rule="evenodd"/>
            <g id="Grupo_177184" data-name="Grupo 177184">
              <path id="Trazado_187321" data-name="Trazado 187321" d="M575.535,353.062a2.423,2.423,0,0,1-1.829-2.885l3.831-17.325a21.313,21.313,0,0,1-2.683,2.074l-3.637,16.446a2.423,2.423,0,0,0,1.83,2.884l7.335,1.642a2.419,2.419,0,0,0,2.623-1.178c-.045-.008-.09-.007-.134-.017Z" fill="#e69978" fill-rule="evenodd"/>
            </g>
            <g id="Grupo_177185" data-name="Grupo 177185">
              <path id="Trazado_187322" data-name="Trazado 187322" d="M582.424,370.076c-3.6-.566-1.686-6.566-.6-9.153-7.166,4.479-7.315,11.495-.374,11.019a2.176,2.176,0,0,0,.533.033,17.473,17.473,0,0,0,1.587-1.849A6.818,6.818,0,0,1,582.424,370.076Z" fill="#e69978" fill-rule="evenodd"/>
            </g>
            <g id="Grupo_177186" data-name="Grupo 177186">
              <path id="Trazado_187323" data-name="Trazado 187323" d="M584.912,361.218c-3.6-.566-1.337-8.531-.248-11.119-7.539,6.345-7.116,14.261-1.2,13.586.147.031.8-.56,1.005-.568a17.459,17.459,0,0,0,1.587-1.849A6.714,6.714,0,0,1,584.912,361.218Z" fill="#e69978" fill-rule="evenodd"/>
            </g>
            <path id="Trazado_187324" data-name="Trazado 187324" d="M500.2,370.818l.089.058c6.771,25.734,13.135,39.65,25.284,65.97q-2.88,3.441-5.737,6.839C510.052,415.355,504.525,397.565,500.2,370.818Z" fill="#e69978" fill-rule="evenodd"/>
            <g id="Grupo_177187" data-name="Grupo 177187">
              <path id="Trazado_187325" data-name="Trazado 187325" d="M149.3,405.93a40.629,40.629,0,0,0-.281-10.835c-.615-.917-2.2.553-4.863,4.739Q146.729,402.925,149.3,405.93Z" fill="#202020" fill-rule="evenodd"/>
              <path id="Trazado_187326" data-name="Trazado 187326" d="M104.493,493.254a248.994,248.994,0,0,0,21.782-30.518l-6.546-13.06c-8.539,21.873-14.864,39.257-16.1,44.8A6.576,6.576,0,0,1,104.493,493.254Z" fill="#202020" fill-rule="evenodd"/>
            </g>
            <path id="Trazado_187327" data-name="Trazado 187327" d="M378.8,515.312c25.854,65.408,39.5,141.809,50.246,207.557l-98.951-.43c-6.883-16.671-19.145-41.946-26.044-63.6,23.819-46.005,44.13-94.211,61.785-143.768C370.171,515.053,374.5,515.124,378.8,515.312Z" fill="#3b467f" fill-rule="evenodd"/>
            <path id="Trazado_187328" data-name="Trazado 187328" d="M216.868,526.982c-28.375,60.734-46.754,131.782-59.762,195.939l109.829,1.026c39.031-59.969,80.3-137.332,98.85-208.7C303.022,517.17,235.721,549.113,216.868,526.982Z" fill="#536fb4" fill-rule="evenodd"/>
            <path id="Trazado_187329" data-name="Trazado 187329" d="M266.319,611.2q-.318-1.218-.676-2.41c-.212-.7-.437-1.4-.668-2.092-.03-.088-.056-.178-.086-.266-.235-.7-.485-1.384-.74-2.066-.03-.08-.057-.163-.088-.243-.256-.678-.526-1.346-.8-2.01-.034-.08-.065-.162-.1-.243-.278-.66-.567-1.311-.862-1.956-.036-.079-.07-.159-.107-.238-.3-.641-.6-1.272-.917-1.9-.04-.079-.078-.16-.118-.238-.313-.619-.637-1.228-.967-1.831-.045-.081-.087-.163-.132-.244-.329-.6-.668-1.18-1.012-1.758-.05-.084-.1-.17-.15-.254q-.513-.853-1.05-1.68c-.058-.089-.114-.179-.172-.268-.355-.544-.719-1.078-1.087-1.6-.064-.09-.127-.182-.19-.272q-.551-.779-1.121-1.528c-.071-.094-.141-.188-.212-.281q-.568-.741-1.154-1.455l-.227-.276q-.585-.7-1.186-1.383c-.082-.092-.163-.184-.245-.275q-.6-.669-1.216-1.31c-.086-.09-.172-.18-.259-.269q-.615-.633-1.244-1.238l-.275-.261q-.629-.6-1.271-1.166c-.1-.084-.189-.165-.284-.248q-.645-.562-1.3-1.1l-.291-.232q-.661-.529-1.334-1.03c-.094-.07-.189-.138-.284-.207-.454-.331-.91-.654-1.371-.965-.092-.062-.185-.122-.278-.183-.467-.31-.937-.612-1.411-.9-.085-.052-.171-.1-.256-.152-.483-.29-.969-.571-1.459-.838-.075-.041-.15-.079-.225-.119-.5-.271-1.01-.533-1.52-.779l-.157-.073c-.533-.255-1.069-.5-1.608-.726l-.064-.026a32.09,32.09,0,0,0-14.176-2.6c-.067,0-.133,0-.2.007-.442.027-.884.074-1.326.121-.158.017-.317.024-.475.044l-.019.006c-.706.088-1.41.2-2.112.337l-.024-.054-1.606.422-19.454,5.09c-13.627,37.642-24.293,77.232-32.907,115.458l78.483-20.537.027-.025h.051l1.578-.419v-.053C263.374,664.123,273.343,638.083,266.319,611.2Z" fill="#3b467f" fill-rule="evenodd"/>
            <path id="Trazado_187330" data-name="Trazado 187330" d="M211.349,539.165c1.879-4.039,8.937-19.408,10.9-23.351,22.2,17.753,84.058-.421,143.578-.739-.76,2.955-1.4,5.456-2.453,9.167C285.455,527.872,237.7,572.077,211.349,539.165Z" fill="#3b467f" fill-rule="evenodd"/>
            <path id="Trazado_187331" data-name="Trazado 187331" d="M520.369,445.224c-10.274-29.682-14.92-47.249-19.233-74.97-.6-1.643-2.239-.448-3.359.074-17.243,8.51-26.051,13.138-44.846,16.958-22.954-35.223-35.7-61.66-62.214-89.522-5.514-5.891-18.668-13.68-33.835-14.942,32.437,26.2,42.533,81.28,31.249,138.426,9.951,18.146,19.864,33.558,37.493,56.508,9.181,10.844,17.65,14.565,36.806,3.8,17.1-9.5,31.105-17.335,47.252-27.783C518.232,459.155,522.743,450.527,520.369,445.224Z" fill="#437766" fill-rule="evenodd"/>
            <path id="Trazado_187332" data-name="Trazado 187332" d="M447.816,379.327q2.478,3.906,5.115,7.959c24.111-6.47-16.572,4.5-20.839,5.335Z" fill="#3f5847" fill-rule="evenodd"/>
            <path id="Trazado_187333" data-name="Trazado 187333" d="M584.7,362.027a4.208,4.208,0,0,1-2.874-1.012c-3.109,4.337-4.677,8.231.594,9.061,5.1.7,14.913-5.047,11.081-12.2C590.328,360.559,586.26,362.135,584.7,362.027Z" fill="#eebfa0" fill-rule="evenodd"/>
            <path id="Trazado_187334" data-name="Trazado 187334" d="M584.7,362.027a4.217,4.217,0,0,1-2.87-1.008c-.408.57-.8,1.135-1.142,1.684a4.006,4.006,0,0,0,3.042,1.19c1.774.123,6.823-1.943,10.085-5.344a7.3,7.3,0,0,0-.316-.668C590.327,360.56,586.259,362.135,584.7,362.027Z" fill="#e69978" fill-rule="evenodd"/>
            <path id="Trazado_187335" data-name="Trazado 187335" d="M599.181,281.005l-7.335-1.642a2.423,2.423,0,0,0-2.885,1.83l-7.907,35.756c2.918-.373,5.742.819,3.131,6.7a31.15,31.15,0,0,1-6.648,9.2l-3.831,17.325a2.423,2.423,0,0,0,1.829,2.885l7.336,1.641a2.421,2.421,0,0,0,2.884-1.829l15.256-68.985A2.423,2.423,0,0,0,599.181,281.005Z" fill="#d75656" fill-rule="evenodd"/>
            <path id="Trazado_187336" data-name="Trazado 187336" d="M594.161,290.593,592,290.11a.714.714,0,0,0-.849.539l-1.26,5.7-1.045,4.707a.713.713,0,0,0,.538.849l2.16.483a.712.712,0,0,0,.849-.539l.579-2.618,0,.006,1.723-7.79A.714.714,0,0,0,594.161,290.593Z" fill="#a92324" fill-rule="evenodd"/>
            <path id="Trazado_187337" data-name="Trazado 187337" d="M577.537,332.852l-.664,3a32.411,32.411,0,0,0,5.968-8.571,12.489,12.489,0,0,0,.926-2.841A30.067,30.067,0,0,1,577.537,332.852Z" fill="#a92324" fill-rule="evenodd"/>
            <path id="Trazado_187338" data-name="Trazado 187338" d="M382.661,487.864c1.621-13.336,2.949-25.7,3.854-37.345l0,.006c2.917-64.435-23.875-139.562-62.208-167.433a58.233,58.233,0,0,0-8.363.381l-54.4,3.463c-65.759,15.564-78.107,64.049-97.641,120.1-5.089-3.678-10.307-8-15.012-12.061,3.783,18.421-13.794,61.67-44.394,98.284-5.3,6.062,7.4,5.73,20.016,16.679,14.5,12.617,19.5,19.716,32.333,27.458,14.029,8.211,25.747,2.567,37.722-14.113a402.659,402.659,0,0,0,40.8-75.958c2.48,41.656-28.48,57.32-20.575,76.68,18.069,33.557,95.506-11.757,164.277-8.678C388.815,515.61,381.448,506.414,382.661,487.864Z" fill="#437766" fill-rule="evenodd"/>
            <g id="Grupo_177188" data-name="Grupo 177188">
              <path id="Trazado_187339" data-name="Trazado 187339" d="M149.08,405.668c.259.3.519.616.778.917-.259-.3-.518-.616-.778-.919Z" fill="#3f5847" fill-rule="evenodd"/>
              <path id="Trazado_187340" data-name="Trazado 187340" d="M149.858,406.585c-.147,1.653-.4,3.415-.742,5.256,16.3,30.16,28.185,73.493,35.686,122.53a54.114,54.114,0,0,0,5.807-5.993C181.559,478.474,167.95,435.111,149.858,406.585Z" fill="#3f5847" fill-rule="evenodd"/>
            </g>
            <path id="Trazado_187341" data-name="Trazado 187341" d="M324.3,283.092q-1.522-.009-2.937.016c.383.969.772,1.942,1.176,2.931.52.781,1.011,1.552,1.494,2.319,39.335,35.769,62.215,101.314,61.991,163.106.188-.84.352-1.679.533-2.518C388.977,384.866,362.326,310.737,324.3,283.092Z" fill="#3f5847" fill-rule="evenodd"/>
            <path id="Trazado_187342" data-name="Trazado 187342" d="M227.577,300.286q-4.122,2.469-7.829,5.224c30.986,23.575,38.122,70.5,16.783,138.849C270.333,364.16,252.053,322.431,227.577,300.286Z" fill="#3f5847" fill-rule="evenodd"/>
            <path id="Trazado_187343" data-name="Trazado 187343" d="M168.843,392.684c-1.621,4.715-3.255,9.5-4.944,14.347,3.191,1.885,20.481,13.474,20.481,13.474Z" fill="#3f5847" fill-rule="evenodd"/>
            <path id="Trazado_187344" data-name="Trazado 187344" d="M324.249,283.048c38.363,27.839,65.183,103.01,62.264,167.476,18.187-67.734,8.829-136.138-29.411-167.25a1.924,1.924,0,0,0-1.01-.423C346.058,281.778,333.836,282.284,324.249,283.048Z" fill="#f1cc30" fill-rule="evenodd"/>
            <path id="Trazado_187345" data-name="Trazado 187345" d="M391.8,346.87l-21.042,5.915c2.686,7.288,5.065,14.846,7.123,22.565l17.084-4.8A181.591,181.591,0,0,0,391.8,346.87Z" fill="#e8a327" fill-rule="evenodd"/>
            <path id="Trazado_187346" data-name="Trazado 187346" d="M369.068,436.542a102.359,102.359,0,0,1-22.615,20.819l-3.2,2.174c-1.064.735-2.212,1.328-3.315,2l-3.342,1.96c-1.121.643-2.287,1.2-3.429,1.8l-3.457,1.752c-1.166.557-2.363,1.045-3.542,1.571l-3.554,1.55c-1.194.493-2.415.918-3.621,1.38l-3.645,1.318c-1.221.424-2.469.761-3.7,1.146l-3.709,1.119c-1.237.373-2.5.641-3.758.941-2.516.583-5.021,1.2-7.576,1.592-2.543.437-5.073.942-7.649,1.147a118.975,118.975,0,0,1-30.739-.187,193.729,193.729,0,0,0,30.3-2.8c2.5-.359,4.949-.99,7.42-1.483,2.479-.466,4.9-1.162,7.336-1.817,1.209-.35,2.446-.6,3.645-.986l3.6-1.134c1.2-.389,2.41-.731,3.593-1.158l3.536-1.323c1.18-.436,2.375-.834,3.543-1.3l3.477-1.469c1.155-.5,2.328-.959,3.469-1.489l3.4-1.638c1.132-.548,2.291-1.05,3.4-1.637l3.324-1.794c2.241-1.159,4.393-2.466,6.558-3.761A151.465,151.465,0,0,0,369.068,436.542Z" fill="#3f5847"/>
            <path id="Trazado_187347" data-name="Trazado 187347" d="M371.727,452.927a92.744,92.744,0,0,1-21.591,17.594l-3.017,1.791c-1,.607-2.073,1.081-3.107,1.628l-3.131,1.589c-1.048.521-2.133.96-3.2,1.444l-3.223,1.4c-1.084.44-2.194.816-3.29,1.227l-3.3,1.208c-1.107.381-2.234.7-3.351,1.05l-3.368.993c-1.127.317-2.275.554-3.411.834l-3.416.81c-1.139.27-2.3.443-3.45.646-2.308.389-4.608.814-6.939,1.025-2.324.256-4.64.575-6.981.62a107.792,107.792,0,0,1-27.791-1.849,175.522,175.522,0,0,0,27.556-.879c2.28-.189,4.53-.625,6.792-.936,2.268-.286,4.5-.784,6.734-1.243,1.113-.251,2.246-.409,3.351-.692l3.32-.83c1.1-.286,2.219-.529,3.313-.85l3.27-1c1.091-.33,2.194-.626,3.276-.983L330,476.378c1.072-.388,2.158-.741,3.219-1.157l3.165-1.3c1.054-.434,2.13-.824,3.168-1.295l3.1-1.441c2.09-.926,4.108-1.99,6.137-3.043A137.267,137.267,0,0,0,371.727,452.927Z" fill="#3f5847"/>
            <path id="Trazado_187348" data-name="Trazado 187348" d="M322.544,286.039c-3.822-9.362-6.787-17.73-8.159-26.689,12.364-3.681,17.643-16.629,16.259-28.22-1.577-17.118-8.231-31.826-13.62-51.841-5.047,3.25-13.686,4.063-21.3.642-1.965,20.372-14.584,31.312-25.919,35.566a11.814,11.814,0,0,0-7.249-2.463,11.549,11.549,0,1,0,0,23.1,11.915,11.915,0,0,0,3.6-.56c.942,17.214-1.872,37.87-8.28,53.55C293.632,363.194,361.72,344.889,322.544,286.039Z" fill="#eebfa0" fill-rule="evenodd"/>
            <path id="Trazado_187349" data-name="Trazado 187349" d="M319.741,212.164c.107,0,.212.016.32.016a12.85,12.85,0,0,0,6.428-1.722c-2.056-7.193-4.572-14.548-7.031-22.691a12.426,12.426,0,0,0-12.034,12.191,12.052,12.052,0,0,0,4.579,9.4l.09.069c.213.168.436.324.661.479a14.388,14.388,0,0,0,7,2.177C319.752,212.112,319.743,212.137,319.741,212.164Z" fill="#e69978" fill-rule="evenodd"/>
            <g id="Grupo_177189" data-name="Grupo 177189">
              <path id="Trazado_187350" data-name="Trazado 187350" d="M324.458,289.027c10.15,28.359,6.063,44.277-12.872,48.6C332,339.419,343.87,320.4,324.458,289.027Z" fill="#e69978" fill-rule="evenodd"/>
            </g>
            <path id="Trazado_187351" data-name="Trazado 187351" d="M301.242,259.865c-15.237-2.716-26.555-17.056-31.575-26.094-.2.151.188-.093-.023.045,13.122,35.385,36.354,38.827,47.427,37.2a84.447,84.447,0,0,1-2.677-11.665A28.583,28.583,0,0,1,301.242,259.865Z" fill="#e69978" fill-rule="evenodd"/>
            <path id="Trazado_187352" data-name="Trazado 187352" d="M319.372,187.484c-.8-2.643-1.585-5.361-2.348-8.195-5.047,3.25-13.686,4.063-21.3.642-1.965,20.372-14.584,31.312-25.919,35.566a11.814,11.814,0,0,0-7.249-2.463,11.531,11.531,0,0,0-3.033,22.709C277.457,219.747,297.565,203.458,319.372,187.484Z" fill="#e69978" fill-rule="evenodd"/>
            <path id="Trazado_187353" data-name="Trazado 187353" d="M250.818,224.582a11.645,11.645,0,0,1,11.739-11.548,11.814,11.814,0,0,1,7.249,2.463c11.335-4.254,23.954-15.194,25.919-35.566,7.613,3.421,16.252,2.608,21.3-.642.281,1.044.567,2.066.854,3.082l.307-.583c4.02-5.687,3.935-16.253.513-19.759-25.831,4.277-118.9,72.579-89.3,88.66-13.712,5.85-23.012,18.152-27.223,32.59q27.267-23.854,56.387-47.83A11.593,11.593,0,0,1,250.818,224.582Z" fill="#a54b21" fill-rule="evenodd"/>
            <path id="Trazado_187354" data-name="Trazado 187354" d="M265.572,221.4a4,4,0,0,0-.387-.538,4.617,4.617,0,0,0-.6-.659,5.7,5.7,0,0,0-1.894-1.2,4.731,4.731,0,0,0-1.273-.3,5.182,5.182,0,0,0-1.372.039l-.669.174-.63.273a5.354,5.354,0,0,0-1.864,1.661,6.921,6.921,0,0,0-.527.916,7.122,7.122,0,0,0-.466,1.48c-.069.362-.1.571-.1.571s.117-.182.294-.5a4.951,4.951,0,0,1,.328-.559c.142-.2.3-.429.472-.68a7.22,7.22,0,0,1,1.394-1.4,4.819,4.819,0,0,1,.914-.547,6.772,6.772,0,0,0-.134,1.388c0,.335.007.7.011,1.084a6.922,6.922,0,0,0,.174,1.163,5.093,5.093,0,0,0,.306,1.2c.15.4.282.8.458,1.191.221.363.444.729.658,1.088a5.918,5.918,0,0,0,.781.939,4.088,4.088,0,0,0,.818.773c.3.209.57.4.827.587a3.068,3.068,0,0,0,.743.394c.227.1.432.186.6.259.327.142.513.225.513.225s-.174-.1-.486-.286l-.55-.324a2.9,2.9,0,0,1-.678-.467c-.223-.2-.467-.423-.72-.655a3.722,3.722,0,0,1-.687-.822,5.16,5.16,0,0,1-.618-.953c-.158-.35-.322-.706-.482-1.063-.115-.371-.19-.758-.284-1.125a4.346,4.346,0,0,1-.143-1.107,5.526,5.526,0,0,1-.029-1.028c.029-.316.061-.615.089-.893a8.68,8.68,0,0,1,.308-1.4c.094-.345.146-.544.146-.544l-.079-.015a3.064,3.064,0,0,1,.6,0,5.193,5.193,0,0,1,1.066.166,6.3,6.3,0,0,1,.973.358,6.7,6.7,0,0,1,.842.439c.272.141.471.318.685.447a4.3,4.3,0,0,1,.523.4c.278.235.452.358.452.358S265.771,221.71,265.572,221.4Z" fill="#d97f59"/>
            <path id="Trazado_187355" data-name="Trazado 187355" d="M292.582,222.015A13.72,13.72,0,1,0,278.4,208.3,13.977,13.977,0,0,0,292.582,222.015Z" fill-rule="evenodd"/>
            <path id="Trazado_187356" data-name="Trazado 187356" d="M292.582,222.015A13.977,13.977,0,0,1,278.4,208.3a13.248,13.248,0,0,1,1.654-6.4,13.3,13.3,0,0,0-2.622,7.909,13.978,13.978,0,0,0,14.178,13.712,14.264,14.264,0,0,0,12.523-7.308A14.311,14.311,0,0,1,292.582,222.015Z" fill="#e69978" fill-rule="evenodd"/>
            <path id="Trazado_187357" data-name="Trazado 187357" d="M292.838,194.594a14.7,14.7,0,0,1,2.082.184l-7.536,26.286a14.353,14.353,0,0,1-1.883-.879Z" fill="#fff" fill-rule="evenodd"/>
            <path id="Trazado_187358" data-name="Trazado 187358" d="M297.26,195.356a14.309,14.309,0,0,1,1.906.8l-7.407,25.833a14.642,14.642,0,0,1-2.06-.26Z" fill="#fff" fill-rule="evenodd"/>
            <path id="Trazado_187359" data-name="Trazado 187359" d="M319.012,185.64a12.458,12.458,0,0,0-12.637,12.221,12.053,12.053,0,0,0,4.58,9.4l.089.069c.213.168.437.324.661.478a14.389,14.389,0,0,0,7,2.178c0,.027-.011.053-.014.08.108,0,.212.015.32.015a12.228,12.228,0,1,0,0-24.442Z" fill-rule="evenodd"/>
            <path id="Trazado_187360" data-name="Trazado 187360" d="M320.092,185.684a13.065,13.065,0,0,1,2.824.551l-6.748,23.536a12.845,12.845,0,0,1-2.714-.932Z" fill="#fff" fill-rule="evenodd"/>
            <path id="Trazado_187361" data-name="Trazado 187361" d="M279.074,208.481l-12.082,5.4a11.98,11.98,0,0,0-7.136-.544l19.088-8.539,1.2,2.678Q279.616,207.988,279.074,208.481Z" fill-rule="evenodd"/>
            <path id="Trazado_187362" data-name="Trazado 187362" d="M584.3,352.976a7.928,7.928,0,0,1-1.25-.147c-3.2,5.647-2.692,9.015,1.649,9.2,3.184.22,16.907-6.6,11.926-15.552C592.622,350.616,586.475,353.127,584.3,352.976Z" fill="#eebfa0" fill-rule="evenodd"/>
            <path id="Trazado_187363" data-name="Trazado 187363" d="M584.3,352.976a7.955,7.955,0,0,1-1.252-.147c-.331.585-.627,1.149-.879,1.685a6.916,6.916,0,0,0,2.031.353c2.292.159,9.026-2.651,12.989-7.215a9.734,9.734,0,0,0-.565-1.176C592.621,350.616,586.474,353.127,584.3,352.976Z" fill="#e69978" fill-rule="evenodd"/>
            <path id="Trazado_187364" data-name="Trazado 187364" d="M598.975,333.881c-3.878,5.53-9.734,10.531-14.911,8.769a4.006,4.006,0,0,1-1.616-1.175c-4.05,7.448-3.248,11.317,1.857,11.5C588.216,353.248,605.065,344.88,598.975,333.881Z" fill="#eebfa0" fill-rule="evenodd"/>
            <path id="Trazado_187365" data-name="Trazado 187365" d="M584.064,342.65a4,4,0,0,1-1.614-1.174q-.513.948-.926,1.824a4.266,4.266,0,0,0,1.908,1.365c5.691,1.789,11.085-1.582,16.337-9.019a11.745,11.745,0,0,0-.8-1.754C595.09,339.417,589.238,344.411,584.064,342.65Z" fill="#e69978" fill-rule="evenodd"/>
            <path id="Trazado_187366" data-name="Trazado 187366" d="M592.731,322.7c-13.733,11.636-12.506,18.4-8.667,19.947,5.7,1.939,12.229-4.314,16.028-10.448Z" fill="#eebfa0" fill-rule="evenodd"/>
            <path id="Trazado_187367" data-name="Trazado 187367" d="M580.26,317.106l1.1-.23a6.943,6.943,0,0,1,1.137-.036,3.019,3.019,0,0,1,2.153.913,3.552,3.552,0,0,1,.8,2.27,8.637,8.637,0,0,1-.331,2.315,21.335,21.335,0,0,1-4.567,7.83,27.289,27.289,0,0,1-6.968,5.753,21.842,21.842,0,0,1-4.134,1.837,16.576,16.576,0,0,1-4.428.731,21.875,21.875,0,0,0,8.082-3.352,29.7,29.7,0,0,0,3.465-2.662,30.429,30.429,0,0,0,3.084-3.093,23.88,23.88,0,0,0,4.591-7.312c.459-1.309.756-2.868-.037-3.944a2.569,2.569,0,0,0-1.746-.973A8.742,8.742,0,0,0,580.26,317.106Z" fill="#e69978"/>
            <path id="Trazado_187368" data-name="Trazado 187368" d="M287.209,224.452c-8.462,3.088-8.818,16.892,5.137,19.818,5.344,1.12,20.977,3.365,19.721-7.781-.249-2.217-1.123-6.4-.5-9.6C300.264,226.362,295.422,221.456,287.209,224.452Z" fill-rule="evenodd"/>
            <path id="Trazado_187369" data-name="Trazado 187369" d="M282.142,229.1c-2.471,5.325.159,13.067,10.2,15.173,2.727.572,8.131,1.435,12.6.664-.854-8.913-9.8-15.924-20.718-15.924Q283.174,229.01,282.142,229.1Z" fill="#d75656" fill-rule="evenodd"/>
            <path id="Trazado_187370" data-name="Trazado 187370" d="M258.674,287.083a116.093,116.093,0,0,0-31.254,13.059c24.8,22.329,43.174,65.349,7.9,147.3-.045,10.77-.648,16.884-3.663,27.893l-.01.076C274.484,446.883,329.23,354.6,258.674,287.083Z" fill="#f1cc30" fill-rule="evenodd"/>
            <path id="Trazado_187371" data-name="Trazado 187371" d="M291.909,364.2a4.3,4.3,0,0,0-4.216-2.115L255.9,365.811a4.265,4.265,0,0,0-.864.2,149.525,149.525,0,0,1-3.069,29.824,4.293,4.293,0,0,0,2.788.623l32.407-3.8a4.3,4.3,0,0,0,1.529-.485A111.457,111.457,0,0,0,291.909,364.2Z" fill="#e8a327" fill-rule="evenodd"/>
            <path id="Trazado_187372" data-name="Trazado 187372" d="M310.434,199.229l-8.287,3.707a11.89,11.89,0,0,0-1.92-.587,19.769,19.769,0,0,1-.371-2.124l9.8-4.386C309.9,196.971,310.11,198.117,310.434,199.229Z" fill-rule="evenodd"/>
            <path id="Trazado_187373" data-name="Trazado 187373" d="M318.691,209.348a14.986,14.986,0,0,1-5.826-1.737,17.223,17.223,0,0,1-2.58-1.719,25.7,25.7,0,0,1-2.353-2.147,13.046,13.046,0,0,0,4.365,4.821,12.647,12.647,0,0,0,5.647,1.944,7.737,7.737,0,0,1-1.217,3.043,9.827,9.827,0,0,1-2.893,2.894,7.822,7.822,0,0,0,3.595-2.358,7.5,7.5,0,0,0,1.835-4.069l.066-.616Z" fill="#e69978"/>
            <path id="Trazado_187374" data-name="Trazado 187374" d="M165.424,444.058a78.479,78.479,0,0,1-5.869,15.011c-1.188,2.42-2.555,4.743-3.93,7.063-1.415,2.3-2.937,4.522-4.492,6.726A98.908,98.908,0,0,1,140.6,485.112a77.824,77.824,0,0,1-12.5,10.182c3.461-4.125,6.924-8.128,10.262-12.216s6.538-8.256,9.639-12.5c1.575-2.1,3.068-4.267,4.553-6.436,1.516-2.152,2.917-4.379,4.387-6.573C159.812,453.14,162.561,448.617,165.424,444.058Z" fill="#3f5847"/>
            <path id="Trazado_187375" data-name="Trazado 187375" d="M506.03,446.5a72.732,72.732,0,0,1-8.985-11.905c-1.331-2.11-2.5-4.314-3.661-6.522-1.122-2.229-2.139-4.508-3.122-6.8a91.625,91.625,0,0,1-4.551-14.243,72.043,72.043,0,0,1-1.965-14.786c1.573,4.727,3.049,9.4,4.652,14.011s3.337,9.156,5.176,13.657c.894,2.261,1.875,4.486,2.865,6.709.96,2.238,2.036,4.422,3.052,6.645C501.593,437.674,503.826,442.034,506.03,446.5Z" fill="#3f5847"/>
            <path id="Trazado_187376" data-name="Trazado 187376" d="M257.406,361.078l31.793-3.72a4.327,4.327,0,0,1,4.819,4.6l-1.537,21.977a4.327,4.327,0,0,1-3.813,4l-32.407,3.8a4.327,4.327,0,0,1-4.81-4.718l2.151-22.054A4.328,4.328,0,0,1,257.406,361.078Z" fill="#d75656" fill-rule="evenodd"/>
            <path id="Trazado_187377" data-name="Trazado 187377" d="M263.477,366.372l20.834-2.28a2.758,2.758,0,0,1,3.158,2.819l-1.007,13.468a2.739,2.739,0,0,1-2.5,2.448l-21.236,2.327a2.751,2.751,0,0,1-3.152-2.891l1.41-13.515A2.744,2.744,0,0,1,263.477,366.372Z" fill="#f1cc30" fill-rule="evenodd"/>
            <path id="Trazado_187378" data-name="Trazado 187378" d="M376.8,371.39l18.7-5.259a3.379,3.379,0,0,0,2.449-3.547l-1.506-17.126a3.376,3.376,0,0,0-4.277-2.955l-22.874,6.429C372.1,356.168,374.614,363.683,376.8,371.39Z" fill="#d75656" fill-rule="evenodd"/>
            <path id="Trazado_187379" data-name="Trazado 187379" d="M588.471,326.586a47.861,47.861,0,0,0-4.748,7.174,13.531,13.531,0,0,0-1.353,3.912,5.317,5.317,0,0,0,.033,1.932,3.076,3.076,0,0,0,.9,1.527,4.963,4.963,0,0,0,3.643.912,12.557,12.557,0,0,0,3.978-1.1A15.658,15.658,0,0,0,594.5,338.7a19.341,19.341,0,0,0,3.024-3.055,15.36,15.36,0,0,1-6.192,6.125,12.065,12.065,0,0,1-4.278,1.4,6.017,6.017,0,0,1-4.541-1.145,4.257,4.257,0,0,1-1.248-2.154,6.108,6.108,0,0,1-.013-2.375,12.751,12.751,0,0,1,1.663-4.172A30.807,30.807,0,0,1,588.471,326.586Z" fill="#e69978"/>
            <path id="Trazado_187380" data-name="Trazado 187380" d="M291.115,191a18.682,18.682,0,0,0-2.784-.778,3.221,3.221,0,0,0-2.045.274,4.3,4.3,0,0,0-1.542,1.54c-.467.738-.854,1.614-1.389,2.591a5.281,5.281,0,0,1-.31-3.254,4.285,4.285,0,0,1,2.168-2.953,3.917,3.917,0,0,1,3.737.1A4.675,4.675,0,0,1,291.115,191Z"/>
            <path id="Trazado_187381" data-name="Trazado 187381" d="M318.794,183.488a18.625,18.625,0,0,0-2.388-1.629,3.215,3.215,0,0,0-2.025-.395,4.281,4.281,0,0,0-1.954.965c-.679.55-1.326,1.256-2.146,2.01a5.283,5.283,0,0,1,.749-3.182,4.279,4.279,0,0,1,3-2.1,3.918,3.918,0,0,1,3.51,1.286A4.676,4.676,0,0,1,318.794,183.488Z"/>
            <path id="Trazado_187382" data-name="Trazado 187382" d="M168.738,310.678c-1.179-5.74-8.227-5.186-9.2.028-.792,3.614-2.147,9.825-2.147,12.987,0,8.008,13.5,7.832,13.5,0C170.886,320.531,169.325,314.115,168.738,310.678Zm-4.6,15.612a3.7,3.7,0,1,1,3.9-3.689A3.8,3.8,0,0,1,164.138,326.29Z" fill="#3b467f" fill-rule="evenodd"/>
            <path id="Trazado_187383" data-name="Trazado 187383" d="M139.383,394.01c.025.03.049.058.073.088.119.147.237.3.356.447l.008,0q5.014,6.189,10.038,12.043c22.212,35.022,37.669,92.4,46.223,156.806l15.6-4.081c-15.874-123.356-63.76-168.894-63.76-168.894h0c-6.325-6.41-12.826-9.84-18.688-9.369q5.071,6.669,10.157,12.961Z" fill="#f1cc30" fill-rule="evenodd"/>
            <g id="Grupo_177190" data-name="Grupo 177190">
              <path id="Trazado_187384" data-name="Trazado 187384" d="M115.9,691.219l-.051.025h-.055l-.207.056h0c-20.388,5.128-42.67-12.891-49.85-40.38-7.208-27.49,3.392-54.109,23.674-59.609h0l.263-.079,128.686-33.67,1.606-.421.024.053c19.993-4.026,41.458,13.781,48.482,40.669s-2.945,52.923-22.334,59.213v.054l-1.577.418h-.052l-.027.025Z" fill="#d75656" fill-rule="evenodd"/>
              <path id="Trazado_187385" data-name="Trazado 187385" d="M222.119,556.851c19.388-2.394,39.565,15.1,46.351,41.012,7.024,26.883-2.945,52.923-22.334,59.213v.054l-1.472.389c-19.125,2.791-39.223-14.808-45.93-40.98-7.076-27.594,3.394-54.295,23.385-59.688Z" fill="#a92324" fill-rule="evenodd"/>
              <path id="Trazado_187386" data-name="Trazado 187386" d="M228.084,576.311c12.943-3.395,27.123,8.023,31.7,25.488s-2.209,34.382-15.152,37.774c-12.939,3.368-27.12-8.048-31.7-25.515s2.21-34.356,15.152-37.747Z" fill="#d75656" fill-rule="evenodd"/>
              <path id="Trazado_187387" data-name="Trazado 187387" d="M194.092,654.426a686.162,686.162,0,0,1-74.913,19.435,66.149,66.149,0,0,1-16.384-29.7c-.4-1.442-.723-2.909-1-4.374a660.29,660.29,0,0,0,65.678-16.081q4.257-1.292,8.447-2.586c.164.817.371,1.631.58,2.446,3.306,12.638,9.684,23.317,17.6,30.858Z" fill="#a92324" fill-rule="evenodd"/>
              <path id="Trazado_187388" data-name="Trazado 187388" d="M176.707,624.336c-3.049.953-6.143,1.908-9.237,2.815a659.193,659.193,0,0,1-64.957,15.964c-.253-1.115-.509-2.209-.721-3.326a660.29,660.29,0,0,0,65.678-16.081q4.257-1.292,8.447-2.586c.164.817.371,1.631.58,2.446.071.254.139.51.21.768Z" fill="#fff" fill-rule="evenodd"/>
              <path id="Trazado_187389" data-name="Trazado 187389" d="M107.249,643.555c-1.171-5.7-8.167-5.148-9.135.029-.786,3.586-2.132,9.752-2.132,12.892,0,7.949,13.4,7.774,13.4,0C109.38,653.336,107.831,646.968,107.249,643.555Zm-4.567,15.5a3.668,3.668,0,1,1,3.868-3.663A3.775,3.775,0,0,1,102.682,659.053Z" fill="#f1cc30" fill-rule="evenodd"/>
              <path id="Trazado_187390" data-name="Trazado 187390" d="M177.039,588.842c-3.672,1.147-7.4,2.3-11.123,3.39A794.077,794.077,0,0,1,87.7,611.455c-.3-1.343-.613-2.66-.868-4.006a795.283,795.283,0,0,0,79.087-19.363q5.125-1.557,10.171-3.114c.2.984.448,1.964.7,2.944.086.307.168.615.253.926Z" fill="#fff" fill-rule="evenodd"/>
              <path id="Trazado_187391" data-name="Trazado 187391" d="M93.4,611.985c-1.41-6.861-9.835-6.2-11,.034-.947,4.319-2.567,11.743-2.567,15.524,0,9.572,16.134,9.362,16.134,0C95.967,623.762,94.1,616.094,93.4,611.985Zm-5.5,18.661a4.417,4.417,0,1,1,4.658-4.41A4.546,4.546,0,0,1,87.9,630.646Z" fill="#f1cc30" fill-rule="evenodd"/>
            </g>
            <path id="Trazado_187392" data-name="Trazado 187392" d="M149.858,406.585a568.023,568.023,0,0,1-38.347-50.1c8.58-19.2-1.794-28.2,2.145-45.557,1.393-5.025-5.761-3.572-8.563,1.575-4.593,9-2.523,13.586-6.462,18.438-4.641-9.827-8.174-18.714-14.961-31.416-3.748-7.107-9.263-4.605-7.7,3.366.569,4.068,3.5,13.81,4.347,18.478-2.511-3.5-7.305-11.9-10.478-15.763-4.457-5.587-9.262-1.9-6.248,4.966,1.769,4.2,6.555,13.206,8.74,17.815-2.85-3.154-8.262-10.151-11.818-13.566-4.679-4.509-9.232-.666-5.295,5.458,2.529,4.455,7.526,12.291,10.391,16.793-1.946-1.744-5.434-5.553-7.672-7.357-4.839-3.507-8.532.686-5.044,5.859,3.256,4.725,7.789,11.166,11.259,15.8,2.21,4.733,2.533,17.1,17.9,23.157l44.481,88.736C140.22,441.862,148.613,420.627,149.858,406.585Z" fill="#eebfa0" fill-rule="evenodd"/>
            <path id="Trazado_187393" data-name="Trazado 187393" d="M149.858,406.585l-.563-.655c-3.134,12.675-13,30.377-27.433,48l4.679,9.333C140.22,441.862,148.613,420.627,149.858,406.585Z" fill="#e69978" fill-rule="evenodd"/>
            <path id="Trazado_187394" data-name="Trazado 187394" d="M67.361,344.977a44.561,44.561,0,0,1,3.607-7.063c.681-1.123,1.428-2.186,2.179-3.247.765-1.045,1.568-2.051,2.383-3.042a48.5,48.5,0,0,1,5.311-5.389,34.548,34.548,0,0,1,5.955-4.231c-1.752,1.819-3.5,3.578-5.2,5.388s-3.347,3.667-4.961,5.568c-.815.94-1.6,1.915-2.385,2.894s-1.549,1.981-2.328,2.973C70.393,340.839,68.9,342.9,67.361,344.977Z" fill="#e69978"/>
            <path id="Trazado_187395" data-name="Trazado 187395" d="M90.539,359.4a20.075,20.075,0,0,1-3.185-4c-.475-.737-.893-1.532-1.31-2.329s-.77-1.654-1.126-2.507a35.208,35.208,0,0,1-1.671-5.471,32.639,32.639,0,0,1-.783-5.985c.576,1.808,1.118,3.6,1.7,5.362s1.217,3.47,1.883,5.154c.325.85.679,1.674,1.037,2.5s.734,1.629,1.1,2.448C88.945,356.189,89.746,357.77,90.539,359.4Z" fill="#e69978"/>
            <path id="Trazado_187396" data-name="Trazado 187396" d="M290.951,370.561,277.77,372.1a2.527,2.527,0,1,0,.587,5.02l12.511-1.461C290.843,373.953,290.876,372.257,290.951,370.561Z" fill="#d75656" fill-rule="evenodd"/>
            <path id="Trazado_187397" data-name="Trazado 187397" d="M391.465,349.591a2.212,2.212,0,0,0-2.785-1.96l-15.79,4.293a2.213,2.213,0,0,0-1.629,2.248l.028.527q2.223,6.174,4.128,12.593l15.314-4.165a2.212,2.212,0,0,0,1.624-2.309Z" fill="#f1cc30" fill-rule="evenodd"/>
            <path id="Trazado_187398" data-name="Trazado 187398" d="M395.688,352.168l-9.569,2.6a1.889,1.889,0,0,0,.99,3.645l9.082-2.467C395.983,354.687,395.82,353.43,395.688,352.168Z" fill="#d75656" fill-rule="evenodd"/>
          </g>
        </g>
      </g>
      <path id="Trazado_186430" data-name="Trazado 186430" d="M246.99,57.991H395.337l7.722,8.351.222-8.351h5.407a7.4,7.4,0,0,0,7.4-7.4V14.29a7.4,7.4,0,0,0-7.4-7.4H246.99a7.4,7.4,0,0,0-7.4,7.4v36.3a7.4,7.4,0,0,0,7.4,7.4" transform="translate(268.91 5789.202)" fill="#fff"/>
    </g>
  </g>
</svg>
