<svg xmlns="http://www.w3.org/2000/svg" width="768" height="119" viewBox="0 0 768 119">
  <g id="Grupo_177625" data-name="Grupo 177625" transform="translate(-285 -8693)">
    <path id="Trazado_188457" data-name="Trazado 188457" d="M5,0H240a5,5,0,0,1,5,5V114a5,5,0,0,1-5,5H5a5,5,0,0,1-5-5V5A5,5,0,0,1,5,0Z" transform="translate(285 8693)" fill="#3c3fa7"/>
    <path id="Trazado_188461" data-name="Trazado 188461" d="M5,0H240a5,5,0,0,1,5,5V114a5,5,0,0,1-5,5H5a5,5,0,0,1-5-5V5A5,5,0,0,1,5,0Z" transform="translate(547 8693)" fill="#fc5f65"/>
    <path id="Trazado_188467" data-name="Trazado 188467" d="M5,0H240a5,5,0,0,1,5,5V114a5,5,0,0,1-5,5H5a5,5,0,0,1-5-5V5A5,5,0,0,1,5,0Z" transform="translate(808 8693)" fill="#fed947"/>
    <path id="Trazado_188458" data-name="Trazado 188458" d="M5,0H203a5,5,0,0,1,5,5V57a5,5,0,0,1-5,5H5a5,5,0,0,1-5-5V5A5,5,0,0,1,5,0Z" transform="translate(304 8709)" fill="#fff"/>
    <path id="Trazado_188462" data-name="Trazado 188462" d="M5,0H203a5,5,0,0,1,5,5V57a5,5,0,0,1-5,5H5a5,5,0,0,1-5-5V5A5,5,0,0,1,5,0Z" transform="translate(566 8709)" fill="#fff"/>
    <path id="Trazado_188468" data-name="Trazado 188468" d="M5,0H203a5,5,0,0,1,5,5V57a5,5,0,0,1-5,5H5a5,5,0,0,1-5-5V5A5,5,0,0,1,5,0Z" transform="translate(827 8709)" fill="#fff"/>
    <path id="Trazado_188459" data-name="Trazado 188459" d="M-22.737-3.419q.185-1.046-1.028-1.6l-1.7-.677q-2.953-1.318-2.8-3.63a3.334,3.334,0,0,1,.7-1.9,4.227,4.227,0,0,1,1.8-1.3,6.379,6.379,0,0,1,2.5-.453,4.34,4.34,0,0,1,3,1.1,3.676,3.676,0,0,1,1.125,2.861H-21.7a1.831,1.831,0,0,0-.382-1.354,1.722,1.722,0,0,0-1.323-.5,2.667,2.667,0,0,0-1.529.4,1.641,1.641,0,0,0-.773,1.147q-.167.958,1.283,1.521l1.16.439.668.308q2.593,1.283,2.426,3.6A3.477,3.477,0,0,1-20.9-1.49,4.088,4.088,0,0,1-22.654-.229,6.261,6.261,0,0,1-25.1.185a5.483,5.483,0,0,1-2.426-.571,3.767,3.767,0,0,1-1.617-1.538,3.983,3.983,0,0,1-.483-2.109l2.575.009Q-27.176-1.942-25-1.907a2.69,2.69,0,0,0,1.547-.413A1.608,1.608,0,0,0-22.737-3.419Zm9.51,2.435A3.283,3.283,0,0,1-15.847.176a2.443,2.443,0,0,1-2.074-.984,3.6,3.6,0,0,1-.545-2.549l1.028-6.152h2.479L-16-3.324a2.446,2.446,0,0,0-.009.545.9.9,0,0,0,.976.906,2.265,2.265,0,0,0,1.907-.889l1.187-6.749h2.5L-11.1,0h-2.312ZM-.114-4.729a6.819,6.819,0,0,1-1.371,3.6A3.412,3.412,0,0,1-4.351.185,2.652,2.652,0,0,1-6.636-1.028L-7,0H-9.255l2.338-13.5H-4.43l-.958,4.86a2.963,2.963,0,0,1,2.32-1.046A2.683,2.683,0,0,1-.9-8.7,4.376,4.376,0,0,1-.062-6.012,10.274,10.274,0,0,1-.114-4.729Zm-2.461-.185a7.373,7.373,0,0,0,.053-1.164q-.1-1.534-1.266-1.56a2.062,2.062,0,0,0-1.819,1l-.686,3.791a1.415,1.415,0,0,0,1.424.987q1.828.053,2.241-2.662Zm7.515-4.6L3.234.519A3.956,3.956,0,0,1,2.087,3a3.357,3.357,0,0,1-2.439.87A7.65,7.65,0,0,1-1.67,3.7l.2-2.021A4.848,4.848,0,0,0-.7,1.793,1.344,1.344,0,0,0,.721.527L2.443-9.51ZM2.681-11.927a1.241,1.241,0,0,1,.369-.962,1.415,1.415,0,0,1,.993-.4,1.415,1.415,0,0,1,1,.36,1.246,1.246,0,0,1,.409.914,1.252,1.252,0,0,1-.369.971,1.415,1.415,0,0,1-.993.4,1.39,1.39,0,0,1-.971-.334A1.227,1.227,0,0,1,2.681-11.927ZM9.8.176a4.137,4.137,0,0,1-2.21-.611A3.7,3.7,0,0,1,6.152-2.087,4.605,4.605,0,0,1,5.783-4.4l.026-.352A6.148,6.148,0,0,1,6.618-7.3a4.884,4.884,0,0,1,1.74-1.789,4.306,4.306,0,0,1,2.355-.593A3.29,3.29,0,0,1,13.5-8.334,4.631,4.631,0,0,1,14.212-5L14.071-3.92H8.244a2.041,2.041,0,0,0,.448,1.477,1.711,1.711,0,0,0,1.318.571,3.041,3.041,0,0,0,2.373-1.055l1.134,1.406A3.527,3.527,0,0,1,11.971-.259,5.059,5.059,0,0,1,9.8.176Zm.791-7.813a1.761,1.761,0,0,0-1.217.431A3.784,3.784,0,0,0,8.42-5.651h3.41l.053-.229a2.33,2.33,0,0,0,.009-.668,1.276,1.276,0,0,0-.431-.8A1.35,1.35,0,0,0,10.591-7.638Zm8.385,5.774a1.628,1.628,0,0,0,1.143-.374,1.836,1.836,0,0,0,.6-1.042l2.329-.009a3.416,3.416,0,0,1-.628,1.8A3.818,3.818,0,0,1,20.9-.237a4.327,4.327,0,0,1-1.991.422,3.514,3.514,0,0,1-2.742-1.2A4.461,4.461,0,0,1,15.2-4.122l.026-.483.009-.1A5.945,5.945,0,0,1,16.8-8.38a4.231,4.231,0,0,1,3.278-1.305,3.428,3.428,0,0,1,2.553,1.05,3.71,3.71,0,0,1,.927,2.676H21.243a1.947,1.947,0,0,0-.334-1.2,1.269,1.269,0,0,0-1-.475q-1.775-.053-2.153,2.593a8.755,8.755,0,0,0-.1,1.617Q17.745-1.89,18.976-1.863ZM29.03-11.848,28.617-9.51H30.2l-.325,1.863H28.292l-.809,4.764a1.211,1.211,0,0,0,.07.686q.123.237.6.255.141.009.756-.044L28.731-.044a4.169,4.169,0,0,1-1.424.2,2.234,2.234,0,0,1-1.819-.765A2.763,2.763,0,0,1,25-2.628l.817-5.019H24.469l.325-1.863h1.345l.4-2.338Z" transform="translate(408 8746)" fill="#12263f"/>
    <path id="Trazado_188463" data-name="Trazado 188463" d="M-57.221-3.2l4.307-9.6h2.953L-56.281,0H-58.97l-2.3-12.8H-58.5ZM-46.5.176a4.137,4.137,0,0,1-2.21-.611,3.7,3.7,0,0,1-1.437-1.652A4.605,4.605,0,0,1-50.515-4.4l.026-.352A6.148,6.148,0,0,1-49.68-7.3a4.884,4.884,0,0,1,1.74-1.789,4.306,4.306,0,0,1,2.355-.593A3.29,3.29,0,0,1-42.8-8.334,4.631,4.631,0,0,1-42.086-5l-.141,1.083h-5.827a2.041,2.041,0,0,0,.448,1.477,1.711,1.711,0,0,0,1.318.571,3.041,3.041,0,0,0,2.373-1.055l1.134,1.406A3.527,3.527,0,0,1-44.328-.259,5.059,5.059,0,0,1-46.5.176Zm.791-7.813a1.761,1.761,0,0,0-1.217.431,3.784,3.784,0,0,0-.954,1.556h3.41l.053-.229a2.33,2.33,0,0,0,.009-.668,1.276,1.276,0,0,0-.431-.8A1.35,1.35,0,0,0-45.708-7.638Zm10.731.51a5.117,5.117,0,0,0-.835-.088,2.4,2.4,0,0,0-2.1.993L-39.01,0h-2.479l1.652-9.51,2.329-.009-.229,1.16A2.615,2.615,0,0,1-35.521-9.7a3.615,3.615,0,0,1,.861.123Zm9.088,2.4a6.819,6.819,0,0,1-1.371,3.6A3.412,3.412,0,0,1-30.125.185,2.652,2.652,0,0,1-32.41-1.028L-32.77,0h-2.259l2.338-13.5H-30.2l-.958,4.86a2.963,2.963,0,0,1,2.32-1.046,2.683,2.683,0,0,1,2.167.989,4.376,4.376,0,0,1,.839,2.685A10.274,10.274,0,0,1-25.888-4.729Zm-2.461-.185A7.373,7.373,0,0,0-28.3-6.077q-.1-1.534-1.266-1.56a2.062,2.062,0,0,0-1.819,1l-.686,3.791a1.415,1.415,0,0,0,1.424.987q1.828.053,2.241-2.662ZM-18.057,0h-2.5L-18.9-9.51h2.5Zm-.554-11.927a1.238,1.238,0,0,1,.387-.976,1.36,1.36,0,0,1,.976-.387,1.367,1.367,0,0,1,.976.343,1.233,1.233,0,0,1,.431.932,1.273,1.273,0,0,1-.365.949,1.367,1.367,0,0,1-1,.422,1.39,1.39,0,0,1-.971-.334A1.227,1.227,0,0,1-18.611-11.927Zm6.574,2.408-.211,1.125A3.422,3.422,0,0,1-9.479-9.686,2.281,2.281,0,0,1-7.493-8.7a3.966,3.966,0,0,1,.466,2.654L-8.029,0h-2.479l1.02-6.073A2.844,2.844,0,0,0-9.47-6.7,1.007,1.007,0,0,0-10.6-7.62a2.133,2.133,0,0,0-1.749.905L-13.531,0h-2.479l1.652-9.51ZM3.379-11.848,2.966-9.51H4.548L4.223-7.646H2.641L1.833-2.883A1.211,1.211,0,0,0,1.9-2.2q.123.237.6.255.141.009.756-.044L3.081-.044a4.169,4.169,0,0,1-1.424.2A2.234,2.234,0,0,1-.163-.606,2.763,2.763,0,0,1-.655-2.628L.163-7.646H-1.182L-.857-9.51H.488l.4-2.338ZM8.117-8.455a3.314,3.314,0,0,1,2.575-1.23A2.411,2.411,0,0,1,12.771-8.67a3.991,3.991,0,0,1,.5,2.676L12.265,0H9.787L10.8-6.028a2.921,2.921,0,0,0,.018-.633,1,1,0,0,0-1.107-.977,2.141,2.141,0,0,0-1.758.862L6.754,0H4.276L6.614-13.5H9.1ZM18.716.176a4.137,4.137,0,0,1-2.21-.611,3.7,3.7,0,0,1-1.437-1.652A4.605,4.605,0,0,1,14.7-4.4l.026-.352A6.148,6.148,0,0,1,15.535-7.3a4.884,4.884,0,0,1,1.74-1.789,4.306,4.306,0,0,1,2.355-.593,3.29,3.29,0,0,1,2.782,1.351A4.631,4.631,0,0,1,23.128-5L22.988-3.92H17.161a2.041,2.041,0,0,0,.448,1.477,1.711,1.711,0,0,0,1.318.571A3.041,3.041,0,0,0,21.3-2.927l1.134,1.406A3.527,3.527,0,0,1,20.887-.259,5.059,5.059,0,0,1,18.716.176Zm.791-7.813a1.761,1.761,0,0,0-1.217.431,3.784,3.784,0,0,0-.954,1.556h3.41L20.8-5.88a2.33,2.33,0,0,0,.009-.668,1.276,1.276,0,0,0-.431-.8A1.35,1.35,0,0,0,19.507-7.638ZM37.3-4.729a7.854,7.854,0,0,1-.782,2.654A4.3,4.3,0,0,1,35.029-.352,3.44,3.44,0,0,1,33.06.185,2.745,2.745,0,0,1,30.88-.844l-.87,4.5H27.532L29.808-9.51l2.285-.009-.167.958a3.036,3.036,0,0,1,2.426-1.125A2.7,2.7,0,0,1,36.523-8.67a4.412,4.412,0,0,1,.826,2.659A10.274,10.274,0,0,1,37.3-4.729Zm-2.461-.18.053-.845a2.351,2.351,0,0,0-.312-1.356,1.12,1.12,0,0,0-.962-.519,2.046,2.046,0,0,0-1.784.915l-.712,3.926a1.387,1.387,0,0,0,1.4.924,1.789,1.789,0,0,0,1.494-.7A4.763,4.763,0,0,0,34.835-4.909ZM43.581,0a2.566,2.566,0,0,1-.1-.861A3.221,3.221,0,0,1,41.058.176a2.919,2.919,0,0,1-2.07-.813A2.46,2.46,0,0,1,38.219-2.6a2.843,2.843,0,0,1,1.305-2.386,5.924,5.924,0,0,1,3.335-.831l1.16.018.123-.571a1.984,1.984,0,0,0,.026-.554.952.952,0,0,0-.312-.646,1.075,1.075,0,0,0-.708-.242,1.514,1.514,0,0,0-.984.286,1.384,1.384,0,0,0-.519.875l-2.487.009a2.764,2.764,0,0,1,1.252-2.21,4.851,4.851,0,0,1,2.94-.831,3.507,3.507,0,0,1,2.531.962,2.816,2.816,0,0,1,.765,2.386l-.729,4.553-.044.563a2.714,2.714,0,0,0,.149,1.055L46.015,0ZM41.673-1.749a2.27,2.27,0,0,0,1.872-.932l.308-1.644-.861-.009a2.406,2.406,0,0,0-1.978.835,1.454,1.454,0,0,0-.272.712.844.844,0,0,0,.2.751A1,1,0,0,0,41.673-1.749Zm11.364-.932q.141-.7-.976-1.02l-.8-.2q-2.839-.782-2.76-2.76a2.731,2.731,0,0,1,1.191-2.193,4.434,4.434,0,0,1,2.764-.831,3.978,3.978,0,0,1,2.6.853A2.809,2.809,0,0,1,56.07-6.609l-2.461-.009A1.084,1.084,0,0,0,52.4-7.857a1.745,1.745,0,0,0-1.006.29,1.194,1.194,0,0,0-.523.782q-.132.7,1.063.993l.352.079a7.071,7.071,0,0,1,1.854.664,2.8,2.8,0,0,1,.989.927,2.3,2.3,0,0,1,.321,1.327,2.533,2.533,0,0,1-.584,1.582A3.577,3.577,0,0,1,53.332-.167a5.328,5.328,0,0,1-2.043.343,4.015,4.015,0,0,1-2.637-.91A2.933,2.933,0,0,1,47.58-3.041l2.338.018a1.285,1.285,0,0,0,1.459,1.38,2.076,2.076,0,0,0,1.129-.281A1.111,1.111,0,0,0,53.038-2.681Zm8.578-9.167L61.2-9.51h1.582l-.325,1.863H60.877l-.809,4.764a1.211,1.211,0,0,0,.07.686q.123.237.6.255.141.009.756-.044L61.317-.044a4.169,4.169,0,0,1-1.424.2,2.234,2.234,0,0,1-1.819-.765,2.763,2.763,0,0,1-.492-2.021L58.4-7.646H57.054l.325-1.863h1.345l.4-2.338Z" transform="translate(670 8746)" fill="#12263f"/>
    <path id="Trazado_188460" data-name="Trazado 188460" d="M1.362-7.26h3v2.54h-3v3.437H-1.406V-4.72H-4.412V-7.26h3.006V-10.6H1.362Z" transform="translate(538 8746)" fill="#12263f"/>
    <path id="Trazado_188466" data-name="Trazado 188466" d="M1.362-7.26h3v2.54h-3v3.437H-1.406V-4.72H-4.412V-7.26h3.006V-10.6H1.362Z" transform="translate(800 8746)" fill="#12263f"/>
    <path id="Trazado_188469" data-name="Trazado 188469" d="M-40.1-4.271A4.786,4.786,0,0,1-41-1.92,4.921,4.921,0,0,1-42.97-.347a6,6,0,0,1-2.619.523,4.428,4.428,0,0,1-2.206-.584,3.874,3.874,0,0,1-1.481-1.617,5.976,5.976,0,0,1-.611-2.439,11.963,11.963,0,0,1,.224-2.689,8.526,8.526,0,0,1,1.02-2.856A6.374,6.374,0,0,1-46.9-11.988a5.264,5.264,0,0,1,3.252-.984A4.318,4.318,0,0,1-40.5-11.747a4.932,4.932,0,0,1,1.279,3.309l-2.566-.009a2.69,2.69,0,0,0-.483-1.775,1.972,1.972,0,0,0-1.5-.6,2.608,2.608,0,0,0-2.167.94A5.656,5.656,0,0,0-47.074-7a15.925,15.925,0,0,0-.246,2.751A2.738,2.738,0,0,0-46.8-2.544a1.736,1.736,0,0,0,1.327.576,2.65,2.65,0,0,0,1.885-.558,2.953,2.953,0,0,0,.936-1.727Zm6.363-5.414a3.814,3.814,0,0,1,2.167.646A3.638,3.638,0,0,1-30.23-7.308a5.357,5.357,0,0,1,.3,2.448A5.786,5.786,0,0,1-31.5-1.191,4.455,4.455,0,0,1-34.9.176a3.8,3.8,0,0,1-2.145-.637A3.624,3.624,0,0,1-38.382-2.18a5.239,5.239,0,0,1-.308-2.426,5.957,5.957,0,0,1,1.6-3.744A4.363,4.363,0,0,1-33.732-9.686Zm-2.5,5.979a2.194,2.194,0,0,0,.4,1.33,1.314,1.314,0,0,0,1.063.5,1.926,1.926,0,0,0,1.793-1.049,5.227,5.227,0,0,0,.606-2.848,2.387,2.387,0,0,0-.409-1.347,1.293,1.293,0,0,0-1.068-.522A1.929,1.929,0,0,0-35.626-6.6,5.173,5.173,0,0,0-36.237-3.706ZM-25.26-9.519l-.2,1.081a3.5,3.5,0,0,1,2.786-1.248,2.676,2.676,0,0,1,1.459.4,1.889,1.889,0,0,1,.782,1.046,3.662,3.662,0,0,1,2.953-1.45,2.391,2.391,0,0,1,1.973.9,3.68,3.68,0,0,1,.558,2.514l-.018.22L-15.979,0h-2.487l1.011-6.08a4.4,4.4,0,0,0,.026-.607.942.942,0,0,0-1.055-.95,2.093,2.093,0,0,0-1.749,1.091l-.026.2L-21.366,0h-2.479l1.011-6.056a4.386,4.386,0,0,0,.026-.606.94.94,0,0,0-1.046-.958,2.1,2.1,0,0,0-1.7.888L-26.736,0h-2.479l1.644-9.51Zm20.382,4.79A7.854,7.854,0,0,1-5.66-2.074,4.3,4.3,0,0,1-7.146-.352,3.44,3.44,0,0,1-9.114.185a2.745,2.745,0,0,1-2.18-1.028l-.87,4.5h-2.479L-12.366-9.51l2.285-.009-.167.958A3.036,3.036,0,0,1-7.822-9.686,2.7,2.7,0,0,1-5.651-8.67a4.412,4.412,0,0,1,.826,2.659A10.274,10.274,0,0,1-4.878-4.729Zm-2.461-.18.053-.845A2.351,2.351,0,0,0-7.6-7.11a1.12,1.12,0,0,0-.962-.519,2.046,2.046,0,0,0-1.784.915l-.712,3.926a1.387,1.387,0,0,0,1.4.924,1.789,1.789,0,0,0,1.494-.7A4.763,4.763,0,0,0-7.339-4.909ZM-1.477,0h-2.5l2.347-13.5H.861ZM5.142.176a4.137,4.137,0,0,1-2.21-.611A3.7,3.7,0,0,1,1.494-2.087,4.605,4.605,0,0,1,1.125-4.4l.026-.352A6.148,6.148,0,0,1,1.96-7.3,4.884,4.884,0,0,1,3.7-9.092a4.306,4.306,0,0,1,2.355-.593A3.29,3.29,0,0,1,8.837-8.334,4.631,4.631,0,0,1,9.554-5L9.413-3.92H3.586a2.041,2.041,0,0,0,.448,1.477,1.711,1.711,0,0,0,1.318.571A3.041,3.041,0,0,0,7.726-2.927L8.859-1.521A3.527,3.527,0,0,1,7.313-.259,5.059,5.059,0,0,1,5.142.176Zm.791-7.813a1.761,1.761,0,0,0-1.217.431,3.784,3.784,0,0,0-.954,1.556h3.41l.053-.229a2.33,2.33,0,0,0,.009-.668,1.276,1.276,0,0,0-.431-.8A1.35,1.35,0,0,0,5.933-7.638Zm8.174-1.881-.2,1.081A3.5,3.5,0,0,1,16.69-9.686a2.676,2.676,0,0,1,1.459.4,1.889,1.889,0,0,1,.782,1.046,3.662,3.662,0,0,1,2.953-1.45,2.391,2.391,0,0,1,1.973.9,3.68,3.68,0,0,1,.558,2.514l-.018.22L23.388,0H20.9l1.011-6.08a4.4,4.4,0,0,0,.026-.607.942.942,0,0,0-1.055-.95,2.093,2.093,0,0,0-1.749,1.091l-.026.2L18,0H15.521l1.011-6.056a4.386,4.386,0,0,0,.026-.606.94.94,0,0,0-1.046-.958,2.1,2.1,0,0,0-1.7.888L12.63,0H10.151l1.644-9.51ZM29.874.176a4.137,4.137,0,0,1-2.21-.611,3.7,3.7,0,0,1-1.437-1.652A4.605,4.605,0,0,1,25.857-4.4l.026-.352A6.148,6.148,0,0,1,26.692-7.3a4.884,4.884,0,0,1,1.74-1.789,4.306,4.306,0,0,1,2.355-.593A3.29,3.29,0,0,1,33.57-8.334,4.631,4.631,0,0,1,34.286-5L34.146-3.92H28.318a2.041,2.041,0,0,0,.448,1.477,1.711,1.711,0,0,0,1.318.571,3.041,3.041,0,0,0,2.373-1.055l1.134,1.406A3.527,3.527,0,0,1,32.045-.259,5.059,5.059,0,0,1,29.874.176Zm.791-7.813a1.761,1.761,0,0,0-1.217.431,3.784,3.784,0,0,0-.954,1.556H31.9l.053-.229a2.33,2.33,0,0,0,.009-.668,1.276,1.276,0,0,0-.431-.8A1.35,1.35,0,0,0,30.665-7.638ZM38.8-9.519l-.211,1.125a3.422,3.422,0,0,1,2.769-1.292,2.281,2.281,0,0,1,1.986.984,3.966,3.966,0,0,1,.466,2.654L42.812,0H40.333l1.02-6.073A2.844,2.844,0,0,0,41.37-6.7a1.007,1.007,0,0,0-1.125-.923,2.133,2.133,0,0,0-1.749.905L37.31,0H34.831l1.652-9.51Zm10.978-2.329L49.368-9.51H50.95l-.325,1.863H49.043l-.809,4.764a1.211,1.211,0,0,0,.07.686q.123.237.6.255.141.009.756-.044L49.482-.044a4.169,4.169,0,0,1-1.424.2,2.234,2.234,0,0,1-1.819-.765,2.763,2.763,0,0,1-.492-2.021l.817-5.019H45.22l.325-1.863H46.89l.4-2.338Z" transform="translate(931 8746)" fill="#12263f"/>
    <path id="Trazado_188464" data-name="Trazado 188464" d="M-20.895,0l1.977-11.375,3.547.008a4.705,4.705,0,0,1,2.969.8,2.488,2.488,0,0,1,.9,2.242A2.865,2.865,0,0,1-13.5-5.8a1.911,1.911,0,0,1,1.055.879,2.63,2.63,0,0,1,.32,1.52,3.291,3.291,0,0,1-1.262,2.5A5,5,0,0,1-16.527,0Zm3.156-4.953-.539,3.07,1.8.008a2.327,2.327,0,0,0,1.414-.418,1.658,1.658,0,0,0,.68-1.129,1.4,1.4,0,0,0-.191-1.1,1.269,1.269,0,0,0-1.012-.426Zm.281-1.656,1.555.016A2.475,2.475,0,0,0-14.484-7a1.575,1.575,0,0,0,.66-1.086q.2-1.375-1.445-1.383l-1.687-.008Zm12.2.273A4.548,4.548,0,0,0-6-6.414a2.136,2.136,0,0,0-1.867.883L-8.848,0h-2.2l1.469-8.453,2.07-.008-.2,1.031a2.325,2.325,0,0,1,1.969-1.2,3.214,3.214,0,0,1,.766.109ZM-.074-.875A2.919,2.919,0,0,1-2.4.156,2.172,2.172,0,0,1-4.246-.719,3.2,3.2,0,0,1-4.73-2.984l.914-5.469h2.2l-.93,5.5a2.175,2.175,0,0,0-.008.485.8.8,0,0,0,.867.806,2.014,2.014,0,0,0,1.7-.79l1.055-6H3.285L1.816,0H-.238ZM6.941-8.461l-.187,1A3.042,3.042,0,0,1,9.215-8.609a2.028,2.028,0,0,1,1.766.875,3.526,3.526,0,0,1,.414,2.359L10.5,0H8.3l.906-5.4a2.528,2.528,0,0,0,.016-.555.9.9,0,0,0-1-.82,1.9,1.9,0,0,0-1.555.8L5.613,0H3.41L4.879-8.453Zm10.125-.148a3.39,3.39,0,0,1,1.926.574A3.234,3.234,0,0,1,20.18-6.5a4.762,4.762,0,0,1,.27,2.176,5.143,5.143,0,0,1-1.4,3.262A3.96,3.96,0,0,1,16.027.156,3.38,3.38,0,0,1,14.121-.41a3.222,3.222,0,0,1-1.187-1.527,4.657,4.657,0,0,1-.273-2.156,5.3,5.3,0,0,1,1.422-3.328A3.878,3.878,0,0,1,17.066-8.609ZM14.84-3.294a1.95,1.95,0,0,0,.352,1.182,1.168,1.168,0,0,0,.945.449A1.712,1.712,0,0,0,17.73-2.6a4.647,4.647,0,0,0,.539-2.531,2.122,2.122,0,0,0-.363-1.2,1.149,1.149,0,0,0-.949-.464,1.715,1.715,0,0,0-1.574.924A4.6,4.6,0,0,0,14.84-3.294Z" transform="translate(408 8798)" fill="#fff"/>
    <path id="Trazado_188465" data-name="Trazado 188465" d="M-9.367-3.078l2.008-5.375h2.2L-8.719,0h-1.844l-.625-5.289L-13.656,0H-15.5l-.625-8.453h2.063l.133,5.32,2.414-5.32h1.594ZM-1.5.156A3.677,3.677,0,0,1-3.465-.387,3.292,3.292,0,0,1-4.742-1.855,4.093,4.093,0,0,1-5.07-3.914l.023-.312a5.465,5.465,0,0,1,.719-2.266,4.341,4.341,0,0,1,1.547-1.59A3.827,3.827,0,0,1-.687-8.609a2.924,2.924,0,0,1,2.473,1.2,4.117,4.117,0,0,1,.637,2.962L2.3-3.484h-5.18a1.814,1.814,0,0,0,.4,1.313,1.521,1.521,0,0,0,1.172.508A2.7,2.7,0,0,0,.8-2.6L1.8-1.352A3.135,3.135,0,0,1,.43-.23,4.5,4.5,0,0,1-1.5.156Zm.7-6.945a1.565,1.565,0,0,0-1.082.383,3.363,3.363,0,0,0-.848,1.383H.3l.047-.2A2.071,2.071,0,0,0,.359-5.82a1.134,1.134,0,0,0-.383-.707A1.2,1.2,0,0,0-.8-6.789ZM6.438-8.461l-.187,1A3.042,3.042,0,0,1,8.711-8.609a2.028,2.028,0,0,1,1.766.875,3.526,3.526,0,0,1,.414,2.359L10,0H7.8L8.7-5.4a2.528,2.528,0,0,0,.016-.555.9.9,0,0,0-1-.82,1.9,1.9,0,0,0-1.555.8L5.109,0h-2.2L4.375-8.453Zm9.758-2.07-.367,2.078h1.406L16.945-6.8H15.539L14.82-2.562a1.077,1.077,0,0,0,.063.609q.109.211.531.227.125.008.672-.039L15.93-.039a3.706,3.706,0,0,1-1.266.18,1.985,1.985,0,0,1-1.617-.68,2.456,2.456,0,0,1-.437-1.8L13.336-6.8h-1.2l.289-1.656h1.2l.359-2.078Z" transform="translate(665 8798)" fill="#12263f"/>
    <path id="Trazado_188470" data-name="Trazado 188470" d="M-28.969-1.656a1.447,1.447,0,0,0,1.016-.332,1.632,1.632,0,0,0,.531-.926l2.07-.008a3.037,3.037,0,0,1-.559,1.6A3.394,3.394,0,0,1-27.254-.211a3.847,3.847,0,0,1-1.77.375A3.123,3.123,0,0,1-31.461-.9a3.965,3.965,0,0,1-.867-2.766l.023-.43.008-.086a5.284,5.284,0,0,1,1.391-3.27,3.761,3.761,0,0,1,2.914-1.16,3.047,3.047,0,0,1,2.27.934A3.3,3.3,0,0,1-24.9-5.3h-2.055a1.73,1.73,0,0,0-.3-1.07,1.128,1.128,0,0,0-.891-.422q-1.578-.047-1.914,2.3a7.782,7.782,0,0,0-.086,1.438Q-30.062-1.68-28.969-1.656ZM-19.609,0A2.281,2.281,0,0,1-19.7-.766a2.863,2.863,0,0,1-2.156.922,2.594,2.594,0,0,1-1.84-.723,2.186,2.186,0,0,1-.684-1.746,2.527,2.527,0,0,1,1.16-2.121,5.266,5.266,0,0,1,2.965-.738l1.031.016.109-.508a1.764,1.764,0,0,0,.023-.492.846.846,0,0,0-.277-.574.955.955,0,0,0-.629-.215,1.345,1.345,0,0,0-.875.254,1.231,1.231,0,0,0-.461.777l-2.211.008a2.457,2.457,0,0,1,1.113-1.965,4.312,4.312,0,0,1,2.613-.738,3.117,3.117,0,0,1,2.25.855,2.5,2.5,0,0,1,.68,2.121l-.648,4.047-.039.5a2.412,2.412,0,0,0,.133.938L-17.445,0Zm-1.7-1.555a2.017,2.017,0,0,0,1.664-.828l.273-1.461-.766-.008a2.139,2.139,0,0,0-1.758.742,1.292,1.292,0,0,0-.242.633.75.75,0,0,0,.176.668A.891.891,0,0,0-21.3-1.555Zm8.719-6.906-.18.961a3.112,3.112,0,0,1,2.477-1.109,2.379,2.379,0,0,1,1.3.359,1.679,1.679,0,0,1,.7.93A3.255,3.255,0,0,1-5.672-8.609a2.126,2.126,0,0,1,1.754.8,3.271,3.271,0,0,1,.5,2.234l-.016.2L-4.336,0H-6.547l.9-5.4a3.908,3.908,0,0,0,.023-.54.837.837,0,0,0-.937-.845,1.86,1.86,0,0,0-1.555.97l-.023.18L-9.125,0h-2.2l.9-5.383a3.9,3.9,0,0,0,.023-.539.836.836,0,0,0-.93-.852,1.867,1.867,0,0,0-1.508.789L-13.9,0h-2.2l1.461-8.453ZM5.531-4.2a6.981,6.981,0,0,1-.7,2.359A3.826,3.826,0,0,1,3.516-.312a3.058,3.058,0,0,1-1.75.477A2.44,2.44,0,0,1-.172-.75l-.773,4h-2.2l2.023-11.7L.906-8.461l-.148.852a2.7,2.7,0,0,1,2.156-1,2.4,2.4,0,0,1,1.93.9,3.922,3.922,0,0,1,.734,2.363A9.133,9.133,0,0,1,5.531-4.2Zm-2.187-.16.047-.751A2.089,2.089,0,0,0,3.113-6.32a1,1,0,0,0-.855-.462,1.818,1.818,0,0,0-1.586.814L.039-2.478a1.233,1.233,0,0,0,1.242.822,1.59,1.59,0,0,0,1.328-.618A4.234,4.234,0,0,0,3.344-4.364ZM8.555,0H6.336L7.8-8.453h2.219ZM8.063-10.6a1.1,1.1,0,0,1,.344-.867,1.209,1.209,0,0,1,.867-.344,1.215,1.215,0,0,1,.867.3,1.1,1.1,0,0,1,.383.828,1.132,1.132,0,0,1-.324.844,1.215,1.215,0,0,1-.887.375,1.235,1.235,0,0,1-.863-.3A1.091,1.091,0,0,1,8.063-10.6Zm5.844,2.141-.187,1A3.042,3.042,0,0,1,16.18-8.609a2.028,2.028,0,0,1,1.766.875,3.526,3.526,0,0,1,.414,2.359L17.469,0h-2.2l.906-5.4a2.528,2.528,0,0,0,.016-.555.9.9,0,0,0-1-.82,1.9,1.9,0,0,0-1.555.8L12.578,0h-2.2l1.469-8.453Zm5.711,4.227a5.849,5.849,0,0,1,1.277-3.184,3.242,3.242,0,0,1,2.629-1.2,2.37,2.37,0,0,1,2.016.977l.289-.82,2.023.008L26.469-.289a3.983,3.983,0,0,1-1.437,2.672,4.471,4.471,0,0,1-3,.953,4.168,4.168,0,0,1-1.672-.379,3.575,3.575,0,0,1-1.312-1L20.141.617a2.349,2.349,0,0,0,1.844.961,2.166,2.166,0,0,0,1.469-.449,2.4,2.4,0,0,0,.828-1.355l.125-.508a2.749,2.749,0,0,1-2.07.891,2.428,2.428,0,0,1-1.961-.918,3.947,3.947,0,0,1-.8-2.348A7.89,7.89,0,0,1,19.617-4.234Zm2.164.927A2.02,2.02,0,0,0,22.09-2.13a1.08,1.08,0,0,0,.895.466,1.972,1.972,0,0,0,1.594-.767l.656-3.583a1.3,1.3,0,0,0-1.242-.767,1.728,1.728,0,0,0-1.43.681,3.561,3.561,0,0,0-.734,1.87A8.214,8.214,0,0,0,21.781-3.307Zm7.891.979A1.22,1.22,0,0,1,30.566-2a1.111,1.111,0,0,1,.371.855,1.151,1.151,0,0,1-.344.879,1.194,1.194,0,0,1-.883.363,1.2,1.2,0,0,1-.883-.312,1.149,1.149,0,0,1-.375-.852,1.161,1.161,0,0,1,.336-.883A1.238,1.238,0,0,1,29.672-2.328Z" transform="translate(931 8798)" fill="#12263f"/>
  </g>
</svg>
