<svg xmlns="http://www.w3.org/2000/svg" xmlns:xlink="http://www.w3.org/1999/xlink" width="190" height="187" viewBox="0 0 190 187">
  <defs>
    <clipPath id="clip-path">
      <rect id="Rect치ngulo_45774" data-name="Rect치ngulo 45774" width="124" height="124" transform="translate(213 9278)" fill="#fff" stroke="#707070" stroke-width="1"/>
    </clipPath>
  </defs>
  <g id="Grupo_176026" data-name="Grupo 176026" transform="translate(-180 -9246)">
    <rect id="Rect치ngulo_45775" data-name="Rect치ngulo 45775" width="190" height="187" transform="translate(180 9246)" fill="#fff"/>
    <g id="Enmascarar_grupo_333" data-name="Enmascarar grupo 333" clip-path="url(#clip-path)">
      <g id="XMLID_1021_" transform="translate(213 9278)">
        <g id="XMLID_1170_">
          <path id="XMLID_768_" d="M53.141,75.085l-9.43,9.43a6.781,6.781,0,0,1-9.59-9.59l6.644-6.644Z" fill="#ffddcf"/>
          <path id="XMLID_1344_" d="M28.475,50.419l-9.43,9.43a6.781,6.781,0,0,1-9.59-9.59L16.1,43.614A43.944,43.944,0,0,1,85.852,53.831L93,67.086l-9.663,36.566Z" fill="#ffddcf"/>
          <path id="XMLID_1313_" d="M104.949,116.563l-18.715-5.015a4.844,4.844,0,0,1-3.425-5.932l10.531-39.3a4.844,4.844,0,0,1,5.932-3.425l18.715,5.015a4.844,4.844,0,0,1,3.425,5.932l-10.531,39.3A4.844,4.844,0,0,1,104.949,116.563Z" fill="#91def5"/>
          <g id="XMLID_2768_">
            <path id="XMLID_2775_" d="M39.81,2.923H61.119V84.049H39.81Z" transform="translate(45.537 -22.95) rotate(45)" fill="#ffcb7c"/>
            <path id="XMLID_2774_" d="M2.422,91.542l11.828-26.9,15.07,15.07Z" fill="#98a1b3"/>
          </g>
          <path id="XMLID_1251_" d="M62.112,72.3,47.44,57.625a7.75,7.75,0,0,0-10.96,10.96L51.152,83.257a33.667,33.667,0,0,0,30.94,20.395h1.244Z" fill="#ffddcf"/>
          <path id="XMLID_682_" d="M118.614,65.566,99.9,60.551a7.265,7.265,0,0,0-6.779,1.657l-5.137-9.527A46.525,46.525,0,0,0,74.919,37.541L88.406,24.054a2.422,2.422,0,0,0,0-3.425L73.336,5.558a2.423,2.423,0,0,0-3.425,0L47.147,28.321A46.365,46.365,0,0,0,14.387,41.9L7.743,48.546a9.2,9.2,0,0,0,4.167,15.4L.205,90.567A2.422,2.422,0,0,0,3.4,93.759L30.018,82.053a9.2,9.2,0,0,0,15.405,4.174L48.06,83.59l1.056,1.056a36.04,36.04,0,0,0,31.155,21.376,7.268,7.268,0,0,0,5.336,7.866l18.715,5.015a7.262,7.262,0,0,0,8.9-5.138l2.38-8.884a2.422,2.422,0,1,0-4.679-1.254l-2.38,8.884a2.424,2.424,0,0,1-2.966,1.712l-18.715-5.015a2.422,2.422,0,0,1-1.712-2.966l10.53-39.3a2.426,2.426,0,0,1,2.966-1.713l18.715,5.014a2.425,2.425,0,0,1,1.713,2.966l-2.508,9.359a2.422,2.422,0,1,0,4.679,1.254l2.508-9.359a7.274,7.274,0,0,0-5.138-8.9ZM83.268,22.341,49.425,56.184l-.272-.272a10.1,10.1,0,0,0-4.946-2.729L79.158,18.231ZM71.623,10.7l4.11,4.11L21.785,68.754l-4.11-4.11ZM11.168,58.136a4.359,4.359,0,0,1,0-6.165l6.644-6.645A41.209,41.209,0,0,1,41.985,33.484L17.332,58.136a4.364,4.364,0,0,1-6.165,0Zm3.874,10.725L25.1,78.923,7.144,86.82ZM29.32,76.289l-4.11-4.11,6.834-6.834A10.11,10.11,0,0,0,34.768,70.3l.272.272ZM42,82.8a4.359,4.359,0,1,1-6.165-6.165L38.47,74l6.165,6.165Zm39.483,18.417A31.206,31.206,0,0,1,53.378,82.3a2.425,2.425,0,0,0-.513-.758L38.192,66.872a5.328,5.328,0,1,1,7.535-7.535L60.4,74.01a2.422,2.422,0,0,0,3.425-3.425L52.85,59.61l18.6-18.6A41.657,41.657,0,0,1,83.72,54.98L90.5,67.555Z"/>
        </g>
        <g id="XMLID_928_">
          <path id="XMLID_273_" d="M116.084,96.148a2.423,2.423,0,1,1,1.712-.71A2.445,2.445,0,0,1,116.084,96.148Z"/>
        </g>
      </g>
    </g>
  </g>
</svg>
