<svg xmlns="http://www.w3.org/2000/svg" width="86.223" height="101.38" viewBox="0 0 86.223 101.38">
  <g id="Grupo_177200" data-name="Grupo 177200" transform="translate(-76.413 -30.401)">
    <rect id="Rectángulo_45894" data-name="Rectángulo 45894" width="86.223" height="86.223" rx="29.342" transform="translate(76.413 41.949)" fill="#9976ae"/>
    <g id="Grupo_177199" data-name="Grupo 177199" transform="translate(83.801 30.401)">
      <path id="Trazado_187473" data-name="Trazado 187473" d="M128.926,111.274c3.249,10.4,9.571,16.25,20.686,19.051a9.06,9.06,0,0,1,2.959-12.995c4.8-2.649,10.077-5.251,10.065-10.588-.019-8.323-6.341-7.374-2.686-12.765s3.92-14.515-2.7-18.915c-.094-.062-.182-.124-.273-.187-1.244-1.2-2.131-1.5-.717-3.887,9.324-15.725-18.922-31.091-27.127-18.367a10.813,10.813,0,0,0-10.685-4.551c-3.5.4-12.443,4.043-16.418,10.576-6.606,10.856,3.231,10.665-1.528,16.3a7.636,7.636,0,0,0-1.379,1.377c-.058.048-.115.1-.174.142-6.229,4.9-4.7,12.124-1.049,17.516s-3.434,5.47-3.559,12.485c-.129,7.2,7.4,8.592,12.2,11.241s4.541,8.456,1.7,12.622C119.355,127.525,125.677,121.673,128.926,111.274Z" transform="translate(-92.765 -39.154)" fill="#39271f" fill-rule="evenodd"/>
      <path id="Trazado_187474" data-name="Trazado 187474" d="M126.913,189.7h35.724c0-33.6-26.647-15.471-26.647-43.461H117.7c0,27.99-26.516,9.863-26.516,43.461Z" transform="translate(-91.189 -88.321)" fill="#e4ae7c" fill-rule="evenodd"/>
      <path id="Trazado_187475" data-name="Trazado 187475" d="M117.945,111.192c-.087-.948-3.968-2.07-5.262,1.035s1.035,7.5,5.434,7.849,3.1-.432,3.1-.432Z" transform="translate(-101.758 -70.296)" fill="#e4ae7c" fill-rule="evenodd"/>
      <path id="Trazado_187476" data-name="Trazado 187476" d="M198.443,111.192c.086-.948,3.967-2.07,5.261,1.035s-1.034,7.5-5.433,7.849-3.105-.432-3.105-.432Z" transform="translate(-143.089 -70.296)" fill="#e4ae7c" fill-rule="evenodd"/>
      <path id="Trazado_187477" data-name="Trazado 187477" d="M162.636,144.668s-.049,1.3-.018,3.193c-3.5,8.8-14.383,9.794-18.42.367.045-2.088-.011-3.559-.011-3.559Z" transform="translate(-117.688 -87.535)" fill="#d67f54" fill-rule="evenodd"/>
      <path id="Trazado_187478" data-name="Trazado 187478" d="M140.924,99.552c-22.887.55-34.442-55.887,0-54.442C175.365,43.664,163.81,100.1,140.924,99.552Z" transform="translate(-105.2 -37.742)" fill="#e4ae7c" fill-rule="evenodd"/>
      <path id="Trazado_187479" data-name="Trazado 187479" d="M140.753,101.652a.618.618,0,0,1-1.231.122,2.648,2.648,0,0,1,.077-.958,2.673,2.673,0,0,1,5.247.877.619.619,0,1,1-1.236-.082,1.441,1.441,0,0,0-.131-.71,1.418,1.418,0,0,0-.457-.55,1.436,1.436,0,0,0-2,.321,1.416,1.416,0,0,0-.222.464A1.43,1.43,0,0,0,140.753,101.652Z" transform="translate(-115.349 -64.622)" fill="#39271f" fill-rule="evenodd"/>
      <path id="Trazado_187480" data-name="Trazado 187480" d="M137.289,113.648c1.168.9,1.219,2.21.114,2.933a3.826,3.826,0,0,1-4.116-.314c-1.168-.9-1.219-2.21-.113-2.933A3.825,3.825,0,0,1,137.289,113.648Z" transform="translate(-111.783 -71.637)" fill="#da9077" fill-rule="evenodd"/>
      <path id="Trazado_187481" data-name="Trazado 187481" d="M182.416,113.648c-1.168.9-1.219,2.21-.113,2.933a3.825,3.825,0,0,0,4.116-.314c1.168-.9,1.219-2.21.114-2.933A3.826,3.826,0,0,0,182.416,113.648Z" transform="translate(-136.348 -71.637)" fill="#da9077" fill-rule="evenodd"/>
      <path id="Trazado_187482" data-name="Trazado 187482" d="M142.277,87.953c-.076-.033-.152-.064-.23-.094a5.9,5.9,0,0,0-2.618-.339,5.792,5.792,0,0,0-2.446.766c-.37.238-1.815,1.409-1.406,1.839a21.423,21.423,0,0,0,2.029-.826,5.747,5.747,0,0,1,1.887-.255,5.081,5.081,0,0,1,1.73.352c.016,0,.123.051.146.061,1.207.587,1.1.964,1.921.4C144.559,89.182,143.254,88.461,142.277,87.953Z" transform="translate(-113.347 -58.949)" fill="#3f2716" fill-rule="evenodd"/>
      <path id="Trazado_187483" data-name="Trazado 187483" d="M174.684,87.953c.077-.033.152-.064.23-.094a5.9,5.9,0,0,1,2.619-.339,5.8,5.8,0,0,1,2.446.766c.37.238,1.814,1.409,1.4,1.839a21.372,21.372,0,0,1-2.029-.826,5.752,5.752,0,0,0-1.888-.255,5.086,5.086,0,0,0-1.73.352c-.016,0-.123.051-.146.061-1.207.587-1.1.964-1.921.4C172.4,89.182,173.707,88.461,174.684,87.953Z" transform="translate(-132.167 -58.949)" fill="#3f2716" fill-rule="evenodd"/>
      <path id="Trazado_187484" data-name="Trazado 187484" d="M150.763,123.962q3.164-.04,6.312-.04t6.312.04c0,3.309-3.264,4.491-6.3,4.491h-.022C154.027,128.453,150.763,127.271,150.763,123.962Z" transform="translate(-120.976 -77.162)" fill="#fff" fill-rule="evenodd"/>
      <path id="Trazado_187485" data-name="Trazado 187485" d="M160.363,136.468a.247.247,0,0,1,.25-.426,2.433,2.433,0,0,0,1.211.3,2.323,2.323,0,0,0,1.188-.3.247.247,0,1,1,.256.423,2.821,2.821,0,0,1-1.445.371A2.936,2.936,0,0,1,160.363,136.468Z" transform="translate(-125.715 -83.205)" fill="#d67f54" fill-rule="evenodd"/>
      <path id="Trazado_187486" data-name="Trazado 187486" d="M162.014,108.468a.248.248,0,0,1,0-.5,12.105,12.105,0,0,0,1.857-.1c.452-.077.784-.2.784-.4,0-.714-.723-5.151-.725-5.164a.248.248,0,0,1,.489-.078c0,.013.732,4.5.732,5.242,0,.522-.508.776-1.2.893A12.4,12.4,0,0,1,162.014,108.468Z" transform="translate(-126.478 -66.21)" fill="#d67f54" fill-rule="evenodd"/>
      <path id="Trazado_187487" data-name="Trazado 187487" d="M204.939,116.957a.248.248,0,0,1-.5,0,2.412,2.412,0,0,0-.339-1.485.594.594,0,0,0-.461-.23,1.369,1.369,0,0,0-.676.208,4.465,4.465,0,0,0-1.7,2,9.383,9.383,0,0,0-.423,1.151,1.76,1.76,0,0,1,1.156-.335,1.1,1.1,0,0,1,.535.193.878.878,0,0,1,.333.467,1.627,1.627,0,0,1-.342,1.343.247.247,0,0,1-.411-.275,1.178,1.178,0,0,0,.279-.926.385.385,0,0,0-.148-.207.6.6,0,0,0-.294-.1,1.365,1.365,0,0,0-1.058.445.531.531,0,0,1-.253.159.271.271,0,0,1-.358-.24l0-.013a.857.857,0,0,1,.007-.289,7.761,7.761,0,0,1,.526-1.567,5,5,0,0,1,1.907-2.235,1.842,1.842,0,0,1,.929-.272,1.071,1.071,0,0,1,.836.412A2.845,2.845,0,0,1,204.939,116.957Z" transform="translate(-145.731 -72.575)" fill="#d67f54" fill-rule="evenodd"/>
      <path id="Trazado_187488" data-name="Trazado 187488" d="M116.164,116.957a.248.248,0,0,1-.5,0,2.846,2.846,0,0,1,.452-1.8,1.072,1.072,0,0,1,.835-.412,1.842,1.842,0,0,1,.93.272,5,5,0,0,1,1.907,2.235,7.761,7.761,0,0,1,.526,1.567.872.872,0,0,1,.007.289l0,.013a.271.271,0,0,1-.358.24.528.528,0,0,1-.252-.159,1.366,1.366,0,0,0-1.058-.445.6.6,0,0,0-.294.1.385.385,0,0,0-.147.207,1.178,1.178,0,0,0,.278.926.247.247,0,1,1-.411.275,1.625,1.625,0,0,1-.342-1.343.877.877,0,0,1,.333-.467,1.1,1.1,0,0,1,.534-.193,1.759,1.759,0,0,1,1.156.335,9.3,9.3,0,0,0-.423-1.151,4.462,4.462,0,0,0-1.7-2,1.369,1.369,0,0,0-.676-.208.6.6,0,0,0-.461.23A2.412,2.412,0,0,0,116.164,116.957Z" transform="translate(-103.429 -72.575)" fill="#d67f54" fill-rule="evenodd"/>
      <path id="Trazado_187489" data-name="Trazado 187489" d="M121.471,80.132c-2.307-4.5-2.272-9.533-2.489-11.465-2.128-18.953,9.675-27.956,21.337-27.624.122,0,.244-.005.365-.007v7.428a19.5,19.5,0,0,0-4.928-1.126c-.12,0-.237,0-.355-.007s-.235.007-.354.007c-2.687,0-4.022,4.48-7.115,5.693-1.773.695-.076,8.892-1.909,13.017a13.654,13.654,0,0,1-3.335,3.613C121.1,71.276,120.935,73.089,121.471,80.132Z" transform="translate(-104.96 -35.718)" fill="#462917" fill-rule="evenodd"/>
      <path id="Trazado_187490" data-name="Trazado 187490" d="M181.85,80.132c2.307-4.5,2.272-9.533,2.489-11.465,2.128-18.953-9.675-27.956-21.336-27.624-.122,0-.244-.005-.365-.007v7.428a19.484,19.484,0,0,1,4.927-1.126c.12,0,.238,0,.355-.007s.235.007.354.007c2.686,0,4.022,5.727,7.115,6.94,1.772.695.076,7.645,1.909,11.77a13.647,13.647,0,0,0,3.336,3.613C182.22,71.276,182.386,73.089,181.85,80.132Z" transform="translate(-126.913 -35.718)" fill="#462917" fill-rule="evenodd"/>
      <path id="Trazado_187491" data-name="Trazado 187491" d="M135.4,223.825h27.234l-1.511-9.338H109.678l-1.511,9.338Z" transform="translate(-99.678 -122.445)" fill="#2e1e11" fill-rule="evenodd"/>
      <path id="Trazado_187492" data-name="Trazado 187492" d="M113.051,199.688a1.054,1.054,0,0,1-2.106-.066l2.1-15.317a1.054,1.054,0,0,1,2.106.067Z" transform="translate(-101.067 -106.843)" fill="#2e1e11" fill-rule="evenodd"/>
      <path id="Trazado_187493" data-name="Trazado 187493" d="M208.016,199.688a1.054,1.054,0,0,0,2.106-.066l-2.1-15.317a1.054,1.054,0,0,0-2.107.067Z" transform="translate(-148.554 -106.843)" fill="#2e1e11" fill-rule="evenodd"/>
      <path id="Trazado_187494" data-name="Trazado 187494" d="M176.577,101.652a.618.618,0,0,1-1.23.122,2.659,2.659,0,0,1,.077-.958,2.675,2.675,0,0,1,4.145-1.469,2.669,2.669,0,0,1,1.1,2.346.619.619,0,1,1-1.236-.082,1.446,1.446,0,0,0-.13-.71,1.436,1.436,0,0,0-2.683.236A1.441,1.441,0,0,0,176.577,101.652Z" transform="translate(-133.261 -64.622)" fill="#39271f" fill-rule="evenodd"/>
      <path id="Trazado_187495" data-name="Trazado 187495" d="M134.5,48.892c10.351-7.212,5.893,5.578,14.635,5.612,4.352.017,8.336,1.774,8.265,5.466s-.1,5.326,3.894,7.243c7.735,3.714-7.027,16.515,12.348,17.228-2.025-9.354,7.586-12.378,4.335-20.494s-9.538-5.75-8.169-10.79c1.077-3.967,1.53-8.257-1.318-11.308-4.115-4.406-8.184.084-10.818-4.158-2.21-3.559-3.5-8.837-12.844-6.859C132.935,33.351,132.432,42.856,134.5,48.892Z" transform="translate(-112.376 -30.401)" fill="#623a1c" fill-rule="evenodd"/>
      <path id="Trazado_187496" data-name="Trazado 187496" d="M137.663,56.247a.247.247,0,1,1-.4-.285,5.31,5.31,0,0,1,2.46-1.559,7.443,7.443,0,0,1,2.586-.43,4.506,4.506,0,0,1,2.523.774,4.217,4.217,0,0,1,1.531,2.129c.769,2.213,1.482,3.441,2.469,4.13s2.278.86,4.2.956a14.777,14.777,0,0,1,6.3,1.483,6.657,6.657,0,0,1,3.516,6.043c.1,2.971.445,4.623,1.085,5.627a4.633,4.633,0,0,0,2.815,1.76c.092.03.178.06.255.088a4.228,4.228,0,0,1,2.613,2.385,6.572,6.572,0,0,1-.163,4.469q-.089.273-.186.535a9.588,9.588,0,0,0-.618,5.089,3.8,3.8,0,0,0,2.123,2.934.247.247,0,1,1-.194.455,4.276,4.276,0,0,1-2.416-3.294,10.08,10.08,0,0,1,.638-5.356c.068-.183.128-.354.181-.516a6.107,6.107,0,0,0,.175-4.134,3.751,3.751,0,0,0-2.326-2.1c-.084-.031-.163-.059-.236-.082a5.026,5.026,0,0,1-3.078-1.966c-.689-1.081-1.063-2.809-1.163-5.877a6.192,6.192,0,0,0-3.261-5.627,14.324,14.324,0,0,0-6.087-1.421c-2.014-.1-3.379-.288-4.463-1.045s-1.846-2.054-2.652-4.372a3.735,3.735,0,0,0-1.349-1.888,4.018,4.018,0,0,0-2.25-.683,6.936,6.936,0,0,0-2.411.4A4.834,4.834,0,0,0,137.663,56.247Z" transform="translate(-114.202 -42.186)" fill="#774d30" fill-rule="evenodd"/>
      <path id="Trazado_187497" data-name="Trazado 187497" d="M142.821,42.779a.248.248,0,0,1-.217-.446,9.7,9.7,0,0,1,1.632-.605,10.215,10.215,0,0,1,4.454-.274,4.662,4.662,0,0,1,3.528,2.487,4.907,4.907,0,0,1,.317.848,6.642,6.642,0,0,0,2.867,4.039,7.576,7.576,0,0,0,5.13.9,8.166,8.166,0,0,1,1.225-.088,10.5,10.5,0,0,1,5.068,1.325,5.782,5.782,0,0,1,3.056,4.107,5.4,5.4,0,0,1,.06.809c0,.821-.021,1.618-.041,2.346-.079,2.972-.127,4.72,1.559,5.712.136.081.263.153.4.232h0c2.632,1.52,9.109,5.259,6.8,11.3-2.376,6.2-2.921,6.888-2.923,6.89a.248.248,0,1,1-.393-.3s.5-.628,2.854-6.765c2.161-5.643-4.055-9.233-6.582-10.692h0l-.4-.233c-1.937-1.14-1.888-3-1.8-6.15.018-.692.039-1.451.039-2.335a4.939,4.939,0,0,0-.054-.735,5.3,5.3,0,0,0-2.812-3.752,9.988,9.988,0,0,0-4.822-1.257,7.766,7.766,0,0,0-1.152.082,8.067,8.067,0,0,1-5.463-.972,7.124,7.124,0,0,1-3.084-4.328,4.491,4.491,0,0,0-.287-.762,4.186,4.186,0,0,0-3.174-2.218,9.705,9.705,0,0,0-4.231.266A9.073,9.073,0,0,0,142.821,42.779Z" transform="translate(-116.827 -35.86)" fill="#774d30" fill-rule="evenodd"/>
    </g>
  </g>
</svg>
