<svg xmlns="http://www.w3.org/2000/svg" width="80.195" height="102.037" viewBox="0 0 80.195 102.037">
  <g id="Grupo_177602" data-name="Grupo 177602" transform="translate(-87.438 -283.112)">
    <circle id="Elipse_4898" data-name="Elipse 4898" cx="40.098" cy="40.098" r="40.098" transform="translate(87.438 304.954)" fill="#88b1df"/>
    <g id="Grupo_177601" data-name="Grupo 177601" transform="translate(88.94 283.113)">
      <path id="Trazado_188373" data-name="Trazado 188373" d="M119.314,355.3c-.091-1-4.172-2.177-5.532,1.088s1.088,7.889,5.713,8.252,3.264-.453,3.264-.453Z" transform="translate(-101.258 -316.854)" fill="#e4ae7c" fill-rule="evenodd"/>
      <path id="Trazado_188374" data-name="Trazado 188374" d="M199.7,355.3c.09-1,4.171-2.177,5.531,1.088s-1.088,7.889-5.713,8.252-3.264-.453-3.264-.453Z" transform="translate(-140.466 -316.854)" fill="#e4ae7c" fill-rule="evenodd"/>
      <path id="Trazado_188375" data-name="Trazado 188375" d="M130.038,435.245H92.724c-.432-19.081,14.249-30.157,26.854-34.291a64.842,64.842,0,0,0,.762-12.228h19.4a64.9,64.9,0,0,0,.761,12.228c12.606,4.134,27.287,15.21,26.855,34.291Z" transform="translate(-91.442 -333.208)" fill="#e4ae7c" fill-rule="evenodd"/>
      <path id="Trazado_188376" data-name="Trazado 188376" d="M164.664,388.726s-.052,1.369-.018,3.356c-3.684,9.256-15.123,10.3-19.367.385.047-2.194-.011-3.742-.011-3.742Z" transform="translate(-116.37 -333.208)" fill="#d67f54" fill-rule="evenodd"/>
      <path id="Trazado_188377" data-name="Trazado 188377" d="M167.477,446.393c.441-18.843-14.359-29.879-27.282-34.132-2.587,5.74-19.946,5.715-22.5-.034C104.742,416.455,89.862,427.5,90.3,446.393Z" transform="translate(-90.295 -344.355)" fill="#c53d3f" fill-rule="evenodd"/>
      <path id="Trazado_188378" data-name="Trazado 188378" d="M143.119,346.407c-24.062.578-36.21-58.758,0-57.238C179.33,287.649,167.181,346.985,143.119,346.407Z" transform="translate(-104.523 -285.972)" fill="#e4ae7c" fill-rule="evenodd"/>
      <path id="Trazado_188379" data-name="Trazado 188379" d="M121.734,345.1l1.27-1.436c.38-.429,7.34,16.052,9.021,12.645,4.162-8.441,19.474-7.165,22.593-.422,3.108,5,10.2-11.647,10.2-16.608a7.036,7.036,0,0,1,1.842.374c-.815,12.94-7.765,26.514-17.523,30.011C133.888,373.2,124.575,360.036,121.734,345.1Z" transform="translate(-105.207 -309.754)" fill="#a87e58" fill-rule="evenodd"/>
      <path id="Trazado_188380" data-name="Trazado 188380" d="M120.872,323.323c-1.693-7.136-2.51-15.716-.434-21.921,2.553-7.63,12.354-12.183,22.144-12.262,9.4-.077,18.8,4.026,21.749,11.1,2.614,6.262,1.8,15.492,0,23.086-2.643-4.008-3.762-11.151-3.53-15.469.353-6.57-8.77-10.015-18.2-10.308-9.432.293-18.555,3.738-18.2,10.308C124.633,312.172,123.514,319.315,120.872,323.323Z" transform="translate(-104.007 -285.971)" fill="#52311d" fill-rule="evenodd"/>
      <path id="Trazado_188381" data-name="Trazado 188381" d="M158.842,288.813c4.217,4.419,5.19,6.542,7.5,8.323,1.079.834-4.153,3.16-7.2,2.177a25.875,25.875,0,0,0,2.155,2.838c-2.1,1.012-9.1.61-13.644-2.012.053.8.274,2.2.993,2.717a12.965,12.965,0,0,1-3.057-.194c-4.178-.785-12.191-4.823-12.858-11.318C134.855,282.275,150.111,279.664,158.842,288.813Z" transform="translate(-110.426 -283.113)" fill="#52311d" fill-rule="evenodd"/>
      <path id="Trazado_188382" data-name="Trazado 188382" d="M159.663,430.914a.261.261,0,0,1,.521,0v9.442a.261.261,0,1,1-.521,0Z" transform="translate(-123.198 -353.095)" fill="#632421" fill-rule="evenodd"/>
      <path id="Trazado_188383" data-name="Trazado 188383" d="M163.032,434.887a.907.907,0,1,0-.948-.907A.93.93,0,0,0,163.032,434.887Z" transform="translate(-124.346 -354.243)" fill="#632421" fill-rule="evenodd"/>
      <path id="Trazado_188384" data-name="Trazado 188384" d="M163.032,444.83a.907.907,0,1,0-.948-.907A.93.93,0,0,0,163.032,444.83Z" transform="translate(-124.346 -358.96)" fill="#632421" fill-rule="evenodd"/>
      <path id="Trazado_188385" data-name="Trazado 188385" d="M138.622,357.745c1.228.943,1.282,2.324.12,3.085a4.024,4.024,0,0,1-4.328-.33c-1.228-.943-1.281-2.323-.119-3.085A4.024,4.024,0,0,1,138.622,357.745Z" transform="translate(-110.768 -318.126)" fill="#da9077" fill-rule="evenodd"/>
      <path id="Trazado_188386" data-name="Trazado 188386" d="M183.542,357.745c-1.228.943-1.282,2.324-.119,3.085a4.023,4.023,0,0,0,4.327-.33c1.228-.943,1.282-2.323.12-3.085A4.025,4.025,0,0,0,183.542,357.745Z" transform="translate(-134.071 -318.126)" fill="#da9077" fill-rule="evenodd"/>
      <path id="Trazado_188387" data-name="Trazado 188387" d="M111.513,455.563a.39.39,0,0,1,.779.006l-.1,10.8a.39.39,0,1,1-.779-.006Z" transform="translate(-100.314 -364.728)" fill="#632421" fill-rule="evenodd"/>
      <path id="Trazado_188388" data-name="Trazado 188388" d="M213.739,455.563a.39.39,0,0,1,.78.006l-.1,10.8a.39.39,0,1,1-.78-.006Z" transform="translate(-148.802 -364.728)" fill="#632421" fill-rule="evenodd"/>
      <path id="Trazado_188389" data-name="Trazado 188389" d="M152.166,411.18c.281,2.207-4.645,8.009-5.852,7.819-2.947-.462-6.626-8.4-6.876-12.21-.132-2.01,3.008-6.678,3-6.606l-.222,3.787C142.091,406.183,146.195,409.8,152.166,411.18Z" transform="translate(-113.603 -338.642)" fill="#9c393f" fill-rule="evenodd"/>
      <path id="Trazado_188390" data-name="Trazado 188390" d="M163.689,411.081c-.28,2.207,4.645,8.009,5.852,7.819,2.948-.462,6.626-8.4,6.876-12.21.132-2.01-2.966-6.789-2.963-6.717l.222,3.786C173.806,405.973,169.661,409.7,163.689,411.081Z" transform="translate(-125.102 -338.543)" fill="#9c393f" fill-rule="evenodd"/>
      <path id="Trazado_188391" data-name="Trazado 188391" d="M136.732,304.344a17.057,17.057,0,0,0,.882,2.075,14.975,14.975,0,0,0,2.854,3.941,18.135,18.135,0,0,1,1.57,1.757c-.323.565-1.99-.395-2.334-.565a10.527,10.527,0,0,1-4.148-3.935,12.186,12.186,0,0,1-1.195-2.453c-.431-1.448-1.1-3.166.6-3.076C136.43,301.993,136.149,302.556,136.732,304.344Z" transform="translate(-110.959 -292.108)" fill="#52311d" fill-rule="evenodd"/>
      <path id="Trazado_188392" data-name="Trazado 188392" d="M143.705,332.034c-.079-.036-.16-.068-.242-.1a6.219,6.219,0,0,0-2.753-.357,6.1,6.1,0,0,0-2.572.806c-.389.25-1.908,1.48-1.477,1.934a22.549,22.549,0,0,0,2.133-.869,6.06,6.06,0,0,1,1.985-.267,5.344,5.344,0,0,1,1.819.37c.017,0,.129.054.154.065,1.269.617,1.154,1.013,2.02.419C146.1,333.327,144.732,332.568,143.705,332.034Z" transform="translate(-112.251 -306.09)" fill="#3f2716" fill-rule="evenodd"/>
      <path id="Trazado_188393" data-name="Trazado 188393" d="M175.843,332.034c.08-.036.16-.068.243-.1a6.216,6.216,0,0,1,2.753-.357,6.1,6.1,0,0,1,2.572.806c.389.25,1.908,1.48,1.477,1.934a22.547,22.547,0,0,1-2.134-.869,6.055,6.055,0,0,0-1.984-.267,5.35,5.35,0,0,0-1.82.37c-.016,0-.129.054-.153.065-1.269.617-1.154,1.013-2.02.419C173.444,333.327,174.816,332.568,175.843,332.034Z" transform="translate(-130.105 -306.09)" fill="#3f2716" fill-rule="evenodd"/>
      <path id="Trazado_188394" data-name="Trazado 188394" d="M151.844,368.022q3.327-.042,6.636-.042t6.636.042c0,3.479-3.431,4.722-6.625,4.722h-.024C155.275,372.744,151.844,371.5,151.844,368.022Z" transform="translate(-119.489 -323.368)" fill="#fff" fill-rule="evenodd"/>
      <path id="Trazado_188395" data-name="Trazado 188395" d="M161.449,380.549a.26.26,0,0,1,.263-.448,2.564,2.564,0,0,0,1.273.315,2.449,2.449,0,0,0,1.249-.313.26.26,0,1,1,.27.444,2.965,2.965,0,0,1-1.519.391A3.083,3.083,0,0,1,161.449,380.549Z" transform="translate(-123.984 -329.1)" fill="#906949" fill-rule="evenodd"/>
      <path id="Trazado_188396" data-name="Trazado 188396" d="M163.108,352.858a.261.261,0,0,1,0-.522,12.664,12.664,0,0,0,1.952-.1c.474-.08.824-.209.824-.426,0-.75-.76-5.415-.762-5.429a.26.26,0,0,1,.513-.081c0,.014.771,4.728.771,5.511,0,.55-.534.816-1.26.94A13.052,13.052,0,0,1,163.108,352.858Z" transform="translate(-124.708 -312.978)" fill="#d67f54" fill-rule="evenodd"/>
      <path id="Trazado_188397" data-name="Trazado 188397" d="M206.258,361.129a.261.261,0,1,1-.521,0,2.535,2.535,0,0,0-.357-1.562.624.624,0,0,0-.486-.241,1.428,1.428,0,0,0-.71.219,4.686,4.686,0,0,0-1.785,2.106,9.812,9.812,0,0,0-.445,1.21,1.849,1.849,0,0,1,1.216-.352,1.161,1.161,0,0,1,.562.2.923.923,0,0,1,.351.492,1.709,1.709,0,0,1-.36,1.411.26.26,0,0,1-.432-.289,1.237,1.237,0,0,0,.293-.974.408.408,0,0,0-.155-.219.639.639,0,0,0-.309-.107,1.433,1.433,0,0,0-1.112.468.554.554,0,0,1-.265.166.285.285,0,0,1-.377-.252l0-.014a.917.917,0,0,1,.008-.3,8.159,8.159,0,0,1,.552-1.647,5.25,5.25,0,0,1,2-2.35,1.932,1.932,0,0,1,.977-.286,1.123,1.123,0,0,1,.879.434A2.987,2.987,0,0,1,206.258,361.129Z" transform="translate(-142.972 -319.016)" fill="#d67f54" fill-rule="evenodd"/>
      <path id="Trazado_188398" data-name="Trazado 188398" d="M117.269,361.129a.261.261,0,1,1-.522,0,2.99,2.99,0,0,1,.476-1.889,1.124,1.124,0,0,1,.878-.434,1.931,1.931,0,0,1,.978.286,5.25,5.25,0,0,1,2,2.35,8.13,8.13,0,0,1,.553,1.647.9.9,0,0,1,.007.3l0,.014a.284.284,0,0,1-.376.252.558.558,0,0,1-.265-.166,1.434,1.434,0,0,0-1.112-.468.637.637,0,0,0-.309.107.408.408,0,0,0-.155.219,1.24,1.24,0,0,0,.293.974.26.26,0,0,1-.433.289,1.709,1.709,0,0,1-.36-1.411.917.917,0,0,1,.351-.492,1.161,1.161,0,0,1,.561-.2,1.847,1.847,0,0,1,1.216.352,9.814,9.814,0,0,0-.445-1.21,4.685,4.685,0,0,0-1.785-2.106,1.425,1.425,0,0,0-.71-.219.624.624,0,0,0-.486.241A2.539,2.539,0,0,0,117.269,361.129Z" transform="translate(-102.842 -319.016)" fill="#d67f54" fill-rule="evenodd"/>
      <path id="Trazado_188399" data-name="Trazado 188399" d="M147.253,343.759a2.008,2.008,0,1,1-2.807.451A2,2,0,0,1,147.253,343.759Z" transform="translate(-115.799 -311.698)" fill="#3f2716" fill-rule="evenodd"/>
      <path id="Trazado_188400" data-name="Trazado 188400" d="M176.552,343.759a2.008,2.008,0,1,0,2.807.451A2,2,0,0,0,176.552,343.759Z" transform="translate(-130.814 -311.698)" fill="#3f2716" fill-rule="evenodd"/>
      <path id="Trazado_188401" data-name="Trazado 188401" d="M142.084,292.721a.26.26,0,1,1,.509.106,8.722,8.722,0,0,0,1.491,6.856,19.093,19.093,0,0,0,7.2,5.9.26.26,0,0,1-.232.465,19.618,19.618,0,0,1-7.4-6.077A9.226,9.226,0,0,1,142.084,292.721Z" transform="translate(-114.766 -287.572)" fill="#6c452c" fill-rule="evenodd"/>
      <path id="Trazado_188402" data-name="Trazado 188402" d="M146.454,289a.26.26,0,1,1,.516-.065c.26,2.05,1.916,4.5,4.2,6.739a27.1,27.1,0,0,0,8.54,5.682c5.757,2.261,6.193,2.26,6.194,2.26a.26.26,0,0,1-.016.52s-.53,0-6.368-2.3a27.646,27.646,0,0,1-8.715-5.8C148.445,293.731,146.73,291.173,146.454,289Z" transform="translate(-116.932 -285.766)" fill="#6c452c" fill-rule="evenodd"/>
      <path id="Trazado_188403" data-name="Trazado 188403" d="M156.438,286.8a.26.26,0,1,1,.505-.122,10.877,10.877,0,0,0,3.862,5.252,19.182,19.182,0,0,0,7.064,3.669c5.023,1.307,5.5,1.375,5.5,1.376a.26.26,0,1,1-.086.513s-.49-.07-5.544-1.386a19.7,19.7,0,0,1-7.264-3.771A11.369,11.369,0,0,1,156.438,286.8Z" transform="translate(-121.665 -284.707)" fill="#6c452c" fill-rule="evenodd"/>
      <path id="Trazado_188404" data-name="Trazado 188404" d="M153.14,372.181a.261.261,0,1,1,0-.521H164.8a.261.261,0,1,1,0,.521Z" transform="translate(-119.98 -325.113)" fill="#afb0b0" fill-rule="evenodd"/>
    </g>
  </g>
</svg>
