<svg xmlns="http://www.w3.org/2000/svg" xmlns:xlink="http://www.w3.org/1999/xlink" width="74" height="74" viewBox="0 0 74 74">
  <defs>
    <clipPath id="clip-path">
      <rect id="Rectángulo_45726" data-name="Rectángulo 45726" width="74" height="74" transform="translate(280 4053)" fill="#fff" stroke="#707070" stroke-width="1"/>
    </clipPath>
  </defs>
  <g id="Enmascarar_grupo_319" data-name="Enmascarar grupo 319" transform="translate(-280 -4053)" clip-path="url(#clip-path)">
    <g id="contenido-de-la-tabla" transform="translate(280 4053)">
      <g id="Grupo_175857" data-name="Grupo 175857">
        <g id="Grupo_175853" data-name="Grupo 175853">
          <path id="Trazado_186070" data-name="Trazado 186070" d="M1.084,5.564H72.916V68.436H1.084Z" fill="#fff6cc"/>
          <path id="Trazado_186071" data-name="Trazado 186071" d="M67.135,5.564h5.781V68.436H67.135Z" fill="#fff1b5"/>
          <path id="Trazado_186072" data-name="Trazado 186072" d="M1.084,5.564H72.916v8.262H1.084Z" fill="#7b7b7f"/>
          <path id="Trazado_186073" data-name="Trazado 186073" d="M67.135,5.564h5.781v8.262H67.135Z" fill="#6b6b73"/>
        </g>
        <g id="Grupo_175856" data-name="Grupo 175856">
          <g id="Grupo_175855" data-name="Grupo 175855">
            <g id="Grupo_175854" data-name="Grupo 175854">
              <path id="Trazado_186074" data-name="Trazado 186074" d="M22.008,25.518H62.632a2.24,2.24,0,1,0,0-4.479H22.008a2.24,2.24,0,1,0,0,4.479Z" fill="#00cfe9"/>
              <path id="Trazado_186075" data-name="Trazado 186075" d="M62.633,21.039H56.851a2.24,2.24,0,1,1,0,4.479h5.781a2.24,2.24,0,1,0,0-4.479Z" fill="#00bfd6"/>
              <path id="Trazado_186076" data-name="Trazado 186076" d="M32.722,34.315H62.633a2.24,2.24,0,0,0,0-4.479H32.722a2.24,2.24,0,0,0,0,4.479Z" fill="#80e1ff"/>
              <path id="Trazado_186077" data-name="Trazado 186077" d="M62.633,29.836H56.851a2.24,2.24,0,1,1,0,4.479h5.781a2.24,2.24,0,1,0,0-4.479Z" fill="#59d8ff"/>
              <path id="Trazado_186078" data-name="Trazado 186078" d="M22.008,51.909H62.632a2.24,2.24,0,1,0,0-4.479H22.008a2.24,2.24,0,1,0,0,4.479Z" fill="#fd0"/>
              <path id="Trazado_186079" data-name="Trazado 186079" d="M62.633,47.43H56.851a2.24,2.24,0,1,1,0,4.479h5.781a2.24,2.24,0,1,0,0-4.479Z" fill="#f7d200"/>
              <path id="Trazado_186080" data-name="Trazado 186080" d="M22.008,60.549H62.632a2.24,2.24,0,1,0,0-4.479H22.008a2.24,2.24,0,1,0,0,4.479Z" fill="#ff7de9"/>
              <path id="Trazado_186081" data-name="Trazado 186081" d="M62.633,56.07H56.851a2.24,2.24,0,1,1,0,4.479h5.781a2.24,2.24,0,1,0,0-4.479Z" fill="#ff5ee4"/>
              <path id="Trazado_186082" data-name="Trazado 186082" d="M44.317,43.112H62.633a2.24,2.24,0,0,0,0-4.479H44.317a2.24,2.24,0,0,0,0,4.479Z" fill="#c4f1ff"/>
              <path id="Trazado_186083" data-name="Trazado 186083" d="M62.633,38.633H56.851a2.24,2.24,0,0,1,0,4.479h5.781a2.24,2.24,0,0,0,0-4.479Z" fill="#a1e9ff"/>
            </g>
          </g>
        </g>
      </g>
      <g id="Grupo_175858" data-name="Grupo 175858">
        <path id="Trazado_186084" data-name="Trazado 186084" d="M6.059,8.612a1.084,1.084,0,0,0,0,2.168A1.084,1.084,0,1,0,6.059,8.612Z"/>
        <path id="Trazado_186085" data-name="Trazado 186085" d="M9.937,8.612a1.084,1.084,0,0,0,0,2.168A1.084,1.084,0,1,0,9.937,8.612Z"/>
        <path id="Trazado_186086" data-name="Trazado 186086" d="M13.816,8.612a1.084,1.084,0,0,0,0,2.168A1.084,1.084,0,0,0,13.816,8.612Z"/>
        <path id="Trazado_186087" data-name="Trazado 186087" d="M72.916,4.48H1.084A1.084,1.084,0,0,0,0,5.564v46.85a1.085,1.085,0,0,0,2.168,0v-37.5H71.832V67.352H2.168V58.186a1.085,1.085,0,0,0-2.168,0V68.436A1.084,1.084,0,0,0,1.084,69.52H72.916A1.084,1.084,0,0,0,74,68.436V5.564A1.084,1.084,0,0,0,72.916,4.48ZM2.168,12.743V6.648H71.832v6.094Z"/>
        <path id="Trazado_186088" data-name="Trazado 186088" d="M62.633,28.752H32.722a3.324,3.324,0,0,0,0,6.647H62.633A3.324,3.324,0,0,0,62.633,28.752Zm0,4.479H32.722a1.156,1.156,0,0,1,0-2.311H62.633A1.156,1.156,0,0,1,62.633,33.231Z"/>
        <path id="Trazado_186089" data-name="Trazado 186089" d="M22.008,52.993H62.633a3.324,3.324,0,0,0,0-6.647H22.008a3.324,3.324,0,0,0,0,6.647Zm0-4.479H62.633a1.156,1.156,0,0,1,0,2.311H22.008a1.156,1.156,0,0,1,0-2.311Z"/>
        <path id="Trazado_186090" data-name="Trazado 186090" d="M22.008,22.123H50.913a1.084,1.084,0,0,0,0-2.168H22.008a3.324,3.324,0,0,0,0,6.647H62.633a3.324,3.324,0,0,0,0-6.647h-5.94a1.084,1.084,0,0,0,0,2.168h5.94a1.156,1.156,0,0,1,0,2.311H22.008a1.156,1.156,0,0,1,0-2.311Z"/>
        <path id="Trazado_186091" data-name="Trazado 186091" d="M62.633,54.986H22.008a3.324,3.324,0,0,0,0,6.647H62.633A3.324,3.324,0,0,0,62.633,54.986Zm0,4.479H22.008a1.156,1.156,0,0,1,0-2.311H62.633A1.156,1.156,0,0,1,62.633,59.465Z"/>
        <path id="Trazado_186092" data-name="Trazado 186092" d="M62.633,37.549H44.317a3.324,3.324,0,0,0,0,6.647H62.633A3.324,3.324,0,0,0,62.633,37.549Zm0,4.479H44.317a1.156,1.156,0,0,1,0-2.311H62.633A1.156,1.156,0,0,1,62.633,42.028Z"/>
        <path id="Trazado_186093" data-name="Trazado 186093" d="M9.98,25.971a1.084,1.084,0,0,0,1.533,0l4.166-4.166a1.084,1.084,0,0,0-1.533-1.533l-3.4,3.4-.852-.852a1.084,1.084,0,1,0-1.533,1.533Z"/>
        <path id="Trazado_186094" data-name="Trazado 186094" d="M24.841,29.069l-3.4,3.4-.852-.852a1.084,1.084,0,0,0-1.533,1.533l1.619,1.619a1.084,1.084,0,0,0,1.533,0L26.374,30.6a1.084,1.084,0,0,0-1.533-1.533Z"/>
        <path id="Trazado_186095" data-name="Trazado 186095" d="M36.548,37.866l-3.4,3.4-.852-.852a1.084,1.084,0,0,0-1.533,1.533l1.619,1.619a1.084,1.084,0,0,0,1.533,0L38.081,39.4a1.084,1.084,0,0,0-1.533-1.533Z"/>
        <path id="Trazado_186096" data-name="Trazado 186096" d="M8.361,50.743,9.98,52.362a1.084,1.084,0,0,0,1.533,0L15.679,48.2a1.084,1.084,0,0,0-1.533-1.533l-3.4,3.4-.852-.852a1.084,1.084,0,0,0-1.533,1.533Z"/>
        <path id="Trazado_186097" data-name="Trazado 186097" d="M8.361,59.54,9.98,61.159a1.084,1.084,0,0,0,1.533,0l4.166-4.166a1.084,1.084,0,0,0-1.533-1.533l-3.4,3.4-.852-.852A1.084,1.084,0,1,0,8.361,59.54Z"/>
      </g>
    </g>
  </g>
</svg>
