<svg xmlns="http://www.w3.org/2000/svg" width="66.576" height="83.541" viewBox="0 0 66.576 83.541">
  <g id="Grupo_176436" data-name="Grupo 176436" transform="matrix(0.875, 0.485, -0.485, 0.875, 55.2, -345.332)">
    <path id="Trazado_185917" data-name="Trazado 185917" d="M180.633,403.543c-.874-.357-1.691-.653-2.476-1.019a1.723,1.723,0,0,1-.857-2.8,3.351,3.351,0,0,0,.81-1.856,6.351,6.351,0,0,0-1.737-4.055,18.979,18.979,0,0,0-2.573-2.127c-1.238-.84-2.555-1.567-3.846-2.329a20.55,20.55,0,0,1-4.73-3.768,12.4,12.4,0,0,1-3.314-9.4,27.084,27.084,0,0,1,1.643-7.962,16.6,16.6,0,0,1,9.436-9.816,31.612,31.612,0,0,1,8.419-2.352c5.914-.745,11.011.867,15.037,5.462a20.862,20.862,0,0,1,5.357,12.662,10.565,10.565,0,0,1-.888,4.9,17.676,17.676,0,0,1-2.429,4.136c-.153.191-.288.4-.45.578a11.2,11.2,0,0,0-2.846,6.5,17.279,17.279,0,0,1-.483,1.924,9.631,9.631,0,0,0-.139.994,12.788,12.788,0,0,1,1.726,1.558,1.968,1.968,0,0,1-.113,2.6c-.462.563-.992,1.071-1.532,1.647a2.813,2.813,0,0,1-.3,2.561c-.186.331-.279.714-.443,1.059a.846.846,0,0,0,.045.878,2.649,2.649,0,0,1,.039,2.418,7.264,7.264,0,0,1-3.976,3.952,14.307,14.307,0,0,1-4.678.994,3.262,3.262,0,0,1-1.427-.251,2.194,2.194,0,0,1-1.6-2.208,1.277,1.277,0,0,0-.771-1.316,2.1,2.1,0,0,1-.987-1.962A14.489,14.489,0,0,1,180.633,403.543Zm1.129-23.369c-.263-.322-.484-.588-.7-.858a12.751,12.751,0,0,1-2.77-5.785,3.538,3.538,0,0,1-.012-1.239,1.457,1.457,0,0,1,2.151-1.037,2.344,2.344,0,0,1,.744.562,11.992,11.992,0,0,1,1.246,1.67,11.3,11.3,0,0,1,1.648,5.018c.019.341.01.736.455.845.593.147,1.2.383,1.786-.039.014-.162.022-.3.038-.438a21.11,21.11,0,0,1,1.205-5.494,3.244,3.244,0,0,1,2.016-1.987,1.454,1.454,0,0,1,1.955.7,3.143,3.143,0,0,1,.54,2.089,22.042,22.042,0,0,1-.607,3.275,5.7,5.7,0,0,1-2.811,3.619.918.918,0,0,0-.544,1c.1,1.25.161,2.5.3,3.748.232,2.007.524,4.006.781,6.01.1.742.163,1.488.251,2.3a19.876,19.876,0,0,1,2.581-.4c1.519-.037,1.378-.563,1.12-1.649a7.6,7.6,0,0,1-.2-.81,8.266,8.266,0,0,1-.128-1.655,13.807,13.807,0,0,1,2.984-7.679c.546-.68,1.076-1.373,1.581-2.083a9.435,9.435,0,0,0,1.727-7.915,22.007,22.007,0,0,0-1.237-3.764,16.5,16.5,0,0,0-7.186-8.18,13.232,13.232,0,0,0-8.179-1.466,33.378,33.378,0,0,0-6.45,1.692,15.879,15.879,0,0,0-10.208,10.048,24.944,24.944,0,0,0-1.376,5.89,9.259,9.259,0,0,0,2.721,7.915,27.2,27.2,0,0,0,5.491,3.972,45.148,45.148,0,0,1,4.315,2.935,8.851,8.851,0,0,1,3.161,4.814c.07.264.187.516.308.843l2.6-.767a6.221,6.221,0,0,0-.361-3.444,45.413,45.413,0,0,0-3.194-7.036c-.378-.706-.734-1.328-1.67-1.323a1.811,1.811,0,0,1-.775-.294,15.752,15.752,0,0,1-5.85-5.252,3.4,3.4,0,0,1-.6-2.074,1.484,1.484,0,0,1,1.55-1.607,3.746,3.746,0,0,1,2.617.861,18.163,18.163,0,0,1,4.2,4.762c.31.456.593.93.909,1.428A2.96,2.96,0,0,0,181.762,380.174Zm1.969,1.282a4.885,4.885,0,0,1-2.594,2.612l.432.866c1.626,3.251,3.45,6.424,3.931,10.176l2.828-.783a90.155,90.155,0,0,1-2.173-12.447Zm11.348,14.14a1.9,1.9,0,0,0-2.11-.666c-1.472.523-2.944,1.052-4.4,1.624-1.874.737-3.714,1.564-5.6,2.263-1.058.392-2.182.6-3.474.948l-.362.688a6.973,6.973,0,0,0,4.453.509,22.48,22.48,0,0,0,10.623-4.516A10.573,10.573,0,0,0,195.079,395.6Zm-2,4.437a20.167,20.167,0,0,1-11.133,3.594c-.352,1.806.283,2.471,1.962,2.154a1.45,1.45,0,0,0,.2-.064c2.169-.749,4.348-1.47,6.5-2.259C192.1,402.913,192.764,401.691,193.081,400.033Zm-8.927,7.679c-.034.964.01,1.069.818,1.057.932-.014,1.866-.1,2.794-.2a7.288,7.288,0,0,0,4.914-3.022,1.283,1.283,0,0,0,.336-1.341C190.286,405.932,187.2,406.667,184.154,407.713Zm-7.405-26.772c-1.073-1.451-1.984-3.067-3.922-3.846A10.727,10.727,0,0,0,176.749,380.941Zm13.143-6.816a6.441,6.441,0,0,0-1.218,3.883A6.565,6.565,0,0,0,189.891,374.125Z" transform="translate(-11.63 -25.957)"/>
    <path id="Trazado_185918" data-name="Trazado 185918" d="M214.415,308.873a3.311,3.311,0,0,1,.862,3.1c-.8,3.241-1.678,6.465-2.557,9.687-.3,1.1-.649,1.294-1.618,1.107a1.439,1.439,0,0,1-1.1-1.835c.807-3.347,1.641-6.689,2.531-10.015A2.942,2.942,0,0,1,214.415,308.873Z" transform="translate(-38.138 -0.03)"/>
    <path id="Trazado_185919" data-name="Trazado 185919" d="M173.163,308.819a2.38,2.38,0,0,1,1.3,1.6c.745,2.282,1.489,4.564,2.171,6.865.523,1.767.96,3.561,1.418,5.347.1.391.127.8.194,1.241-.38.124-.666.24-.962.309a1.34,1.34,0,0,1-1.728-.929c-1.027-3.358-2.262-6.667-2.529-10.212-.079-1.042-.145-2.086-.159-3.13A4.367,4.367,0,0,1,173.163,308.819Z" transform="translate(-17.685)"/>
    <path id="Trazado_185920" data-name="Trazado 185920" d="M236.175,323.358a10.111,10.111,0,0,1-.155,1.484,12.915,12.915,0,0,1-2.413,5.041c-.825.988-1.541,2.066-2.291,3.114a1.582,1.582,0,0,1-1.191.731c-1.3.143-1.944-.982-1.448-2.146a3.246,3.246,0,0,1,.392-.616c1.092-1.489,2.111-3.04,3.306-4.441a32.476,32.476,0,0,1,3.05-2.844A3.663,3.663,0,0,1,236.175,323.358Z" transform="translate(-48.372 -8.018)"/>
    <path id="Trazado_185921" data-name="Trazado 185921" d="M153.369,351.148c-.47.137-.766.323-1.027.282a23.245,23.245,0,0,1-2.95-.6c-2.4-.708-4.773-1.484-7.156-2.233a4.839,4.839,0,0,1-.592-.2,1.171,1.171,0,0,1-.79-1.4,1.3,1.3,0,0,1,1.568-.836c2.688.815,5.384,1.612,8.042,2.52A5.535,5.535,0,0,1,153.369,351.148Z" transform="translate(0 -20.567)"/>
  </g>
</svg>
