<svg xmlns="http://www.w3.org/2000/svg" xmlns:xlink="http://www.w3.org/1999/xlink" width="1240" height="288" viewBox="0 0 1240 288">
  <defs>
    <clipPath id="clip-path">
      <rect id="Rect치ngulo_45941" data-name="Rect치ngulo 45941" width="1240" height="288" transform="translate(180 1865)" fill="#dddeff"/>
    </clipPath>
  </defs>
  <g id="Grupo_177679" data-name="Grupo 177679" transform="translate(-180 -1865)">
    <rect id="Rect치ngulo_45939" data-name="Rect치ngulo 45939" width="1240" height="288" transform="translate(180 1865)" fill="#dddeff"/>
    <g id="Enmascarar_grupo_342" data-name="Enmascarar grupo 342" clip-path="url(#clip-path)">
      <g id="Grupo_177622" data-name="Grupo 177622" transform="translate(152.039 1757.472)" opacity="0.09">
        <path id="Trazado_188433" data-name="Trazado 188433" d="M1124.182,2170.638c50.505-29.781,91.908-68.429,146.189-94.059,74.556-35.2,165.617-42.354,253.216-45.4s177.468-3.176,259.475-26.859c65.54-18.927,125.945-57.076,150.577-105.687H1765.392c-37.491,44.5-94.111,79.775-160.114,96.251-131.768,32.892-285-4.6-409.141,42.491-87.938,33.357-147.364,104.9-241.514,126.228-68.12,15.432-143.079.841-204.068-26.972-26.642-12.15-51.105-26.617-74.275-42.344v104.4C816.186,2253.736,998.853,2244.542,1124.182,2170.638Z" transform="translate(-875.678 -1938.632)" fill="#3c3fa7"/>
        <path id="Trazado_188434" data-name="Trazado 188434" d="M1030.536,2201.563c94.15-21.331,153.576-92.871,241.514-126.228,124.139-47.088,277.374-9.6,409.141-42.491,66-16.476,122.623-51.753,160.114-96.251H752.194v195.653c23.169,15.728,47.633,30.195,74.275,42.345C887.457,2202.4,962.416,2216.995,1030.536,2201.563Z" transform="translate(-951.592 -1976.593)" fill="#dddeff" opacity="0.614"/>
        <path id="Trazado_188435" data-name="Trazado 188435" d="M17.427,0H1222.573A17.671,17.671,0,0,1,1240,17.9V687.263a17.671,17.671,0,0,1-17.427,17.9H17.427A17.671,17.671,0,0,1,0,687.263V17.9A17.671,17.671,0,0,1,17.427,0Z" transform="translate(17.359 6.762)" fill="none"/>
      </g>
      <g id="Grupo_177623" data-name="Grupo 177623" transform="translate(240.641 2072.558)" opacity="0.254">
        <path id="Trazado_188436" data-name="Trazado 188436" d="M1485.737,1962.023c-50.505,29.781-91.908,68.429-146.189,94.059-74.556,35.2-165.617,42.354-253.216,45.4s-177.468,3.176-259.475,26.858c-65.54,18.927-125.945,57.076-150.577,105.687H844.528c37.491-44.5,94.111-79.774,160.114-96.251,131.768-32.892,285,4.6,409.141-42.491,87.938-33.357,147.364-104.9,241.514-126.227,68.12-15.432,143.079-.842,204.068,26.971,26.642,12.15,51.105,26.617,74.275,42.345v-104.4C1793.733,1878.924,1611.066,1888.118,1485.737,1962.023Z" transform="translate(-676.28 -1898.632)" fill="#3c3fa7"/>
        <path id="Trazado_188437" data-name="Trazado 188437" d="M1562.963,1942.864c-94.15,21.33-153.576,92.87-241.514,126.227-124.139,47.088-277.374,9.6-409.141,42.492-66,16.477-122.623,51.753-160.114,96.25H1841.306V2012.18c-23.169-15.728-47.633-30.195-74.275-42.345C1706.043,1942.022,1631.083,1927.432,1562.963,1942.864Z" transform="translate(-583.947 -1872.438)" fill="#dddeff" opacity="0.614"/>
      </g>
    </g>
  </g>
</svg>
