<svg xmlns="http://www.w3.org/2000/svg" xmlns:xlink="http://www.w3.org/1999/xlink" width="1328" height="671" viewBox="0 0 1328 671">
  <defs>
    <clipPath id="clip-path">
      <rect id="Rect치ngulo_45644" data-name="Rect치ngulo 45644" width="1328" height="671" rx="22" transform="translate(124 2022)" fill="#a6bbff"/>
    </clipPath>
  </defs>
  <g id="Enmascarar_grupo_308" data-name="Enmascarar grupo 308" transform="translate(-124 -2022)" clip-path="url(#clip-path)">
    <rect id="Rect치ngulo_45302" data-name="Rect치ngulo 45302" width="1328" height="671" rx="22" transform="translate(124 2022)" fill="#a6bbff"/>
    <g id="Grupo_175493" data-name="Grupo 175493" transform="translate(108.039 2016.721)" opacity="0.254">
      <path id="Trazado_178656" data-name="Trazado 178656" d="M1124.182,2158.379c50.505-28.439,91.908-65.345,146.189-89.82,74.556-33.617,165.617-40.446,253.216-43.355s177.468-3.032,259.475-25.648c65.54-18.074,125.945-54.5,150.577-100.924H1765.392c-37.491,42.493-94.111,76.179-160.114,91.913-131.768,31.41-285-4.39-409.141,40.576-87.938,31.853-147.364,100.17-241.514,120.539-68.12,14.736-143.079.8-204.068-25.756a512.227,512.227,0,0,1-74.275-40.436v99.7C816.186,2237.733,998.853,2228.953,1124.182,2158.379Z" transform="translate(-676.28 -1898.632)" fill="#3c3fa7"/>
      <path id="Trazado_178657" data-name="Trazado 178657" d="M1030.536,2189.622c94.15-20.369,153.576-88.685,241.514-120.539,124.139-44.966,277.374-9.167,409.141-40.577,66-15.734,122.623-49.42,160.114-91.913H752.194v186.836a512.25,512.25,0,0,0,74.275,40.437C887.457,2190.425,962.416,2204.358,1030.536,2189.622Z" transform="translate(-752.193 -1936.593)" fill="#dddeff" opacity="0.614"/>
      <path id="Trazado_182347" data-name="Trazado 182347" d="M17.427,0H1222.573A17.265,17.265,0,0,1,1240,17.1V656.29a17.265,17.265,0,0,1-17.427,17.1H17.427A17.265,17.265,0,0,1,0,656.29V17.1A17.265,17.265,0,0,1,17.427,0Z" transform="translate(17.359 6.457)" fill="none"/>
    </g>
    <g id="Grupo_175494" data-name="Grupo 175494" transform="translate(198.641 2374.903)" opacity="0.254">
      <path id="Trazado_178656-2" data-name="Trazado 178656" d="M1485.737,1959.166c-50.505,28.438-91.908,65.345-146.189,89.82-74.556,33.617-165.617,40.446-253.216,43.355s-177.468,3.032-259.475,25.648c-65.54,18.074-125.945,54.5-150.577,100.924H844.528c37.491-42.492,94.111-76.179,160.114-91.913,131.768-31.41,285,4.39,409.141-40.576,87.938-31.854,147.364-100.17,241.514-120.539,68.12-14.736,143.079-.8,204.068,25.756a512.216,512.216,0,0,1,74.275,40.437v-99.7C1793.733,1879.812,1611.066,1888.592,1485.737,1959.166Z" transform="translate(-676.28 -1898.632)" fill="#3c3fa7"/>
      <path id="Trazado_178657-2" data-name="Trazado 178657" d="M1562.963,1942.581c-94.15,20.369-153.576,88.685-241.514,120.539-124.139,44.966-277.374,9.167-409.141,40.577-66,15.734-122.623,49.42-160.114,91.913H1841.306V2008.773a512.249,512.249,0,0,0-74.275-40.436C1706.043,1941.777,1631.083,1927.844,1562.963,1942.581Z" transform="translate(-583.947 -1875.329)" fill="#dddeff" opacity="0.614"/>
    </g>
  </g>
</svg>
